<?xml version="1.0" encoding="utf-8"?>
<!-- Generator: Adobe Illustrator 24.3.0, SVG Export Plug-In . SVG Version: 6.00 Build 0)  -->
<svg version="1.1" id="Ebene_1" xmlns="http://www.w3.org/2000/svg" xmlns:xlink="http://www.w3.org/1999/xlink" x="0px" y="0px"
	 viewBox="0 0 841.9 595.3" style="enable-background:new 0 0 841.9 595.3;" xml:space="preserve">
<style type="text/css">
	.st0{fill:none;stroke:#D30771;stroke-miterlimit:10;}
</style>
<path class="st0" d="M129.1,378.3c-39.4,0-71.4-32-71.4-71.4s32-71.4,71.4-71.4s71.4,32,71.4,71.4S168.5,378.3,129.1,378.3z
	 M129.1,250.8c-30.9,0-56.1,25.2-56.1,56.1S98.2,363,129.1,363s56.1-25.2,56.1-56.1S160.1,250.8,129.1,250.8z"/>
<polygon class="st0" points="250.7,401 250.7,389.7 214.9,389.7 214.9,246.8 250.7,246.8 250.7,235.5 322.7,235.5 322.7,246.8 
	357.8,246.8 357.8,389.7 322.7,389.7 322.7,401 "/>
<path class="st0" d="M390.7,208.6v-99.2h-10.2v99.2H237.6v-99.2h-10.2v99.2h-12.5V9h188.2v199.6H390.7z"/>
<path class="st0" d="M188.1,208.6v-99.2h-10.2v99.2H35v-99.2H24.8v99.2H12.4V9h188.2v199.6H188.1z M141.3,196.1v-10.2H71.6v10.2
	H141.3z"/>
</svg>
