<svg id="Слой_1" data-name="Слой 1" xmlns="http://www.w3.org/2000/svg" viewBox="0 0 2362 2362"><title>3d christmas card</title><path d="M17.55442,17.55442V2344.44558H2344.44558V17.55442ZM1659.17,1553.24679a47.018,47.018,0,0,0-12.56339-13.7412q-7.53982-5.4831-15.612-10.20478-7.00444-4.16251-13.02142-8.39938a45.97823,45.97823,0,0,1-9.74674-8.9526,16.56906,16.56906,0,0,1-3.72976-10.54979q0-9.16378,7.15613-16.24258a16.88759,16.88759,0,0,1,12.18565-4.857q10.19883,0,10.2018,13.46459l-.15169,8.46779q0,8.19119,10.81451,8.19118,9.28423,0,9.89842-7.91458c.09815-1.6656.15169-3.37581.15169-5.13659a37.13266,37.13266,0,0,0-7.00444-22.14059q-7.00891-9.78838-23.45522-9.7854a49.307,49.307,0,0,0-28.93683,9.30059q-16.44483,11.2428-16.4478,31.233a34.14519,34.14519,0,0,0,4.03611,16.58759,37.88281,37.88281,0,0,0,11.3469,12.70318q7.31228,5.27787,15.22834,9.99658,7.16059,4.16251,13.32778,8.5362a36.33393,36.33393,0,0,1,10.12744,10.89779,27.30586,27.30586,0,0,1,3.95878,14.43719q0,10.27467-7.91755,15.963a27.18333,27.18333,0,0,1-15.99274,5.27638q-7.30782,0-13.25045-6.10918-6.70107-6.79922-6.70107-21.79557,0-7.77181-10.96322-7.77181a13.2878,13.2878,0,0,0-6.7784,1.80539q-3.123,1.80242-3.123,6.246,0,22.90888,11.14948,34.698h-24.497c-.15243-1.3797-.37141-3.03229-.66438-4.99085q-4.41681-26.92919-4.41384-70.38053a333.03242,333.03242,0,0,1,4.11046-54.97076,25.79144,25.79144,0,0,0,.458-4.58337q0-8.18672-11.42423-8.18821-7.76735,0-11.04055,2.63522-3.27469,2.64117-4.49117,10.413l-1.21946,7.77478q-7.16059-6.38431-18.42868-6.38579a44.04311,44.04311,0,0,0-22.23576,5.8296q-21.32117,12.35816-29.3919,47.33577a138.26142,138.26142,0,0,0-3.50371,32.06875c0,17.11813.63129,34.19388,6.61741,43.44242h-26.10234c.65806-4.11046,1.315-10.00587,1.97232-17.83382q1.36966-16.311,1.37115-39.63236,0-49.27649-11.72761-72.04613-6.39323-12.49646-22.69083-12.495-11.7291,0-19.79982,12.77158-7.00444,11.38557-12.18268,29.01416-5.79093-16.93558-19.95151-16.93558-26.80427,0-38.5289,41.92256a234.89889,234.89889,0,0,1,3.50074-39.70375,40.6286,40.6286,0,0,0,.76142-5.96939,6.5174,6.5174,0,0,0-2.28425-5.34182q-2.28425-1.87826-8.98532-1.87678-7.76735,0-10.96322,2.22179-7.31228,5.13957-11.27254,65.80013-.60675,10.27467-.60676,19.43361a171.1405,171.1405,0,0,0,4.86184,40.67076h-22.99123a75.83583,75.83583,0,0,0,7.77-8.73845,9.51747,9.51747,0,0,0,2.43891-5.83257,7.68484,7.68484,0,0,0-2.894-5.76119,9.48131,9.48131,0,0,0-6.243-2.2902q-3.96621,0-7.3108,4.164-7.16059,9.16378-11.42423,9.16378-8.3741,0-8.37559-88.56829,0-7.07583.15169-13.7412,13.71-.696,21.55168-1.52878,7.84319-.82983,7.84319-10.27021,0-8.6061-7.92052-8.60758-3.96175,0-21.01631.8328.60675-18.5997,2.13256-32.90155c.09815-1.20161.15169-2.45081.15169-3.7476q0-13.04522-12.18268-13.04819-6.246,0-9.137,1.80539-5.79093,3.471-6.70107,15.68639-1.22243,17.355-2.13256,33.59456l-10.05309.55322q-9.2887.41937-9.2887,9.85678,0,8.88717,8.07221,8.88419l10.50815-.13682q-.91459,23.18159-.91608,44.14436,0,9.8553.15466,19.1544.60675,28.18285,6.85276,43.728a34.82845,34.82845,0,0,0,1.68456,3.60484h-46.7331c11.91648-9.11582,17.94089-20.93935,17.94089-35.53082a35.22316,35.22316,0,0,0-5.02654-18.67257,47.018,47.018,0,0,0-12.56338-13.7412q-7.53982-5.4831-15.612-10.20478-7.00444-4.16251-13.02142-8.39938a45.97823,45.97823,0,0,1-9.74674-8.9526,16.56906,16.56906,0,0,1-3.72976-10.54979q0-9.16378,7.15613-16.24258a16.88759,16.88759,0,0,1,12.18565-4.857q10.19883,0,10.2018,13.46459l-.15169,8.46779q0,8.19119,10.8145,8.19118,9.28424,0,9.89843-7.91458c.09815-1.6656.15169-3.37581.15169-5.13659a37.13266,37.13266,0,0,0-7.00444-22.14059q-7.00891-9.78838-23.45522-9.7854a49.307,49.307,0,0,0-28.93683,9.30059q-16.44483,11.2428-16.4478,31.233a34.14519,34.14519,0,0,0,4.03611,16.58759,37.88281,37.88281,0,0,0,11.3469,12.70318q7.31228,5.27787,15.22835,9.99658,7.16059,4.16251,13.32778,8.5362a36.33393,36.33393,0,0,1,10.12744,10.89779,27.30586,27.30586,0,0,1,3.95878,14.43719q0,10.27467-7.91755,15.963a27.18333,27.18333,0,0,1-15.99274,5.27638q-7.30782,0-13.25044-6.10918-6.70107-6.79922-6.70107-21.79557,0-7.77181-10.96322-7.77181a13.2878,13.2878,0,0,0-6.7784,1.80539q-3.123,1.80242-3.123,6.246,0,22.90888,11.14948,34.698h-35.92863c-.25356-1.86116-.6194-4.11195-1.109-6.79327q-3.65391-20.9598-3.6554-63.30173a248.412,248.412,0,0,1,3.95878-46.50594,22.078,22.078,0,0,0,.458-4.164,6.74031,6.74031,0,0,0-1.676-4.59081,15.82778,15.82778,0,0,0,5.4831-1.84555q5.17526-2.91331,8.679-10.13339a24.34563,24.34563,0,0,0,2.894-10.68958,9.429,9.429,0,0,0-3.04567-7.0788q-3.96175-3.6093-10.65984-3.61078-15.98976,0-15.99274,18.88077c0,5.42807,1.33137,9.32885,3.95171,11.74992-.36138-.00929-.67219-.04015-1.05476-.04015q-7.62012,0-10.96619,2.36158-3.35053,2.3601-4.5685,9.44038-4.5685,24.7074-6.70107,61.35655-.61122,11.109-.60973,20.823a181.57146,181.57146,0,0,0,2.84937,34.14183H997.978c-.31007-3.655-.9395-9.26453-1.90429-16.92964q-3.19438-24.43079-3.19736-57.74874.15169-8.6061,6.54938-17.21219a116.41359,116.41359,0,0,1,22.23576-22.76816q11.72464-8.87824,19.03543-10.89481,7.31228-2.0121,7.3108-8.676a8.81753,8.81753,0,0,0-8.98532-8.60758,17.68606,17.68606,0,0,0-7.61417,2.082q-21.32563,9.9936-37.009,31.09616,1.06628-10.82789,2.74229-20.68616a28.02947,28.02947,0,0,0,.45507-4.72019,7.53374,7.53374,0,0,0-2.35861-5.96642q-2.36456-2.08349-8.911-2.085-7.76735,0-11.11788,2.63819-3.35053,2.64117-4.5685,10.413-4.5685,27.48687-6.5464,68.02193-.61122,12.63031-.60973,23.73778a215.14651,215.14651,0,0,0,3.02113,38.30583H883.48476c.00409-.16135.03829-.29817.03829-.4625q0-3.65224-.38071-7.86736-.38368-4.21215-.38071-6.462a171.39327,171.39327,0,0,1,5.40428-41.5794q5.40725-21.629,12.7924-35.81858,7.38813-14.189,12.86974-14.18772,4.11344,0,4.87486,9.62219.75844,9.62051.76142,17.62785a483.37609,483.37609,0,0,1-3.20033,56.89252,90.03633,90.03633,0,0,0-.91311,11.377q0,8.00882,12.94707,8.00864,13.85274,0,15.83807-8.00864a179.28029,179.28029,0,0,0,2.58763-18.68149q1.36966-14.8889,1.37115-31.60811,0-38.20656-11.72761-56.04708a20.962,20.962,0,0,0-18.58037-9.97427q-21.16948,0-34.72182,39.05126-2.59209,7.72887-4.72019,15.73472-.61122-16.15316-.60973-32.17062,0-34.27047,2.28425-56.88991.60675-7.02452.60973-10.81673,0-4.4921-2.665-6.60366-2.66793-2.10356-9.06265-2.10654-6.09431,0-9.2887,2.10654-5.94262,3.93721-7.46248,17.9803a998.97508,998.97508,0,0,0-5.17823,101.283q0,34.55489,3.65242,58.85815c.03792.264.12009.48667.16656.74246H807.10211A110.88628,110.88628,0,0,0,829.5167,1591.137a5.68333,5.68333,0,0,0,2.14743-4.11046q0-2.48892-5.28085-5.975a19.72714,19.72714,0,0,0-11.013-3.48624,10.21779,10.21779,0,0,0-7.16282,2.614q-17.196,16.68407-36.89342,16.68426-25.42736,0-39.394-23.53144-12.89465-21.66135-12.89465-54.15283,0-28.25925,6.44565-50.23421,6.44732-21.96975,18.98338-34.48648a41.69608,41.69608,0,0,1,30.62288-12.50985q16.29426,0,16.29426,21.41375l-.17846,16.68165q0,9.08626,14.32491,9.08756,15.21905,0,15.22426-8.589,0-19.81432-3.87661-30.4474c7.91718,2.84528,16.09349,4.5514,24.165,2.688,9.40469-2.1716,16.71066-8.81021,22.57-16.163,3.004-3.76916,5.17154-8.299,8.21052-11.97522,3.47062-4.19858,3.26354-3.6119,7.81122.89414,3.0598,3.03117,6.52744,6.46684,11.122,8.75072,11.61682,5.95452,18.02938,3.54646,21.39478.66959,3.72455-3.184,4.754-8.35737,4.42871-13.84753H1418.818c-1.73587,7.026-1.83513,14.40633,2.68875,18.79117,3.17951,3.081,9.42923,5.885,21.39478.66661,4.728-1.9924,8.40347-5.20537,11.64619-8.03987,4.82057-4.21345,4.64992-4.812,7.85249-.40413,6.48246,8.92249,11.86071,20.49915,22.11121,25.67887,14.635,7.39519,39.8361,1.5061,54.97745-2.13442,7.58406-1.82361,15.22277-4.28558,21.35352-9.10838,7.8194-6.15157,12.36671-15.60757,14.26839-25.44985h271.06752a698.64406,698.64406,0,0,1-109.45745,206.33813h-90.46515c11.91648-9.11582,17.94089-20.93935,17.94089-35.53082A35.22317,35.22317,0,0,0,1659.17,1553.24679Zm-179.18662,20.64452c0-11.19819,1.62285-24.74718,3.55316-36.04054,3.04567-17.3044,11.40527-29.83395,17.70184-37.97754q5.028-6.66537,12.18268-6.6624a8.83094,8.83094,0,0,1,7.00742,3.19141q2.73932,3.19438,2.73932,5.553c0,4.164-7.97481,17.0962-14.925,41.92256-8.97045,32.04384-19.32691,43.719-22.676,43.719C1482.92574,1587.59682,1479.98343,1579.07549,1479.98343,1573.89131Zm30.96418,13.19765c3.85765-7.864,8.92174-28.6342,13.89772-44.18079q-.7629,13.46459-.76142,26.23618a245.28684,245.28684,0,0,0,2.64265,38.30583H1493.554A56.36027,56.36027,0,0,0,1510.9476,1587.089Zm-184.4537,257.4464-33.9433,3.3431-16.97165,1.67118c-.07324.00743-.14574.01487-.21935.02193-.0606-.30152-.11711-.59226-.16842-.85436-1.06777-5.45484-3.055-15.60868-14.487-20.13889a24.07,24.07,0,0,0-8.902-1.71542c-10.53938,0-17.35831,6.69363-21.87811,11.13089-5.405,5.30613-12.96454,5.788-20.52889,5.772-8.70351-.01822-15.9102-2.89881-20.94121-9.93151-7.69894-10.76171-9.01506-26.89461-4.34395-38.26271,15.74513,11.33686,33.55887,17.53862,50.75508,17.53862,4.08,0,9.02993.95177,11.79193-2.71106,1.69943-2.25451,2.19131-5.13734,2.63447-7.90156,8.463-.48444,15.22723-9.53333,13.10508-17.53193-.76625-2.89063-2.208-6.59994.27178-8.35217a6.18931,6.18931,0,0,1,2.39579-.83912q7.66641-1.547,15.33245-3.09326c6.37167-1.28564,13.00246-2.56867,19.31613-1.04026,5.57456,1.34958,10.40257,4.78451,15.90388,6.39471,5.90768,1.72918,12.23324,1.25961,18.36622.60787,8.64885-.91943,19.59869-2.75791,27.22476-7.60711.34725-.22047.69412-.44912,1.04212-.68074,2.67091-1.77862,5.37825-3.73422,8.56408-3.76916,4.30788-.04759,7.75657,3.45947,10.001,7.04237,9.93412,15.85666,4.52277,33.35922-2.66087,49.04338C1371.31156,1837.61123,1356.04418,1841.625,1326.4939,1844.53536Zm-61.47775-138.34558a7.44551,7.44551,0,0,1-2.60659,3.851c-1.84963,1.16295-4.32127.71123-6.45718.119A70.41369,70.41369,0,0,1,1229.99616,1696.7a5.39521,5.39521,0,0,0-2.92224-1.54737c-2.93674-.1911-3.71414,3.73422-3.32451,6.46944a181.98224,181.98224,0,0,0,19.26966,59.20019c3.12486,5.91883,8.90464,11.19373,4.45288,18.16211a12.60747,12.60747,0,0,1-12.49423,5.25445l1.30088,8.01384c-25.28032,1.73475-45.807-11.35583-61.74172-28.69517-11.30043-12.29756-25.59224-24.3423-33.16106-39.087a208.45269,208.45269,0,0,1-10.83272-25.85919c-1.85187-5.24255-8.65183-17.84758-7.50189-23.18493a329.47814,329.47814,0,0,0-6.40773,43.97817,2.88573,2.88573,0,0,1-5.05443,1.59942c-4.99383-5.76826-12.595-13.2352-14.5279-16.28087-5.68907-8.9645-11.38408-17.288-15.49863-27.12958-4.49861-10.78439-6.68991-22.59863-11.45249-33.20976-.04685-.10484-.10931-.25765-.16359-.38554h207.72377A185.19177,185.19177,0,0,1,1265.01615,1706.18979Zm-233.68929,142.52742c-.05056.26211-.10782.55285-.16842.85436-.07361-.00706-.14611-.0145-.21861-.02193l-16.972-1.67118-33.94367-3.3431c-29.55028-2.91034-44.81729-6.92414-51.66-21.86361-7.3569-16.06375-19.37153-64.974,15.15213-53.69962,6.89254,2.25116,12.97644,6.32,19.39978,9.63706,6.42334,3.3167,13.6345,5.95229,20.83116,4.9507,9.1634-1.27523,16.2251-7.79784,24.89478-10.39959,9.575-2.87316,20.47127,2.05263,29.98043,3.732,22.844,4.03425,46.10552,5.38755,69.29492,5.38755.21117,0,.42235-.00372.63352-.00372a27.54068,27.54068,0,0,1,7.73835,4.33725c11.00114,9.7051,11.88079,33.09488,1.77528,47.22088a23.68066,23.68066,0,0,1-9.70918,8.20234,25.72483,25.72483,0,0,1-10.28174,1.72657,96.18719,96.18719,0,0,1-13.54676-1.24883,27.59642,27.59642,0,0,1-3.63458-.69561,33.94845,33.94845,0,0,1-4.30639-3.83274c-4.51162-4.42946-11.33054-11.12309-21.86956-11.12309a24.06517,24.06517,0,0,0-8.90167,1.71542C1034.38182,1833.10853,1032.39462,1843.26237,1031.32686,1848.71721Zm-5.4396-204.719h16.62068c-.29222,1.05178-.56288,2.10728-.78149,3.15981-1.99984,9.62479-1.79461,19.64442-4.502,29.10376C1035.05624,1665.05913,1030.43643,1654.54205,1025.88726,1643.99821Zm296.93489-37.97271c-1.16034-4.72912-3.0598-9.77871-3.58624-14.61341-.37885-3.47657.33758-7.05947.55768-10.59069a156.95752,156.95752,0,0,1,4.3261-27.36641q4.5685-19.29568,10.96619-31.02775,6.39323-11.7291,11.8793-11.72761,4.109,0,4.87188,8.05139.7629,8.05288.76142,14.85359,0,19.85336-3.80709,48.585a68.23586,68.23586,0,0,0-.60973,9.30059q0,8.74886,13.25045,8.74738,13.8572,0,15.83807-7.91458,1.6775-6.79922,4.5685-40.81316,2.891-34.00948,7.92052-48.16856,6.39769-18.18479,11.8793-18.18479,10.20329,0,10.20478,36.22978,0,17.49326-1.06777,38.59434-1.36966,29.01267-2.894,42.61557c-.23943,1.82919-.41714,3.43493-.54355,4.854h-84.19535C1323.04,1606.96537,1322.93442,1606.48242,1322.82214,1606.0255ZM561.02194,893.69176h32.73388l34.42773,27.82073-44.01163-4.67ZM577.353,972.34267l-27.82036-34.42736v-32.735L572.683,928.33179Zm-16.33143-94.8972L584.169,854.29809l44.01312-4.67186-34.42625,27.81924ZM593.71344,799.092a702.71461,702.71461,0,0,1,41.83482-57.58255l-13.64305,50.458a7.32062,7.32062,0,0,0-.16284.99787l-.10819.88968-30.66154,30.66154S592.61407,812.36511,593.71344,799.092Zm-19.80019,32.19851-1.22875,11.51421-11.38036,11.38036C565.37927,846.47348,569.56186,838.82808,573.91324,831.29049Zm-40.62689,82.57065v24.05491l-16.74077,20.7423Q524.159,935.89726,533.28635,913.86114ZM515.82172,1401.112H770.3905a40.91875,40.91875,0,0,0,4.54025,5.45112c-15.67821.139-29.5566,3.287-41.58015,9.53333A92.529,92.529,0,0,0,702.37118,1441.93a116.95869,116.95869,0,0,0-18.98375,36.7882,144.26065,144.26065,0,0,0-6.44565,43.44874q0,40.45847,20.23556,67.35085a73.23906,73.23906,0,0,0,18.8737,17.93234H625.27917A698.644,698.644,0,0,1,515.82172,1401.112Zm440.34381-50.284c-1.144.793-2.46606,1.62545-3.82791,1.33657-2.09278-.44428-2.74489-3.06909-2.92558-5.20091a133.40919,133.40919,0,0,1,.74432-29.27516,103.52745,103.52745,0,0,0-33.31758,43.10893c-5.63664-14.658-3.65465-31.53189,3.036-45.73969a87.41284,87.41284,0,0,1,13.24487-19.9504c2.7159-3.12709,12.05106-15.31943,16.40059-14.8863,2.1084.21006,6.67318,6.41293,8.38823,7.90193a104.95767,104.95767,0,0,0,8.88865,6.90146,116.84007,116.84007,0,0,0,20.60846,11.37367,167.2168,167.2168,0,0,0,65.67447,13.0415,178.8921,178.8921,0,0,0,48.1128-6.56908c24.91039-6.97693,51.78121-22.14431,66.31915-45.93227,6.81,24.53786,20.13926,44.67229,38.10953,56.90888,9.849,6.707,20.64972,10.89184,31.09319,14.9391a173.52278,173.52278,0,0,0,62.74554,12.19792,149.84287,149.84287,0,0,0,46.8372-7.40672,112.70743,112.70743,0,0,0,26.73251-12.821,64.79161,64.79161,0,0,0,3.67027,5.81287c5.65932,7.95027,9.12771,15.19526,8.91914,25.351a8.62741,8.62741,0,0,1-.42123,2.64377H976.56988c1.37858-3.8662,2.83858-7.693,4.43429-11.45732,4.116-9.7103,8.81467-19.16147,13.37313-28.76321Q975.27123,1337.58557,956.16553,1350.828ZM1018.498,988.46628l25.80751,15.13577,27.31324-12.32024-6.66723,28.80745,20.35825,21.73125-29.92764,2.66831-14.7309,25.75063-11.82948-27.15858-29.46291-5.81622,22.61722-19.45332Zm-17.56762,199.63037c1.31947-1.11759,2.58875-2.153,3.78255-2.99622a253.62131,253.62131,0,0,1,23.35409-14.1405c13.001-7.2383,26.44549-14.7242,37.48084-26.39939,9.15411-9.68428,22.6187-16.32586,36.35991-20.87354a67.506,67.506,0,0,0,.68557,26.35515,73.89638,73.89638,0,0,0,11.84212,26.06739c.09518.13533.20039.26434.29706.3993a62.639,62.639,0,0,0-18.61717,1.47c-12.21056,3.00143-24.37948,8.492-37.20312,16.785-7.2699,4.70086-14.2327,9.86868-20.96649,14.86585-11.92577,8.85148-23.18977,17.21219-36.045,23.22806a108.6668,108.6668,0,0,1-37.59758,9.77611,261.48135,261.48135,0,0,1,28.426-44.48417Q996.75673,1193.06928,1000.93039,1188.09665Zm358.49369-91.29906-29.86444,3.28287-14.17991,26.04805L1302.9751,1099.219l-29.58-5.20909,22.19858-19.914-4.10154-29.26735,26.12353,14.60189,27.04518-12.879-6.05267,28.93832Zm-116.36857,160.61629a86.2007,86.2007,0,0,1-42.26907-49.08241c2.0411-.79153,4.22051-1.49978,6.51369-2.13368,13.67948,15.119,33.019,24.85239,53.23191,27.53817a1.70454,1.70454,0,0,0,1.91618-1.3797,1.66956,1.66956,0,0,0-1.40907-1.91172,83.83982,83.83982,0,0,1-48.2366-25.564,117.85442,117.85442,0,0,1,19.59162-2.21361c17.04824,2.76163,32.85359,13.72224,44.118,23.64074,6.4107,5.64445,12.65893,11.91127,18.7012,17.97175,11.08888,11.11974,22.55364,22.61907,36.15356,31.57837a120.88454,120.88454,0,0,0,56.38466,19.40982c-9.89471,15.351-26.26146,27.49133-46.36615,34.08718-30.9467,10.15087-65.17182,8.59123-98.98015-4.51236-9.62776-3.73087-19.5827-7.58889-27.96461-13.2958-19.37524-13.19393-32.41526-37.93256-35.77546-67.87358-1.19789-10.67546.99341-18.9752,6.69921-25.37289a35.64859,35.64859,0,0,1,10.79443-7.9142,90.51621,90.51621,0,0,0,45.3456,49.99292,1.73386,1.73386,0,0,0,2.272-.71866A1.64373,1.64373,0,0,0,1243.05551,1257.41387Zm-4.2194-68.79115c1.53027-1.31017,3.02113-2.66422,4.44544-4.08741a66.66841,66.66841,0,0,0,15.80238-23.96866,49.77532,49.77532,0,0,0,2.50435-9.55936c4.67707,5.23549,8.34808,10.87027,12.32321,16.98206,11.81907,18.17512,26.88085,34.6627,45.11843,46.87884,6.70107,4.48894,12.40835,10.69665,17.47207,16.31954,1.48789,4.48225,2.55305,9.224,4.15471,14.62382,2.22477,7.50227,4.6648,14.94244,7.2699,22.32759-2.70995-1.45666-5.36413-3.0189-7.93577-4.7135-12.28566-8.09415-22.70384-18.54244-33.73361-29.60456-6.2144-6.23262-12.64034-12.67678-19.42209-18.64877C1274.70637,1204.49314,1257.85965,1192.8239,1238.83611,1188.62272Zm66.234-363.29047,9.08719,29.22794-29.12421-10.68735-25.46621,17.52858,1.3388-30.53439-24.82637-18.39447,29.95181-8.18412,10.123-28.897,17.17241,25.47625,31.08241.53537Zm-55.58123,143.71416-26.5745,13.79325-3.50854,29.3417-21.555-20.58541-29.46848,5.78685,13.25268-26.51539-14.70413-25.7655,29.74584,4.19783,20.38092-21.7108,5.131,29.11008Zm3.1204,171.46462c2.27124,1.64181-.24649,7.7034-3.29328,13.22814a89.63943,89.63943,0,0,1-6.18726,9.73967c-7.21116,9.089-17.54308,16.14257-28.842,20.60325-30.28753,11.95737-69.49048,5.49574-89.51077-19.23582a58.67284,58.67284,0,0,1-10.697-19.97159,51.35779,51.35779,0,0,1-1.43361-22.19561c.13347-.92054.30189-1.83662.49819-2.74824a247.64466,247.64466,0,0,1,38.3155-5.75487C1185.79864,1111.8036,1225.32393,1120.92462,1252.60929,1140.511Zm-244.04316,105.87418c14.26951-6.67764,26.69422-15.899,38.70885-24.8167,6.53748-4.8518,13.298-9.86943,20.15079-14.30074,11.3469-7.33831,21.96324-12.15925,32.45541-14.73759,10.29809-2.53112,23.64818-.87927,35.3572,3.964-12.8887,15.68378-32.29554,26.1265-52.8631,29.33353a1.69554,1.69554,0,0,0-1.44179,1.88718,1.72217,1.72217,0,0,0,1.943,1.44885,93.86,93.86,0,0,0,30.92551-9.64561,85.81975,85.81975,0,0,0,25.50636-19.88162c.01264-.0145.03569-.04127.04759-.05614a2.48553,2.48553,0,0,0,.4863-.97445c.02379.01227.0487.02305.0725.03532.42309.23125.851.45284,1.27857.67665q1.94239,1.04788,3.77474,2.21919c-6.63638,21.85022-23.10017,40.77151-44.1187,51.25513a1.66855,1.66855,0,0,0-.77071,2.23406,1.75071,1.75071,0,0,0,2.3099.78558c21.597-10.15942,39.01557-28.79741,46.95431-51.16962,5.92478,4.69565,11.94548,11.64136,13.2062,21.01742a37.27384,37.27384,0,0,1,.1357,8.431c-3.25647,34.78688-36.09742,56.05377-65.74511,64.35723-34.56455,9.68056-72.22608,7.574-103.32484-5.782-18.57107-7.97481-33.11979-20.29987-41.39091-34.75267A125.59,125.59,0,0,0,1008.56613,1246.38522Zm838.7751-281.91548-6.94868,5.61508H1812.773l19.53065-19.53028,9.98728-1.06033Q1844.8986,956.94423,1847.34123,964.46974Zm-24.72784-23.61286-19.53437,19.534V933.455l22.23911-27.72109c.27475.64207.56623,1.27523.83912,1.918Zm-4.03685-50.38218c-2.91406,3.79593-5.57493,7.62607-7.64354,10.61039-1.84145,2.656-3.43121,4.95-4.612,6.42148l-3.242,4.04168V875.08537l.39186-.49633a6.889,6.889,0,0,0,.57552-.84024l3.54572-6.17425Q1813.276,878.915,1818.57654,890.4747ZM1803.079,993.48613l19.53325,19.53437,3.94019,37.134-23.47344-29.048Zm9.69394-9.6932h27.61959l16.7233,13.51367c.80417,2.96759,1.6366,5.92366,2.40285,8.90687l-27.21249-2.88729Zm50.25354,36.79638q2.01489,8.59885,3.81936,17.27651l-19.1176-19.1176S1854.7617,1019.61,1863.0265,1020.58931ZM1789.37128,833.529v14.3777l-17.98142-31.31105a6.85408,6.85408,0,1,0-11.88822,6.82524l28.90263,50.3279a6.83653,6.83653,0,0,0,.57552.84061l.39149.49633v36.4469s-27.459-36.25357-32.60487-36.25357a6.09428,6.09428,0,0,0-2.1742.409c-7.92647,2.975.22865,50.15241.22865,50.15241l-25.80528-25.80491-.09183-.75324a6.15433,6.15433,0,0,0-.13645-.83726l-15.14655-56.02589a6.85357,6.85357,0,1,0-13.2326,3.57546l9.42365,34.85752-20.20842-20.20879a6.85465,6.85465,0,0,0-9.69394,9.69394l20.21027,20.2099-34.86086-9.42551a6.85355,6.85355,0,0,0-3.574,13.233l56.02812,15.14878a6.7678,6.7678,0,0,0,.99341.18552l.62832.07361,25.77293,25.77331s-29.77-4.93323-37.56152-4.93323c-7.11672,0-11.34988,1.42914-12.58235,4.2484-3.30778,7.5651,15.30047,20.42926,25.29742,27.34113,2.68281,1.85447,4.99977,3.45649,6.49026,4.6503l4.04726,3.24234h-36.49338l-.58631-.45916a6.238,6.238,0,0,0-.70416-.50749l-50.32827-28.90263a6.854,6.854,0,1,0-6.82487,11.88822l31.31105,17.981h-28.57992a6.85406,6.85406,0,0,0,0,13.70811h28.57992l-31.31105,17.98179a6.85408,6.85408,0,1,0,6.82524,11.88822l50.32678-28.90188a6.288,6.288,0,0,0,.70044-.50451l.59114-.46362h36.49152l-4.04652,3.24234c-1.50127,1.2031-3.83832,2.81739-6.54454,4.6871-9.89657,6.83714-28.31781,19.56337-25.36248,27.072.732,1.85967,2.478,4.332,9.1582,4.332,3.44831,0,40.41832-3.30034,41.83928-4.72168l-4.40194,3.60669-22.13612,22.1365-.751.09146a6.13987,6.13987,0,0,0-.84061.13756l-56.02589,15.14841a6.8538,6.8538,0,1,0,3.57584,13.233l34.85566-9.42477-20.20693,20.2073a6.85465,6.85465,0,0,0,9.69357,9.69431l20.20842-20.20879-9.42365,34.85677a6.85367,6.85367,0,1,0,13.2326,3.57621l15.14655-56.02551a6.1926,6.1926,0,0,0,.13645-.83838l.09183-.75324,25.81755-25.81606s-6.54678,47.4815-1.131,50.3a4.63137,4.63137,0,0,0,2.18647.52794c7.85026,0,19.46187-16.662,25.70006-25.61307,1.81654-2.607,3.38548-4.85812,4.544-6.29359l3.23863-4.01306v36.58632l-.4625.59a6.1387,6.1387,0,0,0-.50451.70007l-28.90263,50.32715a6.85427,6.85427,0,1,0,11.88822,6.826l17.98142-31.31105v27.89843a6.85387,6.85387,0,1,0,13.70774,0v-27.89843l17.98179,31.31105a6.85408,6.85408,0,0,0,11.88822-6.82524l-28.903-50.32864a6.24538,6.24538,0,0,0-.50451-.70007l-.4625-.58928.00037-36.60008s27.89955,36.41976,32.9919,36.41976a5.17951,5.17951,0,0,0,.75547-.05577,6.91394,6.91394,0,0,0,5.80618-6.52149l.003-.08551a6.57933,6.57933,0,0,0-.00149-.81087c-.00521-.05242-.00781-.10373-.00892-.155l-4.59118-43.26954,25.88038,25.88075.09146.75064a6.17158,6.17158,0,0,0,.13719.84172l13.22256,48.90247A703.80544,703.80544,0,0,1,1857.1508,1364.564H1572.75067c-4.8901-13.00023-15.01159-22.68674-32.17917-26.01013-2.28091-.44168-4.56739-.78856-6.81483-1.06331-21.30035-2.60436-46.83274-2.87874-67.57281,3.37991-10.1728,3.06946-19.26,13.11958-26.92175,23.69354h-15.67932a195.14994,195.14994,0,0,0-32.9893-41.26116c-.76551-1.60128-1.56187-3.17468-2.35006-4.75737a85.99242,85.99242,0,0,0,19.06666-27.56569l4.56255-10.71635-11.89937.34093a102.70463,102.70463,0,0,1-30.7162-3.85021c-13.83117-3.89074-8.33655-39.35538-9.46344-49.6769,12.1217-2.453,18.80641-2.18647,26.1436-12.51431,6.41516-9.03068,12.35481-18.9239,18.893-28.16017,18.70045-26.41947,9.46641-50.80824-1.34847-78.06051-5.02877-12.67492-1.85707-25.88967-1.22689-38.9665,1.92808-39.99039-50.04013-40.87227-52.1002-75.20111-1.17261-19.6671,18.91535-33.61055,31.28838-46.1256,17.43378-17.63306,38.317-31.53636,57.96438-46.64313,37.47266-28.81154,77.38126-56.52854,103.75686-96.15421,26.02761-39.10294,41.746-91.2972,39.6833-138.108a431.73471,431.73471,0,0,0-4.19114-45.92372c-.9975-6.53451-2.23964-13.05823-3.71786-19.50834A704.01022,704.01022,0,0,1,1789.37128,833.529Zm-36.62871,150.26391h26.93476l-19.04807,19.04844-36.71719,4.05209Zm-.00186-13.70811-28.83013-23.09831,36.72091,4.05284,19.04584,19.04547Zm17.58175,42.4505,19.04882-19.04844v27.62034l-23.134,28.66357Zm.00037-71.19289-4.05135-36.719,23.09979,28.83087v26.93662Zm-331.14364-206.069,28.43864,12.3444,26.46557-16.03363-3.15349,30.405,23.6887,19.79127-30.38754,6.44714-11.825,28.265-15.6269-26.42058-30.99727-2.32217,20.72966-22.776ZM1181,480.49612a699.82237,699.82237,0,0,1,217.44151,34.45859c-14.76361,10.716-26.37486,25.32568-32.04979,42.41815-3.80077,11.44617-5.02431,23.59129-4.802,35.62005.24464,13.2233,2.50323,27.10058,10.89816,37.49088,8.396,10.3903,24.4319,15.81131,36.09073,9.04332,13.10768-7.609,14.571-25.01821,19.36632-39.1338,6.40661-18.857,26.4704-36.09519,45.71255-29.54507,13.62335,4.63766,21.11371,19.69944,21.13416,33.76261.08105,54.57443-77.475,96.74349-121.53082,115.40453-64.74315,27.42292-144.32166,40.33095-189.78474,98.04734-24.39286,30.96641-38.23668,74.37463-75.68443,88.23331-16.47234,6.0958-34.6839,5.03175-52.14816,7.30782-44.97455,5.86157-87.98124,39.99523-91.7136,84.06671-1.48119,17.49326,2.81814,36.26287-5.35446,51.90464-3.47136,6.64344-8.96227,12.12691-12.43661,18.76923-4.59862,8.79311-5.3552,19.00643-5.10276,28.87363.52905,20.68207,5.71732,39.80673,13.0099,59.08048,1.43993,3.80634,17.46575,39.0033,16.56492,40.28448a279.05507,279.05507,0,0,0-26.10605,45.77873c-1.13469-.11971-2.26789-.24947-3.397-.40525l-12.19792-1.68233,3.7937,11.42238a73.29479,73.29479,0,0,0,4.05023,9.68353c-1.17224,3.21892-2.30284,6.449-3.34384,9.70063a284.71153,284.71153,0,0,0-39.94206,38.83786A226.03632,226.03632,0,0,0,875.4092,1334.607a26.25952,26.25952,0,0,0-2.92856-1.31389c-20.30954-7.54056-45.80921-8.86-67.23039-7.58964-2.26046.13384-4.56367.33758-6.868.63575-11.72612,1.51875-23.46526,5.49388-29.56775,15.26887-4.20527,6.73527-4.87077,14.97888-5.14886,22.95591H504.8492a704.1541,704.1541,0,0,1-.93541-363.67118c7.406-6.62857,15.20195-17.794,20.14893-24.89217,2.15264-3.08954,4.01194-5.75785,5.38532-7.45877l3.83832-4.75626V1007.147l-.54838.699a7.36071,7.36071,0,0,0-.59783.82983l-34.25485,59.64745a8.12341,8.12341,0,1,0,14.08957,8.08969l21.3115-37.10905v33.0644a8.12315,8.12315,0,1,0,16.24629,0v-33.0644l21.3115,37.10905a8.12338,8.12338,0,0,0,14.08994-8.08894l-34.25523-59.64856a7.43627,7.43627,0,0,0-.59783-.8302l-.54838-.69821.00037-43.37773s33.06625,43.164,39.10183,43.164a6.14845,6.14845,0,0,0,.89489-.06581,8.194,8.194,0,0,0,6.88138-7.72943l.00372-.10113a7.83834,7.83834,0,0,0-.00186-.96144c-.00595-.06172-.00929-.12269-.01041-.18329l-5.44146-51.28264L621.63418,977.283l.10819.88968a7.32062,7.32062,0,0,0,.16284.99787l17.95391,66.40094a8.12255,8.12255,0,1,0,15.68267-4.23762l-11.17068-41.31395,23.38124,23.38123a8.12416,8.12416,0,1,0,11.4893-11.48929l-23.37938-23.379,41.31284,11.16882a8.12309,8.12309,0,1,0,4.23761-15.68378l-66.405-17.95242a7.34454,7.34454,0,0,0-.99416-.1621l-.88857-.10819L602.45,935.12022s44.75148,5.485,48.81473,5.485c5.81733,0,9.22847-1.46781,10.73531-4.61944,3.01593-6.30846-3.33678-11.60938-11.30749-17.39288-1.34847-.97817-31.08278-24.9011-31.08278-24.9011h43.37773l.70119.5495a7.35268,7.35268,0,0,0,.828.59709l59.64708,34.25523a8.12366,8.12366,0,1,0,8.09006-14.08994l-37.10905-21.31188h33.0644a8.12315,8.12315,0,0,0,0-16.24629H695.1444l37.10943-21.31113a8.12338,8.12338,0,1,0-8.08894-14.08994l-59.64671,34.25411a7.4746,7.4746,0,0,0-.8354.60155l-.69561.54541h-43.377l24.15343-19.518c1.24771-1.00828,2.81293-2.124,4.47-3.30443,7.045-5.0206,16.69355-11.8964,14.01893-18.87036-1.37189-3.57732-6.57763-5.39127-15.47261-5.39127-9.29279,0-44.33136,5.65784-44.33136,5.65784l30.637-30.637.74283-.08848a8.22673,8.22673,0,0,0,1.18265-.2201l66.40131-17.95391a8.12266,8.12266,0,1,0-4.23836-15.68267l-41.31358,11.1703,23.38049-23.38049a8.12416,8.12416,0,0,0-11.48855-11.49l-23.38124,23.38124,11.171-41.314a8.035,8.035,0,0,0-2.99957-8.61465C780.96632,573.71768,970.09114,480.49612,1181,480.49612ZM655.37113,1643.99821h225.565c3.49441,29.06324,18.47738,56.40325,43.938,79.56736,15.95965,14.52046,35.44717,26.9013,56.75459,36.29261a33.80135,33.80135,0,0,1-6.56128.6681,40.53731,40.53731,0,0,1-10.97549-1.65965c-12.93814-3.59814-23.18679-13.10433-36.89565-15.03056a27.31722,27.31722,0,0,0-3.7792-.27958,15.008,15.008,0,0,0-8.00492,2.00021,19.12113,19.12113,0,0,0-5.75933,6.42818c-13.27238,21.29775-12.1678,49.69475-4.09931,73.25407A702.27744,702.27744,0,0,1,655.37113,1643.99821Zm386.71743,223.708c3.92643-6.4107,1.64776-17.41482,8.83549-20.5051a7.639,7.639,0,0,1,3.04455-.65918c7.10074,0,12.31243,10.83235,19.60687,14.91307,2.69842,1.50982,5.83443,2.06044,8.905,2.55194a105.96341,105.96341,0,0,0,16.58834,1.60835,37.54028,37.54028,0,0,0,33.74848-18.09965c12.36931-18.75919,13.32071-47.79046,1.28192-65.75478,10.92307-.3993,21.84093-.99044,32.71157-1.65965,1.31463,1.42394,2.66979,2.81665,4.05135,4.19077-10.36464,18.0647-8.96673,45.31957,2.839,63.22366a37.54132,37.54132,0,0,0,33.74885,18.09965,105.95833,105.95833,0,0,0,16.58759-1.60835c3.071-.4915,6.20659-1.04211,8.90539-2.55194,7.29407-4.08072,12.50576-14.91307,19.60649-14.91307a7.639,7.639,0,0,1,3.04455.65918c8.28413,3.56171,3.9677,17.65462,11.10375,23.08678a12.20355,12.20355,0,0,0,7.57513,2.079,44.50948,44.50948,0,0,0,4.68785-.31044q20.6263-2.20395,41.253-4.40826a706.227,706.227,0,0,1-278.12513.058Zm341.01232-15.84886a45.04574,45.04574,0,0,0,15.119-19.34216c10.45276-24.76168,13.31365-56.99253-1.35442-80.53029a19.12113,19.12113,0,0,0-5.75933-6.42818,15.00969,15.00969,0,0,0-8.00492-2.00021,27.3087,27.3087,0,0,0-3.7792.27958c-13.70923,1.92622-23.9575,11.43241-36.896,15.03056-.20485.05725-.38777.09257-.5904.14648a193.0679,193.0679,0,0,0,45.179-27.5181c19.94073-16.48424,34.29612-35.77137,42.66837-57.32379a127.39255,127.39255,0,0,0,7.53089-30.173h269.41493A700.82627,700.82627,0,0,1,1383.10089,1851.85731Z" fill="#d1d1d1"/></svg>