<svg id="Слой_1" data-name="Слой 1" xmlns="http://www.w3.org/2000/svg" viewBox="0 0 2362 2362"><title>3d christmas card</title><path d="M17.55442,17.55442V2344.44558H2344.44558V17.55442ZM1181,2119.06607c-518.07976,0-938.06607-419.98631-938.06607-938.06607S662.92024,242.93393,1181,242.93393,2119.06607,662.92024,2119.06607,1181,1699.07976,2119.06607,1181,2119.06607Zm950.48037-1562.4,30.38828,52.17121L2119.18541,560.871l-31.46609,85.52188,13.24041-85.971-52.17121,30.38828,47.96631-42.68324L2011.233,516.66084l85.971,13.24041L2066.81567,477.73l42.68324,47.96631,31.46572-85.52188-13.24,85.971,52.17121-30.38828-47.96631,42.68324,85.52188,31.46572ZM1768.64681,199.00626l41.70933,43.65334-52.68591-36.69907L1747,296.46055l-7.15832-86.68956-43.65334,41.70933,36.69907-52.68591-90.5-10.67024,86.68956-7.15832-41.70933-43.65334,52.68591,36.69906,10.66988-90.49993,7.15868,86.68947,43.65334-41.70933-36.69907,52.68591,90.49993,10.66988Zm409.07706,86.40965-96.29884-93.8201L1973.03134,271.135l93.8201-96.29884L1987.31221,66.44252l96.29884,93.8201,108.39368-79.53923-93.8201,96.29884ZM125.64419,569.90614l85.52188-31.46572-47.96631-42.68324L215.371,526.14546l-13.24-85.971,31.46572,85.52188L276.27989,477.73l-30.38828,52.17121,85.971-13.24041-85.52188,31.46609L294.307,590.81016l-52.17121-30.38828,13.24041,85.971L223.91015,560.871l-42.68324,47.96631,30.38828-52.17121ZM487.75928,191.84758l90.49993-10.66988-36.69906-52.6859,43.65334,41.70933,7.15868-86.68947L603.042,174.01159,655.728,137.31252l-41.70933,43.65334,86.68956,7.15832-90.5,10.67024,36.69907,52.68591L603.25388,209.771l-7.15832,86.68956-10.67024-90.5L532.73942,242.6596l41.70933-43.65334ZM244.91092,177.02223l-93.8201-96.29884L259.4845,160.26262l96.29884-93.8201L276.24412,174.8362l93.8201,96.29884L261.67054,191.59581l-96.29884,93.8201ZM2217.45136,1751.04252l-85.52188,31.46572,47.96631,42.68324-52.17121-30.38828,13.24,85.971-31.46572-85.52188-42.68324,47.96631,30.38828-52.17121-85.971,13.24041,85.52188-31.46609-47.96631-42.68324,52.17121,30.38828-13.24041-85.971,31.46609,85.52188,42.68324-47.96631-30.38828,52.17121Zm-362.11509,378.05856-90.49993,10.66988,36.69907,52.6859-43.65334-41.70933-7.15868,86.68947-10.66988-90.49993-52.68591,36.69906,41.70933-43.65334-86.68956-7.15832,90.5-10.67024-36.69907-52.68591,43.65334,41.70933L1747,2024.4881l10.67024,90.5,52.68591-36.69907-41.70933,43.65334Zm242.84836,14.82534,93.8201,96.29884L2083.61106,2160.686l-96.29884,93.8201,79.53923-108.39368-93.8201-96.29884,108.39368,79.53923,96.29884-93.8201ZM211.61519,1764.28255l-30.38828-52.17121,42.68324,47.96631,31.46609-85.52188-13.24041,85.971,52.17121-30.38828-47.96631,42.68324,85.52188,31.46609-85.971-13.24041,30.38828,52.17121-42.68324-47.96631-31.46572,85.52188,13.24-85.971-52.17121,30.38828,47.96631-42.68324-85.52188-31.46572Zm362.83356,357.65984L532.73942,2078.289l52.68591,36.69907,10.67024-90.5,7.15832,86.68956,43.65334-41.70933-36.69907,52.68591,90.5,10.67024-86.68956,7.15832,41.70933,43.65334L603.042,2146.93707,592.37217,2237.437l-7.15868-86.68947-43.65334,41.70933,36.69906-52.6859-90.49993-10.66988Zm-409.07706-86.40965,96.29884,93.8201,108.39368-79.53923-93.8201,96.29884,79.53923,108.39368L259.4845,2160.686l-108.39368,79.53923,93.8201-96.29884Z" fill="#d1d1d1"/></svg>