<svg id="Слой_1" data-name="Слой 1" xmlns="http://www.w3.org/2000/svg" viewBox="0 0 2362 2362"><title>3d christmas card</title><path d="M17.55442,17.55442V2344.44558H2344.44558V17.55442Zm1777.43045,643.55c2.646,3.06723,5.70059,5.84075,8.5165,8.75518q8.63454,8.93736,16.98689,18.142c5.37119,5.91994,10.03338,13.26048,16.105,18.29967,6.29656,5.22619,13.1943,10.17132,17.15011,17.54792a10.97109,10.97109,0,0,0-6.30437.63538c-1.31575.66066-1.96526,2.17272-3.08508,3.1111,6.11625,4.45139,13.13333,8.028,19.60352,11.96407q9.69747,5.89968,19.39458,11.79937-9.15764-.39651-18.316-.79376a117.42794,117.42794,0,0,1,37.98163,43.14909A55.31266,55.31266,0,0,0,1871.994,781.373a109.28442,109.28442,0,0,1,46.919,69.49085,105.926,105.926,0,0,0-18.93059-25.26991,122.40149,122.40149,0,0,1-.48146,49.52038,96.14881,96.14881,0,0,0-17.71076-57.097q-3.07392,18.8105-6.14822,37.621a157.7591,157.7591,0,0,0-6.87172-63.05487,166.00534,166.00534,0,0,1-8.83512,34.8683,240.16268,240.16268,0,0,0-5.73033-61.49523,160.47213,160.47213,0,0,1-13.88136,47.274c2.36567-4.33539,1.54291-13.76388,1.92139-18.70008q.7194-9.37346.954-18.77444c.2978-11.77185-.79228-23.70952-.67-35.63641-4.1878,9.93523-8.39046,19.90132-13.7966,29.2298a131.2084,131.2084,0,0,0,.13533-37.28342c-.74617-5.34182-1.386-10.62675-4.16326-15.23467-2.78914-4.62836-5.67494-9.22921-8.267-14.01112q-8.17613-15.08465-17.52338-29.49414c-2.16751-3.34124-10.06833-12.39571-9.19649-16.58276C1790.14385,654.69337,1794.75585,660.839,1794.98487,661.10444Zm-142.1021-122.81237c-.77183-7.75805-1.16852-16.39278-6.58953-22.56814-.57441-.65434-1.35181-1.5273-.81049-2.40285,5.8586,2.25637,9.18571,11.32162,10.71115,16.86086a82.82423,82.82423,0,0,1,2.398,15.89124,637.72052,637.72052,0,0,1,1.12056,75.65543q-2.88654-5.11168-5.77346-10.22337-1.87324,28.59218-3.74611,57.184-5.15462-9.65565-10.30888-19.3113a107.58465,107.58465,0,0,1-1.33136,57.88444q-2.92447-16.76382-5.84931-33.5269a94.95275,94.95275,0,0,1-11.09855,58.96225q.0909-13.89958.18217-27.79991a122.99783,122.99783,0,0,1-34.22325,75.571q30.60039-81.8728,54.35322-166.09158c4.838-17.15754,9.35748-34.55674,10.94165-52.36417A126.52788,126.52788,0,0,0,1652.88277,538.29208ZM1129.82889,343.67q7.83985-.4718,15.71613-.80045a212.68275,212.68275,0,0,0-19.6117,9.82258A45.35758,45.35758,0,0,1,1129.82889,343.67Zm-86.37922,9.68985c1.90243-.31379,3.79891-.6443,5.7058-.94545-2.28946,1.61764-4.54768,3.28027-6.74568,5.02245Q1042.92955,355.39857,1043.44967,353.35988Zm-3.54609,62.83886c9.47161-3.72418,18.99788-8.27112,29.40788-8.15438a13.64183,13.64183,0,0,0-3.09065,7.24945c-.0699,1.82956,1.18786,3.4446,1.53808,5.22768,8.5191-3.99186,16.62589-9.49058,24.79662-14.17731q12.24607-7.02452,24.49176-14.04867-5.92757,9.73874-11.85513,19.47711a146.043,146.043,0,0,1,69.7972-15.486,68.794,68.794,0,0,0-32.0602,26.39158,135.92188,135.92188,0,0,1,103.85687-9.41659,131.7295,131.7295,0,0,0-38.888,5.46042,152.23718,152.23718,0,0,1,53.65873,30.23845,119.58243,119.58243,0,0,0-72.82911-14.96586q18.64822,14.63572,37.29569,29.27144a196.21784,196.21784,0,0,0-72.8161-30.34887,206.42354,206.42354,0,0,1,32.6848,30.54741,298.68114,298.68114,0,0,0-70.43184-30.65671,199.56191,199.56191,0,0,1,43.171,43.48853c-3.30332-5.1786-14.06837-9.93969-19.21872-13.314q-9.78-6.40773-19.88087-12.30462c-12.64555-7.38776-26.30459-13.36347-39.22414-20.65307,8.3109,10.5234,16.646,21.08211,23.56453,32.56881a163.18358,163.18358,0,0,0-40.53543-22.51869c-6.26756-2.39244-12.40909-4.86668-19.09529-4.60605-6.71557.26174-13.45939.64468-20.224.59895q-21.33957-.14444-42.64569,1.39234c-4.941.35654-19.54552,3.53085-23.58386.06878-1.97716-1.695,7.48479-3.03154,7.912-3.12189,4.92876-1.04212,9.78317-2.70511,14.64762-4.02421q14.9179-4.04429,29.95738-7.61975C1019.97624,420.46387,1030.77066,419.78945,1039.90358,416.19874Zm-77.6482-45.25785q9.82407-2.64674,19.7422-5.05889a147.70945,147.70945,0,0,0-26.60425,22.18483C958.1003,382.12383,960.02392,376.61843,962.25538,370.94089ZM856.62844,407.109q9.04-3.79389,18.1833-7.3885A191.1851,191.1851,0,0,0,855.07214,416.043Q855.85011,411.576,856.62844,407.109Zm-116.837,99.93973a103.009,103.009,0,0,1,18.75139,6.923,793.07413,793.07413,0,0,1,83.09189,44.17521l-14.60189.155q30.0243,19.197,60.049,38.39357l-27.22327-.35691a133.81117,133.81117,0,0,1,62.26036,36.18293q-20.01732-6.87227-40.03426-13.74455a118.09358,118.09358,0,0,1,57.57474,47.47035q-15.088-8.43991-30.17636-16.87982a152.97557,152.97557,0,0,1,61.79228,82.62864Q900.44395,649.53335,822.948,573.12245c-15.78825-15.56593-32.0312-30.92923-50.48033-43.34055a157.35949,157.35949,0,0,0-25.82721-14.25947c-8.91505-3.81452-18.55992-8.56371-28.53976-6.36349-1.05773.23348-2.47535.55656-3.10441-.55879C720.97013,503.57175,732.842,505.38643,739.79141,507.04869ZM851.651,711.967H803.75381c1.56076-17.05642,11.69192-30.27228,23.94858-30.27228a16.9885,16.9885,0,0,1,4.11567.55173q7.213,10.95727,14.426,21.91491a82.54689,82.54689,0,0,0,.30449-9.37569A43.73176,43.73176,0,0,1,851.651,711.967Zm-35.38211-33.71985a68.42462,68.42462,0,0,0-6.27277-29.15135q8.6139,13.08537,17.22781,26.17149A23.82014,23.82014,0,0,0,816.26886,678.24711Zm-448.2714,474.34957c.74989-3.98034,1.01572-8.09787,1.54031-12.11613q1.6089-12.323,3.60335-24.591c1.28266-7.88967,4.11827-16.11022,4.27554-23.99914.16359-8.18115-.26731-16.65749,3.03675-24.34825a10.96813,10.96813,0,0,0,4.42574,4.53467c1.33657.61716,2.9241.18292,4.35584.474-.33015-7.55729-1.90577-15.27407-2.8594-22.78749q-1.42877-11.26065-2.85792-22.5213,5.39666,7.40932,10.79294,14.81938a117.42218,117.42218,0,0,1,10.078-56.594,55.31139,55.31139,0,0,0,9.68056,31.95424,109.28417,109.28417,0,0,1,25.10967-79.999,105.92231,105.92231,0,0,0-7.96625,30.55261,122.39939,122.39939,0,0,1,39.02933-30.48272,96.14727,96.14727,0,0,0-33.618,49.43226q16.62663-9.31825,33.254-18.63576a157.76928,157.76928,0,0,0-45.03255,44.66783,165.99379,165.99379,0,0,1,32.77626-14.81864,240.15845,240.15845,0,0,0-44.52395,42.803,160.46665,160.46665,0,0,1,45.62295-18.60267c-4.86482.85139-11.72612,7.37028-15.82283,10.1505q-7.7785,5.27843-15.27742,10.95355c-9.39205,7.1026-18.04946,15.39453-27.45341,22.731,10.37989-2.91629,20.79323-5.83964,31.45791-7.42456a131.18981,131.18981,0,0,0-29.24318,23.12768c-3.713,3.91267-7.44761,7.70638-9.32067,12.75-1.88161,5.06558-3.68179,10.18953-5.80655,15.19674q-6.70218,15.79457-12.147,32.08437c-1.26221,3.77734-3.42006,15.599-7.23793,17.52635C366.00023,1160.37816,367.93277,1152.9417,367.99746,1152.59668Zm-10.249,190.33944q-.55043-2.81628-1.08041-5.63962c2.03627-2.19763,4.16474-4.312,6.36014-6.34452a637.62818,637.62818,0,0,1,58.47112-48.02208q-2.19893,5.44294-4.39785,10.88626,23.52846-16.35281,47.0573-32.70525-4.3393,10.04825-8.679,20.09614a107.58982,107.58982,0,0,1,46.10032-35.03q-11.288,12.734-22.57558,25.4677a94.95223,94.95223,0,0,1,53.03-28.0635q-10.92771,8.591-21.8558,17.18134a123.00018,123.00018,0,0,1,80.43028-20.32739q-83.10081,27.08812-163.7694,60.99331c-16.434,6.90815-32.85768,14.21634-47.77224,24.07424a126.50717,126.50717,0,0,0-18.567,14.76324C359.59808,1341.14449,358.67345,1342.03566,357.74844,1342.93613ZM602.56491,1598.1533c-3.30666,5.23177-6.52112,10.58846-9.47236,16.04739-5.49016,10.2572-9.95382,21.40965-15.064,32.19107,8.03578-7.2606,16.18086-14.42975,25.21934-20.46569a117.54336,117.54336,0,0,0-16.166,33.50087c-1.49867,5.18641-3.05534,10.32-2.35489,15.71985.66438,5.42473,1.56373,10.8673,2.16788,16.37939a313.22515,313.22515,0,0,0,5.63144,34.8103c.92091,4.02979,5.46674,15.70274,3.252,19.48529-1.08413,1.85075-3.4695-5.84968-3.59889-6.19172-1.50313-3.96733-3.54609-7.79709-5.2143-11.68671-3.28956-7.96031-6.64307-15.96485-9.50433-24.03186-2.7698-7.78891-4.42983-16.60284-7.95622-23.84188-3.76768-7.50635-8.15512-15.0577-8.62431-23.5701a10.97159,10.97159,0,0,0,6.04338,2.11621c1.48194-.0487,2.71255-1.16481,4.1324-1.55221-3.71005-6.6769-8.67748-12.975-12.76415-19.39755-4.14132-6.417-8.31387-12.87048-12.29384-19.33472l16.15521,8.89386a106.82624,106.82624,0,0,1-13.85757-55.42991,52.37209,52.37209,0,0,0,21.62157,24.91894,97.45554,97.45554,0,0,1-7.09367-81.23259,92.94467,92.94467,0,0,0,3.74314,30.2273,112.807,112.807,0,0,1,25.44019-41.42958,85.85608,85.85608,0,0,0-13.23223,56.22368c7.8774-9.82481,15.91652-19.51913,23.99691-29.103a137.72,137.72,0,0,0-24.7074,56.92672,152.59255,152.59255,0,0,1,24.47838-26.14472,198.31332,198.31332,0,0,0-23.76083,55.985,149.0879,149.0879,0,0,1,34.211-35.34939C608.82393,1585.52634,605.19307,1594.00864,602.56491,1598.1533Zm109.61992,278.31586c-.01822.10224-.02863.20634-.04647.309-2.24336-1.51465-4.44581-3.08359-6.67355-4.61944a294.66773,294.66773,0,0,1,8.141-56.5356l3.80077,10.95244c2.32478-9.31807,4.71424-18.422,7.33942-27.4166q4.08388-13.58394,8.50311-26.64589l5.25222,19.7106a88.53555,88.53555,0,0,1,3.91862-27.53222,95.514,95.514,0,0,1,12.46077-25.342c-1.408,10.20366-2.86387,20.75271-3.72232,31.21142a77.57435,77.57435,0,0,1,8.979-27.36789,91.6803,91.6803,0,0,1,18.245-23.46712c-3.11854,8.04842-5.82625,16.00872-8.62394,24.27464,10.06127-24.671,30.84967-45.71069,55.51282-59.6653-37.70242,41.77236-70.57052,88.58056-95.5456,141.14512C722.18773,1841.51423,715.18737,1858.41636,712.18483,1876.46916Zm697.7839-208.34726a151.66066,151.66066,0,0,1,12.45929,93.78073q3.98406-15.06513,7.96848-30.13026a114.7955,114.7955,0,0,1-6.0642,67.67616q7.875-17.1001,15.75033-34.19983a126.76694,126.76694,0,0,1-15.62913,63.07085q8.04619-8.62785,16.09275-17.25532-6.49082,31.5819-12.98127,63.16417,4.4196-4.51218,8.83921-9.024a747.08673,747.08673,0,0,1-23.32175,81.42741,94.14847,94.14847,0,0,1-7.087,16.34221c-3.16724,5.45373-9.192,14.08622-15.78045,14.464-.29111-1.13766.75138-1.808,1.52432-2.31362,7.29555-4.76964,10.22894-13.96873,13.285-22.08742a148.62467,148.62467,0,0,0,6.93269-25.66288c3.61971-19.81693,4.15062-40.22573,4.2878-60.48508Q1416.918,1767.55582,1409.96873,1668.1219Zm265.31785,53.56466a196.77392,196.77392,0,0,1,.1792,56.01473A276.60287,276.60287,0,0,0,1699.298,1713.211a202.80486,202.80486,0,0,1-1.28787,40.82171,180.99725,180.99725,0,0,0,25.445-65.77522q-2.40694,21.42657-4.81388,42.8524c16.746-13.70254,29.08852-33.46964,34.6627-55.51505a143.96359,143.96359,0,0,1-14.036,53.726,107.16523,107.16523,0,0,0,26.56261-20.66385c-13.88545,28.49738-38.9256,50.13754-67.84681,58.63508a53.83828,53.83828,0,0,0,35.00549-2.42441,117.25262,117.25262,0,0,1-51.07965,33.293q9.38127,2.79508,18.76254,5.59054-11.5406,2.96574-23.08158,5.93221c-7.70006,1.979-15.84811,3.37619-23.34108,6.03669.85771,1.40944,1.07149,3.27357,2.20878,4.451a11.53473,11.53473,0,0,0,6.19172,2.90737c-6.1657,6.58507-14.59408,9.50433-22.49713,12.93963-7.62049,3.31187-14.49,9.60918-21.65987,14.12042q-11.14744,7.01337-22.50605,13.63971c-3.70336,2.16045-7.60711,4.08481-11.18332,6.47019-.3097.20671-6.77765,5.22917-6.60812,2.862.34613-4.83545,10.99445-11.84584,14.16764-14.69632q13.6687-12.27953,26.37783-25.72795c4.02458-4.25955,8.29343-8.21944,12.4723-12.24253,4.161-4.00562,6.35828-9.49615,8.68008-15.01085a154.22283,154.22283,0,0,0,10.7974-40.37c2.73337,11.99232,4.0625,24.25047,5.38532,36.47,3.374-12.94149,7.97778-25.46881,11.129-38.30509q2.51569-10.24679,4.54136-20.64043C1672.81086,1737.1153,1676.40863,1727.20832,1675.28658,1721.68656Zm91.74669,51.87787a97.3922,97.3922,0,0,0,12.58011-4.88787c-1.5957,1.62582-3.26168,3.18025-4.87039,4.79306C1772.1773,1773.59529,1769.60715,1773.65329,1767.03327,1773.56443Zm216.989-349.17785c-.98-.75584-1.96006-1.50425-2.91592-2.2415a134.66192,134.66192,0,0,0-19.78086-12.46263c-15.88938-8.32131-33.38711-14.49035-50.89561-20.32181q-85.84292-28.59163-174.47646-51.48712c29.912-2.3746,60.79181,3.80894,85.68844,17.1594q-11.6421-7.25205-23.28457-14.50374c21.39925,2.77947,41.56082,11.23351,56.49731,23.68945q-12.02578-10.74926-24.05194-21.49814c19.36967,6.05267,36.5655,16.40579,49.11439,29.57035q-4.62316-8.48229-9.24631-16.96421,25.0671,13.80422,50.1342,27.60807-2.34281-4.59471-4.68562-9.1898a671.928,671.928,0,0,1,62.29419,40.53766q3.6171,2.654,6.96764,5.53589C1984.92948,1421.342,1984.48222,1422.86709,1984.02232,1424.38658Zm35.794-234.50759c-.08737-.25319-.13682-.51344-.22679-.76625q-5.43123,3.23286-10.86284,6.4661c9.1173-25.54205,5.71658-53.7539-9.33814-77.4664-.13942,9.11024-5.55374,18.08663-14.41265,23.89467a117.07478,117.07478,0,0,0-6.95091-60.9896c-3.078-7.81494-7.67291-16.047-16.82479-19.847a66.34475,66.34475,0,0,1-7.24127,38.36569c2.82483-27.037-11.13722-54.86-36.622-72.9782q-4.39,12.62194-8.78009,25.24425c-4.08853-13.28762-12.41244-25.74282-23.985-35.89034a65.02573,65.02573,0,0,0-8.88494,21.97068l-28.17281-27.44q.54987,23.72142,1.10011,47.44321a106.98012,106.98012,0,0,1-30.24961-27.92074,228.97855,228.97855,0,0,0,5.11949,60.56874q-17.19379-11.43353-34.38758-22.86668a375.525,375.525,0,0,0,37.04622,65.69863q-16.2173-10.13525-32.435-20.27125c17.15457,20.43744,32.5004,40.47037,49.655,60.9078a182.51384,182.51384,0,0,0-30.97608-9.88021c1.55146,5.47455,6.9115,9.68428,12.02764,13.56349q32.08939,24.3304,64.17878,48.66118-20.60065-3.5262-41.2013-7.052c2.39951,7.33385,11.51309,11.7343,19.47,15.93585,18.47255,9.75454,34.51287,22.38857,46.93275,36.967-11.177-2.63373-24.01178-5.82849-35.18878-8.46259,22.95368,12.39831,47.05655,23.18716,69.95447,35.816a112.79974,112.79974,0,0,0-49.13112-9.31955q8.9078,4.07607,17.6509,8.37261c7.83167,3.86174,16.46193,7.63908,23.427,12.45259,5.68758,3.93015,12.33325,7.01039,17.375,11.59414.5811.52831,1.1741,1.27.728,1.87566-.45209.61382-1.57563.55768-2.45639.42086q-9.14928-1.41873-18.29892-2.83747c1.3243,3.39552,5.85154,5.18269,9.75268,6.93678,11.47777,5.1615,20.16863,12.9084,25.53313,22.44285-1.30906-2.32664-15.53172-5.46191-18.72982-6.58656-4.448-1.5641-9.17121-3.99372-13.70551-5.11168,3.11817,9.98431,16.06338,19.56039,24.0616,27.3638,8.96078,8.74217,17.81,18.08663,20.95905,29.29783a112.62953,112.62953,0,0,0-35.149-27.9687,42.30253,42.30253,0,0,1,4.69417,18.03682c-.06692-2.36456-7.51342-7.83055-9.4415-9.72145q-5.16857-5.06986-10.65241-9.93114c-6.61444-5.86306-13.49248-12.569-21.87439-16.87313-7.651-3.92866-12.46226-8.99387-18.50266-14.41079a271.06368,271.06368,0,0,0-24.00955-19.16481q2.42981,13.4066,4.86036,26.81356a68.74358,68.74358,0,0,0-7.91829-13.47872c-10.06573-13.46645-25.348-24.48023-43.3729-30.924,8.75667,6.86577,14.08473,16.36155,14.65542,26.11163-10.78067-22.42054-38.59322-35.75464-66.8389-40.24507a154.67707,154.67707,0,0,1,31.80293,25.161,165.29057,165.29057,0,0,0-17.01143-5.77086,181.20612,181.20612,0,0,0-62.72732-6.0471c11.68932,4.80161,21.69853,12.1139,28.719,20.93712q-23.553-2.71868-47.10563-5.43811c5.382,1.79573,9.41845,5.81956,10.41632,10.378q-15.42595-.11544-30.85153-.23088a60.30769,60.30769,0,0,1,23.3422,10.397q-17.80055,2.51067-35.60183,5.02134,9.00372,1.95243,17.82564,4.38633a311.22072,311.22072,0,0,1,57.18846,21.92681,76.7606,76.7606,0,0,0-37.3548,7.71344c30.32954,2.61217,61.14761,6.20845,89.777,16.05111a84.74724,84.74724,0,0,0-37.99985,8.94925c22.65514-5.44109,47.815-3.30629,69.26369,4.25658a86.69462,86.69462,0,0,0-32.72384,6.56462l55.48122,8.3451a71.39593,71.39593,0,0,0-30.86454,5.8125c32.54315,3.80225,63.89994,8.82731,94.35811,19.10049q-23.92274,4.274-47.84511,8.54773,32.81325,4.51887,65.62651,9.03737-18.32086,2.71534-36.64209,5.431c12.78869,5.77606,27.25413,8.50051,41.521,10.92976,7.89487,1.34438,16.0485,2.66385,24.03446,4.39042a837.91985,837.91985,0,0,1-127.81846,223.20977c.14723-.42644.32085-.83986.46324-1.26853q-16.21618,1.57042-32.43236,3.14047a105.11063,105.11063,0,0,0,32.38143-40.92841,86.92493,86.92493,0,0,0-28.6948,1.49012q10.5273-20.56328,21.055-41.1262-27.16341,11.75085-54.32608,23.50169a128.68745,128.68745,0,0,1,20.82744-43.42978,333.926,333.926,0,0,0-67.95761,33.718q6.71947-22.58989,13.4382-45.18015a511.19829,511.19829,0,0,0-61.85735,68.06282q5.58961-21.00106,11.17886-42.0025c-17.12259,26.80241-34.45971,51.60535-51.58267,78.40776a180.63228,180.63228,0,0,0-.26137-35.63753c-5.73257,4.13649-8.57189,11.48335-11.122,18.43091q-15.99255,43.57367-31.9851,87.1477-3.68681-22.26309-7.37363-44.52655c-7.55878,5.86269-9.205,17.0527-11.05765,26.99276a184.79831,184.79831,0,0,1-24.98475,64.38214c-1.16852-12.4195-2.314-26.76114-3.48252-39.18064-5.66416,28.80522-9.03886,57.9997-14.99,86.85771a107.58415,107.58415,0,0,0-7.74281-53.52563q-1.34958,10.83123-3.01593,21.60187c-1.50722,9.65416-2.61663,20.06714-5.54816,29.30415-2.39393,7.54242-3.44608,15.64214-6.83677,22.84735-.39075.83057-1.02353,1.77379-1.88979,1.61355-.87853-.1621-1.23693-1.3124-1.41056-2.25711q-1.80744-9.81849-3.61487-19.63661c-3.41931,2.92707-3.777,8.29789-4.33242,13.027a64.15952,64.15952,0,0,1-16.28236,36.1268c2.19168-2.40731.45507-18.10894.54876-21.83758.13013-5.186,1.15514-11.05579.738-16.11729-10.34605,7.832-16.52142,25.297-22.51423,36.97893-6.71333,13.0876-14.16392,26.34809-25.91384,34.7906a131.02645,131.02645,0,0,0,19.03841-48.35111,60.91527,60.91527,0,0,1-19.044,13.20992c2.70326-1.18339,6.20622-11.20971,7.66251-14.03045q3.90431-7.56156,7.44836-15.34025c4.27479-9.38239,9.42254-19.42581,11.23351-29.83878,1.653-9.50508,5.68609-16.70768,9.662-25.30486a315.4846,315.4846,0,0,0,13.07422-33.05622q-14.5543,8.76-29.10822,17.52078a93.01915,93.01915,0,0,0,12.57082-14.28178,106.001,106.001,0,0,0,19.35256-57.96921,49.37452,49.37452,0,0,1-24.61073,26.98272c21.81044-21.36578,26.72545-55.47118,21.27358-85.83381a179.66675,179.66675,0,0,1-17.059,43.67962,164.62179,164.62179,0,0,0,.25467-19.734,168.8226,168.8226,0,0,0-16.637-65.57557,81.28043,81.28043,0,0,1-13.346,38.60177q-5.729-24.834-11.45844-49.668a18.52785,18.52785,0,0,1-8.05288,15.31534q-5.67382-15.47837-11.34765-30.95711a62.52708,62.52708,0,0,1-3.20925,28.249q-9.59765-16.61325-19.196-33.22687,1.13655,9.92445,1.64961,19.89463a315.0343,315.0343,0,0,1-3.77028,67.53489,70.8892,70.8892,0,0,0-22.9626-33.708c8.40385,31.55941,15.85592,64.0717,15.27742,97.34541a78.49624,78.49624,0,0,0-24.63081-33.77c14.80637,20.08312,21.8149,46.24829,21.16316,71.26538a79.83144,79.83144,0,0,0-19.89314-29.62017q5.62865,29.70754,11.2573,59.41471a65.7279,65.7279,0,0,0-18.32569-28.11593c7.864,34.33442,13.87058,68.06022,13.48318,103.36574l-27.8739-43.80343q7.13885,34.943,14.27806,69.88606-10.03041-17.03708-20.06045-34.07342c-1.85,15.51425.45209,31.26421,3.02,46.67659,3.7476,22.49676,8.3518,46.674,1.38676,68.56176a840.03451,840.03451,0,0,1-94.37745,11.32348c-.06506-.04908-.1383-.09406-.13459.00781-17.66949,1.1109-35.44568,1.827-53.3955,1.827a835.16522,835.16522,0,0,1-396.827-99.64156q1.228-2.86591,2.45416-5.68275c5.46042-12.56822,11.20228-25.461,13.64268-38.81592l-26.486,23.27342c9.89768-18.3651,20.672-36.483,31.8152-53.99779q-18.3822,14.11094-37.02949,27.92929c10.05941-29.48856,26.84888-54.14056,46.14382-78.19659a66.70113,66.70113,0,0,0-25.12565,16.30281q15.53191-21.21912,32.2052-41.57308a84.57921,84.57921,0,0,0-27.42515,16.17119c9.55266-18.951,26.6563-35.59328,46.32451-45.8159a88.007,88.007,0,0,0-33.11161,17.08207c14.10927-24.133,35.27987-44.43063,56.58988-62.98981a84.55735,84.55735,0,0,0-32.63684,16.03661,205.82868,205.82868,0,0,1,31.97952-45.4378q5.63757-6.14,11.74843-11.92949l-30.70988,14.97a51.47159,51.47159,0,0,1,13.22442-18.77927L833.27843,1664.4c-1.62619-3.6699-.52756-8.502,2.90922-12.49721-11.73058,9.07975-23.2868,18.14909-34.749,27.46828.62869-10.07093,4.925-20.89659,11.818-29.9875-18.02938,8.82582-34.38275,20.78394-47.25843,35.41631a124.14664,124.14664,0,0,0-10.26761,13.34488,116.69339,116.69339,0,0,1,11.51346-36.53576c-20.69434,17.07575-35.54644,42.48061-29.931,67.4635a36.23564,36.23564,0,0,1-4.23724-29.97411,77.866,77.866,0,0,0-11.828,23.817,71.67063,71.67063,0,0,0-2.99362,25.89451,63.115,63.115,0,0,0,3.00143,16.18384c-5.00684-8.60126-9.47161-17.51223-14.06466-26.33136a193.72638,193.72638,0,0,0-5.70394,30.44145c-.75993,8.26071-.78112,15.60645-3.6528,23.69019-3.01481,8.78939-2.98358,19.02948-3.249,28.478q-.07361,7.754.34985,15.64772c.11637,2.936-.64356,12.70466,1.38639,14.86957a58.686,58.686,0,0,1-11.44505-19.52768,103.79947,103.79947,0,0,0-3.33306,22.81575c-2.36567-1.75594-4.71053-3.53791-7.05724-5.318-.34725-3.32674-.58779-6.64381-.78781-9.90772-.44057-6.14859.05056-13.56721-.20076-20.71367-.2781-7.142-.98709-14.14459-3.461-19.83923-2.55714,3.7041-4.25881,8.81541-6.37278,12.97309-1.5905,2.97912-9.453,14.497-8.55107,17.60777A54.7757,54.7757,0,0,1,656.894,1792.93c1.69571-3.9532,3.86694-8.25327,2.47535-12.29533l-11.88971,13.10582c-.5692.63575-1.37933,1.33137-2.1664.97445-.77592-.35171-.86329-1.43026-.80343-2.28685.52645-7.43646,3.37247-14.16727,5.00833-21.14866,2.10914-8.59606,6.29656-16.92666,9.87463-24.778,2.61737-5.82663,5.62921-11.596,8.61576-17.22967-13.86612,8.14545-25.6666,20.18611-32.622,34.82331,9.214-24.95947,21.9428-47.67967,33.30383-70.52776-7.545,7.84245-16.01467,17.18394-23.41544,25.32939a130.99493,130.99493,0,0,1,17.0988-58.34137c4.27554-7.62756,9.62553-15.866,7.841-23.97423q-15.49956,12.22766-30.83926,24.88251c9.07938-25.69746,19.102-50.538,29.77632-74.73526,2.59544-5.8099,5.266-11.97559,4.06771-17.9a140.86632,140.86632,0,0,0-22.09672,21.6673c4.99606-26.99685,9.52924-52.49913,15.95965-78.8171-6.63824,10.47692-13.22442,21.06427-19.64367,31.74307a535.67187,535.67187,0,0,0,5.04588-78.98328q-10.64887,17.2161-21.06724,34.69059a328.08955,328.08955,0,0,0-19.85-63.94678,110.73624,110.73624,0,0,1-15.75405,38.67873c-6.10956-16.54967-11.96407-33.16366-17.81486-49.79067L563.74974,1461.757a84.68129,84.68129,0,0,0-16.60656-20.27088,87.80773,87.80773,0,0,0-6.90443,45.6921l-18.01748-23.97461c-15.43952,27.38314-16.19127,62.34067-1.55183,90.75625a90.36048,90.36048,0,0,1-23.07154-39.14458c-6.47168,7.2171-7.02192,17.76876-6.25344,27.43593a159.904,159.904,0,0,0,22.29376,69.79423,38.11475,38.11475,0,0,1-24.02777-21.05237c-1.87268,32.0312,9.90958,65.84289,32.06652,90.57631l-12.73924-2.565c.42458,2.10468,1.038,4.17813,1.5812,6.26422a835.93246,835.93246,0,0,1-136.78965-275.22148c8.154-2.34076,16.5348-4.05693,24.63192-5.79725,13.39135-2.878,26.96934-6.10547,38.97282-12.94781q-17.19658-3.21725-34.39316-6.43375,30.79948-5.35316,61.599-10.70594-22.45437-5.06261-44.90912-10.12559c28.58921-12.17041,58.02163-18.12344,88.56792-22.62725a55.08654,55.08654,0,0,0-28.97029-6.88584q26.038-4.94326,52.076-9.88578a67.03776,67.03776,0,0,0-30.71545-7.77664c20.1322-8.95929,43.7484-11.48855,65.01306-5.04253a66.45174,66.45174,0,0,0-35.668-10.60184c26.87268-11.65957,55.79947-15.91987,84.26785-19.01424a59.6678,59.6678,0,0,0-35.06237-9.13775,258.59846,258.59846,0,0,1,53.6788-25.97519q8.27428-2.88208,16.73148-5.19645-16.70861-2.9741-33.41685-5.9482a51.83357,51.83357,0,0,1,21.90971-12.31689q-14.479.13663-28.95839.27363a16.62763,16.62763,0,0,1,9.77722-12.29384l-44.215,6.4423a70.30467,70.30467,0,0,1,26.9567-24.80294,136.46485,136.46485,0,0,0-58.87785,7.16357,134.34314,134.34314,0,0,0-15.96746,6.8364,156.67838,156.67838,0,0,1,29.85105-29.80681c-26.512,5.31951-52.6181,21.11595-62.737,47.67595a47.00846,47.00846,0,0,1,13.75607-30.93295,91.51434,91.51434,0,0,0-40.71129,36.63391,88.38037,88.38037,0,0,0-7.43237,15.96708q2.28091-15.88213,4.56218-31.76426a275.24657,275.24657,0,0,0-22.53617,22.70347c-5.66973,6.417-10.18581,12.41727-17.36723,17.07166-7.86736,5.09867-14.32342,13.04262-20.53187,19.98832q-5.14514,5.7558-9.99881,11.76442c-1.80948,2.24038-8.79905,8.715-8.86189,11.51644a60.77069,60.77069,0,0,1,4.406-21.36727,114.37625,114.37625,0,0,0-32.99227,33.1328c2.95607-13.2813,11.26213-24.35085,19.673-34.70732,7.50747-9.24408,19.65817-20.588,22.58487-32.41563-4.25583,1.3243-8.689,4.20229-12.86416,6.05527-3.0018,1.33211-16.35188,5.04625-17.58063,7.80267a56.69545,56.69545,0,0,1,23.96643-26.5864c3.66135-2.07791,7.91123-4.19523,9.15411-8.21758q-8.58825,1.68084-17.17613,3.36131c-.82648.1621-1.88124.22865-2.30544-.49856-.41863-.71755.13756-1.59608.68334-2.22216,4.73209-5.42993,10.97028-9.07864,16.30875-13.73488,6.53748-5.70171,14.63832-10.17652,21.98927-14.75134q8.19732-5.10164,16.56752-9.9185a87.07556,87.07556,0,0,0-46.11594,11.04018c21.49256-14.96066,44.11647-27.74154,65.66146-42.42894-10.49105,3.1204-22.5384,6.90518-33.02945,10.02557a161.11578,161.11578,0,0,1,44.05252-43.79228c7.4688-4.97784,16.02322-10.19065,18.2755-18.87854q-19.33639,4.177-38.67316,8.3544,30.12022-28.82306,60.24045-57.64576c4.80236-4.59564,9.833-9.58241,11.28965-16.06784a147.17334,147.17334,0,0,0-29.07513,11.70419c16.10167-24.21069,30.50577-47.94215,46.60744-72.15321q-15.2224,12.00738-30.44442,24.014a487.24975,487.24975,0,0,0,34.77275-77.82852q-16.13866,13.54434-32.277,27.08831a340.4123,340.4123,0,0,0,4.805-71.75168,114.27217,114.27217,0,0,1-28.39328,33.07592l1.03282-56.20286q-13.222,16.25354-26.444,32.50672a89.47829,89.47829,0,0,0-8.33953-26.02761,98.55134,98.55134,0,0,0-22.51312,42.517l-8.24138-29.905a106.25772,106.25772,0,0,0-34.37457,86.45209,96.29136,96.29136,0,0,1-6.51852-25.47253C427.82188,776.39,520.62,639.71115,643.05908,537.28156c20.89771,11.80754,34.804,32.95546,48.218,52.30134,9.707,13.99959,19.90392,28.046,33.499,38.55716q-4.52779-21.28269-9.05633-42.56538L757.462,651.18222q-4.92207-28.20181-9.84452-56.404c26.18562,25.58407,46.31,54.72835,65.17107,85.71112-9.37123,7.07248-15.72728,20.57091-15.72728,36.04612,0,.92575.05837,1.83142.103,2.74229l-6.501,36.5681a97.46141,97.46141,0,1,0,74.07832,0l-6.501-36.5681c.04461-.91088.103-1.81655.103-2.74229,0-13.88322-5.12507-26.16219-12.94261-33.654A82.91081,82.91081,0,0,0,840.4881,665.177c19.91173,18.83206,34.10614,44.73773,36.87185,72.235-.60043-5.97162-2.90625-37.627,1.102-41.06151,7.19443-6.16421,25.11933,15.71092,30.3578,20.952a327.9944,327.9944,0,0,1,53.449,70.25338q-.16786-14.98483-.33609-29.97c20.46643,17.16052,36.63354,37.34923,51.59271,59.30392-6.18354-24.76986-8.32131-50.15836-16.44892-74.76463a121.03049,121.03049,0,0,0,28.71748,28.18657c1.78792-14.43644-2.89175-29.08034-10.31929-41.588-3.11148-5.23958-22.20528-25.01189-16.6244-28.22932,7.50115-4.32461,23.14961,16.43182,32.82906,16.48758,4.67149.02714-12.71284-28.24308-13.92635-29.63653-7.91978-9.09462-18.532-18.74135-30.48681-21.92755a58.78966,58.78966,0,0,0,32.45132-.683,189.04182,189.04182,0,0,0-52.83-38.94307,45.972,45.972,0,0,0,26.73549-9.36863c-18.92947-20.73-43.70379-27.27272-70.44113-31.04448a109.92418,109.92418,0,0,0-21.88628-.89972q19.32635-4.97394,38.652-9.94787a342.36429,342.36429,0,0,0-36.84174-15.02126c-10.07837-3.44162-19.12689-5.75822-27.904-11.77855-9.6155-6.59511-21.82308-10.20961-32.76622-14.01744q-9.06841-3.1559-18.28777-5.85563c-3.43753-1.0068-14.21337-5.9363-17.4598-4.66926a75.59019,75.59019,0,0,1,26.63957-5.15667,142.24926,142.24926,0,0,0-53.81488-22.03983c16.66232-2.9557,33.34324,1.289,49.25492,5.99467,14.203,4.20006,33.03688,12.72771,48.0165,10.43342-3.55539-4.2536-8.97937-7.96774-13.10285-11.87521-2.965-2.81-13.61182-16.36192-17.36388-16.45524a70.51365,70.51365,0,0,1,41.98354,14.80674c4.13649,3.21074,8.599,7.07769,13.81184,6.58135q-6.03576-9.0567-12.07151-18.11377c-.58073-.87147-1.16146-2.0504-.52942-2.88543.62348-.82351,1.89834-.6049,2.878-.27772,8.49679,2.83747,15.66854,8.25513,23.56676,12.15851,9.67238,4.78,18.683,11.94176,27.45006,18.19482q9.77666,6.97321,19.30869,14.28029a108.29808,108.29808,0,0,0-34.7233-47.67037c27.45266,17.52449,52.94341,37.38975,80.10719,55.105-8.59829-10.55351-18.70306-22.57632-27.30172-33.12983a200.38575,200.38575,0,0,1,71.342,29.64248c9.28572,6.19581,19.36074,13.52519,30.41282,11.95775q-14.04068-20.20414-28.08135-40.40865,47.49359,20.80253,94.98717,41.60543c7.57216,3.31707,15.70349,6.70887,23.846,5.28047a183.054,183.054,0,0,0-27.3389-27.78727c35.49587,6.91261,69.6299,12.1046,105.12614,19.01721q-21.06408-11.73691-42.12742-23.47418a606.04133,606.04133,0,0,0,105.9846,2.71552q-23.26691-12.05422-46.53345-24.10882a423.38963,423.38963,0,0,0,84.68016-28.78663,142.12106,142.12106,0,0,1-51.55107-16.78687q32.51211-12.84222,65.02347-25.68445-24.98233-7.41043-49.96541-14.82087a111.29747,111.29747,0,0,0,25.89674-22.01864,122.56757,122.56757,0,0,0-59.57979-5.52176q15.19786-11.87967,30.39572-23.75971c-36.07958-17.20327-80.189-16.49242-115.69527,1.86451a119.68479,119.68479,0,0,1,24.89292-18.96516c112.59978,5.48757,228.26708,34.63925,329.28554,85.11245q19.80662,9.89624,39.14932,20.73905a40.82834,40.82834,0,0,1,6.272,18.70008c2.08609,21.64165-8.66224,41.64038-17.97138,60.37875-6.09431,12.2667-12.03136,24.89663-14.1602,38.549q13.232-11.44468,26.46446-22.88973-15.00658,27.42385-30.01352,54.8477,17.95279-14.40651,35.90521-28.813c-8.29751,29.94363-21.98332,56.672-37.49571,83.3685a55.08639,55.08639,0,0,0,23.43849-18.36659q-12.36039,23.44481-24.72041,46.88888a67.0393,67.0393,0,0,0,25.22269-19.176c-5.53886,21.32823-18.27736,41.37418-36.57,53.9885a66.45255,66.45255,0,0,0,30.51841-21.2892c-7.62718,28.28286-22.32127,53.56095-37.64182,77.75416a59.66961,59.66961,0,0,0,28.99632-21.72753,258.6005,258.6005,0,0,1-13.13594,58.16849q-2.90216,8.267-6.36274,16.32363,12.7385-11.21436,25.47662-22.42835a51.83125,51.83125,0,0,1-4.02049,24.81112q8.91561-11.40955,17.832-22.81872a16.62853,16.62853,0,0,1,3.52193,15.30791q11.2573-19.29735,22.515-38.59471a70.30449,70.30449,0,0,1,2.59953,36.53873,136.464,136.464,0,0,0,31.088-50.5123,134.35435,134.35435,0,0,0,4.60382-16.74783,156.67432,156.67432,0,0,1,4.70941,41.9207c12.36076-24.04971,16.27529-54.31047,1.80874-78.77583a47.0073,47.0073,0,0,1,15.61983,30.03434,91.51254,91.51254,0,0,0-3.281-54.6685,88.35362,88.35362,0,0,0-7.8562-15.763q10.99965,11.68114,21.99931,23.36265a275.21863,275.21863,0,0,0-3.71191-31.77356c-1.48566-8.43284-3.36429-15.70423-2.52889-24.2211.91459-9.33034-1.27485-19.32989-2.83821-28.51374q-1.29549-7.6112-2.96982-15.15139c-.6246-2.81107-1.33285-12.3128-3.48475-14.10741a60.76963,60.76963,0,0,1,13.96539,16.76122,114.37276,114.37276,0,0,0-5.353-46.4498c8.54475,10.58809,12.02615,23.98241,14.88444,37.01425,2.55157,11.63206,3.8517,28.204,11.27812,37.86378,1.61653-4.15359,2.1281-9.41436,3.28064-13.83452.82871-3.17765,6.243-15.93325,4.85329-18.6116a56.69337,56.69337,0,0,1,5.85786,35.3111c-.65657,4.1588-1.64887,8.80166.72275,12.28046q4.037-7.764,8.07444-15.528c.38814-.74729.99341-1.61355,1.82658-1.49235.822.11972,1.16257,1.10234,1.312,1.91916,1.29753,7.08475.264,14.23716.57887,21.31411.38554,8.666-1.16295,17.78995-2.166,26.3901q-1.1187,9.5904-2.56718,19.138a87.074,87.074,0,0,0,20.10357-42.94646c-1.69311,26.13208-5.7954,51.7905-7.735,77.7932,4.09745-10.14938,8.64513-21.92978,12.74221-32.07916a161.12326,161.12326,0,0,1,6.79773,61.74284c-.76142,8.94294-2.01545,18.88151,3.37581,26.05735q8.78288-17.72582,17.56576-35.452,3.77214,41.51806,7.54465,83.03612c.60118,6.61965,1.36668,13.662,5.53106,18.84247a147.1705,147.1705,0,0,0,8.96487-30.03285c8.90092,27.68019,18.48519,53.7342,27.38611,81.41439q.09536-19.3877.19073-38.775a487.25656,487.25656,0,0,0,39.2,75.69558q-.53593-21.06241-1.07149-42.12407a340.41144,340.41144,0,0,0,53.12187,48.4712,114.27177,114.27177,0,0,1-8.17483-42.81782q21.65634,17.91543,43.31193,35.83123-4.472-20.469-8.94405-40.93845a89.48014,89.48014,0,0,0,25.55284,9.69692,98.54848,98.54848,0,0,0-19.22281-44.10234q2.86145,1.223,5.72327,2.446A836.49327,836.49327,0,0,1,2019.92865,1181C2019.92865,1183.96871,2019.84723,1186.91771,2019.81637,1189.879ZM1909.59825,1171.583q-7.98819-4.78656-16.27641-9.24631c-4.36477-2.34671-11.67407-7.84951-16.85714-8.56818a198.42479,198.42479,0,0,1,48.60541,15.70349,240.20424,240.20424,0,0,0-47.43466-36.13237,202.21379,202.21379,0,0,1,34.91886,12.50948c-12.55-14.96884-28.9833-27.8843-47.97672-37.70651q17.71466,7.86606,35.42858,15.73137c-5.93556-16.4504-18.68856-31.30845-35.81635-41.72775a130.7572,130.7572,0,0,1,41.58089,25.73167,75.077,75.077,0,0,0-8.48675-25.79078c19.7712,18.48519,29.64434,43.409,26.75147,67.5308,6.83417-7.86178,10.49254-17.42895,10.31334-26.9738a81.34011,81.34011,0,0,1,10.7368,47.77336q5.74911-6.25492,11.49859-12.50985-1.52246,9.50563-3.04455,19.01127c-1.01572,6.34229-2.6947,12.85635-3.04641,19.23582,1.52544-.24575,3.21669.12083,4.64063-.4a10.72037,10.72037,0,0,0,4.715-3.82791c3.52007,6.49212,3.06128,13.64714,3.23528,20.55343.16767,6.65943,3.18881,13.59881,4.55549,20.25861q2.1242,10.35442,3.83832,20.75829c.55917,3.39217.84209,6.868,1.64106,10.2282.06915.29111,2.1281,6.56834.13682,5.7716-4.06771-1.62694-6.36646-11.606-7.71158-14.79484q-5.79372-13.73674-12.94112-27.08385c-2.2638-4.22683-4.18148-8.55219-6.18614-12.8281-1.99537-4.25769-5.97422-7.45988-9.93-10.76283a139.75725,139.75725,0,0,0-31.15528-19.52321c11.36177,1.33806,22.45623,3.8056,33.51463,6.26756C1928.82775,1184.57844,1919.60412,1177.5792,1909.59825,1171.583Z" fill="#d1d1d1"/></svg>