<?xml version="1.0" encoding="utf-8"?>
<!-- Generator: Adobe Illustrator 24.3.0, SVG Export Plug-In . SVG Version: 6.00 Build 0)  -->
<svg version="1.1" id="Ebene_1" xmlns="http://www.w3.org/2000/svg" xmlns:xlink="http://www.w3.org/1999/xlink" x="0px" y="0px"
	 viewBox="0 0 841.9 595.3" style="enable-background:new 0 0 841.9 595.3;" xml:space="preserve">
<style type="text/css">
	.st0{fill:none;stroke:#E82C88;stroke-miterlimit:10;}
	.st1{fill:none;stroke:#B04E98;stroke-miterlimit:10;}
	.st2{fill:none;stroke:#B75FA1;stroke-miterlimit:10;}
</style>
<path class="st0" d="M379.5,351.4c-39.4,0-71.4-32-71.4-71.4s32-71.4,71.4-71.4s71.4,32,71.4,71.4S418.9,351.4,379.5,351.4z
	 M379.5,223.9c-30.9,0-56.1,25.2-56.1,56.1s25.2,56.1,56.1,56.1c30.9,0,56.1-25.2,56.1-56.1S410.4,223.9,379.5,223.9z"/>
<path class="st1" d="M10.5,375.6v-7.2c0-6.2,5-11.1,11.1-11.1H150c3.1,0,5.6-2.5,5.6-5.6v-1.2c0-2.2-1.3-4.2-3.4-5.1
	c-25.8-11.5-42.5-37.1-42.5-65.3c0-39.4,32-71.4,71.4-71.4c0.6,0,1.2,0,1.7,0c18.4,0.4,35.7,7.9,48.8,21.1
	c13.1,13.2,20.5,30.5,20.9,48.9c0.6,28.8-16.1,55-42.4,66.7c-2.1,0.9-3.4,2.9-3.4,5.1v1.2c0,3.1,2.5,5.6,5.6,5.6h128.3
	c6.2,0,11.1,5,11.1,11.1v7.2c0,6.2-5,11.1-11.1,11.1h-319C15.5,386.7,10.5,381.7,10.5,375.6z M309.8,377.3v-10.2h-55.6v10.2H309.8z
	 M108.1,377.3v-10.2H52.6v10.2H108.1z"/>
<path class="st2" d="M253.1,210.4v-11.3H109.3v11.3H51.4v-11.3H10.5v-17.6c0-94.1,76.6-170.6,170.6-170.6s170.6,76.6,170.6,170.6
	v17.6H311v11.3H253.1z M329.6,177c-1.1-37.9-16.5-73.6-43.4-100.5C258.2,48.4,220.9,33,181.2,33c-39.7,0-77,15.4-105,43.5
	C49.3,103.4,33.9,139,32.7,177H329.6z"/>
</svg>
