<?xml version="1.0" encoding="utf-8"?>
<!-- Generator: Adobe Illustrator 24.3.0, SVG Export Plug-In . SVG Version: 6.00 Build 0)  -->
<svg version="1.1" id="Ebene_1" xmlns="http://www.w3.org/2000/svg" xmlns:xlink="http://www.w3.org/1999/xlink" x="0px" y="0px"
	 viewBox="0 0 841.9 595.3" style="enable-background:new 0 0 841.9 595.3;" xml:space="preserve">
<style type="text/css">
	.st0{fill:none;stroke:#E82C88;stroke-miterlimit:10;}
	.st1{fill:none;stroke:#B04E98;stroke-miterlimit:10;}
</style>
<path class="st0" d="M436.7,369.1c-39.4,0-71.4-32-71.4-71.4s32-71.4,71.4-71.4s71.4,32,71.4,71.4S476.1,369.1,436.7,369.1z
	 M436.7,241.5c-30.9,0-56.1,25.2-56.1,56.1s25.2,56.1,56.1,56.1c30.9,0,56.1-25.2,56.1-56.1S467.6,241.5,436.7,241.5z"/>
<path class="st1" d="M15.8,371.9v-29.5h139.5c3.1,0,5.6-2.5,5.6-5.6v-1.2c0-2.2-1.3-4.2-3.4-5.1C131.6,319,115,293.4,115,265.2
	c0-39.4,32-71.4,71.4-71.4c0.6,0,1.2,0,1.7,0c18.4,0.4,35.7,7.9,48.8,21.1c13.1,13.2,20.5,30.5,20.9,48.9
	c0.6,28.8-16.1,55-42.4,66.7c-2.1,0.9-3.4,2.9-3.4,5.1v1.2c0,3.1,2.5,5.6,5.6,5.6h139.5v29.5H15.8z M315,362.5v-10.2h-55.6v10.2H315
	z M113.3,362.5v-10.2H57.8v10.2H113.3z"/>
<path class="st1" d="M586.6,206.4v-11.3H442.7v11.3h-57.8v-11.3H344v-17.6c0-36.7,11.5-71.7,33.2-101.2c0.1-0.7,0.3-1.4,0.8-1.9
	c0.7-0.7,1.3-1.3,1.9-1.8c32.6-41.8,81.7-65.8,134.6-65.8c94.1,0,170.6,76.6,170.6,170.6v17.6h-40.9v11.3H586.6z M663.1,173
	c-0.7-24.9-7.7-49.3-20.2-70.5c0,0-6.7-0.1-6.7-0.1c-0.2,0-0.3,0-0.4,0l0,0.6c0.1,0.8,0.1,1.7,0.1,2.5l0,0.6c0,0.9,0.1,1.8,0,2.8
	c-0.2,1.9-0.3,3.8-0.7,5.7c-1,4.9-2.1,9.9-3.2,15.1c-1,4.6-3.1,8.8-4.9,12.3c0,0,0,0,0,0.1c0.8-0.6,1.7-0.8,2.6-0.8
	c1.1,0,2.1,0.4,3.1,1.2l0.1,0.1c0.3,0.2,0.6,0.5,0.8,0.8c0.4,0.7,1,1,2.1,1h0c0.8,0,1.4,0.2,1.8,0.6c0.4,0.4,0.6,1,0.6,1.8
	c0,3-0.1,5.9-0.2,8.7c-0.1,1.8,0.2,3.1,0.8,4.3c0.2,0.3,0.4,0.7,0.5,1.1c0.9,1.9,2,3.8,4.1,4.9c0.6,0.3,1,0.4,1.4,0.4
	c4.3,0,8.7,0.1,13,0.2c0.5,0,1,0,1.6,0.1c1.7,0.3,2.3,1,2.5,2.8c0.1,1.1,0.2,2.4,0.2,3.7H663.1z M528,173l-0.1-1
	c-0.1-1.3-0.1-2.6-0.2-3.9c0-0.6,0.1-1.2,0.3-1.7c0.2-0.7,0.8-1.1,1.4-1.1c0.2,0,0.4,0,0.6,0.1c0.6,0.2,1.3,0.3,1.9,0.3l1.1,0
	c0.2,0,0.4,0,0.6,0c0-0.1-0.1-0.1-0.1-0.2c-0.6-1.4-1.2-3.1-1-4.9c0.2-1.9,1.3-6.5,6.4-7.2c0.5-0.1,0.9-0.1,1.4-0.1
	c0.6,0,1.2,0.1,1.9,0.2c3.8,0.6,6.3,2.7,7.4,6.1c0.5,1.5,0.6,3.2,0.3,5c-0.1,0.7-0.4,1.4-0.6,2.1c0,0.1-0.1,0.1-0.1,0.2h4.8
	l-0.4-4.7c-2.4-0.9-3.9-2.9-4.3-5.9c-0.6-4.3,0.4-8.1,2.8-11.4c1.4-1.9,3.4-2.9,5.7-2.9c0.3,0,0.6,0,0.9,0c0.4,0,0.9,0.1,1.3,0.2
	c0.6,0.1,1.1,0.2,1.7,0.2c2.1,0.2,3.8,1.1,5,2.9c2.1,3.1,2.8,6.3,2,9.8c-0.9,4.2-3.5,6.7-7.7,7.6c-0.1,1.4-0.1,2.8,0,4.1l13.1-0.2
	l0.2-5l-0.1-0.1c-2.7-1.7-4.1-4.2-4.3-7.4c-0.1-2.7,0.7-5.3,2.4-7.4c0.5-0.6,1.2-1.2,2.3-1.8c0.7-0.4,1.6-0.7,2.3-0.8
	c0.7-0.2,1.5-0.2,2.1-0.2c2.1,0,3.9,0.8,5.4,2.3c1.6,1.7,2.5,3.8,2.7,6.1c0.3,4.6-1.2,7.7-4.4,9.5l-0.4,4.9c0.3,0,0.6,0.1,0.9,0.1
	c0.4,0,0.8-0.1,1.1-0.2c0.5-0.2,1-0.3,1.5-0.4c0.2,0,0.3-0.1,0.5-0.1c4-0.9,6.7-2.6,8.4-5.3c-1.4-0.4-1.8-1-2.1-2.5
	c-0.1-0.6-0.2-1.2-0.2-1.8c0-2.3,0.1-4.7,0.2-7l0-1.3c0-0.2,0-0.4,0.1-0.7c0.4-1.5,1.3-2.3,2.7-2.4c0.5,0,1-0.1,1.6-0.1l1-0.1
	c0.5,0,1-0.1,1.5-0.1c1,0,2.1-0.1,3.1-0.2c1.1-0.1,2.1-0.2,3.2-0.3l1-0.1c0-0.2,0-0.4,0-0.6l0.1-7.1c0-3.5,0.1-7,0.1-10.5l0-0.2
	c0.1-6.2,0.2-12.7-1.1-18.9c-0.2-1.1-0.4-2.1-0.5-3.3c-0.1-0.4-0.1-0.7-0.2-1.1c-0.5,0-1,0-1.5,0c-1.5,0-2.8,0.1-4.2,0.2
	c-1.9,0.2-3.6,0.3-5.3,0.3c-0.3,0-0.6,0-0.9,0c-1.7-0.1-3.4-0.1-5.1-0.1c0,0-1.6,0-1.6,0c-0.2,0-0.5,0-0.7,0c-0.2,0-0.5,0-0.7,0
	c-0.1,0-0.3,0-0.4,0c-1.2-0.1-2-0.8-2-2c-0.1-1.7-0.3-3.4-0.4-5.2c-0.1-2.1,0.6-3,2.6-3.5c0.6-0.1,1.2-0.3,1.7-0.4l0.1,0
	c0-0.2-0.1-0.3-0.1-0.5c-0.2-0.8-0.4-1.5-0.5-2.2c-0.3-2.2-0.4-4.5-0.5-6.7c-0.1-1.2-0.1-2.4-0.1-3.7c0-1.6,0-3.3-0.1-4.9
	c-0.2-2.6-0.1-5.2,0.1-7.8c0-0.8,0.1-1.6,0.1-2.4c0-1,0.3-2,0.5-2.9c0.1-0.4,0.4-1.2,1-1.6l0.2-0.1c1.1-0.6,2.2-1.3,3.6-1.3l0.5,0
	c1,0,2.1-0.1,3.2-0.1l0.7,0c1.2-0.1,2.4-0.1,3.6-0.2c1.2-0.1,2.5-0.1,3.7-0.2C577,38.9,546.6,29,514.6,29
	c-31.7,0-61.9,9.8-87.3,28.3l2,0c0.3,0,0.7,0,1,0c1.7-0.1,3.4-0.1,5.1-0.1c3.1,0,6.1,0.2,9.1,0.5c2.2,0.2,4.7,2,5,4.8
	c0.1,0.8,0.2,1.5,0.2,2.3l0.1,0.9c0.1,0.7,0.1,1.4,0.2,2.2c0.2,1.6,0.3,3.3,0.4,5c0.1,4.8,0,9.5,0,13.1c0,1.7-0.2,3.3-0.5,4.8
	c-0.4,2-1.7,3.1-4,3.5c-0.2,0-0.4,0-0.6,0.1c0,0,0.1,0,0.1,0.1c0.6,0.2,1.3,0.4,1.9,0.5l0.2,0.1c0,0,0.2-0.1,0.2-0.1
	c0.5-0.2,0.9-0.3,1.2-0.3c0.7,0,1.2,0.4,1.5,0.8c0.6,0.7,1,1.2,1.1,1.8c0.7,2.1,0.5,4.2,0.3,6.2L452,104c-0.1,1.2-1,2.1-2.4,2.2
	c-0.4,0-0.8,0-1.3,0l-0.8,0l-0.4,0c-0.2,0-0.5,0-0.7,0c0,0.3,0,0.6-0.1,0.9c-0.1,0.5-0.2,0.9-0.3,1.4c-1.7,5.5-4.5,10.8-8.3,15.8
	c-1.7,2.2-3.4,3.8-5.2,5c-1.1,0.7-2.2,1.3-3.3,1.9c-0.4,0.2-0.8,0.4-1.3,0.7l-0.5,13.4c0.2-0.1,0.4-0.3,0.6-0.4
	c1-0.6,2.1-0.9,3.3-0.9c2.2,0,4.4,1.1,5.5,2.7c0.2,0.2,0.4,0.4,0.6,0.5c1.5-2.3,3.3-3.5,5.2-3.5c0.5,0,1,0.1,1.6,0.3
	c2.3,0.8,3.7,3.2,3.6,6.2c0,1.1-0.5,2.1-1.3,2.9c-1.2,1.3-2.7,1.5-4.3,1.6c0.3,2.1,0.4,4.4,0.2,6.9c-0.3,3.7-1,4.5-4.6,5.4
	c-0.2,0-0.4,0.1-0.6,0.1c-0.1,0-0.2,0-0.3,0c-0.3,0-0.5,0.1-0.8,0.1l0.2,2c0.7,0.1,2,0.2,3.3,0.2c1,0,2,0,2.6-0.1
	c-0.4-2.5,0-4.9,1.4-7.4c1.7-3.1,4.8-4.9,8.2-4.9c1.9,0,3.9,0.6,5.5,1.7c1.4,1,2.6,2.3,3.8,4.1c0.9,1.3,1.4,2.7,1.6,4.2
	c0.1,0.6,0.1,1.2,0.1,1.7l0,0.3c0,0,0.1,0,0.1,0c0.5,0,0.9-0.2,1.4-0.3l0.4-0.1c0.3-0.1,0.6-0.2,0.9-0.2c0.6,0,1.4,0.3,1.9,1.4
	c0.2,0.4,0.3,0.9,0.3,1.2c0.1,0.6,0.1,1.2,0.2,1.8h1.2l0-0.5c0-2.2,1.1-3.7,2.9-4.6c1.1-0.5,2.2-1,3.3-1.6l2.9-1.4
	c-0.1-0.1-0.1-0.2-0.2-0.2c-0.5-0.5-0.9-1-1.4-1.4c-1.3-1.2-2.9-1.9-5-2.6c-1.2-0.4-2.7-0.8-4.1-0.8c-0.6,0-1.1,0.1-1.6,0.2
	c-0.3,0.1-0.6,0.1-0.9,0.1l-0.2,0c-1.3,0-1.8-0.7-2-1.3c-0.2-0.6-0.3-1.4,0.7-2.3l0.4-0.3c1.1-0.9,2.2-1.9,3.3-2.8
	c1.6-1.2,3.2-2.1,5-2.5c1.6-0.4,3.2-0.6,4.9-0.6c1.5,0,3.2,0.2,4.9,0.5c1,0.2,1.9,0.4,2.9,0.6c1.1,0.3,2.3,0.5,3.4,0.7
	c0.4,0.1,0.7,0.1,1.1,0.1c1.3,0,2.5-0.4,3.6-1.2c1.2-1,2.2-1.9,3-2.8c1.5-1.8,2.5-4,3.5-6.2c0.5-1,0.7-2.2,0.7-3.6
	c0-1.2,0-2.3,0-3.5v-0.2l-0.3,0.3c-1.2,1.4-2.4,2.7-3.6,4.1c-0.3,0.3-0.6,0.7-0.9,1c-1.1,1.2-2.2,2.4-3,3.9c-0.6,1.2-1.3,2-2.8,2
	c-0.3,0-0.6,0-1-0.1c-1.4-0.2-2.7-0.5-4-0.7c-1.5-0.3-3-0.6-4.5-0.8c-0.8-0.1-1.7-0.4-2.4-0.6c-1.2-0.3-2.3-0.7-3.6-0.7
	c-0.8,0-1.5-0.4-1.9-1c-0.4-0.7-0.4-1.6,0.1-2.6c0.3-0.6,0.6-1.1,0.9-1.7l0.2-0.3l-3.6-5.1l-1.7,0c-0.4,0-0.8,0-1.2,0l-0.2,0
	c-0.9,0-1.6-0.3-2.1-1c0,0,0-0.1-0.1-0.1c-0.5,0.4-0.9,0.7-1.3,1.1c-0.9,0.7-1.7,1.3-2.4,2.1c-0.8,1-1.7,1.9-2.5,2.6
	c-1.2,1.1-2.4,1.7-3.7,1.7c-0.6,0-1.1-0.1-1.7-0.3c-2.3-0.8-3.5-2.7-3.7-5.5c0-0.9,0.2-1.7,0.8-2.3c0.6-0.6,1.4-1,2.3-1
	c1,0,1.9,0.4,2.8,1.1c0.2,0.2,0.4,0.4,0.6,0.6l0.2-0.3c0.4-0.5,0.8-1,1.2-1.5c0.2-0.3,0.5-0.5,0.7-0.8c0.2-0.2,0.3-0.3,0.5-0.5
	l-0.3,0c-1.1,0.1-2.1,0.1-3.1,0.1c0,0,0,0,0,0c-1.6,0-2.9-0.6-3.7-1.8c-0.6-0.8-1.3-1.8-1.7-2.9c-0.6-1.4-0.8-3-0.7-4.6
	c0-0.7,0.3-1.3,0.6-1.8c0.5-0.9,1.2-1.5,2-1.5c0.5,0,1.2,0.2,1.9,1.1c0,0,0.1,0.1,0.1,0.2c1.2,1.3,2.3,2.6,2,4.6l4.3-0.6
	c-0.1-0.1-0.1-0.1-0.2-0.2c-1.4-1.7-2-3.6-1.8-5.6c0.2-2,0.9-4,2-5.9c0.6-1,1.3-1.7,2.2-2.1c0.4-0.2,0.8-0.3,1.2-0.3
	c0.5,0,1.1,0.2,1.5,0.6c1.8,1.4,2.2,3,1.4,5.2c-0.3,0.6-0.6,1.3-0.9,1.8c-0.1,0.3-0.3,0.5-0.4,0.8L464,117c0.1,0,0.1,0.1,0.2,0.1
	c0.3,0.1,0.7,0.3,1,0.4c0.8,0.3,1.5,0.5,2.3,0.9c0.4,0.2,0.8,0.2,1.3,0.2l0.9,0c0.7,0,1.5,0,2.2,0.3c0.9,0.4,1.6,0.6,2.3,0.6
	c0.2,0,0.5,0,0.7-0.1c0.6-0.1,1.3-0.2,1.9-0.3l0.4-0.1l0.1-1.3c0.1-1.2,0.1-2.4,0.2-3.5c0.1-1.3,0.8-2.2,1.8-2.2
	c0.4,0,0.8,0.1,1.3,0.4c1.9,1.3,2.9,3,3,4.9c0.1,1.1,0,2.1-0.1,3.1c-0.3,2.7-2,4.4-4.6,4.4c0,0,0,0,0,0c-1.3,0-2,0.3-2.6,1.2
	c-0.3,0.4-0.6,0.8-0.9,1.1c-0.2,0.2-0.3,0.3-0.5,0.5c-0.1,0.2-0.3,0.3-0.4,0.5c1.3,1,2.6,1.8,4,2.4c0,0,0.1-0.1,0.1-0.1
	c0.9-1,1.7-1.5,2.7-1.5c0.9,0,1.8,0.4,2.8,1.3c0.1,0.1,0.2,0.1,0.2,0.2c0.1,0.1,0.1,0.1,0.2,0.2c0.6,0.4,1.3,0.8,2,1.2l0.1,0
	c0.1-0.5,0.1-0.9,0.2-1.3c0.2-0.7,0.7-1.1,1.5-1.1c0.1,0,0.2,0,0.2,0c0,0,0-0.1,0-0.1c0.2-0.8,0.3-1.8,1.3-2.4
	c0.3-0.2,0.7-0.3,1-0.3c0.7,0,1.3,0.4,1.8,0.8c0.2-0.2,0.4-0.4,0.6-0.6c0.7-0.7,1.3-1.4,1.9-2.1c1.8-2.5,4.1-4.6,6.1-6.5
	c0.1-0.1,0.1-0.1,0.2-0.2c0,0,0,0,0,0c-2.4,0-5.4-0.2-8.2-1.6c-1.1-0.5-2-1.1-2.6-1.8c-1.7-1.9-2.4-4.1-2-6.5c0.2-1,0.8-1.7,1.7-1.7
	c0.4,0,0.8,0.1,1.2,0.4c0.2,0.1,0.3,0.2,0.4,0.3l0.2,0.1c0.6,0.5,1.2,0.7,1.8,0.7c0.3,0,0.6-0.1,1-0.2c0,0-0.1-0.1-0.1-0.1
	c-0.5-0.5-1.1-0.9-1.6-1.5c-3.1-3.4-4-7.3-2.5-11.8c0.2-0.5,0.3-0.8,0.5-1.2c0.5-0.9,1.3-1.4,2.3-1.4c0.1,0,0.1,0,0.2,0
	c1.3,0.1,2.4,0.4,3.5,1c1.7,1,2.8,2.4,4.1,4l0.3,0.5c1.3,1.6,2.6,3.3,4.2,4.6c0.3,0.3,0.7,0.5,1.1,0.7c0,0,0.1,0,0.1,0
	c0.1-0.2,0.2-0.4,0.3-0.6c0.3-1.1,0.6-2.1,0.9-3.2c0.2-0.8,0.3-1.4,0.3-2c0-1-0.1-1.7-0.4-2.3c-0.3,0.2-0.5,0.3-0.8,0.5
	c-0.8,0.5-1.7,0.7-2.6,0.7c-1.1,0-2.1-0.4-3.2-1.1c-1.6-1.1-2.2-2.8-1.7-5.2c0.4-2,1.3-3.3,2.9-4.1c0.4-0.2,0.8-0.3,1.3-0.3
	c1.2,0,2.2,0.9,2.4,2.2c0,0,0,0,0,0c0.5-0.1,0.9-0.3,1.4-0.4c0.4-0.1,0.8-0.1,1.2-0.1c1.4,0,2.6,0.7,3.4,1.9
	c0.4,0.7,0.9,1.5,1.1,2.4c1.1,4.2,0.9,8.2-0.5,11.9c0,0,0,0,0,0c1.3-0.2,2.2-0.6,3.2-1.4c1.6-1.3,2.7-3.1,3.6-5.5
	c0.8-2.2,0.9-4.7,0.2-7.9c-1-0.3-1.9-0.8-2.3-1.7c-0.3-0.7-0.1-1.5,0.4-2.7c-0.1,0-0.2,0-0.2,0c-0.3,0-0.6,0.1-0.9,0.1
	c-0.1,0-0.2,0-0.4,0c-1.2-0.1-2.2-0.8-2.7-1.7c-0.5-0.9-0.5-2,0-3.1c0.2-0.4,0.3-0.7,0.5-1.1l0.1-0.2l-0.2-0.2
	c-0.1,0.2-0.2,0.4-0.2,0.6c-0.4,1.1-1.2,1.9-2.3,2.2c-0.6,0.2-1.2,0.3-1.8,0.3c-0.6,0-1.3-0.1-2-0.3c-1.1-0.3-1.8-1.2-1.9-2.4
	c0-0.5,0-0.9,0.1-1.4l0-0.2c0.1-0.4,0.1-0.8,0.2-1.2h-0.3c0,0.2,0,0.4,0,0.6c0.1,2.8-1.5,4.7-4.2,5.1c-0.4,0.1-0.9,0.1-1.4,0.1
	l-0.2,0c-1,0-1.9-0.4-2.5-1.1c-0.6-0.7-0.9-1.6-0.9-2.7l0.1-1.4c-0.9-0.1-1.7-0.5-2.1-1.3c-0.7-1.1-0.3-2,0.2-2.7
	c-1.6-1.5-2.2-3.4-1.8-5.8c0.4-2.3,1-4.7,1.5-6.9l0.1-0.6c0.2-0.8,0.5-1.6,0.7-2.4l0.2-0.7c0.2-0.7,0.6-1.5,1.5-1.9l0.3-0.1
	c0.7-0.3,1.3-0.5,2.1-0.5c0.6,0,1.2-0.1,1.7-0.1c1-0.1,2-0.1,3.1-0.1c1,0,1.9,0.1,2.8,0.2c0.8,0.1,1.6,0.1,2.3,0.2l0.5,0
	c3.7,0.2,7.3,0.9,10.9,1.8c1.4,0.3,2.7,0.7,4.1,1.1c1,0.3,2,0.6,3,0.9c1.7,0.4,3.1,1,4.4,1.6c2.9,1.5,4.2,4.2,3.4,7.4
	c-0.5,2.2-1.4,4.3-2.7,6.2c-0.2,0.2-0.3,0.5-0.5,0.8c0.4-0.3,0.8-0.6,1.3-1.1c0.2-0.2,0.6-0.6,1.2-0.6c0.2,0,0.4,0.1,0.6,0.2
	c0.9,0.5,0.7,1.3,0.7,1.7c-0.3,1.9-0.8,3.5-1.8,4.8c-0.9,1.2-2,1.9-3.5,1.9c0,0-0.1,0-0.1,0c0,0.1,0,0.2,0.1,0.3l0.2,1.6
	c0.2,1.2,0.4,2.3,0.6,3.5c0.1,0.8,0.2,0.8,0.6,0.8c0.1,0,0.3,0,0.4,0c1.7-0.2,3-0.8,3.9-1.7c0.7-0.7,1.3-1.5,2-2.2l0.6-0.7
	c0.1-0.2,0.3-0.4,0.4-0.6c0.2-0.3,0.5-0.6,0.7-0.9c0.4-0.4,0.8-0.6,1.3-0.6c0.6,0,1.1,0.3,1.5,0.9c0.2,0.3,0.4,0.7,0.5,1
	c1.1,4.4,0.3,7.9-2.6,10.8c-1.5,1.5-3,2.6-4.8,3.2c-0.8,0.3-1.5,0.6-2.3,0.9c0,0,0.1,0,0.1,0c1.1,0,2.1-0.1,3.1-0.5
	c0.3-0.1,0.5-0.2,0.8-0.2c0.4,0,0.7,0.1,1,0.4c0.6,0.5,0.7,1.2,0.5,1.9c0,0.1-0.1,0.2-0.1,0.3c-0.1,0.3-0.2,0.6-0.4,0.9
	c-0.3,0.4-0.5,0.7-0.8,1.1c-0.8,1.2-1.7,2.4-2.6,3.4c-1.9,2.1-4.4,3.2-7.5,3.2c0,0-0.4,0-0.4,0c0.3,0.7,0.7,1.2,1.2,1.6
	c1.4,1.1,2.8,1.6,4.3,1.6c0.1,0,0.2,0,0.3,0c0.3,0,0.6,0,0.9,0c0.4,0,0.7,0,1,0.1c0.6,0.1,1,0.4,1.3,0.8c0.3,0.4,0.3,1,0.2,1.6
	c-0.1,0.3-0.3,0.8-0.6,1.1c-1.9,2.1-3.9,4.3-7.1,4.9c-0.5,0.1-1,0.3-1.5,0.4c-0.3,0.1-0.5,0.2-0.8,0.3c-0.8,0.2-2.5,0.8-2.5,0.8
	c0.7,1.4-0.3,2.5-0.9,3.2c-0.1,0.1-0.2,0.2-0.3,0.4c0,0,0.9,1.5,1.2,2.1c0.1,0.2,0.2,0.3,0.2,0.4c1.3,1.4,2.6,2.9,3.5,4.5
	c0.6-0.6,1.2-0.9,1.8-0.9c0.8,0,1.6,0.6,2.1,1.6c0.2,0.3,0.3,0.7,0.5,1v0c0.2,0,0.4-0.1,0.5-0.1c1.1,0,1.3,1,1.5,1.5
	c0.1,0.2,0.1,0.5,0.2,0.7c0.3-0.6,0.5-1.1,0.9-1.6c0.4-0.6,0.8-1.1,1.3-1.7c1.7-2.2,3.4-4.5,4.8-6.8c0.4-0.7,1.2-1.7,2.3-1.7
	c0.2,0,0.4,0,0.6,0.1l3-4.2c-0.1-0.1-0.2-0.2-0.4-0.2c-0.9-0.6-1.8-1.2-2.9-1.2c-1.2-0.1-2.1-0.5-2.7-1.4c-1.4-1.9-1.7-4.2-0.8-6.8
	c0.1-0.2,0.2-0.4,0.3-0.6c0.5-0.7,1.2-1.1,1.9-1.1c0.4,0,0.7,0.1,1.1,0.3c0.9,0.4,1.5,1.1,1.7,2c0.2,0.6,0.3,1.2,0.4,1.7
	c0,0.1,0,0.3,0.1,0.4c0.1,0,0.2,0,0.2,0c0.2,0,0.5,0,0.9-0.4c0.4-0.4,0.9-0.6,1.4-0.7c1.2-0.4,2.3-0.8,3.4-1.1
	c0.5-0.2,0.7-0.4,0.7-0.8c0-0.5,0.1-0.9,0.1-1.4c0-0.5,0.1-1,0.1-1.6c0-0.5,0-1,0-1.5c0-0.6,0-1.3,0-2c0.1-1.5,1-2.4,2.4-2.4
	c0.2,0,0.5,0,0.7,0.1c1.2,0.2,2.2,0.9,2.8,2c1.1,1.8,1.5,3.9,1.2,6.1c-0.1,0.6-0.2,1.2-0.4,1.7c0,0.1-0.1,0.3-0.1,0.4
	c0,0,1.2,0.8,1.7,1.1c0.5,0.3,1,0.6,1.4,0.9l0.1,0c0.9-1.5,1.8-4.2,2.2-5.8c0.2-0.8,0.4-1.5,0.6-2.1c0.4-1.1,1.3-1.7,2.4-1.8
	c0,0,0,0,0,0c1.2,0,2.1,0.6,2.5,1.7c0.3,0.9,0.5,1.7,0.4,2.4c-0.1,4.3-2.5,7.7-4.5,10.2c-0.8,1-2,1.5-3.3,1.5
	c-0.4,0-0.8-0.1-1.3-0.2l-0.1,0l1.8,2.5c0.2-0.2,0.5-0.4,0.7-0.6c0.1-0.1,0.2-0.2,0.3-0.3c0.2-0.2,0.4-0.4,0.6-0.5
	c0.7-0.5,1.5-0.8,2.2-0.8c0.6,0,1.2,0.2,1.7,0.5c1.3,0.8,1.9,2,1.8,3.5c-0.2,1.9-1.2,3.3-3,4c-2,0.8-4.1,1.4-5.9,1.9
	c-0.3,0.1-0.7,0.1-1,0.1c-1.1,0-2-0.5-2.7-1.3c-0.5-0.7-1.1-1.3-1.7-2l-0.4-0.4c-0.4-0.4-0.7-0.9-0.9-1.3c-0.1-0.2-0.2-0.3-0.3-0.5
	c-0.1-0.2-0.2-0.4-0.3-0.6l-0.6,0.1l-2.2,6.1c0.2,0.3,0.4,0.5,0.6,0.8c0.7,0.8,1.3,1.6,2,2.5c0.5,0.7,0.9,1.5,1.3,2.3
	c0.6,1.2,0.3,2.4-0.7,3.4c-0.6,0.6-1.1,1-1.6,1.3l-0.9,0.5c-1.9,1-3.8,2.1-5.8,3.1c-1.4,0.7-2.8,1.3-4.2,1.9c-1,0.4-2,0.9-3,1.3
	c-2.2,1-4.1,1.9-5.8,2.8c-0.5,0.3-1,0.4-1.5,0.4c-0.6,0-1.2-0.2-1.8-0.5c-0.3-0.1-0.5-0.3-0.8-0.5c-0.1-0.1-0.3-0.2-0.4-0.3
	l-5.2-3.4c0,0.5,0,1.1,0,1.6l0,2.5c0,2.8,0.1,5.7,0.1,8.5c0,1.2,0.3,2.5,0.8,3.7c0.4,1.1,0.8,2.2,1.1,3.4c0.9,3.4,1.2,6.2,0.8,8.9
	H528z M367.3,173l0-0.9c0-0.7,0.1-1.3,0.3-2c0.5-1.5,1.7-2.5,3.2-2.5c0.4,0,0.7,0.1,1.1,0.2c0.3,0.1,0.7,0.2,1,0.3l0,0c0,0,0,0,0,0
	c1.7-4.8,2.5-8.6,2.8-12.3c0.1-0.8,0.1-1.6,0.1-2.4c0-0.9,0.1-1.9,0.2-2.8c0.2-3,0.4-5.9,0.6-8.9c0.1-1.2,0.2-2.3,0.3-3.5
	c0.1-0.9,0.3-1.8,0.4-2.7c0.2-1.4,0.4-2.8,0.6-4.2c0.1-1.5,0.2-3,0.3-4.5c0.1-1.6,0.2-3.2,0.4-4.8c0.1-0.6,0.1-1.1,0.2-1.7
	c0.1-1.3,0.3-2.6,0.4-4c-8.1,17.8-12.5,36.9-13.1,56.7H367.3z M422.4,169c2,0.1,3.9,0.3,5.8,0.3c0.4,0,0.8,0,1.2,0l0.1-1.6
	c-0.7,0-1.3,0.1-1.8,0.2c-0.6,0.2-1.1,0.3-1.7,0.4c-0.2,0-0.3,0-0.5,0c0,0,0,0,0,0c-1.3,0-2.4-0.7-3-1.9l-1,2.5
	C421.8,169,422.1,169,422.4,169z M392.7,168.9c1,0.2,3.9,0.3,6.9,0.3c0.9,0,1.6,0,2.2,0c-2-2.3-3.4-4.9-4.8-7.4l-0.1-0.3
	c0,0.1-0.1,0.1-0.1,0.2c-0.5,0.7-0.9,1.4-1.5,2c-0.6,0.6-1.3,1-2,1.5c-0.2,0.2-0.5,0.3-0.8,0.5L392.7,168.9z M384.2,168.9v-3.2
	c-1.2-0.6-2.1-1.3-2.9-2.2c-0.6,1.9-1.3,3.7-2.3,5.4H384.2z M454,168.9c-0.2-1.4-1.2-2.7-2.4-2.8c-0.1,0-0.2,0-0.3,0
	c-0.3,0-0.6,0.1-0.7,0.2c-0.9,0.6-1.5,1.5-2.1,2.7H454z M415,168.8c0.1-0.5,0.3-1,0.5-1.5c0.4-1.4,0.9-2.9,1.3-4.4
	c0.6-2.2,1.1-4.4,1.7-6.9c-1.2,1.7-3,3-5.4,4l1.4,8.7H415z M600.9,161.1c-0.4,1.2-0.9,2.7-1.8,4c-0.6,0.9-1.4,1.7-2.3,2.4l4.9-0.2
	v-6.1H600.9z M609.2,166.8l1,0c0-0.1-0.1-0.2-0.1-0.2c-0.3-0.6-0.6-1.2-0.8-1.7V166.8z M615.3,160.9c-0.1,0.8,0,1.5,0.4,2.3
	c0.2,0.5,0.4,0.9,0.6,1.4c0.2,0.4,0.4,0.9,0.6,1.3c0.3,0.6,0.5,0.7,0.9,0.7c0.1,0,0.1,0,0.2,0c0.2,0,0.4,0,0.6,0c0.1,0,0.3,0,0.4,0
	l0.4-5.9C618.2,160.8,615.3,160.9,615.3,160.9z M627,160.8c1.6,0.3,2.7,1.3,3.1,2.9c0.3,1.1,0,2-0.6,2.7l6-0.2l-2.8-5.5H627z
	 M541.1,160.3c-0.1,0-0.1,0-0.2,0c-0.2,0.1-0.4,0.1-0.6,0.1c-0.5,0-0.7,0.1-0.8,0.4c-0.5,1.2-0.5,2,0,2.7c0.6,0.9,1.4,1.3,2.4,1.3
	c0.1,0,0.3,0,0.4,0l0.5-0.1c0.4-0.1,0.8-0.1,1.2-0.2c0.2,0,0.2-0.1,0.2-0.2c0-0.2-0.1-0.5-0.1-0.7c-0.1-0.7-0.2-1.4-0.4-1.9
	C543.3,160.7,542.5,160.3,541.1,160.3v-0.6V160.3z M402.3,158.2c0.7,1.3,1.5,2.7,2.5,4.1l0.4-2.3c-0.2-0.1-0.3-0.2-0.5-0.3
	c-0.7-0.4-1.4-0.8-2-1.2C402.5,158.4,402.4,158.3,402.3,158.2z M386.5,154.2c-0.4,1-0.4,1.8-0.2,2.7c0.2,1,0.9,1.6,1.9,1.9
	c0.1,0,0.1,0,0.2,0c0.8,0,1.9-0.7,2-1.3c0.1-0.2,0-0.5,0-0.7c-0.5-1.8-1.7-2.7-3.5-2.7C386.8,154.2,386.6,154.2,386.5,154.2z
	 M431.7,156.8c0.1,0,0.2,0,0.4,0c1.2,0.1,2,0.8,2.6,1.5c0.6-1.8,0.4-3.3-0.6-4.6c-0.5-0.7-1.1-1.3-1.7-2c-0.2-0.2-0.3-0.4-0.5-0.6
	c-1.7,1.6-2.7,3.4-3,5.5c0,0.2,0,0.6,0.3,1.3C429.8,157.3,430.6,156.8,431.7,156.8z M578.1,152c-0.1,0-0.3,0.1-0.5,0.2
	c-0.9,0.6-1.1,1.3-0.8,2.3c0.1,0.4,0.3,0.9,0.5,1.4c0.4,0.9,0.7,1,1.4,1c0.1,0,0.1,0,0.2,0c0.8-1.4,0.7-2.9-0.3-4.7
	C578.4,152,578.2,152,578.1,152z M559.4,148.5c-1.4,0.6-2.2,1.5-2.5,2.9c-0.2,1-0.4,2.1-0.5,3.2c0,0.4,0,0.6,0.1,0.7
	c0.1,0.1,0.3,0.2,0.8,0.2l1.8,0c1.5,0,2-0.3,2.5-1.8c0.6-1.7,0.4-3-0.5-4c-0.3-0.4-0.8-0.6-1.3-0.9
	C559.7,148.7,559.6,148.6,559.4,148.5z M407.9,146.1c-0.1,0-0.3,0.1-0.4,0.3c-0.9,1-1.3,2.2-1.3,3.6c0.1,1.3,0.7,2.2,1.7,2.7
	c0.6,0.3,1.1,0.4,1.6,0.4c0.7,0,1.5-0.3,2.1-0.8c0.8-0.6,1.1-1.5,0.9-2.4C412.2,147.5,410.5,146.2,407.9,146.1z M395.8,134.3
	c0.7,4.4,1.6,9.4,3,14.3c0.3-1.3,0.7-2.6,1.4-3.8c1.2-2.2,2.9-3.6,4.9-4.2c1.4-0.4,2.9-0.7,4.3-0.8c0.3,0,0.5,0,0.8,0
	c3.5,0,6.2,1.5,8.2,4.5c0.7,1,1.2,2.1,1.5,3.1c0.1-1.2,0.2-2.3,0.2-3.5l0-0.8c0.1-1.3,0.2-2.6,0.2-3.9c0.1-1.5,0.2-3,0.3-4.5
	c0-0.4,0-0.9,0-1.4c0-0.1,0-0.1,0-0.2c-2.4-0.1-4.8-0.7-7.6-2l-0.4,0.5c-0.5,0.6-1,1.1-1.5,1.7c-1.8,2-3.7,3.1-5.8,3.6
	c-0.7,0.1-1.5,0.2-2.2,0.2C400.8,137,398.3,136.1,395.8,134.3z M385.3,124.2c-0.2,2.7-0.5,5.4-0.7,8.1c-0.1,1.4-0.3,2.7-0.5,4.1
	c-0.1,0.8-0.2,1.5-0.3,2.3c-0.1,0.8-0.2,1.7-0.3,2.6c-0.1,1.5-0.2,3-0.3,4.6l0,0.9c1.3-0.6,2.7-0.9,4.1-0.9c1.4,0,2.8,0.3,4.4,0.8
	c0,0,0-0.1,0-0.1c-0.1-0.7-0.3-1.5-0.4-2.2c-0.2-1.3-0.5-2.6-0.7-3.9c-0.1-0.9-0.2-1.8-0.3-2.6c0-0.4-0.1-0.7-0.1-1.1l-0.1-1.3
	c-0.1-1.1-0.2-2.3-0.3-3.4c0-0.6-0.1-1.1-0.1-1.7c0-0.5,0-1.1-0.1-1.6c0-0.4-0.1-0.7-0.2-0.8c-1.1-1.4-1.8-2.9-2.5-4.6
	c-0.4-0.8-0.8-1.7-1.2-2.6C385.5,121.9,385.4,123.1,385.3,124.2z M613.4,144.4l5.1,0c-1.6-2.6-2.5-5.5-2.6-8.7
	c-0.1-4.3-0.1-8.5,0-12.9c0-0.9,0.1-1.9,0.2-2.8c0.1-0.6,0.2-1.2,0.2-1.8c0.1-0.8,0.1-1.6,0.1-2.4c0-0.7,0.1-1.4,0.1-2.1
	c0.1-2,0.3-4,0.4-6.1l0.1-1c0.1-1,0.2-2.1,0.3-3.1l0.1-1c-0.8,0-1.5,0-2.2,0c-1.5,0-3,0-4.6,0.1c0.1,0.4,0.2,0.8,0.2,1.1
	c0.3,1.3,0.5,2.6,0.7,3.8c0.3,2.1,0.5,4.2,0.7,6.3l0.2,1.6c0.7,6.2,0.7,12.5,0.7,18.6l0,2.8c0,1.8,0,3.7,0,5.6l0,2.1
	C613.3,144.4,613.4,144.4,613.4,144.4z M623.1,102.5c0.1,0.5,0.1,1,0.1,1.5c0,1.8,0.1,3.6,0,5.4l0,0.8c0,2.3-0.1,4.6-0.2,6.9
	c-0.1,1.2-0.2,2.3-0.4,3.5c-0.1,1.1-0.3,2.2-0.4,3.2c-0.3,3.8-0.6,8.1-0.2,12.3c0.1,0.7,0.2,1.5,0.4,2.3c2.3-4.4,3.9-9.2,4.8-14.2
	c0.3-1.4,0.6-2.9,0.9-4.3c0.3-1.2,0.5-2.5,0.8-3.7c0.6-3.1,1.2-6.8,1.1-10.5c0-0.9,0-1.7,0.1-2.6c0-0.2,0-0.4,0-0.6L623.1,102.5
	C623.1,102.4,623.1,102.5,623.1,102.5z M394.8,121.1c0.1,1.1,0.1,2.3,0.2,3.4c0,0.2,0.2,0.5,0.4,0.7c0.7,0.7,1.4,1.4,2.2,2
	c0.6,0.5,1.1,1,1.6,1.5c0.8,0.8,1.9,1.3,3.4,1.5c0.2,0,0.3,0,0.5,0c0.7,0,1.3-0.3,1.8-0.8c0.4-0.5,0.7-1,1.1-1.5l0.1-0.2l-0.2-0.1
	c-0.6-0.3-1.1-0.5-1.7-0.7c-2-0.9-3.8-2.1-5.4-3.3c-1-0.8-2.1-1.5-3.2-2.3l-0.8-0.5L394.8,121.1z M416.8,125
	c1.3,0.5,2.5,0.9,3.7,0.9c0.2,0,0.4,0,0.6,0c0.4-3.9,0.1-7.9-0.1-11.7c-0.1-0.8-0.1-1.6-0.2-2.4c-1.3,4.5-2.7,8.8-4.4,13.1
	C416.6,124.9,416.7,124.9,416.8,125z M428,106.4c-0.2,1.4-0.2,2.8-0.2,4.1c0,1,0.1,1.9,0.1,2.9c0.1,3.2,0.3,6.5,0,9.8c0,0,0,0,0,0
	c1.2-1.1,2.4-2.4,3.6-4.1c3-4,5.8-8.3,8.3-12.8c-0.1,0-0.2,0-0.3,0c-0.7,0-1.3-0.1-1.9-0.1l-0.3,0c-1.2,0-2.5,0.1-3.7,0.1
	c-0.9,0-1.9,0.1-2.8,0.1c-0.4,0-0.8,0-1.3,0L428,106.4z M394.9,111.7l0,0.2c0,0.2,0,0.4,0,0.7c-0.2,0.6,0,0.9,0.8,1.4l1.3,0.8
	c1.8,1.1,3.7,2.2,5.4,3.4c2.1,1.5,4.3,2.6,6.7,3.4c0,0,0,0,0.1,0c0-0.1,0-0.1,0.1-0.2c0.2-0.4,0.3-0.8,0.5-1.2
	c1.1-3.6,2.2-7.2,3.2-10.9l0.8-2.8l-2.7,0.1c-3.5,0.1-6.9,0.2-10.4,0.3c-0.6,0-1.2,0.1-1.8,0.2c-0.4,0.1-0.8,0.1-1.2,0.2
	c-0.7,0.1-1.4,0.1-2.1,0.2c-0.2,0-0.4,0-0.5,0l-0.4,0L394.9,111.7z M518.6,117.2c-0.1-0.1-0.4-0.4-0.4-0.4L518,117L518.6,117.2z
	 M386.4,107.6c0,0.3,0.2,0.4,0.4,0.6c0.8,0.5,1.6,1,2.5,1.6l0.4,0.2l0.1-2.3c-1.1-0.1-2.2-0.2-3.3-0.2
	C386.5,107.6,386.5,107.6,386.4,107.6z M397.7,85.9c0.1,2.4,0,4.6-0.3,6.6c-0.1,0.8-0.2,1.6-0.4,2.4l-0.1,0.5c0,0,7.5-0.6,10.8-0.8
	c0.5,0,1-0.1,1.5-0.1l0.2,0v-1.1c-1.4-0.1-2.6-0.8-3.7-1.5l-0.2-0.1c-0.6-0.3-1-0.8-1.2-1.3c-0.5-1.1-1-2.4-1.3-3.7
	c-0.5-2.1-0.6-4.3-0.7-6.4C400.7,82.2,399.2,84,397.7,85.9z M635.9,91.8c-0.2-0.3-0.4-0.6-0.7-0.9c0,0.2,0,0.8,0,0.9
	C635.5,91.7,635.7,91.8,635.9,91.8z M598.9,86.5v-6.9c-0.1,0-0.3,0-0.4,0c-0.2,0-0.3,0-0.5,0c-0.4,0.1-0.9,0.1-1.3,0.1
	c-0.7,0-1.4-0.1-2.3-0.3c-0.6-0.1-1.2-0.2-1.9-0.2c-0.3,0-0.5,0-0.8,0l0.5,6.9L598.9,86.5z M605.9,84.1c0,0.7,0.2,0.9,0.5,1.1
	c0.5,0.4,1,0.8,1.4,1.2c0,0,0,0,0,0c0,0,0,0,0,0c0.5-0.6,0.7-1.2,0.7-1.8c-0.1-0.8-0.6-1.5-1.3-2c0,0-0.1,0-0.2,0
	c-0.3,0-0.6,0.2-0.8,0.5c-0.1,0.3-0.2,0.6-0.2,0.8C605.9,84,605.9,84.1,605.9,84.1z M429.6,85.5c3.8,0,7.2,0.2,10.5,0.7
	c0.3,0,0.6,0.1,0.8,0.1c0.1,0,0.5,0,0.5,0c0-3.2,0-6.6-0.2-10c-0.1,0.1-0.2,0.3-0.3,0.5l-0.8,1.8c-1.1,2.3-2.9,4.1-5.5,5.1
	c-0.4,0.2-0.8,0.2-1.3,0.2c-0.2,0-0.5,0-0.8,0l-0.3,0c-3.4-0.2-4.7-2.7-5.5-4.8c-0.3-0.7-0.4-1.5-0.6-2.2l-0.1-0.5
	c-0.1-0.6-0.3-1.1-0.7-1.5c-0.6,0.3-1,0.7-1.3,1.2c-0.5,0.8-1.2,1.5-1.8,2.1c-0.3,0.3-0.3,0.4-0.3,0.5c0.1,1.5,0.1,3.1,0.1,4.6
	l0.1,2.4c0.2,0,1.1,0,1.4,0c0.3,0,0.7,0,1,0C426.3,85.5,428,85.5,429.6,85.5z M410.8,77.4c-0.7,0.9-1,1.8-1.1,2.9
	c0,1.8,0.5,2.8,1.9,3.3c0.4,0.2,0.8,0.4,1.1,0.6c0.1,0,0.2,0.1,0.2,0.1c1.1-0.4,1.6-1.5,2.1-2.6c0.3-0.6,0-1.2-1-2
	c-0.8-0.6-1.6-1.2-2.5-1.8C411.3,77.8,411,77.6,410.8,77.4z M425.3,69.9c1.9,0,3.7,0.9,4.8,2.6c0.8,1.1,1.2,2.2,1.5,3.6
	c0.2,1,0.5,2,0.9,3.1c0.1,0.3,0.2,0.4,0.4,0.4c0.1,0,0.3-0.1,0.5-0.3c0.4-0.5,0.7-1,1.1-1.7c0.4-0.7,0.7-1.5,1-2.2l0.4-0.9
	c0.9-2,2.4-3.3,4.5-4c0.1,0,0.3-0.1,0.4-0.1v-4.5l-19.7,1.4l0.2,3.9l1.1-0.6C423.4,70.1,424.3,69.9,425.3,69.9z M605.9,75.9
	c-0.2,0.7-0.1,1.5,0.2,2.4c0.1,0.4,0.3,0.4,0.5,0.4c0.1,0,0.3,0,0.4-0.1c0.4-0.1,0.7-0.4,0.9-0.8c0.2-0.4,0.2-0.8,0-1.1
	c-0.1-0.3-0.3-0.5-0.5-0.8c0,0,0-0.1-0.1-0.1H605.9z M592,74.6c0.1,0,0.2,0,0.3,0c0.5,0,1-0.1,1.5-0.1c0.5-0.1,1.1-0.1,1.7-0.1
	l0.2,0c0.6,0,1.1,0,1.7,0l2.1,0c-0.4-3.1-0.5-6-0.3-8.8c-0.3,0-0.5,0-0.7,0c-0.8,0.1-1.6,0.1-2.4,0.1c-0.2,0-0.4,0-0.6,0
	c-1,0-1.9-0.2-2.9-0.3c-0.2,0-0.5-0.1-0.7-0.1c0,0.4,0,0.8,0,1.1C592.3,69,592.4,71.7,592,74.6z M409.3,72c0.2,0.2,0.4,0.3,0.6,0.5
	c0.8,0.6,1.5,0.9,2.1,0.9c0.5,0,0.9-0.2,1.4-0.5c1.3-0.9,2-2.8,1.6-4.2c-0.2-0.5-0.4-1-0.7-1.4C412.6,68.8,410.9,70.4,409.3,72z
	 M507.4,62.6c0.8,0,1.7,0.2,2.5,0.6l0.2,0.1c0.9,0.4,1.8,0.8,2.6,1.4c1.5,1,2.4,2.5,2.8,4.4c0.2,1,0.7,1.9,1.6,2.9
	c0.2,0.2,0.6,0.5,1,0.5c0.9,0,1.7-0.2,2.5-0.3c0.1,0,0.2-0.1,0.2-0.1c0.1-0.2,0.3-0.5,0.4-0.7c0.4-0.8,0.9-1.5,1.2-2.3
	c0.5-1.4,1-2.9,1.5-4.3c0.2-0.6,0.4-1.1,0.5-1.7c0.1-0.2,0.1-0.4,0.2-0.7c-1.3-0.3-2.6-0.6-4.1-0.8l-0.4,0c-1.5-0.2-3-0.3-4.5-1
	c-0.8-0.3-1.7-0.5-2.6-0.6l-0.6-0.1c-1-0.2-2.1-0.3-3.1-0.5c-0.6-0.1-1.3-0.2-1.9-0.3c-0.5-0.1-1-0.2-1.5-0.3
	c-0.9-0.3-1.9-0.4-2.9-0.4c-0.4,0-0.8,0-1.1,0.1c-0.2,0-0.4,0-0.6,0c-0.1,0-0.3,0-0.4,0c-0.1,0-0.2,0-0.2,0c-0.5,0-0.8,0.3-0.9,0.6
	c-0.5,1.3-1.1,2.8-1.5,4.3c-0.1,0.5-0.1,1.2,0,1.8c0,0.2,0,0.5,0.1,0.7c0,0.2,0,0.4,0.1,0.6c0,0.2,0.1,0.5,0.1,0.7
	c0,0.4,0.2,0.6,0.6,0.7c0.4,0.1,0.9,0.2,1.6,0.2c0,0,0,0,0-0.1c0.1-0.2,0.2-0.4,0.4-0.7l0.1-0.3c0.8-1.6,2-2.8,3.6-3.7
	C505.5,62.8,506.4,62.6,507.4,62.6z M606.9,70c0,0,0.1,0.1,0.2,0.1c0.2,0.2,0.4,0.3,0.6,0.5l0.9-0.8c0.5-0.4,0.5-0.5,0.3-1.1
	c-0.3-0.7-0.8-1-1.6-1.1C606.9,68.4,606.9,69.1,606.9,70C606.9,70,606.9,70,606.9,70z"/>
<path class="st1" d="M7.1,180.5l0-4c0-0.8-0.2-19.9,5.8-45.4c5.5-23.6,17.5-57.3,43.4-83.6C84,19.2,122.1,4.7,169.3,4.5l1,0
	c37,0,68.7,9,94.2,26.7c20.6,14.3,37.3,34.2,49.4,59.3c20.6,42.4,21.2,84.2,21.2,85.9l0,4.1H7.1z M326.9,172.3
	c-0.4-6.1-1.5-18-4.7-32.7l-97-5.6l-3.6,5l29.6,1.4l-0.4,8.1l-37.5-1.7l-3-6.1l5.1-7.1l-10-0.6l-23.3,39.5H326.9z M172.2,172.3
	l-4.1-42.1l-1.8-0.9l-21.4-26l-14.1,69H172.2z M122.5,172.3l15.8-77.1l-4.2-5.1l-31,13l9.8,69.2H122.5z M97.1,172.3l-77.3-34.7
	c-3.3,15.6-4.2,28.2-4.5,34.7H97.1z M103.8,166.4l-8.5-60l-64.8,27.2L103.8,166.4z M179.3,161.5l17.2-29.1l-20.2-1.2L179.3,161.5z
	 M306.8,130.6l-55.6-32.8l-20.4,28.4L306.8,130.6z M319.5,128.7c-3.4-12.5-7.7-24.2-12.9-34.9c-11.4-23.3-26.6-41.9-45.3-55.2
	l-51,86.4l10.9,0.6l25.7-35.7l5.1-1.1L319.5,128.7z M85.1,34.6C76.7,39.8,68.9,46.1,62,53.2c-18.7,19-32.2,44.3-40.1,75.2l72.2-30.3
	L85.1,34.6z M201.1,124.5l49-83l-79.4,33.3l4.7,48.2L201.1,124.5z M166.8,117.2L162.9,78l-14,5.9l-1.9,9.2L166.8,117.2z M101.9,94.8
	l26.8-11.3L94.3,41.8L101.9,94.8z M136.5,80.3l5.3-2.2l13.3-64.9c-22.6,1.6-43,7-60.5,16L136.5,80.3z M151.5,58.8
	c0.3,0.4,1.1,1.2,1.9,1.9l0.2,0.2l-2.7,13.4l11.2-4.7l-0.8-8l0.6,0c1.3,0,2.2-0.1,2.2-0.1l0.1,0l5.5,2.7l0.2,2.1l2.2-0.9l3.4,1.7
	l2.2-4l73.4-30.8c-22.4-13-49.7-19.5-80.9-19.5l-0.9,0c-1.6,0-3.1,0-4.7,0.1l3.5,35.8l-8.3-1.1l-1.1-11.7L156.5,47l-2.5-0.3
	l-2.5,5.9V58.8z"/>
</svg>
