<svg id="Слой_1" data-name="Слой 1" xmlns="http://www.w3.org/2000/svg" viewBox="0 0 500 1000"><title>Flags light bulbs</title><path d="M491.02478,319.74634V146.70288a37.08065,37.08065,0,0,0-37.08057-37.08081H323.13147V28.25049A25.75039,25.75039,0,0,0,297.381,2.5H202.619a25.75039,25.75039,0,0,0-25.75049,25.75049v81.37158H46.056A37.08071,37.08071,0,0,0,8.97522,146.70288V319.74634a37.083,37.083,0,0,0,30.61694,36.50757C20.10168,408.79395,8.97522,472.00366,8.97522,544.291c0,225.27026,185.40381,453.209,241.0249,453.209,51.501,0,241.02466-227.93872,241.02466-453.209,0-72.28735-11.12646-135.49707-30.6167-188.03711A37.083,37.083,0,0,0,491.02478,319.74634ZM362.45142,821.68872a14.323,14.323,0,0,1-1.36023-6.07764,13.77425,13.77425,0,0,1,13.13623-14.16052c-4.12451,7.36865-8.08008,14.12848-11.75439,20.20276Zm-225.6991,1.1189c-3.83887-6.39-7.988-13.546-12.31616-21.37543A13.82469,13.82469,0,0,1,138.912,815.61273a14.35553,14.35553,0,0,1-2.04346,7.38544C136.83,822.93439,136.79065,822.8714,136.75232,822.80762Zm43.37756-132.33521-42.9635,27.02924-6.98682-34.92157Zm-62.71252-29.99664-26.75-23.51129,44.8894-23.69293ZM138.287,542.3515l25.85742,14.92865.01709.01093,25.58105,14.769-33.55029,16.88452Zm51.45691,82.91815-51.45618,29.70862,17.90454-46.59363Zm-44.36926-95.19421,49.30347-7.79077,2.15308,37.49878Zm34.75452-23.21808-49.95081,7.89307,6.98657-34.92212Zm-39.28821-45.403,7.70483-38.513L185.75134,435.525l2.10754,55.50873Zm-5.28442,122.604-44.8894-23.69293,26.74951-23.51129Zm-3.65161-189.94086a14.50445,14.50445,0,0,1-19.55713-19.96686,14.088,14.088,0,0,1,12.043-6.95294,14.5044,14.5044,0,0,1,7.51416,26.9198Zm-51.406-35.58276,20.70874,3.09192a30.67633,30.67633,0,0,0,23.18311,50.776,30.93364,30.93364,0,0,0,4.2146-.29529l-16.05273,80.23791L97.62415,412.71417a8.75473,8.75473,0,1,0-17.20972,3.226L96.52429,501.872,75.44324,489.701,60.371,433.45178a418.16518,418.16518,0,0,1,17.66162-62.93811A40.79737,40.79737,0,0,0,80.4989,358.53479ZM53.99866,477.32025l-.39429-.22772c.033-.29541.06152-.59406.09521-.88916Zm14.35767,24.65668,21.08081,12.1709L50.202,527.95087q.2688-10.79956.884-21.3465Zm20.84521,30.8147-38.56763,33.899q-.579-9.99811-.64233-20.1048ZM76.59265,572.73608l49.126,25.929-49.126,25.929L54.69739,605.34955q-.89465-5.93527-1.63745-11.9295ZM89.203,664.53882l-23.99463-8.44128q-2.0885-7.97433-3.95044-16.12042Zm.23389,18.644-13.78516,7.95892Q73.27722,684.02313,71.049,676.714Zm7.08789,12.27527-6.457,34.44452Q85.08,717.73953,80.38538,704.77637Zm16.02881,9.52582,16.05322,80.23883a30.50664,30.50664,0,0,0-12.42725.82544c-4.48657-8.61444-9.07373-17.85608-13.63818-27.65674Zm75.30627,1.31207-2.10742,55.50891-37.205,12.58392-7.70532-38.51318Zm-42.48547-39.04132,25.86157-14.9314.01392-.00684,25.58154-14.7699-2.15283,37.4986Zm30.45337-68.58972,32.05493-16.132,24.8125,14.325,3.12915,1.8067L207.88269,614.797Zm67.0835-95.02557.00024,29.53882-31.39771-20.61334,31.39868-38.80341V503.6145Zm.001,108.46057-.00024,31.105-29.99768,19.69476,2.057-35.82654L242.912,610.94092Zm-.00024-25.712-27.94116-16.13159-2.05688-35.8266L242.9115,554.124Zm-37.48437-94.13715-1.9259-50.72223,33.73657,11.41034Zm.00085,212.82813,31.81116,39.31134-33.73694,11.41095Zm6.0863-20.31445L242.912,664.15088v29.53864l.001.01862.00024,29.85822Zm31.39807-335.09888v18.58478L224.16272,349.5h18.001C242.41418,349.55328,242.66052,349.61737,242.91284,349.66559ZM275.83728,349.5,257.087,368.25037V349.66559c.25232-.04822.49878-.1123.74927-.16559Zm-4.99146,535.006c.00024,11.25256-9.1853,19.50415-19.25488,20.54254a19.8023,19.8023,0,0,1-13.97119-3.78967A20.8391,20.8391,0,1,1,270.84583,884.506ZM288.48547,512.5636l-31.39795,20.61432-.00024-59.41669ZM262.7616,452.9389l33.73706-11.41046-1.92627,50.72278Zm-5.67407,101.18494,29.999-19.69574-2.057,35.82745L257.08777,586.388Zm27.942,72.9494,2.0575,35.82648-29.99927-19.69489V610.941ZM257.08777,665.8421v-1.69159l31.39954,20.6142L257.088,723.56818Zm37.4856,39.23517,1.92676,50.72351-33.738-11.41064Zm-2.4563-90.28113L266.24377,599.8584l-2.06824-1.19409,27.94128-16.1319,32.05518,16.1311ZM421.96765,370.51367a418.14461,418.14461,0,0,1,17.66016,62.93066l-15.07324,56.25452-21.08,12.17078,16.1084-85.93152a8.75467,8.75467,0,1,0-17.20959-3.226l-14.92786,79.63367L371.39124,412.107a30.65562,30.65562,0,0,0,34.90344-30.38971,30.55718,30.55718,0,0,0-7.50439-20.0929l20.71106-3.09259A40.79663,40.79663,0,0,0,421.96765,370.51367Zm24.03223,106.80341.3-1.11975c.03345.29584.06226.59521.09534.89142Zm2.91382,29.28455q.62585,10.53836.884,21.347L410.5614,514.14545l21.08081-12.17139ZM343.80847,608.38336,361.714,654.977l-51.45728-29.70825Zm-.001-19.43951-33.55127-16.88428,25.58154-14.76965.01855-.012L361.712,542.34955Zm20.63574,24.326,44.89,23.69263-26.74963,23.51166Zm5.37915,69.30786L362.83606,717.501,319.871,690.47131Zm39.51025-122.21423-44.889,23.69379,18.13916-47.20459Zm-27.36743-191.551a2.65346,2.65346,0,0,1,1.1073.63916,3.32874,3.32874,0,0,0,.62927.28729,13.59347,13.59347,0,1,1-2.31592-1.33545A3.34067,3.34067,0,0,0,381.96521,368.8125Zm-19.132,111.01422,6.98718,34.92139L319.87012,506.856Zm-50.693,11.20514,2.10791-55.50671,37.20361-12.583,7.70508,38.51038Zm42.48462,39.04187-38.77234,22.38586-12.68408,7.32324,2.153-37.499ZM328.75061,652.31555l.01929.00958,25.85632,14.92767-49.3042,7.79126L303.1687,637.5459Zm30.40967,83.559-7.70435,38.51294L314.24963,761.804l-2.10852-55.50964Zm16.45032,49.051a30.92743,30.92743,0,0,0-4.21484.29535l16.052-80.23993,9.71973,51.84454c-4.82654,10.27942-9.681,19.95667-14.41834,28.943A30.63838,30.63838,0,0,0,375.6106,784.9256Zm27.86584-89.47,15.5885,8.99976q-4.53717,12.37564-9.3905,24.05933Zm7.08789-12.27533,17.8374-6.27539q-2.196,7.06338-4.53735,13.954Zm.23462-18.64435L438.38,640.29321q-1.88049,8.05435-3.99866,15.94617Zm12.60864-39.94415-49.12646-25.92859,49.12549-25.92981L446.86145,593.348q-.76813,6.09448-1.70752,12.12994Zm-12.61084-91.80261,39.21118,13.79425q-.06335,10.0881-.66125,20.08783ZM380.18054,349.5l.70422,1.7868a30.67605,30.67605,0,0,0-32.3844,45.46478,30.926,30.926,0,0,0,2.36475,3.50446L273.35168,426.4726,334.85083,373.728a8.75486,8.75486,0,1,0-11.39929-13.29083l-66.36426,56.917V393.01312L300.59973,349.5ZM249.83337,40.5a23,23,0,1,1-23,23A22.99989,22.99989,0,0,1,249.83337,40.5Zm-50.43311,309,43.51245,43.51312-.00024,24.34106-66.36414-56.917A8.75462,8.75462,0,0,0,165.14978,373.728l61.49878,52.74463-77.51514-26.2171a30.65585,30.65585,0,0,0-8.8689-45.41949,30.5558,30.5558,0,0,0-21.15039-3.54791l.70459-1.78815ZM146.19055,838.03857a30.64734,30.64734,0,0,0,2.94434-40.96417l77.51636-26.21851-61.49976,52.74615a8.75437,8.75437,0,1,0,11.3988,13.29l66.36353-56.91724.00024,24.34174-50.79712,50.79816A8.75489,8.75489,0,0,0,204.49817,867.496l38.416-38.41693.00012,18.58459a37.52478,37.52478,0,0,0-4.03186,72.68671c-.94934,8.62537-3.16675,16.0777-6.62634,22.21185-2.99182-2.51959-6.2655-5.42725-9.81738-8.77875a22.62828,22.62828,0,0,0-15.42-20.65961,23.7833,23.7833,0,0,0-5.60754-1.14417C182.78589,891.06244,163.69055,865.48865,146.19055,838.03857ZM296.566,912.20795a23.44242,23.44242,0,0,0-3.58.90027,22.73773,22.73773,0,0,0-15.318,18.9436c-3.77161,3.66046-7.24292,6.83954-10.40381,9.58722a58.71009,58.71009,0,0,1-6.14221-21.2887,37.5248,37.5248,0,0,0-4.03333-72.68683l-.00012-18.58484L295.50525,867.496a8.75493,8.75493,0,1,0,12.38135-12.38135l-50.7981-50.799-.00024-24.34064,66.365,56.91693a8.75516,8.75516,0,1,0,11.39929-13.29163l-61.49939-52.74408L350.868,797.07288A30.6538,30.6538,0,0,0,352.85,837.08075C335.03674,864.85089,315.55237,890.869,296.566,912.20795Z"/></svg>