<svg id="Слой_1" data-name="Слой 1" xmlns="http://www.w3.org/2000/svg" viewBox="0 0 500 1000"><title>Flags light bulbs</title><path d="M491.02478,319.74634V146.70288a37.08065,37.08065,0,0,0-37.08057-37.08081H323.13147V28.25049A25.75039,25.75039,0,0,0,297.381,2.5H202.619a25.75039,25.75039,0,0,0-25.75049,25.75049v81.37158H46.056A37.08071,37.08071,0,0,0,8.97522,146.70288V319.74634a37.083,37.083,0,0,0,30.61694,36.50757C20.10168,408.79395,8.97522,472.00366,8.97522,544.291c0,225.27026,185.40381,453.209,241.0249,453.209,51.501,0,241.02466-227.93872,241.02466-453.209,0-72.28735-11.12646-135.49707-30.6167-188.03711A37.083,37.083,0,0,0,491.02478,319.74634Zm-137.179-156.73291c4.821-3.43579,10.88672-7.76465,13.16211-12.39136h61.04834c-.09961.05164-.2041.09192-.30151.14783l-58.05835,33.34216a7.24663,7.24663,0,0,0-.813.58545l-.677.53076H325.98425l23.5105-18.99817C350.70911,165.24854,352.23279,164.1626,353.84583,163.01343ZM334.328,158.1499l-33.50928,27.07837H268.95593l22.53125-22.53076ZM268.95618,201.042h31.86255l33.51074,27.07971-42.8396-4.54553Zm15.89648,76.5564-27.07959-33.51025V212.22461L280.307,234.75952ZM280.308,151.51l-22.53491,22.53491V150.62207H280.403ZM249.83337,40.5a23,23,0,1,1-23,23A22.99989,22.99989,0,0,1,249.83337,40.5Zm-7.874,110.12207v23.42285l-21.9751-21.97473-.15967-1.44812ZM219.98376,234.2002l21.97559-21.97473v31.86316l-26.68823,33.06726Zm-11.18188-11.18335-42.35815,4.6748L199.70325,201.042h31.073Zm.00269-59.75989,21.97168,21.97131h-31.075l-33.259-26.647Zm-75.1665-12.63489c4.03345,8.49487,19.4519,19.16406,28.61694,25.50073,3.09521,2.1394,5.76855,3.98755,7.48755,5.365l4.66919,3.74048H132.31189l-.67627-.53015a7.25352,7.25352,0,0,0-.8125-.58533L72.76331,150.7699c-.09717-.056-.20166-.09619-.30078-.14783ZM83.7887,713.97986l6.95215-4.98364-4.51294,11.329Q84.99707,717.18018,83.7887,713.97986Zm4.30176,11.04846.27344-.15381,12.66553,2.13477L90.70935,731.457Q89.39209,728.2688,88.09045,725.02832Zm14.31519,33.05981c1.04321,2.24231,2.08716,4.46558,3.13135,6.64941C104.4928,762.55383,103.44885,760.3302,102.40564,758.08813ZM295.64758,687.392a14.71816,14.71816,0,0,1-8.10229-4.12805,11.44248,11.44248,0,0,1-3.13354-5.75464,9.36866,9.36866,0,0,1,4.06738-9.35425,9.04022,9.04022,0,0,1,8.62256-.65747A14.63321,14.63321,0,0,1,303.889,673.767a11.8536,11.8536,0,0,1,1.342,6.90442,7.61055,7.61055,0,0,1-.25293,1.152C303.87781,685.43091,299.28748,687.973,295.64758,687.392Zm-11.20752-61.22961a6.69134,6.69134,0,0,1-2.59741,3.43359,18.9918,18.9918,0,0,1-7.93677,3.16577,27.916,27.916,0,0,1-10.63306.07031,15.82156,15.82156,0,0,1-5.88794-2.58374,31.92792,31.92792,0,0,1-4.38477-4.49023,36.046,36.046,0,0,1-8.259-14.82263c-.55151-2.007,1.30493-2.28967,2.5498-1.06519a6.22723,6.22723,0,0,1,1.21924,2.13208,52.41932,52.41932,0,0,0,7.44312,12.5719,16.42,16.42,0,0,0,3.29834,3.30322c1.70776,1.1947,4.06982,1.56836,6.08081,1.955a21.68566,21.68566,0,0,0,5.83374.44922,16.843,16.843,0,0,0,10.875-5.171c.57324-.61548,1.64795-1.73608,2.333-.54346a1.40353,1.40353,0,0,1,.158.42737A2.52554,2.52554,0,0,1,284.44006,626.16235Zm-31.12622-49.06274c-.32568,4.06934-5.54687,6.8335-9.09546,4.81445-3.54834-2.019-3.83984-7.91943-.50781-10.27881l1.38892-.73486C248.92371,569.47119,253.63928,573.02979,253.31384,577.09961Zm76.39771,224.58154a8.99978,8.99978,0,0,1-2.60767,5.71094c-3.25366,3.04187-8.81079,2.44287-12.29663.12964-3.51025-2.32922-6.66333-8.04419-4.71-12.26,2.74731-5.92615,10.58057-9.35657,15.91626-4.53662C328.649,793.10584,330.14636,797.65845,329.71155,801.68115Zm-.62109-58.71277c-1.33008,4.17957-6.50635,5.23425-10.32715,4.41577-4.00293-.85754-8.04907-3.94727-8.74683-8.17542-1.14331-6.92871,6.01245-11.8916,12.38867-10.51672q.219.04724.44214.10974c4.45239,1.252,6.562,5.71021,6.67163,10.03247A12.56246,12.56246,0,0,1,329.09045,742.96838ZM314.02991,605.51587c-2.92676.13037-5.84473.35022-8.76416.549-2.55908.17419-5.11914.33228-7.6875.39978q-8.61987.22632-17.24072-.14661c-5.31226-.2312-10.792-1.98755-12.30127-8.045-1.15063-4.6189,1.1748-9.24316,4.64673-12.02661a13.41932,13.41932,0,0,1,8.94263-2.56445c9.7688.23975,19.34619,2.06348,28.96069,3.71533,6.38062,1.09619,12.75854,2.22729,19.08276,3.64233,3.16113.707,6.30835,1.48474,9.42993,2.36426a55.58634,55.58634,0,0,1,5.94067,1.87817c1.75049.71167,4.12793,1.40283,5.231,3.10046.6167.949.21436,1.40442-.71338,1.734-5.5022,1.95447-11.29736,2.79614-17.0293,3.6405A182.83739,182.83739,0,0,1,314.02991,605.51587Zm-26.16479-37.04712.38916-.62769a4.59659,4.59659,0,0,1,4.384-2.23657c3.12256.38318,6.04077,3.20068,4.72485,6.94287a5.70043,5.70043,0,0,1-2.30273,2.87122C290.0343,578.64612,285.56213,572.313,287.86511,568.46875Zm49.09912-26.59363c-1.00562.56982-3.658-1.54919-4.54541-2.00659a149.41028,149.41028,0,0,0-54.12915-15.99878q-4.2887-.39532-8.59692-.50891c-3.58765-.09375-7.20728-.10388-10.78955.139a110.89371,110.89371,0,0,0-18.2522,2.4071q-1.01953.22614-2.03516.47107-3.43909.82928-6.82617,1.85925a125.96752,125.96752,0,0,0-34.8877,16.58521,51.57711,51.57711,0,0,0-5.13159,3.75806,17.4581,17.4581,0,0,1-4.406,3.35815c.0271-2.094,1.80273-3.696,3.46436-4.97095a124.19937,124.19937,0,0,1,47.7915-22.37756c8.301-1.89734,16.5603-2.43494,24.99585-3.17371,18.85156-1.65088,38.78467,3.87488,56.07446,10.93945q4.50549,1.84058,8.97339,3.77161c2.70239,1.1615,5.66968,2.21643,7.83228,4.28528C336.839,540.741,337.67517,541.46045,336.96423,541.87512ZM319.278,490.96655a19.76037,19.76037,0,0,1-3.01929-.8468c-2.40942-.69128-4.80933-1.41467-7.218-2.10828a137.24086,137.24086,0,0,0-14.15918-3.16333c-3.24683-.57471-6.44116-.73877-9.8584-1.31543-4.9729-.84082-10.28809-.68872-15.31494-.66992a145.09265,145.09265,0,0,0-27.84546,2.44958q-5.06873.81189-10.0896,1.89221c-2.8252.60791-6.24829,2.14111-9.11914,2.14111a5.69278,5.69278,0,0,0-.86255.18408c-4.7312,2.0498-10.04736,2.98511-14.938,4.63647q-6.29919,2.12714-12.43188,4.709c-.82764.34863-7.10693,3.98315-7.85278,2.85449a.26457.26457,0,0,1-.03857-.0979c-.28687-1.53735,5.61914-3.70947,6.56445-4.118q4.88306-2.11084,9.87842-3.94836a205.57374,205.57374,0,0,1,57.44653-12.1239,153.78585,153.78585,0,0,1,22.22852-.21179,153.34253,153.34253,0,0,1,28.22437,5.48047,50.50236,50.50236,0,0,1,7.78979,2.676C319.849,489.9353,321.95081,491.269,319.278,490.96655ZM211.76038,639.92871c1.17334.59326,2.3623,1.14941,3.55811,1.6853-12.594,1.77-23.85107,6.4165-32.47778,16.15784-2.5188,2.84412-4.89917,6.12781-8.47046,7.42334-2.84082,1.03052-5.96729.61792-8.98682.4989-.10181-.004-.2041-.00269-.30591-.00586-.15088-.37378-.30688-.759-.47461-1.17114-.85718-2.10718-10.41113-25.19019-10.34937-25.21753,12.27759-5.49536,22.16113-16.48315,28.92432-28.0946q.55664,1.30939,1.18677,2.589C190.057,625.30566,200.298,634.13721,211.76038,639.92871Zm238.2644-323.33887a41.00121,41.00121,0,0,0-28.05713,53.92383c.96631,2.60474,1.89282,5.24524,2.80933,7.89429-3.23315,6.802-1.98584,30.39038-1.98584,30.39038l-14.57446-18.50708-.00146-.49a3.95605,3.95605,0,0,0-.02368-.54687l-5.4397-37.06616a4.42387,4.42387,0,1,0-8.75415,1.28345L397.382,376.5332l-11.41357-14.49353a4.42475,4.42475,0,0,0-6.95239,5.47522L390.43079,382.009l-21.62744-8.698a4.38737,4.38737,0,0,0-1.12744-.29,4.42508,4.42508,0,0,0-2.17187,8.49988l34.75928,13.97937a4.31343,4.31343,0,0,0,.62256.19458l.39722.09509,14.5564,18.48438s-18.70654-5.43066-23.70093-6.02441c-4.56128-.54236-7.384.05151-8.38867,1.76453-2.69653,4.597,8.25049,14.261,14.13184,19.45288,1.57837,1.39319,2.94165,2.59668,3.80591,3.47546l2.34717,2.38684-23.39185-2.78076-.34058-.33911a4.0772,4.0772,0,0,0-.41309-.37915l-30.05713-22.36108a4.4243,4.4243,0,1,0-5.28076,7.1001l18.7,13.91187L344.932,428.30371a4.42418,4.42418,0,1,0-1.04443,8.7865l18.31909,2.17786-21.43994,9.14014a4.42436,4.42436,0,1,0,3.469,8.14038l34.46118-14.691a4.04146,4.04146,0,0,0,.4873-.27l.41431-.25208,23.39063,2.78064-2.84082,1.7699c-1.054.65674-2.675,1.51343-4.55225,2.50586-6.8645,3.62842-19.64185,10.38184-18.31982,15.42017.32739,1.2478,1.25806,2.96558,5.54,3.47461,2.21069.26282,26.15918.96423,27.17847.16162l-3.09644,1.97632-15.87573,12.50256-.48828.00134a4.03656,4.03656,0,0,0-.54956.02417l-37.06616,5.44092a4.42413,4.42413,0,1,0,1.28369,8.75464l23.06055-3.38525L362.77063,504.176a4.42457,4.42457,0,0,0,5.47461,6.95239l14.49316-11.4137-8.69653,21.62488A4.42392,4.42392,0,1,0,382.2511,524.64l13.978-34.75745a4.00954,4.00954,0,0,0,.15161-.527l.11621-.476,18.51563-14.58057s-7.81445,29.93628-4.55737,32.15552a2.98985,2.98985,0,0,0,1.36108.50525c5.03174.598,13.74463-9.19727,18.425-14.45959,1.363-1.53247,2.54-2.856,3.39258-3.68774l2.38159-2.32556-2.78809,23.45142-.34155.34277a4.00812,4.00812,0,0,0-.37671.41052l-22.36108,30.05688a4.42441,4.42441,0,1,0,7.1001,5.28113L431.16,527.32983,429.0343,545.2124a4.42412,4.42412,0,1,0,8.78638,1.04443l2.126-17.88245,9.14014,21.44006a4.39594,4.39594,0,0,0,.86694,1.304c-1.42358,76.66772-26.51147,149.60815-52.50659,205.10962a87.358,87.358,0,0,0-4.63306-19.49658q-.10767-.301-.21777-.60205c-1.053-2.88379-6.354-29.36377-10.53369-28.21289,9.70068-2.67139,20.72168-9.668,21.94873-20.33008.99365-8.63623-1.77734-17.45166-6.63525-24.66113-5.46826-8.11475-14.45386-13.105-24.33887-11.34473a24.77639,24.77639,0,0,0-13.21948,6.69287c-2.7251,2.83154-3.15234,7.80713-8.33789,3.70947-1.86694-1.47607-3.009-3.6543-4.24194-5.68994-.48779-.80566-1.03784-1.57422-1.59326-2.33423a87.82316,87.82316,0,0,0-11.9375-13.32751,32.64239,32.64239,0,0,0-6.96777-5.09778,9.04035,9.04035,0,0,0-3.09326-1.08716c-.71729-.06323-1.5188.42725-1.4978-.43518.01147-.47131.92627-1.11584,1.25293-1.40564q1.30334-1.15778,2.55029-2.37756,2.49573-2.43878,4.75562-5.104a74.12932,74.12932,0,0,0,8.10986-11.65906,71.88626,71.88626,0,0,0,3.8811-8.0791q2.30823-.45117,4.58911-.9458c.938-.21533,1.84717-.46045,2.74463-.71082a15.92522,15.92522,0,0,0,5.4751-2.33472,3.25159,3.25159,0,0,0,1.33325-2.12732c.22241-1.96338-3.31982-3.5708-4.79126-4.31543a31.80437,31.80437,0,0,0-4.12646-1.68457c-.4541-.15186-.9082-.2915-1.36206-.43506a77.45617,77.45617,0,0,0-2.8689-43c.4812-.18408.96216-.36865,1.43726-.56885a15.56649,15.56649,0,0,0,6.31226-4.22852c2.30884-2.87646,2.68652-6.80762,2.84424-10.49316q.32263-7.54468-.05859-15.09863c-.27441-5.43066-.90356-11.08936-3.87378-15.64453-3.02075-4.63232-8.08936-7.522-13.22559-9.57227a69.24248,69.24248,0,0,0-7.679-2.54395c1.08105-10.332-6.27441-25.60693-10.37256-34.2168-5.44043-11.4292-13.22754-21.94238-24.1394-28.65479-5.02148-3.08887-10.53394-5.28955-15.7063-8.12158-19.90747-10.90039-44.00073-13.24512-65.00708-5.25537a13.17871,13.17871,0,0,0,.78491-1.65918,11.99708,11.99708,0,0,0,.77734-4.48779c-.137-6.79736-6.35718-12.40332-13.06494-13.50977-6.70752-1.10645-13.55664,1.45459-19.2207,5.21436-5.33252,3.53955-10.15332,8.57471-11.3064,14.87012a16.38145,16.38145,0,0,0,7.21021,16.40234,15.84448,15.84448,0,0,0,7.75024,2.35205,70.079,70.079,0,0,0-11.70044,23.48389c-3.77539,12.86914-5.73486,28.31982.64136,40.64014l.426-.01416c-15.43042,10.11963-22.19458,31.37891-16.10156,48.73926a18.06584,18.06584,0,0,0,4.36816,7.44922c2.97876,2.7627,7.17725,3.67773,11.15918,4.48486,1.43066.29,2.89453.57715,4.3623.77734-3.85669,9.53955-3.6875,21.03906-2.156,31.49512.35425,2.41919.77734,4.83667,1.28442,7.23389-.43213.06238-.86108.13135-1.2771.20288a75.44828,75.44828,0,0,1-24.70483.115,30.93624,30.93624,0,0,1-9.43506-2.77856c-3.918-2.07056-4.65625-3.31335-1.05078-5.91382a61.07023,61.07023,0,0,0,14.73438-14.85022c2.46973-3.59583,9.15161-12.50989,6.6814-17.23425a3.39222,3.39222,0,0,0-3.35962-1.51611,12.114,12.114,0,0,0-3.68506,1.25415,36.66411,36.66411,0,0,1-40.79468-7.89795c6.51367-2.80127,14.32642-9.71631,16.15137-16.86694,1.28638-5.03955-5.731-5.30676-9.41187-6.56323A105.258,105.258,0,0,1,85.58655,504.2804c-6.29834-5.88623-12.03076-7.91748-13.42187,1.76733-1.35425,9.42908-.6731,19.06152-2.07739,28.50769-1.6543,11.127-3.55859,21.13574-7.20972,31.77563-.4082,1.19067-.81055,2.53247-.262,3.66528.76538,1.58032,2.874,1.84412,4.63013,1.83057,4.68188-.03687,9.11157-.95874,13.72754-1.44775,5.26709-.55762,2.63135,4.24561,1.31372,7.85205a44.57819,44.57819,0,0,1-14.78979,20.13489c-1.30518.98962-2.84033,2.53406-2.07568,3.98279a3.34034,3.34034,0,0,0,2.021,1.34009A81.00512,81.00512,0,0,0,94.611,608.02563c7.624-.09741,1.64819,12.07507-.19116,16.00684-4.86572,10.40112-13.2207,16.88184-22.03638,23.76038-.9856.7688-2.05566,1.6908-2.1355,2.93835A2.96833,2.96833,0,0,0,71.62122,653.23a7.705,7.705,0,0,0,2.76807,1.05188c8.90381,2.0116,18.18848.43127,27.15186-.277a170.555,170.555,0,0,0,22.085-2.90356,31.24662,31.24662,0,0,0,8.04-2.59363c1.02124-.52454,2.77832-2.382,3.89893-2.41394,1.86694-.05322,2.3252,2.46094,3.114,4.126q2.63855,5.56842,5.29761,11.12732,1.88232,3.95453,3.76514,7.90918a27.62794,27.62794,0,0,0-6.60474,4.57214c-11.66772,10.98608-12.25391,36.69141.58472,46.608,4.82813,3.72937,17.46484,8.93982,22.64941,3.44043-9.71533,9.94324-9.79785,27.67493-9.27588,40.63293a127.64976,127.64976,0,0,0,10.873,46.63477c7.19385,16.0144,18.65576,30.46289,33.59863,39.52441-8.67041-1.95825-17.31982-4.02222-26.1792-4.327a48.59508,48.59508,0,0,0-19.67773,3.24219c-5.81372-8.72021-11.49072-17.67664-16.95776-26.77649-9.21313-15.33594-20.20093-35.03833-31.21-58.05859l5.84473,3.47791a2.31259,2.31259,0,1,0,2.3645-3.9751l-11.72144-6.97522c-.458-.98779-.9165-1.968-1.37378-2.967,1.46167.35742,2.44727.194,3.07349-.522,1.33594-1.5271-.02515-3.50537-1.80054-5.74463-.30029-.37878-6.74-9.38892-6.74-9.38892l12.1228,3.39087.15259.2085a2.20228,2.20228,0,0,0,.18481.23157l13.9917,14.23584a2.35753,2.35753,0,1,0,3.36255-3.3053l-8.70483-8.85669,9.24023,2.58459a2.35737,2.35737,0,0,0,1.27026-4.54041l-9.241-2.58472,12.03711-3.05469a2.35739,2.35739,0,0,0-1.15918-4.57007l-19.34717,4.91016a2.182,2.182,0,0,0-.28027.10278l-.23706.09814-12.12256-3.39087,8.27612-3.56653c.42725-.1842.95215-.37378,1.50732-.5741,2.36133-.85229,5.59521-2.01965,5.39307-4.17773-.104-1.10693-1.41675-2.02087-3.90283-2.71606-2.59692-.72656-12.83154-1.88428-12.83154-1.88428l10.95728-6.16724.21436.0332a2.382,2.382,0,0,0,.34766.03113l19.96069.17322a2.35721,2.35721,0,1,0,.04126-4.71423l-12.41895-.10779,8.36157-4.70642a2.35746,2.35746,0,1,0-2.31226-4.109l-8.36206,4.70654,6.35132-10.67273a2.35719,2.35719,0,1,0-4.05151-2.41052l-10.20825,17.15356a2.1179,2.1179,0,0,0-.12354.26636l-.09985.24011-10.96582,6.172s6.46021-14.95386,4.916-16.38672a1.60208,1.60208,0,0,0-.67358-.37451c-2.61646-.73181-8.04858,3.76929-10.9668,6.18726-.856.709-1.595,1.32153-2.12256,1.69946l-1.448,1.03845,3.37793-12.07727.17578-.12817a2.37677,2.37677,0,0,0,.26855-.22485l14.23584-13.9917a2.3574,2.3574,0,1,0-3.30518-3.3623l-8.85693,8.70483,2.64795-9.46631a2.35728,2.35728,0,0,0-4.54028-1.27l-2.64771,9.46631-3.05518-12.03662a2.35728,2.35728,0,1,0-4.56982,1.15918l4.91016,19.34729a2.36689,2.36689,0,0,0,.11279.33191l.08374.20068-1.72461,6.16553C62.65247,654.905,49.975,600.61719,49.975,544.291c0-65.123,9.43994-123.58984,28.05762-173.77734A41.001,41.001,0,0,0,49.975,316.58984V150.62207H65.1991a7.88061,7.88061,0,0,0-.30933,13.86255l36.12134,20.74365H68.04065a7.90686,7.90686,0,0,0,0,15.81372h32.97046L64.88977,221.78625A7.90712,7.90712,0,1,0,72.76355,235.501l58.05835-33.342a7.2712,7.2712,0,0,0,.80811-.582l.68188-.53491h42.0979l-4.66895,3.7406c-1.73145,1.3877-4.42773,3.25012-7.5498,5.40723-11.417,7.88745-32.66772,22.56848-29.2583,31.23083.84424,2.14551,2.85815,4.99768,10.56494,4.99768,3.97827,0,46.62744-3.8075,48.26685-5.4469l-5.07812,4.1604-25.53687,25.53735-.86621.10547a7.10893,7.10893,0,0,0-.97021.15869L94.6803,288.40894a7.90672,7.90672,0,1,0,4.12524,15.26587l40.21069-10.8728L115.705,316.11389a7.90761,7.90761,0,0,0,11.18262,11.18347l23.313-23.31348L139.329,344.1958a7.90651,7.90651,0,1,0,15.26538,4.12549L172.068,283.689a7.11749,7.11749,0,0,0,.15747-.967l.1062-.86926,29.78345-29.7821s-7.55249,54.77588-1.30444,58.02734a5.34108,5.34108,0,0,0,2.52246.60938c9.05615,0,22.45142-19.22192,29.64819-29.5481,2.09521-3.00732,3.905-5.60437,5.24194-7.26025l3.73608-4.62964v42.20679l-.53394.68066a7.12224,7.12224,0,0,0-.58179.80762L207.5011,371.02319a7.90708,7.90708,0,1,0,13.71436,7.87427l20.7439-36.12085v32.18408a7.90686,7.90686,0,1,0,15.81372,0V342.77661l20.74414,36.12085a7.9069,7.9069,0,1,0,13.71436-7.87354l-33.343-58.0603a7.23993,7.23993,0,0,0-.58179-.80774l-.53369-.67981V269.25342s32.186,42.01465,38.06079,42.01465a5.98232,5.98232,0,0,0,.87109-.06421,7.97534,7.97534,0,0,0,6.698-7.52356l.00391-.09851a7.658,7.658,0,0,0-.00171-.93555c-.0061-.0603-.00928-.11963-.01025-.17859l-5.29663-49.91711,29.8562,29.85681.10547.86584a7.12406,7.12406,0,0,0,.1582.97119l17.47607,64.63306a7.90633,7.90633,0,1,0,15.26514-4.125l-10.87329-40.21362,22.7583,22.75854a7.90787,7.90787,0,1,0,11.18335-11.18347l-22.75635-22.75647L401.484,304.22876a7.9065,7.9065,0,1,0,4.12451-15.26562L340.972,271.48853a7.19092,7.19092,0,0,0-.96777-.158l-.865-.10522-29.85791-29.85815s43.55981,5.33911,47.51465,5.33911c5.66235,0,8.98291-1.42883,10.44946-4.49634,2.93555-6.14062-3.2478-11.30029-11.00635-16.92993-1.31274-.952-30.25513-24.238-30.25513-24.238h42.22266l.68237.53491a7.1733,7.1733,0,0,0,.80615.5813L427.754,235.501a7.90724,7.90724,0,1,0,7.87427-13.71472L399.50769,201.042h32.18384a7.90686,7.90686,0,1,0,0-15.81372H399.5072l36.12134-20.74365a7.87887,7.87887,0,0,0-.312-13.86255h14.70825Zm-.19824,212.39551-7.29077-17.10229a4.065,4.065,0,0,0-.27-.4873l-.25171-.41284,2.78906-23.46021s1.24951,2.10535,3.10278,5.10828Q449.38977,510.4184,449.82654,528.98535Zm-14.47388-89.93286L418.08655,437l-16.71973-17.00269,23.229,5.396Zm-3.80591-19.13623.16382-19.42529q3.93127,13.91492,7.02,28.54724Zm2.76147,27.92285-13.66113,10.75854-23.84424-.20044,20.24023-12.6106Zm-8.18677,17.71082,13.66162-10.75818L437.67859,472.496,420.66565,489.1062Z"/><polygon points="286.42 675.899 286.427 675.912 286.424 675.904 286.42 675.899"/><path d="M269.42078,590.95459l.00635.04688c-.00146-.00879-.00073-.01855-.0022-.02734Z"/></svg>