<svg id="Слой_1" data-name="Слой 1" xmlns="http://www.w3.org/2000/svg" viewBox="0 0 500 1000"><title>Flags light bulbs</title><path d="M491.02478,319.74634V146.70288a37.08065,37.08065,0,0,0-37.08057-37.08081H323.13147V28.25049A25.75039,25.75039,0,0,0,297.381,2.5H202.619a25.75039,25.75039,0,0,0-25.75049,25.75049v81.37158H46.056A37.08071,37.08071,0,0,0,8.97522,146.70288V319.74634a37.083,37.083,0,0,0,30.61694,36.50757C20.10168,408.79395,8.97522,472.00366,8.97522,544.291c0,225.27026,185.40381,453.209,241.0249,453.209,51.501,0,241.02466-227.93872,241.02466-453.209,0-72.28735-11.12646-135.49707-30.6167-188.03711A37.083,37.083,0,0,0,491.02478,319.74634ZM373.79456,753.20459a14.98309,14.98309,0,0,0-10.52441,1.86694c-1.844-7.23291-4.937-13.97888-10.29248-18.51587,3.49219,3.06763,9.40869,1.83545,14.48438-.53589a32.01157,32.01157,0,0,1,15.76465,9.73608c4.92188,5.64063,7.41162,12.39746,6.83105,18.53857-.59619,6.31055-4.8916,11.95264-10.21436,13.416a10.9289,10.9289,0,0,1-8.26367-1.28125,8.409,8.409,0,0,1-4.11182-5.1333,6.08448,6.08448,0,0,1,.791-4.92969,3.43834,3.43834,0,0,1,3.10205-1.41064,6.00016,6.00016,0,1,0,2.43359-11.751Zm22.40479-67.72266a19.3041,19.3041,0,0,0-20.22217,3.83521,24.11325,24.11325,0,0,0-4.57227-4.772,27.62346,27.62346,0,0,0-7.00513-3.93115q1.50256-4.114,3.00513-8.22815.67126-1.83783,1.34253-3.6759a6.46836,6.46836,0,0,0,1.60376-1.28662c4.9624-5.5,13.835-7.7417,22.606-5.7168,8.97949,2.0752,16.88525,8.248,20.63135,16.10938,3.897,8.17676,3.28076,18.42285-1.5332,25.49707-4.80322,7.05908-14.10889,10.75244-21.64111,8.58789-2.84521-.81689-6.26953-2.82129-7.34717-5.998a7.221,7.221,0,0,1,1.67334-7.04395,6.349,6.349,0,0,1,6.56641-1.37109,6.48224,6.48224,0,0,0,4.89258-12.00586Zm-3.93066,52.38428A43.03363,43.03363,0,0,0,378.264,727.345a24.52229,24.52229,0,0,0,2.6687-5.468,26.91834,26.91834,0,0,0,5.9043,2.48486,29.09272,29.09272,0,0,0,8.03418,1.10986,33.983,33.983,0,0,0,18.28271-5.54175c-4.2666,10.74133-8.7002,21.036-13.18262,30.83105A41.306,41.306,0,0,0,392.26868,737.86621Zm-3.7373-208.42114a105.23624,105.23624,0,0,1-13.16772,7.10059c-3.54639,1.59692-10.50757,2.52246-8.75317,7.4187,2.48877,6.94751,10.917,13.09778,17.665,15.27429a36.66339,36.66339,0,0,1-39.87158,11.69714,12.11571,12.11571,0,0,0-3.78662-.9021,3.39164,3.39164,0,0,0-3.20215,1.8252c-2.01538,4.93567,5.47485,13.18225,8.27148,16.53a61.06925,61.06925,0,0,0,16.06494,13.39966c3.834,2.25,3.21582,3.55664-.49048,5.98633A30.93362,30.93362,0,0,1,352.129,611.428a75.45062,75.45062,0,0,1-24.6062,2.2074c-.42065-.0321-.85449-.06042-1.29053-.08191.27954-2.43433.47339-4.88074.59888-7.32251.54175-10.55371-.37036-22.01831-5.10645-31.15308,1.44214-.33728,2.87256-.76074,4.26978-1.184,3.88843-1.17786,7.98218-2.4834,10.68823-5.51379a18.06827,18.06827,0,0,0,3.64868-7.8269,43.03277,43.03277,0,0,0-4.75-31.38843,42.5918,42.5918,0,0,0,9.25464,1.04175,40.23428,40.23428,0,0,0,17.8374-4.15088,50.338,50.338,0,0,0,24.91675-27.88208,33.20326,33.20326,0,0,0,4.6311,6.04907,37.28871,37.28871,0,0,0,15.61475,9.46729A105.03638,105.03638,0,0,1,388.53137,529.44507ZM186.37659,412.01172c.09961-.04858.19189-.10535.28735-.15869a28.938,28.938,0,0,0,10.051,5.78027,35.29211,35.29211,0,0,0,11.00928,1.72266,42.45021,42.45021,0,0,0,34.99756-19.25635c7.658-11.92578,9.33447-27.41528,4.86621-41.85767,11.03931.197,19.97437,2.16,27.21143,5.95679,9.623,5.04883,16.31055,14.13184,17.03711,23.14014.76514,9.47461-5.86133,18.85693-14.18066,20.07861-4.48389.65771-9.25537-1.1665-11.60059-4.43945-2.25928-3.15283-2.13379-7.96631.27344-10.51123a6.55259,6.55259,0,0,1,4.78613-1.81885,5.21086,5.21086,0,0,1,3.85449,1.54932,5.8706,5.8706,0,1,0,8.8252-7.74414,16.93132,16.93132,0,0,0-12.46045-5.54395,18.18256,18.18256,0,0,0-13.53467,5.48926c-6.22168,6.57764-6.7876,17.74268-1.28809,25.41748a23.562,23.562,0,0,0,18.67627,9.468,12.85926,12.85926,0,0,0-2.9646,8.90662,11.99452,11.99452,0,0,0,1.19556,4.3949,13.19345,13.19345,0,0,0,.9375,1.57813c-20.46338-5.64856-42.79956-1.85437-61.05225,9.30542a20.078,20.078,0,0,0-3.41016-8.07837,16.20641,16.20641,0,0,0-9.47559-6.56055A12.60889,12.60889,0,0,0,187.736,433.0918,5.86756,5.86756,0,1,0,196.92,440.397a1.36983,1.36983,0,0,1,.93262-.10986,4.73229,4.73229,0,0,1,2.502,1.94824,8.503,8.503,0,0,1,1.27,7.01172,8.11165,8.11165,0,0,1-.96143,2.15979c-1.84717,1.15417-3.666,2.34973-5.406,3.66052-.075.0564-.14526.11707-.21973.17383a14.93148,14.93148,0,0,1-9.78-2.022,23.2505,23.2505,0,0,1,1.11914-41.20752ZM329.892,349.5c2.46191,2.93811,3.26123,7.34778,1.72827,10.48779-1.65479,3.39014-6.36133,5.24219-9.50391,3.73486a6,6,0,0,0-5.18652,10.82129c9.0376,4.333,20.94287-.00928,25.47363-9.2915A21.35437,21.35437,0,0,0,343.2887,349.5h38.47559a58.71123,58.71123,0,0,0-4.8584,5.002,60.09212,60.09212,0,0,0-8.46826,12.96094c-6.69629,9.38184-17.26929,17.991-27.02734,21.62354-11.67432,4.34668-24.99316,1.84082-32.38721-6.09229a24.62775,24.62775,0,0,1-4.5376-25.67334,21.292,21.292,0,0,1,5.67285-7.8208Zm60.40454,59.02148a6.01309,6.01309,0,0,0,6.35205-5.62646c.31592-5.2168,5.80078-10.07959,11.5083-10.20215,5.81982-.11963,11.93457,4.103,14.52393,10.05469,2.55566,5.874,2.11084,13.30957-1.18994,19.89063-2.90869,5.80176-7.57373,10.08008-12.79883,11.73877-5.63867,1.78906-12.65527.561-18.31006-3.20654-6.7168-4.47656-10.62012-11.39844-12.71094-16.417a51.762,51.762,0,0,1,1.10815-41.1449,59.04822,59.04822,0,0,0,3.6355-5.91711,5.99872,5.99872,0,0,0,.51855-1.37476,47.34223,47.34223,0,0,1,3.07227-3.99146A49.93983,49.93983,0,0,1,403.30383,349.5h16.67969a40.97968,40.97968,0,0,0,1.98413,21.01367q3.57458,9.63574,6.69238,19.6792c-5.36865-5.98694-13.03662-9.67908-20.76147-9.49707-11.90137.25586-22.53857,10.08936-23.22852,21.47363A6.00074,6.00074,0,0,0,390.29651,408.52148ZM355.65,448.749a30.44366,30.44366,0,0,0-8.67822,1.55078c-11.19775,3.71191-18.67139,13.38135-19.03955,24.63428-.36914,11.28711,6.85107,23.56885,19.57227,24.585a15.64852,15.64852,0,0,0,9.88721-2.38721,6.00007,6.00007,0,1,0-6.54883-10.05566,3.84865,3.84865,0,0,1-2.38281.481c-5.33057-.42578-8.71631-6.668-8.53467-12.23047.20215-6.17187,4.44971-11.52441,10.82178-13.63623a18.55818,18.55818,0,0,1,16.73584,2.67432,24.8404,24.8404,0,0,1,10.5459,19.10059c.45117,12.53955-8.03955,25.62451-20.64795,31.8208-13.26416,6.51855-26.41846,1.53345-35.75317-6.41968,2.8728-11.769-.28223-24.884-4.66333-35.86975a70.08116,70.08116,0,0,0-13.856-22.28015,15.84581,15.84581,0,0,0,7.49487-3.07019,16.38127,16.38127,0,0,0,5.63647-17.00745c-1.7395-6.15918-7.01221-10.71887-12.65381-13.74158a33.6238,33.6238,0,0,0-11.28149-3.81836,32.11774,32.11774,0,0,0,10.88965-19.10584c7.09546,5.97119,16.707,9.18359,26.60864,9.18359a45.35075,45.35075,0,0,0,15.79395-2.82422c1.1958-.44519,2.39771-.96631,3.6001-1.52a56.27063,56.27063,0,0,0-3.16357,18.87451A58.015,58.015,0,0,0,355.65,448.749Zm-62.21533-96.105a34.91786,34.91786,0,0,0-2.40771,8.88257,47.655,47.655,0,0,0-10.77295-7.72437A57.65815,57.65815,0,0,0,269.4325,349.5h25.52808A34.52757,34.52757,0,0,0,293.43469,352.644Zm-81.0166,153.45557a153.78382,153.78382,0,0,1,22.1499-1.87842,205.57327,205.57327,0,0,1,58.33179,6.6709q5.14343,1.35938,10.20581,3.00244c.97949.31787,7.06348,1.92529,6.92261,3.48279a.26793.26793,0,0,1-.0293.1012c-.63647,1.1936-7.22949-1.83447-8.08643-2.10376q-6.34277-1.99292-12.81934-3.51978c-5.02441-1.18445-10.40479-1.616-15.30762-3.21191a5.6856,5.6856,0,0,0-.87622-.10229c-2.85791.2699-6.40991-.93481-9.27979-1.27441q-5.09766-.60352-10.2229-.93555a145.09007,145.09007,0,0,0-27.95239.17834c-5.00635.45374-10.3125.80188-15.18408,2.10645-3.34814.89539-6.5127,1.35889-9.69141,2.23621a137.219,137.219,0,0,0-13.79907,4.48022c-2.33276.91675-4.65405,1.86255-6.98779,2.77734a19.775,19.775,0,0,1-2.92651,1.12671c-2.63232.55249-.66553-.9729.4646-1.6311a50.503,50.503,0,0,1,7.50366-3.39636A153.34619,153.34619,0,0,1,212.41809,506.09961Zm189.106-10.90723c-5.94727-6.12646-7.69092-15.98291-4.05566-22.92627,1.373-2.623,4.02637-5.57373,7.35547-5.98975a7.22515,7.22515,0,0,1,6.562,3.05664,6.35511,6.35511,0,0,1,.021,6.709,6.48212,6.48212,0,1,0,10.77441,7.21,19.31057,19.31057,0,0,0,.09912-20.94629,20.13049,20.13049,0,0,0-19.064-8.89355c-7.042.87988-13.48437,5.68018-17.2334,12.84082-.15112.2887-.27246.59045-.41333.88379a36.89262,36.89262,0,0,0-11.238-12.626c-.32959-.229-.66455-.43945-.99829-.655a5.82846,5.82846,0,0,0-1.675-3.86548,47.15872,47.15872,0,0,1-13.88477-32.39941,45.24134,45.24134,0,0,1,4.24731-19.25415,61.04612,61.04612,0,0,0,4.573,21.032c3.91357,9.3916,9.83838,16.92578,17.13379,21.78711a35.377,35.377,0,0,0,19.47412,6.041,30.13639,30.13639,0,0,0,9.12109-1.38232c8.29248-2.63232,15.54395-9.11914,19.895-17.79687a38.66937,38.66937,0,0,0,3.666-11.50232q4.77686,19.79791,7.94165,40.92932a6.45787,6.45787,0,0,0,.37048,2.46655q1.62616,11.22015,2.80017,22.79456c-.26355.72412-.54687,1.44531-.87354,2.15759-3.84082,8.37793-11.479,14.87842-19.93359,16.96484C417.39465,504.001,407.483,501.33252,401.524,495.19238ZM249.83337,40.5a23,23,0,1,1-23,23A22.99989,22.99989,0,0,1,249.83337,40.5Zm-19.69043,309a48.10287,48.10287,0,0,1,3.8562,6.73242c5.78711,12.39648,5.24756,27.07031-1.375,37.38281-6.89111,10.73-21.02344,16.27-32.16992,12.61572-11.46924-3.76123-16.84277-19.99512-13.645-30.92822,2.1709-7.42187,7.3125-10.14307,15.27881-8.0918a11.17116,11.17116,0,0,1,6.83252,5.89063,9.11089,9.11089,0,0,1,.56494,7.50928,6,6,0,1,0,11.06055,4.6543,21.05567,21.05567,0,0,0-.874-17.49268,23.1449,23.1449,0,0,0-14.58936-12.18164c-14.12842-3.64111-25.82227,2.77393-29.791,16.34326-2.79907,9.57056-1.2998,21.25671,3.92163,30.60278a34.9819,34.9819,0,0,0,.33032,60.93921,30.25138,30.25138,0,0,0,5.105,2.25879,76.47862,76.47862,0,0,0-10.73047,20.12939c-3.271,8.95691-9.1582,24.85547-7.11084,35.04028a69.19862,69.19862,0,0,0-7.40576,3.25439c-4.9209,2.52393-9.69531,5.8772-12.26733,10.77295-2.52905,4.81421-2.62354,10.50684-2.38623,15.93933q.32922,7.54486,1.36084,15.03723c.50342,3.65454,1.24878,7.53271,3.81787,10.17944a15.56677,15.56677,0,0,0,6.68164,3.61646c.49194.15479.988.29321,1.48462.43127a73.96729,73.96729,0,0,0-1.96313,10.32825c-9.63745-8.48181-25.62524-9.4541-37.18726-1.59082-10.8877,7.40332-17.33936,21.32959-16.8374,36.34521a56.19941,56.19941,0,0,0,.92993,8.38647A31.42892,31.42892,0,0,0,85.131,632.2793a27.39788,27.39788,0,0,0-17.53613,13.70313,25.04016,25.04016,0,0,0-2.81006,8.49414A456.58673,456.58673,0,0,1,50.5675,565.45935c3.30664-4.2229,9.40918-6.78613,16.05664-6.64246,7.50928.1748,14.82129,3.68945,19.08252,9.17334,4.36768,5.62061,5.54541,13.51123,2.93018,19.63379-2.62158,6.13867-9.33594,10.41846-15.61182,9.94727-2.91357-.2168-5.479-1.49219-6.53662-3.25a4.56587,4.56587,0,0,1,4.72607-6.84668A6.00018,6.00018,0,0,0,73.3512,575.666a16.56611,16.56611,0,0,0-17.14453,24.84277c3.09326,5.1416,9.04785,8.51709,15.92773,9.0293.60205.04492,1.20264.06689,1.80518.06689,10.74268-.001,21.36133-7.03076,25.7334-17.26807a31.82465,31.82465,0,0,0-2.36572-28.5918A25.16984,25.16984,0,0,0,116.42786,572.29a26.05993,26.05993,0,0,0,4.43262-.37891c10.33154-1.78418,18.84717-10.38428,21.69531-21.90967,3.85889-15.61768-3.71289-30.18872-15.80981-40.10718,12.55029-2.54468,24.26514-9.59888,31.78149-19.92407a6.00022,6.00022,0,1,0-9.70215-7.0625,39.586,39.586,0,0,1-19.636,14.00647,51.13629,51.13629,0,0,0,5.97241-7.19495c8.85742-12.94629,10.54053-28.16895,4.50146-40.72021-4.85791-10.09619-14.34082-17.50439-24.748-19.3335-11.53955-2.02783-23.42627,2.9043-29.5791,12.272-6.58887,10.02979-5.25,24.231,3.04736,32.33057,5.45557,5.32373,14.8457,8.18262,22.23779,3.34717a6.00008,6.00008,0,0,0-6.57129-10.041c-1.73242,1.1333-5.06982.26709-7.28467-1.89355-4.25635-4.15479-4.88428-11.8501-1.39941-17.15479,3.50586-5.33691,10.69043-8.23535,17.47217-7.041,6.666,1.1709,12.80127,6.04395,16.01172,12.71729,4.21729,8.76465,2.9082,19.24072-3.5918,28.74121-7.21191,10.5415-18.91113,16.80322-29.80566,15.957-7.9502-.61865-16.28467-4.94189-23.46826-12.17383-5.79736-5.83606-11.9209-15.14209-16.46582-24.91492a440.69016,440.69016,0,0,1,21.50244-88.45459C86.84875,363.62378,100.3302,355.5,113.62708,355.5c.0415,0,.0835,0,.125.00049,10.01465.03809,18.38379,4.89648,24.87549,14.44043,6.91357,10.16455,7.25879,24.21045.83887,34.15674-6.50732,10.082-19.78125,15.13965-30.87891,11.7627a15.02777,15.02777,0,0,1-10.44043-11.27c-1.10352-4.86328.09082-9.90283,2.9707-12.54053,3.269-2.99365,8.04248-2.30908,11.47119-1.20654a6.00018,6.00018,0,0,0,3.67188-11.4248c-12.313-3.95654-19.85059.6709-23.24756,3.78125-6.14062,5.624-8.65771,14.8374-6.56885,24.04541a26.99825,26.99825,0,0,0,18.65039,20.0957c16.03564,4.87744,35.147-2.31543,44.45361-16.73535,8.959-13.88086,8.54834-33.37793-.999-47.41357A47.33143,47.33143,0,0,0,134.70471,349.5Zm-7.07764,258.5022a13.42019,13.42019,0,0,1,9.14429,1.7124c3.71826,2.44495,6.46777,6.8302,5.75635,11.53687-.93311,6.17236-6.22363,8.436-11.49048,9.16553q-8.54187,1.183-17.15063,1.76636c-2.56323.17419-5.127.25757-7.69116.32458-2.925.07654-5.85083.132-8.77686.2771a182.76689,182.76689,0,0,1-18.58154-.01245c-5.78589-.30188-11.63452-.59509-17.29614-2.0238-.95435-.24084-1.39795-.65649-.87329-1.65918.93872-1.79395,3.24072-2.70532,4.9165-3.57849a55.657,55.657,0,0,1,5.73779-2.42834c3.02515-1.16882,6.08545-2.23889,9.166-3.24,6.16333-2.00305,12.40674-3.72864,18.656-5.41968C203.9989,611.87488,213.36243,609.15894,223.06531,608.0022Zm-12.66284-16.96228a4.59638,4.59638,0,0,1,4.57471,1.81458l.44653.58826c2.65405,3.61072-1.20288,10.3363-6.51025,7.59534a5.70061,5.70061,0,0,1-2.5625-2.642C204.68909,594.79419,207.32971,591.71484,210.40247,591.03992ZM159.278,623.215c-.0542.02283-.1084.04651-.16235.06934.04614-.05029.09229-.10046.13794-.15125C159.26209,623.16028,159.26941,623.18774,159.278,623.215ZM134.33044,741.14514c-.03833-.04346-.08057-.0835-.11914-.12659.17871.03406.3606.07678.53833.10815A1.00912,1.00912,0,0,0,134.33044,741.14514Zm-29.59692,21.90173c-3.81909-8.04187-7.63477-16.47913-11.37549-25.27112.44849-9.11633,4.71069-17.75854,11.69971-22.58826a47.652,47.652,0,0,0,5.54883-3.24976,32.8813,32.8813,0,0,0,.38086,11.012c1.05957,5.00281,4.26611,8.95605,8.39282,11.92578-.156.01318-.3125.02136-.468.03906a15.4287,15.4287,0,0,0-12.80518,10.083,6,6,0,1,0,11.37891,3.81055,3.44044,3.44044,0,0,1,2.78076-1.97021,6.07071,6.07071,0,0,1,4.65723,1.79785,8.41249,8.41249,0,0,1,2.36621,6.13721,10.929,10.929,0,0,1-3.05273,7.78516c-3.94385,3.86279-10.981,4.73486-16.73389,2.07324A19.32737,19.32737,0,0,1,104.73352,763.04688Zm8.22949-70.3125a32.76051,32.76051,0,0,1-11.27051,10.62927,5.99146,5.99146,0,0,0-1.37061.58655c-.43213.25488-.85522.52271-1.27441.79614a35.31677,35.31677,0,0,1-17.42676,3.42529c-4.40649-11.99182-8.56543-24.47119-12.332-37.35229a18.5746,18.5746,0,0,0,10.61963,6.60938c7.418,1.50049,15.27734-2.59424,17.88818-9.31592A5.99986,5.99986,0,1,0,86.611,663.76807c-.51367,1.3208-2.61621,2.2417-4.32764,1.89795a7.64624,7.64624,0,0,1-5.127-4.93457c-1.375-3.70117.041-7.26855,1.00732-9.06592a15.456,15.456,0,0,1,9.68213-7.69775c7.9126-1.83813,15.9895,2.28955,21.18311,7.62744a111.549,111.549,0,0,0,5.40283,10.05322,5.8443,5.8443,0,0,0,1.62866,1.7522C119.28479,673.02844,118.35315,684.25085,112.963,692.73438ZM49.975,544.291a610.79992,610.79992,0,0,1,3.09692-62.2251,85.35874,85.35874,0,0,0,10.39844,13.11768c9.2085,9.27051,20.23633,14.83936,31.05127,15.68066q1.42163.1106,2.85156.11035a39.415,39.415,0,0,0,8.07007-.853c16.16626,5.73071,30.59595,21.15552,26.6106,37.28516-1.48926,6.02783-6.09717,12.64648-13.03369,13.84424-5.23.90283-12.20557-1.10449-14.8418-6.60107-1.22949-2.563-1.36279-6.28662.542-8.08154a3.841,3.841,0,0,1,2.8291-.88428,1.67851,1.67851,0,0,1,1.27051.58936,5.40875,5.40875,0,1,0,8.80566-6.2832,12.34182,12.34182,0,0,0-9.02148-5.07227,14.59448,14.59448,0,0,0-11.30273,3.77783c-6.04395,5.69531-5.728,14.6875-2.877,20.63184.1748.36475.37158.71655.56714,1.06885a37.07311,37.07311,0,0,0-28.08813-13.57666,34.39294,34.39294,0,0,0-16.86768,3.86841C49.99988,548.55859,49.975,546.42688,49.975,544.291ZM89.74622,349.5a75.01622,75.01622,0,0,0-9.19287,5.39526A41.27757,41.27757,0,0,0,80.017,349.5Zm22.33032,428.54517c.80542.06763,1.61133.11108,2.41431.11108a27.52332,27.52332,0,0,0,11.13965-2.31543,84.27606,84.27606,0,0,0-1.22363,25.53833C120.41736,794.16113,116.274,786.3623,112.07654,778.04517Zm73.92578-115.554a9.03489,9.03489,0,0,0-2.97729,1.37329,32.64115,32.64115,0,0,0-6.458,5.73,87.84981,87.84981,0,0,0-10.63208,14.39038c-.4812.80908-.95679,1.62573-1.36694,2.47388-1.03589,2.14233-1.96826,4.41834-3.688,6.06335-4.77759,4.56689-5.67065-.34656-8.6499-2.9093a24.776,24.776,0,0,0-13.79-5.4209,22.05746,22.05746,0,0,0-9.69922,1.37036c3.17163-13.66833.12915-28.811-8.80713-39.76831-.43115-.52856-.88232-1.03186-1.33423-1.53394a53.53868,53.53868,0,0,1-4.76-19.43433c-.36328-10.86084,4.231-21.16211,11.70459-26.24365,7.86035-5.34473,19.292-4.2168,24.46289,2.41211,2.78809,3.5752,3.55713,8.625,1.87012,12.28076-1.626,3.521-5.874,5.78857-9.2749,4.95361a6.55817,6.55817,0,0,1-3.94531-3.26318,5.2111,5.2111,0,0,1-.55664-4.11719,5.87033,5.87033,0,0,0-11.09229-3.84766,16.92992,16.92992,0,0,0,1.334,13.57275,18.12243,18.12243,0,0,0,11.458,9.05664,18.66819,18.66819,0,0,0,10.15356-.45728,1.96171,1.96171,0,0,0-.30493,1.41516,3.252,3.252,0,0,0,1.52734,1.99255,15.927,15.927,0,0,0,5.67041,1.80981c.917.16492,1.845.32349,2.79932.44971q2.31335.27429,4.65747.51025a71.90881,71.90881,0,0,0,4.62354,7.67847,74.12056,74.12056,0,0,0,9.16943,10.84521q2.49719,2.4375,5.2146,4.63452,1.35571,1.0957,2.76245,2.1272c.35229.25793,1.32373.81348,1.37939,1.28174C187.55432,662.77393,186.71033,662.361,186.00232,662.49121Zm4.77979,108.55347a12.56,12.56,0,0,1-.81519-4.07544c-.29712-4.3136,1.384-8.95032,5.69922-10.61523q.21606-.0835.42969-.15088c6.21875-1.968,13.80957,2.30029,13.32227,9.30591-.29712,4.2749-4.03516,7.7312-7.9397,8.96118C197.75159,775.64429,192.49915,775.08081,190.7821,771.04468ZM211.06921,833.97c-3.25317,2.63037-8.72925,3.749-12.25439,1.02661a9.00072,9.00072,0,0,1-3.13281-5.44067c-.811-3.964.252-8.63721,2.65186-11.25513,4.85889-5.3,12.98-2.62109,16.27222,3.02051C216.94714,825.335,214.34509,831.321,211.06921,833.97ZM229.11047,701.676a11.44262,11.44262,0,0,1-2.57886,6.02368,14.719,14.719,0,0,1-7.67847,4.87134c-3.56909.92053-8.37817-1.179-9.8125-4.667a7.62624,7.62624,0,0,1-.36035-1.123,11.85531,11.85531,0,0,1,.68726-7,14.632,14.632,0,0,1,6.16821-6.87964,9.03965,9.03965,0,0,1,8.64624-.15588A9.369,9.369,0,0,1,229.11047,701.676Zm33.23779-70.00781a36.05047,36.05047,0,0,1-6.82935,15.5332,31.90756,31.90756,0,0,1-3.94336,4.88257,15.81922,15.81922,0,0,1-5.6189,3.12573,27.91941,27.91941,0,0,1-10.59277.92944,18.99468,18.99468,0,0,1-8.19922-2.40576,6.69461,6.69461,0,0,1-2.90869-3.17432,2.52611,2.52611,0,0,1-.20117-1.15405,1.40266,1.40266,0,0,1,.11694-.44031c.57007-1.25183,1.74512-.23718,2.37378.32178a16.84427,16.84427,0,0,0,11.313,4.1261,21.69232,21.69232,0,0,0,5.76563-.99561c1.96582-.574,4.28223-1.168,5.87012-2.51794a16.42191,16.42191,0,0,0,2.97339-3.59851,52.429,52.429,0,0,0,6.22852-13.21582,6.23039,6.23039,0,0,1,1.01343-2.2373C260.83362,629.51135,262.70862,629.61829,262.34827,631.66821Zm-2.20752-28.94189c-3.343,2.34351-8.80078.08228-9.50757-3.93835-.70654-4.02124,3.65356-8.0072,7.59546-6.94385l1.45166.60107C263.21936,594.481,263.48376,600.38257,260.14075,602.72632Zm.35791-55.81677q-1.03381-.14832-2.07031-.27783a110.86968,110.86968,0,0,0-18.39746-.68079c-3.58936.09485-7.19214.44507-10.75488.87561q-4.27588.51617-8.51123,1.3147a149.41233,149.41233,0,0,0-52.38574,21.0155c-.84058.53882-3.28174,2.89771-4.33667,2.425-.74683-.34619.01782-1.14087.32837-1.49988,1.95874-2.26306,4.814-3.59216,7.395-5.00244q4.27075-2.33368,8.5791-4.59851c16.54932-8.6582,35.87476-16.03308,54.79785-16.16138,8.46777-.05737,16.74121-.29834,25.18359.81042a124.19872,124.19872,0,0,1,49.68335,17.78662c1.77393,1.11292,3.69238,2.54114,3.91626,4.62317a17.44839,17.44839,0,0,1-4.70215-2.929,51.57885,51.57885,0,0,0-5.46216-3.25928,125.96783,125.96783,0,0,0-36.29224-13.23267Q264.00208,547.41614,260.49866,546.90955Zm37.40942,110.5238c10.86694-6.84326,20.23267-16.59814,24.81812-28.594q.509-1.33228.938-2.689c7.82471,10.92432,18.69727,20.93457,31.437,25.25159.064.02136-7.27808,23.90015-7.93359,26.07849-.12793.42627-.24707.82446-.3623,1.21069-.10107.01282-.20312.021-.304.03455-2.99512.40234-6.0686,1.10693-8.9939.348-3.67725-.9541-6.356-3.99963-9.13062-6.59448-9.50439-8.88733-21.14819-12.4552-33.85278-13.03369C295.66394,658.79968,296.79553,658.13428,297.90808,657.43335Zm58.88428,173.42627q1.53772-3.5874,2.79736-7.27234a127.58621,127.58621,0,0,0,6.55127-36.46277,23.32588,23.32588,0,0,0,11.1853,2.9165,21.79182,21.79182,0,0,0,3.2854-.25732c-6.4314,12.01294-12.60352,22.71887-18.13867,31.86963Q359.67261,826.28314,356.79236,830.85962ZM427.75256,678.9729a38.98757,38.98757,0,0,0-2.46094-6.73413,41.10457,41.10457,0,0,0-7.89551-11.17114,67.63946,67.63946,0,0,0,16.09619-1.53931Q430.78088,669.397,427.75256,678.9729Zm7.979-27.88159c-8.79834-5.63721-17.021-11.20374-22.49658-20.5127-2.20068-3.74146-9.29419-15.29834-1.69482-15.91785a81.00236,81.00236,0,0,0,26.64063-6.87122,3.34011,3.34011,0,0,0,1.88623-1.52393c.625-1.5144-1.04834-2.90759-2.44092-3.77014a44.57774,44.57774,0,0,1-16.6167-18.65564c-1.65088-3.4668-4.72656-8.001.56982-7.9408,4.6416.053,9.13818.55444,13.80273.15112,1.74951-.15149,3.82422-.6123,4.43774-2.25757.4397-1.17957-.08691-2.47766-.60547-3.62451-4.635-10.24963-7.47144-20.03516-10.16431-30.95728-1.9458-7.89233-2.40918-16.0592-3.87939-24.02625a38.73168,38.73168,0,0,0,4.125-.76953,42.15808,42.15808,0,0,0,19.405-11.02783q1.296,19.98761,1.32422,40.90381C450.02478,581.16016,444.41956,617.26184,435.73157,651.09131Z"/><polygon points="226.956 700.267 226.954 700.275 226.959 700.262 226.956 700.267"/><path d="M235.89978,614.09546l-.0022.0199c-.00073.00891.001.01843.00024.02747Z"/></svg>