<svg id="Слой_1" data-name="Слой 1" xmlns="http://www.w3.org/2000/svg" viewBox="0 0 500 1000"><title>Flags light bulbs</title><path d="M491.02478,319.74634V146.70288a37.08065,37.08065,0,0,0-37.08057-37.08081H323.13147V28.25049A25.75039,25.75039,0,0,0,297.381,2.5H202.619a25.75039,25.75039,0,0,0-25.75049,25.75049v81.37158H46.056A37.08071,37.08071,0,0,0,8.97522,146.70288V319.74634a37.083,37.083,0,0,0,30.61694,36.50757C20.10168,408.79395,8.97522,472.00366,8.97522,544.291c0,225.27026,185.40381,453.209,241.0249,453.209,51.501,0,241.02466-227.93872,241.02466-453.209,0-72.28735-11.12646-135.49707-30.6167-188.03711A37.083,37.083,0,0,0,491.02478,319.74634Zm-41,224.54468c0,11.37646-.54053,22.67847-1.53308,33.865a137.534,137.534,0,0,0-24.97675,5.67578,10.59745,10.59745,0,0,0-2.63129,1.29541,48.6038,48.6038,0,0,0-3.75519-4.18481,52.5048,52.5048,0,0,0-21.674-12.96021c-3.94464-1.19092-8.494-2.32349-12.64569-2.17432-9.60779.34546-19.20422,1.39526-28.1264,5.094a75.72092,75.72092,0,0,0-7.9231,3.82275c7.89014-4.405-12.01025-37.86182-15.59033-42.24072-6.42908-7.86426-15.27179-12.93359-24.97949-15.5918a48.614,48.614,0,0,0-5.50232-1.147,10.6,10.6,0,0,0-.19312-2.93945,137.30592,137.30592,0,0,0-7.3175-23.73389,70.556,70.556,0,0,0,8.08,1.78711q3.98932.7218,8.02374,1.15234a106.03136,106.03136,0,0,0,15.4165.72632,115.54135,115.54135,0,0,0,31.59735-5.56812,8.51756,8.51756,0,0,0,2.1156-1.0415,39.04288,39.04288,0,0,0,3.01971,3.365,42.30236,42.30236,0,0,0,22.91974,11.68726c9.57288,1.55371,18.26587.12891,27.29425-3.614,1.42981-.59277,3.03265-1.74243,4.52093-2.08569,2.56189-.59082,1.931,2.77051,2.01172,4.79541.60773,15.24268,10.26636,32.86743,25.51312,37.833.49695.16211,3.50073,1.00415,6.2962,1.86743C449.99481,541.41724,450.02478,542.84351,450.02478,544.291ZM424.91553,687.74316a10.68954,10.68954,0,0,1-5.44733,3.21484,10.16,10.16,0,0,1-7.69885-.89331c-2.58826-1.5708-4.68793-5.06714-5.61517-9.35425-1.0802-4.99341-.39783-10.4104,1.699-13.48022,5.34625-7.82837,16.8913-10.80908,26.08972-9.354C431.1792,668.06519,428.14825,678.03613,424.91553,687.74316Zm-30.47534,74.81592-16.05646-14.02441,22.51324.21289Q397.68173,755.83411,394.44019,762.55908Zm-46.3056,81.77051a6.50334,6.50334,0,0,0-.92859-.40649L310.28864,831.3103l-7.761-13.15356c16.28284,7.29541,34.85211,12.65454,53.36859,14.12769Q352.06781,838.36169,348.13458,844.32959Zm-7.5462,11.22095q-4.31387,6.27173-8.7049,12.35962l-11.3316-19.20532ZM288.28595,789.604c-.068-.13965-.14789-.27368-.22424-.40942v-26.0271l22.54193-13.0144c.15546-.0022.311,0,.46545-.011,22.09827,10.739,47.051,30.94043,60.82294,55.44824q-2.65265,4.66516-5.18573,8.96436C338.59985,814.87866,308.63232,803.37012,288.28595,789.604Zm-14.90918-35.771c-.06329.08936-.12549.17969-.18518.27148-.07739.11963-.15039.24072-.22095.36377-.06293.10962-.12408.22-.18225.33276-.05719.11108-.11066.22412-.16272.33813-.05865.12793-.11469.25708-.16711.38892-.04193.10718-.08069.21533-.11859.324-.04779.13867-.09332.27783-.13385.41968-.03247.11353-.06073.22778-.0882.34277-.03217.1355-.06366.271-.08893.40894-.02533.13574-.04413.27148-.06226.40869-.0155.11816-.03223.23633-.04272.35645-.01471.167-.02057.33447-.02521.5022-.00153.06958-.0105.13745-.0105.207v20.04272l-17.35675-10.02124-.0188-.009a7.894,7.894,0,0,0-.73383-.36084c-.07953-.03589-.15662-.08154-.23651-.11426-.12439-.05078-.25458-.084-.38153-.12866a8.03834,8.03834,0,0,0-2.66528-.47192l-.0072.00049-.00757-.00049a8.03539,8.03539,0,0,0-2.66272.47144c-.12769.04443-.25861.07788-.38373.12915-.08026.03271-.15729.07837-.23688.11426a7.97643,7.97643,0,0,0-.73376.36084l-.0188.009L229.0871,778.541V758.4978c0-.07007-.00867-.13745-.01044-.20752-.00439-.16724-.0105-.33447-.02533-.50073-.0105-.12109-.0271-.24023-.04272-.35937-.01843-.13574-.03687-.27075-.06177-.40479-.0257-.13965-.05719-.27686-.09-.41406-.02716-.11279-.05463-.2251-.08685-.33667-.04089-.14429-.08716-.28516-.13593-.426-.03693-.10645-.07489-.2124-.11652-.31738-.0528-.13428-.10992-.26562-.16956-.396-.05066-.11108-.10309-.22119-.15881-.33008-.05963-.11572-.12256-.22949-.18762-.342-.06842-.11938-.13928-.23706-.21448-.35278-.06226-.09644-.127-.19067-.19348-.28418-.08679-.123-.17645-.2439-.27087-.36206-.0658-.08276-.13452-.16382-.20392-.2439-.10052-.11719-.20361-.23169-.31177-.34326-.07776-.08032-.15808-.15723-.23865-.23413-.10529-.09961-.21124-.198-.32227-.29272-.10126-.08643-.20648-.16821-.31207-.24951-.09729-.0752-.19421-.15039-.29584-.22144-.136-.09546-.27667-.18359-.41846-.27075-.05963-.03662-.11456-.07812-.17535-.11353l-17.35675-10.02051,17.35675-10.02124c.07123-.04126.13531-.0896.20471-.13281.12805-.0791.25531-.15845.37793-.24414.11279-.07886.22021-.16211.328-.24561.095-.07373.18945-.14722.28137-.22485.11969-.10156.23358-.20752.34644-.31567.073-.06909.14539-.13867.21545-.21094.11505-.11768.2243-.2395.33057-.36328.06366-.074.12659-.14795.18738-.22412.09906-.12451.19312-.25122.28424-.38037.06219-.08789.12329-.17627.18188-.2666.07849-.12109.15222-.2439.22382-.36841q.09338-.16223.17975-.32812c.05823-.113.11249-.22681.16461-.342.05853-.1272.1142-.25586.16559-.38623.0426-.10791.08173-.21631.11932-.32568.04773-.13818.09332-.27734.13379-.4187.03259-.11377.06073-.22778.08826-.34253.03253-.13574.06366-.27148.089-.41016.02527-.135.04407-.27075.06213-.40674.01563-.11914.03223-.2373.04272-.35815.01483-.1665.02057-.33325.02533-.50122.00177-.06982.01044-.13745.01044-.20752v-20.0415l17.35681,10.02075c.06293.03662.12866.06421.19232.09839.144.07788.2879.15454.43622.22363.11383.05322.22925.1001.3446.14795.12189.0498.24341.09961.36743.14307.13849.0498.27734.09229.41693.13379.10706.03174.21405.0625.32184.08984.14978.0376.2995.06885.44989.09766.106.02026.21191.03979.3186.05591.14716.02173.294.03857.44153.05249q.17633.01685.353.02637c.13416.00635.26764.00928.40143.00928s.26727-.00293.40143-.00928q.17688-.00952.353-.02637c.14752-.01392.29437-.03076.44153-.05249.10706-.01611.21307-.03564.319-.05591.15051-.02881.29987-.06006.44952-.09766.10815-.02734.21484-.05811.32184-.08984.13965-.0415.2785-.084.417-.13379.12408-.04346.24554-.09326.3678-.14307.115-.04785.23035-.09473.34467-.14795.14789-.06909.29218-.14575.43573-.22363.06366-.03418.12952-.06177.19244-.09839l17.35675-10.02124v20.042c0,.07007.009.1377.0105.20752.00464.168.0105.33472.02521.50122.0105.12085.02722.239.04272.35815.01843.136.03693.27173.06226.40674.02527.13867.0564.27441.08893.41016.02747.11475.05573.22876.0882.34253.04053.1416.08606.281.13385.41943.0379.10864.07666.217.119.32446.0517.13086.10779.25977.16638.3877.05206.11475.10626.22827.16382.34058.05743.11133.11792.22046.18005.32861.07166.12476.14575.24731.22424.36841.05823.09033.119.17822.18079.26611.09155.12939.18591.25684.28571.38135.06042.07593.123.14966.18665.22339.10632.12378.21552.24585.33051.36353.07019.07227.14246.14185.21558.21094.11279.10815.22675.21411.3468.31567.09143.07764.18622.15112.28094.22485.10779.0835.21515.16675.32806.24561.12292.08569.25024.165.37787.24414.06946.04321.13379.09155.20471.13281l17.35706,10.02051-17.35706,10.021c-.06586.03809-.12518.083-.19025.1228-.13452.08325-.26831.16675-.39783.25757-.10773.07471-.20972.15454-.31244.23364-.10016.07715-.19965.15454-.29578.23657-.11572.09863-.22638.20117-.33563.30518-.07629.07251-.15222.14526-.22565.22119-.11212.11548-.21918.23438-.3233.35547-.06549.07593-.13019.15234-.19312.231C273.55939,753.58032,273.4668,753.70557,273.37677,753.833Zm-22.8891,132.67725c-18.31036-24.80688-24.7287-60.981-22.78235-88.238.08606-.12769.16132-.26294.24048-.39575l22.5426-13.01489,22.54083,13.01392c.07922.13306.15442.26855.24084.39673C275.21643,825.5293,268.7981,861.70337,250.48767,886.51025Zm-96.7168-42.585a6.50516,6.50516,0,0,0-2.6521,1.72583q-4.28714-6.52917-8.45435-13.20923c19.31165-1.17773,38.79065-6.66919,55.78192-14.28271l-7.761,13.15332Zm26.65155,4.78174-12.54926,21.2688q-4.8588-6.71667-9.63629-13.68872Zm-48.58337-34.21484q-1.91254-3.28931-3.89764-6.79492c13.49652-25.45386,39.23639-46.50879,61.96277-57.55347.15582.01123.31281.00928.46936.01123l22.5401,13.01318v26.02686c-.07629.13647-.15656.27051-.22455.41064C191.7536,803.77026,160.63763,815.53809,131.83905,814.49219ZM98.15161,748.76782l24.44-.2312-17.49286,15.28027Q101.61646,756.50732,98.15161,748.76782ZM49.975,544.291c0-1.09082.02429-2.16431.02954-3.25122.0603-.01611.12122-.02759.1814-.04419,17.81775-4.87891,29.75867-21.63355,32.09918-39.44971a60.89037,60.89037,0,0,0,.52368-7.05566,60.874,60.874,0,0,0,6.37213,3.074c8.76227,3.63086,16.42755,6.04517,25.98755,4.25488A47.04084,47.04084,0,0,0,139.39569,489.491a39.02116,39.02116,0,0,0,3.01959-3.36548,8.51756,8.51756,0,0,0,2.1156,1.0415c19.09015,6.252,39.9104,7.83716,59.5863,2.53125,1.2002-.32349,2.62836-.63184,4.08258-1.02246a126.92754,126.92754,0,0,0-7.72064,24.13208,10.60109,10.60109,0,0,0-.19348,2.93774,48.63571,48.63571,0,0,0-5.50354,1.14648,55.2676,55.2676,0,0,0-27.47443,18.0542c-7.79132,9.32446-10.88745,19.17944-12.44214,31.00635a75.72149,75.72149,0,0,0-.65094,8.77441,75.654,75.654,0,0,0-7.92444-3.823c-20.642-8.55347-46.07806-6.14917-62.44537,10.04028a48.65969,48.65969,0,0,0-3.75452,4.18506,10.57981,10.57981,0,0,0-2.63165-1.29541A137.28179,137.28179,0,0,0,52.042,578.146c-.192-.02441-.39124-.04053-.58435-.06372C50.4967,566.92871,49.975,555.6521,49.975,544.291Zm3.19434-46.69312a21.20845,21.20845,0,0,0-1.22546-3.22632q-.36749,4.57251-.6571,9.20361,1.467-22.7384,4.59875-44.20752l11.33264,20.06421a6.06774,6.06774,0,0,0,.906,2.08765c.16455.24121.3396.47681.51062.7146,1.901,4.89209,2.44879,10.967,1.56067,17.72339-1.81128,13.78906-9.03625,23.86353-19.99866,28.18091q.17523-7.12061.50854-14.12573a5.99743,5.99743,0,0,0,.82092-1.11328A20.06438,20.06438,0,0,0,53.16931,497.5979Zm-2.464,16.41479q.22833-4.84058.52771-9.62793Q50.93439,509.17261,50.70532,514.0127Zm99.55878-58.812a36.12349,36.12349,0,0,0-7.89795-15.71875,34.43348,34.43348,0,0,0,31.02258-9.21582,95.8181,95.8181,0,0,1,27.353,42.9209,95.81817,95.81817,0,0,1-50.84692-2.22778A36.04187,36.04187,0,0,0,150.2641,455.20068ZM172.393,408.81641c-2.20569,8.41577-8.61151,15.51294-16.31927,18.08008-7.66846,2.55518-19.20087.43555-24.13721-6.79321-1.6861-2.46826-2.23517-6.82446-1.36621-10.84009.74561-3.44629,2.43347-6.25781,4.51532-7.52026a8.7745,8.7745,0,0,1,11.29822,2.85376,6.09672,6.09672,0,0,0,10.51666-6.1709,20.92748,20.92748,0,0,0-28.13959-7.10791c-5.03528,3.05493-8.62494,8.51172-10.10858,15.36646q-.29745,1.37549-.46649,2.75439c-8.56787-17.37158-23.15-32.554-38.4668-43.6272l12.28027.116,23.6272,20.63794a5.28381,5.28381,0,1,0,6.95221-7.95874l-14.34009-12.52563,31.14764.29468a6.07644,6.07644,0,0,0,2.26129.259c.29163-.02222.58337-.05591.875-.085,5.18652.7998,10.72192,3.36255,16.12946,7.51025C170.74243,383.33228,175.75128,396.00024,172.393,408.81641Zm-29.87152-54.56128c-.29114-.0293-.58252-.06274-.87335-.08472-.15643-.012-.3111-.01758-.46527-.01758a6.04648,6.04648,0,0,0-1.803.27734l-31.14093.29492,5.98187-5.2251h40.44464A32.99019,32.99019,0,0,1,142.52148,354.25513Zm-50.52271.62354-11.445.10815c-.00629-.19824-.01825-.39624-.0274-.59448Q83.702,352.0614,86.81244,349.5H98.15656Zm14.39764,63.83862c-13.5932,1.53247-28.13495-.85791-41.5025-5.3689q4.25867-17.0918,9.70178-33.16357C87.7489,390.31592,99.84613,403.70142,106.39642,418.71729Zm-2.13391,14.8479c-.74036.55835-1.46271,1.15112-2.15955,1.7832-5.19373,4.71167-8.125,10.54907-8.253,16.43579a20.92918,20.92918,0,0,0,20.2265,20.81592l.0434.00049a6.09675,6.09675,0,0,0,.04157-12.19336,8.776,8.776,0,0,1-8.12036-8.35791c.05292-2.43384,1.643-5.30078,4.25476-7.66992,3.0426-2.76074,7.0976-4.46069,10.07166-4.23779,8.727.66113,16.3277,9.58643,17.9516,17.50757,1.6308,7.95874-1.31213,17.05444-7.49786,23.17212-9.42053,9.31641-22.8952,11.31372-36.97125,5.479-6.29553-2.60962-11.28253-6.12183-14.5686-10.21484-.12042-.2666-.23706-.5354-.36353-.7981a6.04509,6.04509,0,0,0-1.338-1.80029l-15.84564-26.856L79.751,452.78662a5.284,5.284,0,0,0,3.41663-10.00049l-23.08105-7.88574q.72913-3.68152,1.50537-7.32373C75.28046,432.01538,90.0675,434.49536,104.26251,433.56519Zm197.92188,97.95288c15.89032,4.35059,26.4201,17.62085,28.88861,36.4082,1.10406,8.40332.42242,15.95874-1.94165,22.042-.21265.29517-.42993.58789-.63428.88794a7.5419,7.5419,0,0,0-1.12689,2.59595l-19.05029,33.72876-4.57361-23.23169a6.57119,6.57119,0,0,0-12.89484,2.53882l7.5365,38.27759-7.5105,13.29663c-2.40234-23.38086-9.68713-48.52515-23.06952-68.554q1.58936.67346,3.25836,1.21094c8.3028,2.66309,16.415,2.19043,22.83447-1.33057a26.02466,26.02466,0,0,0,9.84082-34.72583,7.58174,7.58174,0,1,0-13.18451,7.49,10.914,10.914,0,0,1-3.95093,13.94189c-2.65472,1.45654-6.73224,1.52563-10.90729.186-4.86475-1.56152-9.21594-4.86133-10.82562-8.21069-4.71423-9.81055.17139-23.54663,7.69238-30.22C280.12341,531.14551,291.74933,528.657,302.18439,531.51807Zm73.46539,95.9856a10.91262,10.91262,0,0,1,10.09839-10.39331,7.58213,7.58213,0,0,0-.05176-15.16406h-.05389a26.02825,26.02825,0,0,0-25.15332,25.886c.15985,7.322,3.80487,14.58105,10.264,20.44067q1.29428,1.17407,2.67249,2.2124c-2.48267-.16211-4.97827-.251-7.48517-.251-21.75568,0-44.18005,5.93628-63.41193,14.552l7.75861-13.14966,36.918-12.61279a6.5712,6.5712,0,1,0-4.24847-12.43677l-22.40625,7.655,19.68494-33.36279a7.5546,7.5546,0,0,0,1.68451-2.27319c.15735-.32739.30237-.66187.45209-.9939,4.08685-5.08887,10.28815-9.457,18.11719-12.70312,17.50293-7.25562,34.26147-4.77075,45.97675,6.81372,7.69238,7.60864,11.35211,18.91968,9.32367,28.81616-2.01825,9.85156-11.4704,20.95093-22.32312,21.77295-3.70673.269-8.74109-1.8374-12.52527-5.27075C377.69342,634.09521,375.71521,630.53,375.64978,627.50366Zm.44305,41.45093c-12.33221,28.27075-40.46606,51.92383-65.05054,63.86377-.14868-.00977-.29614-.02686-.44513-.02881l-22.53546-13.00977V693.75244c.07635-.13574.15625-.26978.22424-.40942C310.91864,678.0293,345.45313,665.49976,376.09283,668.95459ZM273.27008,684.67578c-.08606.12744-.16125.26318-.24054.39575l-22.54187,13.01489-22.54114-13.01416c-.07953-.13379-.15552-.27-.24268-.39819-1.94562-27.2561,4.472-63.42993,22.78314-88.23706C268.7981,621.24487,275.21674,657.41943,273.27008,684.67578ZM262.50232,526.50806a44.90734,44.90734,0,0,0-12.01605,18.27368,42.82964,42.82964,0,0,0-29.21735-27.67187,119.16337,119.16337,0,0,1,29.21661-56.14844,119.15825,119.15825,0,0,1,29.21881,56.14819A44.816,44.816,0,0,0,262.50232,526.50806Zm-34.09619,11.342c7.52136,6.67334,12.40814,20.40942,7.69391,30.22-1.61115,3.35034-5.96094,6.65039-10.82562,8.21167-4.173,1.3396-8.25366,1.27222-10.90771-.187a10.91492,10.91492,0,0,1-3.952-13.94189,7.58142,7.58142,0,1,0-13.18378-7.49,26.02611,26.02611,0,0,0,9.84155,34.72583c6.42047,3.522,14.528,3.99829,22.83447,1.33154q1.66635-.53467,3.2569-1.21c-13.38055,20.02808-20.66467,45.17139-23.067,68.552L202.586,644.76538l7.53583-38.27637a6.571,6.571,0,1,0-12.89453-2.53857l-4.57324,23.23071-19.05176-33.73a7.5531,7.5531,0,0,0-1.1261-2.59424c-.20471-.29956-.42175-.59229-.634-.88721-2.364-6.08374-3.04639-13.63916-1.94159-22.04126,2.46747-18.78711,12.99652-32.05835,28.88721-36.4104C209.226,528.657,220.84973,531.14648,228.40613,537.8501ZM153.76874,639.0249l36.91834,12.61353,7.75751,13.14746c-19.23041-8.615-41.653-14.55054-63.4079-14.55054-2.508,0-5.00513.08936-7.48914.25146q1.37558-1.03748,2.67352-2.21265c6.45953-5.85986,10.10339-13.11841,10.26215-20.43848a26.02566,26.02566,0,0,0-25.15253-25.88745h-.05389a7.58225,7.58225,0,0,0-.0517,15.16431,10.91152,10.91152,0,0,1,10.09869,10.39331c-.06543,3.02637-2.04327,6.5918-5.29144,9.53809-3.78418,3.43188-8.82031,5.53589-12.52386,5.26953-10.85339-.82129-20.30627-11.92065-22.32416-21.77124-2.02808-9.89771,1.63062-21.20874,9.324-28.81714,11.71344-11.58569,28.46881-14.06934,45.976-6.81274,7.82806,3.2439,14.03009,7.61108,18.11658,12.70044.14972.33179.29474.66675.452.99414a7.54309,7.54309,0,0,0,1.68561,2.2749l19.68463,33.36108-22.40491-7.65479a6.57137,6.57137,0,1,0-4.24951,12.43677ZM212.68835,693.343c.06836.14038.14862.27515.22528.41187v26.0249L190.37787,732.791c-.14819.002-.29541.01855-.443.02881-24.58368-11.93848-52.71906-35.59106-65.05341-63.863C155.51971,665.50171,190.056,678.03076,212.68835,693.343ZM70.78821,603.9895a42.83794,42.83794,0,0,0,9.36859,39.15259,47.84376,47.84376,0,0,0-8.56335-.791,43.98717,43.98717,0,0,0-9.54547,1.02661c-3.325-14.15112-6.09448-28.68164-8.13965-43.4895A115.68459,115.68459,0,0,1,70.78821,603.9895Zm22.33368,63.24194c2.09607,3.0708,2.77917,8.489,1.69824,13.48291-.928,4.28516-3.02655,7.78223-5.61481,9.35254a10.91568,10.91568,0,0,1-14.05084-3.54932,7.56379,7.56379,0,0,0-1.66034-1.9668q-4.14349-12.93494-7.75732-26.45215C75.1134,656.1377,87.52313,659.03662,93.12189,667.23145Zm3.9483,35.79883c6.261-3.79785,10.72583-10.58423,12.57019-19.10791q.36987-1.71167.58038-3.428c10.65564,21.603,28.78986,40.48413,47.83838,54.25488l-15.27191-.14429-29.38367-25.666a6.57062,6.57062,0,0,0-8.64423,9.89795l17.8338,15.57764-30.7771-.29077c-3.74542-8.95361-7.40283-18.25952-10.89917-27.87378A25.00287,25.00287,0,0,0,97.07019,703.03027ZM113.40356,774.011l29.38226-25.66553,15.27258-.14478c-15.05664,10.88574-29.52142,24.97412-40.19122,41.06714q-3.5181-6.67017-7.11438-13.85986A6.522,6.522,0,0,0,113.40356,774.011ZM342.9173,748.19922l15.27155.14429,29.38226,25.665a6.53181,6.53181,0,0,0,.90381.65894q-3.32584,6.58813-6.59851,12.74634C371.33789,772.09033,357.39575,758.6665,342.9173,748.19922Zm35.4668-13.78711,17.83264-15.57642a6.571,6.571,0,1,0-8.64563-9.89771l-29.38293,25.66553-15.27161.14453c19.04852-13.77124,37.18243-32.65234,47.83734-54.25586q.21094,1.71167.58,3.42554c1.84436,8.52466,6.308,15.311,12.5694,19.11011a24.76031,24.76031,0,0,0,14.45081,3.36377c-3.54511,9.56958-7.25134,18.83057-11.04187,27.74658Zm50.99835-92.06421a47.84519,47.84519,0,0,0-8.56531.7915,42.84194,42.84194,0,0,0,9.36816-39.1521,115.565,115.565,0,0,1,15.77155-3.91748c-2.08142,14.64673-4.88464,29.03516-8.24573,43.05957A44.44408,44.44408,0,0,0,429.38245,642.3479Zm19.8559-129.5354q.36438,7.418.55457,14.96313c-10.48981-4.49292-17.4-14.38574-19.16528-27.81812-.88788-6.75342-.34058-12.82568,1.5578-17.71606.17242-.24.34894-.47778.51532-.72168a6.0701,6.0701,0,0,0,.90552-2.08667l10.6814-18.91211q2.848,19.8208,4.27252,40.74731c-.11877-1.77515-.23108-3.55493-.3678-5.31689-.20178.54-.39374,1.08545-.55255,1.64551A20.08173,20.08173,0,0,0,449.23834,512.8125Zm-.42212-7.68066q.23639,3.81995.422,7.67725Q449.04889,508.95435,448.81622,505.13184Zm-34.45154-55.636a5.28289,5.28289,0,0,0,6.70886,3.2915l18.014-6.15454-15.845,26.85474a6.04943,6.04943,0,0,0-1.33771,1.7998c-.12793.26587-.246.5376-.36755.80737-3.28607,4.08936-8.2713,7.59888-14.56311,10.20752-14.07635,5.83447-27.55188,3.8374-36.96985-5.479-6.18683-6.11768-9.12976-15.21387-7.49866-23.17236,1.62268-7.92114,9.224-16.84668,17.95044-17.50732,2.99377-.22437,7.029,1.47681,10.07166,4.23755,2.6123,2.3689,4.2027,5.2356,4.25616,7.66968a8.77548,8.77548,0,0,1-8.12091,8.35767,6.09688,6.09688,0,0,0,.04156,12.1936l.04358-.00049a20.92933,20.92933,0,0,0,20.226-20.81592c-.12769-5.8877-3.05951-11.72461-8.25415-16.43652-.69623-.6311-1.41772-1.22363-2.15692-1.78174,13.92926.91357,28.4267-1.46167,41.899-5.74585q.78131,3.64746,1.5033,7.344l-22.30914,7.62256A5.28379,5.28379,0,0,0,414.36469,449.49585Zm-19.93781-30.77734c6.44153-14.76636,18.24738-27.95142,31.14545-38.01978q5.40051,15.928,9.59747,32.90869C422.0127,417.9519,407.76276,420.22168,394.42688,418.71851Zm25.08734-64.90845c-.02356.39014-.05518.7793-.06769,1.17017l-10.6225-.1001L402.66461,349.5h11.34454Q416.73157,351.74524,419.51422,353.81006Zm-26.92889.91675-31.14044-.29419a6.06252,6.06252,0,0,0-1.8056-.27783q-.23154,0-.46582.01758c-.2923.02173-.58453.05542-.87683.085a32.99047,32.99047,0,0,1-12.144-4.75732H386.6015ZM358.29871,366.552c.29193.0293.58392.063.87561.085a6.05725,6.05725,0,0,0,2.2569-.25952l31.15289-.29492-14.33948,12.52612a5.28362,5.28362,0,1,0,6.951,7.95923L408.82281,365.929l11.73145-.11084c.027.11279.0603.22461.08826.33716-15.14758,11.04419-29.52374,26.0896-38.005,43.28687q-.1702-1.37769-.4671-2.75635c-1.483-6.85474-5.07245-12.31177-10.108-15.36621a20.92748,20.92748,0,0,0-28.13959,7.1084,6.0967,6.0967,0,0,0,10.5166,6.1709,8.77662,8.77662,0,0,1,11.29858-2.85425c2.0816,1.2627,3.76965,4.07373,4.515,7.52051.8692,4.01538.31989,8.37158-1.3656,10.83984-4.93671,7.22852-16.46643,9.34766-24.13812,6.79395-7.70746-2.56689-14.11328-9.66357-16.31842-18.08008-3.35822-12.81616,1.64941-25.48437,13.74072-34.75684C347.57813,369.91528,353.11218,367.35254,358.29871,366.552Zm-30.86407,63.7168a34.4347,34.4347,0,0,0,31.02228,9.21558,34.44746,34.44746,0,0,0-7.52747,31.47754,95.82087,95.82087,0,0,1-50.84631,2.22754A95.82111,95.82111,0,0,1,327.43463,430.2688ZM249.83337,40.5a23,23,0,1,1-23,23A22.99989,22.99989,0,0,1,249.83337,40.5Zm77.52332,309a51.829,51.829,0,0,0,7.39392,6.9248,60.93274,60.93274,0,0,0,5.84821,3.98047,60.92517,60.92517,0,0,0-5.84821,3.981c-5.47443,4.19775-12.375,10.15869-15.43127,16.43311-4.598,9.43945-5.33307,20.98291-2.68372,31.09082a39.11261,39.11261,0,0,0,1.40253,4.29175,8.533,8.533,0,0,0-1.9574,1.31763c-9.15924,8.21191-18.74512,18.7356-24.31445,29.81592-3.40179,6.76782-7.15881,14.189-8.52942,21.90747q-2.85406-4.73547-6.08221-9.23413c-4.96356-6.89062-12.02368-17.24512-20.16705-20.6438a20.03,20.03,0,0,0-9.5683-1.21753,12.36568,12.36568,0,0,0-5.62128,1.668c-4.159,2.6936-9.0932,8.99951-12.28943,12.88208a94.028,94.028,0,0,0-7.59375,10.1626q-2.74384,4.4491-5.26447,8.89355c-1.106-6.30347-3.84589-12.68579-6.18469-17.94019-6.00012-13.48022-14.69977-26.42139-25.72235-36.29687a8.53924,8.53924,0,0,0-1.95758-1.31763,39.11319,39.11319,0,0,0,1.40247-4.29126c4.76837-18.19189-3.6239-36.40918-18.11554-47.52393a60.91,60.91,0,0,0-5.84888-3.98145,60.9969,60.9969,0,0,0,5.84833-3.9812,58.947,58.947,0,0,0,7.5885-6.92114ZM177.39789,882.78271l15.25757-27.01416,4.5733,23.229a6.57081,6.57081,0,1,0,12.8941-2.53857l-7.5354-38.27588,7.5105-13.29736c2.40234,23.3811,9.68713,48.52466,23.06842,68.55273q-1.58881-.67346-3.25836-1.21094c-8.30426-2.66406-16.415-2.19092-22.83447,1.33081a25.01393,25.01393,0,0,0-10.89209,12.44385C189.92517,898.71875,183.63971,890.94824,177.39789,882.78271ZM211.1308,922.531a7.55138,7.55138,0,0,0-.71356-1.73608,10.91222,10.91222,0,0,1,3.95093-13.94189c2.65369-1.45654,6.73108-1.52588,10.90729-.18726,4.86475,1.56177,9.21558,4.86108,10.82562,8.21167,4.04694,8.42163,1.01337,19.72217-4.684,26.9751A277.91662,277.91662,0,0,1,211.1308,922.531Zm38.35834,32.468c-1.64545-.91455-3.69061-2.18018-6.11114-3.85327a46.93649,46.93649,0,0,0,7.10968-12.97949,47.10615,47.10615,0,0,0,6.31226,11.92212A87.03658,87.03658,0,0,1,249.48914,954.999Zm19.071-14.49561c-5.03729-7.25269-7.48914-17.71143-3.68579-25.626,1.61-3.35059,5.96088-6.6499,10.82593-8.21167,4.17725-1.33765,8.2533-1.2688,10.907.18726a10.14842,10.14842,0,0,1,4.62354,6.22046,11.249,11.249,0,0,1,.33673,4.65894c-.38806.42114-.77832.8584-1.16577,1.27539C282.0459,927.99976,274.74359,935.04346,268.56012,940.50342Zm35.23254-36.603a24.67855,24.67855,0,0,0-9.89087-10.342c-6.42157-3.52319-14.53021-3.99585-22.83447-1.33081q-1.66745.53467-3.25793,1.21094c13.38159-20.02881,20.66608-45.17358,23.06805-68.55566l7.51086,13.29785L290.85248,876.459a6.57117,6.57117,0,0,0,12.89484,2.53857l4.5733-23.23145L322.405,880.7019C316.22638,888.825,309.99786,896.5896,303.79266,903.90039Z"/></svg>