<svg id="Слой_1" data-name="Слой 1" xmlns="http://www.w3.org/2000/svg" viewBox="0 0 500 1000"><title>Flags light bulbs</title><path d="M491.0249,322.24707V149.20313a37.0806,37.0806,0,0,0-37.08057-37.08057h-130.813V30.751A25.75039,25.75039,0,0,0,297.38086,5.00049H202.61914A25.75039,25.75039,0,0,0,176.86865,30.751v81.37158H46.05615A37.08071,37.08071,0,0,0,8.9751,149.20313V322.24707a37.08309,37.08309,0,0,0,30.61719,36.50732C20.10156,411.29443,8.9751,474.50391,8.9751,546.7915,8.9751,772.06152,194.37891,1000,250,1000c51.501,0,241.0249-227.93848,241.0249-453.2085,0-72.2876-11.12646-135.49707-30.6167-188.03711A37.08312,37.08312,0,0,0,491.0249,322.24707ZM448.87915,508.58154c-1.77075,1.46362-3.49487,2.84033-5.10181,4.05347-10.7124,8.08716-10.28979,7.13989-23.77539,8.27881a32.54437,32.54437,0,0,1-5.99634-.31689,29.02816,29.02816,0,0,1,2.70972-5.10254c7.77832-10.55,6.70557-10.67554,19.418-15.46509,3.467-1.3064,7.57837-2.66284,11.855-3.9436Q448.49512,502.28748,448.87915,508.58154ZM406.291,647.94189c-13.05566-1.27124-20.17334-12.25977-23.8064-23.7417-12.94482-4.08789-20.16772-9.45117-19.53711-13.2478.01025-.063-.0647-.13086-.20142-.20142.13672-.0708.21167-.13867.20142-.20166-.63062-3.79687,6.592-9.16016,19.53687-13.24829,3.63281-11.48193,10.75-22.47095,23.80615-23.74219-5.46631,12.59155-8.90161,18.40088-4.22852,30.74487.63525,1.67822,19.14355,4.47607,33.84644,6.44629-14.70288,1.9707-33.21069,4.769-33.84644,6.44678C397.38916,629.54126,400.82471,635.35083,406.291,647.94189ZM342.95581,764.04c-9.144-11.13794-20.9436-24.99951-22.78735-24.68408-13.5647,2.31885-17.13135,8.05615-25.85083,18.85938-5.37207-11.40088,1.06421-22.76367,9.69214-31.50049-2.75439-12.71753-1.4873-21.35449,2.28174-22.73291.062-.02295.08643-.11865.08228-.26685.13281.07739.23193.10522.28394.06519,3.13843-2.41821,11.62842.85547,21.81885,9.48511,12.26074-2.74585,25.81494-2.37183,33.499,7.75781-14.186,1.78857-21.188,1.8606-30.07959,11.886C330.68726,734.272,337.396,750.93164,342.95581,764.04Zm-79.4082-77.77344c-.63037,4.70825-12.27759,22.91553-13.54663,23.63818-1.26953-.72266-12.91675-18.92969-13.54736-23.63794-1.001-7.47827,5.03247-16.47681,11.915-15.25757V654.96948c-2.23437-6.06909-6.2771-11.385-11.886-13.53149-5.05615,11.21265-6.31641,23.00391-16.07568,31.9314-4.53589,4.14917-9.97095,6.52246-14.70972,10.46484,1.2207-5.88354.63623-11.55322,2.14331-17.37231,3.24048-12.51074,13.33569-19.4458,21.00659-29.2207-4.75684-3.55176-11.61353-4.22754-18.251-3.03467l-14.58984,8.02c4.55029,5.06543-.61816,14.53906-7.9209,17.45313-4.59741,1.83472-26.98242,1.33447-28.27417.64917.02222-1.408,10.76-20.11523,14.72729-22.98926,6.30176-4.56421,17.50342-4.08862,19.83594,2.19556l14.5896-8.02c4.40356-4.87646,7.21729-10.86792,6.36475-16.56592-12.72632,1.43726-24.082,6.29395-37.08179,2.71069-6.0542-1.6687-10.937-4.97314-16.90845-6.90747,5.97119-1.93457,10.85425-5.23926,16.908-6.90771,12.99976-3.58325,24.356,1.27295,37.08228,2.71045.85254-5.69824-1.96118-11.68945-6.36475-16.56616l-14.59033-8.01978c-2.33228,6.28442-13.53345,6.75977-19.83545,2.1958-3.96753-2.87427-14.70483-21.58105-14.72754-22.98877,1.29175-.68555,23.67676-1.18579,28.27441.64844,7.303,2.91406,12.47095,12.38818,7.92065,17.45313l14.59033,8.02c6.63745,1.19263,13.49414.51709,18.25049-3.03491-7.6709-9.7749-17.76611-16.70972-21.00659-29.22021-1.50708-5.81909-.92285-11.489-2.14355-17.3728,4.739,3.94287,10.17407,6.31592,14.71,10.46509,9.75928,8.92749,11.01953,20.71851,16.07568,31.93091,5.60889-2.14648,9.6521-7.46191,11.886-13.53125v-16.04c-6.88257,1.21924-12.916-7.77881-11.91528-15.25732C237.08325,530.52905,248.731,512.322,250,511.59937c1.26953.72266,12.91675,18.92969,13.54736,23.63794,1.00049,7.47852-5.033,16.47656-11.91553,15.25732v16.04c2.23389,6.06934,6.2771,11.38477,11.886,13.53125,5.05615-11.2124,6.31641-23.00342,16.07568-31.93091,4.5354-4.14868,9.97-6.52173,14.70825-10.46362-1.22021,5.88281-.63574,11.55225-2.14282,17.37061-3.24048,12.5105-13.3352,19.44556-21.0061,29.2207,4.75684,3.55176,11.61353,4.22729,18.251,3.03442l14.58984-8.01978c-4.55029-5.06543.61792-14.53955,7.92041-17.45337,4.5979-1.83447,26.98267-1.33472,28.27466-.64941-.02271,1.40771-10.76,20.11523-14.72729,22.989-6.30225,4.5647-17.50342,4.08936-19.83594-2.19507l-14.58936,8.02c-4.40381,4.87671-7.21753,10.86792-6.365,16.56616,12.72656-1.43774,24.082-6.29419,37.08179-2.71118,6.0542,1.6687,10.937,4.97339,16.90869,6.90771-5.97168,1.93433-10.85449,5.239-16.90845,6.90771-12.99951,3.58325-24.35547-1.27295-37.082-2.7102-.85254,5.698,1.96118,11.68945,6.36523,16.56592l14.58984,8.02c2.33228-6.28467,13.53394-6.7605,19.83569-2.196,3.96753,2.87378,14.70557,21.58105,14.72778,22.989-1.29175.6853-23.67676,1.18555-28.27441-.64893-7.303-2.91382-12.47144-12.38745-7.92114-17.45312l-14.58984-8.01953c-6.63745-1.19287-13.49414-.51685-18.25073,3.03467,7.67065,9.77515,17.76611,16.71,21.00684,29.22046,1.50708,5.81909.9231,11.489,2.1438,17.37256-4.73926-3.94287-10.17432-6.31567-14.71-10.46484-9.75952-8.92725-11.01978-20.71826-16.07593-31.93091-5.60937,2.14624-9.6521,7.46191-11.886,13.53149v16.03979C258.51489,669.79,264.54834,678.78857,263.54761,686.2666Zm-95.44189,46.64355c-8.89136-10.0249-15.89331-10.09717-30.07959-11.88525,7.68408-10.12988,21.23755-10.50415,33.499-7.75854,10.19019-8.62964,18.68018-11.90356,21.81836-9.48511.052.03979.15137.01172.28418-.06543-.00439.14819.02.24365.08276.26685,3.76855,1.37842,5.03589,10.01538,2.28174,22.73315,8.62744,8.73657,15.06421,20.09912,9.69287,31.5-8.72021-10.80273-12.28662-16.54-25.85156-18.85889-1.84375-.31519-13.64282,13.54614-22.78662,24.68408C162.606,750.93262,169.3147,734.27344,168.10571,732.91016ZM97.938,617.19922c-.63525-1.678-19.14307-4.47632-33.84619-6.44653,14.70313-1.97046,33.21094-4.76855,33.84619-6.44678,4.6731-12.344,1.2373-18.15332-4.22852-30.74463,13.05566,1.271,20.17285,12.25952,23.80591,23.7417,12.94482,4.08789,20.16772,9.45142,19.53711,13.248-.0105.06274.0647.13062.20142.20142-.13672.0708-.21191.13867-.20142.20166.63062,3.79663-6.59229,9.15991-19.53711,13.2478-3.63257,11.48218-10.75024,22.4707-23.80591,23.74219C99.17578,635.35278,102.61108,629.54346,97.938,617.19922ZM79.99683,520.916c-13.4856-1.13843-13.06323-.19141-23.77563-8.27856-1.60645-1.21265-3.33032-2.58887-5.10059-4.052q.37939-6.29773.89111-12.49658c4.27612,1.28052,8.387,2.63672,11.85352,3.94287,12.71216,4.78955,11.63965,4.91479,19.41821,15.46484a29.06161,29.06161,0,0,1,2.70972,5.10254A32.52209,32.52209,0,0,1,79.99683,520.916Zm74.13379-167.44043c-.81763,3.75073-.40845,7.44092-3.41748,10.34888a13.53751,13.53751,0,0,1-10.44629,3.54395c-5.89893-.57153-10.95972-4.53223-14.14478-9.2937a23.07989,23.07989,0,0,1-2.92041-6.07422h52.15186c-.01929.1936-.0481.38574-.0603.58057-.42554,6.84473,3.52124,13.55615,9.387,17.37988,6.31787,4.11865,15.02734,3.81958,22.33936,5.17627,5.39453,1.00073,11.08716,3.26221,13.72925,8.11963,1.95532,3.59351,1.29395,9.21973-2.2666,11.728-3.696,2.60449-9.65454,1.97681-13.06152-.71826a10.47317,10.47317,0,0,1-2.73706-12.9165,11.38007,11.38007,0,0,0-9.0271,8.70679,13.79126,13.79126,0,0,0,3.717,12.03247,21.4198,21.4198,0,0,0,11.80981,6.05981,24.0993,24.0993,0,0,0,7.96167.17163c1.33618-.20361,2.54834-.65723,3.844-.97852,1.45923-.36157,1.4021-.51611,1.79419,1.00122a33.91167,33.91167,0,0,1,.4021,12.8335,38.41141,38.41141,0,0,1-11.18823,22.38477,37.782,37.782,0,0,1-22.04639,10.08862c-5.24023.55444-20.77124.2959-15.19458-9.001,1.63135-2.72021,4.64941-4.36377,7.02881-6.52759,13.1853-11.989,4.68384-38.83057-4.70679-50.66626-1.498-1.8877-4.09155-3.8064-6.207-2.5647-2.10449,1.23535-1.49951,4.20776-1.10864,6.532a13.92114,13.92114,0,0,1-2.12378,10.3186c-8.07275,11.41382-22.90088,3.62842-29.27979-4.85229-3.55518-4.72607-6.30469-10.54639-6.69165-16.44824a22.01727,22.01727,0,0,0,19.23218,3.07715c6.39282-2.11133,11.45508-7.74268,12.26685-14.13867A15.662,15.662,0,0,0,154.13062,353.47559Zm10.77905-43.1875c-.084,1.36133-1.957,1.36133-2.89258,1.36133h-6.80664c-3.14844,0-4.67969,2.6377-4.67969-25.52441,0-23.56836-.67969-28.84375,1.70117-28.92871h7.0625c1.27734,0,2.80859-.42578,2.89258,1.19141.16992,1.27637.3418,2.89258,2.043,2.89258,1.27539,0,2.72266-1.36133,4.50977-2.72266,1.78516-1.27637,3.82813-2.6377,6.125-2.6377a8.16,8.16,0,0,1,7.91211,8.33789c0,5.95605-4.84961,9.5293-7.40234,9.5293-1.01953,0,.17188-5.7002-5.69922-5.7002-7.14648,0-7.6582,11.48633-7.6582,16.59082C162.01709,301.60938,164.90967,308.75684,164.90967,310.28809Zm36.584-.85059c0,2.72266-2.55273,2.21191-4.50977,2.21191h-5.78516c-4.16992,0-4.50977,1.78711-4.50977-28.16211,0-29.09863,1.36133-26.291,4.16992-26.291h4.67969c3.57227,0,3.6582.25488,3.6582,1.27637,0,3.14844-1.02148,6.2959-1.02148,15.57031A177.64682,177.64682,0,0,0,201.49365,309.4375Zm9.1875-37.52148c0-10.38086,8.33789-15.99609,17.52734-15.99609,10.63477,0,16.50586,6.38086,16.50586,8.083,0,1.61621-4.76562,8.50879-6.72266,8.50879-2.21094,0-2.72266-6.55176-10.55078-6.55176-2.63672,0-6.21094,1.19141-6.21094,3.74316,0,8.76367,24.8457,8.59375,24.8457,25.86523,0,11.06152-9.18945,17.35742-19.40039,17.35742-9.01758,0-17.95117-5.27539-17.95117-15.23047,0-3.998,2.041-9.10352,2.72266-9.10352.42578,0,2.55273,12.84766,14.63281,12.84766,3.49023,0,7.57422-1.78711,7.57422-6.126C233.65381,286.5498,210.68115,288.84766,210.68115,271.916Zm42.60547,153.7439A29.40158,29.40158,0,0,1,250,430.44556a29.40158,29.40158,0,0,1-3.28662-4.78564c-5.707-11.68872-6.35718-10.8667-4.35718-23.74341A196.86875,196.86875,0,0,1,250,371.48291a196.86875,196.86875,0,0,1,7.6438,30.43359C259.6438,414.79321,258.99365,413.97119,253.28662,425.65991Zm5.73,66.44678c-2.74976,2.31787-6.58716,1.634-9.0166,2.31787-2.429-.68384-6.26685,0-9.0166-2.31787-2.72949-2.30127,5.93286-28.69312,9.0166-30.79956C253.08374,463.41357,261.74609,489.80542,259.0166,492.10669Zm-37.1792-140.1062c-3.06055,5.16162-8.39819,9.21436-15.998,10.8457-6.05884,1.30078-14.66138-.25586-14.60742-8.21558a9.23556,9.23556,0,0,1,.41821-2.63013Zm-64.792,105.46289c9.1438,11.13818,20.94336,24.99951,22.78711,24.68433,13.5647-2.31885,17.13135-8.0564,25.85132-18.85913,5.37158,11.40063-1.0647,22.76367-9.69238,31.50024,2.75391,12.71753,1.48706,21.35474-2.282,22.73315-.0625.0227-.08667.11865-.08276.2666-.13232-.07739-.23193-.10522-.28369-.06519-3.13818,2.41846-11.62817-.85547-21.81909-9.48511-12.26025,2.74561-25.8147,2.37134-33.49878-7.75806,14.18628-1.78857,21.18823-1.8606,30.07959-11.88574C169.31348,487.23145,162.605,470.57178,157.04541,457.46338Zm-10.457,86.53174c.7334,3.42578-1.80762,6.24854-2.3999,8.59326-1.83667,1.66089-3.13354,5.16748-6.61646,6.27563-3.458,1.09985-23.1333-19.23828-23.50732-22.83423C117.52246,534.54028,145.85962,540.59424,146.58838,543.99512Zm-9.01611,118.64575c3.48315,1.10791,4.78027,4.6145,6.6167,6.27515.59229,2.345,3.1333,5.16748,2.3999,8.59351-.72852,3.40137-29.06543,9.45483-32.52319,7.96558C114.43921,681.87939,134.1145,661.54077,137.57227,662.64087Zm168.77148-272.584a11.38069,11.38069,0,0,0-9.02734-8.70679,10.47255,10.47255,0,0,1-2.73706,12.9165c-3.407,2.69507-9.36523,3.32275-13.06152.71826-3.56055-2.5083-4.22192-8.13452-2.2666-11.728,2.64209-4.85742,8.33472-7.1189,13.72925-8.11963,7.312-1.35669,16.02148-1.05762,22.33936-5.17627,5.866-3.82373,9.81274-10.53516,9.38721-17.37988-.01221-.19482-.041-.387-.0603-.58057h52.15186a23.073,23.073,0,0,1-2.92065,6.07422c-3.18506,4.76147-8.24585,8.72217-14.14453,9.2937a13.53806,13.53806,0,0,1-10.44653-3.54395c-3.009-2.908-2.59985-6.59814-3.41748-10.34888a15.66239,15.66239,0,0,0-9.03564,15.90381c.81177,6.396,5.874,12.02734,12.26709,14.13867a22.01688,22.01688,0,0,0,19.23193-3.07715c-.387,5.90186-3.13647,11.72217-6.69116,16.44824-6.37891,8.48071-21.20752,16.26611-29.28,4.85229a13.92015,13.92015,0,0,1-2.124-10.3186c.39087-2.32422.99585-5.29663-1.10889-6.532-2.115-1.2417-4.70874.677-6.20654,2.5647-9.39087,11.83569-17.89233,38.67725-4.707,50.66626,2.37964,2.16382,5.39722,3.80737,7.02881,6.52759,5.57666,9.29688-9.9541,9.55542-15.19458,9.001a37.782,37.782,0,0,1-22.04639-10.08862A38.4079,38.4079,0,0,1,276.81519,421.177a33.90166,33.90166,0,0,1,.40161-12.8335c.39258-1.51733.335-1.36279,1.79419-1.00122,1.29565.32129,2.50781.7749,3.844.97852a24.09916,24.09916,0,0,0,7.96167-.17163,21.419,21.419,0,0,0,11.80981-6.05981A13.79212,13.79212,0,0,0,306.34375,390.05688Zm-28.18115-38.0564h30.1875a9.23531,9.23531,0,0,1,.418,2.63013c.054,7.95972-8.54858,9.51636-14.60693,8.21558C286.561,361.21484,281.22314,357.16211,278.1626,352.00049ZM328.47437,508.2373c-10.19067,8.62964-18.68042,11.90381-21.8186,9.48535-.05176-.04-.15063-.01245-.28247.06445.00415-.14722-.02051-.24243-.08276-.26514-3.769-1.37842-5.03589-10.01562-2.282-22.73315-8.6272-8.73657-15.064-20.09961-9.69238-31.50024,8.72,10.80273,12.28662,16.54028,25.85132,18.85913,1.84375.31519,13.63818-13.54,22.781-24.677-5.55859,13.10718-12.26367,29.76-11.05518,31.12256,8.89185,10.0249,15.8938,10.09717,30.07983,11.88525C354.28906,510.60815,340.73535,510.98242,328.47437,508.2373Zm57.45972,27.79077c-.374,3.5957-20.04858,23.93433-23.50684,22.83447-3.48291-1.10791-4.78027-4.6145-6.6167-6.27539-.59229-2.345-3.1333-5.16748-2.3999-8.59351C354.13916,540.59277,382.47632,534.53882,385.93408,536.02808Zm-32.522,141.48c-.73364-3.426,1.80762-6.24854,2.3999-8.59351,1.83667-1.66064,3.13354-5.167,6.61646-6.27539,3.458-1.1001,23.1333,19.23828,23.50732,22.834C382.47778,686.96265,354.14087,680.90942,353.41211,677.50806Zm48.269-405.592c0-10.38086,8.33789-15.99609,17.52734-15.99609,10.63477,0,16.50586,6.38086,16.50586,8.083,0,1.61621-4.76562,8.50879-6.72266,8.50879-2.21094,0-2.72266-6.55176-10.55078-6.55176-2.63672,0-6.21094,1.19141-6.21094,3.74316,0,8.76367,24.8457,8.59375,24.8457,25.86523,0,11.06152-9.18945,17.35742-19.40039,17.35742-9.01758,0-17.95117-5.27539-17.95117-15.23047,0-3.998,2.041-9.10352,2.72266-9.10352.42578,0,2.55273,12.84766,14.63281,12.84766,3.49023,0,7.57422-1.78711,7.57422-6.126C424.65381,286.5498,401.68115,288.84766,401.68115,271.916ZM432.1333,404.54883c-2.27393.87207-4.52026,1.52856-7.17407.87183a12.987,12.987,0,0,1-8.447-6.842c-2.4292-5.14893-1.35718-11.30249,1.38086-16.30933a23.06485,23.06485,0,0,1,5.094-6.39111Q428.025,389.80188,432.1333,404.54883ZM400.322,398.0249a19.617,19.617,0,0,0,6.81714,17.396,19.32957,19.32957,0,0,0,18.9939,3.04517,16.507,16.507,0,0,0,7.91455-6.86792q2.28552,8.79346,4.22778,17.87622a20.21235,20.21235,0,0,0-1.91406,7.02124c-.58716,7.2688,4.03979,14.30029,6.46191,21.00781,1.78662,4.94824,2.57617,10.7727-.52075,15.38037-2.29126,3.40869-7.7395,5.67627-11.80176,3.99487-4.2168-1.74536-6.62476-6.97192-5.877-11.12915.8418-4.67969,5.39795-8.50488,10.37964-8.71484-2.90088-3.34082-8.11475-4.46338-12.43286-3.08936a14.57532,14.57532,0,0,0-9.08618,9.08105,19.17085,19.17085,0,0,0,.39331,12.76782,21.56838,21.56838,0,0,0,3.82422,6.65039c.854.99951,1.87231,1.77222,2.81226,2.67993,1.05908,1.02222,1.17041.89795-.01318,1.98a37.71393,37.71393,0,0,1-11.47266,6.74829,43.05989,43.05989,0,0,1-25.95483,1.968,37.10966,37.10966,0,0,1-20.2002-13.13379c-3.12476-4.04395-10.65479-16.97876.5896-17.0293,3.29028-.01465,6.29443,1.65186,9.45215,2.53174,17.4978,4.877,37.66187-15.55347,43.73218-29.2146.96826-2.179,1.41626-5.2771-.77075-6.3999-2.17578-1.11743-4.57715.86743-6.49609,2.35181a15.70825,15.70825,0,0,1-10.44727,3.408c-14.41821-.949-14.751-17.06812-10.22656-26.56836A32.99517,32.99517,0,0,1,400.322,398.0249Zm-29.18384-142.105c2.72266,0,14.37891-.085,18.71875,11.82617,1.78711,4.93555,1.957,30.12012,1.957,33.09766,0,3.74414.67969,5.95605.67969,8.84863,0,1.78711-7.99609,1.957-15.57031,1.957-20.50391,0-21.95117-10.5498-21.95117-15.65527,0-6.63184,4.2229-12.17822,9.606-15.65381,1.90088-1.22705,6.11865-4,8.5061-3.59131,4.07788.69727,3.8562,5.83447,1.49561,7.96387-3.407,3.07373-8.12134,3.3623-8.12134,9.32422,0,4.76465,4.16992,7.57227,8.67969,7.57227,7.43018,0,5.8501-14.249,5.78271-19.64453-.08154-6.52295-1.25781-16.00684-9.7002-16.00488-8.67578.002-7.39917,7.31738-9.272,7.31738-2.72266,0-5.69922-3.31836-5.69922-6.97754C356.24951,260.00391,363.31006,255.91992,371.13818,255.91992Zm-50.44531-89.9668h6.66406c1.05664,0,2.84375-.24414,2.84375,1.46289,0,1.1377-.73047,3.65723-.73047,6.09473,0,9.50879,7.96289,18.44824,9.58789,18.44824,3.252,0,5.44531-9.752,5.44531-16.00977,0-4.06348-.89258-7.47656-.89258-8.77734,0-1.46289,2.03125-1.21875,2.92578-1.21875H353.769c1.543.24414,1.30078,2.84473,1.30078,6.33887.73047,23.81152-17.63672,46.8916-35.51562,46.8916-1.86914,0-1.94922-1.21875-1.94922-3.08789v-7.15137c0-.97559.16211-3.332,2.35547-3.332,9.3457,0,11.78516-3.00684,11.78516-4.06348,0-3.41309-14.14062-9.18359-14.14062-31.77637C317.605,166.11523,317.52295,165.95313,320.69287,165.95313Zm-.59961,95.15723a9.56026,9.56026,0,0,0,5.01953-1.53223,16.04046,16.04046,0,0,1,7.82813-2.38184c15.6543,0,15.31445,20.50488,15.31445,31.39551,0,25.9502-3.23242,23.05762-5.69922,23.05762H336.769c-.84961,0-3.23242.16992-3.23242-1.36133s3.23242-10.89062,3.23242-25.09961c0-16.251-5.78516-17.95215-9.01758-17.95215-2.97852,0-5.78711-.25586-5.78711,13.7832,0,30.54492-.42383,30.62988-3.14648,30.62988h-7.6582c-1.61719,0-2.97852.34082-2.97852-.85059,0-1.27637,3.23438-18.37793,3.23438-26.46094,0-5.10547,0-17.10156-6.97656-17.10156-6.38281,0-8.76367,7.82715-8.76367,20.50488,0,17.10156,2.38086,20.335,2.38086,22.7168,0,1.44629-1.53125,1.19141-2.4668,1.19141h-6.7207c-2.89453,0-4.67969,2.72266-4.67969-22.46191,0-35.82031-1.10742-34.71387,10.46484-34.71387,1.78711,0,3.6582.085,3.6582,1.36133,0,1.02051-1.02148,2.6377-1.02148,3.8291a1.6111,1.6111,0,0,0,1.70313,1.44629c1.01953,0,2.21094-1.02148,4.084-1.957a16.17791,16.17791,0,0,1,7.99609-1.957C315.24365,257.19629,317.96631,261.11035,320.09326,261.11035Zm-35.39844-95.15723H291.439c1.21875,0,2.68164-.40625,2.76367,1.1377.16211,1.21875.32422,2.7627,1.94922,2.7627,1.2207,0,2.60156-1.2998,4.30859-2.59961,1.707-1.21973,3.65625-2.51953,5.85156-2.51953a7.79328,7.79328,0,0,1,7.55664,7.96387c0,5.68848-4.63086,9.10254-7.07031,9.10254-.97461,0,.16406-5.44531-5.44531-5.44531-6.82617,0-7.3125,10.97168-7.3125,15.84766,0,16.17188,2.76172,22.999,2.76172,24.46094-.08008,1.30078-1.86914,1.30078-2.76172,1.30078h-6.502c-3.00781,0-4.4707,2.51953-4.4707-24.38086C283.06787,171.07324,282.41943,166.03418,284.69482,165.95313Zm-5.7793,96.43359c0,1.19043,0,4.42383-1.78711,4.42383-.67969,0-2.38281-.76562-3.91406-.76562-4.67969,0-4.67969,5.44531-4.67969,13.01758,0,22.63184,4.76563,26.376,4.76563,27.82227,0,1.27637-9.86914,6.041-11.82617,6.041-3.23437,0-4.084-18.97363-4.084-23.65332,0-10.46484.50977-14.54883.50977-16.166,0-2.55176.76563-7.06152-3.0625-7.06152-1.53125,0-2.38281,1.02148-3.31836,1.02148-1.10547,0-1.02148-1.10645-1.02148-2.6377,0-6.4668,1.87109-7.23242,5.10547-7.23242a12.63371,12.63371,0,0,0,1.61719.34082c2.63672,0,2.89258-4.16992,3.31641-7.14746.42578-3.2334,9.95508-5.61523,11.6582-5.61523.59375,0,1.01953.16992,1.01953,1.78613,0,2.29785-2.55273,7.4873-2.55273,8.50879,0,1.53125.42578,2.55273,1.70313,2.55273,1.10547,0,2.127-.42578,3.23242-.42578C278.82959,257.19629,278.91553,259.49316,278.91553,262.38672Zm-2.58984-89.68848c0,5.68848-4.63086,9.10254-7.07031,9.10254-.97461,0,.16406-5.44531-5.44531-5.44531-6.82617,0-7.3125,10.97168-7.3125,15.84766,0,16.17188,2.76172,22.999,2.76172,24.46094-.08008,1.30078-1.86914,1.30078-2.76172,1.30078h-6.502c-3.00781,0-4.4707,2.51953-4.4707-24.38086,0-22.51074-.64844-27.5498,1.627-27.63086H253.896c1.21875,0,2.68164-.40625,2.76367,1.1377.16211,1.21875.32422,2.7627,1.94922,2.7627,1.2207,0,2.60156-1.2998,4.30859-2.59961,1.707-1.21973,3.65625-2.51953,5.85156-2.51953A7.79328,7.79328,0,0,1,276.32568,172.69824ZM249.8335,43.00049a23,23,0,1,1-23,23A22.99989,22.99989,0,0,1,249.8335,43.00049ZM222.52881,164.73438c8.93945,0,16.498,5.03809,16.498,14.62793,0,5.86279-3.4043,9.96-8.41406,12.56689-4.06494,2.11475-12.178,6.22656-15.15991.58691-4.73022-8.94775,13.49512-4.77637,13.49585-12.01611,0-3.98242-3.73828-6.17578-6.82617-6.17578-8.65454.00049-11.38745,8.96484-11.67822,16.14746-.36548,9.03467,1.67944,17.74121,12.65283,17.74121,13.32813,0,13.32813-10.15918,14.4668-10.15918,1.21875,0,1.46289,4.22656,1.46289,4.877,0,10.32031-7.96484,16.25293-17.7168,16.25293-14.54687,0-20.56055-12.02734-20.56055-25.03027C200.74951,174.48633,211.63818,164.73438,222.52881,164.73438Zm-21.80078,80.21c0,3.6582-3.14844,5.61523-6.55078,5.61523-3.4043,0-6.55273-1.957-6.55273-5.61523s3.14844-5.87109,6.55273-5.87109C197.57959,239.07324,200.728,241.28613,200.728,244.94434Zm-62.4707-94.59473h7.47656c3.16992,0,4.30859,0,8.28906,5.44531,7.64063,10.4834,8.127,16.416,9.75391,16.416,1.21875,0,1.70508-5.93262,10.32031-16.416,4.55078-5.52637,5.76953-5.44531,8.93945-5.44531h6.33984c1.38086,0,5.60742-1.46289,5.60742,38.68359,0,30.47559-2.43945,28.93164-4.4707,28.93164H180.11084c-.97461,0-2.92578.24414-2.92578-1.21875,0-1.1377,4.63281-15.7666,4.63281-36.97754,0-1.70605.24414-11.70215-2.4375-11.70215-2.35742,0-5.44531,8.04492-6.25781,9.99609-6.82812,16.65918-4.06445,24.29883-9.50977,24.29883-6.82617,0-4.14453-7.63965-11.377-24.29883-.8125-1.78809-3.49414-9.99609-6.01367-9.99609-2.68164,0-2.60156,9.99609-2.60156,11.70215,0,21.21094,5.12109,35.83984,5.12109,36.97754,0,1.46289-1.95117,1.21875-2.92578,1.21875h-8.69531c-2.0332,0-4.4707,1.54395-4.4707-28.93164C132.6499,148.88672,136.87646,150.34961,138.25732,150.34961ZM109.353,239.07324h9.27539c.76563,0,1.36133.93652,1.36133,1.78711,0,1.19141-3.23437,9.5293-3.23437,16.33594,0,1.02051,0,2.6377,1.44727,2.6377.67969,0,2.041-.76562,3.91406-1.87207a15.34444,15.34444,0,0,1,7.14648-2.042c7.74219,0,13.44336,5.53027,13.44336,26.03516,0,8.168-1.19141,29.69434-3.82812,29.69434h-8.84961c-.76562,0-3.0625.25488-3.0625-1.10645,0-.5957,4.25391-17.44141,4.25391-28.75781,0-13.1875-2.21289-15.8252-6.38086-15.8252-8.67969,0-8.84961,13.27246-8.84961,19.31348,0,17.0166,1.873,22.54688,1.873,25.01465,0,1.36133-1.61719,1.36133-2.46875,1.36133h-8.42187c-2.46875,0-2.46875,2.89258-2.46875-34.88379C104.50342,269.959,104.67529,239.07324,109.353,239.07324Zm1.9375,172.69482c4.52441,9.50049,4.19214,25.61963-10.22607,26.56885a15.71254,15.71254,0,0,1-10.44775-3.408c-1.91895-1.48437-4.32007-3.46948-6.49561-2.35181-2.18726,1.123-1.73926,4.22119-.77075,6.3999,6.07007,13.66113,26.23486,34.09131,43.73267,29.21411,3.15771-.88013,6.16138-2.54663,9.4519-2.53174,11.24438.05029,3.71436,12.98511.59009,17.02905a37.11352,37.11352,0,0,1-20.2002,13.13428A43.061,43.061,0,0,1,90.96973,493.855a37.724,37.724,0,0,1-11.47266-6.748c-1.18359-1.08228-1.07178-.95752-.01318-1.98.93994-.90771,1.95825-1.68066,2.812-2.68018a21.5572,21.5572,0,0,0,3.82446-6.65039,19.17144,19.17144,0,0,0,.39307-12.76807,14.57723,14.57723,0,0,0-9.08618-9.08081c-4.31812-1.37378-9.53247-.25122-12.43311,3.08984,4.98193.21,9.53809,4.03491,10.37988,8.71484.7478,4.157-1.65967,9.38354-5.877,11.12915-4.062,1.68164-9.51025-.58643-11.80176-3.99512-3.09668-4.60742-2.30762-10.43164-.52051-15.38013,2.42163-6.70752,7.04858-13.739,6.46143-21.00806a20.207,20.207,0,0,0-1.91284-7.01758q1.96033-9.06738,4.228-17.87671a16.50609,16.50609,0,0,0,7.91284,6.86475,19.32931,19.32931,0,0,0,18.9939-3.04565,19.61786,19.61786,0,0,0,6.81689-17.396A32.99956,32.99956,0,0,1,111.29053,411.76807ZM67.866,404.55225q4.10449-14.74438,9.14575-28.66943a23.05629,23.05629,0,0,1,5.09131,6.38867c2.73828,5.00732,3.811,11.1604,1.38135,16.30957a12.98668,12.98668,0,0,1-8.44653,6.842C72.385,406.07959,70.13916,405.42383,67.866,404.55225ZM78.55811,239.584c7.40234,0,18.80273,3.14844,18.80273,12.33691,0,4.93457-3.4043,7.74316-8.76367,7.74316-3.48828,0,1.19141-7.998-9.61523-7.998-12.42187,0-17.69727,12.67773-17.69727,23.3125,0,16.251,11.0625,22.80273,18.46484,22.80273,13.86719,0,15.05859-12.42285,15.82422-12.42285,1.19141,0,1.873,6.80664,1.873,7.6582,0,12.5918-9.70117,19.90918-21.61133,19.90918-19.31445,0-28.334-17.52734-28.334-34.71387C47.50146,259.749,57.88232,239.584,78.55811,239.584ZM50.63159,569.15381q-.6427-11.1156-.65649-22.3623,0-6.21057.11621-12.33838c.12036-.49365.238-.98877.38159-1.48486.40088-1.384.23169-1.41357,1.80786-.979a37.99024,37.99024,0,0,1,11.874,6.08569,39.1845,39.1845,0,0,1,14.76758,20.41724,33.67151,33.67151,0,0,1-1.84668,23.22217c-2.11572,4.59839-10.11621,17.2749-15.78442,8.02856-1.65869-2.70581-1.645-6.01587-2.42334-9.05957C57.68872,576.07227,54.68506,572.24609,50.63159,569.15381Zm9.17749,66.73926a12.56172,12.56172,0,0,1,1.48218-4.13062c5.66821-9.24634,13.6687,3.42993,15.78442,8.02832a33.67219,33.67219,0,0,1,1.84717,23.22241,37.14538,37.14538,0,0,1-8.35083,14.634C66.50659,664.15234,62.86255,650.2002,59.80908,635.89307ZM127.08374,753.314c-8.30884-2.31616-17.21167,1.08691-24.928,6.75024-4.605-9.92261-9.18066-20.41357-13.60132-31.38818.80493-.36646,1.61279-.70874,2.41626-1.02588a43.05712,43.05712,0,0,1,25.95508-1.96753,37.10621,37.10621,0,0,1,20.2002,13.1333c3.12451,4.04419,10.65454,16.979-.59009,17.02979C133.24585,755.86011,130.2417,754.19385,127.08374,753.314Zm68.18921,154.13721c-11.59741-13.58325-23.28613-28.85034-34.57837-45.11743a15.35373,15.35373,0,0,0,2.47363-10.2085c-.81177-6.396-5.874-12.0271-12.26685-14.13867a20.42066,20.42066,0,0,0-6.9519-.9834q-3.38269-5.37891-6.67578-10.83862c.35474-.52466.71045-1.04858,1.08667-1.54883,6.37891-8.48047,21.207-16.26611,29.27954-4.85254a13.9199,13.9199,0,0,1,2.12427,10.31836c-.39062,2.32446-.99561,5.29688,1.10864,6.53223,2.11548,1.2417,4.709-.677,6.20728-2.56494,9.39038-11.83545,17.89136-38.67725,4.70605-50.66626-2.37939-2.16333-5.39746-3.80737-7.02881-6.52759-5.57666-9.29639,9.95435-9.55518,15.19482-9.001a37.78672,37.78672,0,0,1,22.04663,10.08838,38.41463,38.41463,0,0,1,11.188,22.38477,33.90186,33.90186,0,0,1-.40186,12.8335c-.39258,1.51733-.33545,1.363-1.79468,1.00122-1.29565-.32129-2.50732-.77441-3.84375-.97852a24.10062,24.10062,0,0,0-7.96094.17163,21.421,21.421,0,0,0-11.8103,6.0603,13.78731,13.78731,0,0,0-3.7168,12.032,11.37879,11.37879,0,0,0,9.02686,8.70679,10.47252,10.47252,0,0,1,2.73682-12.91626c3.40723-2.69482,9.36523-3.32275,13.06177-.71875,3.56055,2.50879,4.22168,8.13477,2.2666,11.72852-2.64209,4.85742-8.33423,7.11865-13.729,8.11963-7.31226,1.35693-16.021,1.05786-22.33936,5.176-5.866,3.82422-9.813,10.53564-9.38721,17.38013.61133,9.82153,10.13037,18.37451,20.46436,18.38623,5.89014.00708,12.272-3.15625,13.65649-8.60693-.27295,1.07446-9.66357-1.46387-10.92969-1.96094-4.0979-1.60889-7.22339-5.594-7.2522-9.86816-.0542-7.95947,8.54834-9.51611,14.60718-8.21558,20.1853,4.3335,24.53589,25.69238,12.17017,39.761C212.51172,904.67578,203.7395,908.47266,195.27295,907.45117Zm20.16528,21.999a13.9227,13.9227,0,0,1,10.24341-3.02539c10.762,1.38257,10.87915,13.39575,11.60962,22.728A236.195,236.195,0,0,1,215.43823,929.4502ZM257.64575,819.5874a196.956,196.956,0,0,1-7.644,30.43384,196.94123,196.94123,0,0,1-7.6438-30.43384c-2-12.87646-1.3501-12.05469,4.35742-23.74316a29.341,29.341,0,0,1,3.28589-4.78564,29.40715,29.40715,0,0,1,3.28662,4.78564C258.99536,807.53271,259.645,806.71094,257.64575,819.5874Zm-7.64453-59.39014c-3.08374-2.10693-11.74634-28.49854-9.0166-30.8,2.74951-2.31787,6.58765-1.63379,9.01636-2.31787,2.4292.68408,6.26685,0,9.0166,2.31787C261.74707,731.69873,253.085,758.09033,250.00122,760.19727Zm12.80884,187.70459c.66675-9.12207,1.22778-20.156,11.51318-21.47754a13.7059,13.7059,0,0,1,9.21265,2.2832A259.6026,259.6026,0,0,1,262.81006,947.90186ZM354.49121,837.011a20.0601,20.0601,0,0,0-5.38867.97412c-6.39282,2.11157-11.45508,7.74292-12.26685,14.13892a15.19993,15.19993,0,0,0,1.68286,8.89868c-11.66577,16.76514-23.76514,32.54224-35.76367,46.58594a27.14677,27.14677,0,0,1-20.762-9.19019c-12.36523-14.06812-8.01538-35.42725,12.16992-39.76074,6.05884-1.30078,14.66138.25537,14.60718,8.21509-.02881,4.27393-3.1543,8.259-7.25171,9.86816-1.26636.49731-10.657,3.0354-10.93018,1.96094,1.38452,5.45068,7.76709,8.614,13.657,8.60693,10.334-.012,19.85327-8.56494,20.46387-18.38647.42529-6.84448-3.521-13.55615-9.38721-17.37988-6.31812-4.11816-15.02759-3.81885-22.3396-5.17578-5.39429-1.001-11.08716-3.26221-13.72925-8.11963-1.95508-3.59326-1.2937-9.21973,2.26685-11.72852,3.6958-2.604,9.6543-1.97656,13.06152.71875a10.47347,10.47347,0,0,1,2.7373,12.91626,11.37947,11.37947,0,0,0,9.02661-8.70679,13.78986,13.78986,0,0,0-3.717-12.03223,21.42076,21.42076,0,0,0-11.8103-6.06006,24.08924,24.08924,0,0,0-7.96118-.17163c-1.33667.2041-2.54834.65723-3.844.97852-1.45923.36182-1.4021.51636-1.79468-1.00122a33.90135,33.90135,0,0,1-.40161-12.8335,38.414,38.414,0,0,1,11.1875-22.38477A37.78651,37.78651,0,0,1,310.05054,767.853c5.24048-.5542,20.771-.2959,15.19482,9.001-1.63159,2.72021-4.64941,4.364-7.02905,6.52783-13.1853,11.989-4.68359,38.83057,4.70728,50.666,1.498,1.88794,4.09155,3.80664,6.20679,2.5647,2.105-1.23535,1.49976-4.20776,1.10889-6.53223a13.92127,13.92127,0,0,1,2.12378-10.31812c8.07251-11.41382,22.90112-3.62866,29.28,4.85205.10132.13428.19531.2771.29468.41357Q358.2749,831.06262,354.49121,837.011ZM397.082,759.50659c-7.53613-5.32788-16.12866-8.43433-24.16382-6.19458-3.15771.88037-6.16187,2.54639-9.45215,2.53174-11.24438-.05029-3.7146-12.98511-.58984-17.02905a37.10834,37.10834,0,0,1,20.19971-13.134,43.05771,43.05771,0,0,1,25.95532,1.96729c.57422.22681,1.15112.47412,1.72729.72656C406.30981,739.25342,401.70947,749.65894,397.082,759.50659Zm31.98608-82.26147a37.018,37.018,0,0,1-7.99-14.23413,33.67276,33.67276,0,0,1,1.84619-23.22266c2.11621-4.59839,10.1167-17.27466,15.78491-8.02832a11.73484,11.73484,0,0,1,1.35669,3.55615C436.949,649.675,433.22339,663.686,429.06812,677.24512Zm20.27881-108.07788c-4.043,3.0896-7.03833,6.9104-8.21533,11.51367-.77832,3.04346-.76416,6.35352-2.42285,9.05933-5.66821,9.24634-13.66895-3.42993-15.78491-8.02832a33.67018,33.67018,0,0,1-1.84692-23.22217,39.186,39.186,0,0,1,14.76685-20.41748,37.99551,37.99551,0,0,1,11.87451-6.08569c1.57617-.43506,1.407-.405,1.80762.97925.144.49756.26221.99414.38281,1.4895q.11426,6.12781.11621,12.33618Q450.0249,558.03345,449.34692,569.16724Z"/></svg>