<svg id="Слой_1" data-name="Слой 1" xmlns="http://www.w3.org/2000/svg" viewBox="0 0 500 1000"><title>Flags light bulbs</title><path d="M491.02478,319.74634V146.70288a37.08065,37.08065,0,0,0-37.08057-37.08081H323.13147V28.25049A25.75039,25.75039,0,0,0,297.381,2.5H202.619a25.75039,25.75039,0,0,0-25.75049,25.75049v81.37158H46.056A37.08071,37.08071,0,0,0,8.97522,146.70288V319.74634a37.083,37.083,0,0,0,30.61694,36.50757C20.10168,408.79395,8.97522,472.00366,8.97522,544.291c0,225.27026,185.40381,453.209,241.0249,453.209,51.501,0,241.02466-227.93872,241.02466-453.209,0-72.28735-11.12646-135.49707-30.6167-188.03711A37.083,37.083,0,0,0,491.02478,319.74634ZM298.93127,150.62207l-3.33459,3.33459s.16785-1.23657.42908-3.33459ZM257.4729,228.16528l21.298,21.29883,4.29614,40.48877L257.4729,258.28076Zm10.56982-10.56909H298.1571l31.67261,25.59424-40.48938-4.29614Zm-.00012-14.94629,21.29492-21.2948,40.49072-4.29822-31.67114,25.593Zm10.72925-31.86853-21.299,21.29871V162.71069l9.698-12.08862h13.75244ZM249.83337,40.5a23,23,0,1,1-23,23A22.99989,22.99989,0,0,1,249.83337,40.5ZM232.8418,150.62207,242.52686,162.71v29.37012l-20.76941-20.76929-2.28259-20.68872Zm-30.25305,66.97412h29.36841l-20.769,20.76929-40.03418,4.41834Zm-.002-14.94629-31.43433-25.18506,40.03809,4.41907,20.7666,20.766ZM221.757,248.9353l20.7699-20.76929v30.11548l-25.22424,31.25317Zm-17.5144-98.31323c.36768,2.36938.6123,3.78638.6123,3.78638l-3.78638-3.78638ZM136.34924,606.30859c3.676,10.75732,10.8938,18.14258,22.88037,15.51123-1.23169,14.45923.55225,29.25085,4.22217,43.25391,3.17249,12.10425,9.23718,26.0238,17.57642,35.37317-18.184,11.61267-32.16382,31.65637-41.49121,50.69958-10.90479,22.26392-11.30371,45.61011-4.52332,68.74854a698.68669,698.68669,0,0,1-37.0033-71.44434,3.10336,3.10336,0,0,0,1.59937-3.19653L97.21155,728.917l7.89294,10.02271a3.13442,3.13442,0,1,0,4.925-3.87842l-7.89221-10.02185L117.45642,731.2a3.134,3.134,0,1,0,2.33777-5.81567l-24.62354-9.90234a2.828,2.828,0,0,0-.37366-.10742l-.33545-.08191-10.355-13.14929S101.002,706.283,102.55872,706.468c2.22876.26489,3.60254-.14209,4.32324-1.28088,1.44275-2.27966-.74963-4.59973-3.54-7.17871-.472-.43616-10.77441-10.95569-10.77441-10.95569l16.619,1.97559.24353.24243a2.87221,2.87221,0,0,0,.29016.2666l21.292,15.84033a3.13422,3.13422,0,1,0,3.74109-5.02966l-13.24658-9.8551,12.66772,1.50586a3.1341,3.1341,0,1,0,.74-6.22437l-12.668-1.50586,15.18811-6.47461a3.13419,3.13419,0,1,0-2.4574-5.7666l-24.41211,10.407a2.85055,2.85055,0,0,0-.34741.19238l-.29126.17725-16.6189-1.97559,10.14282-6.37769c.52393-.32959,1.17444-.68579,1.863-1.0625,2.92773-1.60266,6.9375-3.79736,6.23047-6.59106-.36279-1.43311-2.27454-2.36523-5.68237-2.77026-3.5603-.42334-17.24219.14844-17.24219.14844L101.75244,653.833h.28857a3.17322,3.17322,0,0,0,.46326-.03052l26.25732-3.85425a3.13388,3.13388,0,1,0-.90942-6.20142l-16.33691,2.39795,10.02246-7.89282a3.13444,3.13444,0,0,0-3.87817-4.92529l-10.02271,7.89307,6.16138-15.31958a3.13393,3.13393,0,1,0-5.81543-2.33813L98.08,648.18433a2.82005,2.82005,0,0,0-.10779.375l-.082.33582L84.74658,659.24585s5.42834-20.96606,3.10681-22.53247a2.12639,2.12639,0,0,0-.9613-.35425c-3.58667-.42651-9.80261,6.59741-13.142,10.37061-.97949,1.10669-1.8252,2.0625-2.44067,2.667l-1.69031,1.66016L71.58728,634.5l.20483-.2041a3.15884,3.15884,0,0,0,.30664-.35034l15.84033-21.29211a3.13417,3.13417,0,1,0-5.02954-3.74109l-9.85522,13.24683L74.597,609.18164a3.134,3.134,0,0,0-6.22412-.73987L66.8302,621.41919l-6.47485-15.188a3.13415,3.13415,0,0,0-4.11206-1.65454,3.10617,3.10617,0,0,0-1.46509,1.304c-1.63232-10.74219-2.89062-21.63818-3.708-32.6499.39282-.23621.81372-.51306,1.30884-.838,3.84741-2.52527,7.7981-4.91565,11.8313-7.13318,2.68481-1.47607,6.2052-4.02869,9.19678-4.67651,3.1427-.68079,7.04639,2.22791,9.677,3.5542,3.22656,1.62708,6.67017,2.77588,9.89136,4.415,11.601,5.90332,23.08911,11.99817,35.16431,16.89624.967.39233,9.64136,3.91528,9.15234,5.15771-.41724,1.05908-1.05933,2.86548-1.10913,3.10864-.26782,1.30823-.29211,2.63086-.57068,3.93359A16.36093,16.36093,0,0,0,136.34924,606.30859Zm68.05981-111.90076c8.24255,5.097,18.12817,9.65442,27.2981,13.58472,3.52417,1.51038,10.85156,2.28052,13.522,4.90442,3.51257,3.4519,1.65381,10.28064-1.21533,13.51147-6.58008,7.40894-12.93823,1.06274-19.26831-3.51123-7.514-5.42969-14.84668-11.01013-21.27673-17.67041-5.30481-5.512-10.24292-11.26709-15.37268-16.91211-1.31091-1.44263-7.31079-8.99744-6.103-9.58789,2.65405-1.29736,6.459,3.33423,7.7854,4.70886C193.75134,487.55322,199.04968,492.17358,204.40906,494.40784Zm40.89819,283.9303c-7.65881,4.67114-14.9165-6.2063-8.74915-11.81677C243.8866,759.85449,254.21277,772.90845,245.30725,778.33813Zm-2.59692,61.89624c-7.65918,4.66992-14.91663-6.20654-8.74939-11.81714C241.28943,821.75,251.61536,834.80347,242.71033,840.23438Zm1.45361-132.80225c7.32837-6.667,17.65454,6.38672,8.74927,11.81689C245.254,723.91895,237.9967,713.04272,244.16394,707.43213Zm8.74927-50.4314c-7.65942,4.67053-14.91626-6.20654-8.74927-11.81689C251.49231,638.51685,261.8186,651.57092,252.91321,657.00073Zm-8.74927-60.08008c7.32837-6.667,17.65454,6.38672,8.74927,11.81689C245.25378,613.40771,237.99695,602.531,244.16394,596.92065Zm.45325-45.68115c-1.87891-1.0498-9.4115-6.57288-3.64392-5.10474,4.80237,1.22241,9.00806,4.49866,13.96521,5.66357a23.16559,23.16559,0,0,0,19.40149-3.5531,37.91142,37.91142,0,0,0,11.16675-13.15833c.5022-.94836,4.72168-8.47644,4.80725-6.56079.28113,6.29028-5.3634,13.1012-9.40491,17.43774a28.625,28.625,0,0,1-17.31055,9.23145A29.9751,29.9751,0,0,1,244.61719,551.2395Zm-3.38757-48.77368c-2.01489.37378-5.32471,3.68079-6.14868,1.67725-2.488-6.04907,15.76465-6.92261,14.29761-.68933C249.30286,503.77515,242.39294,502.25,241.22961,502.46582Zm42.30811,4.7572c1.76514,8.6283-11.33447,7.44739-12.07227.18494C270.73242,500.19128,282.2334,500.84753,283.53772,507.223Zm-53.63-27.48694c.05139-.09326-1.49036-.731-.82434-.98608,2.68567-1.02844,10.91479-3.81982,13.75-4.25,6.01514-.9126,12.96741-2.35913,19-2,9.80249.58362,24.58691,4.91809,33.15723,9.96094.76343.27686,16.34277,10.66406,14.93652,11.97656C308.80237,495.59351,277.85034,464.26807,229.90771,479.73608ZM65.51855,657.27209q-1.0329-3.90692-2.01611-7.85364Q64.48114,653.36841,65.51855,657.27209Zm-2.01672-7.85583c-3.50488-14.14355-6.46729-28.68945-8.72253-43.52856q.39276,2.58472.814,5.157l9.40283,22.0564a3.12589,3.12589,0,0,0,.21594.41284l.151.24658ZM71.36768,677.761l9.41589-7.415,17.0752.2146-14.45642,9.09033L71.5127,678.23743Q70.456,674.802,69.43762,671.325,70.38721,674.55969,71.36768,677.761ZM69.432,671.30591q-1.93323-6.58887-3.72339-13.31445,1.05139,3.95032,2.1521,7.85742l.57593-4.84485,12.222-12.0033-3.75159,16.4187Zm4.14111,13.48877,9.08936,1.08044,11.92285,12.22668-16.64917-3.79358-2.131-2.70618q3.12689,9.34753,6.47083,18.344c-3.7937-10.22705-7.41235-20.81287-10.76294-31.70752Q72.5271,681.53552,73.57312,684.79468Zm24.4314,63.64282q-1.62122-3.63318-3.23-7.35327Q96.38257,744.8042,98.00452,748.4375Zm-3.26929-7.44495c-4.2749-9.9021-8.46143-20.26978-12.45544-31.03625l7.25623,9.21411.001.34583a2.86033,2.86033,0,0,0,.01685.38977l1.99341,13.5791Q93.1311,737.28308,94.73523,740.99255ZM427.68109,568.59448l-9.67743,7.62122-16.89093-.142,14.338-8.93311ZM404.34576,548.8717l16.45508,3.82239,7.62018,9.676-12.2312-1.45386Zm17.53595,32.26892,9.6778-7.62109-1.49084,12.54163-12.05182,11.76648Zm3.84308-32.32654.14258-16.89172L434.8,546.2605l-1.454,12.2312Zm9.39075,47.892s5.22491,8.80664,9.16235,14.208q-1.65619,9.887-3.7179,19.5874l-7.05066-16.53882a2.87165,2.87165,0,0,0-.19128-.34521l-.17822-.29248Zm8.33319-32.54932,6.26758-4.93579c-.475,11.835-1.49976,23.56763-2.988,35.14941q1.06073-8.25183,1.79864-16.6012l-5.81812-7.38818,6.35083.755q.222-3.12708.38934-6.266Zm2.15015,20.02673-.21527,17.0741-9.0907-14.45679,1.49091-12.5415Zm1.10657,10.36267q-1.06192,8.23755-2.42731,16.36621Q445.63934,602.78595,446.70544,594.54614Zm3.01117-35.33472q.09906-2.47083.16791-4.94678Q449.81769,556.741,449.71661,559.21143Zm.17236-5.15186q.06482-2.39886.09918-4.803Q449.95566,551.66095,449.889,554.05957Zm.09918-4.80322-.49353,2.15991-9.92438,7.81531,1.454-12.23084,8.94519-8.78516q-.04266-4.67889-.14539-9.31506c.1192,5.0929.20074,10.21277.20074,15.3905Q450.02478,546.77631,449.98816,549.25635Zm-.16412-20.35767c-1.3125,1.375-2.52136,2.73755-3.48633,3.82788-.97937,1.10669-1.82513,2.06226-2.44073,2.66675l-1.69025,1.66016,1.96826-16.55664.20471-.20422a3.12889,3.12889,0,0,0,.30658-.35046l4.59656-6.17847Q449.6398,521.26825,449.824,528.89868Zm.20074-212.30884a41.00121,41.00121,0,0,0-28.05713,53.92383c14.6889,39.59717,23.639,84.36792,26.77295,133.47717l-3.09857,4.16492,1.54272-12.97729a3.13407,3.13407,0,0,0-6.2243-.74l-1.54266,12.97742-6.47479-15.188a3.13419,3.13419,0,1,0-5.7666,2.4574l10.40729,24.4126a3.1562,3.1562,0,0,0,.21594.41284l.15106.24634-1.96747,16.54956s-10.51135-17.944-12.8479-18.22168a2.78268,2.78268,0,0,0-1.00928.06836c-3.75983.923-2.60345,22.785-2.60345,22.785l-10.32446-13.11011-.001-.34717a2.81688,2.81688,0,0,0-.01672-.38745l-3.85345-26.25745a3.1339,3.1339,0,1,0-6.20148.90942l2.3974,16.33643-8.0852-10.26709a3.13447,3.13447,0,0,0-4.925,3.87866l8.08588,10.26758-15.32043-6.16162a3.13392,3.13392,0,0,0-2.33716,5.8158l24.623,9.90283a3.07773,3.07773,0,0,0,.44116.13782l.28131.06738L414.598,544.8175s-13.25153-3.847-16.78943-4.26758c-3.23138-.38416-5.23071.03638-5.94257,1.24988-1.91022,3.25659,5.84479,10.10229,10.011,13.78027,1.11816.98694,2.0838,1.83936,2.696,2.462l1.66278,1.6908-16.57062-1.97-.24139-.24023a2.878,2.878,0,0,0-.29236-.26843l-21.29242-15.84045a3.13416,3.13416,0,1,0-3.74072,5.02979l13.24689,9.85486-12.97736-1.54272a3.134,3.134,0,0,0-.73993,6.22424l12.97723,1.54272-15.188,6.475a3.13414,3.13414,0,1,0,2.45746,5.76648l24.412-10.407a2.85245,2.85245,0,0,0,.34528-.19116l.2934-.17871L405.495,565.957l-2.01257,1.25391c-.74652.46521-1.895,1.072-3.22467,1.77515-4.86279,2.57031-13.91418,7.35449-12.9776,10.92346.232.884.89124,2.10083,3.92462,2.46143,1.56586.18616,18.53088.683,19.25287.1145l-2.19342,1.4-11.2464,8.85669-.34589.001a2.79689,2.79689,0,0,0-.38916.01709l-26.25739,3.85425a3.134,3.134,0,1,0,.90942,6.20166l16.33575-2.39807-10.26624,8.08484a3.13438,3.13438,0,0,0,3.8783,4.925l10.26691-8.08533L384.989,620.6615a3.13391,3.13391,0,1,0,5.81543,2.338l9.90179-24.62183a2.8202,2.8202,0,0,0,.10724-.37329l.0824-.33716,13.11646-10.32886s-5.53571,21.20667-3.22858,22.77881a2.11653,2.11653,0,0,0,.96429.35791c3.56451.42371,9.73639-6.51538,13.05219-10.243.96552-1.08569,1.79938-2.02307,2.403-2.61243l1.68719-1.64746L426.91553,612.585l-.24194.24292a2.815,2.815,0,0,0-.26678.29077l-15.84045,21.292a3.13419,3.13419,0,1,0,5.0296,3.74109l9.855-13.2467-1.50592,12.66772a3.13407,3.13407,0,1,0,6.2243.74l1.50586-12.66785,6.47485,15.188c.0191.0448.05237.08.07343.12366q1.22067-5.19543,2.33624-10.4541c-14.13251,66.68286-41.53357,126.06592-64.36285,167.4043.44293-21.63257-4.71216-43.05176-17.817-61.385a94.03548,94.03548,0,0,0-19.62244-19.833c-7.89355-6.04419-15.84766-11.71338-25.45068-14.54614,2.28284-1.19177,4.86548-1.90356,7.13623-3.32227a36.99694,36.99694,0,0,0,6.73547-5.46582,69.89193,69.89193,0,0,0,9.9425-13.5625,87.20556,87.20556,0,0,0,8.53418-18.20056,51.61047,51.61047,0,0,0,1.8623-8.08191c.2063-1.43213.3479-2.8739.41284-4.321.04944-1.10474-.89185-4.46753.47668-4.98,1.5863-.59424,3.49438,2.9397,4.08508,3.85291,5.86407,9.066,9.65674,19.06506,13.73615,29.035.87439,2.137,2.61792,4.60938,2.69263,6.99072a61.53045,61.53045,0,0,0-1.77637,11.741c-.25153,3.04565-3.373,20.61768,4.2583,17.64587,2.46625-.96045,1.74078-3.38269,1.74512-5.38562q.01364-6.24792.02722-12.49609a2.891,2.891,0,0,1,.15332-1.12915c.82092-1.93591,4.26563,3.31946,4.62323,3.82666q2.6738,3.79321,5.3476,7.58618c.7005.99365,1.54218,2.07593,2.749,2.22339a2.53287,2.53287,0,0,0,2.61755-1.9353c.30054-1.24683-.34436-2.68018-1.36346-4.11987-.48682-2.10791-2.3468-3.91931-3.74835-5.84216-2.03333-2.78967-4.22833-5.45154-6.33484-8.18018-.09485-.24731-.19141-.49084-.28064-.75122.549-.05591,4.87354,3.06458,4.95056,3.39221,4.157.59863,9.3764,6.79175,11.90991-.27136a4.7383,4.7383,0,0,0,.28174-2.35388c-.56158-3.58008-6.016-4.95728-8.97626-6.27686a21.05668,21.05668,0,0,0-6.05695-1.76245,20.41557,20.41557,0,0,0-2.43378-.78394c-.96161-1.60022-1.94946-3.14868-3.00305-4.66724a4.168,4.168,0,0,0-.274-.92969q-2.54681-5.88831-5.52-11.59106c-1.03912-2.24243-2.13886-4.44653-3.12915-6.61523-2.59534-5.68335-5.051-11.55029-8.28516-16.91895,1.53564-1.03833,3.63086-2.10327,4.51447-3.08008,2.49011-2.75317,3.38708-6.687,4.11841-10.26562,3.04718-14.911-7.08649-33.12195-23.43-33.37134-2.76233-.04224-2.70325.428-4.52576-1.34937a52.75306,52.75306,0,0,1-4.48169-5.82593c-2.24512-2.98486-4.22388-6.13159-6.69055-8.96375-5.49231-6.306-11.44861-11.44507-19.45972-13.96252a58.62156,58.62156,0,0,0,6.63342-9.56494c8.94531-14.00122,10.104-34.90173,4.83569-50.49329,3.76746,3.30884,10.45068,3.197,13.953-.32874,4.25037-4.27893,4.00757-11.05811,4.52185-16.55469.62976-6.73145.90173-13.27417,1.00085-20.03894.066-4.51147-1.04626-10.27026-.28723-14.46545.40466-3.96472-.77515-8.99268-1.82935-12.86914-1.78589-10.51709-5.31445-25.17065-13.182-33.552-10.37244-11.04956-31.08484-12.22534-45.21973-11.14307-13.26221,1.0155-27.86133,6.23193-35.766,17.52844-4.3241,6.17981-7.77136,12.92737-12.00513,19.16589-4.781,7.04443-9.93726,13.75952-14.83105,20.71948-4.41321,6.27637-11.32532,15.21362-10.94556,23.32068.31165,6.65515,6.9939,11.55652,13.43628,10.35925-2.59888,3.05811-4.36145,6.9353-5.96423,10.57434-5.743-3.16028-11.754-6.5896-16.834-10.74121-3.45032-2.8197-7.18787-8.8075-12.02942-8.97668-10.45435-.36548,4.15039,15.07617,6.071,16.95752,4.11011,4.02625,7.12915,8.969,11.14783,13.10229,1.9646,2.02051,5.48877,4.15356,5.32019,6.64258-.16577,2.44873-2.82373,5.78589-3.6571,8.18359-4.51379,12.98694-.77063,26.67725,7.131,37.51709-5.77051,1.6936-11.07837,5.30579-16.23169,8.34485a69.92682,69.92682,0,0,0-17.06543,14.37585c-2.57373-2.65161-6.36353-4.3136-9.84216-5.41968a20.68673,20.68673,0,0,0-11.192-.39111,21.38048,21.38048,0,0,0-11.38062,7.4729c-9.68872-4.73047-19.65283-8.8606-29.56323-13.09644-4.7959-2.0498-9.532-4.21228-14.29248-6.33582-2.457-1.09595-4.92615-2.16528-7.42017-3.17444-2.2644-.91626-5.5166-1.465-7.52039-2.80713a11.62567,11.62567,0,0,1-1.12183-.87231c-1.23486-1.06738-2.201-4.012-3.14758-5.44653-1.1134-1.6875-2.25842-3.34961-3.31091-5.07666a104.0514,104.0514,0,0,1-7.01184-13.58154,3.82685,3.82685,0,0,0-3.59473-2.53882,2.85684,2.85684,0,0,0-2.53857,1.19312,3.52177,3.52177,0,0,0-.76392,3.4823,100.38248,100.38248,0,0,0,7.66614,15.28369c-3.22778-1.18518-6.47546-2.29993-9.72766-3.422-4.45813-1.53833-7.47229,5.27686-3.01086,6.68237,4.25439,1.34021,8.50281,2.645,12.78284,3.88672a45.714,45.714,0,0,0-5.68579,2.33618,9.99477,9.99477,0,0,1-2.80859.71045c-.18982-.0625-2.82971,1.584-3.17139,1.73877a49.71042,49.71042,0,0,0-5.10059,2.49561,10.89324,10.89324,0,0,0-2.37207,1.75415q-.53247-10.10742-.54736-20.32007c0-65.123,9.43994-123.58984,28.05762-173.77734A41.001,41.001,0,0,0,49.975,316.58984V150.62207h129.9541l14.35718,14.35754s-32.45972-5.379-40.95508-5.379c-7.75928,0-12.375,1.55859-13.71887,4.63245-3.60645,8.24841,16.68274,22.27478,27.58276,29.81091,2.92529,2.02209,5.45166,3.7688,7.07654,5.07068l4.41309,3.53528H138.89441l-.6394-.501a6.82216,6.82216,0,0,0-.76782-.55322L82.61255,170.082A7.47318,7.47318,0,1,0,75.171,183.04419l34.13977,19.60571H78.14893a7.47314,7.47314,0,0,0,0,14.94629h31.16162L75.171,237.20251a7.47333,7.47333,0,1,0,7.44189,12.96228l54.87329-31.51294a6.84728,6.84728,0,0,0,.76367-.55017l.64453-.50549h39.78833l-4.41235,3.5354c-1.63684,1.31152-4.18518,3.07178-7.136,5.1106-10.79053,7.45471-30.87573,21.33044-27.65356,29.51758.79834,2.02783,2.70178,4.72339,9.9856,4.72339,3.76,0,44.06958-3.59863,45.61914-5.14819l-4.79956,3.93237L166.1499,283.40381l-.81873.09961a6.75115,6.75115,0,0,0-.91663.1499l-61.08728,16.51709a7.473,7.473,0,1,0,3.89893,14.42847L145.231,304.32251l-22.03259,22.033a7.47382,7.47382,0,0,0,10.56934,10.56982l22.03394-22.0343-10.2749,38.00586a7.47268,7.47268,0,1,0,14.42773,3.89929l16.515-61.08679a6.72277,6.72277,0,0,0,.14893-.91406l.10022-.82166,28.14966-28.14832s-7.13818,51.771-1.23291,54.84412a5.048,5.048,0,0,0,2.384.576c8.55933,0,21.22-18.16736,28.02173-27.92737,1.98047-2.84229,3.69116-5.29687,4.95459-6.86182l3.53113-4.37573V321.972l-.50452.64319a6.71568,6.71568,0,0,0-.55.76343l-31.51367,54.8739a7.4734,7.4734,0,1,0,12.96216,7.44238l19.60608-34.13953v30.4187a7.473,7.473,0,1,0,14.946,0v-30.4187L277.079,385.69495a7.47335,7.47335,0,1,0,12.9624-7.44177l-31.514-54.87512a6.8171,6.8171,0,0,0-.55017-.76343l-.50427-.64258.00037-39.90637s30.42017,39.70984,35.97253,39.70984a5.65308,5.65308,0,0,0,.82336-.06067A7.53857,7.53857,0,0,0,300.6,314.604l.00342-.093a7.26373,7.26373,0,0,0-.00171-.8844c-.00549-.05688-.00855-.11316-.00952-.1687l-5.006-47.17883,28.21814,28.21887.09973.81848a6.75951,6.75951,0,0,0,.14954.91785l16.51733,61.0874a7.47259,7.47259,0,1,0,14.42773-3.89856L344.722,315.41528l21.50989,21.51a7.474,7.474,0,1,0,10.56982-10.56982l-21.50818-21.50806,38.00665,10.275a7.47285,7.47285,0,1,0,3.89832-14.42834l-61.09064-16.51587a6.7386,6.7386,0,0,0-.91492-.14929l-.81738-.09949-28.22-28.22021s41.17017,5.04614,44.90833,5.04614c5.35168,0,8.48993-1.35034,9.8761-4.24976,2.77448-5.80359-3.06976-10.6803-10.40259-16.0011-1.24072-.89978-28.59546-22.90833-28.59546-22.90833h39.90643l.645.50549a6.7663,6.7663,0,0,0,.762.54944l54.87372,31.51367a7.47349,7.47349,0,1,0,7.44257-12.96228l-34.13928-19.60632h30.4184a7.47314,7.47314,0,1,0,0-14.94629H391.432l34.13983-19.60571a7.47327,7.47327,0,1,0-7.44189-12.96216L363.25653,201.595a6.83749,6.83749,0,0,0-.76831.55334l-.64.50159h-39.906L344.16321,184.694c1.14771-.92761,2.58765-1.95422,4.11206-3.04016,6.48114-4.6189,15.35748-10.94409,12.89716-17.36011-1.26215-3.291-6.05127-4.96-14.23456-4.96-8.54919,0-40.78381,5.20508-40.78381,5.20508l13.91675-13.91675h129.954Zm-.74207,197.17139q-.23364-4.91309-.54211-9.77039Q449.05051,508.84735,449.28271,513.76123Z"/><polygon points="393.029 693.221 393.04 693.212 393.032 693.218 393.029 693.221"/><polygon points="373.962 706.701 373.977 706.695 373.968 706.696 373.962 706.701"/><path d="M362.88989,632.75244l.02161-.0354c-.00659.01123-.0141.021-.02063.03223Z"/></svg>