<svg id="Слой_1" data-name="Слой 1" xmlns="http://www.w3.org/2000/svg" viewBox="0 0 500 1000"><title>Flags light bulbs</title><path d="M491.0249,319.74683V146.70288a37.0806,37.0806,0,0,0-37.08057-37.08057h-130.813V28.25073A25.75039,25.75039,0,0,0,297.38086,2.50024H202.61914a25.75039,25.75039,0,0,0-25.75049,25.75049v81.37158H46.05615A37.08071,37.08071,0,0,0,8.9751,146.70288V319.74683a37.08309,37.08309,0,0,0,30.61719,36.50732C20.10156,408.79419,8.9751,472.00366,8.9751,544.29126c0,225.27,185.40381,453.2085,241.0249,453.2085,51.501,0,241.0249-227.93848,241.0249-453.2085,0-72.2876-11.12646-135.49707-30.6167-188.03711A37.08312,37.08312,0,0,0,491.0249,319.74683ZM388.84521,773.93164c-15.53955-4.61548-31.32007-10.69556-42.98291-21.64087-4.498-4.22144-20.27612-24.63794-19.79614-24.49316a85.05453,85.05453,0,0,0,62.51416-5.52734,6.87983,6.87983,0,0,0,3.59473-4.19287c1.33716-4.8125-3.6626-7.46484-7.86328-8.563-8.9624-2.342-18.35352-2.94116-27.14062-5.873-7.4353-2.481-14.52222-7.04956-18.42187-14.032-4.43262-7.93628,1.84839-9.65649,9.06006-10.4834,7.00586-.80322,18.74243-1.25854,20.28906-10.386,1.13184-6.67993-7.46289-9.39185-12.33813-11.4668-15.73486-6.69678-29.88306-10.87256-41.60352-24.31934a20.63108,20.63108,0,0,1-4.42261-7.02881c-2.17676-6.80078,2.59668-11.59595,8.9834-10.25146,8.6189,1.814,16.14673,4.25122,25.15918,3.749a6.63023,6.63023,0,0,0,5.249-2.74854c2.8374-3.73242-15.34058-13.43823-20.70605-16.70825-2.52-1.53589-5.12451-3.14819-6.3877-5.9646a5.83892,5.83892,0,0,1-.49023-3.22607c.93506-6.29736,11.16675-4.47266,11.64844-10.0874a5.04425,5.04425,0,0,0-2.89307-4.88354c-9.14307-4.4856-18.68408-7.9436-26.60718-14.52979a60.97583,60.97583,0,0,1-12.105-13.96289c-1.929-2.9939-8.77588-12.13989-6.53345-15.74609,1.02344-1.64551,13.39258-6.09839,11.72656-9.09692-4.15967-7.4873-13.59937-7.84521-19.02441-13.29443-1.61914-1.62622-1.53125-3.55933.64355-5.39185,2.63135-2.217,9.89648,1.53345,10.24536-3.02905.23218-3.03467-4.25415-8.59961-6.58716-10.90649-2.7417-2.71094-5.32642-5.57715-7.80151-8.53223-10.77-12.85913-20.21484-26.11353-26.14624-41.89453-.48657-1.29443-.82788-3.37817-2.18848-4.08374-2.33154-1.2085-3.54858,1.96606-4.28711,3.54443-7.25244,15.49707-15.53369,30.48267-26.9126,43.468-2.47485,2.824-5.44727,5.4353-8.13794,8.155-2.54517,2.57227-6.12085,5.792-5.1936,9.83691,1.32983,5.80151,6.467,1.29785,9.58105,3.17847,3.37939,2.04639,1.08105,5.22314-1.14917,7.10254-5.66309,4.77222-15.02124,6.62817-19.39185,12.564-2.84131,3.85864,17.07935,1.01538,12.91748,11.98193-2.438,6.42334-7.28076,12.697-11.72241,17.85181a82.10869,82.10869,0,0,1-28.2,21.145c-3.45557,1.56641-9.51831,3.40479-6.18335,8.45435,2.28589,3.46118,7.97681,2.57983,10.26,6.2373,2.90674,4.65576-2.06543,8.56079-5.60962,10.81616-5.66968,3.60791-11.55151,6.92188-17.30688,10.39355-2.30225,1.38843-5.5603,4.47241-3.57471,7.44043,1.52344,2.2771,5.2417,1.96,7.59912,1.96094,7.66943.00244,14.95557-2.30322,22.40649-3.79346,6.387-1.34448,11.1604,3.45068,8.9834,10.25146-2.698,8.42847-12.30493,15.19775-19.58643,19.4624-8.27686,4.8479-17.37988,8.04175-26.17993,11.77563l-.25952.11011c-4.87524,2.075-13.47,4.78687-12.33813,11.4668,1.54663,9.12744,13.2832,9.58276,20.28906,10.386,7.21167.8269,13.49268,2.54712,9.06006,10.4834-3.89966,6.98242-10.98657,11.551-18.42187,14.032-9.8772,3.29565-20.51807,3.64355-30.45459,6.83325a6.85029,6.85029,0,0,0-4.4292,4.16016c-1.54907,4.42627,2.481,7.22925,6.053,8.89209a85.26093,85.26093,0,0,0,55.6521,5.43848,2.20639,2.20639,0,0,1,2.521,3.02905,4.80065,4.80065,0,0,1-.30615.62939c-1.93994,2.91016-5.70679,5.24683-8.39062,7.50073-7.7395,6.49878-20.616,18.94214-45.02979,30.07056-23.96631-49.0105-48.6897-114.19873-56.02246-184.80713A48.107,48.107,0,0,0,68.8833,598.74878a14.17894,14.17894,0,0,0,5.30176,1.4248c4.68579.1626,7.07813-3.5752,8.94629-7.32788q.92432-1.85742,1.7334-3.76978a67.74412,67.74412,0,0,0,5.38306-30.12231,5.17257,5.17257,0,0,0-.27319-1.40454,23.681,23.681,0,0,0,2.4502-1.23291,25.61106,25.61106,0,0,0,8.87207-8.5459,19.87488,19.87488,0,0,0,2.64038-5.67529,39.14067,39.14067,0,0,0,1.198-13.89233,36.901,36.901,0,0,0-.78662-4.21851c1.06494,4.27734,19.35938-.81348,21.87866-1.939a24.55871,24.55871,0,0,0,11.7771-12.20972,5.17873,5.17873,0,0,0,1.40869.28516,67.1696,67.1696,0,0,0,13.27295-.56055A68.83851,68.83851,0,0,0,167.252,505.8833c3.87866-1.45557,9.65576-3.45532,12.29712-6.85449a9.77274,9.77274,0,0,0,1.79639-4.34863,6.03679,6.03679,0,0,0-.06641-2.85986c-.73657-2.30225-3.07446-5.4314-4.49341-7.43237a45.8634,45.8634,0,0,0-3.81348-4.874c-6.21484-6.63159-12.57471-12.2876-20.77295-16.47729a5.15817,5.15817,0,0,0-1.35815-.46655,23.732,23.732,0,0,0,.16406-2.73755,26.9632,26.9632,0,0,0-4.98657-15.24219c-3.39355-4.86011-7.637-7.57764-13.0061-9.82178a36.861,36.861,0,0,0-4.04736-1.428,36.92409,36.92409,0,0,0,2.81274-3.24194c6.66577-8.624,8.78613-20.90576,3.25732-30.68091a23.66464,23.66464,0,0,0-1.49023-2.30249,5.16177,5.16177,0,0,0,.94629-1.07324,66.96924,66.96924,0,0,0,5.92749-11.238,82.26339,82.26339,0,0,0,4.99609-18.21387c.65454-4.252,1.10376-10.24658-3.12085-12.88965-3.84033-2.4021-10.06445-3.08887-14.44629-2.53809a66.64934,66.64934,0,0,0-27.73828,10.26392,5.17047,5.17047,0,0,0-1.07959.93848,23.78233,23.78233,0,0,0-2.293-1.50586,25.40269,25.40269,0,0,0-16.197-3.00513,41.20529,41.20529,0,0,0-.52295-8.35352H402.09131a28.38,28.38,0,0,0-1.15894,4.11377,33.41028,33.41028,0,0,0-.53979,3.84863,33.425,33.425,0,0,0-3.38232-1.91382c-3.39868-1.677-8.01221-3.62793-11.84595-3.60913a25.25092,25.25092,0,0,0-15.96924,6.23291,21.479,21.479,0,0,0-1.77344,1.73389,4.67852,4.67852,0,0,0-1.12476-.64429c-6.27124-2.5166-13.78516-4.68213-20.59741-4.73315-5.52612-.04175-11.77271-.11426-16.76685,2.74976a8.02011,8.02011,0,0,0-2.13965,1.71973c-2.47754,2.89722-1.36328,6.82739-.22949,10.782q.61377,2.14087,1.38208,4.23291a58.243,58.243,0,0,0,3.38843,7.77148,63.45453,63.45453,0,0,0,10.42139,14.21362,4.6741,4.6741,0,0,0,1.0271.78931,21.4718,21.4718,0,0,0-.92407,2.30542,23.23625,23.23625,0,0,0-.18823,14.13159,26.6268,26.6268,0,0,0,8.41284,12.56836,18.07234,18.07234,0,0,1,2.12622,1.7207c.91357,1.11841-.89551,1.62451-1.87378,2.15625-7.36133,4.00342-13.69751,13.04443-12.439,21.76245.08008.55444,1.20361,6.44092.88135,6.53052a4.68006,4.68006,0,0,0-1.12109.64868,61.24488,61.24488,0,0,0-13.15137,14.86108c-1.7959,2.7478-3.436,5.5957-4.9624,8.50122a32.77822,32.77822,0,0,0-2.718,9.15991,4.3523,4.3523,0,0,0-.12134,1.12109,3.43147,3.43147,0,0,0,1.8042,2.48755,32.846,32.846,0,0,0,10.99268,4.12671,64.16268,64.16268,0,0,0,17.27124,1.07739A60.53657,60.53657,0,0,0,357.2,498.23364a4.6974,4.6974,0,0,0,1.197-.49487,21.42579,21.42579,0,0,0,1.53467,1.95288c6.7334,7.59229,17.88916,9.40381,27.23535,6.22754a33.438,33.438,0,0,0,3.60327-1.45679,33.40166,33.40166,0,0,0,.03394,3.88647c.34033,5.199,1.01367,9.562,4.21875,13.83691a25.84167,25.84167,0,0,0,11.96094,8.93994,21.42166,21.42166,0,0,0,2.3916.66968,4.67928,4.67928,0,0,0,.001,1.29541c1.55884,10.92407,5.83716,21.56665,13.23218,29.9707,1.55322,1.76489,3.65454,4.90649,6.3938,4.386,5.17871-.9834,9.59131-6.08691,12.82813-9.97827a63.63894,63.63894,0,0,0,8.18994-12.571C449.875,632.30981,418.31982,715.37427,388.84521,773.93164Zm-33.155,1.135a8,8,0,1,1-8-8A8.00008,8.00008,0,0,1,355.69019,775.06665Zm-173-103a16,16,0,1,1,16,16A16.00017,16.00017,0,0,1,182.69019,672.06665Zm15,88a15,15,0,1,1-15-15A15.00012,15.00012,0,0,1,197.69019,760.06665Zm15-195a14,14,0,1,1,14,14A14.00007,14.00007,0,0,1,212.69019,565.06665Zm23-65a11,11,0,1,1,11,11A10.99992,10.99992,0,0,1,235.69019,500.06665Zm17,275a11,11,0,1,1,11,11A10.99992,10.99992,0,0,1,252.69019,775.06665Zm11-160a14,14,0,1,1,14,14A14.00007,14.00007,0,0,1,263.69019,615.06665Zm7,87a19,19,0,1,1,19,19A19,19,0,0,1,270.69019,702.06665ZM68.8999,398.36792l2.10059-1.39941a3.19443,3.19443,0,0,0-.07715-5.37817q3.30469-10.75928,7.10938-21.07642a40.77579,40.77579,0,0,0,1.5332-5.15356,18.08849,18.08849,0,0,1,13.48657,1.91357,15.88816,15.88816,0,0,1,7.98926,12.42822c.2771,4.89575-2.79858,11.30957-7.81348,13.05078a9.10477,9.10477,0,0,1-6.56445-.92432,7.05291,7.05291,0,0,1-3.6853-3.83887,5.32509,5.32509,0,0,1,3.46753-6.16089,3.69849,3.69849,0,0,0-1.94043-7.13794,12.69634,12.69634,0,0,0-8.635,15.34375,14.07252,14.07252,0,0,0,7.38818,8.3606q.75879.39294,1.53955.71167a65.929,65.929,0,0,0-17.89917,6.5061C67.552,403.18579,68.20947,400.7627,68.8999,398.36792Zm49.65332,8.62988a3.69965,3.69965,0,0,0-4.55713,2.5686,5.32259,5.32259,0,0,1-6.18359,3.42529,7.04777,7.04777,0,0,1-3.81372-3.71045,9.13756,9.13756,0,0,1-.87939-6.56982c1.77417-5.00415,8.20776-8.03516,13.10327-7.72559a15.8899,15.8899,0,0,1,12.37378,8.07349c3.95679,6.99561,2.98364,15.20117-2.67065,22.51514a21.99435,21.99435,0,0,1-8.29541,6.90479c-.17529.02808-.35132.05347-.52563.08569a3.68409,3.68409,0,0,0-1.28662.50269l-18.22192,5.00146,6.46826-9.56885a3.20564,3.20564,0,0,0-5.31152-3.59058L88.09473,440.677l-7.18115,1.9707c6.51416-7.95117,12.17529-17.74829,14.95679-27.98975q.48083-1.771.83887-3.55762.31311.78.7,1.5415a14.074,14.074,0,0,0,8.30981,7.44409,12.69548,12.69548,0,0,0,15.40259-8.53125l.00684-.02515A3.6993,3.6993,0,0,0,118.55322,406.9978ZM108.427,379.28564a21.8569,21.8569,0,0,0-2.65942-9.18579,58.12857,58.12857,0,0,1,29.47583-9.18848,58.127,58.127,0,0,1-9.38794,29.41357,20.89645,20.89645,0,0,0-19.62939-.5957,23.31358,23.31358,0,0,0,1.46729-3.92993A20.64551,20.64551,0,0,0,108.427,379.28564ZM61.95044,554.23413a23.32884,23.32884,0,0,0,.72241-4.13354,20.89925,20.89925,0,0,0,17.23364,9.416,58.11793,58.11793,0,0,1-6.78,30.12183A58.12922,58.12922,0,0,1,52.3479,566.80151a21.8716,21.8716,0,0,0,6.94067-6.57837A20.64069,20.64069,0,0,0,61.95044,554.23413Zm-.12256-79.06787-3.24512-12.27588,9.00879-8.94775c.073-.02026.14673-.03857.21851-.06323,13.07959,2.56909,29.28857,10.21509,38.626,22.00708-14.02,5.44824-31.87036,3.845-44.45264-.55615C61.93457,475.27344,61.87988,475.22046,61.82788,475.16626Zm12.1272,75.457c-4.37988-2.20947-8.39648-8.07837-7.396-13.29248a9.13078,9.13078,0,0,1,4.08276-5.22266,7.04994,7.04994,0,0,1,5.1665-1.27148,5.32242,5.32242,0,0,1,3.60181,6.08252,3.69868,3.69868,0,0,0,7.14526,1.91455l.00708-.02515A12.69758,12.69758,0,0,0,77.592,523.65747,14.0788,14.0788,0,0,0,66.657,525.87622q-.71814.45886-1.38354.9751.59106-1.72192,1.07544-3.4917c2.78174-10.24194,2.85425-21.55737,1.25684-31.7124l5.19849,5.3335L74.022,515.9729a3.20553,3.20553,0,1,0,6.39795-.40991l-.739-11.52661,13.189,13.53247a3.68826,3.68826,0,0,0,.855,1.08374c.134.11572.27295.22681.40991.33984a22.00446,22.00446,0,0,1,3.66406,10.15283c1.17773,9.16772-2.13477,16.73926-9.08618,20.77295A15.88976,15.88976,0,0,1,73.95508,550.62329Zm24.0564-38.16162L84.56885,499.1814l11.52124.81714a3.20554,3.20554,0,0,0,.45361-6.395l-18.98364-1.34619-5.29932-5.2356c11.31421,1.8584,24.08276,1.6438,35.22241-2.09546q-.52.66248-.98657,1.37915a14.08381,14.08381,0,0,0-2.293,10.91968,12.69512,12.69512,0,0,0,15.08936,9.07251,3.69845,3.69845,0,0,0-1.84033-7.16431,5.32347,5.32347,0,0,1-6.05811-3.64233,7.04948,7.04948,0,0,1,1.30688-5.15869,9.10483,9.10483,0,0,1,5.24951-4.04663c5.22119-.96509,11.063,3.09106,13.24292,7.48511a15.888,15.888,0,0,1-.80591,14.75293c-4.07983,6.92456-11.67334,10.18481-20.8335,8.94482a21.99518,21.99518,0,0,1-10.12793-3.73218c-.11206-.1377-.22192-.27759-.33716-.41211A3.68258,3.68258,0,0,0,98.01147,512.46167Zm32.74219-29.97144a20.89138,20.89138,0,0,0,16.76245-10.21655,58.13179,58.13179,0,0,1,22.69727,20.93286,58.12845,58.12845,0,0,1-30.16821,6.57642,20.89371,20.89371,0,0,0-9.2915-17.29272Zm6.08618-9.5083c-4.10327,2.68774-11.19458,3.23193-15.21-.2417a9.10245,9.10245,0,0,1-2.48218-6.14624,7.046,7.046,0,0,1,1.48291-5.11084,5.32372,5.32372,0,0,1,7.0686-.07812,3.69826,3.69826,0,1,0,5.21143-5.24878,12.69572,12.69572,0,0,0-17.606.19336,14.07345,14.07345,0,0,0-3.54639,10.5791q.03918.85327.15332,1.68823c-7.71777-8.85986-18.623-15.50366-29.32275-19.62378l7.22021-1.83594,17.05542,8.44116a3.20531,3.20531,0,1,0,2.84375-5.74536l-10.35156-5.12329,18.31494-4.65625a3.68207,3.68207,0,0,0,1.365-.19849c.16748-.05786.333-.1228.499-.18506a21.99123,21.99123,0,0,1,10.62427,1.90405c8.52905,3.56348,13.43042,10.2168,13.44775,18.25415A15.88863,15.88863,0,0,1,136.83984,472.98193Zm-73.03271-55.2063c7.38159-5.05811,15.93311-9.02344,24.54785-10.29175-2.29053,14.865-12.604,29.52173-22.7063,38.21851-.075.01392-.14844.03467-.22241.05347l-7.02881-1.90894Q60.77087,430.53882,63.80713,417.77563ZM57.04761,451.656l1.29541.35156-1.58862,1.57813C56.85547,452.94507,56.94434,452.29468,57.04761,451.656Zm-3.80078,28.77856,2.57227.69849c.0542.05322.10718.10815.16406.158,4.31543,12.61255,5.79858,30.47217.25488,44.45459a47.63737,47.63737,0,0,1-5.81909-5.59692Q51.17554,499.8031,53.24683,480.43457ZM49.9751,544.29126c0-1.76.03418-3.49585.04785-5.24609a7.12734,7.12734,0,0,1,2.96606,1.87231c3.44678,4.03906,2.85522,11.12476.1394,15.21118a13.88441,13.88441,0,0,1-2.853,3.08887Q49.98535,551.78125,49.9751,544.29126ZM164.90967,307.78784c-.084,1.36133-1.957,1.36133-2.89258,1.36133h-6.80664c-3.14844,0-4.67969,2.6377-4.67969-25.52441,0-23.56836-.67969-28.84375,1.70117-28.92871h7.0625c1.27734,0,2.80859-.42578,2.89258,1.19141.16992,1.27637.3418,2.89258,2.043,2.89258,1.27539,0,2.72266-1.36133,4.50977-2.72266,1.78516-1.27637,3.82813-2.6377,6.125-2.6377a8.16,8.16,0,0,1,7.91211,8.33789c0,5.95605-4.84961,9.5293-7.40234,9.5293-1.01953,0,.17188-5.7002-5.69922-5.7002-7.14648,0-7.6582,11.48633-7.6582,16.59082C162.01709,299.10913,164.90967,306.25659,164.90967,307.78784Zm36.584-.85059c0,2.72266-2.55273,2.21191-4.50977,2.21191h-5.78516c-4.16992,0-4.50977,1.78711-4.50977-28.16211,0-29.09863,1.36133-26.291,4.16992-26.291h4.67969c3.57227,0,3.6582.25488,3.6582,1.27637,0,3.14844-1.02148,6.2959-1.02148,15.57031A177.64682,177.64682,0,0,0,201.49365,306.93726Zm9.1875-37.52148c0-10.38086,8.33789-15.99609,17.52734-15.99609,10.63477,0,16.50586,6.38086,16.50586,8.083,0,1.61621-4.76562,8.50879-6.72266,8.50879-2.21094,0-2.72266-6.55176-10.55078-6.55176-2.63672,0-6.21094,1.19141-6.21094,3.74316,0,8.76367,24.8457,8.59375,24.8457,25.86523,0,11.06152-9.18945,17.35742-19.40039,17.35742-9.01758,0-17.95117-5.27539-17.95117-15.23047,0-3.998,2.041-9.10352,2.72266-9.10352.42578,0,2.55273,12.84766,14.63281,12.84766,3.49023,0,7.57422-1.78711,7.57422-6.126C233.65381,284.04956,210.68115,286.34741,210.68115,269.41577ZM354.84106,489.157a52.63325,52.63325,0,0,1-27.95117-.60376,52.6367,52.6367,0,0,1,16.533-22.54565,18.92405,18.92405,0,0,0,16.67236,6.167,18.92387,18.92387,0,0,0-5.25415,16.98242Zm-1.80542-24.375a14.39085,14.39085,0,0,1-8.29663-10.49585c-1.3811-7.14575,1.81885-13.91016,8.7793-18.55933a19.924,19.924,0,0,1,9.1062-3.53735c.16016.02661.32031.05591.48071.07861a3.33245,3.33245,0,0,0,1.24829-.06128l17.084.9563-8.30859,6.35083a2.90241,2.90241,0,1,0,3.5249,4.61206l13.69116-10.4646,6.73535.3772c-8.79321,5.52026-17.33057,13.31958-22.65015,22.53418q-.04395-.761-.15723-1.52759a12.75007,12.75007,0,0,0-4.98877-8.78613,11.4977,11.4977,0,0,0-15.68042,2.88623,3.34937,3.34937,0,0,0,5.54346,3.76074,4.82,4.82,0,0,1,6.29517-1.15894,6.38451,6.38451,0,0,1,2.20557,4.28442,8.24282,8.24282,0,0,1-1.1377,5.89331C363.54492,465.70923,357.14893,466.45776,353.03564,464.782Zm8.97168-88.20312a19.83494,19.83494,0,0,0,3.76563,8.89795,18.9226,18.9226,0,0,0-17.33643,3.94043,52.63643,52.63643,0,0,1-13.45312-24.50854,52.638,52.638,0,0,1,27.7915,3.04517A19.79342,19.79342,0,0,0,362.00732,376.57886Zm-13.79419,24.63208a14.38833,14.38833,0,0,1,9.594-9.325c4.29688-1.12573,10.541.45044,12.9873,4.58887a8.23312,8.23312,0,0,1,.35938,5.9917,6.38273,6.38273,0,0,1-2.74414,3.96069,4.82124,4.82124,0,0,1-6.09082-1.97,3.34911,3.34911,0,0,0-5.99707,2.9834l.01074.02148a11.497,11.497,0,0,0,15.16992,4.906,12.74474,12.74474,0,0,0,6.0918-8.06055c.14185-.49634.2583-.99561.35376-1.49536,4.07251,9.83057,11.521,18.676,19.52026,25.2959l-6.72729-.50439-12.21-12.15918a2.90241,2.90241,0,1,0-4.09595,4.11328l7.40967,7.37915-17.08057-1.28052a3.32548,3.32548,0,0,0-1.21167-.22168c-.16211.00171-.325.00928-.48706.01514a19.92705,19.92705,0,0,1-8.56763-4.69409C348.20264,415.23877,345.91187,408.11475,348.21313,401.21094ZM398.34058,385.791l15.90894,6.62476,3.0415,6.02222c-9.17773-4.85522-20.20093-8.34937-30.84155-8.34888q.63757-.41858,1.24463-.8999a12.74336,12.74336,0,0,0,5.11377-8.71362,11.49583,11.49583,0,0,0-10.3396-12.136,3.34912,3.34912,0,0,0-.48486,6.68066,4.82125,4.82125,0,0,1,4.15186,4.87256,6.3817,6.3817,0,0,1-2.60791,4.05225,8.24,8.24,0,0,1-5.67212,1.96094c-4.761-.67554-8.60669-5.84082-9.21265-10.24072a14.389,14.389,0,0,1,4.94189-12.43262c5.4978-4.7688,12.95581-5.38037,20.46216-1.67676a19.92135,19.92135,0,0,1,7.61841,6.12036c.05688.15088.11108.303.17114.4519a3.32425,3.32425,0,0,0,.67651,1.04883l7.71509,15.27588-9.65527-4.02051a2.90244,2.90244,0,1,0-2.23193,5.35864Zm13.22266,42.38013c-10.489-5.97388-22.2-17.20728-26.81909-30.01978,13.605-.63843,28.46606,5.87988,38,13.28223.02612.064.05762.126.0874.18823l-.751,11.47241-10.31079,5.08569C411.70093,428.17651,411.63184,428.17065,411.56323,428.17114Zm9.26538,14.04785-.751,11.47241c-.03711.05737-.07617.114-.10986.1731-10.418,6.09717-26.00293,10.623-39.4082,8.21655,6.24951-12.10132,19.32593-21.71265,30.50439-26.26758.06738.00928.13574.01245.20361.01782Zm-59.16455,40.05688c1.17407-4.28345,5.66113-8.90308,10.46851-8.95239a8.241,8.241,0,0,1,5.36841,2.68408,6.38856,6.38856,0,0,1,2.05737,4.35767,4.82061,4.82061,0,0,1-4.75122,4.28955,3.349,3.349,0,1,0-.39062,6.68652,11.49683,11.49683,0,0,0,11.834-10.68408,12.74642,12.74642,0,0,0-3.93457-9.30615q-.538-.55627-1.11646-1.0542c10.54956,1.3877,21.93433-.63989,31.66675-4.25708l-3.80078,5.57373-16.63672,4.49438a2.90257,2.90257,0,0,0,1.51392,5.60425l10.09717-2.72754-9.63965,14.13818a3.34175,3.34175,0,0,0-.80835.95337c-.07886.13989-.1521.2832-.22778.42529a19.91934,19.91934,0,0,1-8.35229,5.07568c-7.9248,2.69312-15.23975,1.115-20.06909-4.33032A14.3873,14.3873,0,0,1,361.66406,482.27588Zm37.31616,15.97656c.10205-.12427.2063-.24683.30493-.37329a3.32216,3.32216,0,0,0,.562-1.09644l9.38013-14.33228,1.34521,10.37158a2.90276,2.90276,0,1,0,5.75732-.74658l-2.217-17.08984,3.69434-5.645c.384,10.37622,2.86987,21.6709,8.19141,30.88672-.45483-.22925-.92236-.44092-1.40332-.63086a12.74765,12.74765,0,0,0-10.10278-.07178,11.49749,11.49749,0,0,0-5.34009,15.02295l.0105.02148a3.34912,3.34912,0,0,0,6.01733-2.94238,4.82076,4.82076,0,0,1,2.14453-6.03174,6.38279,6.38279,0,0,1,4.812.23242,8.25363,8.25363,0,0,1,4.5354,3.93213c1.79492,4.46-.75513,10.37329-4.26294,13.09814a14.3907,14.3907,0,0,1-13.238,1.937c-6.87866-2.377-11.13721-8.53027-11.68311-16.88281A19.91615,19.91615,0,0,1,398.98022,498.25244Zm27.5376,29.89526a19.8445,19.8445,0,0,0,5.825-7.71069A18.91526,18.91526,0,0,0,444.42163,533.481a52.63906,52.63906,0,0,1-14.49878,23.90552,52.637,52.637,0,0,1-11.25806-25.59155A19.798,19.798,0,0,0,426.51782,528.14771Zm15.3562-4.01587c-3.12207-3.157-4.88037-9.35352-2.51855-13.54224a8.241,8.241,0,0,1,5.0083-3.30713,6.57168,6.57168,0,0,1,4.61475.29663c.38623,6.689.647,13.4707.81787,20.31714A13.70422,13.70422,0,0,1,441.874,524.13184Zm.86426-23.34766q-.75.18823-1.47021.4397a56.70728,56.70728,0,0,0,6.44238-10.85693q.43909,5.02222.79712,10.10474A14.55325,14.55325,0,0,0,442.73828,500.78418Zm-8.90649-3.114c-7.35474-11.46191-9.14014-27.59277-7.49585-39.551.042-.054.07935-.11182.11816-.1687l10.311-5.08569,7.0835,4.73218q.92139,6.15967,1.70752,12.42578C443.98389,479.75562,440.207,490.12036,433.83179,497.67017Zm5.18726-51.89209c-.02783-.01855-.05737-.0332-.08594-.05127-.05933-.03687-.11841-.07373-.17969-.10742-.05078-.02783-.1023-.05273-.15381-.07812-.0498-.02441-.1001-.04858-.15137-.0708-.06177-.02686-.12378-.05054-.18652-.07349-.04346-.01587-.0874-.03174-.13184-.04614-.06738-.02173-.1355-.041-.20386-.05835-.043-.01123-.08594-.022-.12915-.03149-.06763-.01465-.13525-.0271-.20337-.03809-.04761-.00732-.0957-.0144-.1438-.02q-.09375-.011-.18726-.01636c-.05566-.00342-.11133-.0061-.16724-.00708-.05566-.00122-.11035-.00049-.166.00146-.062.00171-.12427.00464-.18652.00977-.05078.00439-.10132.01-.15161.01636-.06421.00806-.12842.01733-.19263.02905-.051.009-.10181.02051-.15283.03174-.06006.01392-.11963.02783-.17944.04492-.05859.01636-.11646.03564-.17407.05518-.0498.01685-.09985.0332-.14941.05273-.06934.02661-.13672.05713-.2041.08789-.02759.01318-.0564.02271-.084.03662l-7.93994,3.91626.57813-8.83423v-.00928a3.49744,3.49744,0,0,0-.00049-.36133c-.00122-.03833.002-.07788-.00073-.116-.00415-.05884-.01636-.11719-.02368-.176a3.54655,3.54655,0,0,0-.334-1.14819l-.00146-.00269-.00122-.00317a3.54219,3.54219,0,0,0-.707-.96265c-.04272-.042-.08154-.08716-.12622-.127-.02856-.02539-.06177-.04687-.09155-.07153a3.59253,3.59253,0,0,0-.28638-.22021l-.00708-.00562-7.36206-4.918,7.94019-3.91675c.02783-.01367.053-.03027.08032-.04468.06543-.03442.13037-.06934.19336-.10791.0459-.02759.08984-.05762.134-.08716.05-.03369.09985-.06738.14819-.10352.05029-.03735.09888-.0769.14648-.1167.03955-.03271.07861-.06567.1167-.1001.04883-.04443.0957-.09033.14209-.137.03491-.03564.06958-.07129.103-.10815.04272-.04712.0835-.0957.12354-.14478.03418-.04175.06738-.084.09961-.12744q.05127-.06921.09888-.14111.0509-.07544.0979-.15381c.02588-.04346.05078-.0874.075-.13232.03174-.05835.06177-.11743.09033-.178.02-.04248.03882-.08521.05688-.12866.02686-.0625.052-.12573.075-.19043.01636-.04639.03149-.09326.04614-.14014.0188-.06128.03711-.12256.053-.18481.0144-.05688.02612-.11475.03784-.17261.01074-.05322.02173-.106.03-.16016.01123-.07275.0188-.14575.02563-.21875.00269-.03076.0083-.06079.01074-.0918l.57813-8.83423,7.36133,4.918c.03052.02026.062.03613.09277.05518l.02026.012q2.93115,12.828,5.18945,26.21191Zm-9.30786-37.54736c-.02954-.05859-.06494-.11353-.0979-.16992a64.98,64.98,0,0,1,.99219-11.35156q2.14233,7.31616,4.0564,14.82861Zm-7.09106-12.4209-2.92676-6.07812,3.896-14.66113q1.30444,3.65918,2.55176,7.36963A77.35519,77.35519,0,0,0,422.62012,395.80981Zm-2.68433-45.9541-.00342.00439a11.20422,11.20422,0,0,0-1.4729,8.46777,11.76339,11.76339,0,0,0,1.34961,3.46436,40.7785,40.7785,0,0,0,1.80493,7.66162,2.89536,2.89536,0,0,0-3.10474,2.13135l-2.68652,10.10889L408.40039,366.281a3.3347,3.3347,0,0,0-.30151-.95679c-.03784-.07617-.07812-.15137-.12183-.22534-.082-.13867-.16992-.27441-.25537-.41113a19.92846,19.92846,0,0,1-.21924-9.76929,23.61835,23.61835,0,0,1,1.77295-5.41821h10.708C419.96387,349.61841,419.95459,349.73755,419.93579,349.85571Zm-18.25464-80.43994c0-10.38086,8.33789-15.99609,17.52734-15.99609,10.63477,0,16.50586,6.38086,16.50586,8.083,0,1.61621-4.76562,8.50879-6.72266,8.50879-2.21094,0-2.72266-6.55176-10.55078-6.55176-2.63672,0-6.21094,1.19141-6.21094,3.74316,0,8.76367,24.8457,8.59375,24.8457,25.86523,0,11.06152-9.18945,17.35742-19.40039,17.35742-9.01758,0-17.95117-5.27539-17.95117-15.23047,0-3.998,2.041-9.10352,2.72266-9.10352.42578,0,2.55273,12.84766,14.63281,12.84766,3.49023,0,7.57422-1.78711,7.57422-6.126C424.65381,284.04956,401.68115,286.34741,401.68115,269.41577Zm-30.543-15.99609c2.72266,0,14.37891-.085,18.71875,11.82617,1.78711,4.93555,1.957,30.12012,1.957,33.09766,0,3.74414.67969,5.95605.67969,8.84863,0,1.78711-7.99609,1.957-15.57031,1.957-20.50391,0-21.95117-10.5498-21.95117-15.65527,0-6.63184,4.2229-12.17822,9.606-15.65381,1.90088-1.22705,6.11865-4,8.5061-3.59131,4.07788.69727,3.8562,5.83447,1.49561,7.96387-3.407,3.07373-8.12134,3.3623-8.12134,9.32422,0,4.76465,4.16992,7.57227,8.67969,7.57227,7.43018,0,5.8501-14.249,5.78271-19.64453-.08154-6.52295-1.25781-16.00684-9.7002-16.00488-8.67578.002-7.39917,7.31738-9.272,7.31738-2.72266,0-5.69922-3.31836-5.69922-6.97754C356.24951,257.50366,363.31006,253.41968,371.13818,253.41968Zm-50.44531-89.9668h6.66406c1.05664,0,2.84375-.24414,2.84375,1.46289,0,1.1377-.73047,3.65723-.73047,6.09473,0,9.50879,7.96289,18.44824,9.58789,18.44824,3.252,0,5.44531-9.752,5.44531-16.00977,0-4.06348-.89258-7.47656-.89258-8.77734,0-1.46289,2.03125-1.21875,2.92578-1.21875H353.769c1.543.24414,1.30078,2.84473,1.30078,6.33887.73047,23.81152-17.63672,46.8916-35.51562,46.8916-1.86914,0-1.94922-1.21875-1.94922-3.08789v-7.15137c0-.97559.16211-3.332,2.35547-3.332,9.3457,0,11.78516-3.00684,11.78516-4.06348,0-3.41309-14.14062-9.18359-14.14062-31.77637C317.605,163.615,317.52295,163.45288,320.69287,163.45288Zm-.59961,95.15723a9.56026,9.56026,0,0,0,5.01953-1.53223,16.04046,16.04046,0,0,1,7.82813-2.38184c15.6543,0,15.31445,20.50488,15.31445,31.39551,0,25.9502-3.23242,23.05762-5.69922,23.05762H336.769c-.84961,0-3.23242.16992-3.23242-1.36133s3.23242-10.89062,3.23242-25.09961c0-16.251-5.78516-17.95215-9.01758-17.95215-2.97852,0-5.78711-.25586-5.78711,13.7832,0,30.54492-.42383,30.62988-3.14648,30.62988h-7.6582c-1.61719,0-2.97852.34082-2.97852-.85059,0-1.27637,3.23438-18.37793,3.23438-26.46094,0-5.10547,0-17.10156-6.97656-17.10156-6.38281,0-8.76367,7.82715-8.76367,20.50488,0,17.10156,2.38086,20.335,2.38086,22.7168,0,1.44629-1.53125,1.19141-2.4668,1.19141h-6.7207c-2.89453,0-4.67969,2.72266-4.67969-22.46191,0-35.82031-1.10742-34.71387,10.46484-34.71387,1.78711,0,3.6582.085,3.6582,1.36133,0,1.02051-1.02148,2.6377-1.02148,3.8291a1.6111,1.6111,0,0,0,1.70313,1.44629c1.01953,0,2.21094-1.02148,4.084-1.957a16.17791,16.17791,0,0,1,7.99609-1.957C315.24365,254.696,317.96631,258.61011,320.09326,258.61011Zm-35.39844-95.15723H291.439c1.21875,0,2.68164-.40625,2.76367,1.1377.16211,1.21875.32422,2.7627,1.94922,2.7627,1.2207,0,2.60156-1.2998,4.30859-2.59961,1.707-1.21973,3.65625-2.51953,5.85156-2.51953a7.79328,7.79328,0,0,1,7.55664,7.96387c0,5.68848-4.63086,9.10254-7.07031,9.10254-.97461,0,.16406-5.44531-5.44531-5.44531-6.82617,0-7.3125,10.97168-7.3125,15.84766,0,16.17188,2.76172,22.999,2.76172,24.46094-.08008,1.30078-1.86914,1.30078-2.76172,1.30078h-6.502c-3.00781,0-4.4707,2.51953-4.4707-24.38086C283.06787,168.573,282.41943,163.53394,284.69482,163.45288Zm-5.7793,96.43359c0,1.19043,0,4.42383-1.78711,4.42383-.67969,0-2.38281-.76562-3.91406-.76562-4.67969,0-4.67969,5.44531-4.67969,13.01758,0,22.63184,4.76563,26.376,4.76563,27.82227,0,1.27637-9.86914,6.041-11.82617,6.041-3.23437,0-4.084-18.97363-4.084-23.65332,0-10.46484.50977-14.54883.50977-16.166,0-2.55176.76563-7.06152-3.0625-7.06152-1.53125,0-2.38281,1.02148-3.31836,1.02148-1.10547,0-1.02148-1.10645-1.02148-2.6377,0-6.4668,1.87109-7.23242,5.10547-7.23242a12.63371,12.63371,0,0,0,1.61719.34082c2.63672,0,2.89258-4.16992,3.31641-7.14746.42578-3.2334,9.95508-5.61523,11.6582-5.61523.59375,0,1.01953.16992,1.01953,1.78613,0,2.29785-2.55273,7.4873-2.55273,8.50879,0,1.53125.42578,2.55273,1.70313,2.55273,1.10547,0,2.127-.42578,3.23242-.42578C278.82959,254.696,278.91553,256.99292,278.91553,259.88647ZM276.32568,170.198c0,5.68848-4.63086,9.10254-7.07031,9.10254-.97461,0,.16406-5.44531-5.44531-5.44531-6.82617,0-7.3125,10.97168-7.3125,15.84766,0,16.17188,2.76172,22.999,2.76172,24.46094-.08008,1.30078-1.86914,1.30078-2.76172,1.30078h-6.502c-3.00781,0-4.4707,2.51953-4.4707-24.38086,0-22.51074-.64844-27.5498,1.627-27.63086H253.896c1.21875,0,2.68164-.40625,2.76367,1.1377.16211,1.21875.32422,2.7627,1.94922,2.7627,1.2207,0,2.60156-1.2998,4.30859-2.59961,1.707-1.21973,3.65625-2.51953,5.85156-2.51953A7.79328,7.79328,0,0,1,276.32568,170.198ZM249.8335,40.50024a23,23,0,1,1-23,23A22.99989,22.99989,0,0,1,249.8335,40.50024ZM222.52881,162.23413c8.93945,0,16.498,5.03809,16.498,14.62793,0,5.86279-3.4043,9.96-8.41406,12.56689-4.06494,2.11475-12.178,6.22656-15.15991.58691-4.73022-8.94775,13.49512-4.77637,13.49585-12.01611,0-3.98242-3.73828-6.17578-6.82617-6.17578-8.65454.00049-11.38745,8.96484-11.67822,16.14746-.36548,9.03467,1.67944,17.74121,12.65283,17.74121,13.32813,0,13.32813-10.15918,14.4668-10.15918,1.21875,0,1.46289,4.22656,1.46289,4.877,0,10.32031-7.96484,16.25293-17.7168,16.25293-14.54687,0-20.56055-12.02734-20.56055-25.03027C200.74951,171.98608,211.63818,162.23413,222.52881,162.23413Zm-21.80078,80.21c0,3.6582-3.14844,5.61523-6.55078,5.61523-3.4043,0-6.55273-1.957-6.55273-5.61523s3.14844-5.87109,6.55273-5.87109C197.57959,236.573,200.728,238.78589,200.728,242.44409Zm-62.4707-94.59473h7.47656c3.16992,0,4.30859,0,8.28906,5.44531,7.64063,10.4834,8.127,16.416,9.75391,16.416,1.21875,0,1.70508-5.93262,10.32031-16.416,4.55078-5.52637,5.76953-5.44531,8.93945-5.44531h6.33984c1.38086,0,5.60742-1.46289,5.60742,38.68359,0,30.47559-2.43945,28.93164-4.4707,28.93164H180.11084c-.97461,0-2.92578.24414-2.92578-1.21875,0-1.1377,4.63281-15.7666,4.63281-36.97754,0-1.70605.24414-11.70215-2.4375-11.70215-2.35742,0-5.44531,8.04492-6.25781,9.99609-6.82812,16.65918-4.06445,24.29883-9.50977,24.29883-6.82617,0-4.14453-7.63965-11.377-24.29883-.8125-1.78809-3.49414-9.99609-6.01367-9.99609-2.68164,0-2.60156,9.99609-2.60156,11.70215,0,21.21094,5.12109,35.83984,5.12109,36.97754,0,1.46289-1.95117,1.21875-2.92578,1.21875h-8.69531c-2.0332,0-4.4707,1.54395-4.4707-28.93164C132.6499,146.38647,136.87646,147.84937,138.25732,147.84937ZM109.353,236.573h9.27539c.76563,0,1.36133.93652,1.36133,1.78711,0,1.19141-3.23437,9.5293-3.23437,16.33594,0,1.02051,0,2.6377,1.44727,2.6377.67969,0,2.041-.76562,3.91406-1.87207a15.34444,15.34444,0,0,1,7.14648-2.042c7.74219,0,13.44336,5.53027,13.44336,26.03516,0,8.168-1.19141,29.69434-3.82812,29.69434h-8.84961c-.76562,0-3.0625.25488-3.0625-1.10645,0-.5957,4.25391-17.44141,4.25391-28.75781,0-13.1875-2.21289-15.8252-6.38086-15.8252-8.67969,0-8.84961,13.27246-8.84961,19.31348,0,17.0166,1.873,22.54688,1.873,25.01465,0,1.36133-1.61719,1.36133-2.46875,1.36133h-8.42187c-2.46875,0-2.46875,2.89258-2.46875-34.88379C104.50342,267.45874,104.67529,236.573,109.353,236.573Zm-30.79492.51074c7.40234,0,18.80273,3.14844,18.80273,12.33691,0,4.93457-3.4043,7.74316-8.76367,7.74316-3.48828,0,1.19141-7.998-9.61523-7.998-12.42187,0-17.69727,12.67773-17.69727,23.3125,0,16.251,11.0625,22.80273,18.46484,22.80273,13.86719,0,15.05859-12.42285,15.82422-12.42285,1.19141,0,1.873,6.80664,1.873,7.6582,0,12.5918-9.70117,19.90918-21.61133,19.90918-19.31445,0-28.334-17.52734-28.334-34.71387C47.50146,257.24878,57.88232,237.08374,78.55811,237.08374Zm45.39453,563.47461A148.682,148.682,0,0,0,163.0498,794.251a1.9399,1.9399,0,0,1,2.37183,2.62524c-2.55127,5.36157-16.28516,14.97241-16.99243,17.14185-1.64722,5.053,3.33984,7.88306,7.60327,9.10962a62.00333,62.00333,0,0,0,56.8042-12.59424c6.199-5.39868,10.61279,3.21875,9.82593,5.418-2.29126,6.40186-3.51,13.427-5.23071,20.009q-2.7594,10.5531-5.51855,21.1062h-53.1377c-7.58594-11.04858-14.979-22.53345-22.02319-34.2583C132.77051,816.17993,128.45605,808.73267,123.95264,800.55835Zm215.582,56.5083H277.8186q-2.7594-10.5531-5.51855-21.1062c-1.72095-6.582-2.93945-13.60718-5.23071-20.009-.78687-2.19922,3.627-10.81665,9.82593-5.418,16.13184,14.04907,39.95605,18.7251,60.15088,11.51709a6.81541,6.81541,0,0,0,4.44531-4.89209c1.02319-4.80273-4.0332-7.282-7.78125-9.66357a25.991,25.991,0,0,1-9.24487-10.30176,2.11209,2.11209,0,0,1,2.45532-2.95654c12.65747,3.41479,32.375,5.37793,48.81958,4.49951-4.67139,8.43237-9.14551,16.10425-13.26709,22.918C355.15186,833.75757,347.4458,845.63184,339.53467,857.06665Z"/></svg>