<svg id="Слой_1" data-name="Слой 1" xmlns="http://www.w3.org/2000/svg" viewBox="0 0 500 1000"><title>Flags light bulbs</title><path d="M491.02478,319.74634V146.70288a37.08065,37.08065,0,0,0-37.08057-37.08081H323.13147V28.25049A25.75039,25.75039,0,0,0,297.381,2.5H202.619a25.75039,25.75039,0,0,0-25.75049,25.75049v81.37158H46.056A37.08071,37.08071,0,0,0,8.97522,146.70288V319.74634a37.083,37.083,0,0,0,30.61694,36.50757C20.10168,408.79395,8.97522,472.00366,8.97522,544.291c0,225.27026,185.40381,453.209,241.0249,453.209,51.501,0,241.02466-227.93872,241.02466-453.209,0-72.28735-11.12646-135.49707-30.6167-188.03711A37.083,37.083,0,0,0,491.02478,319.74634ZM435.0813,150.62207a26.72639,26.72639,0,0,1-6.01636,12.41479c-5.8924,6.64063-18.01984,10.95435-26.6817,6.792-2.95837-1.42163-5.87152-5.26294-7.25031-9.55859-1.18109-3.68823-1.12024-7.28735.1651-9.63013l.01129-.01807ZM336.1098,332.92749a37.82274,37.82274,0,0,0,34.56232,8.26514,105.21307,105.21307,0,0,1,2.44586,55.82959,105.21351,105.21351,0,0,1-47.1272-30.032,37.81139,37.81139,0,0,0,10.119-34.06274Zm19.94684-4.44556c-8.69751-1.78174-18.49756-10.12793-19.22333-19.70972-.24615-3.28711,1.62177-7.71777,4.65289-11.05859,2.60107-2.86841,5.74908-4.6145,8.42133-4.67334a9.63577,9.63577,0,0,1,9.17706,8.91675,6.69426,6.69426,0,0,0,13.38837-.04565l-.00049-.04785a22.98066,22.98066,0,0,0-22.85583-22.20825c-6.4646.14014-12.87366,3.35938-18.04736,9.06323-.69318.7644-1.34375,1.55664-1.95636,2.36816,1.39172-21.22339-4.1394-43.66626-12.62585-62.606l11.61353,6.85254,11.13635,32.593a5.80152,5.80152,0,1,0,10.97968-3.752l-6.75806-19.77954,29.48669,17.39771a6.63173,6.63173,0,0,0,1.976,1.46875c.292.14063.59058.27026.88672.40381,4.48987,3.60815,8.34351,9.08179,11.2077,15.99023,6.40662,15.45605,4.21381,30.2522-6.01569,40.593C374.78265,327.0415,364.79535,330.27295,356.05664,328.48193ZM255.838,329.66162l-.32361-34.20581,13.75336,15.74487a5.8014,5.8014,0,1,0,8.73914-7.63232l-22.66125-25.94287-.12756-13.48486C267.37726,280.959,284.0484,296.97,303.123,306.3772q-1.51227.18677-3.02649.51294c-7.52631,1.62842-13.51819,5.56934-16.87195,11.09863a22.97822,22.97822,0,0,0,7.80505,30.89722,6.69411,6.69411,0,1,0,6.77557-11.54712,9.63654,9.63654,0,0,1-3.134-12.406c1.38641-2.28564,4.47314-4.13916,8.25751-4.95752,4.40894-.95435,9.19226-.35132,11.90234,1.49951,7.93658,5.42041,10.26367,18.08008,7.45953,26.50366-2.8183,8.46289-10.61072,15.49658-19.85187,17.91772-14.07214,3.68726-27.98175-1.811-38.1629-15.0874-4.55341-5.93628-7.36731-12.01294-8.24615-17.70752.0321-.32056.06909-.64136.0932-.96143A6.65489,6.65489,0,0,0,255.838,329.66162Zm-34.7323-17.90771a5.80157,5.80157,0,0,0,8.18579-.55322l13.754-15.74609-.32281,34.19214a6.65434,6.65434,0,0,0-.30524,1.98267c0,.16943.006.33984.01929.51147.02411.3208.06116.64185.09338.96265-.87836,5.69336-3.69226,11.76953-8.24469,17.70654-10.18176,13.27515-24.09235,18.77441-38.16455,15.08716-9.2406-2.42139-17.03259-9.45386-19.85089-17.9187-2.806-8.42041-.47705-21.08228,7.457-26.50269,2.71155-1.85083,7.49536-2.45386,11.9046-1.49951,3.78375.81934,6.87109,2.67212,8.25781,4.95752a9.63812,9.63812,0,0,1-3.134,12.406,6.69423,6.69423,0,0,0,6.77563,11.54736,22.98013,22.98013,0,0,0,7.80408-30.89746c-3.35333-5.52832-9.34521-9.47021-16.871-11.09888q-1.51154-.32666-3.02667-.51245c19.07422-9.4082,35.74506-25.41968,47.90375-42.23828l-.1272,13.48413-22.66162,25.94409a5.79941,5.79941,0,0,0,.55341,8.18555ZM163.56738,352.209a39.57571,39.57571,0,0,0,9.00305,14.78369,105.21731,105.21731,0,0,1-47.12659,30.03247,105.21176,105.21176,0,0,1,2.44427-55.83032,37.82147,37.82147,0,0,0,34.56934-8.27173,42.23064,42.23064,0,0,0-.6983,7.56079A37.37263,37.37263,0,0,0,163.56738,352.209Zm5.37531-61.12891q-.91644-1.21472-1.954-2.3606c-5.17364-5.70337-11.5827-8.92065-18.04572-9.06079a22.97857,22.97857,0,0,0-22.857,22.208v.04761a6.6946,6.6946,0,0,0,13.389.04565,9.63377,9.63377,0,0,1,9.17657-8.9165c2.67212.05762,5.82043,1.804,8.42145,4.67188,3.03033,3.34131,4.88824,7.78784,4.65271,11.05786-.725,9.583-10.525,17.9292-19.22247,19.71094-8.739,1.79077-18.72589-1.4397-25.44366-8.23267-10.22955-10.34229-12.42249-25.13623-6.01538-40.59375,2.86414-6.91162,6.72009-12.3877,11.21362-15.99585.29309-.13232.58881-.26025.87775-.39917a6.6622,6.6622,0,0,0,2.00873-1.48828L154.6001,244.394l-6.75873,19.78223a5.80207,5.80207,0,1,0,10.98083,3.752l11.137-32.59668,11.60858-6.84937c-7.60657,16.97925-12.84717,36.7771-12.84717,55.98535C168.72058,286.68188,168.79913,288.88672,168.94269,291.08008ZM84.33582,229.55371a22.97941,22.97941,0,0,0,30.66077-8.68945c3.10968-5.66895,3.53021-12.82715,1.17572-20.16138q-.47232-1.47144-1.06842-2.87573c17.68365,11.81445,39.88348,18.24561,60.5274,20.3667l-11.74048,6.63184-33.79565-6.65381a5.80169,5.80169,0,0,0-6.81329,4.57178,5.87064,5.87064,0,0,0-.11047,1.127,5.80442,5.80442,0,0,0,4.68225,5.68652l20.51141,4.03784L118.58331,250.4165a6.66838,6.66838,0,0,0-2.29034.99414c-.2644.18091-.523.37256-.78357.55981-5.37134,2.0874-12.04218,2.68994-19.46088,1.71436-16.58777-2.17847-28.3056-11.4751-32.14838-25.50562-2.526-9.21631-.32794-19.47949,5.591-26.15112,5.89209-6.64087,18.02014-10.95581,26.68219-6.79321,2.95837,1.42236,5.872,5.26318,7.25073,9.55835,1.18274,3.68433,1.123,7.28735-.16534,9.63086a9.63754,9.63754,0,0,1-12.30981,3.48926,6.69387,6.69387,0,1,0-6.6131,11.64038ZM199.12909,162.416c.11273.07593.23248.14233.34967.21216L210.97,182.53125l-11.4906,19.90259c-.1181.07031-.23834.13745-.35187.21411-24.06519,1.718-56.00446-3.94824-77.90771-20.116C143.12366,166.36426,175.06354,160.697,199.12909,162.416Zm30.99475,53.291,11.48822,19.89746c.00159.1311.0163.261.02521.39136-10.54083,21.70581-31.4245,46.54761-56.38684,57.438-3.05078-27.05151,8.01147-57.54517,21.53143-77.52808.124-.0603.243-.1311.36353-.19873Zm10.30682-10.71094c-.03644-.06274-.07922-.11914-.11719-.18066-.06995-.11279-.13989-.22534-.2157-.3335-.06946-.09961-.14288-.19458-.21667-.28955-.06512-.084-.12994-.16748-.19861-.24854-.08972-.10571-.18329-.2063-.27844-.30591-.06128-.06445-.12256-.12842-.18646-.19019-.10406-.10156-.21136-.19824-.32074-.292-.06531-.05615-.13074-.11182-.19794-.16553-.10968-.0874-.22174-.17041-.33575-.251-.07758-.05469-.15582-.10864-.23547-.1604-.10681-.06934-.21521-.13452-.32526-.19775q-.14319-.0824-.28992-.15869c-.09961-.05151-.2002-.09937-.3017-.14526-.11243-.05176-.22577-.10083-.34106-.14624-.09515-.0376-.19092-.072-.28754-.10522-.12213-.04224-.24487-.08252-.36987-.11816-.10028-.02881-.201-.05371-.30237-.07812-.11975-.02856-.23981-.05615-.36212-.07837-.11908-.02246-.239-.03906-.35919-.05493-.105-.01367-.20947-.02832-.3161-.0376-.14709-.01318-.29443-.01831-.44257-.02246-.06146-.00146-.12134-.00928-.18329-.00928H216.55127l8.84784-15.325c.0321-.05542.0564-.11353.08685-.16992.06885-.127.13635-.25415.19733-.385.04694-.10059.08844-.20239.13062-.3042.04407-.10767.08783-.21509.12659-.32446.04358-.12231.08142-.24487.118-.36816.02777-.09448.05524-.18921.07922-.28418.0332-.13232.061-.2644.08636-.39722.01788-.09375.035-.187.04913-.28125.01935-.13013.03436-.25977.04651-.38989.00989-.10376.01788-.20776.02332-.31177.00574-.11841.00793-.23633.00793-.35449s-.0022-.23584-.00793-.35425c-.00543-.10425-.01343-.208-.02332-.31177-.01215-.13013-.02716-.25977-.04651-.38989-.01416-.09448-.03125-.188-.04913-.28149-.02539-.13281-.05316-.26465-.08636-.397-.024-.09546-.05145-.1897-.07922-.28418-.03656-.12329-.0744-.24585-.118-.36816-.03876-.10937-.08252-.2168-.12659-.32471-.04218-.10156-.08368-.20337-.13062-.3042-.061-.13062-.12848-.25806-.19733-.38477-.03046-.05615-.05475-.11426-.08685-.16992l-8.84821-15.325h17.6958c.062,0,.12183-.00806.18329-.00928.14813-.00415.29547-.00928.44257-.02222.10663-.00928.21106-.02417.3161-.03784.12018-.01636.24011-.03247.35919-.05493.12231-.02246.24237-.0498.36212-.07861.10138-.02417.20209-.04907.30237-.07788.12518-.03564.24811-.07593.37036-.11792.09613-.03369.19159-.06787.28644-.10522.11591-.04565.22955-.09521.34247-.14673.10138-.04614.2016-.094.3006-.14478.09833-.05078.19464-.104.29022-.15894.11017-.06323.21844-.12866.32538-.198.07953-.05151.15741-.10522.23468-.15967.1145-.08081.22687-.16406.33691-.2522.067-.05347.13214-.10864.19714-.16479.1095-.094.217-.19043.321-.29175.0639-.062.12518-.126.18646-.19043.09515-.09961.18872-.2002.27844-.30615.06866-.08081.13348-.16455.19861-.248.07379-.09521.14722-.19019.21667-.28979.07581-.10864.14575-.22095.2157-.33374.038-.061.08075-.11792.11719-.18066l5.45239-9.44434h6.79041l5.45264,9.44434c.03351.05811.07343.1106.10858.168.07343.1189.14716.23706.22729.35132.0661.095.13635.1853.2063.27588.0683.08838.13666.17627.209.26123.087.10205.17737.2.26935.29614.06415.06738.12836.13452.19537.19922.10187.09912.20691.1936.3139.28564.067.05762.1344.11475.20374.17041.10822.08618.21869.168.33112.24756.07886.05566.15869.11084.23993.16333.10553.06836.21252.13306.32123.19507.09656.05566.19415.10962.29358.16113.09833.05029.198.09766.2984.14355.11322.05176.22717.10132.34357.14746.09467.03711.19012.07129.28625.105.12231.042.24506.08228.37042.11792.10022.02881.20111.05371.30267.07788.11957.02856.23914.05615.36115.07861.11975.02246.23981.03906.36066.05493.10455.01367.2088.02856.31482.03784.14734.01294.29517.01807.44336.02222.06146.00122.12134.00928.18292.00928H282.0058l-8.8479,15.325-.00812.0166a7.04583,7.04583,0,0,0-.31848.64795c-.03162.07007-.072.13818-.101.20874-.04468.10986-.074.22485-.11334.33691a7.09455,7.09455,0,0,0-.41681,2.35327l.00043.00635-.00043.00659a7.092,7.092,0,0,0,.4162,2.35107c.03925.11279.069.22827.114.33887.02893.0708.06934.13892.101.20923a7.16654,7.16654,0,0,0,.31848.64771l.00812.0166,8.84857,15.32593H264.30969c-.06189,0-.12164.00781-.18323.00928-.14789.00391-.29541.00928-.44226.02246-.10681.00928-.212.02393-.31738.0376-.11957.01611-.23883.03247-.35712.05469-.12341.02246-.24475.05029-.36578.07935-.09961.02393-.19891.0481-.2973.07666-.1272.03613-.25189.0769-.3761.12012-.09406.03247-.18762.06616-.28033.10278-.11847.04663-.23437.09717-.34967.14966-.098.04468-.19507.09106-.2912.14038-.10217.05249-.20276.10815-.30206.16553-.10535.06055-.20929.123-.31165.18945-.08508.05493-.16827.11206-.25079.1709-.10858.07642-.21521.15576-.31982.239-.07312.05811-.14447.1189-.21533.18018-.10333.08862-.20453.17969-.303.27515-.07074.0686-.13873.13965-.20673.21069-.08783.093-.1748.18652-.2583.28442-.07636.0896-.1485.18237-.22052.27563-.06622.08594-.13263.17163-.19537.26123-.08435.12012-.162.24438-.239.36938-.03229.05273-.069.10132-.10028.15479l-8.84753,15.3252Zm58.99725-2.34937c-.11267-.07593-.23212-.14233-.3493-.21216l-11.49139-19.90381,11.49042-19.90234c.11755-.06982.23724-.13623.35028-.2124,24.06635-1.71851,56.0058,3.94824,77.90869,20.11523C355.43372,198.69824,323.49426,204.36523,299.42792,202.64673Zm13.88074,90.78564c-24.95258-10.885-45.82953-35.71-56.37518-57.40942.00995-.1377.008-.27637.00977-.41455L268.43317,215.707h22.98029c.12036.06738.23883.13818.36237.19824C305.29657,235.88867,316.35754,266.38062,313.30865,293.43237Zm69.74841-41.459c-.26355-.18921-.52478-.38306-.79218-.56567a6.66172,6.66172,0,0,0-2.29132-.99438l-29.78-16.81958,20.50983-4.03809a5.80167,5.80167,0,0,0-2.24152-11.38477l-33.795,6.65332-11.74078-6.6311c20.64392-2.12134,42.84424-8.55322,60.52771-20.36816q-.59436,1.403-1.069,2.877c-2.35229,7.33228-1.93463,14.49341,1.175,20.16138a22.98069,22.98069,0,0,0,30.66046,8.69043,6.69458,6.69458,0,0,0-6.61212-11.64258,9.63561,9.63561,0,0,1-12.31012-3.48828c-1.28583-2.34326-1.34729-5.94336-.1651-9.63062,1.37878-4.29517,4.29193-8.137,7.25031-9.55835,8.66187-4.1626,20.78931.15137,26.68127,6.792,5.91986,6.67285,8.11584,16.938,5.59241,26.15112-3.84265,14.03076-15.55994,23.3269-32.14777,25.50684C395.094,254.65869,388.42682,254.05786,383.05707,251.97339Zm-1.758-101.35132a28.1431,28.1431,0,0,0,1.08569,13.73877q.47223,1.47217,1.069,2.87646c-11.62805-7.7688-25.21063-13.19653-39.018-16.61523ZM249.83337,40.5a23,23,0,1,1-23,23A22.99989,22.99989,0,0,1,249.83337,40.5ZM154.12085,150.62207c-13.8075,3.41895-27.39032,8.84692-39.01855,16.6167q.59436-1.40332,1.069-2.877a28.15981,28.15981,0,0,0,1.08466-13.73975Zm-50.874,0,.0119.019c1.28613,2.34375,1.34711,5.94409.16443,9.63037-1.37878,4.29517-4.29242,8.13721-7.24982,9.55835-8.662,4.16235-20.7901-.15137-26.68219-6.792a26.731,26.731,0,0,1-6.01636-12.41577ZM49.975,157.01074c.40161-.08984.80084-.19092,1.20349-.27588a37.81562,37.81562,0,0,0,24.43274,25.79785,37.81641,37.81641,0,0,0-24.43243,25.79712c-.40277-.085-.80206-.186-1.2038-.27588ZM205.73608,863.20361a39.48722,39.48722,0,0,1-1.02209-31.99316c2.96722-7.18823,7.80682-14.03394,9.76239-21.61816l25.41071,17.9873-33.93146,16.25513,36.97736-6.45166L232.21277,867.5H205.81006a2.97679,2.97679,0,0,0,.66583-1.37573A5.11675,5.11675,0,0,0,205.73608,863.20361Zm8.35767-77.54248c.93542-3.68652,3.49731-6.709,5.98254-9.58789,5.419-6.27759,11.75824-11.94214,16.20715-18.82837,3.73444-5.78076,8.195-11.65161,15.64349-12.188,3.671-.26416,7.26251.96167,10.7832,2.03467,9.01489,2.74707,18.79834,4.56714,27.78052,1.7146,4.59607-1.45972,10.85864-4.56689,14.27185.41895,2.719,3.97144,1.52545,9.833,5.2038,13.89966a129.19,129.19,0,0,0,19.2345,16.99634c2.50842,1.85449,4.6142,3.63257,5.65454,6.31494-.79718,3.67432-3.33447,5.748-5.78418,7.81567-1.62439,1.37085-3.18085,2.75635-4.701,4.26074-5.54553,5.48853-9.116,12.45776-14.09546,18.26294-7.496,8.73877-7.0293,18.57959-5.34711,28.606,1.164,6.93726,4.37018,13.4458,6.92468,19.94336A12.69728,12.69728,0,0,0,312.95837,867.5h-46.097l-4.97424-28.50928,35.36255,12.5874-30.709-21.73779L300.472,813.58521l-36.97736,6.45142,12.58722-35.36255L254.34418,815.3833l-16.25513-33.93164,6.45142,36.97729-29.67053-10.56128a24.42958,24.42958,0,0,0,.453-5.68994C215.09265,796.62476,212.72687,791.0481,214.09375,785.66113Zm137.671,47.77295c-.17108,1.97876-.41327,4.0188-.4472,6.022-6.21814,9.60742-12.62506,18.99976-19.1416,28.04395h-3.76343a10.39315,10.39315,0,0,0,.67822-7.2251,3.04413,3.04413,0,0,0-1.10449-2.06006,6.17294,6.17294,0,0,0-1.99121-.407c-2.55389-.53394-3.89685-8.21191-4.67377-10.42554a44.659,44.659,0,0,1-2.50653-13.59277,10.36333,10.36333,0,0,1,.46625-3.94263,10.09522,10.09522,0,0,1,1.877-2.89673c3.70233-4.33936,8.59143-7.9541,12.81879-11.75586,2.29791-2.06641,5.52429-4.18311,6.9007-6.93774,1.86761-3.7373.785-7.15747,4.72473-10.27686A70.81133,70.81133,0,0,1,351.76471,833.43408ZM234.05884,867.5l18.02472-25.46338L264.2821,867.5ZM450.02478,316.58984a41.00121,41.00121,0,0,0-28.05713,53.92383c12.15607,32.769,20.37238,69.08936,24.63,108.46729q-.5939-5.4928-1.29126-10.9043l-21.48511,34.41455L396.85761,452.8999l12.56769,55.167-54.31281-15.85742,47.88269,29.89307-49.59137,26.96338,55.16705-12.56738-15.85754,54.31274,29.89294-47.88306,24.82562,45.65967q.21048-1.83838.40338-3.68213l-10.833-47.55322,12.9939,3.79395c.00494,1.05151.02863,2.0896.02863,3.14453,0,111.44287-51.16095,215.90454-84.11719,271.61816-1.13123-4.48657-1.83154-9.082-3.0647-13.54248a13.25864,13.25864,0,0,1,.88843-9.36328c1.87109-4.03076,2.80493-8.4873,4.32379-12.69482a5.5395,5.5395,0,0,0-1.017-6.02368c-3.16132-3.20239-4.14612-7.45825-5.977-11.27588-8.14771-16.98975,4.97815-27.897,10.00226-42.8,4.12415-12.23291,8.20007-26.88281,3.49011-39.53174-2.02325-5.43359-6.06262-10.27466-6.32074-16.29883-.11371-2.65332.4657-6.261,2.18274-8.34033,1.55933-1.88818,4.73132-2.062,5.74634-4.46875.61932-1.46851.004-3.165-.82867-4.52393-5.72437-9.34277-14.11786-9.12549-19.91016-.40063-5.26135,7.92529-10.16223,17.679-20.34888,20.08569-5.80731,1.37207-11.81964-.43311-17.66705-1.62061-19.78088-4.01636-39.68536-1.375-59.52-1.23535-4.45312.03125-9.55-.56958-12.11194-4.21191-1.6723-2.37793-1.80847-5.46216-2.13568-8.35059-.78979-6.97217-3.55133-12.8125-3.71942-20.1936-.29767-13.06519-.46625-26.14844.51929-39.18481.39093-5.17114,1.51575-6.59033,6.26758-7.57568a44.45149,44.45149,0,0,0,17.96954-8.29053c6.76617-5.1394,11.94012-11.40723,13.535-19.582a4.50814,4.50814,0,0,0-4.38312-2.25659c-3.22015-.03394-6.44116-.01978-9.66162-.00073-6.59106.03955-15.94073-.15161-22.313,1.8562a13.42082,13.42082,0,0,0-3.916,2.01318c.27692-.34155.54334-.69141.8186-1.03418a3.55191,3.55191,0,0,0,2.8111-1.60767,21.34573,21.34573,0,0,1,11.13434-8.522,14.96216,14.96216,0,0,1,6.81384-.7898,7.39262,7.39262,0,0,1,5.11639,3.0249l.04517.06982a2.37395,2.37395,0,0,0,4.06793-2.44189,12.35929,12.35929,0,0,0-8.17633-5.88965,20.41667,20.41667,0,0,0-9.48431.31567c-.22589.05615-.44525.1355-.66956.19775,1.05206-1.52466,2.09741-3.054,3.11749-4.6001.9646-1.44385,1.90106-2.90771,2.83459-4.37354,1.69952-1.64453,3.43256-3.21558,5.23358-4.65015a55.28525,55.28525,0,0,1,9.528-6.05347,34.761,34.761,0,0,1,10.15747-3.54,15.6634,15.6634,0,0,1,4.75287-.01318,12.04808,12.04808,0,0,1,4.19409,1.49365,8.71337,8.71337,0,0,1,2.94763,2.762,7.00525,7.00525,0,0,1,1.063,3.65918,8.02211,8.02211,0,0,1-.92493,3.99609,7.01456,7.01456,0,0,1-2.76007,2.925,9.35331,9.35331,0,0,1-8.81323.13574l-.13324-.071a2.25517,2.25517,0,0,0-2.55206,3.67871,13.0068,13.0068,0,0,0,6.73969,3.09424,14.382,14.382,0,0,0,7.54926-.90356,13.57979,13.57979,0,0,0,6.135-5.09424,15.4696,15.4696,0,0,0,2.47552-7.52954,14.45032,14.45032,0,0,0-1.83972-7.97485,16.11707,16.11707,0,0,0-5.59167-5.71191,19.38771,19.38771,0,0,0-7.14838-2.65625,23.136,23.136,0,0,0-7.35162.05,35.42851,35.42851,0,0,0-10.17157,3.46631,39.69366,39.69366,0,0,1,8.33832-8.69238,38.87352,38.87352,0,0,1,20.0022-7.98706l.01239-.001a2.3747,2.3747,0,0,0-.31409-4.7373,44.0807,44.0807,0,0,0-22.36768,7.376c.41931-.73755.83893-1.47534,1.24829-2.22852,1.06342-1.93677,2.15082-4.10107,3.04016-6.20166,1.79608-4.2168,3.17194-8.33667,4.74847-12.14673a46.56376,46.56376,0,0,1,2.58276-5.40625,22.029,22.029,0,0,1,2.35516-3.43433,2.94936,2.94936,0,0,0,.49146-.083c3.63165-.99756,7.03717-1.80029,9.96332-1.18359a7.33464,7.33464,0,0,1,3.62744,1.94336,4.36983,4.36983,0,0,1,1.449,3.207,4.74662,4.74662,0,0,1-1.74609,3.24829,6.86664,6.86664,0,0,1-1.79419,1.14355,5.90669,5.90669,0,0,1-1.9856.5061,3.06418,3.06418,0,0,1-1.60089-.29126,2.13132,2.13132,0,0,1-.95026-.97632,1.039,1.039,0,0,1-.098-.44507.93314.93314,0,0,1,.13818-.44214,1.169,1.169,0,0,1,.31744-.353.68882.68882,0,0,1,.21167-.093l.65662-.17407a1.92108,1.92108,0,0,0-.3111-3.76733,4.45521,4.45521,0,0,0-2.53632.53687,5.14,5.14,0,0,0-1.74023,1.59766,5.0266,5.0266,0,0,0-.5882,4.57959,6.32791,6.32791,0,0,0,2.715,3.27246,7.38672,7.38672,0,0,0,3.89771,1.0061,10.34268,10.34268,0,0,0,3.57587-.70972,11.49789,11.49789,0,0,0,3.09875-1.77905,9.56167,9.56167,0,0,0,3.672-6.48779,8.63315,8.63315,0,0,0-.58276-3.947,10.43725,10.43725,0,0,0-2.02106-3.19629,12.60755,12.60755,0,0,0-6.16357-3.67676,16.35414,16.35414,0,0,0-3.05927-.45874c.47827-.2439.96149-.47705,1.45245-.6897a23.25236,23.25236,0,0,1,5.34589-1.554,20.40785,20.40785,0,0,1,5.4613-.07764,18.20583,18.20583,0,0,1,5.22083,1.51294,22.42368,22.42368,0,0,1,8.65546,7.12646,17.83345,17.83345,0,0,1,2.47339,4.90356,12.94507,12.94507,0,0,1,.505,5.228l-.201,1.301-.40454,1.26636a7.63675,7.63675,0,0,1-1.11591,2.2915,10.89049,10.89049,0,0,1-8.99707,4.68286l-.0639-.00146a2.24878,2.24878,0,0,0-.23566,4.489,15.54322,15.54322,0,0,0,13.53668-6.07251,12.83049,12.83049,0,0,0,1.93176-3.42285c.228-.5979.4599-1.19678.67169-1.80249l.41357-1.89282a18.17833,18.17833,0,0,0-.33276-7.64795,23.8499,23.8499,0,0,0-3.05389-6.8064,28.897,28.897,0,0,0-10.81165-9.70483,25.185,25.185,0,0,0-7.12988-2.39771,26.81261,26.81261,0,0,0-7.50146-.14917,30.55952,30.55952,0,0,0-7.17676,1.83691,34.14817,34.14817,0,0,0-9.93115,6.10718,22.3136,22.3136,0,0,0-3.11511-8.58521,19.3719,19.3719,0,0,0-4.13068-4.74756,16.77526,16.77526,0,0,0-12.03607-3.832,14.67843,14.67843,0,0,0-6.27582,1.93726,14.28253,14.28253,0,0,0-6.92,10.76245,13.10132,13.10132,0,0,0,.99713,6.55859,11.44463,11.44463,0,0,0,1.82715,2.91846,10.46352,10.46352,0,0,0,2.70825,2.24512,10.09617,10.09617,0,0,0,6.8891,1.26147,9.00019,9.00019,0,0,0,5.91571-4.06665,7.79722,7.79722,0,0,0,.61829-7.41479,6.24986,6.24986,0,0,0-1.2359-1.772,5.53966,5.53966,0,0,0-4.25781-1.6106,4.92523,4.92523,0,0,0-2.4126.81323,2.374,2.374,0,0,0,2.63031,3.95288c-.05414.0293.131-.02441.34436.07886a.62228.62228,0,0,1,.23663.17847,1.42966,1.42966,0,0,1,.24268.39673,2.86149,2.86149,0,0,1-.41174,2.6521,3.89436,3.89436,0,0,1-2.58185,1.6792,4.86185,4.86185,0,0,1-3.24695-.74048c-1.97546-1.16479-3.02905-3.91992-2.6601-6.49316a8.52743,8.52743,0,0,1,4.25952-6.24487,9.746,9.746,0,0,1,7.76788-.43555,11.74287,11.74287,0,0,1,6.15338,5.31543,16.16276,16.16276,0,0,1,2.12842,8.38794,23.01789,23.01789,0,0,1-.93237,6.1272c-.88257,1.57739-1.64514,3.15894-2.359,4.74463-1.86078,4.15454-3.294,8.25439-4.991,11.979-.412.91528-.83734,1.78735-1.28693,2.65552-.05743-.25342-.10663-.509-.17316-.7605a18.39451,18.39451,0,0,0-2.57452-5.58374,14.46068,14.46068,0,0,0-4.82062-4.4353,12.90566,12.90566,0,0,0-12.81543.28564,11.98131,11.98131,0,0,0-4.42493,4.66406,13.058,13.058,0,0,0-1.53925,5.84326,12.09877,12.09877,0,0,0,1.22791,5.752,2.17914,2.17914,0,0,0,4.09045-1.38525l-.02924-.15088a8.623,8.623,0,0,1,1.58185-6.77466,5.97534,5.97534,0,0,1,2.40363-1.84985,6.78489,6.78489,0,0,1,2.91461-.45215,4.98314,4.98314,0,0,1,2.54181.91235,6.76534,6.76534,0,0,1,1.96588,2.16479,10.8121,10.8121,0,0,1,1.23486,3.126,13.3192,13.3192,0,0,1,.26672,1.72461c.045.60693.05194,1.22656.03925,1.85693a30.40992,30.40992,0,0,1-1.6358,8.04639l-2.35327,7.34619c-1.9599,3.45239-3.926,6.85718-6.02368,10.2085-.497.81494-1.01611,1.61548-1.52264,2.42407a21.59185,21.59185,0,0,0-.81061-4.20532,22.28943,22.28943,0,0,0-9.39069-12.27588,2.96826,2.96826,0,1,0-3.14709,5.03369,15.97089,15.97089,0,0,1,7.2851,16.35767,12.99383,12.99383,0,0,0-5.13861-3.575,12.308,12.308,0,0,0-3.40155-.71753,12.68139,12.68139,0,0,0-3.46655.32153,13.02582,13.02582,0,0,0-5.92914,3.26807,12.88047,12.88047,0,0,0-2.17169,2.82471,12.02939,12.02939,0,0,0-1.25354,3.54272l-.01654.08813q-.03351.18494-.05151.37549a4.35894,4.35894,0,0,0,8.67975.81445,3.41851,3.41851,0,0,1,.199-.87622,4.40707,4.40707,0,0,1,.5769-.93335,5.429,5.429,0,0,1,.91852-.82764,5.67017,5.67017,0,0,1,1.12213-.57031,4.99214,4.99214,0,0,1,1.15588-.23242,4.58035,4.58035,0,0,1,1.17554.13062,5.55758,5.55758,0,0,1,2.37476,1.4021,6.52838,6.52838,0,0,1,1.58,2.51489,6.45991,6.45991,0,0,1,.27747,1.437c.00281.05835-.00262.11841-.00128.177q-1.68466,2.34082-3.40039,4.65869c-2.5744,3.39673-5.18958,6.762-7.8974,10.052q-1.95566,2.4115-3.97839,4.76563l.55872-10.07129a1.98195,1.98195,0,0,0-3.93005-.45776l-2.87164,16.0918a3.31221,3.31221,0,0,0-.04163.35767,2.94647,2.94647,0,0,0,.12671.999q-1.81329,1.97827-3.65405,3.93042a17.91622,17.91622,0,0,0-9.34888-2.70386c-.92053-1.07861-1.82056-2.21021-2.69244-3.37329-1.278-1.71118-2.50787-3.48291-3.70111-5.293a2.959,2.959,0,0,0,.34973-1.09668,8.85565,8.85565,0,0,1,1.70831-4.25854,6.65374,6.65374,0,0,1,3.54114-2.50952,5.37821,5.37821,0,0,1,4.09216.69775,4.464,4.464,0,0,1,2.28149,3.31616l.00348.04688a1.97933,1.97933,0,0,0,3.95209-.13818,7.864,7.864,0,0,0-1.06549-3.96,9.559,9.559,0,0,0-2.65161-2.93433,10.067,10.067,0,0,0-7.60284-1.87451,11.81192,11.81192,0,0,0-6.713,3.85132,14.50721,14.50721,0,0,0-1.82581,2.56616q-2.37753-3.97632-4.60529-8.061a12.2301,12.2301,0,0,1,.31641-2.2251,12.77042,12.77042,0,0,1,6.266-8.13184,3.67874,3.67874,0,0,0,.34564-.207,3.56967,3.56967,0,1,0-4.01044-5.90649l-.07812.053a19.28051,19.28051,0,0,0-6.98206,8.5957q-1.70911-3.36621-3.33551-6.76733c-.09229-.19458-.181-.39087-.27271-.58594a44.251,44.251,0,0,1-.98663-9.344,33.4952,33.4952,0,0,1,.75983-7.05127,27.01184,27.01184,0,0,1,2.33868-6.42651,23.01583,23.01583,0,0,1,3.95239-5.42529,19.15961,19.15961,0,0,1,5.17609-3.90625,12.82182,12.82182,0,0,1,1.4389-.65137,11.95236,11.95236,0,0,1,1.47516-.50855,15.36494,15.36494,0,0,1,1.50214-.3606c.49847-.08325.97467-.13306,1.46466-.19482a15.01677,15.01677,0,0,1,5.95172.87256,14.23623,14.23623,0,0,1,5.11694,3.136,10.68228,10.68228,0,0,1,2.98767,4.70288,11.39111,11.39111,0,0,1-2.57471,10.60913,9.76681,9.76681,0,0,1-4.68219,3.03418,10.04929,10.04929,0,0,1-2.76538.3855,7.3263,7.3263,0,0,1-2.56342-.50562,5.22847,5.22847,0,0,1-1.91736-1.30908,4.76754,4.76754,0,0,1-1.05267-2.18311,5.35705,5.35705,0,0,1,.015-2.53882,3.80438,3.80438,0,0,1,1.19476-1.94263l.27942-.23975a2.23447,2.23447,0,0,0-2.54517-3.64551c-6.95154,3.87378-5.66937,14.3999,1.11127,17.7334a14.7191,14.7191,0,0,0,9.90656,1.27539,16.267,16.267,0,0,0,4.67529-1.75513,19.01366,19.01366,0,0,0,3.9259-2.97681,19.34039,19.34039,0,0,0,4.87036-8.354,17.755,17.755,0,0,0,.03119-9.90723,18.48552,18.48552,0,0,0-5.15619-8.3855,22.11847,22.11847,0,0,0-8.10663-4.918,22.70546,22.70546,0,0,0-9.4007-1.18188c-.79761.10376-1.61731.20654-2.39264.37549a23.466,23.466,0,0,0-2.26892.62988,19.56434,19.56434,0,0,0-2.18207.8418,20.38053,20.38053,0,0,0-2.07709,1.03418,28.36153,28.36153,0,0,0-11.81891,13.13086c-.24823.53955-.46649,1.09229-.67981,1.64673a53.66975,53.66975,0,0,1,4.76581-18.2522c.05029-.10889.09973-.22778.14124-.343a4.16,4.16,0,0,0-7.8269-2.82178l-.00922.02563a60.71579,60.71579,0,0,0-2.65741,10.019,79.31744,79.31744,0,0,1-.133-13.502,67.92606,67.92606,0,0,1,2.15747-12.46948,55.86018,55.86018,0,0,1,4.52972-11.65918,34.32856,34.32856,0,0,1,7.23157-9.51685,19.67588,19.67588,0,0,1,10.04437-4.86523,16.84569,16.84569,0,0,1,10.74652,1.70654,13.30731,13.30731,0,0,1,2.22717,1.5083,11.2884,11.2884,0,0,1,1.83911,1.88086,12.42487,12.42487,0,0,1,2.28833,4.79224c.83289,3.49854.14581,7.27368-2.38464,9.69775-2.4884,2.49341-6.52222,3.71558-9.76489,2.50562l-.037-.01392a2.25,2.25,0,0,0-1.73553,4.14722,13.11763,13.11763,0,0,0,8.03461.91113,15.59536,15.59536,0,0,0,7.19067-3.53125,14.5407,14.5407,0,0,0,2.71143-3.12451,15.29976,15.29976,0,0,0,1.72308-3.77954,17.05141,17.05141,0,0,0,.40033-8.07275,18.84367,18.84367,0,0,0-3.10474-7.42358,19.17693,19.17693,0,0,0-5.93689-5.46509,23.95508,23.95508,0,0,0-15.24323-3.07153,26.15268,26.15268,0,0,0-7.51624,2.14111,29.20369,29.20369,0,0,0-6.53668,4.14136,40.37527,40.37527,0,0,0-9.26306,11.57007,61.59165,61.59165,0,0,0-2.94275,6.14355,53.64825,53.64825,0,0,1,3.6947-14.88159c.04645-.11426.09119-.238.12805-.35815a4.16021,4.16021,0,0,0-7.9541-2.44165l-.00824.02661a61.41985,61.41985,0,0,0-2.62329,20.71484,22.88871,22.88871,0,0,0-5.96686-5.14233,19.07034,19.07034,0,0,0-6.35669-2.366,17.04037,17.04037,0,0,0-7.01123.25879,17.68345,17.68345,0,0,0-6.27826,3.01,16.65979,16.65979,0,0,0-5.71008,18.8252,13.42434,13.42434,0,0,0,4.07013,5.90942,11.04876,11.04876,0,0,0,1.58069,1.07324,10.16056,10.16056,0,0,0,5.62433,1.28516,8.93652,8.93652,0,0,0,3.78754-1.14062,7.72428,7.72428,0,0,0,1.65222-1.26514,7.129,7.129,0,0,0,1.21155-1.66064,7.57584,7.57584,0,0,0,.87982-3.80762,7.11479,7.11479,0,0,0-.39966-1.96436,5.98474,5.98474,0,0,0-1.03516-1.75391,1.88924,1.88924,0,0,0-3.2052,1.895l.12372.32593a2.71334,2.71334,0,0,1-.64526,2.63574,2.33946,2.33946,0,0,1-1.06836.6416,3.31578,3.31578,0,0,1-1.403.08691,4.06915,4.06915,0,0,1-1.44086-.44556,3.36929,3.36929,0,0,1-.60266-.40112,4.47081,4.47081,0,0,1-.567-.54077,7.29529,7.29529,0,0,1-1.5705-3.10645,9.85474,9.85474,0,0,1,1.14331-7.30151,9.664,9.664,0,0,1,5.87781-4.24048,10.18881,10.18881,0,0,1,7.37683,1.07886,17.881,17.881,0,0,1,6.32513,5.87866,31.04374,31.04374,0,0,1,3.76874,8.81738c.52069,1.7915.93518,3.656,1.33484,5.55615a89.1581,89.1581,0,0,0,1.40894,19.13062,37.80607,37.80607,0,0,0-17.61249-11.31323,34.77124,34.77124,0,0,0-11.74658-1.4231l-.06329.00317q-.15363.00842-.30859.02881a4.15926,4.15926,0,1,0,1.08051,8.248,28.80066,28.80066,0,0,1,17.88965,3.8418,29.96488,29.96488,0,0,1,11.82281,12.35376c-.14325-.09814-.28143-.20068-.42621-.29761-.54089-.34448-1.06824-.70044-1.62408-1.03345l-1.70953-.96606-1.82507-.87646-1.89648-.73975a28.72733,28.72733,0,0,0-7.95178-1.47485,26.64785,26.64785,0,0,0-15.722,4.1167,21.83458,21.83458,0,0,0-9.57233,13.7373,22.87235,22.87235,0,0,0-.3385,8.449,20.17126,20.17126,0,0,0,3.01215,8.08643,17.58088,17.58088,0,0,0,6.50812,5.93726,14.28408,14.28408,0,0,0,8.94281,1.564,11.40669,11.40669,0,0,0,2.32867-.64551c.38824-.1687.78888-.35474,1.16235-.55591a12.27687,12.27687,0,0,0,1.05719-.687,10.9171,10.9171,0,0,0,3.11847-3.62842,10.05054,10.05054,0,0,0,1.1955-4.59473,8.06,8.06,0,0,0-1.43011-4.71484,2.24633,2.24633,0,0,0-3.93085,2.08862l.09607.261a3.59344,3.59344,0,0,1,.13019,2.01758,4.73251,4.73251,0,0,1-.944,2.02295,5.13378,5.13378,0,0,1-1.6543,1.4436c-.147.09131-.30872.12915-.45325.20557l-.45154.13281a6.8474,6.8474,0,0,1-1.08417.15332,7.86461,7.86461,0,0,1-4.54779-1.36255,10.11215,10.11215,0,0,1-3.49017-3.71729,14.66746,14.66746,0,0,1-1.20294-10.57153,15.13655,15.13655,0,0,1,2.21191-4.9646,14.475,14.475,0,0,1,3.8775-3.76147,19.799,19.799,0,0,1,10.96887-3.14307,21.33563,21.33563,0,0,1,5.85785.83813l1.40881.44653,1.38037.55811,1.39478.67651c.46472.23926.9256.51294,1.39069.7666a58.55379,58.55379,0,0,1,5.42426,3.65088c1.62238,1.24023,3.16058,2.59766,4.66986,3.98877a15.4998,15.4998,0,0,0-9.67792,1.46l-.38123.1958a4.20736,4.20736,0,1,0,4.72858,6.88721,7.89211,7.89211,0,0,1,4.84589-1.78857,8.94852,8.94852,0,0,1,5.45886,1.552l.11029.07813c.01556.011.033.01782.04877.02856,1.5968,3.17627,3.24567,6.32275,4.97577,9.4248,2.22412,3.97607,4.52844,7.91162,7.01532,11.75464,2.486,3.84546,5.08563,7.63306,7.99158,11.29346.13953.17358.28253.34619.42316.51953-.10535.06641-.22467.124-.32336.19458-2.58179-4.125-5.30853-8.2002-9.39606-11.00146a41.47,41.47,0,0,0-7.291-3.69482q-5.00391-2.135-10.00793-4.26978c-2.57379-1.0979-5.57306-2.18945-8.05829-.90332a1.08115,1.08115,0,0,0-.55859.51758,1.3298,1.3298,0,0,0,.19336.9917c1.13379,2.44849.88989,5.28735.56335,7.96582-.76874,6.3064.37177,10.39258,5.79633,13.79395,3.77191,2.365,10.77728,3.60962,7.0838,9.4021-5.42017,8.50024-5.51019,18.3667-15.82642,23.22314a3.68439,3.68439,0,0,0-2.274,3.6084c.20709,4.04761,6.79492,10.71631,10.68024,10.75171a81.95093,81.95093,0,0,0,18.80988-1.73c-.92,3.54248.48145,8.103.54468,11.91577a53.04258,53.04258,0,0,1-1.88977,16.45337c-2.0307,6.64331-5.89142,12.55054-8.88989,18.81714a77.61413,77.61413,0,0,0-7.55634,31.72339c-.22748,10.63574-3.45233,14.30981-12.15,19.84985-7.27063,4.63159-15.25049,7.7251-23.32306,10.616a44.40776,44.40776,0,0,0-8.23724,3.53784c-5.54279,3.34229-9.01819,8.50635-12.51611,13.55786-5.20239,7.51343-4.94684,15.469-1.19934,23.71851,1.70325,3.74951,4.62122,6.74048,6.1167,10.38232,2.47931,6.0376,6.77466,10.92871,9.50629,16.749.45557.9707.9729,1.91992,2.21906,2.07813,3.80554.48315,5.04047,3.58154,6.3479,6.4624.79211,1.74512.89752,4.05225,2.54755,5.09058,3.6554,2.2998,5.52808,5.78735,7.37317,9.42993,1.06293,2.09814,2.26489,4.28076,4.55176,5.26416,2.40759,1.03564,3.23779,5.15039,6.86145,3.65283,3.22339-1.332,2.85223-4.7937,3.29517-7.25024,1.19366-6.62036,1.3316-13.02856-4.9895-18.03857-5.01825-3.97754-8.59161-10.05249-13.96686-13.23877-7.38983-4.38062-8.83234-10.98853-10.0517-18.15454-.53644-3.15234-.82751-6.35986-1.23553-9.52954-.6781-5.26733.47937-9.85522,5.80511-12.16309,3.45581-1.4978,7.3797-1.44067,11.12128-1.009s7.46979,1.21313,11.23376,1.075c10.99109-.40405,20.99072-8.52905,29.63641-14.5437-1.54053,1.07178,5.86114,6.604,6.6037,6.896,2.0788.81836,4.32916,1.36841,6.06458,2.77515,6.98773,5.66626-2.79156,25.24878-3.694,32.47754-.8786,7.03784-1.96674,13.93677-4.70032,20.54517a42.37581,42.37581,0,0,0-3.20935,16.92065,87.16868,87.16868,0,0,1-1.61688,18.48071,68.42415,68.42415,0,0,0-1.38477,18.30029c.40729,6.38965-1.28546,13.06445-2.963,19.23145h-18.6369c-10.15125-14.17676-20.05151-29.22412-29.34436-44.69238C104.34412,768.86133,49.975,660.94336,49.975,544.291c0-65.123,9.43994-123.58984,28.05762-173.77734A41.001,41.001,0,0,0,49.975,316.58984V226.86011a42.89579,42.89579,0,0,0,1.01154,4.856,48.8,48.8,0,0,0,15.94067,24.25806c8.233,6.87939,16.93433,9.613,27.377,10.98584a66.87615,66.87615,0,0,0,7.74695.57471,66.85427,66.85427,0,0,0-3.37531,6.99683c-7.55219,18.22534-5.42932,40.68408,8.86511,55.13525a42.91821,42.91821,0,0,0,3.69495,3.31519,9.34773,9.34773,0,0,0-1.14374,2.32349,121.21649,121.21649,0,0,0-5.02228,22.44141,148.90726,148.90726,0,0,0-.08661,34.18384c.87384,7.73755,2.9328,18.42188,11.56622,21.03394,7.84711,2.37427,19.04486.62158,26.43732-2.41919a120.64451,120.64451,0,0,0,43.5816-31.08691,9.3471,9.3471,0,0,0,1.44037-2.15112,42.99721,42.99721,0,0,0,4.71912,1.54224c19.75464,5.178,40.08484-4.11426,52.182-19.89258a66.89351,66.89351,0,0,0,4.37061-6.42139,66.85382,66.85382,0,0,0,4.371,6.42139c4.6095,6.011,11.15454,13.58789,18.04376,16.9436,10.36462,5.04883,23.03937,5.85571,34.138,2.94678a42.92713,42.92713,0,0,0,4.71222-1.53979,9.36833,9.36833,0,0,0,1.44678,2.14917c9.01666,10.05688,20.57184,20.58228,32.738,26.69751,9.8692,4.96045,21.003,10.61353,32.48755,9.89551a16.02333,16.02333,0,0,0,5.35669-1.19141c7.00287-3.00244,8.48041-11.0332,9.94489-19.12476q.792-4.38025,1.265-8.81006a116.39744,116.39744,0,0,0,.79742-16.92749,126.84393,126.84393,0,0,0-6.11377-34.69385,9.35457,9.35457,0,0,0-1.14355-2.323,42.90936,42.90936,0,0,0,3.69482-3.31567,46.44649,46.44649,0,0,0,12.83264-25.166c1.70612-10.511.14142-20.05591-3.9682-29.969-.65082-1.57007-1.91321-3.32983-2.29-4.96411-.64856-2.813,3.042-2.12012,5.26532-2.209,16.73645-.66724,36.08838-11.27246,41.54089-28.01343.34662-1.06421,3.53717-12.61011,4.19409-12.48608a9.63452,9.63452,0,0,0,1.43085-.01489Zm-.87262,194.377c-.08148-1.52222-.16107-3.0459-.25159-4.56128l-11.04382,2.51587,8.74115-29.93872Q448.29263,494.65723,449.15216,510.9668Zm.421,9.01147c.26093,6.96313.389,14.02271.42279,21.14917q-.03333-6.97742-.2168-13.84766l-6.347-3.9624Zm.4516-312.2561c-.8797.21045-1.75977.41943-2.64459.606a37.82794,37.82794,0,0,0-24.43433-25.79687,37.82557,37.82557,0,0,0,24.43463-25.79663c.8847.18628,1.76465.39575,2.64429.606Z"/></svg>