<svg id="Слой_1" data-name="Слой 1" xmlns="http://www.w3.org/2000/svg" viewBox="0 0 500 1000"><title>Flags light bulbs</title><polygon points="226.956 700.267 226.954 700.275 226.959 700.262 226.956 700.267"/><path d="M235.89966,614.09546l-.0022.01978c-.00073.009.001.01855.00024.02759Z"/><path d="M172.62134,530.47119l-.04468.01416,3.437-.48389c-.116-.01025-.23462-.00293-.35181-.00732Q174.14136,530.23291,172.62134,530.47119Z"/><path d="M491.02466,319.74609v-173.043a37.08071,37.08071,0,0,0-37.08057-37.08105H323.13159V28.25049A25.75039,25.75039,0,0,0,297.3811,2.5H202.6189a25.75039,25.75039,0,0,0-25.75049,25.75049v81.37158H46.05591A37.08071,37.08071,0,0,0,8.97534,146.70313v173.043A37.08287,37.08287,0,0,0,39.592,356.25391c-19.49023,52.54-30.6167,115.75-30.6167,188.03711,0,225.27051,185.40381,453.209,241.0249,453.209,51.501,0,241.02441-227.93848,241.02441-453.209,0-72.28711-11.12646-135.49707-30.6167-188.03711A37.08287,37.08287,0,0,0,491.02466,319.74609Zm-72.09229-49.71875c0-11.043,8.87012-17.0166,18.64551-17.0166,11.31445,0,17.56055,6.78809,17.56055,8.59863,0,1.71973-5.06934,9.05176-7.15137,9.05176-2.35352,0-2.89648-6.96973-11.22363-6.96973-2.80566,0-6.60742,1.2666-6.60742,3.98242,0,9.32324,26.43066,9.1416,26.43066,27.5166,0,11.7666-9.77637,18.46484-20.6377,18.46484-9.59473,0-19.09863-5.61133-19.09863-16.20215,0-4.25391,2.17188-9.68457,2.89648-9.68457.45215,0,2.71484,13.668,15.56836,13.668,3.71094,0,8.05566-1.90137,8.05566-6.51758C443.37085,285.5957,418.93237,288.04,418.93237,270.02734Zm-45.13574,483.178A14.96963,14.96963,0,0,0,363.27,755.07153c-1.844-7.23291-4.93726-13.97876-10.29248-18.51587,3.49243,3.06763,9.40967,1.835,14.4856-.53638a32.00747,32.00747,0,0,1,15.76318,9.73584c4.92188,5.6416,7.41211,12.39844,6.83105,18.53906-.5957,6.31055-4.89062,11.95313-10.21387,13.416a10.941,10.941,0,0,1-8.26367-1.28027,8.417,8.417,0,0,1-4.1123-5.13477,6.083,6.083,0,0,1,.791-4.92773,3.45657,3.45657,0,0,1,3.10059-1.41211,6.00008,6.00008,0,0,0,2.4375-11.75ZM80.01685,349.5h9.72949a75.033,75.033,0,0,0-9.19312,5.395A41.27179,41.27179,0,0,0,80.01685,349.5ZM99.31217,510.21667a27.22423,27.22423,0,0,1,14.30136,3.716c12.44813,7.29374,21.73383,20.14362,18.43993,33.47482-1.48926,6.02734-6.09668,12.64551-13.0332,13.84375-5.23145.89941-12.20605-1.10449-14.8418-6.60254-1.22949-2.5625-1.36328-6.28516.541-8.08008a3.85886,3.85886,0,0,1,2.83008-.88477,1.6102,1.6102,0,0,1,1.3214.668,4.17857,4.17857,0,0,0,3.27223,2.2986c5.72012.28219,7.97517-5.16585,5.48157-8.66a12.34052,12.34052,0,0,0-9.02051-5.07227,14.57113,14.57113,0,0,0-11.30371,3.77734c-4.13159,3.8938-5.28833,9.32715-4.69751,14.27466a27.106,27.106,0,0,0-18.91675-3.35083c-11.65039,2.44434-20.29492,14.06934-18.875,25.38574A5.99982,5.99982,0,0,0,66.71753,573.511c-.65039-5.18555,3.8457-10.97559,9.43164-12.14746,5.71289-1.19434,12.4873,1.83594,16.12793,7.208,3.59375,5.30176,4.52637,12.69238,2.49414,19.76953-1.79,6.23828-5.58691,11.30273-10.417,13.89453-5.21191,2.79883-12.335,2.88281-18.58789.2207A33.98892,33.98892,0,0,1,52.92871,592.343a402.0385,402.0385,0,0,1-2.95386-48.052c0-3.616.04-7.20361.09839-10.77832C62.34941,512.6518,87.56265,510.44623,99.31217,510.21667ZM50.67627,514.634q.76611-16.60657,2.39575-32.56812a85.36739,85.36739,0,0,0,10.39844,13.11792,61.40835,61.40835,0,0,0,8.23608,6.9624A65.29572,65.29572,0,0,0,50.67627,514.634Zm10.38989,98.86328a36.13808,36.13808,0,0,0,14.11426,2.91406A31.38694,31.38694,0,0,0,90.03,612.80884c7.665-4.11426,13.59766-11.82617,16.27539-21.15625a37.63581,37.63581,0,0,0-.0979-21.43652,26.18911,26.18911,0,0,0,14.65356,1.69531c10.332-1.78516,18.84766-10.38477,21.69434-21.90918,3.8584-15.61792-3.71313-30.18945-15.81006-40.10791,12.55029-2.54468,24.26538-9.59863,31.78174-19.92432a5.99983,5.99983,0,0,0-9.70117-7.0625,39.59569,39.59569,0,0,1-19.63672,14.00684,51.1648,51.1648,0,0,0,5.97266-7.19531c8.85742-12.94629,10.54-28.16895,4.501-40.71973-4.8584-10.09668-14.34082-17.50488-24.74707-19.333-11.53906-2.0293-23.42676,2.90332-29.58105,12.27148-6.58691,10.03027-5.248,24.23145,3.04883,32.33008,5.45508,5.32422,14.84277,8.18555,22.2373,3.34766a5.99981,5.99981,0,1,0-6.57031-10.041c-1.7334,1.13379-5.07129.26563-7.28516-1.89453-4.25586-4.15332-4.88379-11.84961-1.40039-17.1543,3.50586-5.33691,10.68555-8.23047,17.47363-7.041,6.665,1.1709,12.7998,6.04395,16.01074,12.71777,4.21777,8.76465,2.9082,19.24023-3.5918,28.74121-6.60059,9.647-16.9707,15.68628-27.01855,16.001-.61768-.26318-14.93717-.32617-26.25488-12.21777a97.87547,97.87547,0,0,1-16.46582-24.915A440.68332,440.68332,0,0,1,77.021,373.3562c9.82788-9.73267,23.30933-17.856,36.60571-17.856h.125c10.01465.03809,18.38379,4.89746,24.876,14.44043,6.91309,10.16406,7.25781,24.21.83887,34.15723-6.50684,10.08008-19.78125,15.13867-30.87891,11.7627a15.0266,15.0266,0,0,1-10.44043-11.27051c-1.10352-4.86328.09082-9.90234,2.9707-12.54,3.26953-2.99414,8.04492-2.30762,11.4707-1.207a5.99972,5.99972,0,1,0,3.67188-11.42383c-12.3125-3.96-19.84961.66895-23.24707,3.78125-6.14062,5.623-8.6582,14.83691-6.56934,24.04395a26.9975,26.9975,0,0,0,18.65137,20.09668c16.03711,4.87793,35.14648-2.31738,44.45313-16.73535,8.959-13.88184,8.54785-33.37793-.999-47.41309A47.32978,47.32978,0,0,0,134.70435,349.5h95.43872a48.10878,48.10878,0,0,1,3.85669,6.73267c5.78613,12.39648,5.24609,27.07031-1.376,37.38281-6.89062,10.72949-21.02051,16.26855-32.16992,12.61523-11.46875-3.76074-16.84277-19.99414-13.64453-30.92773,2.16992-7.42187,7.30469-10.14844,15.2793-8.0918a11.16732,11.16732,0,0,1,6.832,5.89063,9.10947,9.10947,0,0,1,.56445,7.50879,6,6,0,1,0,11.06055,4.6543,21.05456,21.05456,0,0,0-.873-17.49219,23.14606,23.14606,0,0,0-14.58984-12.18262c-14.13184-3.63672-25.82324,2.77539-29.791,16.34473-2.79907,9.57031-1.2998,21.25659,3.92139,30.60229a34.982,34.982,0,0,0,.33057,60.9397,30.26343,30.26343,0,0,0,5.10474,2.25806,76.48461,76.48461,0,0,0-10.73071,20.12939c-3.27051,8.957-9.15771,24.85547-7.1106,35.04a69.36735,69.36735,0,0,0-7.40576,3.25439c-4.92065,2.52393-9.69531,5.87744-12.26733,10.77295-2.52881,4.81445-2.62354,10.50732-2.38623,15.93945q.32922,7.54541,1.36084,15.0376c.50342,3.6543,1.249,7.53271,3.81787,10.1792a15.56592,15.56592,0,0,0,6.68164,3.6167c.49194.1543.988.293,1.48462.43115a73.93685,73.93685,0,0,0-1.96313,10.32837c-9.63721-8.48267-25.62378-9.45288-37.1875-1.59082-10.8877,7.4043-17.33984,21.33105-16.83691,36.34473a56.19843,56.19843,0,0,0,.93018,8.38867,31.46415,31.46415,0,0,0-17.90479-1.32812,27.39928,27.39928,0,0,0-17.53613,13.70508,25.03082,25.03082,0,0,0-2.81006,8.5c-3.6814-14.24121-6.82739-28.90918-9.26514-43.88989A40.36864,40.36864,0,0,0,61.06616,613.49731Zm105.9873-302.64771c-.09082,1.44824-2.082,1.44824-3.07812,1.44824h-7.24121c-3.34863,0-4.97852,2.80566-4.97852-27.1543,0-25.07324-.72363-30.68457,1.81055-30.77539h7.5127c1.35742,0,2.9873-.45215,3.07813,1.26758.18066,1.35742.36133,3.07715,2.17188,3.07715,1.35742,0,2.89648-1.44824,4.79688-2.89648,1.90137-1.35742,4.07324-2.80566,6.51758-2.80566a8.6815,8.6815,0,0,1,8.418,8.87012c0,6.33594-5.15918,10.1377-7.875,10.1377-1.08594,0,.18066-6.06445-6.06445-6.06445-7.60352,0-8.14648,12.21973-8.14648,17.65039C163.97534,301.61719,167.05347,309.2207,167.05347,310.84961ZM194.657,254.36816h4.97852c3.80176,0,3.89258.27148,3.89258,1.35742,0,3.34961-1.08691,6.69824-1.08691,16.56445a188.98185,188.98185,0,0,0,3.53027,37.6543c0,2.89648-2.71484,2.35352-4.79687,2.35352h-6.15527c-4.43555,0-4.79687,1.90039-4.79687-29.96094C190.22241,251.38086,191.67065,254.36816,194.657,254.36816ZM191.21753,241.334c0-3.89258,3.34961-6.24512,6.96973-6.24512,3.62109,0,6.96973,2.35254,6.96973,6.24512s-3.34863,5.97363-6.96973,5.97363C194.56714,247.30762,191.21753,245.22656,191.21753,241.334Zm24.52734,28.69336c0-11.043,8.87012-17.0166,18.64551-17.0166,11.31445,0,17.56055,6.78809,17.56055,8.59863,0,1.71973-5.06934,9.05176-7.15137,9.05176-2.35352,0-2.89648-6.96973-11.22363-6.96973-2.80566,0-6.60742,1.2666-6.60742,3.98242,0,9.32324,26.43066,9.1416,26.43066,27.5166,0,11.7666-9.77637,18.46484-20.6377,18.46484-9.59473,0-19.09863-5.61133-19.09863-16.20215,0-4.25391,2.17188-9.68457,2.89648-9.68457.45215,0,2.71484,13.668,15.56836,13.668,3.71094,0,8.05566-1.90137,8.05566-6.51758C240.18335,285.5957,215.74487,288.04,215.74487,270.02734ZM390.29761,408.52173a6.01354,6.01354,0,0,0,6.35156-5.627c.31543-5.2168,5.80078-10.0791,11.50781-10.20215,5.80469-.10059,11.93457,4.10352,14.52344,10.05469,2.55566,5.874,2.11133,13.30957-1.18848,19.89063-2.91016,5.80176-7.5752,10.08105-12.7998,11.73926-5.63379,1.791-12.6543.56152-18.30957-3.207-6.71777-4.47656-10.62012-11.39844-12.71191-16.417a51.76207,51.76207,0,0,1,1.10962-41.147c1.34863-1.94824,9.68823-20.61279,24.52368-24.1062H419.9834a40.97993,40.97993,0,0,0,1.98413,21.01367q3.57642,9.6405,6.69531,19.68921c-5.25586-5.856-12.71509-9.51318-20.2627-9.51318-.167,0-.335.002-.501.00488-11.90332.25684-22.54,10.0918-23.22852,21.47559A6.0004,6.0004,0,0,0,390.29761,408.52173Zm-34.64819,40.22583a30.40934,30.40934,0,0,0-8.678,1.55249c-11.19727,3.71191-18.6709,13.38086-19.04,24.63477-.36816,11.28613,6.85254,23.56836,19.57422,24.585a15.6559,15.6559,0,0,0,9.88574-2.38867,5.99966,5.99966,0,0,0-6.54883-10.05469,3.89262,3.89262,0,0,1-2.38281.48145c-5.33008-.42578-8.71582-6.66895-8.53418-12.23145.20215-6.1709,4.4502-11.52344,10.82129-13.63574a18.55044,18.55044,0,0,1,16.73633,2.67383,24.844,24.844,0,0,1,10.5459,19.10059c.45117,12.54-8.04,25.625-20.64844,31.82129-13.26587,6.51807-26.41895,1.5332-35.75317-6.41943,2.87329-11.769-.28174-24.88428-4.66333-35.87036a70.08047,70.08047,0,0,0-13.85571-22.28027,15.84035,15.84035,0,0,0,7.49487-3.06982A16.382,16.382,0,0,0,316.24,430.63916c-1.73975-6.15918-7.01245-10.71924-12.65405-13.7417a33.6235,33.6235,0,0,0-11.281-3.8186,32.12006,32.12006,0,0,0,10.88965-19.1062c7.09521,5.97144,16.7063,9.18384,26.60889,9.18384a45.35466,45.35466,0,0,0,15.793-2.82422c1.196-.44507,2.39795-.96631,3.60034-1.51978a56.25725,56.25725,0,0,0-3.16284,18.87329A58.00541,58.00541,0,0,0,355.64941,448.74756Zm11.75537,223.63818q.67126-1.83765,1.34253-3.67554a6.45329,6.45329,0,0,0,1.604-1.28711c4.96387-5.5,13.84082-7.74121,22.60547-5.7168,8.97949,2.0752,16.88477,8.248,20.63184,16.11035,3.89648,8.17676,3.28027,18.42188-1.53418,25.49609-4.80273,7.05859-14.10156,10.751-21.64062,8.58789-2.84473-.81641-6.26855-2.82129-7.34668-5.998a7.22469,7.22469,0,0,1,1.67188-7.04395,6.35859,6.35859,0,0,1,6.56836-1.37109,6.48188,6.48188,0,1,0,4.89063-12.00586,19.30775,19.30775,0,0,0-20.22119,3.835,24.10409,24.10409,0,0,0-4.572-4.77173,27.62718,27.62718,0,0,0-7.00513-3.93115ZM223.06519,608.002a13.41977,13.41977,0,0,1,9.14429,1.71289c3.71826,2.44482,6.468,6.83008,5.75635,11.53662-.93311,6.17236-6.22363,8.436-11.49048,9.16553q-8.5415,1.18286-17.15063,1.76611c-2.56323.17432-5.127.25781-7.69116.32471-2.925.07666-5.85059.13184-8.77686.27734a182.83762,182.83762,0,0,1-18.58154-.0127c-5.78589-.30176-11.63452-.59473-17.29614-2.02344-.95435-.24121-1.39795-.65674-.87329-1.65967.939-1.79346,3.24072-2.70508,4.9165-3.57812A55.62936,55.62936,0,0,1,166.76,623.083c3.02515-1.16895,6.08545-2.23926,9.166-3.24023,6.16333-2.00293,12.40674-3.72852,18.656-5.41992C203.99878,611.875,213.3623,609.15918,223.06519,608.002ZM210.40234,591.04a4.59653,4.59653,0,0,1,4.57471,1.81445l.44653.58838c2.65405,3.61084-1.20288,10.33594-6.51025,7.59521a5.7026,5.7026,0,0,1-2.5625-2.64209C204.689,594.79395,207.32959,591.71484,210.40234,591.04ZM316.78491,806.35547c-2.71558,6.68164-8.47852,11.80664-14.98193,14.92383-6.50366,3.11719-13.73267,4.40625-20.9126,5.08789-2.7605.26172-5.8938.31445-7.884-1.61621-1.81689-1.7627-2.02881-4.55762-2.12769-7.08691q-.25049-6.4043-.501-12.80859c10.04663-2.166,20.24707-4.665,29.7959-9.11523A65.67815,65.67815,0,0,0,316.865,784.75586c.28833.981.5542,1.96875.783,2.96777C319.05786,793.87988,319.16284,800.50439,316.78491,806.35547Zm-19.14648-16.05273c-8.66187,4.03711-18.11719,6.41992-27.49878,8.46484q-.04944-1.262-.09863-2.52441c-.35645-9.00146,2.51807-6.91016,10.36841-8.85205A65.12179,65.12179,0,0,0,307.439,773.356a3.5557,3.5557,0,0,1,5.59229,1.24316q.85364,1.94092,1.64282,3.90625A57.91918,57.91918,0,0,1,297.63843,790.30273Zm-88.22021-24.79395c-.29736,4.27539-4.03516,7.73145-7.93994,8.96143-3.72681,1.17383-8.97949.61084-10.69629-3.42529a12.56268,12.56268,0,0,1-.81519-4.07568c-.29712-4.31348,1.384-8.9502,5.69922-10.61523q.21606-.0835.42969-.15088C202.3147,754.23535,209.905,758.50342,209.41821,765.50879Zm-.05078-65.728a14.63317,14.63317,0,0,1,6.16821-6.87939,9.04065,9.04065,0,0,1,8.64624-.15576,9.3683,9.3683,0,0,1,4.92847,8.93018,11.443,11.443,0,0,1-2.57886,6.02393,14.72125,14.72125,0,0,1-7.67822,4.87158c-3.56934.92041-8.37842-1.1792-9.81274-4.667a7.65036,7.65036,0,0,1-.36011-1.12354A11.85362,11.85362,0,0,1,209.36743,699.78076Zm-11.03369,118.52c4.85889-5.2998,12.98-2.62109,16.27222,3.02051,2.34106,4.01367-.261,10-3.53687,12.64844-3.25293,2.63086-8.729,3.749-12.25439,1.02637a8.99839,8.99839,0,0,1-3.13281-5.44043C194.87085,825.5918,195.93384,820.91895,198.33374,818.30078Zm54.13379-172.00049A52.42191,52.42191,0,0,0,258.696,633.085a6.22982,6.22982,0,0,1,1.01343-2.2373c1.12427-1.33643,2.99927-1.22949,2.63867.8208a36.05718,36.05718,0,0,1-6.82935,15.5332,31.91152,31.91152,0,0,1-3.94336,4.88232,15.82731,15.82731,0,0,1-5.6189,3.126,27.91805,27.91805,0,0,1-10.59253.9292,18.98938,18.98938,0,0,1-8.19922-2.40576,6.69219,6.69219,0,0,1-2.90869-3.17432,2.5232,2.5232,0,0,1-.20142-1.15381,1.40164,1.40164,0,0,1,.11694-.44043c.57007-1.252,1.74512-.2373,2.37378.32178a16.84337,16.84337,0,0,0,11.31274,4.126,21.6844,21.6844,0,0,0,5.76611-.99561c1.96558-.57422,4.282-1.168,5.87012-2.51807A16.41417,16.41417,0,0,0,252.46753,646.30029Zm5.76074-54.45605,1.4519.60107c3.53906,2.03564,3.80347,7.9375.46069,10.28076-3.34326,2.34375-8.801.08252-9.50781-3.938C249.92651,594.7666,254.28687,590.78076,258.22827,591.84424Zm-98.9502,31.37061c-.0542.0227-.1084.04639-.16235.06909.04614-.05029.09229-.1001.13794-.15088C159.26221,623.16016,159.26929,623.18774,159.27808,623.21484Zm-7.40137-9.93921c-1.625,3.52051-5.874,5.792-9.27441,4.95215a6.55732,6.55732,0,0,1-3.94531-3.2627,5.21352,5.21352,0,0,1-.55664-4.11621,5.87042,5.87042,0,1,0-11.0918-3.84961,16.92862,16.92862,0,0,0,1.333,13.57227,18.12612,18.12612,0,0,0,11.458,9.05859,18.70443,18.70443,0,0,0,10.15527-.46021,1.96254,1.96254,0,0,0-.3064,1.418,3.25163,3.25163,0,0,0,1.52734,1.99219,15.92742,15.92742,0,0,0,5.67041,1.81006c.917.165,1.845.32373,2.79932.44971q2.31335.27466,4.65747.51025a71.97672,71.97672,0,0,0,4.62354,7.67871,74.16128,74.16128,0,0,0,9.16943,10.84521q2.49719,2.4375,5.2146,4.63428,1.35571,1.0957,2.76245,2.12744c.35229.25781,1.32373.81348,1.37939,1.28125.10205.85693-.74219.44385-1.4502.57422a9.03679,9.03679,0,0,0-2.97729,1.373,32.65133,32.65133,0,0,0-6.458,5.73047,87.83747,87.83747,0,0,0-10.63208,14.39014c-.48145.80908-.95679,1.626-1.3667,2.47363-1.03613,2.14258-1.96826,4.41846-3.68848,6.06348-4.77734,4.56689-5.67041-.34619-8.64941-2.90918a24.77869,24.77869,0,0,0-13.79-5.4209,22.06015,22.06015,0,0,0-9.69971,1.37036c3.17236-13.66846-9.689-40.79932-10.14038-41.301a53.53825,53.53825,0,0,1-4.7605-19.43579c-.36328-10.86035,4.23047-21.16113,11.7041-26.24316,7.8623-5.34668,19.293-4.21777,24.46289,2.41309C152.79565,604.5686,153.56421,609.61938,151.87671,613.27563ZM134.74976,741.127a1.008,1.008,0,0,0-.41943.01831c-.03833-.04346-.08081-.0835-.11938-.12671C134.38989,741.05273,134.57178,741.09546,134.74976,741.127Zm212.418-63.64648c-.12817.426-.24731.82422-.3623,1.21045-.10107.01294-.20312.021-.3042.03467-2.99512.40234-6.0686,1.10693-8.99365.34814-3.67749-.9541-6.356-3.99951-9.13086-6.59424-9.50439-8.8877-21.14795-12.45557-33.853-13.03369,1.14014-.646,2.27173-1.31152,3.38428-2.01221,10.86719-6.84326,20.23291-16.59863,24.81787-28.59424q.5094-1.33228.93848-2.68921c7.82422,10.92456,18.697,20.93457,31.437,25.25171C355.16528,651.42334,347.823,675.302,347.16772,677.48047ZM310.88354,564.05713c-8.7644-1.998-17.63159-5.06641-26.55713-7.00049-9.11841-1.97559-18.08984-1.90332-27.33936-1.51367-4.41675.186-8.863.417-13.31714.72559-13.77466.95313-27.624,2.64307-40.90063,6.01318a224.18414,224.18414,0,0,0-24.39087,7.85693c-5.60937,2.12891-12.41895,2.14014-16.05737-3.36328a21.85818,21.85818,0,0,1-3.01416-8.64209c-1.14087-7.04395-2.87427-16.189,2.13013-22.21045,2.85669-3.4375,6.8645-4.31934,10.94556-5.56836,26.4624-8.1001,52.39478-14.27051,80.22656-14.49463,13.59155-.10986,27.27539.8877,40.53027,4.0166,6.47461,1.52783,13.28613,3.38721,19.26855,6.35986,10.83057,5.38184,26.69141,22.63965,17.06323,35.21582C324.689,567.69922,317.37158,565.53662,310.88354,564.05713ZM186.37671,412.011c.09912-.04834.19141-.105.28662-.1582a28.9292,28.9292,0,0,0,10.05127,5.78027,35.287,35.287,0,0,0,11.01074,1.72266,42.45091,42.45091,0,0,0,34.99609-19.25586c7.65723-11.92529,9.33423-27.41333,4.86719-41.85474,11.04224.20337,19.97388,2.15771,27.21,5.95337,9.623,5.04883,16.31152,14.13184,17.03809,23.14063.76465,9.47363-5.86133,18.85645-14.18066,20.0791-4.48828.6582-9.25586-1.167-11.60156-4.44043-2.25879-3.15234-2.13281-7.96582.27441-10.51074a6.62367,6.62367,0,0,1,4.78613-1.81934,5.20615,5.20615,0,0,1,3.85352,1.5498,5.871,5.871,0,1,0,8.82617-7.74414,16.93323,16.93323,0,0,0-12.46094-5.54395,18.14266,18.14266,0,0,0-13.53418,5.48926c-6.22168,6.57715-6.78809,17.74219-1.28809,25.417a23.564,23.564,0,0,0,18.67554,9.469,12.85788,12.85788,0,0,0-2.96411,8.90576,11.99264,11.99264,0,0,0,1.1958,4.395,13.15942,13.15942,0,0,0,.93726,1.57813c-20.46313-5.64844-42.79907-1.85474-61.052,9.30493a20.06847,20.06847,0,0,0-3.40967-8.07764,16.20414,16.20414,0,0,0-9.47656-6.56055,12.62256,12.62256,0,0,0-12.68262,4.2627,5.86768,5.86768,0,1,0,9.18555,7.30371,1.37349,1.37349,0,0,1,.93262-.10937,4.72986,4.72986,0,0,1,2.501,1.94824,8.49865,8.49865,0,0,1,1.26953,7.0127,8.10655,8.10655,0,0,1-.96045,2.15845c-1.84741,1.1543-3.666,2.34985-5.40625,3.66064-.075.0564-.14551.11719-.22021.17407a14.9384,14.9384,0,0,1-9.78027-2.02148,23.25176,23.25176,0,0,1,1.12012-41.209ZM376.906,354.5022a60.08589,60.08589,0,0,0-8.46729,12.95874c-6.69678,9.38306-17.27,17.99292-27.02783,21.62524-11.67578,4.34473-24.99414,1.84082-32.3877-6.09375a24.62233,24.62233,0,0,1-4.53809-25.6709A21.291,21.291,0,0,1,310.15845,349.5h19.7334c2.46216,2.93848,3.26147,7.34839,1.729,10.48755-1.65625,3.39063-6.36328,5.23926-9.50391,3.73535a5.99978,5.99978,0,1,0-5.1875,10.82031c9.03809,4.334,20.94238-.00781,25.47461-9.291a21.35753,21.35753,0,0,0,.885-15.7522H381.7644A58.75033,58.75033,0,0,0,376.906,354.5022Zm-83.47168-1.8584a34.90687,34.90687,0,0,0-2.40771,8.88281,47.65376,47.65376,0,0,0-10.77295-7.72461,57.59752,57.59752,0,0,0-10.8252-4.302h25.53174A34.5075,34.5075,0,0,0,293.43433,352.6438ZM79.907,677.428c7.41992,1.501,15.2793-2.5918,17.88965-9.31445a6,6,0,1,0-11.18555-4.3457c-.51367,1.32129-2.61133,2.24609-4.3291,1.89746a7.64291,7.64291,0,0,1-5.125-4.93555c-1.375-3.69922.04-7.2666,1.00586-9.06348a15.45452,15.45452,0,0,1,9.68262-7.69824c7.9104-1.84009,15.98926,2.28809,21.18433,7.62769,8.27205,9.356,9.323,32.65479,3.93286,41.13892a32.75266,32.75266,0,0,1-11.27393,10.63062,6.001,6.001,0,0,0-1.3667.58521c-.42969.25342-.85059.52-1.26758.792a35.33091,35.33091,0,0,1-17.43481,3.428C77.21338,696.179,73.05518,683.7,69.28882,670.81958A18.56639,18.56639,0,0,0,79.907,677.428Zm13.45117,60.355c.446-9.11768,4.70654-17.76123,11.69531-22.59277a47.67267,47.67267,0,0,0,5.55322-3.252,32.87825,32.87825,0,0,0,.38062,11.01147c1.05957,5.00293,4.26611,8.9563,8.39307,11.926-.156.01294-.31274.021-.46851.03857a15.42705,15.42705,0,0,0-12.80469,10.083,6,6,0,0,0,11.37891,3.81055,3.44272,3.44272,0,0,1,2.78125-1.96973,6.05575,6.05575,0,0,1,4.65625,1.79785,8.40935,8.40935,0,0,1,2.36621,6.13672,10.9351,10.9351,0,0,1-3.05273,7.78613c-3.94434,3.8623-10.98242,4.73242-16.7334,2.07324a19.31393,19.31393,0,0,1-2.77148-1.58569C100.91357,755.00562,97.0979,746.57373,93.35815,737.783ZM114.491,778.15552a27.52266,27.52266,0,0,0,11.135-2.31274,84.15749,84.15749,0,0,0-1.21948,25.53613c-3.98975-7.21875-8.13184-15.01587-12.32959-23.33423C112.88232,778.1123,113.68774,778.15576,114.491,778.15552Zm277.77832-40.28906a43.03525,43.03525,0,0,0-14.00513-10.52173,24.52133,24.52133,0,0,0,2.66846-5.468,26.92517,26.92517,0,0,0,5.905,2.48486,29.08629,29.08629,0,0,0,8.0332,1.11035,33.98708,33.98708,0,0,0,18.28662-5.54419c-4.26709,10.74219-8.70068,21.04272-13.18408,30.83838A41.29506,41.29506,0,0,0,392.26929,737.86646Zm33.02246-65.62793a41.10712,41.10712,0,0,0-7.89258-11.16748,67.50429,67.50429,0,0,0,16.093-1.54272q-2.71143,9.86975-5.738,19.44849A38.99857,38.99857,0,0,0,425.29175,672.23853ZM388.53149,529.44507a105.238,105.238,0,0,1-13.168,7.10059c-3.54639,1.59668-10.50732,2.52246-8.75317,7.4187,2.489,6.94751,10.91724,13.09766,17.66528,15.27417a36.66362,36.66362,0,0,1-39.87183,11.69727,12.11232,12.11232,0,0,0-3.78662-.9021,3.3921,3.3921,0,0,0-3.20215,1.825c-2.01538,4.93579,5.47485,13.18237,8.27148,16.53027a61.06365,61.06365,0,0,0,16.06494,13.39941c3.83423,2.25,3.21582,3.55688-.49048,5.98633a30.92616,30.92616,0,0,1-9.13184,3.65332,75.44929,75.44929,0,0,1-24.60645,2.20728c-.42065-.032-.85449-.0603-1.29053-.08179.27954-2.43433.47363-4.88086.59888-7.32251.54175-10.55371-.37036-22.01807-5.10645-31.15332,1.44214-.33691,2.8728-.76025,4.26978-1.18359,3.88843-1.17773,7.98242-2.4834,10.68823-5.51416a18.06457,18.06457,0,0,0,3.64868-7.82666,43.03229,43.03229,0,0,0-4.75-31.38867,42.60053,42.60053,0,0,0,9.25439,1.04175,40.23576,40.23576,0,0,0,17.83789-4.15039,50.338,50.338,0,0,0,24.9165-27.8833,33.187,33.187,0,0,0,4.63135,6.04932,37.29515,37.29515,0,0,0,15.6145,9.468A105.06106,105.06106,0,0,1,388.53149,529.44507Zm12.99268-34.25244c-5.94727-6.127-7.69043-15.9834-4.05469-22.92773,1.37207-2.62207,4.02539-5.57324,7.35449-5.98926a7.22806,7.22806,0,0,1,6.56152,3.05859,6.35067,6.35067,0,0,1,.02148,6.707,6.482,6.482,0,0,0,10.77344,7.21094,19.30768,19.30768,0,0,0,.09961-20.94629,20.12107,20.12107,0,0,0-19.06348-8.89355c-7.043.87988-13.48535,5.67969-17.23242,12.83984-.15137.28906-.27295.59131-.41406.88525-2.71655-4.9834-7.47112-8.35373-11.23828-12.62646-6.73828-7.64258-16.46191-25.13086-16.55762-36.9209a45.23343,45.23343,0,0,1,4.24707-19.25342,61.03384,61.03384,0,0,0,4.57324,21.03174c3.91309,9.3916,9.83789,16.9248,17.13379,21.78809a35.3901,35.3901,0,0,0,19.47461,6.041,30.15856,30.15856,0,0,0,9.12012-1.38281c8.291-2.63184,15.543-9.11914,19.89551-17.79785a38.6644,38.6644,0,0,0,3.66528-11.502q4.77759,19.79956,7.94214,40.93237a6.45568,6.45568,0,0,0,.36987,2.46216q1.62634,11.22107,2.80054,22.79639c-.26367.72412-.54687,1.44531-.87354,2.15771-3.84082,8.377-11.47852,14.87793-19.93457,16.96484C417.39429,503.99829,407.48413,501.3313,401.52417,495.19263ZM390.696,301.61719c5.498,0,5.5708-4.30908,6.0498-8.74463a77.35658,77.35658,0,0,0-.66748-20.99707,9.48729,9.48729,0,0,0-9.54712-8.18408c-9.23169.00049-7.87451,7.78418-9.86548,7.78418-2.89648,0-6.06445-3.53027-6.06445-7.42187,0-6.69824,7.5127-11.043,15.83984-11.043,2.89648,0,15.29785-.09082,19.91406,12.58105,1.90039,5.25,2.08105,32.043,2.08105,35.21094,0,3.98242.72461,6.33594.72461,9.41309,0,1.90137-8.50879,2.082-16.56445,2.082-21.81445,0-23.35254-11.22363-23.35254-16.6543,0-7.397,4.925-13.501,11.0332-17.1582,2.18848-1.31006,6.87842-4.14648,9.55615-3.60791,2.05176.41309,3.05859,2.4751,3.28833,4.37939.30884,2.55908-.31079,3.50684-2.30054,4.3877-4.51074,1.99609-9.35742,3.95361-9.35742,9.917C381.46362,298.62988,385.89819,301.61719,390.696,301.61719ZM312.11279,164.39258c2.6853-4.01953,14.28955-13.81494,14.77222-2.75342.18481,4.23486-4.55347,6.13232-6.45776,9.38965-2.06421,3.53076-2.72632,7.916-2.72632,11.95068,0,7.24121,2.35352,17.56055,11.49512,17.56055s11.49512-10.31934,11.49512-17.56055c0-4.25391-.73218-8.97119-3.11768-12.5874-2.36353-3.583-7.43359-4.47461-6.437-9.80029a6.19965,6.19965,0,0,1,1.72559-3.64844c3.68237-3.21436,11.31494,4.22412,13.57935,7.69727,3.92334,6.01855,5.47437,13.49512,5.47437,20.60156-.00024,21.27148-12.31055,30.41309-22.71973,30.41309s-22.71973-9.1416-22.71973-30.41309C306.47632,178.04395,308.06689,170.44873,312.11279,164.39258Zm-7.03784,87.0791c1.90137,0,3.89258.09082,3.89258,1.44824,0,1.08594-1.08594,2.80566-1.08594,4.07324a1.71224,1.71224,0,0,0,1.80957,1.53906c1.08691,0,2.35352-1.08691,4.34473-2.082a17.226,17.226,0,0,1,8.50879-2.082c4.43555,0,7.332,4.16406,9.59473,4.16406a10.16647,10.16647,0,0,0,5.33984-1.62988,17.06428,17.06428,0,0,1,8.32813-2.53418c16.6543,0,16.292,21.81445,16.292,33.40039,0,27.60645-3.43945,24.5293-6.06445,24.5293h-6.15527c-.9043,0-3.43945.18066-3.43945-1.44824s3.43945-11.58594,3.43945-26.70215c0-17.28809-6.1543-19.09863-9.59375-19.09863-3.168,0-6.15527-.27148-6.15527,14.66309,0,32.49512-.45312,32.58594-3.34961,32.58594H322.6355c-1.7207,0-3.168.3623-3.168-.90527,0-1.35742,3.43945-19.55078,3.43945-28.15039,0-5.43066,0-18.19336-7.42285-18.19336-6.78809,0-9.32324,8.32715-9.32324,21.81445,0,18.19336,2.53516,21.63281,2.53516,24.167,0,1.53906-1.62988,1.26758-2.625,1.26758h-7.15137c-3.07715,0-4.97754,2.89648-4.97754-23.89648C293.94214,250.29492,292.76538,251.47168,305.075,251.47168ZM290.00562,137.08887h8.59863c.99609,0,3.71094-.27148,3.71094,1.71973,0,.543-3.80078,13.57715-3.80078,36.11523,0,24.8916,3.43945,37.11133,3.43945,38.28809,0,1.53809-2.35352,1.08594-3.34961,1.08594h-9.50391c-3.168,0-2.80566-30.32227-2.80566-32.4043C286.29468,177.63965,285.93237,137.08887,290.00562,137.08887Zm-7.7373,105.96484c0,2.44434-2.71484,7.96582-2.71484,9.05176,0,1.62891.45215,2.71484,1.81055,2.71484,1.17676,0,2.2627-.45215,3.43945-.45215,3.43945,0,3.53027,2.44434,3.53027,5.52148,0,1.26758,0,4.707-1.90137,4.707-.72363,0-2.53418-.81445-4.16406-.81445-4.97754,0-4.97754,5.793-4.97754,13.84863,0,24.07715,5.06836,28.05957,5.06836,29.59863,0,1.35742-10.5,6.42578-12.58105,6.42578-3.43945,0-4.34473-20.18457-4.34473-25.16309,0-11.13281.543-15.47754.543-17.19727,0-2.71582.81445-7.5127-3.25879-7.5127-1.62891,0-2.53418,1.08594-3.53027,1.08594-1.17676,0-1.08594-1.17676-1.08594-2.80664,0-6.87891,1.99121-7.69336,5.43066-7.69336a13.522,13.522,0,0,0,1.71973.3623c2.80664,0,3.07813-4.43555,3.53027-7.60352.45313-3.43945,10.58984-5.97363,12.40039-5.97363C281.81616,241.15332,282.26831,241.334,282.26831,243.05371Zm-3.21289-104.24512c0,.543-3.80078,13.57715-3.80078,36.11523,0,24.8916,3.43945,37.11133,3.43945,38.28809,0,1.53809-2.35352,1.08594-3.34961,1.08594h-9.50391c-3.168,0-2.80566-30.32227-2.80566-32.4043,0-4.25391-.3623-44.80469,3.71094-44.80469h8.59863C276.34058,137.08887,279.05542,136.81738,279.05542,138.80859ZM249.83325,40.5a23,23,0,1,1-23,23A22.99989,22.99989,0,0,1,249.83325,40.5ZM236.7,155.01074c9.95605,0,18.374,5.61133,18.374,16.292,0,6.07813-3.31152,10.64209-8.49072,13.53271-4.22485,2.35791-11.32324,5.82471-15.80762,2.39551a6.47524,6.47524,0,0,1-2.50244-4.94629,3.31081,3.31081,0,0,1,.66553-2.248c.771-.88916,3.33936-.65967,4.52441-.94434a29.09127,29.09127,0,0,0,4.85449-1.76807c1.80884-.80273,5.53125-2.28955,5.53271-4.75293,0-4.43652-4.16406-6.87988-7.60352-6.87988-9.60718.00049-11.92017,9.33594-11.76025,17.27344A66.49045,66.49045,0,0,0,226.08789,195.5c1.13647,5.30908,5.73022,7.93652,11.24487,7.93652,14.84473,0,14.84473-11.31445,16.1123-11.31445,1.35742,0,1.62891,4.70605,1.62891,5.43066,0,11.49512-8.87012,18.10254-19.73242,18.10254-16.20215,0-22.90039-13.39551-22.90039-27.87793C212.44116,165.87207,224.571,155.01074,236.7,155.01074Zm-79.83008-16.02148h12.31055c.543,0,2.71484-.27148,2.71484.81445,0,1.17676-6.1543,14.30176-6.1543,23.89648,0,2.2627.81445,4.43457,2.17188,4.43457,2.80566,0,2.80566-2.71484,15.11621-2.71484,4.43457,0,7.96484.99512,7.96484-2.80664,0-8.59863-7.96484-21.542-7.96484-22.71875s2.71484-.90527,3.25879-.90527h11.85742c3.43945,0,7.874,26.06836,7.874,45.34766,0,4.34473,0,29.96094-2.89648,29.96094H190.08862c-.9043,0-3.34863.09082-3.34863-1.35742a2.89689,2.89689,0,0,1,.27148-1.26758c3.168-8.32715,5.793-16.83594,5.793-25.79687,0-6.15527-2.44434-8.23633-8.50879-8.23633-9.1416,0-18.917,4.34473-18.917,14.84375a51.437,51.437,0,0,0,3.71094,19.55176,3.79979,3.79979,0,0,1,.3623,1.35742c0,1.26758-2.17285.90527-2.89648.90527H153.24976c-2.53516,0-2.53516-26.06836-2.53516-29.96094C150.7146,177.72949,152.52515,138.98926,156.86987,138.98926Zm-48.918,96.09961h9.86523c.81543,0,1.44922.99512,1.44922,1.90039,0,1.26758-3.44043,10.1377-3.44043,17.37891,0,1.08594,0,2.80566,1.53906,2.80566.72461,0,2.17285-.81445,4.16406-1.99121a16.31485,16.31485,0,0,1,7.60254-2.17187c8.2373,0,14.30176,5.88281,14.30176,27.69727,0,8.68945-1.26758,31.58984-4.07324,31.58984H129.947c-.81543,0-3.25879.27148-3.25879-1.17676,0-.63379,4.52539-18.55566,4.52539-30.59375,0-14.03027-2.35352-16.83594-6.78809-16.83594-9.23242,0-9.41406,14.12012-9.41406,20.54688,0,18.10254,1.99121,23.98633,1.99121,26.61133,0,1.44824-1.71973,1.44824-2.625,1.44824h-8.96094c-2.625,0-2.625,3.07715-2.625-37.11133C102.79175,267.94531,102.97339,235.08887,107.9519,235.08887Zm-32.76172.543c7.875,0,20.00391,3.34863,20.00391,13.124,0,5.25-3.62012,8.2373-9.32324,8.2373-3.71094,0,1.26758-8.50879-10.22754-8.50879-13.21582,0-18.82715,13.4873-18.82715,24.80176,0,17.28809,11.7666,24.25781,19.6416,24.25781,14.75391,0,16.02051-13.21484,16.83594-13.21484,1.2666,0,1.99121,7.24121,1.99121,8.14551,0,13.39648-10.31934,21.18066-22.99121,21.18066-20.54688,0-30.1416-18.64551-30.1416-36.92969C42.1521,257.084,53.19507,235.63184,75.19019,235.63184ZM356.79175,830.86035q1.53809-3.58813,2.79785-7.27344a127.57742,127.57742,0,0,0,6.55127-36.46191,23.32814,23.32814,0,0,0,11.18506,2.91626,21.80872,21.80872,0,0,0,3.28906-.25781c-6.43311,12.01563-12.60547,22.717-18.14209,31.86987Q359.67212,826.28333,356.79175,830.86035Zm78.93994-179.769c-8.79858-5.63721-17.02124-11.20386-22.49683-20.5127-2.20068-3.74146-9.29419-15.29834-1.69482-15.918a80.99608,80.99608,0,0,0,26.64063-6.87109,3.34133,3.34133,0,0,0,1.88647-1.52417c.62476-1.51416-1.04858-2.90747-2.44116-3.77a44.57906,44.57906,0,0,1-16.6167-18.65552c-1.65088-3.4668-4.72632-8.001.56982-7.94092,4.6416.053,9.13843.55444,13.80273.15112,1.74976-.15161,3.82422-.6123,4.43774-2.25757.4397-1.17944-.08691-2.47754-.60547-3.62451-4.63477-10.24976-7.47144-20.03516-10.16431-30.95728-1.94556-7.89233-2.40918-16.05933-3.87915-24.02637a38.77566,38.77566,0,0,0,4.125-.77A42.15915,42.15915,0,0,0,448.70044,503.387q1.29639,19.98779,1.32422,40.90405C450.02466,581.16016,444.41943,617.26172,435.73169,651.09131Z"/></svg>