<svg id="Слой_1" data-name="Слой 1" xmlns="http://www.w3.org/2000/svg" viewBox="0 0 500 1000"><title>Flags light bulbs</title><path d="M491.02478,319.74634V146.70288a37.08065,37.08065,0,0,0-37.08057-37.08081H323.13147V28.25049A25.75039,25.75039,0,0,0,297.381,2.5H202.619a25.75039,25.75039,0,0,0-25.75049,25.75049v81.37158H46.056A37.08071,37.08071,0,0,0,8.97522,146.70288V319.74634a37.083,37.083,0,0,0,30.61694,36.50757C20.10168,408.79395,8.97522,472.00366,8.97522,544.291c0,225.27026,185.40381,453.209,241.0249,453.209,51.501,0,241.02466-227.93872,241.02466-453.209,0-72.28735-11.12646-135.49707-30.6167-188.03711A37.083,37.083,0,0,0,491.02478,319.74634Zm-41,224.54468c0,7.99487-.27222,15.952-.77332,23.85974l-5.69116-13.35022a4.152,4.152,0,0,0-.27332-.49341l-.25488-.41821,2.82434-23.75708s1.7063,2.876,4.10046,6.71924C449.98462,539.32739,450.02478,541.795,450.02478,544.291Zm-14.79614-54.345-13.834,10.89465-24.146-.20288,20.49646-12.77014ZM401.87048,461.752l23.52283,5.46411,10.89307,13.83228-17.48474-2.07861Zm25.06787,46.12915,13.83459-10.89453-2.13123,17.92822-17.22827,16.82068Zm5.49377-46.21155.20374-24.147,10.80127,17.33752c.4519,2.91187.89453,5.83105,1.3,8.77979l-1.4104,11.864Zm16.38831,43.52722c.28516,4.61438.53174,9.25732.71375,13.94775l-1.99475-3.17236ZM208.41882,162.178l22.25,22.24939H199.20044l-33.68005-26.98425Zm-47.13831,13.02856c3.13428,2.1665,5.84119,4.03809,7.58191,5.43286l4.72839,3.788H130.95813l-.68494-.53687a7.302,7.302,0,0,0-.82275-.59265L72.55261,150.62207h60.40649C137.85486,159.00122,152.4397,169.09424,161.28052,175.20654Zm37.922,25.23462h31.46631l-22.25269,22.25305-42.89392,4.73389ZM219.73987,234.019l22.25366-22.25281v32.26648l-27.02612,33.48584Zm.00049-83.16943-.025-.22754h22.2782v22.48035Zm60.74756-.22754-22.48083,22.48035V150.62207Zm-22.48083,61.14331,22.81934,22.82019,4.60315,43.381-27.42249-33.93433Zm11.32483-11.32422h32.26587l33.93506,27.42261-43.38184-4.603Zm0-16.01379,22.81616-22.816,43.38306-4.60522-33.93335,27.42126ZM350.89,165.18872c1.22974-.994,2.77246-2.09375,4.40588-3.25732,4.44934-3.17078,9.94495-7.09265,12.62927-11.30933H428.2439l-56.89661,32.675a7.2724,7.2724,0,0,0-.823.59277l-.68579.53748H327.08167ZM249.83337,40.5a23,23,0,1,1-23,23A22.99989,22.99989,0,0,1,249.83337,40.5ZM51.18448,150.59277H62.44025A7.96273,7.96273,0,0,0,63.8935,163.393l36.58174,21.00809H67.08434a8.00761,8.00761,0,0,0,0,16.01522H100.475L63.8935,221.425a8.008,8.008,0,1,0,7.97422,13.88966L130.666,201.5475a7.34624,7.34624,0,0,0,.81831-.58941l.69049-.5418h42.63441l-4.728,3.78842c-1.75382,1.4054-4.48453,3.29143-7.64643,5.47607-11.56219,7.988-33.08412,22.85616-29.63142,31.62891.85518,2.17292,2.89491,5.06136,10.6998,5.06136,4.02892,0,47.22173-3.85606,48.882-5.51636l-5.14279,4.21351L161.38,270.93111l-.87728.1067a7.22651,7.22651,0,0,0-.98214.16066l-65.457,17.6986a8.00749,8.00749,0,1,0,4.17811,15.46036l40.7231-11.01123L115.35621,316.955a8.00849,8.00849,0,0,0,11.32535,11.32608l23.60989-23.61062-11.00977,40.72445a8.00721,8.00721,0,1,0,15.45975,4.17823l17.69628-65.45626a7.19375,7.19375,0,0,0,.15944-.97934l.10743-.88045,30.16333-30.16162s-7.64887,55.474-1.32116,58.76694a5.41035,5.41035,0,0,0,2.55467.61724c9.17147,0,22.73762-19.46694,30.026-29.9249,2.12214-3.04568,3.95506-5.67568,5.30894-7.3527l3.78378-4.68877v42.74489l-.5407.68927a7.17725,7.17725,0,0,0-.58929.81807l-33.76777,58.79868a8.00792,8.00792,0,1,0,13.88917,7.97483l21.00858-36.58138v32.59445a8.00749,8.00749,0,1,0,16.015,0V343.95762l21.0087,36.58138a8.00787,8.00787,0,0,0,13.88954-7.974l-33.76814-58.80027a7.33664,7.33664,0,0,0-.58941-.81819l-.5407-.68842.00061-42.76088s32.59592,42.55029,38.54542,42.55029a6.0492,6.0492,0,0,0,.8824-.06519,8.07745,8.07745,0,0,0,6.78356-7.61933l.00366-.09986a7.72576,7.72576,0,0,0-.00183-.94735q-.00861-.09156-.01013-.18092l-5.36412-50.55332,30.23645,30.23731.10694.87679a7.23632,7.23632,0,0,0,.16041.98373l17.6986,65.45687a8.00717,8.00717,0,1,0,15.45987-4.1775l-11.012-40.7264,23.04868,23.04868a8.00871,8.00871,0,1,0,11.326-11.32608l-23.04673-23.04648,40.7253,11.01a8.00734,8.00734,0,1,0,4.177-15.46036L343.4949,271.761a7.25826,7.25826,0,0,0-.98031-.16017l-.87593-.10658-30.23841-30.23865s44.11488,5.407,48.12049,5.407c5.7344,0,9.09724-1.44691,10.58248-4.55363,2.97292-6.21881-3.28936-11.44425-11.14674-17.14557-1.32946-.9642-30.64091-24.5471-30.64091-24.5471h42.76088l.69122.5418a7.26015,7.26015,0,0,0,.81648.58868l58.79868,33.7679a8.00819,8.00819,0,1,0,7.97507-13.88966l-36.58138-21.0087h32.59433a8.00761,8.00761,0,1,0,0-16.01522H402.77629L439.35816,163.393a8.01838,8.01838,0,0,0,2.95717-10.93261,7.93642,7.93642,0,0,0-1.50538-1.8676h10.45991V316.5753a41.00486,41.00486,0,0,0-28.05962,53.92862,416.1729,416.1729,0,0,1,17.15,60.32934c-4.16114-6.43758-8.72307-12.89934-10.38667-13.09711a3.97446,3.97446,0,0,0-1.44276.09791c-5.37548,1.31945-3.72213,32.57443-3.72213,32.57443l-14.76022-18.74276-.00146-.49638a4.01354,4.01354,0,0,0-.02393-.55388l-5.50928-37.53874a4.48029,4.48029,0,1,0-8.86578,1.3L399.0754,417.732l-11.559-14.67831a4.48109,4.48109,0,0,0-7.04091,5.54493l11.55987,14.67916L370.13276,414.469a4.48037,4.48037,0,0,0-3.34136,8.31446l35.2021,14.15751a4.41212,4.41212,0,0,0,.63067.19716l.40214.09608L417.7681,455.9544s-18.945-5.5-24.00287-6.10125c-4.61955-.54924-7.478.05213-8.49563,1.7869-2.731,4.65581,8.35585,14.44257,14.31206,19.701,1.59865,1.41077,2.979,2.62963,3.85422,3.51984l2.37729,2.41709-23.69009-2.81629-.34525-.34341a4.061,4.061,0,0,0-.41776-.3837l-30.44057-22.6463a4.48067,4.48067,0,1,0-5.348,7.19058L364.50983,472.368l-18.5528-2.20564a4.48065,4.48065,0,0,0-1.05808,8.89862l18.5528,2.20552-21.71336,9.25693a4.48065,4.48065,0,1,0,3.51325,8.2439l34.90056-14.878a4.11678,4.11678,0,0,0,.49357-.27358l.41947-.25539,23.689,2.816L401.877,487.969c-1.06748.6651-2.70923,1.53261-4.61027,2.53782-6.952,3.67452-19.89215,10.51412-18.55341,15.61662.33182,1.26391,1.27428,3.00344,5.61085,3.519,2.23872.26614,26.49259.97653,27.52479.16371l-3.13578,2.0014-16.07821,12.662-.49467.00134a4.032,4.032,0,0,0-.5562.02442l-37.539,5.51026a4.48055,4.48055,0,1,0,1.30016,8.86627l23.35437-3.42841L364.0226,547.00192a4.48106,4.48106,0,0,0,5.54468,7.041l14.67806-11.55913-8.80742,21.90038a4.47891,4.47891,0,0,0,2.48631,5.82864,4.47281,4.47281,0,0,0,5.82767-2.48594l14.15617-35.20064a4.04855,4.04855,0,0,0,.15321-.53362l.11793-.482,18.75167-14.76657s-7.914,30.31788-4.61564,32.56552a3.02549,3.02549,0,0,0,1.37878.51164c5.09591.60589,13.91945-9.31443,18.65986-14.64388,1.38025-1.552,2.57249-2.89235,3.43536-3.73471l2.41208-2.35531-2.82337,23.7504-.34586.3472a4.0373,4.0373,0,0,0-.3815.41556l-22.64618,30.44a4.48087,4.48087,0,1,0,7.1907,5.3485l14.089-18.93809-2.15278,18.1105a4.48058,4.48058,0,1,0,8.8985,1.05783l2.15278-18.11037,6.6649,15.63347c-10.07682,90.8351-49.47644,173.05152-77.99485,222.45044a53.9039,53.9039,0,0,0-6.35664-10.89941c-4.78412-6.30525-10.13481-10.36664-17.98121-12.003a54.0436,54.0436,0,0,0-12.77285-.92457,148.79848,148.79848,0,0,0,9.04414-13.11333c2.48955-4.00242,4.5213-8.66921,7.72992-12.15779,1.277-1.38831,2.60448-1.36145,4.35976-2.00848A44.3019,44.3019,0,0,0,366.43,751.82494c.02613.0249.04627.05176.07521.0757,5.56907,4.60566,8.80111,10.77352,13.6179,15.957a1.21077,1.21077,0,0,0,2.15168-.87605c-.58172-6.96106-6.3001-12.54895-12.05231-16.14937.62519.39132,4.58166-.70806,5.59978-.74515a20.94171,20.94171,0,0,1,6.32114.663c3.51875.96927,6.38625,3.96609,10.1042,4.22073a1.36237,1.36237,0,0,0,1.38062-1.33459c-.456-5.31932-7.24576-7.64961-11.75162-8.43094a25.474,25.474,0,0,0-7.95153.02587,114.51044,114.51044,0,0,0,8.22838-9.0283c.62041-.76864,6.83968-9.94,6.52423-10.05044,4.32733,1.55761,9.78818-.17509,13.21625-3.05147,5.23545-4.39291,5.16075-12.0276.77673-17.003-5.87327-6.66554-17.027-4.09194-20.979,3.43183-2.47752,4.71624-.96566,10.30609,2.6582,13.85475.4893.47807-9.14364,12.95916-10.12273,14.10721a80.77971,80.77971,0,0,1-12.37427,11.71247c-2.35556,1.81315-6.11151,5.58057-9.08211,6.02495,1.11007-4.01037,3.51445-7.71379,5.18992-11.511a193.14888,193.14888,0,0,0,12.494-40.519c.461-2.34445.93319-4.76117,1.37866-7.21646,1.98028-2.23555,3.96752-4.47208,5.85379-6.7799,2.15522-2.63793,4.78717-5.41357,5.44567-8.83282.19374-1.00644-1.0676-1.64565-1.86406-1.254-3.19108,1.57-5.32188,5.1948-7.32072,8.04564-.31033.44291-.60564.89608-.9117,1.34143a86.86663,86.86663,0,0,0,.92538-13.43576,11.45191,11.45191,0,0,0,10.48067-7.13394c.05079-.127.09388-.25491.13942-.38236.03711-.10987.08448-.21291.11817-.32474.02112-.06934.03174-.13966.05152-.21.09718-.3262.17714-.65533.2466-1.00937a11.8385,11.8385,0,0,0-6.89124-13.07245,11.59318,11.59318,0,0,0-15.00646,7.40544A12.05124,12.05124,0,0,0,367.656,673.21c-1.11143,8.38453-1.31506,16.939-2.75842,25.30547-1.07468,6.22858-2.44321,12.4181-4.1095,18.52264-.03968-.99228-.08375-1.97674-.12806-2.93874a125.25864,125.25864,0,0,0-2.31539-18.85373c-1.39551-6.962-3.142-16.48-7.11147-23.3219a12.631,12.631,0,0,0,5.24412-6.90638,12.86547,12.86547,0,0,0-11.981-17.57529c-.02637,0-.05249-.002-.07886-.002-.06934.00147-.13832.00732-.20754.01074a13.22522,13.22522,0,0,0-11.6391,7.1105c-3.56709,7.0812-.328,16.17185,7.28886,18.73946a13.29128,13.29128,0,0,0,6.69713.47563c.90621,2.86793,2.15815,5.67287,3.07376,8.49a129.29893,129.29893,0,0,1,4.78412,19.43142,54.00779,54.00779,0,0,0,.77815,5.50928c.14308.52544.6502,3.2581.74921,3.37823a35.96868,35.96868,0,0,1-5.02474-8.9842c-1.18724-2.86549-3.09793-5.22068-4.40542-8.04857-.66839-1.44544-2.56273-4.09021-3.94188-1.755-1.14207,1.93377,1.37878,4.85248,2.25289,6.38l8.77509,15.33516c2.46622,4.30991,4.2246,8.97468,3.5505,14.01239a35.494,35.494,0,0,1-3.05977,9.82671c-.87563,1.936-3.94033,5.76677-3.4871,7.99985a50.82115,50.82115,0,0,0-3.26885-9.51647c-1.9417-4.56779-4.57572-10.84032-9.48522-12.64224a1.08447,1.08447,0,0,0-1.33374,1.0831c.436,5.27684,4.8852,10.04826,6.86279,14.89195,1.66421,4.076,2.21626,8.7625,4.17982,12.68619q-1.70523,3.4925-3.53315,6.92884c-2.50239,4.69966-5.3107,9.522-8.25449,14.075q-2.32075,3.58939-4.81666,7.06143c-1.45972,2.02746-3.45583,4.06854-4.24936,6.47732-3.41437.52739-6.9828.90633-8.80327-2.53929a15.1653,15.1653,0,0,1-1.295-6.01958q-1.78213-23.67754-3.564-47.35411c-.38269-5.08426-.80348-10.16556-1.186-15.24986-.31018-4.12289-3.19181-12.06661,2.26824-13.89638,4.76618-1.597,9.99585-2.8888,12.43279-7.78918,1.8546-3.72939,1.44193-8.2161.16672-12.18116s-3.34346-7.629-4.78547-11.53653c-5.69011-15.41878-1.13394-32.43862,1.37967-48.68048,2.3718-15.32553,2.70288-31.70622-4.23924-45.5736a46.85095,46.85095,0,0,0-45.424-25.78707c-7.178.51277-13.86228,4.04927-21.11874,2.46678a2.85377,2.85377,0,0,0-.3378-.04248c.30252-2.60424-.21828-6.86291-.21828-11.68463,0-3.62269.44995-6.8308.62616-9.24337-.12657,1.77319,10.49708-.12862,11.65974-.6377a26.74279,26.74279,0,0,0,13.90779-15.02017c2.80981-8.2279-.00407-16.15973-3.07091-23.82868-3.611-8.68583-9.14351-16.10495-13.30355-24.14326a62.22189,62.22189,0,0,1-5.45507-14.42267c-.86557-3.58377-1.21891-7.41235-1.90643-11.07339a2.08583,2.08583,0,0,0-.68972-1.42959c-2.14057-1.43065-2.428,3.44819-2.68069,4.403a37.37253,37.37253,0,0,1-2.77548,7.17816,77.258,77.258,0,0,1-8.67936,12.99634c-6.38963,8.097-14.122,16.49334-15.781,27.05492a74.97356,74.97356,0,0,0-.43632,14.62622c.22522,6.41749,1.43375,11.71551,5.97494,16.34428,5.3389,5.44186,12.33187,6.89158,19.56566,6.65405.26857,3.44282.292,7.08748.292,10.57106,0,2.79249-.15267,5.57921-.22157,8.36991-.05975,2.41982-.92013,2.81476-3.01347,2.07622a41.85987,41.85987,0,0,0-9.604-2.106,57.86583,57.86583,0,0,0-37.96752,9.69961c-15.03138,10.24243-19.9635,29.64724-22.47025,46.72269-3.18987,21.72871-5.69049,44.95443.5437,66.314,1.93281,6.62055,6.68458,10.41762,13.85187,8.2934,1.3247,0,2.55137,43.03508,2.48862,47.47785q-.347,24.57054-.69391,49.1406c-4.51786-4.04723-9.58362-7.62519-13.854-11.96347a217.60928,217.60928,0,0,1-15.01977-16.3872c.01952-.37927.03417-.759.05784-1.13829.09126-1.46256,1.32356-2.66183,2.09808-3.81777,1.0195-1.52156,1.94795-3.10229,2.99172-4.60792a23.81435,23.81435,0,0,1,5.78522-5.85682c1.74564-1.24572-.1338-4.02624-1.86528-2.759a26.06357,26.06357,0,0,0-6.13079,6.08111,23.67708,23.67708,0,0,0-2.14692,3.65365,101.96789,101.96789,0,0,1,2.21724-11.44535c2.06244-2.3508,3.23076-5.44091,5.37769-7.799,2.47137-2.72209,5.66753-4.64148,8.7-6.65878,1.35852-.9078-.01392-2.81568-1.39368-2.3298a23.20714,23.20714,0,0,0-8.72085,6.25027c-.35992.39025-.7133.78661-1.07071,1.17916,1.10719-1.216,1.59224-4.34161,2.35776-5.93776a20.81747,20.81747,0,0,1,3.7501-5.5789c3.21863-3.31,7.87075-5.0261,10.71557-8.70932a.68478.68478,0,0,0-.66876-1.06308c-2.81544.59136-5.75771,2.56224-8.29883,4.76507-.10548.085-.204.16945-.30252.25393,2.80836-4.76556,6.12384-9.12972,9.12935-13.761.73212-1.11924-.9714-2.091-1.83012-1.26037a53.95584,53.95584,0,0,0-6.4606,7.6426c1.52795-2.16011,2.21628-6.173,2.45764-8.78371.0483-.5224.3344-3.81389-1.00871-2.85-3.0408,2.18232-3.91368,7.99632-4.66667,11.44535a44.26471,44.26471,0,0,0-1.19664,6.72911,86.73108,86.73108,0,0,0-7.01085,14.655c.55931-1.50931.1714-3.42739.31732-5.01691.10088-1.09882,3.64-13.55786,2.47415-13.53513-.54516.01042-.91365,1.076-1.141,1.45229a32.018,32.018,0,0,0-4.11408,12.65118c-.373,2.94948-1.02768,7.98215.27456,11.14259-.08436.29544-.17592.5982-.25332.901-.52788,1.80192-.901,3.576-1.28112,5.272-.04224-.22512-.08448-.4434-.11256-.65436-.5772-3.66732-.42948-7.82052-1.80192-11.27639-.2394-.61236-1.1052-.40824-1.30236.11231-1.37952,3.65365-.64752,8.26392-.13368,12.07187.352,2.56956.46452,5.8848,1.90752,8.20044-.32034,2.10956-.56829,4.22938-.75764,6.357-1.87089-2.5305-3.66732-5.11374-5.417-7.72871a1.47352,1.47352,0,0,0,.01563-.59185,64.46909,64.46909,0,0,1-.66534-18.85422c.18239-1.42-2.19722-1.569-2.24849-.10157-.17323,4.95405-.38456,9.79286-.25857,14.68881-.96676-1.5309-1.922-3.06863-2.844-4.62736-2.733-4.62-4.97676-10.10051-7.89133-14.85288-1.01081-1.64819-.68995-6.28163-.91393-8.354-.3221-2.98029-.609-5.9673-.70857-8.96454A48.17453,48.17453,0,0,1,141.63,677.40866a7.79352,7.79352,0,0,0,.89343.55512c4.4312,2.36981,10.1543.84343,13.6695-2.47021,6.00321-5.65875,5.26534-16.153-1.47133-20.95027A13.97245,13.97245,0,0,0,137.592,655.711c-4.95965,4.6663-5.89644,13.89819-.63605,18.69106a8.47117,8.47117,0,0,0,1.31787.9996c-2.42551,5.26316-3.20561,12.11729-3.42157,17.213-.03569.84142-.03686,1.685-.06907,2.525-4.14411-10.94759-4.59525-24.30725-4.302-35.86941.07311-2.88292.53768-5.86249.69207-8.804-.0055,1.2521,6.83322-1.47374,7.25014-1.75612a13.44456,13.44456,0,0,0,2.28421-20.40688,14.01313,14.01313,0,0,0-15.87961-2.87052c-6.6525,3.19715-9.76183,12.18346-5.91942,18.70954a13.29511,13.29511,0,0,0,4.61459,4.72753c1.57291.92054,3.889.74507,3.47993,2.9022a78.71412,78.71412,0,0,0-1.04184,17.21686,112.28993,112.28993,0,0,0,2.38669,18.62568,62.49749,62.49749,0,0,1-4.35909-7.46175c-.71175-1.49416.93528-8.25112-.23775-8.40441-1.20323-.15724-1.22472,2.03143-1.24425,5.02046a39.4173,39.4173,0,0,1-2.77111-8.23806c-.37706-2.49519.38985-5.48911.97417-7.932.50839-2.12544,1.677-4.78451.92333-6.95354a.71192.71192,0,0,0-.92953-.35306,4.488,4.488,0,0,0-2.30135,2.4846,3.03209,3.03209,0,0,0-.41617.57036,11.4142,11.4142,0,0,0-.79178,1.88875c.53378-1.57494-.64912-3.8389-1.16089-5.29089-.24165-.68562-.37683-1.77068-1.08385-2.13277-.75253-.3854-1.69113-.11584-1.74539.83241-.36367,6.35518,1.27733,12.28926,2.8679,18.35647-.41863-1.59688-2.591-3.17479-3.46536-4.29473a.918.918,0,0,0-1.57849.89242c1.44294,3.42734,3.07922,7.15026,5.91771,9.7825a11.66051,11.66051,0,0,1,3.46088,4.8218c1.05455,2.41641,2.17353,4.80622,3.41794,7.13127a48.29375,48.29375,0,0,0-5.39916-3.57551c-.84285-.46684-1.51918.628-1.10178,1.32385a24.14333,24.14333,0,0,0,5.72182,6.37068c1.71793,1.40784,3.47467,3.24638,5.6863,3.46369a28.83918,28.83918,0,0,0,2.48679,2.70337,153.66892,153.66892,0,0,0,11.0657,26.44037c3.1366,5.96434,6.63238,11.58065,10.33066,17.20659a12.71783,12.71783,0,0,1,1.40731,4.29921c-.13486-.13279-.2779-.26118-.418-.40276a87.24309,87.24309,0,0,1-10.79623-12.61707,41.40906,41.40906,0,0,1-3.98393-7.39942c-.93179-2.29278-.97354-5.89025-2.31976-7.86518-.68845-1.01-2.08631-1.13943-2.23566.40113-.11081,1.1432.78414,2.714,1.13028,3.81293a15.0705,15.0705,0,0,1,.61224,3.68757c-.8752-.3201-7.69816-5.81077-8.30548-5.05892a5.93973,5.93973,0,0,0,.94032-1.83027c3.57139-10.62311-9.72213-18.85128-18.742-14.52426a13.76589,13.76589,0,0,0-6.57562,17.6887c2.465,5.64428,8.97286,9.24665,15.06211,7.83559a12.182,12.182,0,0,0,7.63691-4.93061,9.51266,9.51266,0,0,0,.693-1.24525c.04184-.10476,9.52364,7.66118,10.29124,7.65658a16.65694,16.65694,0,0,0-5.304,1.01886c-1.62748.55508-.66886,2.64632.65657,2.82838.8.10988,2.00428-.7894,2.78439-1.01185a11.73992,11.73992,0,0,1,3.90713-.43107c2.23736.13489,3.29523,5.43948,5.0443,5.12894a5.23415,5.23415,0,0,0-.70594.17338,37.48166,37.48166,0,0,0-6.02065,2.32941c-1.22175.64794-3.6697,2.0447-3.95849,3.52564-.28671,1.47025,1.74892.93235,2.50344.64255a48.7769,48.7769,0,0,0,4.66527-2.6212c1.57427-.812,3.751-1.68972,5.56439-.96251,1.19068.4775,1.53116,1.38838,2.21347,2.36033a36.25159,36.25159,0,0,0,3.078,3.5493,38.688,38.688,0,0,0,5.70827,5.167,22.77391,22.77391,0,0,0-3.37994.57866c-1.89909.45756-1.24877,3.50519.52641,2.93044a16.39385,16.39385,0,0,1,6.85608-.80329,47.57553,47.57553,0,0,1,4.34987,3.56184c3.11759,3.78159,6.21283,7.21793,9.226,10.23577-.56745-.56832-2.7012-.72659-3.49415-.91562-1.36567-.32555-2.74584-.65028-4.13269-.87289-2.118-.34-4.25391-.44156-6.384-.66649-1.856-.196-3.18032-1.04045-4.85143-1.80879a41.24778,41.24778,0,0,0-7.66778-2.38469c-3.19831-.73146-6.81161-1.88967-10.11437-1.48163a1.09961,1.09961,0,0,0-.54892,2.03441,16.19517,16.19517,0,0,0,5.57768,2.11924c.82941.15027,1.66451.17791,2.49759.286a18.19924,18.19924,0,0,0,2.37719.65083,38.001,38.001,0,0,1-8.77977.45445c-3.05379-.18469-6.03673-.934-9.07773-1.22958a102.43454,102.43454,0,0,0-12.03646-.25344c-2.51988.05616-2.59728,3.99791-.07044,3.9276,3.71664-.09132,7.405.01416,11.12147.1128h.07752c-2.506.71784-4.9836,1.54115-7.412,2.49143-.09852-.00684-.20412-.00684-.30264-.021a1.71887,1.71887,0,0,0-1.4922-.79548,68.18106,68.18106,0,0,0-9.65027.57842c-23.421-47.513-47.80918-110.64375-56.16442-179.32661a4.06359,4.06359,0,0,0,2.11127,1.42676,4.10642,4.10642,0,0,0,5.05489-2.84559l4.49747-16.0787,5.3159,20.94449a4.102,4.102,0,0,0,7.95212-2.01715L70.58587,560.639a3.76016,3.76016,0,0,0-.17787-.48491l-.17152-.414,5.90018-21.09392s10.20843,25.48774,13.1435,26.30874a3.1105,3.1105,0,0,0,.44413.08949,4.13727,4.13727,0,0,0,4.39773-2.82264l.0155-.04871a3.94648,3.94648,0,0,0,.12989-.46757c.00562-.03089.01221-.061.02-.09058l4.32949-25.67806L109.36031,555.025l-.06837.44731a3.70275,3.70275,0,0,0-.05665.50737l-.30117,34.732a4.10154,4.10154,0,1,0,8.20276.07239l.18727-21.60971,8.18945,14.55024a4.10233,4.10233,0,1,0,7.14993-4.02428l-8.18872-14.549,18.5705,11.05067a4.10168,4.10168,0,0,0,4.19385-7.05031l-29.8497-17.76244a3.7157,3.7157,0,0,0-.46147-.214l-.4174-.17372-10.74412-19.08886s21.01578,8.7542,22.99179,9.307c2.82862.79133,4.68731.54155,5.84866-.78608,2.32467-2.65759-.04371-6.0993-3.133-9.996-.52263-.659-11.72809-16.337-11.72809-16.337l21.094,5.9003.26614.3627a3.734,3.734,0,0,0,.32156.40311l24.34591,24.77076a4.102,4.102,0,1,0,5.85062-5.75124l-15.14661-15.41128,16.07858,4.49771A4.10187,4.10187,0,0,0,174.766,520.972l-16.07894-4.49759L179.6317,511.159a4.10194,4.10194,0,1,0-2.01727-7.952l-33.66437,8.54409a3.71427,3.71427,0,0,0-.48784.17885l-.41263.17055-21.09367-5.90018,14.40045-6.20587c.744-.32059,1.65689-.65045,2.623-.999,4.10876-1.48316,9.736-3.51435,9.38414-7.26932-.18068-1.9262-2.46531-3.51667-6.79076-4.72649-4.51908-1.264-22.32742-3.27873-22.32742-3.27873l19.06578-10.73081.37308.05787a4.15753,4.15753,0,0,0,.60528.054l34.73185.30117a4.10154,4.10154,0,1,0,.07215-8.20276l-21.60971-.18752,14.55012-8.1892a4.10231,4.10231,0,0,0-4.0238-7.15017l-14.55037,8.18945,11.05176-18.57074a4.10165,4.10165,0,1,0-7.04994-4.19434l-17.76269,29.84811a3.68574,3.68574,0,0,0-.21486.46305l-.17372.41788-19.0808,10.7396s11.24062-26.02038,8.55349-28.51352a2.78681,2.78681,0,0,0-1.17186-.65179c-4.55228-1.27306-14.00454,6.55869-19.08275,10.76609-1.48927,1.234-2.77539,2.29952-3.69332,2.95729l-2.51988,1.8068,5.87809-21.01481.30594-.22292a4.10387,4.10387,0,0,0,.46708-.39139l24.771-24.34616a4.10194,4.10194,0,1,0-5.75124-5.85037l-15.41116,15.14673,4.60734-16.4718a4.10172,4.10172,0,0,0-7.90024-2.20967l-4.60734,16.47168-5.3159-20.94437a4.10185,4.10185,0,1,0-7.95188,2.017l8.54434,33.66522a4.11772,4.11772,0,0,0,.19606.57732l.14589.34915-5.87577,21.00553s-9.98111-25.321-12.94683-26.1504a3.64007,3.64007,0,0,0-1.319-.11476c-5.04793.43681-7.95359,28.94154-7.95359,28.94154l-8.39186-14.90965A428.97838,428.97838,0,0,1,79.2446,370.50393,41.00466,41.00466,0,0,0,51.18448,316.5753ZM240.05118,628.67006c-.57753-2.61905-1.28493-5.22084-1.69386-7.87075-.69244-4.48716-.38377-9.47541,2.5165-12.96853,2.47459-2.98043,7.27423-4.10825,9.51524-.44942,2.28463,3.73,1.025,9.18947.36386,13.18952-1.11879,6.7687-1.51683,13.8466.59225,20.3749a10.21783,10.21783,0,0,0,3.52259,5.48486c1.82426,1.25351,4.62593,1.29323,6.02795-.41953.5793-.70769.97881-1.7133,1.87017-1.918,1.63339-.37513,2.21386,2.0843,2.0058,3.74726-.83585,6.68093-1.48746,13.43658-.84754,20.13911s2.64615,13.4052,6.68662,18.79111c2.161,2.88058,5.70974,5.54045,9.09409,4.31009,3.95772-1.43881,4.89483-7.1975,8.81241-8.74226,3.4428-1.35755,7.233,1.37517,9.08757,4.57772s2.63746,6.98486,4.80889,9.98164a10.84116,10.84116,0,0,1,1.43569,2.19045,7.64106,7.64106,0,0,1,.3732,2.85519l.03959,12.45738a222.50521,222.50521,0,0,1-90.52626-75.5702,7.10726,7.10726,0,0,1,9.14923-.68048c3.5221,2.7201,4.45358,8.75847,8.83217,9.55348a6.22755,6.22755,0,0,0,4.67638-1.3069c3.66133-2.68537,4.85286-7.70263,4.5287-12.23158A38.2036,38.2036,0,0,0,240.05118,628.67006Zm9.51791-134.71547c1.08484,7.34424,2.1499,13.66309,2.02173,18.291a17.14147,17.14147,0,0,1-.85657,5.395c-.46252,1.23535-.97632,1.81982-1.14294,1.8208-.11365-.00391-.12964-.16211-.06311-.45264.06982-.28906.22974-.70654.37634-1.28711a22.12309,22.12309,0,0,0,.75659-5.18164c.20276-4.56934-.67639-11.07324-1.76367-18.4292-1.092-7.35449-1.75305-14.12744-1.27014-19.042.40259-4.9292,1.7749-7.77148,2.08472-7.62549.28918.09912-.87012,2.86084-1.25659,7.6665C247.98975,479.90088,248.478,486.60889,249.56909,493.95459Zm46.26526,97.56152a27.04479,27.04479,0,0,0-1.501-5.23389,29.10124,29.10124,0,0,0-2.31616-4.502,25.79434,25.79434,0,0,0-2.79736-3.604c-.46387-.54492-.998-.98242-1.46069-1.45557-.50464-.42529-.97852-.84766-1.45825-1.21436a25.4317,25.4317,0,0,0-2.71558-1.79736q-.63446-.34644-1.17822-.64307-.56323-.25342-1.02344-.48486c-.60522-.333-1.1123-.49854-1.42822-.728-.32153-.21045-.47852-.40088-.44092-.57129.02429-.10889.23291-.14648.61548-.11963a7.09546,7.09546,0,0,1,1.63684.31006c.34521.11182.72937.23535,1.14929.37012.40308.17969.84155.37451,1.31177.58447a19.8426,19.8426,0,0,1,2.97864,1.83008c.52356.38184,1.02917.83594,1.57214,1.28711.49463.502,1.05383.98438,1.54346,1.56348a26.97278,26.97278,0,0,1,2.89941,3.85791,31.50439,31.50439,0,0,1,2.35815,4.76465,31.03293,31.03293,0,0,1,1.53845,5.48926,42.10368,42.10368,0,0,1,.51953,10.67773,56.35455,56.35455,0,0,1-1.22009,8.30957c-1.03223,4.59961-2.13452,7.21094-2.76221,7.21436-.38416,0-.43054-.68164-.218-1.92627.1936-1.24854.657-3.05762,1.19421-5.34277a68.52522,68.52522,0,0,0,1.47266-8.21777,40.02517,40.02517,0,0,0,.244-5.00537A31.30816,31.30816,0,0,0,295.83435,591.51611ZM215.9485,687.83532c23.65006,23.54183,52.89411,41.37723,82.86884,55.65989.45255.21569,7.12344,2.65616,7.09929,2.06045.71088,18.53027.22542,33.80959,1.126,40.55992-.35712-2.67682-10.82373-6.404-12.90122-7.48956-10.357-5.41168-20.63338-10.79546-30.51353-17.0532a312.31394,312.31394,0,0,1-42.45966-32.28563Q214.50773,723.258,208.20365,716.85c-3.31542-3.37068-8.172-7.2424-10.37634-11.46212-2.08074-3.98329-1.08126-9.41018-1.34243-13.75215-.2947-4.89951-.3679-9.82269-.54181-14.72872.04093,1.15456,4.31065,1.44469,5.08634,1.38979,3.03832-.215,3.95012-1.60131,6.57472.71071,2.81415,2.479,5.1905,5.669,7.85069,8.33477Q215.70124,687.5892,215.9485,687.83532Zm-18.27308,45.42444c.14075.2251.28857.45752.45752.70361.35889.54248.76709,1.12646,1.23877,1.75977.47836.6121,1.02015,1.26666,1.611,1.9632,13.30592,15.68594,29.87031,28.32762,46.81917,39.8161,1.22461.83008,2.42114,1.63965,3.57544,2.42773q1.76294,1.13013,3.40649,2.18945c2.1748,1.43555,4.27222,2.625,6.14441,3.751,1.88623,1.1123,3.62463,2.01318,5.13782,2.79443.528.28125,1.03467.52783,1.51331.74609-1.1261.00684-2.25928.01416-3.39246.021-5.97546-.01416-11.96509.00732-17.835-.35889-10.46582-.65479-20.96692-2.168-31.62988-3.01221a153.79966,153.79966,0,0,0-15.73047-.57031C199.984,778.69873,198.58337,759.11133,197.67542,733.25977Zm-1.4408,117.92236a23.60292,23.60292,0,0,0,5.762-1.77295,26.20281,26.20281,0,0,0,2.59473-1.40283,28.45689,28.45689,0,0,1-1.75378-2.57422,27.10619,27.10619,0,0,1-3.53467-9.80664,15.2009,15.2009,0,0,1-.01416-5.2002,17.619,17.619,0,0,1,1.55713-4.84668,12.86108,12.86108,0,0,1,3.04883-4.0708,7.50517,7.50517,0,0,1,4.85522-1.936,7.38452,7.38452,0,0,1,4.8158,1.77588,10.51883,10.51883,0,0,1,2.786,3.938,14.13434,14.13434,0,0,1,1.0686,4.44092c.01685.7417.08118,1.47949.05029,2.209-.07178.72705-.09253,1.457-.2124,2.166a20.54493,20.54493,0,0,1-2.9696,7.73438,24.49629,24.49629,0,0,1-5.12451,5.769c-.34692.2876-.69983.56055-1.05554.82715a26.27244,26.27244,0,0,0,3.09082,2.90332,24.4794,24.4794,0,0,0,19.44482,5.37891,28.246,28.246,0,0,0,5.25439-1.333,30.45281,30.45281,0,0,0,4.97632-2.38525,27.85936,27.85936,0,0,0,3.56921-2.47412,32.69579,32.69579,0,0,1-4.88562-11.6709,32.09694,32.09694,0,0,1-.66431-6.62549c.0813-1.10693.09912-2.2124.23755-3.314a12.28471,12.28471,0,0,1,.86646-3.34229,6.83617,6.83617,0,0,1,2.29358-2.82422,7.02779,7.02779,0,0,1,3.37244-1.25,9.97494,9.97494,0,0,1,3.47327.269,11.07174,11.07174,0,0,1,3.12927,1.42285,9.46969,9.46969,0,0,1,2.46582,2.42139,10.86783,10.86783,0,0,1,1.4231,3.07813,14.95057,14.95057,0,0,1,.34229,6.51514,22.67544,22.67544,0,0,1-1.86694,6.05859,23.65956,23.65956,0,0,1-1.48608,2.74658,30.42655,30.42655,0,0,1-1.72119,2.57031,33.07189,33.07189,0,0,1-4.042,4.44873,28.6385,28.6385,0,0,0,8.03442,7.24512l1.39209.79883,1.46118.66406a25.78049,25.78049,0,0,0,3.01514,1.10205,21.7636,21.7636,0,0,0,6.35645.75439l.80957-.00635.80859-.08545,1.61841-.17773,1.6012-.33105.80176-.16553.7865-.23682,1.57324-.47852,1.5304-.61377a32.31133,32.31133,0,0,0,2.98254-1.42383,29.48826,29.48826,0,0,0,5.32935-3.85107,10.1854,10.1854,0,0,0,.82312-.75977,28.77961,28.77961,0,0,1-5.68408-6.27637,27.33863,27.33863,0,0,1-4.45789-11.96094,19.518,19.518,0,0,1,.19116-6.59619,11.36337,11.36337,0,0,1,3.26514-6.02051,8.346,8.346,0,0,1,6.61243-2.38428,9.855,9.855,0,0,1,6.08765,3.51074,15.34414,15.34414,0,0,1,3.31262,6.11084,18.47053,18.47053,0,0,1,.08691,6.93652,60.88749,60.88749,0,0,1-1.16162,6.70654c-.13171.56641-.35327,1.11182-.53711,1.6665a16.07831,16.07831,0,0,1-.615,1.64355,23.58481,23.58481,0,0,1-1.64136,3.10352,25.08143,25.08143,0,0,1-2.22144,3.08643,22.77487,22.77487,0,0,0,10.38855,3.86328,21.313,21.313,0,0,0,10.37524-1.57861,24.18748,24.18748,0,0,0,7.49988-5.10693c-.45093-.4707-.88623-.96143-1.29883-1.47656a32.354,32.354,0,0,1-4.23035-7.60693,30.15789,30.15789,0,0,1-2.45959-8.84863,14.62855,14.62855,0,0,1,.38416-4.98975,11.83357,11.83357,0,0,1,2.422-4.61719,9.30526,9.30526,0,0,1,4.56567-3.00781,8.19736,8.19736,0,0,1,5.63806.49414,10.85739,10.85739,0,0,1,4.257,3.61963,12.07129,12.07129,0,0,1,2.009,5.2373,22.09333,22.09333,0,0,1-1.65723,10.80811,34.23155,34.23155,0,0,1-5.56128,9.64453c-.12109.14893-.24463.2959-.36914.44238.03479.02734.06775.05762.10278.084a22.16739,22.16739,0,0,0,12.40576,4.55273,26.67892,26.67892,0,0,0,7.68066-.57239q-1.04407,1.52728-2.09375,3.04126c-.67334.09094-1.354.16577-2.048.20642a26.73126,26.73126,0,0,1-14.63489-3.063,20.95552,20.95552,0,0,1-3.27942-2.24121,27.61433,27.61433,0,0,1-6.68835,4.8623,23.47872,23.47872,0,0,1-11.6311,2.64453,24.673,24.673,0,0,1-11.68628-3.57129c-.5697-.34131-1.12622-.70605-1.67126-1.08887a31.57762,31.57762,0,0,1-6.28552,4.8418,30.338,30.338,0,0,1-6.46094,2.83447,28.05217,28.05217,0,0,1-6.91675,1.25586,24.03248,24.03248,0,0,1-3.51794-.09424,21.61957,21.61957,0,0,1-3.47021-.57861,13.97966,13.97966,0,0,1-1.67554-.50439,16.7034,16.7034,0,0,1-1.64221-.58643,26.17835,26.17835,0,0,1-3.11914-1.52783,29.89339,29.89339,0,0,1-5.55762-4.05811,38.64341,38.64341,0,0,1-3.5376-3.89648,31.37981,31.37981,0,0,1-14.3103,6.57227,28.32019,28.32019,0,0,1-5.81409.41064,26.3075,26.3075,0,0,1-5.69031-.87744,27.49983,27.49983,0,0,1-9.96411-5.019,30.74033,30.74033,0,0,1-3.91992-3.67383,28.06494,28.06494,0,0,1-2.98682,1.60938,26.335,26.335,0,0,1-6.36768,1.90283,32.62043,32.62043,0,0,1-6.03125.3501,37.54124,37.54124,0,0,1-5.41248-.62988,45.19877,45.19877,0,0,1-8.6864-2.61133,53.81119,53.81119,0,0,1-5.95825-2.8584c-3.10986-1.749-4.58667-2.9165-4.44958-3.15918.09912-.1792,1.7627.63721,4.95264,2.06738,1.59729.70557,3.57959,1.56592,5.97473,2.4043a48.86124,48.86124,0,0,0,8.41211,2.21484A32.669,32.669,0,0,0,196.23462,851.18213ZM392.53186,706.73535c.0459-.35986.19116-.78662.54736-.85547a.69337.69337,0,0,1,.697.45947,5.26636,5.26636,0,0,1,.20789.87549c.50159,2.00732,3.50122,2.5459,4.01721,4.5498a1.4,1.4,0,0,1-.68738,1.61572,1.48011,1.48011,0,0,1-1.28308.063,6.81316,6.81316,0,0,1-2.58325-2.67139A6.23026,6.23026,0,0,1,392.53186,706.73535Zm-19.09253-49.1958c-.32666-.1748-.7854-.21973-1.00439-.52148a.55553.55553,0,0,1,.27612-.77979,1.02409,1.02409,0,0,1,.906.12061c.27246.16064.498.38867.75342.57568a3.04888,3.04888,0,0,0,1.71753.5542c.4541.01709,1.18188-.28857,1.47668.20508.40881.68457-.99084,1.66406-1.55188,1.68848-.43872.01855-.89624-.19434-1.30322-.02979-.5885.23828-.68652,1.10156-1.25,1.394a.81036.81036,0,0,1-1.00342-1.229c.39624-.48926,1.23169-.47461,1.33618-1.19141A.66752.66752,0,0,0,373.43933,657.53955Zm-36.30457-1.94336a3.76348,3.76348,0,0,0-.96326.84863,4.03088,4.03088,0,0,0-.26636,1.46777c-.079.49561-.468,1.04443-.95837.93848a.7871.7871,0,0,1-.54749-.74316,2.30127,2.30127,0,0,1,.22241-.95752q.245-.62842.49023-1.25635a2.28063,2.28063,0,0,1,.647-1.01562,1.96262,1.96262,0,0,1,.70264-.67187.827.827,0,0,1,1.09644.27A1.00492,1.00492,0,0,1,337.13477,655.59619Zm-188.55212,4.50049c.19214-.18262.53857-.09229.748.0415a2.31216,2.31216,0,0,1,.53235.49707,3.72179,3.72179,0,0,1,.65369,1.20654,3.19728,3.19728,0,0,1-.2627,2.66943c-.32227-.88379-.50037-1.60937-.74512-2.35156-.10645-.37256-.2406-.73389-.35974-1.11768-.07336-.19238-.11511-.38623-.18811-.54346A.58988.58988,0,0,0,148.58264,660.09668Zm-21.2179-28.80908c-.047.01855-.0769-.05664-.05994-.10059.00952-.062.11011-.09326.15918-.07324a1.07515,1.07515,0,0,1,.22144.1333,3.28582,3.28582,0,0,0,.3418.21484,4.98719,4.98719,0,0,0,.68652.33154,5.41161,5.41161,0,0,0,1.41968.33936,14.04551,14.04551,0,0,0,3.14465-.18115,3.87892,3.87892,0,0,1-3.25842,1.23145,3.47236,3.47236,0,0,1-1.72021-.68018,2.79468,2.79468,0,0,1-.63379-.67236,2.31,2.31,0,0,1-.21045-.40479l-.05945-.16846c-.01025-.01221.00049-.03809-.02173-.03125C127.35657,631.23389,127.327,631.271,127.36475,631.2876Zm-17.12756,90.97461a1.88668,1.88668,0,0,1-1.8811-.58545,3.69527,3.69527,0,0,1-.95972-1.79541,4.60956,4.60956,0,0,1,.75464-3.72852c.007.64746.00842,1.23877.04688,1.81885a11.59387,11.59387,0,0,0,.23071,1.68262,5.22405,5.22405,0,0,0,.56885,1.50342A2.45132,2.45132,0,0,0,110.23718,722.26221Zm1.183,54.48315c-.1543-.30737-.309-.6189-.46326-.92773.86206-.08289,1.7251-.15845,2.59021-.20874Q112.475,776.15948,111.42017,776.74536ZM55.55334,461.57849l3.28491,5.83667s-1.5564-.72668-3.8335-1.76575C55.18616,464.29126,55.36218,462.929,55.55334,461.57849Zm9.72058,17.27026,7.90564,14.04578-15.52307-4.342-4.59387-6.39978c.26953-2.6355.53833-5.27161.84326-7.87976Zm26.97839,19.38074,14.40332-8.10693,22.03625,3.71436-20.52307,8.8446Zm26.66309,30.56177-20.76489-8.25684L90.0426,506.129l15.91675,4.45227Zm-16.281-45.81934-14.406,8.10828,4.3418-15.52283,18.22021-13.061ZM91.00146,524.55835l-3.71509,22.03516-8.84521-20.52368,4.45227-15.91724ZM80.32886,488.87061l-7.907-14.04785L76.00635,453.009l8.66443,20.33838Zm-5.33508,19.07275-4.45215,15.91711L52.58923,536.6499l8.35632-20.7998Zm-19.54614-11.491,15.52246,4.3418L56.92249,508.701,51.01135,507.73q.27942-4.86035.64014-9.66016Zm5.4292,44.67163c1.4668-1.20923,2.73389-2.25378,3.63306-2.89417l2.51318-1.79065-5.89746,21.084-.36182.2655a3.72492,3.72492,0,0,0-.40356.32214L50.692,567.6134q-.55151-9.15619-.6814-18.40369A97.72088,97.72088,0,0,0,60.87683,541.124ZM56.75208,573.1593l-4.27393,15.27893q-.559-5.03046-.99731-10.09814ZM114.30945,782.4314c.00562-.07812.0144-.15662.01892-.23462,2.28748-3.38525,5.20837-5.34912,9.71985-6.93945,1.74548-.6333,3.57544-1.21777,5.48987-1.73145a5.99193,5.99193,0,0,0-.49976.978c-2.8927,3.80078-4.50452,9.0376-4.99011,13.98486-.373,1.02783-.49268,1.80225-.13379,2.24561a27.64678,27.64678,0,0,0,.14783,4.01855,1.30474,1.30474,0,0,0,2.60413-.14062,46.57116,46.57116,0,0,1,.18311-6.3623c.4856-1.52734.98535-3.55469,1.7384-5.80664.75305-2.25928,1.5625-4.28662,2.12561-5.89111.66858-1.24609,1.34424-2.49854,1.92847-3.80078.16187-.03516.32373-.07764.4856-.11279a69.022,69.022,0,0,1,10.24768-1.53369c.27454-.02148.53491-.03564.80945-.0498-5.9895,4.72266-6.426,14.33691-4.589,21.32568.528,1.99951,3.7373,1.35889,3.56848-.68213-.36609-4.42041-.9502-8.58691-.2605-12.46484.04224-.127.07031-.26074.11963-.38037a19.56224,19.56224,0,0,1,.77417-1.88623c.30273-.57715.56323-1.13281.8728-1.61865.28857-.49951.57715-.9502.85156-1.35107.26758-.40137.51392-.76758.7251-1.09131.2041-.33789.38-.61914.52075-.86572a1.42123,1.42123,0,0,0,.197-.76709l.35193-.35205c2.22412-.04883,4.40588-.01367,6.54553.127,2.25928.16895,4.45532.436,6.57373.76709a9.72527,9.72527,0,0,0-2.68848,2.92822,10.85622,10.85622,0,0,0-1.06982,1.90723c-.04932.10547-.09155.21826-.13379.33057a22.18821,22.18821,0,0,0-.82349,2.07617,18.35075,18.35075,0,0,0-.78833,9.07275c.00708.29541.02832.584.0564.85156a5.08811,5.08811,0,0,0,.63342,2.23779.96434.96434,0,0,0,1.04163.48584,1.67332,1.67332,0,0,0,2.1748-2.00586c-.77417-3.89941-.96423-7.45361.6405-11.19092.9502-2.1958,3.118-3.9834,3.864-6.20068.05627.01367.11963.021.183.03516a84.71448,84.71448,0,0,1,8.52332,2.2168,16.59044,16.59044,0,0,0-3.64575,7.84766c-.51379,2.43555-1.17541,5.687.746,7.55957a1.3036,1.3036,0,0,0,2.02-.33105,4.71261,4.71261,0,0,0,.556-2.37891,2.83013,2.83013,0,0,0,.38709-1.3584,34.13326,34.13326,0,0,1,.52087-4.603,29.68349,29.68349,0,0,1,1.56238-4.53271c.07751-.18994.14087-.373.19727-.542.10547-.25342.218-.50635.32373-.75977.373.12646.74609.26025,1.11194.394,1.18958.47168,2.35083.87988,3.42065,1.3584,2.0199.85156,3.82178,1.69629,5.41248,2.48438a72.89267,72.89267,0,0,0,7.49561,4.9126c.739.40137,1.41479.76758,2.0271,1.084-5.89453.3501-10.26965.5459-15.41431,3.72949a38.54311,38.54311,0,0,0-18.27271,30.09717c-.50928,6.78516-1.4718,13.57422-1.68018,20.42432a58.66465,58.66465,0,0,0,2.224,19.7002q.21588.67419.45935,1.34949c-8.54041-12.24573-16.864-25.064-24.74829-38.18787C129.99561,811.56055,122.28345,797.96021,114.30945,782.4314Z"/><path d="M249.31079,845.584a24.41271,24.41271,0,0,0,4.8927-10.248,13.45172,13.45172,0,0,0-.05786-5.57031,9.48283,9.48283,0,0,0-1.00415-2.53174,6.57546,6.57546,0,0,0-1.74-1.94727,7.6757,7.6757,0,0,0-2.38489-1.25732,7.028,7.028,0,0,0-2.65491-.39209,5.65727,5.65727,0,0,0-2.46777.64453,4.8788,4.8788,0,0,0-1.71631,1.7627,13.63645,13.63645,0,0,0-1.10034,5.68359c-.074,1.02344.03394,2.05518.03931,3.08691.14746,1.02246.19556,2.0625.4198,3.0791A31.1916,31.1916,0,0,0,246.0437,849.126,33.16168,33.16168,0,0,0,249.31079,845.584Z"/><path d="M207.51355,845.918a20.253,20.253,0,0,0,7.28125-11.97412,16.09362,16.09362,0,0,0,.17993-3.77344,11.35321,11.35321,0,0,0-.80908-3.69775c-.912-2.34814-2.78931-4.38428-5.17444-4.41357-2.29626-.16016-4.50476,1.84326-5.78943,4.3584a14.16912,14.16912,0,0,0-1.5,8.51953A25.00324,25.00324,0,0,0,206.6123,846.627C206.91565,846.39795,207.21716,846.16406,207.51355,845.918Z"/><path d="M288.76892,850.62354a10.34331,10.34331,0,0,0,.929-1.31738l.84729-1.36572c.25549-.46729.46558-.958.70154-1.43408a22.46317,22.46317,0,0,0,1.13477-2.96045,45.29127,45.29127,0,0,0,1.17822-6.38477,19.75585,19.75585,0,0,0,.16541-6.189,12.56066,12.56066,0,0,0-2.55176-5.30273,8.61518,8.61518,0,0,0-4.528-3.207,5.85989,5.85989,0,0,0-4.96948,1.23047,8.59725,8.59725,0,0,0-2.97192,4.56152,16.30874,16.30874,0,0,0-.46106,5.74951,24.68407,24.68407,0,0,0,3.62854,10.97461,26.26978,26.26978,0,0,0,6.00659,6.78711C288.18494,851.39258,288.47021,851.00146,288.76892,850.62354Z"/><path d="M324.22913,840.82861a25.08022,25.08022,0,0,0,2.39063-9.2998,11.59355,11.59355,0,0,0-.6886-4.35791,8.72315,8.72315,0,0,0-2.37048-3.4165,6.80828,6.80828,0,0,0-3.51318-1.69434,5.45389,5.45389,0,0,0-3.57483.7876,8.82025,8.82025,0,0,0-3.88879,6.44629,17.97757,17.97757,0,0,0,1.14624,7.86377c1.48669,4.18848,3.30078,8.12207,5.93311,10.99268A32.27132,32.27132,0,0,0,324.22913,840.82861Z"/></svg>