<svg id="Слой_1" data-name="Слой 1" xmlns="http://www.w3.org/2000/svg" viewBox="0 0 500 1000"><title>Flags light bulbs</title><path d="M491.0249,319.74683V146.70288a37.0806,37.0806,0,0,0-37.08057-37.08057h-130.813V28.25073A25.75039,25.75039,0,0,0,297.38086,2.50024H202.61914a25.75039,25.75039,0,0,0-25.75049,25.75049v81.37158H46.05615A37.08071,37.08071,0,0,0,8.9751,146.70288V319.74683a37.08309,37.08309,0,0,0,30.61719,36.50732C20.10156,408.79419,8.9751,472.00366,8.9751,544.29126c0,225.27,185.40381,453.2085,241.0249,453.2085,51.501,0,241.0249-227.93848,241.0249-453.2085,0-72.2876-11.12646-135.49707-30.6167-188.03711A37.08312,37.08312,0,0,0,491.0249,319.74683Zm-58.79932,82.64111q5.3562,19.303,9.1167,39.95264L412.89551,405.053Zm-19.52344-20.04785L421.855,370.176c.04053.11182.07129.22607.11279.33789,1.67432,4.5127,3.24756,9.11621,4.77295,13.76172Zm-11.021-112.92432c0-10.38086,8.33789-15.99609,17.52734-15.99609,10.63477,0,16.50586,6.38086,16.50586,8.083,0,1.61621-4.76562,8.50879-6.72266,8.50879-2.21094,0-2.72266-6.55176-10.55078-6.55176-2.63672,0-6.21094,1.19141-6.21094,3.74316,0,8.76367,24.8457,8.59375,24.8457,25.86523,0,11.06152-9.18945,17.35742-19.40039,17.35742-9.01758,0-17.95117-5.27539-17.95117-15.23047,0-3.998,2.041-9.10352,2.72266-9.10352.42578,0,2.55273,12.84766,14.63281,12.84766,3.49023,0,7.57422-1.78711,7.57422-6.126C424.65381,284.04956,401.68115,286.34741,401.68115,269.41577Zm16.92627,80.08447-21.8833,16.69482-2.30176-16.69482Zm-47.46924-96.08057c2.72266,0,14.37891-.085,18.71875,11.82617,1.78711,4.93555,1.957,30.12012,1.957,33.09766,0,3.74414.67969,5.95605.67969,8.84863,0,1.78711-7.99609,1.957-15.57031,1.957-20.50391,0-21.95117-10.5498-21.95117-15.65527,0-6.63184,4.22314-12.17822,9.606-15.65381,1.90088-1.22705,6.11865-4,8.50635-3.59131,4.07764.69727,3.856,5.83447,1.49561,7.96387-3.40723,3.07373-8.12158,3.3623-8.12158,9.32422,0,4.76465,4.16992,7.57227,8.67969,7.57227,7.43018,0,5.8501-14.249,5.78271-19.64453-.08154-6.52295-1.25781-16.00684-9.7002-16.00488-8.67578.002-7.39893,7.31738-9.272,7.31738-2.72266,0-5.69922-3.31836-5.69922-6.97754C356.24951,257.50366,363.31006,253.41968,371.13818,253.41968Zm5.20068,96.08057-2.32861,16.88818-22.44385-16.88818Zm-55.646-186.04736h6.66406c1.05664,0,2.84375-.24414,2.84375,1.46289,0,1.1377-.73047,3.65723-.73047,6.09473,0,9.50879,7.96289,18.44824,9.58789,18.44824,3.252,0,5.44531-9.752,5.44531-16.00977,0-4.06348-.89258-7.47656-.89258-8.77734,0-1.46289,2.03125-1.21875,2.92578-1.21875H353.769c1.543.24414,1.30078,2.84473,1.30078,6.33887.73047,23.81152-17.63672,46.8916-35.51562,46.8916-1.86914,0-1.94922-1.21875-1.94922-3.08789v-7.15137c0-.97559.16211-3.332,2.35547-3.332,9.3457,0,11.78516-3.00684,11.78516-4.06348,0-3.41309-14.14062-9.18359-14.14062-31.77637C317.605,163.615,317.52295,163.45288,320.69287,163.45288Zm-.59961,95.15723a9.56026,9.56026,0,0,0,5.01953-1.53223,16.04046,16.04046,0,0,1,7.82813-2.38184c15.6543,0,15.31445,20.50488,15.31445,31.39551,0,25.9502-3.23242,23.05762-5.69922,23.05762H336.769c-.84961,0-3.23242.16992-3.23242-1.36133s3.23242-10.89062,3.23242-25.09961c0-16.251-5.78516-17.95215-9.01758-17.95215-2.97852,0-5.78711-.25586-5.78711,13.7832,0,30.54492-.42383,30.62988-3.14648,30.62988h-7.6582c-1.61719,0-2.97852.34082-2.97852-.85059,0-1.27637,3.23438-18.37793,3.23438-26.46094,0-5.10547,0-17.10156-6.97656-17.10156-6.38281,0-8.76367,7.82715-8.76367,20.50488,0,17.10156,2.38086,20.335,2.38086,22.7168,0,1.44629-1.53125,1.19141-2.4668,1.19141h-6.7207c-2.89453,0-4.67969,2.72266-4.67969-22.46191,0-35.82031-1.10742-34.71387,10.46484-34.71387,1.78711,0,3.6582.085,3.6582,1.36133,0,1.02051-1.02148,2.6377-1.02148,3.8291a1.6111,1.6111,0,0,0,1.70313,1.44629c1.01953,0,2.21094-1.02148,4.084-1.957a16.17791,16.17791,0,0,1,7.99609-1.957C315.24365,254.696,317.96631,258.61011,320.09326,258.61011Zm-35.39844-95.15723H291.439c1.21875,0,2.68164-.40625,2.76367,1.1377.16211,1.21875.32422,2.7627,1.94922,2.7627,1.2207,0,2.60156-1.2998,4.30859-2.59961,1.707-1.21973,3.65625-2.51953,5.85156-2.51953a7.79328,7.79328,0,0,1,7.55664,7.96387c0,5.68848-4.63086,9.10254-7.07031,9.10254-.97461,0,.16406-5.44531-5.44531-5.44531-6.82617,0-7.3125,10.97168-7.3125,15.84766,0,16.17188,2.76172,22.999,2.76172,24.46094-.08008,1.30078-1.86914,1.30078-2.76172,1.30078h-6.502c-3.00781,0-4.4707,2.51953-4.4707-24.38086C283.06787,168.573,282.41943,163.53394,284.69482,163.45288Zm-5.7793,96.43359c0,1.19043,0,4.42383-1.78711,4.42383-.67969,0-2.38281-.76562-3.91406-.76562-4.67969,0-4.67969,5.44531-4.67969,13.01758,0,22.63184,4.76563,26.376,4.76563,27.82227,0,1.27637-9.86914,6.041-11.82617,6.041-3.23437,0-4.084-18.97363-4.084-23.65332,0-10.46484.50977-14.54883.50977-16.166,0-2.55176.76563-7.06152-3.0625-7.06152-1.53125,0-2.38281,1.02148-3.31836,1.02148-1.10547,0-1.02148-1.10645-1.02148-2.6377,0-6.4668,1.87109-7.23242,5.10547-7.23242a12.63371,12.63371,0,0,0,1.61719.34082c2.63672,0,2.89258-4.16992,3.31641-7.14746.42578-3.2334,9.95508-5.61523,11.6582-5.61523.59375,0,1.01953.16992,1.01953,1.78613,0,2.29785-2.55273,7.4873-2.55273,8.50879,0,1.53125.42578,2.55273,1.70313,2.55273,1.10547,0,2.127-.42578,3.23242-.42578C278.82959,254.696,278.91553,256.99292,278.91553,259.88647ZM276.32568,170.198c0,5.68848-4.63086,9.10254-7.07031,9.10254-.97461,0,.16406-5.44531-5.44531-5.44531-6.82617,0-7.3125,10.97168-7.3125,15.84766,0,16.17188,2.76172,22.999,2.76172,24.46094-.08008,1.30078-1.86914,1.30078-2.76172,1.30078h-6.502c-3.00781,0-4.4707,2.51953-4.4707-24.38086,0-22.51074-.64844-27.5498,1.627-27.63086H253.896c1.21875,0,2.68164-.40625,2.76367,1.1377.16211,1.21875.32422,2.7627,1.94922,2.7627,1.2207,0,2.60156-1.2998,4.30859-2.59961,1.707-1.21973,3.65625-2.51953,5.85156-2.51953A7.79328,7.79328,0,0,1,276.32568,170.198Zm-65.64453,99.21777c0-10.38086,8.33789-15.99609,17.52734-15.99609,10.63477,0,16.50586,6.38086,16.50586,8.083,0,1.61621-4.76562,8.50879-6.72266,8.50879-2.21094,0-2.72266-6.55176-10.55078-6.55176-2.63672,0-6.21094,1.19141-6.21094,3.74316,0,8.76367,24.8457,8.59375,24.8457,25.86523,0,11.06152-9.18945,17.35742-19.40039,17.35742-9.01758,0-17.95117-5.27539-17.95117-15.23047,0-3.998,2.041-9.10352,2.72266-9.10352.42578,0,2.55273,12.84766,14.63281,12.84766,3.49023,0,7.57422-1.78711,7.57422-6.126C233.65381,284.04956,210.68115,286.34741,210.68115,269.41577ZM249.8335,40.50024a23,23,0,1,1-23,23A22.99989,22.99989,0,0,1,249.8335,40.50024ZM222.52881,162.23413c8.93945,0,16.498,5.03809,16.498,14.62793,0,5.86279-3.4043,9.96-8.41406,12.56689-4.06494,2.11475-12.17773,6.22656-15.15967.58691-4.73047-8.94775,13.49512-4.77637,13.49561-12.01611,0-3.98242-3.73828-6.17578-6.82617-6.17578-8.6543.00049-11.38721,8.96484-11.67822,16.14746-.36523,9.03467,1.67969,17.74121,12.65283,17.74121,13.32813,0,13.32813-10.15918,14.4668-10.15918,1.21875,0,1.46289,4.22656,1.46289,4.877,0,10.32031-7.96484,16.25293-17.7168,16.25293-14.54687,0-20.56055-12.02734-20.56055-25.03027C200.74951,171.98608,211.63818,162.23413,222.52881,162.23413ZM201.49365,306.93726c0,2.72266-2.55273,2.21191-4.50977,2.21191h-5.78516c-4.16992,0-4.50977,1.78711-4.50977-28.16211,0-29.09863,1.36133-26.291,4.16992-26.291h4.67969c3.57227,0,3.6582.25488,3.6582,1.27637,0,3.14844-1.02148,6.2959-1.02148,15.57031A177.64682,177.64682,0,0,0,201.49365,306.93726Zm-.76562-64.49316c0,3.6582-3.14844,5.61523-6.55078,5.61523-3.4043,0-6.55273-1.957-6.55273-5.61523s3.14844-5.87109,6.55273-5.87109C197.57959,236.573,200.728,238.78589,200.728,242.44409Zm-62.4707-94.59473h7.47656c3.16992,0,4.30859,0,8.28906,5.44531,7.64063,10.4834,8.127,16.416,9.75391,16.416,1.21875,0,1.70508-5.93262,10.32031-16.416,4.55078-5.52637,5.76953-5.44531,8.93945-5.44531h6.33984c1.38086,0,5.60742-1.46289,5.60742,38.68359,0,30.47559-2.43945,28.93164-4.4707,28.93164H180.11084c-.97461,0-2.92578.24414-2.92578-1.21875,0-1.1377,4.63281-15.7666,4.63281-36.97754,0-1.70605.24414-11.70215-2.4375-11.70215-2.35742,0-5.44531,8.04492-6.25781,9.99609-6.82812,16.65918-4.06445,24.29883-9.50977,24.29883-6.82617,0-4.14453-7.63965-11.377-24.29883-.8125-1.78809-3.49414-9.99609-6.01367-9.99609-2.68164,0-2.60156,9.99609-2.60156,11.70215,0,21.21094,5.12109,35.83984,5.12109,36.97754,0,1.46289-1.95117,1.21875-2.92578,1.21875h-8.69531c-2.0332,0-4.4707,1.54395-4.4707-28.93164C132.6499,146.38647,136.87646,147.84937,138.25732,147.84937Zm26.65234,159.93848c-.084,1.36133-1.957,1.36133-2.89258,1.36133h-6.80664c-3.14844,0-4.67969,2.6377-4.67969-25.52441,0-23.56836-.67969-28.84375,1.70117-28.92871h7.0625c1.27734,0,2.80859-.42578,2.89258,1.19141.16992,1.27637.3418,2.89258,2.043,2.89258,1.27539,0,2.72266-1.36133,4.50977-2.72266,1.78516-1.27637,3.82813-2.6377,6.125-2.6377a8.16,8.16,0,0,1,7.91211,8.33789c0,5.95605-4.84961,9.5293-7.40234,9.5293-1.01953,0,.17188-5.7002-5.69922-5.7002-7.14648,0-7.6582,11.48633-7.6582,16.59082C162.01709,299.10913,164.90967,306.25659,164.90967,307.78784ZM109.353,236.573h9.27539c.76563,0,1.36133.93652,1.36133,1.78711,0,1.19141-3.23437,9.5293-3.23437,16.33594,0,1.02051,0,2.6377,1.44727,2.6377.67969,0,2.041-.76562,3.91406-1.87207a15.34444,15.34444,0,0,1,7.14648-2.042c7.74219,0,13.44336,5.53027,13.44336,26.03516,0,8.168-1.19141,29.69434-3.82812,29.69434h-8.84961c-.76562,0-3.0625.25488-3.0625-1.10645,0-.5957,4.25391-17.44141,4.25391-28.75781,0-13.1875-2.21289-15.8252-6.38086-15.8252-8.67969,0-8.84961,13.27246-8.84961,19.31348,0,17.0166,1.873,22.54688,1.873,25.01465,0,1.36133-1.61719,1.36133-2.46875,1.36133h-8.42187c-2.46875,0-2.46875,2.89258-2.46875-34.88379C104.50342,267.45874,104.67529,236.573,109.353,236.573Zm-30.79492.51074c7.40234,0,18.80273,3.14844,18.80273,12.33691,0,4.93457-3.4043,7.74316-8.76367,7.74316-3.48828,0,1.19141-7.998-9.61523-7.998-12.42187,0-17.69727,12.67773-17.69727,23.3125,0,16.251,11.0625,22.80273,18.46484,22.80273,13.86719,0,15.05859-12.42285,15.82422-12.42285,1.19141,0,1.873,6.80664,1.873,7.6582,0,12.5918-9.70117,19.90918-21.61133,19.90918-19.31445,0-28.334-17.52734-28.334-34.71387C47.50146,257.24878,57.88232,237.08374,78.55811,237.08374ZM51.73,581.11694a85.011,85.011,0,0,0,10.25928,12.90674c.35791.36035.72363.70459,1.08691,1.05371a33.804,33.804,0,0,0-9.47705,2.55811Q52.50854,589.42944,51.73,581.11694Zm7.25977,48.38184q-1.95044-9.52075-3.5249-19.23633a21.92628,21.92628,0,0,1,12.58789-3.45654c7.50977.1748,14.82129,3.69043,19.082,9.17383,4.36816,5.62012,5.54492,13.51074,2.93066,19.63281-2.623,6.13867-9.33008,10.416-15.61133,9.94824-2.91406-.21777-5.48047-1.49316-6.53809-3.25a4.56695,4.56695,0,0,1,4.72461-6.84766,5.99956,5.99956,0,0,0,2.14063-11.80664A16.84579,16.84579,0,0,0,58.98975,629.49878Zm97.63037,224.39648c-6.82959-10.07178-13.49365-20.47754-19.86768-31.08691q-3.15308-5.24854-6.56348-11.17041c13.958-1.22119,27.38379-8.79248,35.03809-20.64893-.16895,2.07715-.2832,4.1626-.36768,6.25488-.68311,16.98779-1.77734,33.88916-6.24121,50.52588C158.06445,849.83228,157.313,851.8562,156.62012,853.89526Zm15.293,21.6084c-1.917-11.27148,3.11572-21.168,3.97607-32.01074.89014-11.21826,3.189-22.10547,8.043-32.4541,3.13379-6.68115,5.42725-13.59424,5.1543-21.05713-.21387-5.85059-.12646-11.68652,1.3291-17.45312,4.08008-16.16211,8.33154-33.00586,8.10693-49.70557-.05908-4.38135.55615-16.334,7.55225-15.58447,4.74023.50781,5.981,6.20459,6.71826,9.71436,1.543,7.34668-1.90186,23.27148,4.15967,28.93213,1.61182,2.874,1.23682,6.3252.82031,9.5459-1.29395,10.00928-2.60791,20.07275-3.38477,30.147a46.54,46.54,0,0,0,3.02,20.27393c4.30908,11.28369,5.71143,22.69922,5.70117,34.436-.00439,4.39746-1.15576,8.76709-.59473,13.19824a55.61589,55.61589,0,0,1-.79443,16.18115,19.4531,19.4531,0,0,0-2.4519.43457c-6.3042,1.55664-11.25513,6.3042-16.97754,9.37378-7.28149,3.906-15.44946,4.95361-23.78247,4.74731C176.3042,881.35815,174.10327,878.46191,171.91309,875.50366Zm28.38477-369.87549a16.68678,16.68678,0,0,1,.8833-1.80078,50.36281,50.36281,0,0,1,4.52881-6.49561,27.78587,27.78587,0,0,0-.23975,2.80566C205.3877,502.92017,203.33008,504.78784,200.29785,505.62817Zm38.36914,362.541a3.61971,3.61971,0,0,1,.19775-2.75928c-.76855-3.0874-1.02881-6.27-1.48975-9.4043-1.96436-13.353-3.40039-26.73291-2.85889-40.26172.2627-6.56494,2.75928-12.78613,2.44971-19.47852-.30322-6.564-.26514-13.08252-2.15332-19.48682-2.57129-8.72363-1.09912-17.56055-.89014-26.40088.31934-13.50781,3.98291-26.67041,4.1582-40.16992.0498-3.84717-3.24512-9.90527.07373-11.33154,2.08984-.89844,8.49658,1.78711,10.27686,2.95508,7.17334,4.70508,12.89014,9.5835,17.21143,16.75439A40.73856,40.73856,0,0,0,278.228,731.42358c13.1333,8.75342,10.70654,22.86963,8.14258,35.375q-5.20605,25.39233-10.41406,50.78467c-1.55615,7.58838-3.12012,15.20508-5.76953,22.52441-1.91406,5.28711-4.80127,10.31641-7.0498,15.48633-1.49268,3.43213-2.91113,6.90283-4.05518,10.45166-.783,2.42822-1.91943,5.50781-1.97485,8.21924a76.88322,76.88322,0,0,1-16.8186-1.873c-.02441-.00562-.04907-.01172-.07349-.01709A38.0718,38.0718,0,0,1,238.667,868.16919Zm83.66162-130.56982a24.55661,24.55661,0,0,1-2.13232-1.94971c-3.06934-4.07812.34717-12.42822-2.11719-17.13916a18.87514,18.87514,0,0,0-2.13379-2.95605,36.07012,36.07012,0,0,1-4.92969-7.8877c-2.93945-6.62207-4.5957-16.84473-2.61523-23.71191,4.54346,4.45459,5.644,13.00342,7.52051,18.72949,1.75586,5.35986,3.53662,10.77295,6.54834,15.62158,3.97949,6.40723,9.26074,10.37061,15.06738,14.93066,5.93164,4.65869,10.08838,11.56982,13.80664,17.80273a94.49525,94.49525,0,0,1,12.582,35.80078c1.207,9.04,2.36182,18.55664,2.66992,27.90381-1.40625,2.38867-2.78418,4.69873-4.12207,6.91016q-6.01062,9.93713-12.33813,19.63623c-5.7168-.64551-11.42529-1.51343-17.11841-.85645-18.37549,2.12012-31.13672,18.94873-47.60767,27.3667-1.20923.61792-2.44531,1.17212-3.69214,1.69727a3.70621,3.70621,0,0,0,.57813-.61572,6.32937,6.32937,0,0,0,.82861-1.8042,120.928,120.928,0,0,0,5.44043-23.5498c.51221-3.98389,1-7.978,1.87842-11.90967.69775-3.12451,1.60791-9.06055,4.12207-11.4082,2.33838-4.25049,5.335-8.15967,7.7207-12.3877,10.31494-18.27979,8.43945-40.90869,18.63818-59.24512C322.86914,745.07935,325.14844,740.533,322.32861,737.59937ZM270.81348,872.87231c1.20654-1.34082,2.43286-2.73486,4.18408-3.26172,1.74414-.5249,3.532.64014,5.15723.53613A59.63456,59.63456,0,0,1,270.81348,872.87231ZM409.51855,728.88843a71.15806,71.15806,0,0,1-26.8584-20.08545c-7.7959-9.50684-11.92871-20.084-11.63672-29.78418.32324-10.7002,6.59277-20.44922,15.24707-23.707a20.17851,20.17851,0,0,1,26.84766,14.6875c1.55078,7.293-2.0127,15.40723-7.94336,18.08887a11.5787,11.5787,0,0,1-9.88281-.61133,8.80954,8.80954,0,0,1-4.87793-5.95508,6.7383,6.7383,0,0,1,1.30273-5.06934,3.471,3.471,0,0,1,2.31738-1.49219,5.99989,5.99989,0,1,0-.96484-11.96094,15.22949,15.22949,0,0,0-10.87109,6.14453,18.738,18.738,0,0,0-3.58887,14.53418,20.68285,20.68285,0,0,0,11.1123,14.42773,23.48041,23.48041,0,0,0,20.39648.916c11.15039-5.041,17.4873-18.59082,14.73828-31.51855A32.18069,32.18069,0,0,0,382.042,644.0813c-13.084,4.92578-22.54687,19.14453-23.0127,34.57617-.37988,12.59766,4.7168,26.00684,14.35156,37.75488A83.33606,83.33606,0,0,0,404.82129,739.927c-8.56348,19.62012-17.46777,37.4375-25.86572,52.93945-4.47119-19.457-.541-39.47021-1.65723-59.04395a10.22636,10.22636,0,0,0-3.78809-7.48437c-3.36182-2.85937-6.80127-5.6416-10.1084-8.55518-8.3623-7.36816-15.49463-15.439-18.72021-26.12061a176.62163,176.62163,0,0,0-7.35352-19.52979c-5.75244-13.17139-1.58594-31.76709,1.56738-45.10742,1.03564-4.38037.45508-23.97656,5.07813-25.32959,3.481-1.01855,11.15381,21.30615,12.80762,25.12939,1.26318,2.91455,2.60547,5.93652,5.11719,8.03027,2.39014,1.99316,8.51172,3.66211,9.67334-.13818.81055-2.65234-4.61084-6.64209-5.84277-8.73047-2.50293-4.24951-3.79443-9.0332-5.12207-13.68652a92.47264,92.47264,0,0,0-12.958-28.145c-5.42578-7.73047-9.27783-10.04-18.54834-13.34521-15.98926-5.70117-31.478-10.34619-48.77832-8.33154-16.56348,1.92725-34.27686,6.51758-48.65918,14.49268a35.52548,35.52548,0,0,1-5.58154,2.62207c-5.24365,1.80664-7.21191.29688-6.41162-4.80322,1.46094-9.31152,2.24561-19.56836,5.79492-27.97266,1.77637-4.20605-.51318-8.82227-1.88867-13.15674-2.44775-7.71484-1.33057-22.87158,3.74072-29.65674,2.61426-3.49756,2.96484-7.13232,2.94287-11.06689-.04-7.08643-2.47656-14.03076-1.52539-21.18555.20654-2.82812.45117-5.6543.61035-8.48486.19824-3.51807-2.77051-7.51611-5.74561-7.43164-3.98779.11328-4.09961,3.37842-4.41992,5.83936a40.88743,40.88743,0,0,1-4.064,12.63281c-.76172,1.57373-1.57031,3.13184-2.38232,4.689a96.02955,96.02955,0,0,1,3.01221-21.73535,23.24525,23.24525,0,0,0,.94922-5.54541c.0083-.97705.04248-3.40283-.93652-3.99951-3.40186-2.06787-4.46,11.15723-5.21533,12.22217.00684-.00928-2.06738-3.81885-2.21191-4.24854a21.69123,21.69123,0,0,1-1.02148-4.91162,93.29413,93.29413,0,0,0-2.02979-11.083c-.72754-3.36377-1.084-6.78467-1.85449-10.13672-.20215-.87842-.30664-2.23975-1.08936-2.86035-1.12061-.8877-1.94189,1.47461-2.02246,2.064a35.31609,35.31609,0,0,0,.15527,12.24414c.21338.979.46191,3.33887,1.24268,4.05371q-3.52368-3.21606-7.03564-6.44336c-.58838-.53906-6.53662-6.55713-6.80615-3.44385a1.9745,1.9745,0,0,0,.582,1.30859c3.05469,3.84619,7.021,6.959,10.09619,10.78857a26.32816,26.32816,0,0,1,5.61426,12.57178,29.14547,29.14547,0,0,1,.15918,6.43115c-.08105,1.11279-.311,2.16895-1.18164.624-.40479-.71826-.72266-1.88135-1.54248-2.29932a1.49319,1.49319,0,0,0-2.1626,1.11914c-.08887.98438,1.395,2.11133,1.93457,2.90137a17.15619,17.15619,0,0,1,1.71875,3.26514c2.376,5.88672,3.25244,12.82861,1.64209,18.98389-.74316,2.8418-4.0127-2.49951-4.292-3.32422-.69385-2.04785-1.20117-4.31641-3.05811-5.76172-1.291-1.00488-3.31006-1.08105-3.1167,1.01025.166,1.7959,1.88867,3.06348,2.04736,4.979.27832,3.3501,3.03906,6.05322,2.09766,9.52734q-.156.57642-.34033,1.145c-.92139,2.85645-2.31445,5.58545-3.50732,8.35449-2.04541.35938-4.09961.66943-6.17871.89844-3.28955.3623-6.67773.67969-9.6875,1.96826-2.24756-1.98779-4.41357-4.05615-6.46729-6.21924a19.95774,19.95774,0,0,1-3.29736-4.23828,11.94579,11.94579,0,0,1-.99219-4.37891c-.17334-1.19531-.7041-2.2876-.79492-3.52588-.11426-1.55615.51807-3.06494.78564-4.60449a3.92872,3.92872,0,0,0-.05859-1.959,2.00245,2.00245,0,0,0-1.43262-1.333c-2.36035-.47363-3.32422,3.37891-3.14209,4.83887.32861,2.6333,1.62061,5.52.09668,7.75732A47.3733,47.3733,0,0,1,152.063,464.05786a6.3026,6.3026,0,0,1,.71533-3.18311c.87793-1.41016,2.63721-2.07324,4.02441-3.06445.88672-.63428,2.15723-2.07861,1.80762-3.23584-.30713-1.01807-.72461-.57031-1.50977-.106-.86084.50879-1.71,1.03613-2.57129,1.54541a2.54059,2.54059,0,0,1-.71045.32568,1.66518,1.66518,0,0,1-1.85791-1.38525c-.25928-1.50977,1.20752-3.4375,1.76514-4.8208.729-1.80957,1.437-3.62793,2.0791-5.46631.63965-1.832,1.21777-3.68359,1.686-5.56055a18.711,18.711,0,0,0,.519-4.64795.86656.86656,0,0,0-.15723-.61914.8865.8865,0,0,0-.88037-.11816,3.62138,3.62138,0,0,0-2.25781,2.30469,15.11629,15.11629,0,0,0-.5918,3.188,18.99579,18.99579,0,0,1-4.09961,9.28223,7.71816,7.71816,0,0,1-1.395,1.49951c-2.06348-2.96826-3.2666-6.89307-4.78369-10.1499-.74561-1.60107-1.5957-3.313-3.23047-4.16016-1.63477-.84668-4.231-.18213-4.4458,1.55225a4.0743,4.0743,0,0,0,1.22607,2.78271,54.93356,54.93356,0,0,1,7.96777,14.187,53.69953,53.69953,0,0,1,2.33643,7.94824c.48535,2.29688,1.46436,5.32129.79932,7.627a.59183.59183,0,0,1-.25293.39258c-.23975.12451-.52393-.05762-.72705-.23047a63.22781,63.22781,0,0,1-5.98145-5.81689,9.25876,9.25876,0,0,1-1.86133-2.68213,9.16064,9.16064,0,0,0-.96436-2.40967c-1.6377-2.11865-3.26318.41455-2.9585,2.03418.36719,1.94971,1.90771,3.75049,3.35205,5.12451,8.2207,7.8208,13.15674,17.76074,15.793,28.35205.08838.354.07959.85742-.30176.93018a.78563.78563,0,0,1-.47559-.11523c-2.707-1.31982-5.32227-2.78516-7.979-4.18994-2.81348-1.4873-5.79346-2.49658-8.65869-3.83447a8.51519,8.51519,0,0,0-4.09619-.59424,3.21815,3.21815,0,0,0-.87744.36377c-2.34766-.88916-4.67969-1.81787-6.97656-2.83643-6.14941-2.72705-9.38867-.47852-9.57861,5.87109a93.74537,93.74537,0,0,0,.23877,12.75732c1.30029,12.13477,10.77344,28.40869,26.95459,30.28711,8.27344.96045,14.835,4.54395,21.39795,8.97168,5.21143,3.51563,6.84033,7.25049,5.55273,13.12207-1.36475,6.22363-1.36426,12.52051,1.67432,18.7168,2.39307,4.88037,1.59131,10.19482-1.40723,14.82324a39.81446,39.81446,0,0,0-5.10791,11.7793c-2.36279,9.10205-7.082,17.394-9.51953,26.58789-4.49658,16.9585-1.99854,35.23047.9165,52.44873,1.34863,7.96582,7.96338,14.35107,12.90723,20.93115,4.46533,5.94238,3.144,10.49219,1.27246,16.75928-1.91016,6.39551-3.49365,14.30127-2.41357,20.94434.73486,4.52148.7627,9.68408,1.751,14.08789a44.15658,44.15658,0,0,0-7.92969-14.99512c-8.99707-11.03223-22.6582-16.33789-34.80273-13.5166A27.40249,27.40249,0,0,0,109.90234,737.55a22.80709,22.80709,0,0,0-1.68652,18.93066,19.46918,19.46918,0,0,0,13.999,12.51563c7.41895,1.50293,15.2793-2.5918,17.88965-9.31445a6,6,0,0,0-11.18555-4.3457c-.5127,1.32129-2.61426,2.248-4.3291,1.89746a7.64533,7.64533,0,0,1-5.126-4.93359c-1.375-3.70117.041-7.26855,1.00781-9.06641a15.44874,15.44874,0,0,1,9.68164-7.69727c8.78516-2.043,17.76953,3.25781,22.78906,9.41113,8.75781,10.73926,9.75879,27.6582,2.32813,39.35547-6.55615,10.32178-19.58252,16.41553-31.79,15.397-19.97021-36.36719-43.5542-86.9624-58.519-144.53809a22.61585,22.61585,0,0,0,8.60107,2.36572q.90234.06738,1.80469.06641c10.74316,0,21.36133-7.03027,25.7334-17.26855,4.03418-9.44531,2.791-20.856-3.07471-29.72412a53.858,53.858,0,0,1,30.36963,15.73877c7.57324,7.89941,11.752,17.56348,11.46289,26.51367-.30957,9.58984-6.33594,18.42285-14.32715,21.00293a16.51371,16.51371,0,0,1-12.95215-1.58691,12.942,12.942,0,0,1-6.5625-8.15137c-.7334-3.16992.15234-6.543,2.10352-8.01855a3.99194,3.99194,0,0,1,3.14746-.53906,2.05926,2.05926,0,0,1,1.39551.84863,6.00031,6.00031,0,1,0,10.71289-5.4082,13.89142,13.89142,0,0,0-9.39648-7.12988,15.95489,15.95489,0,0,0-13.09863,2.65723c-5.72559,4.332-8.36035,12.4873-6.55566,20.293a24.77025,24.77025,0,0,0,12.33691,15.8877,29.48936,29.48936,0,0,0,14.43555,3.81348,26.48228,26.48228,0,0,0,8.12012-1.24609c12.85059-4.14941,22.15918-17.32227,22.63477-32.03516.3916-12.1582-5.001-24.99023-14.79492-35.20605a64.99976,64.99976,0,0,0-19.99854-14.10791,50.69232,50.69232,0,0,0,16.62158-15.36865c8.85742-12.94629,10.54-28.16895,4.501-40.71973-4.8584-10.09668-14.34082-17.50488-24.74707-19.333-11.542-2.0293-23.42578,2.90234-29.58008,12.27148-6.58887,10.0293-5.25,24.23047,3.04785,32.33008,5.45508,5.32324,14.84277,8.18457,22.2373,3.34766a5.99981,5.99981,0,0,0-6.57031-10.041c-1.7334,1.13281-5.07129.2666-7.28516-1.89453-4.25684-4.1543-4.88477-11.84961-1.40039-17.1543,3.50684-5.33789,10.6875-8.2334,17.47363-7.041,6.665,1.1709,12.7998,6.04395,16.01074,12.71777,4.21777,8.76465,2.9082,19.24023-3.5918,28.74121-7.21289,10.541-18.93164,16.80371-29.80469,15.957-7.9502-.61914-16.28516-4.94238-23.46875-12.17383-7.76318-7.81494-16.11475-21.84814-20.46826-34.89844-.03613-2.12256-.05957-4.248-.05957-6.377a583.08941,583.08941,0,0,1,6.67725-90.02734c10.59082-3.41064,23.80127.33545,31.87012,9.583,4.9209,5.63965,7.41113,12.39648,6.83105,18.53809-.59668,6.31055-4.89258,11.95313-10.21484,13.416a10.941,10.941,0,0,1-8.26367-1.28027,8.417,8.417,0,0,1-4.1123-5.13477,6.083,6.083,0,0,1,.791-4.92773,3.44081,3.44081,0,0,1,3.10254-1.41211,5.99968,5.99968,0,1,0,2.43359-11.75,15.4218,15.4218,0,0,0-15.15723,5.98828,18.09812,18.09812,0,0,0-2.8418,14.88574,20.2725,20.2725,0,0,0,9.6748,12.67871,23.3765,23.3765,0,0,0,11.85547,3.2832,21.47951,21.47951,0,0,0,5.69922-.76074c10.10938-2.7793,17.915-12.58984,18.98047-23.85742.8877-9.4043-2.66113-19.44824-9.73633-27.55664a44.08591,44.08591,0,0,0-38.76807-14.41748A434.67043,434.67043,0,0,1,73.21729,384.406c9.88232-10.043,23.68848-18.564,37.30518-18.564.041,0,.083.001.124.001,10.01465.03809,18.38379,4.89648,24.876,14.43945,6.91309,10.165,7.25781,24.21094.83887,34.15723-6.50684,10.082-19.7793,15.1416-30.87988,11.76367A15.03039,15.03039,0,0,1,95.041,414.93286c-1.10254-4.86328.0918-9.90332,2.97168-12.541,3.26855-2.99121,8.042-2.30762,11.4707-1.20605a5.99972,5.99972,0,1,0,3.67188-11.42383c-12.31641-3.959-19.84961.6709-23.24707,3.78027-6.14062,5.623-8.6582,14.83691-6.56934,24.04492a26.99784,26.99784,0,0,0,18.65039,20.09668c16.03418,4.877,35.14746-2.31641,44.4541-16.73633,8.959-13.87988,8.54785-33.377-.999-47.41406-8.72559-12.82812-20.74316-19.63672-34.752-19.69043-.05664,0-.1123-.001-.16992-.001-10.74121,0-21.2959,3.8999-30.62256,9.78809a41.09737,41.09737,0,0,0,.11719-14.12988H241.687a54.03574,54.03574,0,0,1,16.36963,19.78711c5.78613,12.39746,5.24609,27.07129-1.376,37.38281-6.89062,10.73047-21.02051,16.27148-32.16895,12.61621-11.46973-3.76172-16.84375-19.99512-13.64551-30.92871,2.16992-7.42285,7.30859-10.14551,15.2793-8.09082a11.16869,11.16869,0,0,1,6.832,5.88965,9.11213,9.11213,0,0,1,.56543,7.50977,6,6,0,1,0,11.06055,4.6543,21.06025,21.06025,0,0,0-.874-17.49316,23.14936,23.14936,0,0,0-14.58984-12.18164c-14.11914-3.63574-25.82129,2.77344-29.791,16.34277-4.87207,16.6582,3.25391,39.74219,21.42383,45.7002a35.27038,35.27038,0,0,0,11.00879,1.72266,41.29345,41.29345,0,0,0,18.30664-4.438c-.19971,1.498-.33984,2.99512-.40723,4.48779-.57031,12.67676,3.78027,24.73242,11.93652,33.07715a36.6487,36.6487,0,0,0,25.91211,11.084,31.99253,31.99253,0,0,0,8.58789-1.15527c12.915-3.59766,22.47266-15.98242,22.23145-28.80859-.21-11.14941-7.9668-21.1748-18.042-23.31836a19.99575,19.99575,0,0,0-16.96387,4.5752,17.6331,17.6331,0,0,0-6.5,14.27246,6.00018,6.00018,0,0,0,11.98438-.61914,5.98521,5.98521,0,0,1,2.30469-4.52539,8.19117,8.19117,0,0,1,6.67676-1.9668c4.60547.98047,8.4375,6.27734,8.542,11.80859.13965,7.4043-5.77051,14.88184-13.4541,17.02148-7.56445,2.10938-16.68848-.60645-22.69727-6.75586-5.75781-5.88965-8.94629-14.918-8.53027-24.15039.38672-8.59863,3.67285-17.50879,9.501-25.76953a5.98617,5.98617,0,0,0,.79-5.335,53.10717,53.10717,0,0,0-3.03027-37.68457,62.08321,62.08321,0,0,0-9.69873-14.71094H332.7915l25.07373,32.86621-82.2749,11.34326,82.46875,11.37061-50.05371,66.52051,66.03174-50.376,11.34326,82.27539,11.37012-82.46875,46.90723,35.29492q2.35254,15.45776,3.84131,31.59375c-20.50635-2.57568-42.18652,5.47607-55.707,21.20117a60.08279,60.08279,0,0,0-8.46875,12.9624c-6.69678,9.38135-17.26855,17.98975-27.02539,21.62158-11.67383,4.34473-24.99316,1.84082-32.3877-6.09277a24.626,24.626,0,0,1-4.53809-25.67285,19.7886,19.7886,0,0,1,10.82422-10.9248c4.67383-1.72949,10.09961-.9248,13.50391,2.00488,3.28613,2.82813,4.54492,8.02539,2.80664,11.58691-1.65527,3.38965-6.36133,5.24023-9.50488,3.73438a6.00024,6.00024,0,0,0-5.18555,10.82227c9.03809,4.33008,20.94238-.00977,25.47363-9.293,4.11328-8.4248,1.63574-19.5791-5.76172-25.94629-6.71387-5.77734-16.72266-7.41211-25.498-4.16309a31.54193,31.54193,0,0,0-17.709,17.501,36.47345,36.47345,0,0,0,6.80957,38.53223c7.23438,7.76172,18.207,11.98145,29.55859,11.98145a45.33751,45.33751,0,0,0,15.79395-2.82422,65.3352,65.3352,0,0,0,16.564-9.45068,62.08238,62.08238,0,0,0,4.43311,28.48682c3.91309,9.3916,9.83789,16.92578,17.13379,21.78711a35.38049,35.38049,0,0,0,19.47559,6.041,30.1274,30.1274,0,0,0,9.12012-1.38184c8.292-2.63281,15.543-9.11914,19.89453-17.79785.45068-.89844.85156-1.81348,1.228-2.73486C443.292,634.05591,427.55811,685.40356,409.51855,728.88843ZM172.95166,513.05737c-2.69141,1.38965-3.50049.29834-6.65088-4.0376a84.65024,84.65024,0,0,0-6.15039-7.73,16.51592,16.51592,0,0,1,4.6582,3.5708Q168.88013,508.95923,172.95166,513.05737ZM449.832,556.04468a30.45422,30.45422,0,0,0-1.26074-3.46533c-4.45215-10.23242-14.793-17.27051-25.2832-17.27051-.167,0-.33594.002-.50293.00488-11.90137.25684-22.53906,10.09082-23.22852,21.47559a6.00021,6.00021,0,0,0,11.97852.72461c.31543-5.2168,5.80078-10.0791,11.50781-10.20215,5.84473-.09375,11.93555,4.10352,14.52441,10.05469,2.55566,5.874,2.11133,13.30957-1.18945,19.89063-2.90918,5.80176-7.57422,10.08105-12.79883,11.73926-5.63477,1.791-12.65527.5625-18.31055-3.208-6.71777-4.47559-10.62012-11.39746-12.71191-16.416a51.76638,51.76638,0,0,1,1.10938-41.145,59.146,59.146,0,0,0,3.63477-5.9165,5.98752,5.98752,0,0,0,.519-1.37549,47.377,47.377,0,0,1,3.07178-3.99072,51.76485,51.76485,0,0,1,47.59814-16.7417q1.511,21.498,1.53516,44.08838Q450.0249,550.18286,449.832,556.04468Z"/></svg>