<svg id="Слой_1" data-name="Слой 1" xmlns="http://www.w3.org/2000/svg" viewBox="0 0 500 1000"><title>Flags light bulbs</title><path d="M491.02478,319.74634V146.70288a37.08065,37.08065,0,0,0-37.08057-37.08081H323.13147V28.25049A25.75039,25.75039,0,0,0,297.381,2.5H202.619a25.75039,25.75039,0,0,0-25.75049,25.75049v81.37158H46.056A37.08071,37.08071,0,0,0,8.97522,146.70288V319.74634a37.083,37.083,0,0,0,30.61694,36.50757C20.10168,408.79395,8.97522,472.00366,8.97522,544.291c0,225.27026,185.40381,453.209,241.0249,453.209,51.501,0,241.02466-227.93872,241.02466-453.209,0-72.28735-11.12646-135.49707-30.6167-188.03711A37.083,37.083,0,0,0,491.02478,319.74634ZM375.28888,752.71246c-3.21863.89728-6.28064,2.59564-9.63434,2.58081-11.4613-.05133-3.78625-13.23584-.60132-17.35773a37.8241,37.8241,0,0,1,20.58936-13.38727,43.67694,43.67694,0,0,1,25.05243,1.481c-4.44666,10.86572-9.04407,21.25775-13.66791,31.09308C390.08246,752.89709,382.4671,750.71161,375.28888,752.71246Zm-30.54041,10.935c-9.32037-11.35284-21.34717-25.48151-23.22687-25.16022-13.82635,2.36371-17.46136,8.21167-26.3493,19.2229-5.47571-11.62036,1.085-23.20258,9.87891-32.10767-2.80713-12.96283-1.51587-21.76654,2.32593-23.17163.06323-.02332.0882-.12091.0838-.27191.13544.07892.23657.10736.28961.06659,3.19879-2.465,11.85236.87177,22.23969,9.66785,12.49713-2.79865,26.31256-2.41724,34.14514,7.90747-14.4599,1.82318-21.59674,1.89661-30.65979,12.1153C332.24353,733.3053,339.08179,750.28632,344.74847,763.64746Zm-94.74713-3.91711c-3.14355-2.14728-11.97272-29.0481-9.19055-31.39374,2.80231-2.36249,6.71448-1.66547,9.19006-2.36249,2.47607.697,6.38782,0,9.19055,2.36249C261.97351,730.68225,253.14441,757.58307,250.00134,759.73035Zm7.79181,60.53595a200.71943,200.71943,0,0,1-7.79138,31.02057,200.71418,200.71418,0,0,1-7.79138-31.02057c-2.03851-13.12494-1.376-12.28711,4.44153-24.20123a29.91922,29.91922,0,0,1,3.34943-4.87805,29.94976,29.94976,0,0,1,3.34979,4.87805C259.16864,807.979,259.83124,807.14136,257.79315,820.2663Zm5.9859-181.58539c-5.71771,2.18756-9.83838,7.6059-12.1153,13.79224v16.34937c7.0152-1.2428,13.1651,7.92908,12.14514,15.55151-.64252,4.79913-12.51453,23.35742-13.808,24.09387-1.29395-.73645-13.166-19.29449-13.80847-24.09369-1.02039-7.62262,5.12952-16.79431,12.14471-15.5517V652.47314c-2.27734-6.18616-6.39813-11.60443-12.1153-13.79224-5.15356,11.42883-6.43817,23.44757-16.38568,32.547-4.62335,4.22937-10.16321,6.64832-14.99329,10.66687,1.244-5.99713.64825-11.77606,2.18469-17.7077,3.303-12.75177,13.59277-19.82037,21.41174-29.78394-4.84875-3.62036-11.83765-4.30908-18.60327-3.09326l-14.87122,8.17474c4.63806,5.1629-.63007,14.81952-8.07343,17.78961-4.68616,1.87006-27.50287,1.36023-28.81958.6618.02271-1.435,10.96747-20.50317,15.01154-23.43256,6.423-4.65234,17.84094-4.16766,20.21814,2.23785l14.87115-8.17456c4.48877-4.97076,7.35651-11.07758,6.48767-16.88574-12.97211,1.46533-24.54651,6.41547-37.79712,2.763-6.17078-1.70068-11.14789-5.069-17.23456-7.04077,6.08618-1.97162,11.06378-5.34,17.23413-7.04077,13.25061-3.65247,24.82544,1.29755,37.79755,2.76282.86884-5.808-1.99933-11.915-6.48767-16.88556L193.301,578.065c-2.37714,6.40576-13.79462,6.89038-20.21814,2.2381-4.044-2.92938-14.98834-21.997-15.01154-23.43225,1.31671-.69861,24.13348-1.20831,28.81958.66138,7.44385,2.97015,12.71149,12.62677,8.07349,17.78967l14.87164,8.17456c6.76563,1.21564,13.75452.5271,18.60284-3.09332-7.819-9.9635-18.10876-17.0321-21.4118-29.78387-1.53638-5.93152-.94061-11.71057-2.18512-17.70776,4.83057,4.0188,10.37042,6.43756,14.99377,10.66693,9.94751,9.09937,11.23212,21.11792,16.38568,32.54675,5.71716-2.18781,9.83838-7.606,12.1153-13.79224v-16.3493c-7.0152,1.24268-13.1651-7.92914-12.1452-15.55176.64258-4.79889,12.515-23.3573,13.80847-24.09375,1.294.73645,13.166,19.29486,13.80853,24.09375,1.02,7.62262-5.12994,16.79443-12.14514,15.55176v16.3493c2.27692,6.18622,6.398,11.60443,12.1153,13.79224,5.15356-11.42883,6.43811-23.44739,16.38568-32.54675,4.62292-4.229,10.16229-6.64777,14.99194-10.66559-1.24365,5.99646-.64789,11.7749-2.1842,17.70575-3.3031,12.75183-13.59241,19.82056-21.41144,29.78418,4.84882,3.62036,11.83771,4.309,18.603,3.093l14.87164-8.17468c-4.63849-5.16284.62958-14.81958,8.07294-17.78986,4.6864-1.86975,27.50311-1.36023,28.81982-.6618-.02295,1.435-10.96722,20.50317-15.01135,23.43256-6.42346,4.65259-17.84094,4.16785-20.21814-2.23767l-14.87115,8.1748c-4.48877,4.97052-7.35645,11.07758-6.48761,16.88556,12.97211-1.46533,24.54645-6.41547,37.79712-2.76324,6.17078,1.70068,11.14813,5.069,17.23474,7.04077-6.08661,1.97162-11.064,5.34-17.23456,7.041-13.25043,3.6524-24.8252-1.29761-37.7973-2.76263-.86884,5.808,1.99927,11.915,6.4881,16.88556l14.87115,8.1745c2.37714-6.40564,13.79492-6.89056,20.21832-2.23828,4.04407,2.92938,14.98907,21.99744,15.01178,23.43237-1.31671.69849-24.13342,1.20844-28.81976-.66144-7.44366-2.97-12.71173-12.6264-8.07367-17.78955l-14.87122-8.17456c-6.76562-1.21564-13.75452-.52667-18.60291,3.09351,7.8186,9.96362,18.10876,17.03217,21.4118,29.78394,1.53638,5.9314.9411,11.71033,2.18518,17.70752-4.83057-4.01874-10.37042-6.43732-14.99377-10.66675C270.21722,662.12805,268.93262,650.10956,263.77905,638.68091Zm11.01337,290.48267a13.10139,13.10139,0,0,1,5.34491.46533c-6.3067,6.25757-11.835,11.22809-16.53931,15.12378C264.47,937.28217,266.61847,930.21387,274.79242,929.16357Zm-38.24359,16.90668a228.98792,228.98792,0,0,1-17.97919-16.01013,13.40191,13.40191,0,0,1,6.64282-.89612C233.86664,930.27576,235.7663,938.13232,236.54883,946.07025ZM166.52612,731.91736c-9.063-10.21869-16.19989-10.29211-30.65979-12.11481,7.8324-10.325,21.64752-10.70654,34.14514-7.90808,10.3869-8.79608,19.04047-12.13306,22.23926-9.66809.053.04071.15417.01233.28967-.06659-.00452.151.02051.2486.08423.272,3.84131,1.405,5.133,10.20868,2.32587,23.17157,8.794,8.90509,15.35468,20.48682,9.87982,32.10767-8.88837-11.01117-12.52338-16.85925-26.35016-19.22284-1.87946-.32117-13.90607,13.8075-23.2262,25.1604C160.92041,750.28729,167.75867,733.30658,166.52612,731.91736ZM134.34735,755.295c-3.35339.01483-6.41541-1.68353-9.63428-2.58063-7.45312-2.07751-15.37671.35809-22.53143,4.90576-4.59717-9.90332-9.16522-20.37354-13.57922-31.32556a43.78074,43.78074,0,0,1,25.75677-1.74438A37.82273,37.82273,0,0,1,134.949,737.937C138.13391,742.0589,145.809,755.24341,134.34735,755.295Zm49.07294-393.3269c6.44,4.19788,15.3172,3.893,22.77045,5.2757,5.49841,1.02032,11.30072,3.3252,13.99377,8.27637,1.9931,3.6629,1.31891,9.39758-2.3103,11.95453-3.76733,2.65436-9.84058,2.01477-13.31348-.73242A10.67478,10.67478,0,0,1,201.771,373.5769a11.59887,11.59887,0,0,0-9.20117,8.87463,14.05661,14.05661,0,0,0,3.78876,12.26434,21.83326,21.83326,0,0,0,12.03772,6.17688,24.56188,24.56188,0,0,0,8.11487.175c1.36218-.20795,2.59772-.66992,3.9184-.99744,1.48737-.36877,1.429-.52606,1.82874,1.02032a34.56351,34.56351,0,0,1,.40991,13.08118A39.15408,39.15408,0,0,1,211.264,436.98834a38.51335,38.51335,0,0,1-22.47144,10.28326c-5.34155.56506-21.17212.30139-15.48785-9.17468,1.6629-2.77277,4.7392-4.44806,7.16443-6.65344,13.43958-12.22028,4.77441-39.57959-4.79749-51.64355-1.527-1.92407-4.17065-3.87976-6.32678-2.6142-2.145,1.25934-1.52832,4.289-1.12994,6.6582a14.18914,14.18914,0,0,1-2.16467,10.51727c-8.22845,11.634-23.343,3.69849-29.84485-4.94574-3.62341-4.81714-6.42609-10.74976-6.8205-16.76544a22.44176,22.44176,0,0,0,19.60327,3.1366c6.51611-2.15216,11.6759-7.892,12.50336-14.41138a15.84436,15.84436,0,0,0-3.575-11.87524h16.43054A21.36151,21.36151,0,0,0,183.42029,361.96808ZM325.653,349.5h16.43042a15.84537,15.84537,0,0,0-3.575,11.87524c.82739,6.51935,5.98743,12.25922,12.50354,14.41138a22.44144,22.44144,0,0,0,19.603-3.1366c-.39435,6.01569-3.19684,11.9483-6.82025,16.76544-6.50208,8.64423-21.61658,16.57971-29.84485,4.94574a14.189,14.189,0,0,1-2.16486-10.51727c.39838-2.3692,1.015-5.39886-1.13025-6.6582-2.15588-1.26556-4.79968.69012-6.32648,2.6142-9.57172,12.064-18.23712,39.42328-4.79761,51.64355,2.42554,2.20538,5.50134,3.88068,7.16455,6.65344,5.684,9.47607-10.1463,9.73975-15.48792,9.17468A38.51284,38.51284,0,0,1,288.736,436.98834a39.15065,39.15065,0,0,1-11.40375-22.81647,34.55351,34.55351,0,0,1,.40948-13.08118c.40009-1.54639.34131-1.3891,1.82867-1.02032,1.32068.32751,2.55627.78949,3.9184.99744a24.56181,24.56181,0,0,0,8.11487-.175,21.83364,21.83364,0,0,0,12.03778-6.17688,14.05679,14.05679,0,0,0,3.78876-12.26434,11.599,11.599,0,0,0-9.20123-8.87463,10.67416,10.67416,0,0,1-2.78973,13.16534c-3.47284,2.74719-9.54608,3.38678-13.31342.73242-3.62927-2.55695-4.30341-8.29163-2.31036-11.95453,2.69312-4.95117,8.49536-7.256,13.99384-8.27637,7.45319-1.38269,16.33044-1.07782,22.77014-5.2757A21.36092,21.36092,0,0,0,325.653,349.5Zm83.65247,295.81c-13.30768-1.29565-20.56256-12.496-24.26581-24.19952-13.19446-4.16663-20.55676-9.6333-19.91376-13.50336.01044-.06409-.066-.13318-.20544-.20538.13947-.07208.21588-.14117.20544-.20526-.643-3.87006,6.71906-9.33679,19.91357-13.50378,3.70294-11.70355,10.95746-22.90417,24.26508-24.20007-5.57153,12.83423-9.07312,18.75568-4.30963,31.33783.6474,1.71051,19.51233,4.56238,34.49915,6.5705-14.98682,2.00873-33.8515,4.86084-34.49915,6.57135C400.23187,626.55463,403.73346,632.47607,409.30548,645.31ZM295.171,457.09558c8.88794,11.01117,12.52344,16.85907,26.34973,19.22284,1.87921.32111,13.90112-13.80133,23.2204-25.153-5.66571,13.36011-12.50018,30.334-11.26837,31.72278,9.06323,10.21844,16.20032,10.29193,30.66,12.11456-7.8324,10.32489-21.64752,10.70654-34.14465,7.90826-10.38733,8.7962-19.041,12.1333-22.23975,9.66827-.05261-.04059-.15332-.0127-.28784.06567.004-.15009-.02094-.247-.08417-.27014-3.8418-1.405-5.13306-10.20874-2.32593-23.17163C296.25641,480.2981,289.69568,468.71613,295.171,457.09558Zm60.23425,82.26166c.74225-3.46674,29.626-9.63739,33.15057-8.11945-.38123,3.66522-20.43536,24.39612-23.96008,23.27484-3.55041-1.12927-4.87244-4.70343-6.74426-6.39636C357.24738,545.72638,354.65747,542.8493,355.40521,539.35724Zm2.44751,127.33026c1.87189-1.69263,3.19391-5.267,6.74426-6.39655,3.5246-1.12128,23.57916,19.60913,23.96057,23.27448-3.52454,1.51813-32.40826-4.652-33.15088-8.11877C354.65881,671.95459,357.249,669.07764,357.85272,666.6875ZM417.16858,515.509a29.57939,29.57939,0,0,1,2.76215-5.201c7.92841-10.75354,6.835-10.88123,19.79236-15.76318,2.44147-.91986,5.2005-1.8642,8.10687-2.791q.61414,7.22662,1.06561,14.57544c-.465.36133-.93182.72522-1.38086,1.06421-10.91913,8.24329-10.48846,7.27783-24.23413,8.43866A33.15956,33.15956,0,0,1,417.16858,515.509Zm16.81348-44.56128c-4.29828-1.77917-6.75275-7.10632-5.99036-11.34363.85815-4.7702,5.50177-8.669,10.57977-8.88312-2.95654-3.40527-8.27124-4.5495-12.67267-3.149a14.85648,14.85648,0,0,0-9.26135,9.25616,19.53877,19.53877,0,0,0,.40082,13.0141,21.98422,21.98422,0,0,0,3.89813,6.77856c.87024,1.0191,1.9082,1.80658,2.86639,2.73181,1.07922,1.04193,1.19305.91522-.01355,2.01831a38.44809,38.44809,0,0,1-11.69379,6.87836,43.88925,43.88925,0,0,1-26.45557,2.0058,37.82512,37.82512,0,0,1-20.58972-13.3869c-3.185-4.12177-10.86029-17.30621.601-17.35779,3.3537-.015,6.41571,1.68347,9.6344,2.58051,17.83533,4.97119,38.38831-15.85358,44.57562-29.778.987-2.22083,1.44366-5.37878-.78552-6.5235-2.2179-1.139-4.66547.88422-6.62134,2.39728a16.01259,16.01259,0,0,1-10.64886,3.47382c-14.69653-.96747-15.03558-17.39752-10.42389-27.08093a33.6323,33.6323,0,0,1,11.83954-14.00635,19.996,19.996,0,0,0,6.94855,17.73157A19.70239,19.70239,0,0,0,429.53,411.40839a16.471,16.471,0,0,0,4.41473-2.6886A476.01661,476.01661,0,0,1,445.272,467.80811C442.64734,470.741,437.73755,472.50232,433.98206,470.94775Zm-5.64856-72.83618a13.23746,13.23746,0,0,1-8.60974-6.97388c-2.47632-5.2486-1.3833-11.52045,1.40759-16.624a25.71021,25.71021,0,0,1,1.43689-2.31238q4.65564,12.73535,8.53125,26.16327A9.14165,9.14165,0,0,1,428.3335,398.11157Zm-52.06635-48.25909c-3.2467,4.85315-8.40491,8.89032-14.41736,9.47284a13.799,13.799,0,0,1-10.64819-3.61218A10.102,10.102,0,0,1,348.39441,349.5h28.09473C376.41376,349.61664,376.34436,349.73712,376.26715,349.85248ZM249.99994,455.07581c3.14313,2.14722,11.97272,29.0481,9.19055,31.39368-2.80273,2.36249-6.71442,1.66541-9.19055,2.36249-2.47559-.69708-6.38776,0-9.19049-2.36249C238.02728,484.1239,246.85687,457.223,249.99994,455.07581Zm-7.79132-60.53595a200.71648,200.71648,0,0,1,7.79132-31.02063,200.71686,200.71686,0,0,1,7.79144,31.02063c2.03851,13.12494,1.37543,12.28711-4.44153,24.20117a29.95661,29.95661,0,0,1-3.34991,4.87805,29.96182,29.96182,0,0,1-3.34979-4.87805C240.83307,406.827,240.17011,407.66479,242.20862,394.53986Zm-49.5849,117.835c-.06372.02325-.08826.12091-.08423.272-.135-.07916-.23657-.10748-.28918-.06659-3.19879,2.465-11.85236-.872-22.23969-9.66809-12.49719,2.79858-26.31281,2.41705-34.14514-7.90778,14.4599-1.82288,21.59674-1.89642,30.65979-12.115,1.23206-1.38916-5.60584-18.37018-11.27264-31.73132,9.32013,11.35284,21.34723,25.48163,23.22668,25.1604,13.82623-2.36377,17.46173-8.21167,26.34967-19.22284,5.47528,11.62054-1.08539,23.20251-9.87933,32.1076C197.75677,502.16608,196.46552,510.96979,192.62372,512.37482ZM95.005,613.97443c-.64746-1.71033-19.51233-4.56244-34.4989-6.57068,14.98657-2.00861,33.85144-4.86066,34.4989-6.57117,4.76324-12.58215,1.26141-18.5036-4.31006-31.33771,13.30768,1.29565,20.56213,12.49615,24.26526,24.19977,13.19452,4.16675,20.55682,9.63348,19.91388,13.50354-.01074.06409.06592.13318.20538.20526-.13947.0722-.21613.1413-.20538.20538.64294,3.87006-6.71936,9.33673-19.91388,13.50354-3.7027,11.70349-10.95758,22.90411-24.26526,24.2C96.26691,632.47821,99.76825,626.55676,95.005,613.97443Zm16.43787-82.73468c3.52448-1.51819,32.40826,4.65228,33.15106,8.119.74762,3.49188-1.84247,6.369-2.44623,8.759-1.87189,1.69287-3.19391,5.26709-6.74426,6.39648C131.87885,555.63544,111.82428,534.90491,111.44287,531.23975Zm23.961,129.05292c3.55035,1.12927,4.87238,4.70343,6.74426,6.39636.60376,2.38989,3.19391,5.267,2.44623,8.75909-.74237,3.46686-29.626,9.63733-33.15063,8.1192C111.82477,679.902,131.87933,659.17139,135.40387,660.29266ZM148.7984,355.71313a13.799,13.799,0,0,1-10.648,3.61218c-6.01263-.58252-11.17114-4.61969-14.4176-9.47284-.07715-.11536-.14661-.23584-.222-.35248h28.09479A10.10167,10.10167,0,0,1,148.7984,355.71313ZM77.43011,372.20667a25.70388,25.70388,0,0,1,1.43475,2.30933c2.791,5.10352,3.88452,11.37543,1.408,16.62415a13.23742,13.23742,0,0,1-8.60944,6.97388,9.14152,9.14152,0,0,1-2.76355.25323Q72.7706,384.94086,77.43011,372.20667ZM66.0542,408.724a16.46945,16.46945,0,0,0,4.41284,2.687,19.70246,19.70246,0,0,0,19.36035-3.10413,19.9968,19.9968,0,0,0,6.94836-17.73157,33.63559,33.63559,0,0,1,11.83948,14.00616c4.61169,9.68341,4.27307,26.11346-10.42346,27.08118A16.01361,16.01361,0,0,1,87.54291,428.189c-1.95605-1.51306-4.40363-3.53625-6.62128-2.39716-2.22925,1.14471-1.77252,4.30255-.78558,6.52344,6.18732,13.92438,26.741,34.74872,44.57617,29.77747,3.21887-.89716,6.2804-2.59576,9.63428-2.58069,11.46118.05139,3.78613,13.23578.6015,17.35767a37.82492,37.82492,0,0,1-20.58972,13.38721,43.88864,43.88864,0,0,1-26.45575-2.00543,38.45056,38.45056,0,0,1-11.69379-6.87811c-1.2066-1.10321-1.09253-.97638-.01385-2.01825.95844-.92529,1.99628-1.71289,2.86646-2.73193a21.97372,21.97372,0,0,0,3.89832-6.77856,19.54009,19.54009,0,0,0,.40063-13.01416,14.85818,14.85818,0,0,0-9.26135-9.25616c-4.40149-1.40015-9.71631-.256-12.67316,3.14929,5.07825.21423,9.722,4.113,10.58026,8.883.76239,4.23724-1.69183,9.56451-5.99036,11.34381-3.75464,1.55426-8.66309-.20593-11.28839-3.13782A475.99811,475.99811,0,0,1,66.0542,408.724Zm-5.77893,85.82349c12.95746,4.88171,11.864,5.00946,19.7926,15.76306A29.60516,29.60516,0,0,1,82.83,515.51135a33.154,33.154,0,0,1-6.11194.32312c-13.74567-1.16052-13.31525-.19519-24.23419-8.43823-.44873-.33875-.91528-.70245-1.37988-1.06348q.44046-7.35727,1.06561-14.57574C55.07556,492.68365,57.83417,493.62775,60.27527,494.54749ZM49.975,544.291c0-5.5957.09552-11.1236.23474-16.62a41.04783,41.04783,0,0,1,10.361,5.65314,39.94073,39.94073,0,0,1,15.05212,20.811,34.32247,34.32247,0,0,1-1.88214,23.67041c-2.15662,4.68689-10.31158,17.60779-16.08893,8.183-1.69055-2.75781-1.67676-6.13171-2.47028-9.23413a19.45561,19.45561,0,0,0-4.42291-8.08813C50.25092,560.59381,49.975,552.4649,49.975,544.291Zm23.76569,92.71075a34.32235,34.32235,0,0,1,1.88257,23.67035,36.74564,36.74564,0,0,1-5.87476,11.70782c-4.28156-14.48364-8.06879-29.48016-11.15479-44.86713C64.28076,620.758,71.69873,632.56415,73.74066,637.00177Zm350.637,23.668a34.32244,34.32244,0,0,1,1.8819-23.67053c2.02075-4.3913,9.3067-16.00977,14.96967-9.7063-3.13232,15.29608-6.97186,30.21881-11.30829,44.642A36.62026,36.62026,0,0,1,424.37762,660.6698Zm20.44019-83.918c-.79333,3.10236-.77905,6.47632-2.46954,9.23419-5.7774,9.42462-13.93262-3.496-16.08942-8.183a34.32192,34.32192,0,0,1-1.88257-23.67035,39.94238,39.94238,0,0,1,15.05188-20.81116A41.0468,41.0468,0,0,1,449.79,527.668c.13928,5.49738.2348,11.02631.2348,16.623,0,8.17688-.28442,16.31433-.80792,24.3996A19.44227,19.44227,0,0,0,444.81781,576.75183ZM309.368,349.5c-1.95935,5.34357-9.09027,6.34631-14.35529,5.216a26.39764,26.39764,0,0,1-11.25531-5.216Zm-59.53467-309a23,23,0,1,1-23,23A22.99989,22.99989,0,0,1,249.83337,40.5Zm-33.5907,309a26.39731,26.39731,0,0,1-11.25507,5.216c-5.26532,1.13031-12.3963.12756-14.35571-5.216ZM160.8161,860.00848a15.06587,15.06587,0,0,0,.67725-6.5769c-.82745-6.51947-5.98718-12.25928-12.50336-14.41144a19.86134,19.86134,0,0,0-2.59436-.66187q-4.56473-7.15137-8.97528-14.45367c7.01514-8.0083,20.87823-14.4209,28.63129-3.45929a14.18991,14.18991,0,0,1,2.1651,10.51733c-.39838,2.3692-1.01508,5.399,1.12994,6.6582,2.15613,1.26569,4.7998-.69006,6.32678-2.6142,9.57147-12.0639,18.23663-39.42334,4.79706-51.64355-2.42523-2.2052-5.50153-3.88068-7.16443-6.6535-5.68427-9.47589,10.14624-9.73969,15.48792-9.17462a38.51409,38.51409,0,0,1,22.4718,10.283,39.15533,39.15533,0,0,1,11.40369,22.81659,34.55258,34.55258,0,0,1-.40942,13.081c-.40015,1.54651-.3418,1.3891-1.82916,1.02045-1.32068-.32745-2.55579-.78943-3.918-.99731a24.55478,24.55478,0,0,0-8.11487.175,21.83382,21.83382,0,0,0-12.03772,6.177,14.0542,14.0542,0,0,0-3.78876,12.2644,11.599,11.599,0,0,0,9.20123,8.87451,10.67422,10.67422,0,0,1,2.78967-13.16541c3.4729-2.74713,9.54565-3.3869,13.31348-.73267,3.62921,2.55731,4.30341,8.29187,2.3103,11.95465-2.69305,4.951-8.49493,7.2561-13.99377,8.27637-7.45325,1.383-16.33,1.07819-22.77,5.276-5.97919,3.89764-10.00232,10.73859-9.5683,17.71515.62286,10.011,10.32581,18.72882,20.85883,18.74084,6.00372.007,12.50873-3.21716,13.91986-8.77313-.278,1.09521-9.84991-1.49182-11.14032-1.99854-4.17688-1.64008-7.36273-5.70215-7.39215-10.05835-.05524-8.11328,8.71332-9.69965,14.889-8.37415,20.57465,4.41687,25.009,26.18787,12.40491,40.52765a28.02005,28.02005,0,0,1-17.866,9.2522A561.59115,561.59115,0,0,1,160.8161,860.00848ZM298.833,909.64771a28.13807,28.13807,0,0,1-16.2229-9.03015C270.006,886.278,274.44,864.507,295.01453,860.0899c6.17572-1.32568,14.94434.2605,14.889,8.37372-.02942,4.35626-3.21533,8.41827-7.39166,10.05835-1.29089.50677-10.86237,3.09393-11.14087,1.99878,1.41119,5.556,7.91663,8.78015,13.92035,8.77295,10.533-.01215,20.236-8.7301,20.8584-18.74115.43378-6.9765-3.58905-13.8175-9.5683-17.7149-6.44-4.19781-15.31726-3.89276-22.77045-5.27576-5.49847-1.02032-11.30072-3.32513-13.99384-8.27618-1.993-3.66284-1.31891-9.3974,2.3103-11.95465,3.7674-2.65442,9.84064-2.01465,13.31348.73261a10.67524,10.67524,0,0,1,2.79022,13.16522,11.599,11.599,0,0,0,9.20074-8.87469,14.05663,14.05663,0,0,0-3.78876-12.26434A21.83591,21.83591,0,0,0,291.605,813.913a24.56339,24.56339,0,0,0-8.11493-.175c-1.36212.20807-2.59729.67011-3.918.99762-1.48737.36859-1.429.52606-1.8291-1.02051a34.55271,34.55271,0,0,1-.40948-13.08105,39.156,39.156,0,0,1,11.40326-22.81653,38.5146,38.5146,0,0,1,22.4718-10.28339c5.34167-.56512,21.17175-.30164,15.48791,9.17444-1.66315,2.77277-4.739,4.4483-7.16443,6.65363-13.43958,12.22034-4.774,39.57953,4.798,51.64349,1.52679,1.92407,4.17059,3.87976,6.32654,2.61407,2.14526-1.25934,1.5285-4.289,1.13019-6.65814a14.18951,14.18951,0,0,1,2.16467-10.51739c7.43591-10.51361,20.49414-5.0448,27.73926,2.48553q-4.87216,8.015-9.951,15.87195c-.24268.06976-.4859.1377-.72589.217-6.51617,2.15234-11.67621,7.89221-12.50342,14.41156a14.78468,14.78468,0,0,0,.2038,4.81543A586.89329,586.89329,0,0,1,298.833,909.64771Z"/></svg>