<svg id="Слой_1" data-name="Слой 1" xmlns="http://www.w3.org/2000/svg" viewBox="0 0 500 1000"><title>Flags light bulbs</title><path d="M491.02478,319.74634V146.70288a37.08065,37.08065,0,0,0-37.08057-37.08081H323.13147V28.25049A25.75039,25.75039,0,0,0,297.381,2.5H202.619a25.75039,25.75039,0,0,0-25.75049,25.75049v81.37158H46.056A37.08071,37.08071,0,0,0,8.97522,146.70288V319.74634a37.083,37.083,0,0,0,30.61694,36.50757C20.10168,408.79395,8.97522,472.00366,8.97522,544.291c0,225.27026,185.40381,453.209,241.0249,453.209,51.501,0,241.02466-227.93872,241.02466-453.209,0-72.28735-11.12646-135.49707-30.6167-188.03711A37.083,37.083,0,0,0,491.02478,319.74634ZM394.03357,507.1582c12.729,2.2998,19.58887-3.2832,22.5459-6.81348,5.34521-6.38477,6.62549-15.84961,3.34082-24.70117a26.997,26.997,0,0,0-21.13818-17.46094c-13.90723-2.28906-28.84723,4.17627-37.60333,15.52319a93.5047,93.5047,0,0,0-4.033-39.75684,7.16061,7.16061,0,0,0-.87451-1.77637,32.807,32.807,0,0,0,2.8252-2.53516,35.44681,35.44681,0,0,0,8.74951-14.63208,27.50179,27.50179,0,0,0,1.46777-8.53711c-.23322-6.48633-.942-12.96484-3.439-18.988a51.16053,51.16053,0,0,0-2.58063-5.34888c2.97388,5.32666,25.56024-8.10815,28.51666-10.52515a34.00235,34.00235,0,0,0,11.30029-20.57812,7.15606,7.15606,0,0,0,1.98438-.13037,92.608,92.608,0,0,0,15.58295-4.75757,40.99626,40.99626,0,0,0,1.28918,24.37354c12.46271,33.5957,20.79034,70.91943,24.94922,111.44946a97.3876,97.3876,0,0,1-6.125,14.991c-7.45508,14.58008-23.502,31.30859-41.1167,33.583-9.93457,1.28418-18.86914-2.42969-26.563-11.0332-8.19336-9.16406-10.3877-23.042-5.33594-33.748,5.12109-10.85254,17.61377-17.623,29.05762-15.73242a15.02706,15.02706,0,0,1,11.83594,9.79492c1.73486,4.6748,1.21582,9.82813-1.291,12.82227-2.84619,3.39844-7.668,3.34863-11.2124,2.709a5.99983,5.99983,0,1,0-2.13281,11.80859Zm-76.92633-75.03052a28.9226,28.9226,0,0,0,26.43164,6.32446,80.43147,80.43147,0,0,1,1.87061,42.688A80.4519,80.4519,0,0,1,309.37531,458.177a30.26241,30.26241,0,0,0,6.88391-11.303,28.575,28.575,0,0,0,1.38245-8.96387A32.28946,32.28946,0,0,0,317.10724,432.12769Zm15.25757-3.394c-6.65088-1.36255-14.144-7.74365-14.699-15.07031-.18164-2.50244,1.24048-5.90112,3.55835-8.45581,1.98877-2.19263,4.39575-3.52808,6.439-3.57227a7.36681,7.36681,0,0,1,7.01636,6.81738,5.11872,5.11872,0,0,0,10.2373-.03491v-.03638a17.57162,17.57162,0,0,0-17.47571-16.981c-4.94324.10791-9.84363,2.5686-13.79944,6.9292q-.79266.87378-1.49365,1.8042c.10962-1.676.16943-3.36084.16943-5.05322,0-14.68726-4.00757-29.82593-9.824-42.80933l8.87732,5.23779,8.515,24.92334a4.43619,4.43619,0,1,0,8.396-2.86816l-5.168-15.12646L345.637,377.72705a5.09848,5.09848,0,0,0,1.53467,1.13721c.22095.1062.44678.2041.6709.30518a30.45292,30.45292,0,0,1,8.57593,12.231c4.89819,11.81616,3.2207,23.12988-4.6001,31.03882C346.68195,427.63232,339.046,430.103,332.36481,428.73364Zm-76.62817.8916-.24756-26.144L266.0047,415.52a4.4361,4.4361,0,1,0,6.682-5.83667l-17.32678-19.83643-.09753-10.30981c9.297,12.85962,22.04358,25.10181,36.62805,32.29492q-1.15558.14246-2.3125.3916c-5.75513,1.24512-10.33655,4.25854-12.90137,8.4856a17.5703,17.5703,0,0,0,5.9679,23.62524,5.11872,5.11872,0,0,0,5.18066-8.82983,7.36788,7.36788,0,0,1-2.39709-9.48511c1.06042-1.74731,3.421-3.16479,6.31494-3.79077,3.37109-.72925,7.02808-.26855,9.10059,1.147,6.06812,4.144,7.8479,13.82178,5.70313,20.2644-2.15479,6.47095-8.11255,11.84863-15.17944,13.70044-10.75891,2.81982-21.39429-1.38477-29.17932-11.53589a30.44255,30.44255,0,0,1-6.30432-13.542c.02441-.24438.05261-.489.071-.73315.01-.13135.01465-.26123.01465-.39062A5.08169,5.08169,0,0,0,255.73663,429.62524Zm-26.5564-13.68262a4.43617,4.43617,0,0,0,6.25928-.42261L245.95514,403.481l-.24731,26.14966a5.09927,5.09927,0,0,0-.21741,1.89844c.01843.24487.04675.48975.07117.73462a30.44344,30.44344,0,0,1-6.30493,13.54126c-7.78455,10.15039-18.41992,14.35547-29.17957,11.53613-7.06543-1.85181-13.02356-7.22974-15.17883-13.70068-2.14514-6.438-.3656-16.11987,5.70313-20.26416,2.07227-1.41553,5.72949-1.87646,9.10083-1.147,2.89307.626,5.25366,2.043,6.31348,3.79077a7.36679,7.36679,0,0,1-2.39575,9.48535,5.11841,5.11841,0,1,0,5.18066,8.8291,17.5699,17.5699,0,0,0,5.96741-23.62427c-2.56482-4.22729-7.14612-7.241-12.90088-8.48657q-1.15485-.24976-2.31238-.3916c14.58411-7.19312,27.3302-19.4353,36.62683-32.29443l-.09753,10.30981-17.32642,19.83594A4.43545,4.43545,0,0,0,229.18024,415.94263Zm-43.99438,30.93262A30.26,30.26,0,0,0,192.0694,458.177a80.44457,80.44457,0,0,1-36.03394,22.96387,80.44436,80.44436,0,0,1,1.87036-42.688,28.92046,28.92046,0,0,0,26.42664-6.32056A30.32517,30.32517,0,0,0,185.18585,446.87524Zm4.11377-46.73242c-.46863-.62158-.96631-1.228-1.49707-1.813-3.95581-4.36035-8.8562-6.82129-13.79858-6.92871a17.57118,17.57118,0,0,0-17.47583,16.981l-.00024.03638a5.11847,5.11847,0,0,0,10.23682.03491,7.36777,7.36777,0,0,1,7.01685-6.81738c2.04309.04443,4.4502,1.37939,6.439,3.572,2.31787,2.55444,3.74512,5.95874,3.558,8.45557-.55505,7.32666-8.04822,13.70776-14.69836,15.071-6.68152,1.36914-14.31787-1.10156-19.454-6.29468-7.82141-7.90894-9.49817-19.22144-4.59973-31.03882a30.438,30.438,0,0,1,8.57581-12.231c.22375-.10107.44946-.199.67017-.30518a5.07634,5.07634,0,0,0,1.51135-1.12329l22.54651-13.303-5.16785,15.12573a4.43623,4.43623,0,0,0,8.396,2.86841L190.0733,357.51l8.87988-5.2395C192.46466,366.75244,188.236,383.91382,189.29962,400.14282Zm-49.06439,74.19873c-8.68121-11.73633-23.907-18.48608-38.07666-16.15991a26.99993,26.99993,0,0,0-21.13818,17.46191c-3.28467,8.85156-2.00439,18.31641,3.34082,24.70117,2.957,3.53125,9.81836,9.11621,22.54541,6.81348a5.99983,5.99983,0,0,0-2.13281-11.80859c-3.543.63965-8.3667.69043-11.21191-2.709-2.50732-2.99414-3.02588-8.14746-1.291-12.82227a15.02868,15.02868,0,0,1,11.83594-9.79492c11.44824-1.88574,23.93652,4.88086,29.05713,15.73242,5.05225,10.70605,2.85791,24.584-5.33594,33.748-7.69336,8.60547-16.63379,12.31738-26.5625,11.0332-17.61523-2.27441-33.66211-19.00293-41.11719-33.583a97.91631,97.91631,0,0,1-6.81946-17.28833c4.236-39.64136,12.477-76.19263,24.70374-109.1521a40.988,40.988,0,0,0,1.09515-25.06616c.59.252,1.17987.512,1.76971.74878a92.52541,92.52541,0,0,0,15.45148,4.70215,7.15694,7.15694,0,0,0,1.97534.13086,32.75065,32.75065,0,0,0,.78326,3.71411c4.09619,14.95874,18.16235,24.98364,33.11957,26.94849a51.12657,51.12657,0,0,0,5.92358.4397,51.0895,51.0895,0,0,0-2.58081,5.34961c-3.04816,7.3562-5.075,13.7915-3.572,21.81763a39.49163,39.49163,0,0,0,10.34985,20.3396,32.78193,32.78193,0,0,0,2.82538,2.53516,7.15636,7.15636,0,0,0-.87433,1.77612A90.863,90.863,0,0,0,140.23523,474.34155Zm14.149-187.94873a4.43551,4.43551,0,0,0,5.20935,3.49536l25.83984-5.08716,8.97705,5.07031c-15.78442,1.62183-32.75891,6.53979-46.27979,15.57349q.45447-1.07263.81738-2.19971c1.79858-5.6062,1.47925-11.08179-.89844-15.41553a17.57118,17.57118,0,0,0-23.44312-6.64478,5.11877,5.11877,0,0,0,5.05566,8.9021,7.367,7.367,0,0,1,9.41235,2.66724c.98315,1.7915,1.03015,4.54419.12622,7.36353-1.0542,3.28418-3.28162,6.22144-5.54358,7.30835-6.62292,3.18262-15.89563-.11572-20.40063-5.19312-4.52637-5.10229-6.20544-12.95093-4.276-19.99536,2.93811-10.728,11.89722-17.83594,24.58032-19.50269a30.44672,30.44672,0,0,1,14.87317,1.30786c.20154.14478.40125.293.60571.43262a5.09747,5.09747,0,0,0,1.752.76025l22.7699,12.86035-15.68188,3.0874A4.43411,4.43411,0,0,0,154.38422,286.39282Zm91.32214-81.751.24744,26.15405-10.51587-12.03857a4.43578,4.43578,0,1,0-6.682,5.83569l17.3269,19.83594.09753,10.31055c-9.297-12.85937-22.04382-25.10132-36.62842-32.29419q1.15631-.14282,2.31409-.39209c5.75464-1.24512,10.33606-4.25854,12.90039-8.48608a17.5694,17.5694,0,0,0-5.96777-23.62427,5.11841,5.11841,0,1,0-5.18066,8.8291,7.36805,7.36805,0,0,1,2.39624,9.4856c-1.06006,1.74756-3.42017,3.16479-6.31372,3.79053-3.37109.72974-7.02844.26855-9.10059-1.14648-6.06836-4.14453-7.84766-13.82422-5.70361-20.26489,2.15491-6.4707,8.113-11.84863,15.17883-13.7,10.75964-2.81934,21.395,1.38477,29.17957,11.53589a30.4434,30.4434,0,0,1,6.30505,13.53931c-.02454.24512-.05286.49023-.07129.73511A5.08857,5.08857,0,0,0,245.70636,204.64185Zm-.83765,71.59668c-.00757.10522-.0061.21118-.00745.31689l-8.78528,15.2168h-17.5708c-.092-.05151-.18262-.10571-.2771-.15161-10.338-15.27954-18.79529-38.59375-16.46411-59.27759C220.84283,240.66577,236.80548,259.647,244.86871,276.23853Zm-32.49146,25.51953c.08618.05811.17749.10889.26709.16235l8.78638,15.21851-8.78564,15.21729c-.08984.05347-.1814.10425-.26782.1626-18.40125,1.314-42.82227-3.019-59.56934-15.38037C169.555,304.7771,193.976,300.44409,212.37726,301.75806Zm23.69922,40.74658,8.78613,15.218c.00146.105-.00012.21.00732.31421-8.06323,16.59229-24.026,35.57471-43.105,43.89746-2.33191-20.68311,6.12659-43.99951,16.46423-59.27832.09424-.0459.18469-.09985.27637-.15137ZM157.8797,353.094l15.68359,3.0874-22.77063,12.86133a5.09528,5.09528,0,0,0-1.75256.7605c-.20264.13818-.40039.28516-.6001.42871a30.43905,30.43905,0,0,1-14.87915,1.3103c-12.68311-1.666-21.64221-8.77466-24.58032-19.50293-1.93018-7.04517-.2511-14.89307,4.27563-19.99536,4.50537-5.07739,13.77808-8.37573,20.401-5.19312,2.262,1.08691,4.48938,4.02417,5.54358,7.30859.90308,2.82007.85657,5.57178-.12622,7.36328a7.36707,7.36707,0,0,1-9.412,2.66724,5.11845,5.11845,0,0,0-5.05652,8.90088,17.57018,17.57018,0,0,0,23.4436-6.64355c2.37842-4.33521,2.69751-9.80933.89844-15.41553q-.36108-1.12573-.81738-2.19946c13.52148,9.03394,30.4967,13.95166,46.28174,15.57324l-8.97742,5.07056-25.84143-5.0874a4.43621,4.43621,0,0,0-1.71387,8.70532Zm-39.94482-35.95557A28.92171,28.92171,0,0,0,99.252,336.86279a80.44309,80.44309,0,0,1-37.903-19.72437,80.44333,80.44333,0,0,1,37.9032-19.72437,28.92272,28.92272,0,0,0,18.68262,19.72437Zm126.022,17.17676c-.02563-.04443-.05615-.08447-.083-.12842-.05615-.09082-.11255-.18115-.17383-.26855-.05054-.07275-.10425-.1416-.15771-.21094-.05225-.06763-.10449-.13477-.15979-.19971-.06653-.07812-.13562-.15283-.20593-.22656-.04907-.05151-.09814-.10278-.14941-.15234-.07788-.07568-.1582-.14795-.24-.21826-.05127-.04419-.10278-.08789-.15576-.13037-.08276-.06592-.16724-.12842-.25317-.18921-.0603-.04272-.12134-.08472-.18347-.125-.08069-.05225-.16248-.10156-.24561-.14917-.07385-.04248-.14844-.08374-.22449-.123-.0752-.03857-.15137-.07471-.22815-.10986-.08655-.03955-.17371-.07739-.2627-.11279-.07239-.02832-.14539-.05444-.21887-.08008-.09351-.03223-.18738-.063-.2832-.09033-.07666-.022-.15381-.041-.23145-.05957-.09143-.02173-.18286-.043-.27612-.06006-.09155-.01709-.18335-.02979-.27576-.042-.08-.0105-.15967-.02173-.24072-.02881-.11267-.01-.22571-.01392-.339-.01709-.047-.001-.09277-.00708-.13989-.00708H225.6983l6.76514-11.71753.00623-.0127a5.41111,5.41111,0,0,0,.24353-.49536c.02417-.05371.05505-.10571.07715-.15967.03418-.084.05664-.17187.08667-.25757a5.42436,5.42436,0,0,0,.31873-1.79932l-.00037-.00488.00037-.00513a5.42322,5.42322,0,0,0-.31824-1.79761c-.03-.08618-.05273-.17456-.08716-.259-.02209-.0542-.053-.1062-.07715-.15991a5.47381,5.47381,0,0,0-.24353-.49536l-.00623-.0127-6.76562-11.71826h13.531c.04736,0,.093-.00586.14014-.00708.113-.00293.22583-.00708.33813-.01709.08166-.00708.16211-.01831.24268-.02881.09143-.01245.18262-.0249.27307-.04175.09436-.01733.18713-.03857.27966-.06079.07617-.01831.1521-.03687.22729-.05859.09729-.02759.19263-.05884.2876-.0918.0719-.0249.14343-.05054.21436-.07861.09058-.03564.1792-.07422.26733-.1145.075-.03418.14917-.06958.22266-.10718.07813-.04028.155-.08276.231-.12671.08057-.04614.16-.094.23828-.14478.06506-.042.12866-.08569.19177-.13062.083-.05859.16455-.11914.24451-.18286.05591-.04443.11047-.09082.16467-.1377.079-.06787.15637-.13745.23169-.21045.05408-.05249.10608-.10669.15808-.16113.06714-.071.13367-.14258.19751-.21753.05835-.06836.11353-.1394.16858-.21069.05066-.06567.10144-.1311.14941-.19971.06445-.0918.1239-.18677.18274-.28247.02466-.04028.05273-.07739.07666-.11841l6.76489-11.71753,6.76538,11.71753c.02783.0481.06055.09131.0896.13818.05347.08643.10693.17236.16492.25513.0531.07617.10925.14868.16565.22144.0498.06421.09937.12793.15186.18994.0686.08081.14014.15771.21289.23389.04688.04932.09375.09814.14258.14551.07959.07764.16162.15137.24524.22314.04993.043.1.08545.15137.12646.08386.06689.16956.13037.25671.19189.05933.042.11914.08325.18005.1228.08166.053.16455.10278.24866.15112q.1095.063.22168.12134c.07617.03931.15308.07593.23071.11108.08594.03955.17261.07715.26074.11182.07275.02881.146.05518.21985.08057.09338.03223.18726.063.28284.09033.07666.022.15369.041.2312.05957.09155.022.18335.043.27686.06006.09106.01709.18274.02979.27466.042.08032.0105.16016.02173.2417.02881.11243.01.2251.01392.33838.01709.047.00122.09277.00708.14014.00708h13.53L268.98,314.40845c-.02454.04248-.04309.08691-.06641.12988-.05261.09717-.10425.19434-.15088.29443-.03589.0769-.06763.15479-.09985.23267-.03369.08228-.06714.16431-.0968.248-.03333.09351-.06226.18726-.09021.28149-.02124.07227-.04224.14453-.06055.21729-.02539.10107-.04663.20215-.066.30371-.01367.07153-.02673.14307-.0376.21509-.01477.09937-.02625.19849-.03552.2981-.00757.07935-.01367.15869-.01782.23828-.00439.09058-.0061.18066-.0061.271s.00171.18042.0061.271c.00415.07959.01025.15894.01782.23828.00928.09961.02075.19873.03552.2981.01086.07227.02393.1438.0376.21533.01941.10156.04065.20239.066.30347.01831.073.03931.145.06055.21729.028.09424.05688.188.09021.28149.02966.08374.06311.16577.0968.24829.03223.07764.064.15552.09985.23267.04663.09985.09827.19727.15088.29419.02332.043.04187.0874.06641.12988l6.76538,11.71753H262.21515c-.04736,0-.09314.0061-.14014.00708-.11328.00317-.226.00708-.33838.01709-.08154.00708-.16138.01831-.2417.02881-.09192.01245-.18359.0249-.27466.042-.09351.01709-.1853.03809-.27686.06006-.07751.01855-.15454.0376-.2312.05957-.0957.02734-.1897.05811-.2832.09033-.07349.02563-.14648.05176-.219.08032-.08862.03491-.17554.07275-.26184.1123-.07751.03516-.15417.07178-.22986.1106-.0752.03882-.1488.07959-.22192.12158-.08423.04834-.167.09839-.24878.15137-.06079.03931-.12036.08032-.17944.12207-.08752.06177-.17346.12549-.25757.19287-.05127.04077-.10107.083-.15076.126-.08374.07178-.16589.14551-.24548.22314-.04883.04736-.0957.09619-.14258.14551-.07275.07617-.14429.15308-.21289.23413-.05249.06177-.10205.12573-.15186.1897-.0564.07275-.11255.14526-.16565.22144-.058.083-.11145.16895-.16492.25513-.02905.04688-.06177.09033-.0896.13818L250.722,346.033Zm28.306-115.981a4.43575,4.43575,0,0,0-6.25891.4231l-10.51636,12.03955.24683-26.14355a5.08753,5.08753,0,0,0,.2334-1.51587c0-.12964-.00464-.26-.01477-.39111-.01843-.24536-.04675-.49072-.07141-.73608a30.45045,30.45045,0,0,1,6.304-13.53857c7.785-10.15015,18.42114-14.355,29.18079-11.53564,7.06543,1.85132,13.02319,7.22827,15.1781,13.70068,2.14551,6.43823.36475,16.11963-5.70166,20.26416-2.07324,1.415-5.731,1.87622-9.10229,1.14648-2.89307-.62646-5.25366-2.04321-6.314-3.79053a7.3695,7.3695,0,0,1,2.39624-9.48584,5.11841,5.11841,0,1,0-5.18066-8.8291,17.57092,17.57092,0,0,0-5.967,23.62451c2.564,4.22681,7.14539,7.241,12.89966,8.48608q1.15576.24976,2.31421.39185c-14.58423,7.1936-27.33081,19.436-36.62744,32.29565l.09729-10.31006L272.686,224.593a4.4344,4.4344,0,0,0-.4231-6.25879Zm81.13147,128.1123a17.56928,17.56928,0,0,0,23.44336,6.64355,5.11842,5.11842,0,1,0-5.0564-8.90088,7.368,7.368,0,0,1-9.41211-2.66724c-.9834-1.79224-1.03-4.54492-.12573-7.36353,1.0542-3.28418,3.282-6.22168,5.54321-7.30835,6.623-3.18262,15.89624.11572,20.40137,5.19312,4.52637,5.10229,6.2063,12.95093,4.2749,19.99561-2.93726,10.72754-11.896,17.83618-24.57935,19.50269a30.44511,30.44511,0,0,1-14.88037-1.31079c-.19946-.14355-.397-.29028-.59961-.42822a5.08965,5.08965,0,0,0-1.75244-.76074l-22.77026-12.86084,15.68359-3.08765a4.43775,4.43775,0,0,0,3.58008-4.3479,4.48332,4.48332,0,0,0-.08447-.86157,4.437,4.437,0,0,0-5.20947-3.49585l-25.84119,5.08789-8.97668-5.07031c15.78467-1.62183,32.75952-6.53979,46.28076-15.57422q-.45447,1.073-.81738,2.19971C350.6983,336.63623,351.0174,342.11279,353.39435,346.44653ZM289.06622,332.5188c-.08618-.05811-.17773-.10889-.26733-.16235l-8.78625-15.218,8.78577-15.21753c.09033-.05371.18225-.105.269-.16382,18.40039-1.31348,42.82129,3.019,59.5686,15.38086C331.88824,329.49976,307.46686,333.833,289.06622,332.5188Zm10.61328,69.41553c-19.08557-8.32544-35.05371-27.3186-43.1145-43.91553.00684-.10034.01819-.2.01941-.30054l8.78308-15.21362h17.57092c.09167.05151.18213.10547.27649.15137C293.553,357.9353,302.0119,381.24951,299.6795,401.93433Zm-34.312-110.16211-8.78394-15.21387c-.00122-.1001-.01245-.19946-.01929-.29907,8.05957-16.59644,24.02734-35.59058,43.11365-43.91748,2.33264,20.68384-6.12561,43.99927-16.463,59.27832-.09485.04614-.18579.10034-.278.1521ZM402.19,336.86255a28.91366,28.91366,0,0,0-18.6814-19.7251,28.91442,28.91442,0,0,0,18.68115-19.72461A80.44665,80.44665,0,0,1,440.09552,317.137,80.44373,80.44373,0,0,1,402.19,336.86255ZM388.188,302.2312c-4.50513,5.07764-13.77832,8.37671-20.40137,5.19409-2.262-1.08765-4.48975-4.02417-5.54395-7.30835-.9043-2.81714-.85864-5.572.12646-7.36377a7.36859,7.36859,0,0,1,9.41211-2.668,5.11821,5.11821,0,1,0,5.0564-8.90039,17.57023,17.57023,0,0,0-23.44336,6.644c-2.37769,4.33447-2.69922,9.80786-.89893,15.41553q.36108,1.125.81689,2.19873c-13.521-9.0332-30.49512-13.95068-46.27954-15.57251L316.00958,284.8l25.84033,5.0874a4.43592,4.43592,0,0,0,5.20947-3.49561,4.48333,4.48333,0,0,0,.08447-.86157,4.438,4.438,0,0,0-3.58008-4.3479l-15.68311-3.0874,22.77124-12.86182a5.096,5.096,0,0,0,1.75122-.76025c.20215-.13818.3999-.28467.59912-.428a30.43852,30.43852,0,0,1,14.87988-1.31079c12.68311,1.66577,21.64258,8.77393,24.58081,19.50171C394.39435,289.28271,392.71368,297.12988,388.188,302.2312Zm-31.77173-59.356a30.43508,30.43508,0,0,1-8.574,12.23047c-.22412.10107-.4502.199-.67114.30518a5.09287,5.09287,0,0,0-1.53589,1.13794l-22.522,13.28906,5.16772-15.12549a4.43631,4.43631,0,1,0-8.396-2.8689l-8.51538,24.92358-8.876,5.23706c5.816-12.98242,9.823-28.11987,9.823-42.80664,0-1.69312-.06006-3.37891-.1698-5.05591q.70074.92871,1.494,1.80493c3.95581,4.36084,8.8562,6.8208,13.79785,6.928A17.56982,17.56982,0,0,0,344.91534,225.894v-.03638a5.11871,5.11871,0,0,0-10.2373-.03491,7.36623,7.36623,0,0,1-7.01648,6.81763c-2.04309-.04419-4.45032-1.37939-6.43909-3.57227-2.317-2.55469-3.73755-5.95459-3.5575-8.45483.55432-7.32715,8.04749-13.70874,14.69763-15.071,6.68188-1.36914,14.31787,1.10083,19.45435,6.29468C359.63849,219.74463,361.31525,231.05615,356.41632,242.87524Zm-11.01-89.73975a80.44456,80.44456,0,0,1-1.8689,42.688,28.91919,28.91919,0,0,0-26.43188,6.32471,32.28433,32.28433,0,0,0,.53394-5.78125,28.57548,28.57548,0,0,0-1.38257-8.96484,30.25951,30.25951,0,0,0-6.88379-11.30371A80.45026,80.45026,0,0,1,345.40631,153.1355ZM249.83337,40.5a23,23,0,1,1-23,23A22.99989,22.99989,0,0,1,249.83337,40.5Zm67.37085,110.12207a94.8139,94.8139,0,0,0-18.534,15.94482,7.15332,7.15332,0,0,0-1.10132,1.64478,32.88093,32.88093,0,0,0-3.60822-1.1792c-15.10449-3.95923-30.649,3.14575-39.89862,15.21a51.157,51.157,0,0,0-3.3418,4.90967,51.14608,51.14608,0,0,0-3.342-4.90967c-3.52448-4.59595-8.52881-10.3894-13.79639-12.95532a38.59226,38.59226,0,0,0-26.10205-2.25293,32.79921,32.79921,0,0,0-3.603,1.17749,7.158,7.158,0,0,0-1.1062-1.64331,105.25952,105.25952,0,0,0-17.6167-15.94629ZM156.03351,153.1377a80.44638,80.44638,0,0,1,36.03369,22.96265,28.91029,28.91029,0,0,0-7.73706,26.04443,28.91854,28.91854,0,0,0-26.42651-6.31958A80.44631,80.44631,0,0,1,156.03351,153.1377Zm13.04517,52.40625c6.65015,1.3623,14.14331,7.7439,14.69824,15.07007.18823,2.51343-1.24,5.90112-3.55762,8.45557-1.98877,2.19312-4.39575,3.52832-6.439,3.57324a7.36772,7.36772,0,0,1-7.01685-6.81787,5.11847,5.11847,0,0,0-10.23682.03491l.00037.03662A17.571,17.571,0,0,0,174.00275,242.877c4.94287-.10718,9.84326-2.5686,13.79907-6.92969.53-.58447,1.02747-1.19019,1.49585-1.81079-1.06409,16.22754,3.165,33.38745,9.65381,47.8689l-8.87976-5.2395-8.51489-24.9209a4.4359,4.4359,0,1,0-8.39514,2.8689l5.16724,15.12354-22.54565-13.30249a5.07654,5.07654,0,0,0-1.51086-1.123c-.22327-.10742-.45154-.20654-.678-.30859A30.45662,30.45662,0,0,1,145.025,242.877c-4.89856-11.81763-3.22192-23.13086,4.59961-31.0376C154.76068,206.64526,162.397,204.17456,169.07867,205.54395ZM49.975,150.62207h91.89417c-.24286,1.14795-.45685,2.32324-.66992,3.50073q-.60562,3.349-.96722,6.73633a88.99123,88.99123,0,0,0-.60974,12.94263,96.99043,96.99043,0,0,0,4.67456,26.52734,7.15441,7.15441,0,0,0,.87439,1.77612,32.78728,32.78728,0,0,0-2.82507,2.53516,35.51329,35.51329,0,0,0-9.81189,19.24194c-1.3045,8.03687-.10815,15.335,3.03412,22.91455a27.672,27.672,0,0,1,1.751,3.79565c.49591,2.15063-2.32593,1.62109-4.02588,1.68872-12.79681.51025-27.59332,8.61914-31.76239,21.41943-.265.81372-2.70453,9.6416-3.20679,9.54688a7.1481,7.1481,0,0,0-1.97534.1311c-9.95233,2.094-19.34888,6.32349-28.07281,11.47778-4.3194,2.552-8.49268,5.34692-12.549,8.29761a33.85382,33.85382,0,0,0-5.75214,5.46753Zm0,393.66895q0-19.801,1.18164-38.75269c7.66,13.40991,20.62952,27.033,36.007,33.45654-15.46539,6.46021-28.493,20.20239-36.13544,33.68555C50.34406,563.2915,49.975,553.82129,49.975,544.291Zm3.60284,53.17993a97.73393,97.73393,0,0,1,6.5705-16.43579c7.45508-14.5791,23.502-31.30762,41.11621-33.583,9.93213-1.27539,18.87012,2.42969,26.56348,11.03418,8.19385,9.16406,10.38818,23.042,5.33594,33.748-5.12061,10.85156-17.61279,17.61719-29.05762,15.73145a15.02628,15.02628,0,0,1-11.83545-9.79395c-1.73486-4.6748-1.21631-9.82812,1.291-12.82324,2.8457-3.39844,7.667-3.34961,11.21191-2.709a5.99983,5.99983,0,0,0,2.13281-11.80859c-12.72607-2.30078-19.58887,3.2832-22.54541,6.81445-5.3457,6.38477-6.62549,15.84961-3.34033,24.70215a26.99653,26.99653,0,0,0,21.1377,17.459c16.5376,2.72266,34.53369-6.92969,41.85791-22.45117,7.05029-14.94141,4.07178-34.21387-7.24316-46.86719a47.66767,47.66767,0,0,0-14.95605-11.49487A47.666,47.666,0,0,0,136.77332,527.502a44.59889,44.59889,0,0,0,10.86176-33.31543c.11267.04028.21857.08936.33673.12231,7.763,2.15308,17.26123-1.85864,24.32855-5.00415,11.3172-5.0376,22.18188-12.34131,30.47278-21.59521a7.17052,7.17052,0,0,0,1.10608-1.64331,32.84939,32.84939,0,0,0,3.60266,1.17749c14.15753,3.71069,28.32971-2.07593,37.75726-12.63135-6.65479,13.60229-14.30011,26.6709-24.37646,38.16968-2.47485,2.824-5.44727,5.4353-8.13794,8.155-2.54517,2.57227-6.12085,5.792-5.1936,9.83691,1.32983,5.80151,6.467,1.29785,9.58105,3.17847,3.37939,2.04639,1.08105,5.22314-1.14917,7.10254-5.66309,4.77222-15.02124,6.62817-19.39185,12.564-2.84131,3.85864,17.07935,1.01538,12.91748,11.98193-2.438,6.42334-7.28076,12.697-11.72241,17.85181a82.1087,82.1087,0,0,1-28.2,21.145c-3.45557,1.56641-9.51831,3.40479-6.18335,8.45435,2.28589,3.46118,7.97681,2.57983,10.26,6.2373,2.90674,4.65576-2.06543,8.56079-5.60962,10.81616-5.66968,3.60791-11.55151,6.92188-17.30688,10.39355-2.30225,1.38843-5.5603,4.47241-3.57471,7.44043,1.52344,2.2771,5.2417,1.96,7.59912,1.96094,7.66943.00244,14.95557-2.30322,22.40649-3.79346,6.387-1.34448,11.1604,3.45068,8.9834,10.25146-2.698,8.42847-12.30493,15.19775-19.58643,19.4624-8.27686,4.8479-17.37988,8.04175-26.17993,11.77563l-.25952.11011c-3.5816,1.52441-9.16608,3.39478-11.43127,6.92749a25.19179,25.19179,0,0,0-6.15979-6.15649c-8.674-6.00269-20.69934-6.48193-30.98718-1.69434a67.814,67.814,0,0,0-9.32288-44.78906,6,6,0,1,0-10.15918,6.38672c10.38214,16.51465,10.87946,38.832,1.33,55.8313A502.83965,502.83965,0,0,1,53.57782,597.47095ZM188.83337,682.5a16,16,0,1,1,16,16A16.00017,16.00017,0,0,1,188.83337,682.5Zm15,88a15,15,0,1,1-15-15A15.00012,15.00012,0,0,1,203.83337,770.5ZM79.75568,703.03125l.00543-.03516c1.73535-10.00879,6.54-18.47461,13.18213-23.22656,6.063-4.33594,15.82422-6.21973,22.752-1.4248a14.90778,14.90778,0,0,1,5.874,9.77734,11.10772,11.10772,0,0,1-1.939,8.61133,6.00014,6.00014,0,0,0,9.47266,7.36719,22.93675,22.93675,0,0,0,4.34979-17.623c4.3985,2.23315,10.3714,2.59546,14.6131,3.08179,7.21167.8269,13.49268,2.54712,9.06006,10.4834-3.89966,6.98242-10.98657,11.551-18.42187,14.032-9.8772,3.29565-20.51807,3.64355-30.45459,6.83325a6.85029,6.85029,0,0,0-4.4292,4.16016c-1.54907,4.42627,2.481,7.22925,6.053,8.89209a85.26093,85.26093,0,0,0,55.6521,5.43848,2.20639,2.20639,0,0,1,2.521,3.02905,4.80064,4.80064,0,0,1-.30615.62939c-1.93994,2.91016-5.70679,5.24683-8.39062,7.50073-7.8197,6.56616-20.87659,19.20166-45.78638,30.41675A662.85949,662.85949,0,0,1,79.75568,703.03125ZM228.80579,826.38477c-2.29126,6.40186-3.51,13.427-5.23071,20.009q-4.21683,16.1272-8.43353,32.25488c-5.40991-2.41089-10.78479-5.01245-16.23389-7.13477-9.90637-3.8584-21.9812-5.57886-31.67029-2.41138-10.55151-14.6394-20.84351-30.24609-30.485-46.29492-2.21448-3.686-4.53424-7.63306-6.92944-11.80884a148.82171,148.82171,0,0,0,39.37012-6.31445,1.9399,1.9399,0,0,1,2.37183,2.62524c-2.55127,5.36157-16.28516,14.97241-16.99243,17.14185-1.64722,5.053,3.33984,7.88306,7.60327,9.10962a62.00333,62.00333,0,0,0,56.8042-12.59424C225.17883,815.56812,229.59265,824.18555,228.80579,826.38477ZM232.83337,589.5a14,14,0,1,1,14-14A14.00007,14.00007,0,0,1,232.83337,589.5Zm9-79a11,11,0,1,1,11,11A10.99992,10.99992,0,0,1,241.83337,510.5Zm17,275a11,11,0,1,1,11,11A10.99992,10.99992,0,0,1,258.83337,785.5Zm25-146a14,14,0,1,1,14-14A14.00007,14.00007,0,0,1,283.83337,639.5Zm31,73a19,19,0,1,1-19-19A19,19,0,0,1,314.83337,712.5ZM362.473,821.65332c-11.55865,19.1084-24.068,37.65723-36.85028,54.7666-4.99188-6.2373-13.72662-9.6001-21.95471-9.46509-6.46558.1062-12.68732,1.88354-18.72614,4.2937q-3.2493-12.42773-6.49866-24.85474c-1.72095-6.582-2.93945-13.60718-5.23071-20.009-.78687-2.19922,3.627-10.81665,9.82593-5.418,16.13184,14.04907,39.95605,18.7251,60.15088,11.51709a6.81541,6.81541,0,0,0,4.44531-4.89209c1.02319-4.80273-4.0332-7.282-7.78125-9.66357a25.991,25.991,0,0,1-9.24487-10.30176,2.11209,2.11209,0,0,1,2.45532-2.95654c9.65063,2.60352,23.40527,4.3623,36.68451,4.66211C367.231,813.69653,364.79462,817.81543,362.473,821.65332ZM345.83337,785.5a8,8,0,1,1,8,8A8.00008,8.00008,0,0,1,345.83337,785.5Zm39.29883-4.29687c-12.17706-4.24854-23.93243-9.85059-33.12671-18.479-4.498-4.22144-20.27612-24.63794-19.79614-24.49316a85.05453,85.05453,0,0,0,62.51416-5.52734,6.87983,6.87983,0,0,0,3.59473-4.19287c1.33716-4.8125-3.6626-7.46484-7.86328-8.563-8.9624-2.342-18.35352-2.94116-27.14062-5.873-7.4353-2.481-14.52222-7.04956-18.42187-14.032-4.43262-7.93628,1.84839-9.65649,9.06006-10.4834a67.35719,67.35719,0,0,0,11.23816-1.77368,22.73715,22.73715,0,0,0,4.50745,16.31494,6.00014,6.00014,0,0,0,9.47266-7.36719,11.10955,11.10955,0,0,1-1.93848-8.61133,14.90646,14.90646,0,0,1,5.87451-9.77734c6.92725-4.793,16.689-2.91113,22.751,1.4248,6.64209,4.752,11.44678,13.21777,13.18213,23.22656.06183.35669.11243.71533.16577,1.07349A667.06091,667.06091,0,0,1,385.1322,781.20313Zm43.00751-103.48486c-9.26379-16.93579-8.67444-38.98169,1.60675-55.3374a6,6,0,1,0-10.15918-6.38672c-9.8493,15.6687-12.4021,35.61841-7.57538,53.469-11.13037-7.49-25.68188-7.94287-35.7337-.9856a24.62333,24.62333,0,0,0-4.65533,4.22559c-2.70514-2.33618-6.85382-3.77686-9.71942-4.99658-15.73486-6.69678-29.88306-10.87256-41.60352-24.31934a20.63108,20.63108,0,0,1-4.42261-7.02881c-2.17676-6.80078,2.59668-11.59595,8.9834-10.25146,8.6189,1.814,16.14673,4.25122,25.15918,3.749a6.63023,6.63023,0,0,0,5.249-2.74854c2.8374-3.73242-15.34058-13.43823-20.70605-16.70825-2.52-1.53589-5.12451-3.14819-6.3877-5.9646a5.83892,5.83892,0,0,1-.49023-3.22607c.93506-6.29736,11.16675-4.47266,11.64844-10.0874a5.04425,5.04425,0,0,0-2.89307-4.88355c-9.14307-4.4856-18.68408-7.9436-26.60718-14.52979a60.97583,60.97583,0,0,1-12.105-13.96289c-1.929-2.9939-8.77588-12.13989-6.53345-15.74609,1.02344-1.64551,13.39258-6.09839,11.72656-9.09692-4.15967-7.4873-13.59937-7.84521-19.02441-13.29443-1.61914-1.62622-1.53125-3.55933.64355-5.39185,2.63135-2.217,9.89648,1.53345,10.24536-3.02905.23218-3.03467-4.25415-8.59961-6.58716-10.90649-2.7417-2.71094-5.32642-5.57715-7.80151-8.53223-9.664-11.53857-18.25214-23.40161-24.20117-37.11646,9.58417,10.96606,22.78375,16.53955,37.76721,12.61182a32.82816,32.82816,0,0,0,3.60785-1.17944,7.1494,7.1494,0,0,0,1.10156,1.64551c11.34265,12.65308,27.1933,24.35571,44.37463,27.13721a19.62623,19.62623,0,0,0,7.597-.02026,10.36262,10.36262,0,0,0,2.7005-1.04395A44.60257,44.60257,0,0,0,364.16687,527.502,47.663,47.663,0,0,0,379.12,538.99268a47.68132,47.68132,0,0,0-14.95312,11.49561c-11.31494,12.65332-14.29346,31.92578-7.24316,46.86719A41.04609,41.04609,0,0,0,393.12,620.26465a34.95258,34.95258,0,0,0,5.66162-.457,26.9994,26.9994,0,0,0,21.13818-17.46c3.28516-8.85254,2.00537-18.31738-3.34033-24.70215-2.957-3.53223-9.81787-9.11133-22.5459-6.81445a5.99983,5.99983,0,1,0,2.13281,11.80859c3.54541-.63867,8.36719-.69043,11.2124,2.71,2.50732,2.99414,3.02588,8.14746,1.291,12.82227a15.02634,15.02634,0,0,1-11.83594,9.79395c-11.4458,1.88574-23.937-4.87988-29.05762-15.73145-5.05225-10.707-2.85791-24.584,5.33594-33.748,7.69434-8.60352,16.63574-12.30859,26.56348-11.03418,17.61475,2.27539,33.66113,19.00391,41.11621,33.583a97.19058,97.19058,0,0,1,5.8371,14.09912A490.0834,490.0834,0,0,1,428.13971,677.71826Zm20.915-106.51123c-7.73853-13.00146-20.37561-25.9873-35.27783-32.21191,14.82709-6.19385,27.4129-19.08057,35.16168-32.0166q1.07364,18.2688,1.08618,37.3125Q450.02478,557.82874,449.05475,571.207Zm.97-264.5918c-1.52991-1.35449-3.11993-2.627-4.35022-3.63989a63.485,63.485,0,0,0-6.86084-5.12646c-10.70569-6.6023-21.251-11.84912-33.71967-14.47119a7.15812,7.15812,0,0,0-1.9834-.13062,32.77649,32.77649,0,0,0-.77386-3.71558,37.31212,37.31212,0,0,0-12.18829-18.54785c-6.295-5.26-12.94806-7.3501-20.93262-8.39966a51.11993,51.11993,0,0,0-5.92334-.43945,51.1174,51.1174,0,0,0,2.58081-5.34985c5.77441-13.9353,4.15131-31.10718-6.77832-42.15674a32.80523,32.80523,0,0,0-2.8252-2.53467,7.14952,7.14952,0,0,0,.87451-1.77661,92.6764,92.6764,0,0,0,3.84009-17.15894,113.85543,113.85543,0,0,0,.06622-26.137,43.83386,43.83386,0,0,0-1.144-6.40869h90.1181Z"/></svg>