<svg id="Слой_1" data-name="Слой 1" xmlns="http://www.w3.org/2000/svg" viewBox="0 0 500 1000"><title>Flags light bulbs</title><path d="M491.02478,319.74634V146.70288a37.08065,37.08065,0,0,0-37.08057-37.08081H323.13147V28.25049A25.75039,25.75039,0,0,0,297.381,2.5H202.619a25.75039,25.75039,0,0,0-25.75049,25.75049v81.37158H46.056A37.08071,37.08071,0,0,0,8.97522,146.70288V319.74634a37.083,37.083,0,0,0,30.61694,36.50757C20.10168,408.79395,8.97522,472.00366,8.97522,544.291c0,225.27026,185.40381,453.209,241.0249,453.209,51.501,0,241.02466-227.93872,241.02466-453.209,0-72.28735-11.12646-135.49707-30.6167-188.03711A37.083,37.083,0,0,0,491.02478,319.74634ZM382.93359,366.31555a47.38391,47.38391,0,0,1,3.07166-3.99036A49.93522,49.93522,0,0,1,403.30481,349.5H419.9834a40.981,40.981,0,0,0,1.98425,21.01367q3.57147,9.6275,6.68048,19.66785c-5.3714-5.98169-13.03961-9.67078-20.74933-9.48572-11.90137.25586-22.53857,10.08936-23.228,21.47363a6,6,0,1,0,11.978.72559c.31592-5.2168,5.80078-10.07959,11.5083-10.20215,5.82275-.12207,11.93457,4.10254,14.52344,10.05469,2.55566,5.874,2.11084,13.30957-1.189,19.89063-2.90967,5.80127-7.57471,10.08008-12.79932,11.73877-5.63867,1.78955-12.65527.56152-18.31006-3.20654-6.71777-4.47705-10.62061-11.39893-12.71143-16.417a51.76236,51.76236,0,0,1,1.1073-41.14307,59.02855,59.02855,0,0,0,3.63684-5.91895A5.99384,5.99384,0,0,0,382.93359,366.31555Zm-78.44836-8.99475a21.29144,21.29144,0,0,1,5.67322-7.8208h19.73383c2.46173,2.93811,3.26074,7.34778,1.72821,10.48779-1.65527,3.39063-6.36377,5.24219-9.50439,3.73486a6,6,0,0,0-5.18652,10.82129c9.0376,4.333,20.94287-.00928,25.47461-9.292a21.35761,21.35761,0,0,0,.88464-15.752h38.47552a58.6962,58.6962,0,0,0-4.8587,5.002,60.09328,60.09328,0,0,0-8.46912,12.96265c-6.69623,9.38086-17.26855,17.9895-27.026,21.62183-11.67432,4.3457-24.99316,1.84131-32.38721-6.09229A24.62772,24.62772,0,0,1,304.48523,357.3208Zm-13.71606,11.53809c-2.69592-7.73828-8.99249-13.89453-16.62964-15.51953a20.01609,20.01609,0,0,0-16.96289,4.57422,17.63527,17.63527,0,0,0-6.501,14.27344,6.00018,6.00018,0,0,0,11.98437-.61914,5.987,5.987,0,0,1,2.30518-4.52539,8.17976,8.17976,0,0,1,6.67676-1.96582c4.606.98,8.438,6.27686,8.542,11.80762.13965,7.40527-5.77,14.88232-13.45361,17.02246-7.56885,2.10742-16.68994-.60742-22.69775-6.75537a30.18367,30.18367,0,0,1-7.24683-12.96021,54.3517,54.3517,0,0,0-1.254-7.49756A35.78112,35.78112,0,0,1,235.50232,363a43.49966,43.49966,0,0,1,2.89966-13.5h56.55853a34.48082,34.48082,0,0,0-1.52606,3.144A35.63982,35.63982,0,0,0,290.76917,368.85889ZM226.10107,491.16455c.05145-.09326-1.49048-.73108-.82434-.98621,2.68561-1.02844,10.91486-3.81982,13.75-4.25,6.01508-.9126,12.96735-2.35913,19-2,9.80249.58362,24.58685,4.91809,33.1571,9.96094.76361.27673,16.3429,10.66406,14.93665,11.97656C304.99579,507.02173,274.0437,475.69653,226.10107,491.16455Zm41.55774,27.67188c-.733-7.2168,10.76788-6.56055,12.0722-.18506C281.49615,527.27966,268.39655,526.09863,267.65881,518.83643Zm-22.08691-3.95435c-.07562.32129-6.98566-1.20386-8.14893-.98792-2.01489.37378-5.32465,3.68079-6.14874,1.67712C228.78619,509.52246,247.039,508.64893,245.5719,514.88208ZM249.83337,40.5a23,23,0,1,1-23,23A22.99989,22.99989,0,0,1,249.83337,40.5Zm-160.087,309a75.01458,75.01458,0,0,0-9.19312,5.39526A41.27976,41.27976,0,0,0,80.01685,349.5Zm45.984,413.075a87.75229,87.75229,0,0,0-8.92712,43.10632c-7.11707-12.66528-14.80524-27.28088-22.47211-43.48413,13.696-1.50049,26.76318-9.087,34.20728-20.80408,10.24365-16.124,8.91553-38.57129-3.1582-53.37451-8.99707-11.03125-22.65576-16.33887-34.80273-13.51562a27.39788,27.39788,0,0,0-17.53613,13.70313,22.80222,22.80222,0,0,0-1.68652,18.9292,19.47193,19.47193,0,0,0,14,12.51709c7.41992,1.50049,15.27832-2.59375,17.88818-9.31592a5.99986,5.99986,0,0,0-11.18555-4.34473c-.51367,1.32178-2.61768,2.24561-4.32764,1.89795a7.64624,7.64624,0,0,1-5.127-4.93457c-1.375-3.70068.041-7.26855,1.00732-9.06592a15.456,15.456,0,0,1,9.68213-7.69775c8.78027-2.03711,17.77,3.2583,22.78857,9.41162,8.75879,10.73877,9.76025,27.6582,2.32861,39.35547-6.147,9.67554-17.97974,15.6272-29.49481,15.49707-16.98956-37.74121-33.16284-82.9801-41.99725-131.83813a5.98336,5.98336,0,0,0,1.25232-1.47c3.00293-4.98389,9.65674-8.085,16.95459-7.92334,7.50879.17432,14.82031,3.68945,19.082,9.17334,4.36768,5.62061,5.54492,13.51074,2.93018,19.6333-2.62158,6.13867-9.33643,10.416-15.61182,9.94727-2.91357-.2168-5.47949-1.49219-6.53662-3.24854a4.56634,4.56634,0,0,1,4.72607-6.84814A6.00018,6.00018,0,0,0,81.851,626.07275,16.56636,16.56636,0,0,0,64.70642,650.9165c3.09424,5.1416,9.04834,8.5166,15.92725,9.02832q.90308.06738,1.80664.06689c10.74268-.00049,21.36035-7.03027,25.73242-17.26807,4.34082-10.165,2.57861-22.61182-4.49072-31.70947A37.04187,37.04187,0,0,0,75.4032,597.22705a33.17464,33.17464,0,0,0-20.93842,6.45728c-1.14563-7.79834-2.10608-15.67139-2.82886-23.61426.12732-.06323.25531-.12573.38177-.18921,3.632-1.82617,7.446-3.36694,10.93732-5.35681a14.223,14.223,0,0,1,10.93646-.9679c3.89764,1.10168,7.36871,3.31775,10.81525,5.44531a346.26831,346.26831,0,0,0,44.442,23.16895c3.84369,1.66187,3.43378,3.27283,2.65692,6.90649a16.35987,16.35987,0,0,0,.73694,8.66c3.676,10.75745,10.89386,18.14258,22.88031,15.51123-1.23157,14.45935.55225,29.25085,4.22229,43.25391,3.17242,12.10413,9.23712,26.0238,17.57636,35.37317C159.0376,723.488,145.05774,743.53174,135.73041,762.575Zm52.1792-185.78516a69.92263,69.92263,0,0,0-17.06549,14.376c-2.57373-2.65161-6.36353-4.31372-9.84216-5.4198a20.68553,20.68553,0,0,0-11.192-.39111,21.88009,21.88009,0,0,0-13.36786,10.36121c-.13287.22876-6.95514-2.41162-7.68347-2.72754-7.42365-3.2207-14.92322-6.28174-22.16058-9.91125A201.05955,201.05955,0,0,1,88.65637,572.896,74.73789,74.73789,0,0,0,80.77,568.073c-2.77924-1.32031-4.83234-4.23462-6.6319-6.63293a42.93228,42.93228,0,0,1-6.67438-13.05627c-.5238-1.69556-.9903-3.50928-2.24646-4.7627-1.30646-1.30359-4.71674-1.70886-5.72845.17725-1.19385,2.22571,1.88342,6.64941,3.11945,8.39331a38.89771,38.89771,0,0,1,3.00641,4.53882c.35547.68884.59949,3.46582,1.1684,3.77222a17.03763,17.03763,0,0,0-9.353-2.07788c-4.31061.31494-5.48865,2.11353-.58356,3.92188,2.43506.89771,8.92163,1.34692,10.25153,3.87817,1.00427,1.89038-6.50189,3.59106-7.70068,3.94348a34.28732,34.28732,0,0,0-4.59619,1.58875c-.6853.3125-2.31464,1.5791-3.1283,1.32764-1.49634-.46265-1.06946-6.927-1.14929-8.4292Q49.983,554.48273,49.975,544.291a610.72464,610.72464,0,0,1,3.09827-62.23633,85.34105,85.34105,0,0,0,10.39691,13.12891c7.66339,7.71411,17.54785,13.406,28.38574,15.02014,5.57172.83,11.0415.54053,16.57459,1.88928a48.18243,48.18243,0,0,1,15.99554,7.15308q1.01825.70532,1.99768,1.46436c7.79736,6.04395,12.79932,14.11035,13.72363,22.12988.98975,8.5918-3.21729,17.26416-10.00391,20.62061a14.87917,14.87917,0,0,1-11.75781.29443,11.66536,11.66536,0,0,1-6.92969-6.40283c-1.07178-2.72949-.728-5.85352.81738-7.42773a3.61048,3.61048,0,0,1,2.73535-.896,1.85748,1.85748,0,0,1,1.35645.57275,5.409,5.409,0,1,0,8.83887-6.2373,12.52493,12.52493,0,0,0-9.32129-5.11768,14.37058,14.37058,0,0,0-11.32812,4.09912c-4.53516,4.61914-5.80762,12.23926-3.16748,18.96143a22.3304,22.3304,0,0,0,13.1001,12.53906,26.61027,26.61027,0,0,0,9.55859,1.77393,24.65286,24.65286,0,0,0,10.89355-2.46289c10.91211-5.397,17.47314-18.373,15.9541-31.55518-1.25537-10.89355-7.75879-21.62451-17.8418-29.44141-.4707-.36487-.95947-.70325-1.44086-1.05273A52.22808,52.22808,0,0,0,161.871,491.50049a6.00022,6.00022,0,0,0-9.70215-7.0625,40.23756,40.23756,0,0,1-26.42139,15.62854,51.1029,51.1029,0,0,0,9.41406-10.3468c8.85791-12.94678,10.54053-28.16895,4.502-40.7207-4.85791-10.09619-14.34082-17.50439-24.74854-19.3335-11.5415-2.02881-23.42627,2.90479-29.57959,12.27246-6.58789,10.02979-5.249,24.231,3.04785,32.33008,5.45605,5.32471,14.84619,8.18408,22.23779,3.34717a6.00008,6.00008,0,1,0-6.57129-10.041c-1.73437,1.13574-5.06982.26758-7.28467-1.89355-4.25586-4.15479-4.88379-11.8501-1.39941-17.15479,3.50537-5.33789,10.68945-8.23535,17.47217-7.041,6.666,1.1709,12.80176,6.04395,16.01221,12.7168,4.21729,8.76563,2.90771,19.2417-3.59229,28.74219-7.21143,10.5415-18.91064,16.80908-29.80518,15.95654-7.9502-.61865-16.28467-4.94189-23.46875-12.17383-5.80029-5.83923-11.91968-15.15186-16.46326-24.92944a440.66567,440.66567,0,0,1,21.50031-88.44031c9.82813-9.733,23.30975-17.85681,36.60651-17.85681.041,0,.0835,0,.12451.00049,10.01514.03809,18.38428,4.89648,24.876,14.44043,6.91357,10.16455,7.2583,24.21045.83838,34.15674-6.50732,10.082-19.78125,15.1377-30.87891,11.7627a15.028,15.028,0,0,1-10.44043-11.27c-1.103-4.86328.09082-9.90283,2.97119-12.54053,3.26953-2.99414,8.043-2.30859,11.47119-1.20654a6.00018,6.00018,0,0,0,3.67188-11.4248c-12.314-3.95654-19.85059.67139-23.24756,3.78174-6.14111,5.62354-8.6582,14.8374-6.56934,24.04492a26.99748,26.99748,0,0,0,18.65039,20.0957c16.03662,4.87793,35.14746-2.31592,44.45361-16.73535,8.959-13.88037,8.54834-33.37744-.99854-47.41357A47.32958,47.32958,0,0,0,134.70483,349.5h78.56787a50.10716,50.10716,0,0,1,7.72668,11.73193,42.53177,42.53177,0,0,1,2.63745,7.37744,47.19134,47.19134,0,0,0,1.24011,7.63281,36.73979,36.73979,0,0,1-5.25305,22.373c-6.89014,10.73047-21.019,16.27295-32.16992,12.61572-11.46924-3.76123-16.84277-19.99512-13.645-30.92822,2.17139-7.42187,7.3125-10.14453,15.27881-8.0918a11.17116,11.17116,0,0,1,6.83252,5.89063,9.11089,9.11089,0,0,1,.56494,7.50928,6,6,0,1,0,11.06055,4.6543,21.05567,21.05567,0,0,0-.874-17.49268,23.1449,23.1449,0,0,0-14.58936-12.18164c-14.12939-3.64014-25.82227,2.77393-29.791,16.34326-4.87207,16.6582,3.25488,39.74121,21.42334,45.69922a35.29514,35.29514,0,0,0,11.00977,1.72266,42.44936,42.44936,0,0,0,34.99707-19.25635,45.09631,45.09631,0,0,0,4.90729-10.45032c.273.29749.53955.60107.82172.88977a36.779,36.779,0,0,0,24.24585,11.03943c-8.85431,2.681-17.11816,7.50037-22.395,15.04163-4.32422,6.17981-7.77142,12.92737-12.00531,19.16577-4.78082,7.04443-9.93713,13.75964-14.83093,20.71948-4.41327,6.27661-11.32532,15.21362-10.94562,23.3208.31171,6.65527,6.994,11.55664,13.43628,10.35925-2.59882,3.058-4.36145,6.93518-5.96417,10.57434-5.74316-3.1604-11.75409-6.5896-16.834-10.74121-3.45032-2.81982-7.18787-8.80737-12.02948-8.97668-10.45435-.36536,4.15045,15.07629,6.071,16.95764,4.11011,4.02612,7.12921,8.96887,11.14789,13.10217,1.9646,2.02063,5.48877,4.15356,5.32019,6.64258-.16583,2.44885-2.82379,5.786-3.6571,8.18372-4.51386,12.98682-.77069,26.67725,7.131,37.51709C198.37067,570.13867,193.06274,573.75073,187.90961,576.78979Zm-120.45648-15.924q-.2579-.13879-.518-.28076A1.02972,1.02972,0,0,1,67.45313,560.86584ZM198.8736,515.792c-5.40063-5.70532-10.42786-11.66272-15.65021-17.50586-1.33453-1.49316-7.44287-9.31348-6.21313-9.92456,2.702-1.343,6.57562,3.45129,7.92584,4.87415,4.04474,4.26208,9.43878,9.04456,14.89471,11.35742,8.39148,5.27612,18.45551,9.99353,27.791,14.06177,3.58789,1.5636,11.04761,2.3606,13.766,5.07666,3.57611,3.57288,1.68372,10.64172-1.2373,13.986-6.69885,7.66919-13.17175,1.1001-19.616-3.63452C212.88477,528.46252,205.41974,522.68616,198.8736,515.792Zm40.03,335.87061c-7.65918,4.66992-14.91656-6.2063-8.74933-11.81689C237.48267,833.17847,247.80872,846.23193,238.90363,851.6626Zm2.597-61.896c-7.65894,4.6709-14.9165-6.2063-8.74927-11.81689C240.0799,771.28284,250.40607,784.33691,241.50067,789.7666Zm7.60583-59.08911c-7.65918,4.66992-14.91656-6.20642-8.74927-11.817C247.68567,712.19348,258.01178,725.24707,249.10651,730.67749Zm0-62.24829c-7.65936,4.67041-14.91632-6.20654-8.74927-11.81689C247.68573,649.94519,258.012,662.99927,249.10651,668.4292Zm-8.74927-60.08032c7.32843-6.667,17.65454,6.38684,8.74927,11.81714C241.44708,624.83606,234.19019,613.95947,240.35724,608.34888Zm36.74524-50.95654a28.6256,28.6256,0,0,1-17.31067,9.23132,29.97421,29.97421,0,0,1-18.98126-3.95581c-1.87891-1.04968-9.41156-6.57288-3.644-5.10486,4.80243,1.22241,9.00806,4.49878,13.96521,5.66382a23.1662,23.1662,0,0,0,19.40155-3.55322,37.911,37.911,0,0,0,11.16675-13.1582c.50214-.94849,4.72162-8.47656,4.80725-6.561C286.78851,546.24487,281.144,553.05566,277.10248,557.39233Zm61.36646,173.54c-1.15521-.95715-2.32343-1.90063-3.51819-2.81543-7.89355-6.04407-15.84766-11.71313-25.45062-14.5459,2.28284-1.19189,4.86554-1.90356,7.13623-3.32239a36.99628,36.99628,0,0,0,6.73547-5.4657,69.89164,69.89164,0,0,0,9.94244-13.5625,87.20056,87.20056,0,0,0,8.53424-18.20068,51.59636,51.59636,0,0,0,1.86218-8.08191c.20642-1.432.348-2.8739.413-4.31934.06049-1.34558-.396-3.31824-.031-4.582,1.17749-4.07727,4.02075,3.34973,4.71039,4.55713q3.2851,5.75189,6.24695,11.68079,3.98813,7.9834,7.37158,16.25049c.89136,2.17822,2.69623,4.70581,2.70514,7.12939.00751,2.05566-.89172,4.12476-.95166,6.28149a118.19929,118.19929,0,0,0,.89667,18.19043,7.6925,7.6925,0,0,0,.81952,2.99609,3.13613,3.13613,0,0,0,.351.46411,38.52517,38.52517,0,0,0-25.00311,3.9585A5.97133,5.97133,0,0,0,338.46893,730.93237Zm33.92145,73.78076A114.135,114.135,0,0,0,371.0697,789.157a22.93668,22.93668,0,0,0,6.25635.884,21.80239,21.80239,0,0,0,3.28882-.25781Q376.41315,797.63147,372.39038,804.71313Zm17.66711-40.41821c-.5957,6.31006-4.8916,11.95166-10.21436,13.41553a10.92261,10.92261,0,0,1-8.26367-1.28125,8.409,8.409,0,0,1-4.11182-5.1333,6.08481,6.08481,0,0,1,.79053-4.9292,3.43284,3.43284,0,0,1,3.103-1.41113,6.00016,6.00016,0,0,0,2.43359-11.751,15.31075,15.31075,0,0,0-13.403,4.03052,91.51862,91.51862,0,0,0-5.81866-9.285,83.89382,83.89382,0,0,0-8.09479-9.6344,6.04372,6.04372,0,0,0,.623-.3c11.06348-6.19531,26.93213-2.79541,36.125,7.74023C388.14832,751.39648,390.63806,758.15332,390.0575,764.29492Zm9.91644-13.52612a41.30007,41.30007,0,0,0-7.70551-12.90259,43.97848,43.97848,0,0,0-23.25812-13.731c.81262-.95459.32837-3.46582.33093-4.61853q.01355-6.24811.02722-12.496a2.89044,2.89044,0,0,1,.15332-1.12927c.82092-1.93591,4.26556,3.31946,4.62317,3.82678q2.67389,3.793,5.3476,7.58618c.7005.99365,1.54224,2.07568,2.74908,2.22314a2.53263,2.53263,0,0,0,2.61755-1.9353c.81958-3.40039-5.363-8.18762-7.12537-10.71216-.865-1.239-5.991-7.32141-4.33344-8.46509.88989-.614,2.09967-.3103,3.11615.05884a37.91867,37.91867,0,0,1,7.34192,3.60461c2.04462,1.295,4.11548,2.83948,6.533,2.955s5.08234-2.09778,4.33148-4.39868q-1.812-.627-3.58905-1.35718a57.43765,57.43765,0,0,1-9.79334-5.16528c-4.33514-2.863-9.349-1.912-11.824-7.19751-4.80682-10.26587-10.16559-20.21118-14.47791-30.67981-.622-1.50989-2.23114-4.02588-1.8634-5.73206a2.80346,2.80346,0,0,1,1.0415-1.58118A103.206,103.206,0,0,0,369.5321,671.4751c10.43066,11.57373,23.6748,17.73975,36.68506,17.73975a40.23729,40.23729,0,0,0,17.83789-4.15039c.71356-.35071,1.41321-.72485,2.10632-1.10913A628.22071,628.22071,0,0,1,399.97394,750.7688Zm-30.18518-46.99048q.86572,1.23926.426.77783Q370.00177,704.16724,369.78876,703.77832ZM442.681,619.91357a36.00824,36.00824,0,0,0-6.96869-6.39453,30.29593,30.29593,0,0,0-27.35937-4.21094c-11.19873,3.71143-18.67187,13.38135-19.03955,24.63428-.36914,11.28662,6.85059,23.56885,19.57178,24.58545a15.65781,15.65781,0,0,0,9.88721-2.38721,6.00022,6.00022,0,0,0-6.54785-10.05664,3.83629,3.83629,0,0,1-2.3833.48193c-5.33057-.42578-8.71631-6.66846-8.53467-12.23145.20166-6.17139,4.44971-11.52393,10.82178-13.63574a18.55674,18.55674,0,0,1,16.73535,2.67432,25.05349,25.05349,0,0,1,9.99054,14.87671q-2.85,12.4444-6.25879,24.50244a38.57161,38.57161,0,0,1-13.83331,11.54272c-15.60254,7.667-31.05615-.57959-40.31592-10.853a91.66709,91.66709,0,0,1-17.05041-27.81836c2.44055-14.72314-7.599-32.1759-23.59717-32.42-2.76227-.04211-2.70319.4281-4.52576-1.34937a52.72672,52.72672,0,0,1-4.48169-5.82593c-2.24524-2.985-4.22388-6.13159-6.69055-8.96375-5.49231-6.30591-11.44867-11.44507-19.45972-13.96252a58.61518,58.61518,0,0,0,6.63348-9.56494c8.94525-14.00122,10.104-34.90173,4.83557-50.49329,3.76752,3.30884,10.45074,3.197,13.95306-.32886,4.25031-4.27881,4.00757-11.05786,4.52179-16.55457.62976-6.73132.90179-13.274,1.00085-20.03894.0661-4.51147-1.0462-10.27026-.28711-14.46533.4046-3.96484-.77527-8.9928-1.82947-12.86914-1.78577-10.51709-5.31439-25.17078-13.182-33.552-10.16351-10.827-30.25043-12.17261-44.35352-11.2041,10.78516-4.77075,18.37537-15.782,18.24756-27.17993a35.64008,35.64008,0,0,0,8.0639,14.325c7.23389,7.76123,18.20605,11.981,29.55762,11.981a45.35343,45.35343,0,0,0,15.79443-2.82422c1.29651-.48267,2.59985-1.05322,3.9035-1.663a65.0159,65.0159,0,0,0-3.74921,22.02136,65.7938,65.7938,0,0,0,16.748,43.05615,6.00022,6.00022,0,0,0,8.90625-8.043,52.76006,52.76006,0,0,1-9.328-56.34375,60.88211,60.88211,0,0,0,4.516,20.0083c3.91357,9.3916,9.83838,16.92529,17.13428,21.78711a35.377,35.377,0,0,0,19.47412,6.041,30.13639,30.13639,0,0,0,9.12109-1.38232c8.292-2.63232,15.54346-9.11914,19.895-17.79736a38.65718,38.65718,0,0,0,3.66779-11.521,486.68172,486.68172,0,0,1,9.81946,54.69043,34.46073,34.46073,0,0,0-4.07025-2.63232,35.96381,35.96381,0,0,0-29.56152-2.08057c-14.4707,5.44775-24.937,21.19482-25.45264,38.29395a56.34616,56.34616,0,0,0,4.65308,23.43726,26.3258,26.3258,0,0,1-2.43726,11.47778c-3.61816,7.90479-10.7085,14.0752-18.50342,16.104-8.02783,2.09131-17.02637-.28955-22.39014-5.91992-5.40674-5.67529-6.90186-14.91113-3.47754-21.4834,1.65918-3.18311,4.28467-5.37842,6.853-5.729a5.91408,5.91408,0,0,1,5.73047,9.12549,5.99989,5.99989,0,0,0,10.00391,6.627,17.914,17.914,0,0,0-17.3584-27.64209c-6.45752.88135-12.39062,5.395-15.87109,12.07373-5.77783,11.08936-3.49365,25.9375,5.43115,35.30566a34.75164,34.75164,0,0,0,25.08936,10.40332,35.80561,35.80561,0,0,0,9.01172-1.14746A40.443,40.443,0,0,0,396.70136,550.184a80.82964,80.82964,0,0,1,3.16669,13.94788c.72314,5.99121.68506,14.668-3.603,21.98-3.64258,6.2124-10.18115,10.21-16.31445,9.939-2.29785-.10059-4.481-1.07471-4.8667-2.17139a6,6,0,0,0-11.32031,3.98145c2.05957,5.85645,8.20752,9.85205,15.6626,10.17822.37061.01611.73975.02441,1.11035.02441,10.22559-.00049,20.3667-6.13818,26.08008-15.88135,5.98-10.19727,6.10938-21.66455,5.16455-29.48877-.3067-2.54053-.76111-5.03149-1.30835-7.48608a93.13559,93.13559,0,0,0,34.80249,20.7478,5.76534,5.76534,0,0,0,3.39868.07666A431.654,431.654,0,0,1,442.681,619.91357Zm6.77539-55.19043c-.15338-.06433-.30817-.12683-.46918-.1792a80.88907,80.88907,0,0,1-37.0791-25.32422c-8.90723-10.86182-13.62842-22.96875-13.293-34.09082.373-12.36719,7.646-23.64453,17.687-27.4248a23.51857,23.51857,0,0,1,31.29053,17.11816c1.81982,8.55469-2.39258,18.08838-9.39014,21.252a13.82758,13.82758,0,0,1-11.81348-.708,10.68424,10.68424,0,0,1-5.89795-7.25488,8.40081,8.40081,0,0,1,1.61475-6.32031,4.64554,4.64554,0,0,1,3.15869-1.97852,5.99993,5.99993,0,1,0-.96582-11.96094,16.41614,16.41614,0,0,0-11.71094,6.63135,20.3497,20.3497,0,0,0-3.90137,15.78418c1.20215,6.58447,5.624,12.31689,12.13184,15.728a25.70869,25.70869,0,0,0,22.32813,1.01367,26.23786,26.23786,0,0,0,6.50842-4.22327c.234,7.08887.37,14.24915.37,21.50549Q450.02478,554.55206,449.45636,564.72314ZM54.21344,559.00049l.02759-.00818-.00476.00208ZM370.16132,718.124l.009-.00085-.01483.00659Zm3.30194-18.23364.00513-.00928-.00085.02734Z"/></svg>