<svg id="Слой_1" data-name="Слой 1" xmlns="http://www.w3.org/2000/svg" viewBox="0 0 500 1000"><title>Flags light bulbs</title><path d="M491.02478,319.74634V146.70288a37.08065,37.08065,0,0,0-37.08057-37.08081H323.13147V28.25049A25.75039,25.75039,0,0,0,297.381,2.5H202.619a25.75039,25.75039,0,0,0-25.75049,25.75049v81.37158H46.056A37.08071,37.08071,0,0,0,8.97522,146.70288V319.74634a37.083,37.083,0,0,0,30.61694,36.50757C20.10168,408.79395,8.97522,472.00366,8.97522,544.291c0,225.27026,185.40381,453.209,241.0249,453.209,51.501,0,241.02466-227.93872,241.02466-453.209,0-72.28735-11.12646-135.49707-30.6167-188.03711A37.083,37.083,0,0,0,491.02478,319.74634ZM440.9975,628.4386a43.11053,43.11053,0,0,1-.35968-21.3313c.02948-.031.06024-.06079.088-.09338l4.447-1.65771Q443.36984,617.02,440.9975,628.4386Zm-10.19733,25.941a13.054,13.054,0,0,0,4.43378-1.35474q-1.35645,5.19855-2.80469,10.32361A33.65127,33.65127,0,0,1,430.80017,654.37964Zm-38.568-31.85754a34.3063,34.3063,0,0,1-18.08368-2.236,34.30489,34.30489,0,0,1,12.20795-13.5271,12.33364,12.33364,0,0,0,10.40515,5.09888,12.32677,12.32677,0,0,0-4.52942,10.66418Zm13.92871-66.504a12.33351,12.33351,0,0,0-11.49921,1.411,34.30344,34.30344,0,0,1-7.1051-16.77844,34.30349,34.30349,0,0,1,17.81854,3.80859,12.33408,12.33408,0,0,0,.78577,11.55884Zm-12.42224,9.043a9.37781,9.37781,0,0,1,6.83606-5.41309c2.86017-.4458,6.80457.988,8.1178,3.833a5.37179,5.37179,0,0,1-.16229,3.90845,4.1635,4.1635,0,0,1-2.0412,2.38672,3.14169,3.14169,0,0,1-3.81885-1.6792,2.18266,2.18266,0,0,0-4.07965,1.55322,7.49223,7.49223,0,0,0,9.512,4.18237,8.30637,8.30637,0,0,0,4.48193-4.82422q.187-.4682.32855-.94507c1.99219,6.64221,6.23785,12.86914,10.98724,17.68921l-4.32861-.771-7.11456-8.69055a1.89176,1.89176,0,0,0-2.92767,2.39661l4.318,5.27441L402.868,582.00659a2.17271,2.17271,0,0,0-.78278-.226c-.10413-.00964-.209-.015-.31372-.02209a12.98145,12.98145,0,0,1-5.2478-3.60986C392.80615,574.15637,391.79114,569.38623,393.73865,565.061Zm56.28363-21.04687a3.85505,3.85505,0,0,1-2.55341-.6106,3.14159,3.14159,0,0,1-.45538-4.147,2.18273,2.18273,0,0,0-3.37512-2.76868l-.00983.01208a7.4929,7.4929,0,0,0,1.13416,10.32886,7.92729,7.92729,0,0,0,5.23181,1.56653q-.01309,1.16986-.03241,2.33875a46.53574,46.53574,0,0,0-7.62311,15.735l-1.49658-4.13416,3.96838-10.506a1.89164,1.89164,0,1,0-3.53925-1.33679l-2.40833,6.37573-3.79993-10.49658a2.16635,2.16635,0,0,0-.19177-.77954c-.04419-.09595-.09241-.19043-.1391-.28552a12.98813,12.98813,0,0,1,.50293-6.347c1.59882-5.21582,5.22247-8.48,9.94128-8.95544a9.71153,9.71153,0,0,1,4.69781.71814Q450.01022,537.324,450.02228,544.01416Zm-4.06915,56.08154-3.98138,1.48413.95807-5.6897c.0036-.02173.00446-.04321.00763-.06494.00616-.04492.01208-.09009.01575-.1355.00311-.0376.00421-.07483.00543-.1123.00122-.03625.0022-.07251.00171-.10889-.00067-.0437-.00311-.087-.00623-.13037-.00214-.03027-.00433-.06055-.00775-.09082-.00507-.046-.01184-.09155-.01965-.137-.00482-.02832-.00989-.05676-.01575-.085-.00934-.04419-.02014-.08765-.03186-.1311-.00824-.0304-.01691-.06067-.02637-.09094-.01233-.03906-.02588-.07751-.04028-.1156-.01276-.03418-.026-.06787-.04034-.10144-.01428-.03308-.02954-.0658-.04517-.098-.01776-.03662-.03613-.07275-.05573-.10864-.01617-.02881-.03308-.05737-.05029-.08569-.022-.036-.04449-.07153-.06854-.10657-.01923-.028-.03943-.0553-.05988-.0824-.02417-.032-.04852-.06372-.07452-.09473-.02545-.03064-.05219-.05957-.07922-.08862-.0235-.02539-.04663-.05054-.07135-.075-.03436-.03394-.07043-.06592-.10681-.09778-.0152-.01306-.02856-.02747-.04407-.04041l-4.44861-3.67432,5.40649-2.01538.00549-.00244a2.35114,2.35114,0,0,0,.2146-.09668c.02252-.01123.04681-.02.06873-.03162.03406-.01843.06531-.04114.09839-.06116a2.31082,2.31082,0,0,0,.59351-.50513l.00122-.00159.00146-.00159a2.31077,2.31077,0,0,0,.38354-.67749c.01355-.03638.03009-.07166.04169-.10889.00745-.02368.01147-.04932.01813-.07336a2.34069,2.34069,0,0,0,.05438-.22913l.00146-.00586.95795-5.68994,2.55634,2.11145Q447.19421,591.42529,445.95313,600.0957Zm-13.74731-8.45044c.04352.0105.08789.01721.132.02527l5.777,4.77185-1.24408,7.3894c-.02808.03516-.05707.06909-.083.10547-7.157,3.26538-17.56049,5.17139-26.09357,2.72632C415.54443,599.2301,424.65771,593.86133,432.20581,591.64526Zm-14.57922-26.15649c8.8631.48376,18.069,5.69141,23.76221,11.12073.01257.0426.02875.084.0437.1261l-1.2442,7.38965-7.02118,2.61719c-.04413-.00684-.088-.015-.1322-.01929C426.62805,582.15771,419.77563,574.10107,417.62659,565.48877Zm17.42645-7.20032-5.99438-3.24377a1.89166,1.89166,0,1,0-1.80054,3.32739l9.87714,5.345,1.57452,4.105c-5.63007-3.75342-12.54657-6.74634-19.44531-7.44824q.44073-.22925.86615-.50122a8.30879,8.30879,0,0,0,3.89111-5.31226,7.493,7.493,0,0,0-5.90308-8.55127,2.18277,2.18277,0,0,0-.75543,4.29968,3.14187,3.14187,0,0,1,2.37024,3.43323,4.1629,4.1629,0,0,1-1.95825,2.45532,5.37185,5.37185,0,0,1-3.80743.89722c-3.04181-.7522-5.1947-4.35486-5.297-7.2478a9.37932,9.37932,0,0,1,4.02435-7.73535c3.87952-2.72913,8.75549-2.63306,13.37805.26343A12.98327,12.98327,0,0,1,430.608,546.844c.027.10229.05237.20532.08167.30664a2.17429,2.17429,0,0,0,.36951.72583Zm-34.01172,27.81067c.101.02759.20178.05688.30322.08191a2.169,2.169,0,0,0,.802.041l11.02557,1.74927-5.80682,3.5697a1.8918,1.8918,0,0,0,1.98145,3.22327l9.568-5.88171,4.34247.68872c-6.06622,2.99939-12.11719,7.49341-16.17493,13.11792.01477-.33154.01581-.66626.00018-1.00256a8.30675,8.30675,0,0,0-2.65509-6.02527,7.49252,7.49252,0,0,0-10.3573.83691l-.00995.01172a2.18276,2.18276,0,0,0,3.35614,2.79175,3.14168,3.14168,0,0,1,4.15851-.33594,4.16041,4.16041,0,0,1,1.14691,2.9231,5.37968,5.37968,0,0,1-1.12653,3.74622c-2.1723,2.25818-6.36884,2.32117-8.92554.96338a9.37868,9.37868,0,0,1-4.68665-7.35278c-.42358-4.72449,2.09735-8.899,6.91711-11.4541A12.98208,12.98208,0,0,1,401.04132,586.09912ZM397.11011,618.511c1.04315-2.69922,4.25757-5.39941,7.37836-5.11377a5.371,5.371,0,0,1,3.30365,2.09448,4.1594,4.1594,0,0,1,1.04626,2.96094,3.14138,3.14138,0,0,1-3.36371,2.468,2.1827,2.1827,0,0,0-.69446,4.30981,7.49264,7.49264,0,0,0,8.37781-6.14673,8.30733,8.30733,0,0,0-1.93683-6.2937q-.31183-.39569-.65387-.75684c6.74841,1.5957,14.26379,1.03247,20.81256-.67078l-2.832,3.36328-11.0835,1.816a1.89177,1.89177,0,0,0,.61176,3.73376l6.72681-1.10242-7.18292,8.5304a2.17565,2.17565,0,0,0-.587.56506c-.06042.08557-.11761.17383-.17615.26086a12.9831,12.9831,0,0,1-5.75043,2.73987c-5.316,1.22314-9.95471-.28259-12.72662-4.13171A9.37922,9.37922,0,0,1,397.11011,618.511Zm21.53583,18.98584a12.98141,12.98141,0,0,1,1.60492-6.16455c.0744-.07373.15015-.14648.22247-.22168.03894-.04053.07574-.082.11084-.12451a2.16647,2.16647,0,0,0,.33466-.56079l7.01868-8.663.18787,6.81384a1.89174,1.89174,0,1,0,3.782-.10425l-.30963-11.22729,2.76788-3.41626c-.43573,6.75293.43042,14.2395,3.272,20.56543q-.41858-.26733-.86664-.49927a8.30631,8.30631,0,0,0-6.5462-.71387,7.49261,7.49261,0,0,0-4.454,9.38818,2.18284,2.18284,0,0,0,4.10132-1.49609,3.14193,3.14193,0,0,1,1.78784-3.76953,4.16181,4.16181,0,0,1,3.10571.46875,5.3713,5.3713,0,0,1,2.6806,2.84863c.86963,3.01038-1.17346,6.67554-3.62823,8.2113a9.37773,9.37773,0,0,1-8.71149.382C420.80353,647.21924,418.44867,642.94849,418.64594,637.49683Zm29.94781-60.45923-2.47827-2.04712c-.0163-.04187-.03137-.08423-.04993-.125a44.26029,44.26029,0,0,1,3.55084-13.3147Q449.25677,569.32617,448.59375,577.0376ZM413.457,458.41919a18.93232,18.93232,0,0,0,17.30231,4.14014,52.651,52.651,0,0,1,1.22449,27.94385,52.66572,52.66572,0,0,1-23.58813-15.03174,19.81182,19.81182,0,0,0,4.50629-7.39917,18.70615,18.70615,0,0,0,.90491-5.86768A21.13789,21.13789,0,0,0,413.457,458.41919Zm9.98773-2.22168c-4.3537-.89185-9.25879-5.06909-9.62207-9.865a8.27035,8.27035,0,0,1,2.32935-5.53528,6.385,6.385,0,0,1,4.215-2.3385,4.82229,4.82229,0,0,1,4.5929,4.46277,3.35075,3.35075,0,0,0,6.70142-.02283v-.02393a11.50269,11.50269,0,0,0-11.43964-11.11584,12.75367,12.75367,0,0,0-9.03326,4.536q-.51883.572-.97772,1.181c.07178-1.097.111-2.20007.111-3.308a70.31646,70.31646,0,0,0-6.43085-28.02319l5.81116,3.42883,5.57391,16.31482A2.904,2.904,0,1,0,420.772,424.011l-3.383-9.90186,14.74377,8.69922a3.34071,3.34071,0,0,0,1.00464.74451c.14459.06946.29248.13355.43921.19971a19.93656,19.93656,0,0,1,5.61383,8.00635c.0799.19275.14508.38416.2196.57642.54431,2.67078,1.07819,5.35,1.58081,8.05481a16.42926,16.42926,0,0,1-4.81171,11.687A14.39533,14.39533,0,0,1,423.44476,456.19751Zm-50.16125.58362-.162-17.11389,6.88367,7.88062a2.9039,2.9039,0,1,0,4.374-3.8208l-11.34222-12.98511-.06378-6.74878c6.08582,8.418,14.42981,16.43188,23.97687,21.1405q-.75641.0932-1.51379.25623a12.75162,12.75162,0,0,0-8.44531,5.55493,11.50153,11.50153,0,0,0,3.90668,15.46509,3.35073,3.35073,0,0,0,3.3913-5.78,4.823,4.823,0,0,1-1.56921-6.209,6.388,6.388,0,0,1,4.13379-2.48145,8.24588,8.24588,0,0,1,5.95734.75073c3.97223,2.71277,5.13727,9.04785,3.73322,13.26514a14.39542,14.39542,0,0,1-9.93646,8.96851c-7.04285,1.8457-14.00482-.90662-19.101-7.55151a19.92727,19.92727,0,0,1-4.12683-8.86475c.01593-.15991.03442-.32007.04651-.47974.00653-.08618.00958-.17114.00958-.25586A3.325,3.325,0,0,0,373.28351,456.78113Zm-17.38385-8.95666a2.904,2.904,0,0,0,4.09735-.27661l6.88354-7.88086-.16193,17.11768a3.33812,3.33812,0,0,0-.14227,1.24268c.01208.1604.03058.32068.04651.481a19.927,19.927,0,0,1-4.12714,8.86414c-5.09583,6.64453-12.0578,9.39709-19.10114,7.55164a14.3981,14.3981,0,0,1-9.93616-8.96851c-1.40424-4.21436-.23926-10.55225,3.73334-13.26514a8.24473,8.24473,0,0,1,5.95746-.75073,6.38553,6.38553,0,0,1,4.13281,2.48145,4.82231,4.82231,0,0,1-1.5683,6.20911,3.35057,3.35057,0,0,0,3.3913,5.77966,11.50129,11.50129,0,0,0,3.90631-15.4646,12.75265,12.75265,0,0,0-8.44495-5.55542q-.756-.16333-1.51373-.25623c9.54681-4.70862,17.89044-12.72253,23.97614-21.14l-.0639,6.74878-11.342,12.98462A2.9035,2.9035,0,0,0,355.89966,447.82446Zm-28.799,20.24866a19.808,19.808,0,0,0,4.506,7.39832,52.65946,52.65946,0,0,1-23.588,15.032,52.659,52.659,0,0,1,1.22437-27.94373,18.93109,18.93109,0,0,0,17.299-4.13745A19.85253,19.85253,0,0,0,327.10065,468.07312Zm2.69293-30.59131c-.30676-.40686-.63257-.80383-.98-1.18665a12.75165,12.75165,0,0,0-9.03265-4.53564,11.50236,11.50236,0,0,0-11.43976,11.11572l-.00012.02393a3.35057,3.35057,0,0,0,6.701.02271,4.82317,4.82317,0,0,1,4.5932-4.46265,6.386,6.386,0,0,1,4.215,2.33826,8.25882,8.25882,0,0,1,2.329,5.535c-.36334,4.79614-5.26831,8.97314-9.62158,9.86572a14.39634,14.39634,0,0,1-12.73468-4.12061c-5.11993-5.17725-6.21753-12.5824-3.011-20.31812a19.9213,19.9213,0,0,1,5.61377-8.00635c.14648-.06628.29419-.13037.43866-.19983a3.32453,3.32453,0,0,0,.98932-.73523l14.75909-8.70837L319.23,424.01111a2.904,2.904,0,0,0,5.49609,1.87769L330.3,409.57422l5.81281-3.42993C331.86542,415.62427,329.09735,426.85815,329.79358,437.48181ZM305.16882,349.5l14.32257,8.08936-10.26544,2.021a2.90382,2.90382,0,0,0,1.12189,5.69824l16.91486-3.33008,5.87646,3.31909c-10.33258,1.06177-21.44415,4.281-30.295,10.19446q.29745-.70221.535-1.44006a12.7538,12.7538,0,0,0-.58807-10.09082,11.502,11.502,0,0,0-15.346-4.34985,3.3508,3.3508,0,0,0,3.30951,5.82739,4.822,4.822,0,0,1,6.16132,1.74609,6.38855,6.38855,0,0,1,.08264,4.82019,8.24575,8.24575,0,0,1-3.62885,4.78394c-4.33539,2.08337-10.40533-.07568-13.35431-3.39929a14.3976,14.3976,0,0,1-2.79913-13.08923,16.58968,16.58968,0,0,1,9.212-10.80041ZM420.06,363.41931a40.7575,40.7575,0,0,0,1.123,4.7428,77.09179,77.09179,0,0,0-14.32074-2.865l5.87628-3.31934Zm12.84845,41.48376q1.66937,6.16351,3.18329,12.45923a3.37845,3.37845,0,0,0-.6767-.23938l-14.90552-8.4187,10.26654-2.02136A2.89572,2.89572,0,0,0,432.90845,404.90308Zm-.90778-3.34314a2.88547,2.88547,0,0,0-2.3465-.57556l-16.91571,3.33057-5.87622-3.319a73.04079,73.04079,0,0,0,23.16-6.24C430.69525,397.01233,431.36139,399.27441,432.00067,401.55994Zm-36.89941-8.34509c-.0564-.03809-.11639-.07129-.175-.10632l-5.75153-9.96179,5.75122-9.96143c.05914-.03516.11932-.06885.17615-.10718a67.07971,67.07971,0,0,1,29.47693,4.77344q1.58276,4.55109,3.06531,9.19092C417.42676,392.137,404.95111,393.91846,395.10126,393.21484Zm6.94757,45.4397c-12.49353-5.44983-22.94635-17.88281-28.223-28.74719.00446-.0658.0119-.131.01276-.19666l5.74939-9.95923H391.09c.06.03394.11926.06909.181.09912C398.03839,409.85254,403.57562,425.11414,402.04883,438.65454Zm7.6524-81.93506-5.8103,3.42822A78.0639,78.0639,0,0,0,407.75446,349.5h4.41339Zm-18.43024,9.7229c-.06213.03027-.12164.06567-.18195.09961H379.588l-5.75-9.95923c-.00079-.06543-.00818-.13037-.01263-.19556a62.59858,62.59858,0,0,1,3.9552-6.88721H399.393A67.74849,67.74849,0,0,1,391.271,366.44238Zm-25.10162-10.06885c-.00494.06885-.004.13818-.00488.2074l-5.75092,9.96106H348.91168c-.06024-.03369-.11957-.06934-.1814-.09937A67.74421,67.74421,0,0,1,340.608,349.5H362.2207A62.587,62.587,0,0,1,366.16937,356.37354Zm-21.09375,36.735c-.05878.03491-.11871.068-.17529.10632-12.04559.86011-28.03168-1.9762-38.99438-10.06812,10.96271-8.0918,26.94879-10.92822,38.99438-10.068.0564.038.11621.07129.1748.1062l5.75159,9.96228Zm15.33826,6.64294,5.75146,9.96191c.001.06885-.00006.13745.00476.20581-5.27814,10.86133-15.72748,23.28735-28.21667,28.73535-1.52649-13.53906,4.0105-28.80225,10.77759-38.804.06165-.03.12085-.06519.18085-.09912Zm-24.30219-39.603-5.81274-3.42981L327.83252,349.5h4.41626A77.95979,77.95979,0,0,0,336.11169,360.14844Zm-13.49957-7.96521L318.06439,349.5h3.63092Zm-39.5343,30.9635a18.93234,18.93234,0,0,0-12.2298,12.91162,52.65751,52.65751,0,0,1-24.81146-12.91162,52.65791,52.65791,0,0,1,24.81158-12.91162,18.93318,18.93318,0,0,0,12.22968,12.91162Zm-3.06262,9.75732c2.94922-3.32373,9.01916-5.48279,13.35455-3.39941a8.246,8.246,0,0,1,3.62885,4.78418,6.392,6.392,0,0,1-.08264,4.82007,4.82234,4.82234,0,0,1-6.16113,1.74585,3.3506,3.3506,0,0,0-3.31,5.82666,11.5016,11.5016,0,0,0,15.34631-4.34888,12.75142,12.75142,0,0,0,.58807-10.09106q-.2363-.73682-.535-1.43982c8.8512,5.9137,19.96326,9.13293,30.29626,10.19434l-5.87665,3.31921-16.916-3.33032a2.90394,2.90394,0,0,0-1.12189,5.69849l10.26654,2.02112-14.90576,8.41907a3.33817,3.33817,0,0,0-1.14722.4978c-.13269.09058-.26215.18677-.39282.28076a19.92667,19.92667,0,0,1-9.74.85767c-8.30243-1.09058-14.16711-5.7439-16.09039-12.7666A14.395,14.395,0,0,1,280.0152,392.90405Zm85.55725,1.48657c-.01678-.02893-.03674-.05518-.05432-.084-.0368-.05933-.07367-.11853-.11383-.17578-.03308-.04749-.06824-.09253-.10321-.13818-.03424-.04419-.06842-.088-.10461-.13062-.04358-.051-.08875-.1001-.13477-.14819-.0321-.03369-.06427-.06738-.09784-.09985-.051-.04956-.10352-.0968-.1571-.14282-.03351-.02893-.06726-.05762-.10193-.08545-.0542-.043-.1095-.084-.16577-.12378-.03943-.028-.07947-.05542-.12012-.08191-.0528-.03406-.10632-.06628-.16077-.09753-.04834-.02783-.09717-.05493-.147-.08057-.04913-.02515-.09906-.04883-.14929-.0719-.0567-.026-.11371-.05066-.172-.07385-.04736-.01855-.09515-.03552-.14325-.05249-.06122-.021-.12268-.04114-.18536-.05908-.05017-.0144-.10071-.02686-.15155-.03894-.05981-.01416-.11969-.0282-.18073-.03931-.05994-.01111-.12-.01953-.18048-.02747-.05237-.007-.10455-.01416-.15765-.019-.07367-.00647-.14771-.009-.22186-.011-.03076-.00073-.06073-.00464-.09161-.00464H353.6203l4.42853-7.67041.00409-.00842a3.54236,3.54236,0,0,0,.15942-.3241c.01575-.03528.03595-.06934.05048-.10461.02234-.05493.037-.11243.0567-.16858a3.54922,3.54922,0,0,0,.20868-1.17786l-.00024-.00305.00024-.00354a3.5491,3.5491,0,0,0-.20837-1.17664c-.01965-.05652-.03448-.11426-.057-.16968-.01453-.0354-.03473-.06946-.05048-.10461a3.60769,3.60769,0,0,0-.15942-.32422l-.00409-.00842L353.62,373.68945h8.85742c.03107,0,.061-.00391.0918-.00488.074-.00171.14783-.00439.22131-.011.05347-.00464.10614-.012.15887-.019.05981-.00793.11951-.01611.17877-.02722.06177-.01123.12244-.02527.183-.03979.04987-.012.09961-.024.14874-.03821.06372-.01807.12616-.03857.18829-.06006.04706-.01648.09393-.0332.14038-.05164.0592-.02332.11725-.04846.17493-.07483.04913-.02246.09766-.04553.14581-.07031q.07663-.03955.15112-.08289c.0528-.03027.10474-.06152.156-.09485.0426-.02734.08423-.056.12555-.08533.05432-.03845.10773-.078.16-.11975.03662-.02917.07233-.05945.10779-.09033.0517-.04419.10236-.08984.15167-.13757.03546-.03442.06946-.06982.10352-.10547.04395-.04651.08746-.09338.12927-.14246.03815-.04468.07434-.09119.11035-.13794.0332-.04285.06641-.08582.09784-.13074.04218-.06006.08105-.12219.11957-.18494.01611-.02637.03455-.05054.05017-.07739l4.42834-7.67041,4.42865,7.67041c.01819.03149.03961.05981.05865.09033.035.05664.07.113.108.167.03473.04993.07153.09741.10846.145.03259.04211.065.08374.09937.12427.04492.053.09174.10339.1394.1532.03064.03235.06128.06433.09326.09534.05212.05078.10583.099.16058.146.03265.02808.06543.05591.09906.08276.05493.04382.111.08545.168.12573.03888.02734.07806.05444.11792.08032.05341.03467.10767.06738.16272.09888q.07169.0412.14514.07935c.04987.02588.10022.0498.151.07275.05627.02588.113.05054.17072.07324.04761.0188.09552.03613.14392.05273.0611.02112.12256.04126.18512.05908.05023.0144.10065.027.15137.03906.05988.0144.12.0282.18121.03931.05963.01123.11963.01941.17975.02734.05267.00708.10492.0144.15826.019.07361.00659.14734.009.2215.011.03076.001.06079.00488.09174.00488h8.85681l-4.42847,7.67017c-.01605.02783-.0282.05713-.04346.08508-.03442.0636-.0683.1272-.09875.19275-.02356.05029-.04431.10132-.06537.15234-.022.054-.04395.10742-.06342.16235-.02179.06128-.04071.12256-.059.18433-.01392.04724-.02765.09448-.03967.14221-.0166.066-.03052.1322-.04321.19873-.009.04675-.01746.09375-.0246.141-.0097.06494-.01721.12988-.02325.19507-.00494.05188-.009.10376-.01166.156-.00287.0592-.004.11816-.004.17725,0,.05933.00116.11816.004.17737.00269.05212.00671.10413.01166.15613.006.06519.01355.12988.02325.19507.00714.04736.01563.094.0246.14087.0127.06665.02661.13257.04321.19873.012.04785.02576.09485.03967.14209.01831.06189.03723.12329.059.18445.01947.05481.04138.10852.06342.16248.02106.05078.04181.10181.06537.15234.03046.06531.06433.129.09875.19263.01526.02808.0274.05713.04346.085l4.42865,7.67041h-8.857c-.03094,0-.061.00391-.09174.00464-.07416.002-.14789.00452-.2215.011-.05334.00488-.10559.01209-.15826.019-.06012.00806-.12012.01636-.17975.02747-.06122.01111-.12134.0249-.18121.03931-.05072.01208-.10114.02454-.15137.03894-.06262.01794-.12421.03809-.18536.05908-.04816.017-.09589.03394-.14337.05273-.058.02271-.11493.04761-.17139.07349-.05072.02295-.10089.04688-.15045.07251-.04926.02515-.09747.052-.14532.07959-.05511.03149-.10931.06421-.16284.09888-.03973.02563-.0788.05261-.11749.08008-.05725.04028-.11353.082-.16852.1261-.03363.02673-.06622.05432-.09875.08264-.05481.04688-.10858.095-.16071.14587-.032.031-.06262.06311-.09326.09534-.04767.0498-.09448.1001-.1394.15308-.03436.04065-.06677.08252-.09937.12427-.03693.04785-.07373.09509-.10846.145-.038.05444-.07294.1106-.108.167-.019.03076-.04047.05908-.05865.09033l-4.42834,7.67065Zm54.243-43.63892-2.42676,1.43188.91687-2.68359h1.67786C419.914,349.91553,419.87207,350.33447,419.81543,350.75171ZM249.83337,40.5a23,23,0,1,1-23,23A22.99989,22.99989,0,0,1,249.83337,40.5Zm25.35468,309c-2.03713,2.5595-2.60181,9.19534-4.78348,11.17417-2.60592,2.36363-11.8982,3.69183-15.46042,5.49887-5.88213,2.98388-13.097,6.84156-17.10857,12.29979-3.56787,4.85458-2.77163,6.53121,1.572,11.16194,4.47234,4.768,10.39227,8.40547,16.27463,11.16a56.59709,56.59709,0,0,0,9.83581,3.62338c5.42112,1.383,3.05284.16275,5.23541,3.345,3.306,4.82024,4.01464,9.10055,9.24843,12.80849a28.94394,28.94394,0,0,0,16.30943,5.11986c-3.00832,5.389-5.03847,11.58964-4.02771,17.78381,1.01979,6.24952,7.37352,11.494,8.05219,16.13672.48347,3.30735-2.4325,9.37491-2.81364,12.94479a56.69627,56.69627,0,0,0-.21222,9.94273c.29966,4.30382.7838,14.27589,5.43021,16.62383,5.12848,2.59154,14.36916-2.40112,18.68712-4.58157a64.44991,64.44991,0,0,0,7.9552-4.72731c2.88692-2.02526,6.20371-6.76055,9.23091-8.1031,4.18767-1.85721,11.78269,1.00721,17.59973-1.31369a28.86458,28.86458,0,0,0,13.78833-12.16141c5.09,8.52691,13.87728,14.66452,24.07581,13.8667,2.19786-.17194,5.36758-1.58031,6.9518-.93042,1.33861.54913,3.40312,3.7659,4.69068,4.96336a56.44614,56.44614,0,0,0,15.75224,10.65236c11.52149,4.999,18.865,3.34355,20.6403-9.56409a62.42765,62.42765,0,0,0-.64352-20.82347c-.42684-2.11259-2.672-6.24545-2.37466-7.952.17391-.99814,3.54354-3.54023,4.21118-4.46741q2.48,15.799,3.99208,31.7298c.92676,9.63285,4.37063,23.64,2.22063,33.08514-2.19745,9.65361-11.508,6.44055-16.43842,14.30815-2.24786,3.587-1.11823,5.59713-4.25537,5.76082-3.94574.20588-7.16238-4.02708-12.26507-3.01978-2.40457.47468-5.44027,3.62312-7.64179,3.7041-2.62236.09646-8.40771-3.61546-11.25039-4.1836-6.90543-1.38011-16.93371-3.14416-16.227,6.10038.57908,7.57539,6.19511,12.49019,7.98541,19.11442.94248,3.48723-1.26024,6.98752-.78226,10.76468a18.60768,18.60768,0,0,0,6.51391,11.53126c-3.71793,1.44732-7.35894,3.74577-9.40088,7.261-2.06464,3.55431-.82142,8.42443-2.26544,11.27216-2.86657,5.65309-19.2421,11.58206-15.5694,21.01569,3.296,8.466,19.47386,4.36983,25.24139,6.13745,2.49788.76554,4.899,4.82693,8.10863,6.17763a18.62761,18.62761,0,0,0,13.24671.07652c-1.26932,8.27028,2.27658,12.43994,7.62882,17.72762,2.84707,2.81274,2.30691,1.74864,2.99641,6.68305.64087,4.58642,4.15269,9.18479,4.57662,13.38083.37823,3.74373-3.22669,10.36037-4.4194,13.96794q-2.54,7.68259-5.295,15.29171-5.02356,13.90017-10.70661,27.55005a691.65731,691.65731,0,0,1-44.20831,87.86778c-2.57792-22.15992-14.86125-43.124-39.12866-43.36572,10.11782-5.67171,22.00253-8.33133,33.52961-6.54606,6.25156.96822,11.382,3.20051,16.8288,6.21418,2.5296,1.3996,8.81759,5.77243,8.2396.85728-.85678-7.28606-20.54634-11.04421-25.593-11.6413a48.73944,48.73944,0,0,0-34.60567,9.01423c4.52394-6.69757,8.32533-14.88512,13.5278-21.02678,2.78367-3.2862,5.34073-3.63868,9.14937-5.42291,1.4933-.69956,7.34417-5.44508,8.55163-5.27431,3.92782.55548,12.353,17.79048,15.03177,16.31775,5.76184-3.16778-9.11575-16.00965-11.31485-17.38611a23.883,23.883,0,0,1,14.93423,1.12422c1.9004.79891,7.2728,5.14287,8.46933,1.67949,2.63649-7.63139-16.41593-9.10447-19.7832-8.33789a105.09892,105.09892,0,0,0,8.26811-9.04271c1.39456-1.742,4.90413-9.39282,6.56528-10.10071,2.03224-.866,6.10822.96225,8.913-.22883a13.40542,13.40542,0,0,0,5.08456-3.88655c9.37474-11.54724-5.61392-25.92735-17.14832-16.82791a12.1107,12.1107,0,0,0-4.86642,7.94981c-.57631,4.34469,3.7109,7.16782,3.68942,10.22576-.01724,2.45413-4.26776,6.48035-5.65125,8.32441a94.41892,94.41892,0,0,1-9.11653,10.77683c-3.819,3.76831-11.10584,11.88751-16.80846,12.74056,2.71974-9.825,8.50929-19.10469,11.63683-28.953,3.07885-9.695,3.48534-22.74885,8.0305-31.63872,2.2925-4.48389,7.87655-6.68387,9.3138-11.85052,2.64494-9.50811-6.85216,3.00516-8.70508,5.70409,2.42993-3.53939-1.141-10.588.91885-13.28108.22812-.29825,6.275-2.15819,7.19431-3.00027a12.2569,12.2569,0,0,0,3.86907-6.8326c2.12959-13.14246-16.7106-18.13336-21.51069-5.91422-2.82512,7.19164,2.09118,8.45343,4.13626,13.75459,1.04325,2.70427-.30321,6.999-.659,9.74266-.59537,4.59122-1.15422,9.21349-1.85352,13.78714-.973,6.36391-4.61239,13.9387-4.35473,20.29442a157.8169,157.8169,0,0,0-2.79714-26.19409,73.66189,73.66189,0,0,0-3.51728-12.08866c-1.49986-3.775-2.836-5.04123-1.725-8.06953,2.04688-5.57914,6.30806-7.7768,3.58605-14.94239a12.92275,12.92275,0,0,0-14.6042-8.10182c-10.161,2.07993-13.96706,16.4085-6.17606,23.221,3.31721,2.90058,8.344,1.118,11.00348,2.91769,1.91069,1.293,3.49039,9.75007,4.08818,11.97543,1.4235,5.29916,2.14843,10.76374,3.29943,16.12178.39744,1.85012.6656,7.0722,1.99649,8.70809-1.75094-2.15226-11.27762-21.87893-13.37055-18.78576-1.52257,2.25023,4.95044,11.09393,6.16824,13.22213,2.39647,4.188,5.31771,8.41216,6.77631,13.03913a26.40539,26.40539,0,0,1,.29843,14.23491c-1.058,4.33541-5.10433,8.61718-5.22245,12.98315.15005-5.59313-4.32471-13.87932-7.82786-18.10013-7.3767-8.88792-5.79174-.01655-2.76324,5.66958,2.88661,5.41972,7.95237,12.32112,7.22727,18.78876-.88079,7.85628-8.76889,16.1844-12.76651,22.8246-2.51382,4.17555-6.01112,13.79226-12.399,12.46358-6.75649-1.40533-5.81-12.73394-6.14029-17.42358-1.3135-18.64892-2.81782-37.28292-4.18785-55.9274-.50448-6.8653-1.361-10.19368,5.18813-13.14151,5.891-2.6516,10.50169-4.81475,10.69827-12.25217.14881-5.62994-2.88155-10.92679-4.84228-16.013a57.98228,57.98228,0,0,1-3.33261-25.73991c2.25961-29.38464,15.00539-65.92035-13.85464-87.20083-6.63779-4.8945-15.32553-8.79845-23.636-9.38593-8.13675-.57519-20.17771,5.95479-27.78563,2.65773-7.20695-3.12329,3.21671-18.68889-1.55543-21.20156,9.27094,4.88143,21.01877-6.13845,24.10713-14.0654,4.76355-12.22666-1.26389-24.69576-7.11392-35.36194-6.16612-11.24248-12.00339-21.56054-14.32618-34.35041-.58847-3.24029-.04374-6.79959-3.53665-5.026-2.77581,1.40949-6.72681,12.87648-8.46668,15.6053-11.4599,17.97377-32.18786,44.16454-14.50972,65.86778,3.29959,4.05087,7.58567,5.82815,12.69407,6.22341,4.14084.3204,6.82882-1.67106,8.33382,2.05921,1.34562,3.33523-4.43577,17.8578-.79245,19.5573-25.20334-11.75656-57.7201,4.59034-67.48049,28.84226-4.58761,11.399-6.03809,23.82863-7.21534,35.96314-1.46469,15.09738-3.01188,30.117-.20732,45.17825,1.111,5.96631,2.04537,14.74586,8.18138,17.71781,3.32409,1.61,6.82747-.64007,8.49456,1.802,2.90187,4.25084,1.23962,17.89947,1.4299,22.75307.94745,24.16742.28962,48.29906-.05187,72.47834-6.33949-5.67911-12.87428-10.82735-18.77319-17.0066-4.34137-4.5477-10.17551-8.20487-8.85508-14.49874.67956-3.23914,11.98557-13.465,10.55476-15.23706-2.63908-3.26851-10.12781,8.00531-11.0079,9.94991.69354-5.127,1.545-9.53647,4.05062-13.98685,2.74207-4.8703,6.37-6.615,9.92357-10.39262,8.75547-9.30755-9.89455,2.0076-8.84105,3.39118-2.04944-2.69157,5.84932-11.0885,7.49935-12.59955,1.19806-1.09715,10.3886-6.48752,9.31276-8.18871-1.2246-1.93642-8.20112,3.77871-9.28345,4.70624,1.47208-2.49789,9.79814-11.72494,9.14945-14.26411-.95769-3.74875-7.7609,6.10874-8.31168,6.8872,1.52709-2.15834,3.64088-9.04467,2.35144-11.53-1.29849-2.50278-5.37979,10.44327-5.56812,11.3405-1.63491,7.78876-5.42946,13.88864-8.20667,21.38232.00953-1.18454,3.59789-18.2316,3.14077-18.45926-4.47884-2.23059-6.61235,30.20228-6.864,31.325-.26116-1.39187-.7481-12.5659-2.58127-12.29834-2.75561.40219-.97768,10.94149-.769,12.55176.68764,5.30485,1.62967,9.16486,1.14972,14.55615-5.35542-7.24377-6.61145-12.4779-6.40237-21.74725.01767-.78335.94728-8.749-1.589-5.99734-1.91829,2.08119-.65118,12.45292-.5816,15.15817-4.66814-7.39215-10.22961-15.92912-11.36812-24.55862-1.332-10.09647-2.00289-19.77242,1.36488-29.61276,15.93972,11.51579,28.93625-25.44394,5.02922-25.27779-8.39074.05831-15.2627,8.34483-12.899,16.6549.6189,2.17587,2.9572,3.85163,3.52355,5.69258.76086,2.47322-.10881,3.32553-.93552,6.48861a63.97078,63.97078,0,0,0-1.55865,14.20151c-3.32735-8.77393-3.97195-18.82648-4.27-28.12376-.11369-3.54639-.15092-7.15262.07028-10.6979a45.713,45.713,0,0,1,.62843-5.86023,8.71951,8.71951,0,0,0,2.66427-.03629c5.09615-2.989,9.43948-3.9537,10.37375-11.02939a13.60128,13.60128,0,0,0-9.8273-14.78642c-12.15617-3.41245-22.98753,12.07336-13.85162,21.74561a13.19624,13.19624,0,0,0,4.26185,2.94094q4.32369.1922,1.77332,3.809c.40449,2.79787-.61123,6.44845-.6838,9.27381a108.25872,108.25872,0,0,0,2.42,25.20837c-.6486-3.05316-3.716-5.11159-4.32186-8.44528-.14888-.8192.72649-7.28715-.27438-7.418-1.608-.21016-1.24313,4.88374-1.244,5.02-1.77539-4.41174-2.82932-7.7705-2.477-12.45475.17059-2.268,2.25919-6.40975,1.70323-8.39162-1.19541-4.26139-5.19792-.49682-4.53874,2.31658-.30021-1.2813-.70661-8.27117-3.41577-7.56972-3.14672.81473,1.79024,17.7109,2.34059,19.31372-5.43067-6.21611-5.87782-3.31143-2.02332,2.69991,1.30443,2.03435,3.68558,3.38475,4.84045,5.03706,2.09926,3.00347,3.13565,7.33862,4.88831,10.61328-.3261-.24188-5.49263-4.6135-6.422-3.34929-2.03888,2.77345,8.553,8.119,9.84283,9.10833,5.77246,4.42739,7.15849,11.65874,9.66162,18.211a139.76412,139.76412,0,0,0,9.07456,19.75209c1.56512,2.74193,8.34446,10.10561,7.673,13.79567.10832-.59524-13.76948-15.35079-14.95168-18.32441-.54068-1.36-1.56307-11.09325-3.3208-10.50737-1.96157.65383-.83423,8.09426.39176,9.14593-2.32255-1.99231-5.0745-4.16463-8.06775-5.0441,1.44943.42542,1.34215-6.14772,1.33552-6.20592a12.431,12.431,0,0,0-4.15062-7.79661,13.30058,13.30058,0,0,0-17.45207-.69467c-10.41334,8.4711-2.7766,26.966,10.95213,23.86592,3.21969-.727,4.67108-3.69724,7.23-4.67165,2.75751-1.05,1.01-1.02983,3.87817-.22519,1.34156.37637,7.75885,4.58088,6.79843,6.40459-.91675,1.74079-9.64814,1.86728-2.37666,3.445,2.14342.46507,4.08109-1.51286,6.39539-.27532.97207.51981,2.61677,4.54546,3.782,4.33576-1.07787.19128-12.47809,5.13328-10.77177,7.27837,1.32317,1.66342,10.05916-5.54486,13.45659-3.73181,3.715,1.98251,6.74,8.02113,10.36181,10.616,1.00638-.08594-7.19228.779-4.20068,3.10621,1.7885,1.39132,6.08957-1.0379,8.20288-.40064,4.928,1.486,10.018,10.23431,13.57471,13.79639-8.821-2.52332-17.72429-4.05936-26.57648-6.30615-1.88747-.47906-9.47866-3.4664-10.58333-1.407-1.49871,2.794,9.15144,4.67615,11.01967,4.60229-8.85856.35066-17.12828-1.216-25.972-1.00736-1.27949.03018-9.05359-.22935-5.9974,3.4015,1.77071,2.10366,10.03771.616,12.60717.68887-2.46668.7066-5.217,2.142-7.71393,2.47021a4.676,4.676,0,0,0-4.41212-.76158q-3.74916,1.55-4.13916-2.49615c-4.57271-5.39357-7.0517-15.634-9.79223-22.15336q-9.77161-23.24549-17.66012-47.22341c-11.56606-35.35161-19.79281-71.905-23.06966-108.99135,1.73947.00159,7.11746-1.956,8.56708-1.58362.77257.19844,4.57516,5.05775,5.05115,5.50194a58.18191,58.18191,0,0,0,12.89384,9.2873c10.38622,5.34754,20.70688,7.092,23.18856-6.34545a60.0021,60.0021,0,0,0,.26634-19.24645c-.41455-2.89911-2.83917-7.63552-2.402-10.21992.285-1.68464,1.01371-1.9687,2.20646-3.88183,6.05148-9.70638,7.741-19.42858,1.81826-30.03821,2.9013,5.19661,20.09164-7.71928,22.25563-10.76735,1.75094-2.46627,2.08051-7.73152,3.80876-9.593,1.06537-1.1475,8.14174-1.924,9.97282-2.60542,7.23761-2.69326,15.42644-6.92792,20.79816-12.64641,12.05921-12.8377-13.84453-24.235-23.56617-27.436a54.22653,54.22653,0,0,0-5.90678-1.59649q-2.40515.46965-1.80493-2.5177c-2.31718-3.18527-2.88263-7.03907-5.825-10.12521-5.17231-5.425-12.369-7.69681-19.73353-7.80228,3.67242-6.58077,4.9793-14.63648,2.70065-21.91233-1.218-3.889-6.52148-7.68815-7.29776-10.84511-.47248-1.92148,2.55146-8.862,2.87184-10.97036,1.09248-7.18921,2.59622-19.19825-1.69382-25.68617-4.52144-6.83787-14.68227-3.499-20.691-.498A41.34737,41.34737,0,0,0,80.01685,349.5H275.188ZM114.02849,778.912c-.04082.32282.08224,1.81941-.359,1.84772-.25826.01657-.53159-.62782-.61782-.81366-.25652-.55283-.56407-1.08727-.83911-1.63176q-.878-1.73816-1.7463-3.4812-1.773-3.55922-3.50556-7.13843a20.02794,20.02794,0,0,1,7.40961-4.21912c1.74548-.6333,3.57544-1.21777,5.48987-1.73145a5.98683,5.98683,0,0,0-.49972.97793c-.46364,1.10906-1.30867,2.1139-1.86567,3.19214a28.54591,28.54591,0,0,0-1.65508,3.887,33.81059,33.81059,0,0,0-1.43222,6.62493C114.31313,777.16182,114.14023,778.02828,114.02849,778.912Zm2.96723,3.91887c.06063-1.16411-.08923-2.39511.00942-3.5903a40.37925,40.37925,0,0,1,1.50323-8.05838c1.07164-3.6457,2.91683-6.782,4.45568-10.21249.16187-.03516.32379-.07764.48566-.11279a69.02074,69.02074,0,0,1,10.24768-1.53369c.27454-.02148.53491-.03564.80945-.0498-5.98956,4.72266-6.426,14.33691-4.589,21.32568.52789,1.99951,3.7373,1.35889,3.56842-.68213-.366-4.42041-.9502-8.58691-.26044-12.46484.04224-.127.07037-.26074.11967-.38051a20.53154,20.53154,0,0,1,2.09868-3.96151,22.51487,22.51487,0,0,1,1.465-2.22856c.41343-.55442.98332-1.57121,1.66553-1.78178,1.42222-.439,3.47419.03093,4.9365.13579q1.91745.13749,3.82928.34241a33.75966,33.75966,0,0,0,3.41758.4557c-.57133-.08928-1.24125,1.26654-1.52616,1.63914-.56832.74325-1.28806,1.34718-1.831,2.124a13.81968,13.81968,0,0,0-2.16248,5.02407,17.35768,17.35768,0,0,0,.491,8.64184,4.4801,4.4801,0,0,0,.85409,1.73289,1.779,1.779,0,0,0,1.74432.60728c1.00128-.29187.89159-1.44642.76235-2.24659a35.60216,35.60216,0,0,1-.47608-3.62772,15.83181,15.83181,0,0,1,1.18677-7.20159c.9502-2.1958,3.118-3.9834,3.864-6.20068.05634.01367.11963.021.183.03516a84.71455,84.71455,0,0,1,8.52329,2.21679c-.14087-.04518-.93045,1.12953-1.02187,1.27356a4.57189,4.57189,0,0,0-.46834,1.24215c-.38867,1.23088-.98236,2.3747-1.317,3.63413a20.45565,20.45565,0,0,0-.53505,7.77622,2.51939,2.51939,0,0,0,.61515,1.583c1.99053,1.84975,2.63433-3.67845,2.81091-4.56182a78.73285,78.73285,0,0,1,2.40281-9.13182c.31567-.96115.86609-.73286,1.58934-.40747,2.71315,1.22067,5.60546,2.28067,8.25115,3.72881,1.65088.90362,3.2256,1.93616,4.801,2.96339.80855.52721,1.617,1.05483,2.4375,1.56331a18.00407,18.00407,0,0,1,2.40537,1.44439,27.85879,27.85879,0,0,1-4.06019.31437,35.70337,35.70337,0,0,0-3.79677.52129,22.33284,22.33284,0,0,0-7.39287,2.92074,38.5427,38.5427,0,0,0-18.27271,30.09717c-.50928,6.78516-1.47186,13.57422-1.6803,20.42432a63.03233,63.03233,0,0,0,1.37488,16.56934q-7.04846-10.773-13.7619-21.92578c-6.52362-10.85913-13.9375-23.90845-21.61823-38.77246a1.29466,1.29466,0,0,0,1.8524-1.05152Q116.99175,782.90747,116.99572,782.8309Zm68.58656,6.64273,4.96088,10.54736,6.73883-9.51025-3.923,11.00488,11.52332-1.92627-10.54742,4.96094,9.51031,6.73877-11.00482-3.92285,1.92615,11.52344-4.96088-10.54736-6.73877,9.51025,3.923-11.00488-11.52332,1.92627,10.54736-4.96094-9.51031-6.73877,11.00482,3.92285Zm44.53883-172.528a70.45437,70.45437,0,0,1-1.42124-9.17365,21.67134,21.67134,0,0,1,2.556-11.545c2.543-4.26789,8.22641-4.43857,10.10343.70479a12.4957,12.4957,0,0,1,.47505,5.441c-.21331,2.29182-.55362,4.56767-.888,6.8382-1.07448,7.29527-1.27923,14.90055,1.69251,21.806.72285,1.67969,1.99432,3.74911,3.8711,4.433a4.0982,4.0982,0,0,0,3.95818-.78546c.91262-.64558,2.05754-2.59692,3.311-2.44423,1.35341.16486,1.38049,1.7418,1.32495,2.7618-.75831,13.92488-2.9465,28.20043,6.04709,40.211,3.63112,4.84919,8.73668,6.06969,12.62079.89509,1.71342-2.28271,3.46006-5.54235,6.61108-5.94174,3.21866-.4078,5.83847,2.5602,7.16553,5.15308,1.16433,2.27493,2.20393,4.61277,3.40463,6.86957.8352,1.56966,2.20849,2.78581,3.05191,4.34326,1.08633,2.006.49779,4.53672.45207,6.717q-.09878,4.71085.25186,9.41753c-22.92065-10.77258-44.61111-24.07714-62.74409-41.9077q-4.22515-4.15469-8.16472-8.58732c-1.8191-2.04925-20.8182-24.45667-20.18479-25.085a7.28786,7.28786,0,0,1,11.90867,2.316,24.0048,24.0048,0,0,0,1.62523,3.30674,6.6792,6.6792,0,0,0,10.56006.95687C231.86219,629.07266,231.15748,622.52777,230.12111,616.94561Zm10.77013-134.77276c1.08484,7.34424,2.1499,13.66309,2.02173,18.291a17.14173,17.14173,0,0,1-.85651,5.395,3.41826,3.41826,0,0,1-2.143,1.8208c-.11365-.00391-.12964-.16211-.06317-.45264.06995-.28906.2298-.70654.3764-1.28711a22.12309,22.12309,0,0,0,.75659-5.18164c.20282-4.56934-.67645-11.07324-1.76367-18.4292-1.092-7.35449-1.753-14.12744-1.27014-19.042.40265-4.9292,1.7749-7.77148,2.08466-7.62549.28925.09912.13,2.86084-.25659,7.6665C239.31189,468.11914,239.80017,474.82715,240.89124,482.17285Zm46.8869,97.20363a49.12924,49.12924,0,0,1-.72,19.70008c-.21956.97839-1.8055,8.78433-3.82045,7.86725-.95374-.43416-.39273-2.63755-.26909-3.37222q.40841-2.4268.6962-4.872.55381-4.68432.67155-9.40655c.11862-4.76792.30917-9.95914-1.56462-14.44287-1.47231-3.523-4.00846-6.47754-6.504-9.36749-1.62078-1.87693-3.33135-3.81965-5.63124-4.74726a15.5055,15.5055,0,0,1-2.849-1.08412.9018.9018,0,0,1,.41767-1.71316,10.35974,10.35974,0,0,1,3.6027.81862c.35924.11636.759.24491,1.196.38517,4.58577,1.472,8.28591,5.48021,10.72753,9.4965A31.99972,31.99972,0,0,1,287.77814,579.37648ZM206.15954,676.17c9.04986,8.61959,19.41161,16.30272,29.29709,23.52253A361.16792,361.16792,0,0,0,265.898,719.50031q7.83767,4.59417,15.83672,8.90514c.89939.48693,14.57083,7.10955,14.50407,5.36848.71081,18.52989.22538,33.809,1.12555,40.55742-.49537-3.685-8.67208-5.42793-11.45749-6.6882a257.18327,257.18327,0,0,1-32.63953-18.21185,312.04455,312.04455,0,0,1-42.174-32.46082c-4.19555-3.84237-8.38558-8.23722-12.50941-12.3623-2.206-2.2067-4.41811-4.431-6.76564-6.48882-1.34225-1.17659-4.57387-2.93013-4.62315-4.9073-.23368-9.37849-.25465-18.84494-1.05572-28.195a6.25956,6.25956,0,0,0,1.15565.82447c2.861,1.56952,5.89166.39505,8.5641-.92692C198.71369,669.05488,202.534,672.71681,206.15954,676.17Zm94.72614,114.0405,11.00482,3.92285-1.92615-11.52344,4.96088,10.54736,6.73883-9.51025-3.923,11.00488,11.52332-1.92627-10.54742,4.96094,9.51031,6.73877-11.00482-3.92285,1.92615,11.52344-4.96088-10.54736-6.73877,9.51025,3.923-11.00488-11.52332,1.92627,10.54736-4.96094ZM187.99756,721.478c.14075.2251.28857.45752.45746.70361.35895.54248.76721,1.12646,1.23877,1.75977.47854.61225,1.02042,1.267,1.61157,1.96372,16.58319,19.54516,37.96406,35.22164,59.945,48.18375,1.88623,1.1123,3.62463,2.01318,5.13788,2.79443.52789.28125,1.03461.52783,1.51324.74609-1.12616.00684-2.25928.01416-3.39246.021-5.97546-.01416-11.965.00732-17.835-.35889-10.46588-.65479-20.96692-2.168-31.62988-3.01221a153.79966,153.79966,0,0,0-15.73047-.57031C190.30609,766.917,188.90546,747.32959,187.99756,721.478Zm75.67316,97.14429-11.00482-3.92285L254.592,826.2229l-4.96088-10.54736-6.73877,9.51025,3.923-11.00488-11.52332,1.92627,10.54736-4.96094-9.51031-6.73877,11.00482,3.92285-1.92615-11.52344,4.96088,10.54736,6.73883-9.51025-3.923,11.00488,11.52332-1.92627-10.54742,4.96094Zm119.18323-123.6687c.0459-.35986.19116-.78662.54736-.85547a.69327.69327,0,0,1,.697.45947,5.26661,5.26661,0,0,1,.208.87549c.50146,2.00732,3.50122,2.5459,4.01709,4.5498a1.4,1.4,0,0,1-.68726,1.61572,1.48041,1.48041,0,0,1-1.2832.063,6.81286,6.81286,0,0,1-2.58313-2.67139A6.23034,6.23034,0,0,1,382.85394,694.95361Zm-19.09253-49.1958c-.32654-.1748-.7854-.21973-1.00439-.52148a.55567.55567,0,0,1,.27625-.77979,1.02378,1.02378,0,0,1,.90588.12061c.27246.16064.498.38867.75342.57568a3.04918,3.04918,0,0,0,1.71753.5542c.45422.01709,1.18188-.28857,1.47681.20508.40869.68457-.991,1.66406-1.552,1.68848-.43872.01855-.89624-.19434-1.30322-.02979-.58838.23828-.68652,1.10156-1.24988,1.394a.81034.81034,0,0,1-1.00342-1.229c.39624-.48926,1.23169-.47461,1.33606-1.19141A.66738.66738,0,0,0,363.76141,645.75781Zm-36.3045-1.94336a3.76218,3.76218,0,0,0-.9632.84863,4.02963,4.02963,0,0,0-.26642,1.46777c-.079.49561-.468,1.04443-.95837.93848a.78731.78731,0,0,1-.54755-.74316,2.30221,2.30221,0,0,1,.22241-.95752q.24518-.62842.4903-1.25635a2.28011,2.28011,0,0,1,.647-1.01562,1.96294,1.96294,0,0,1,.70258-.67187.82709.82709,0,0,1,1.0965.27A1.005,1.005,0,0,1,327.45691,643.81445Zm-188.55212,4.50049c.19208-.18262.53857-.09229.74811.0415a2.31056,2.31056,0,0,1,.53229.49707,3.72064,3.72064,0,0,1,.65369,1.20654,3.19707,3.19707,0,0,1-.26276,2.66943c-.3222-.88379-.50031-1.60937-.74512-2.35156-.10638-.37256-.24054-.73389-.35968-1.11768-.07343-.19238-.11511-.38623-.188-.54346A.5901.5901,0,0,0,138.90479,648.31494Zm-21.2179-28.80908c-.04694.01855-.0769-.05664-.05988-.10059.00946-.062.11-.09326.15906-.07324a1.07841,1.07841,0,0,1,.22156.1333,3.27791,3.27791,0,0,0,.34167.21484,4.99189,4.99189,0,0,0,.68665.33154,5.41132,5.41132,0,0,0,1.41956.33936,14.04566,14.04566,0,0,0,3.14471-.18115,3.87885,3.87885,0,0,1-3.25842,1.23145,3.47236,3.47236,0,0,1-1.72021-.68018,2.79442,2.79442,0,0,1-.63373-.67236,2.30614,2.30614,0,0,1-.21051-.40479l-.05945-.16846c-.01025-.01221.00049-.03809-.02173-.03125C117.67865,619.45215,117.64917,619.48926,117.68689,619.50586Zm-17.12762,90.97461a1.88672,1.88672,0,0,1-1.8811-.58545,3.69456,3.69456,0,0,1-.95959-1.79541,4.60931,4.60931,0,0,1,.75458-3.72852c.007.64746.00842,1.23877.04694,1.81885a11.57709,11.57709,0,0,0,.23065,1.68262,5.22569,5.22569,0,0,0,.56879,1.50342A2.45182,2.45182,0,0,0,100.55927,710.48047ZM61.69269,427.11914c.35651,7.947-1.52539,16.30811-4.50873,23.74658Q59.16113,438.76685,61.69269,427.11914Zm12.41058-45.42651a52.86326,52.86326,0,0,1,17.31567-9.13574,52.66064,52.66064,0,0,1-1.22339,27.94385,18.93087,18.93087,0,0,0-17.30249,4.14014,21.12976,21.12976,0,0,0,.34949-3.7843,18.70461,18.70461,0,0,0-.905-5.86853,19.02135,19.02135,0,0,0-1.45282-3.26941Q72.43781,386.65613,74.10327,381.69263Zm-1.20911,173.4939a18.93322,18.93322,0,0,0,17.30231,4.14014,52.65005,52.65005,0,0,1,1.22449,27.9436,52.66365,52.66365,0,0,1-23.58813-15.03174,19.80946,19.80946,0,0,0,4.50623-7.399,18.70242,18.70242,0,0,0,.905-5.86755A21.1323,21.1323,0,0,0,72.89417,555.18652Zm9.98767-2.22168c-4.3537-.892-9.25873-5.06909-9.622-9.865a8.27092,8.27092,0,0,1,2.32935-5.5354,6.385,6.385,0,0,1,4.215-2.33838,4.82231,4.82231,0,0,1,4.5929,4.46265,3.35078,3.35078,0,0,0,6.70148-.02283v-.0238a11.50258,11.50258,0,0,0-11.4397-11.11584,12.75328,12.75328,0,0,0-9.0332,4.53589q-.51883.5722-.97778,1.181c.07178-1.097.111-2.2.111-3.30786a70.31646,70.31646,0,0,0-6.43085-28.02319l5.81116,3.42871,5.574,16.31494a2.90393,2.90393,0,1,0,5.496-1.87744l-3.383-9.90186,14.74377,8.69922a3.34241,3.34241,0,0,0,1.00464.74438c.14465.06958.29248.13354.43915.19971a19.93568,19.93568,0,0,1,5.61389,8.00647c3.20636,7.735,2.10828,15.141-3.01123,20.31824A14.3959,14.3959,0,0,1,82.88184,552.96484ZM54.53918,469.84521c12.045-.85962,28.03107,1.97632,38.9939,10.06848-10.96313,8.09216-26.94952,10.92859-38.99463,10.06848-.05646-.03809-.11639-.07129-.175-.10645l-1.767-3.06055q.80283-8.56055,1.864-16.92187C54.48676,469.87744,54.51373,469.86255,54.53918,469.84521Zm41.85272,44.82324c-.13062-.09387-.25989-.18994-.39252-.28027a3.33311,3.33311,0,0,0-1.14722-.498l-14.90546-8.4187,10.26654-2.02124a2.90394,2.90394,0,0,0-1.12195-5.69849L72.1756,501.08228l-5.87616-3.31909c10.33264-1.06165,21.44452-4.281,30.29553-10.19482q-.29736.702-.535,1.43994a12.75811,12.75811,0,0,0,.588,10.09094,11.501,11.501,0,0,0,15.34613,4.349,3.3506,3.3506,0,0,0-3.31-5.82666,4.82286,4.82286,0,0,1-6.16125-1.746,6.38788,6.38788,0,0,1-.08228-4.82019,8.24645,8.24645,0,0,1,3.62866-4.78394c4.33551-2.0835,10.40576.07544,13.3548,3.39929A14.39352,14.39352,0,0,1,122.22235,502.76c-1.92273,7.02222-7.78711,11.67566-16.08972,12.7666A19.93118,19.93118,0,0,1,96.39191,514.66846Zm19.96893-34.755a18.92753,18.92753,0,0,0,12.22876-12.912,52.662,52.662,0,0,1,24.81329,12.91162,52.65986,52.65986,0,0,1-24.81317,12.9126,18.92654,18.92654,0,0,0-12.22888-12.91223Zm3.06317-9.75769c-2.949,3.32385-9.01929,5.4834-13.3548,3.3999a8.24808,8.24808,0,0,1-3.62915-4.78394,6.383,6.383,0,0,1,.08276-4.82043,4.82359,4.82359,0,0,1,6.16125-1.74646,3.35039,3.35039,0,1,0,3.31-5.82617,11.50134,11.50134,0,0,0-15.34613,4.34924,12.74927,12.74927,0,0,0-.5885,10.09094q.23639.73663.53473,1.43945c-8.85089-5.91333-19.96222-9.1322-30.29474-10.19385l5.87622-3.31934,16.91516,3.33032a2.90393,2.90393,0,0,0,3.41022-2.28833,2.936,2.936,0,0,0,.05524-.564,2.90485,2.90485,0,0,0-2.34351-2.84607L79.94647,454.356l14.90625-8.41943a3.3314,3.3314,0,0,0,1.14636-.49756c.13232-.09058.26172-.1864.39215-.28015a19.92385,19.92385,0,0,1,9.74048-.858c8.30237,1.09033,14.1673,5.74341,16.09064,12.76587A14.39352,14.39352,0,0,1,119.424,470.15576ZM98.6261,431.3009a19.923,19.923,0,0,1-5.61255,8.00623c-.14673.06616-.29474.13037-.43933.19971a3.33551,3.33551,0,0,0-1.00543.745l-14.743,8.6991,3.38281-9.90112a2.90407,2.90407,0,1,0-5.49609-1.87817l-5.57422,16.31519L63.32813,456.915a70.31041,70.31041,0,0,0,6.43018-28.02148c0-1.1084-.03931-2.21191-.11121-3.30957q.45877.60773.978,1.18152a12.75,12.75,0,0,0,9.03217,4.535,11.50112,11.50112,0,0,0,11.44019-11.11548v-.0238a3.35072,3.35072,0,0,0-6.70135-.02283,4.82225,4.82225,0,0,1-4.593,4.46289,6.38512,6.38512,0,0,1-4.215-2.33862,8.27778,8.27778,0,0,1-2.3288-5.53442c.36285-4.79639,5.26794-8.97388,9.62109-9.86572a14.39563,14.39563,0,0,1,12.73492,4.12061C100.73535,416.15967,101.83295,423.56421,98.6261,431.3009ZM51.65125,498.07446c6.32642,9.98828,11.28961,24.44385,9.83466,37.34741a47.37236,47.37236,0,0,1-11.29285-7.14917Q50.56769,512.91418,51.65125,498.07446Zm4.7359,43.82642q-.7565.09338-1.51379.25635a14.80475,14.80475,0,0,0-4.897,1.98145c.00049-2.00549.03613-3.98584.05444-5.97876A53.10922,53.10922,0,0,0,56.38715,541.90088Zm-5.933,21.33105a3.3454,3.3454,0,0,0,3.27191-5.835,4.82271,4.82271,0,0,1-1.56915-6.20886,6.38816,6.38816,0,0,1,4.13373-2.48145,8.24586,8.24586,0,0,1,5.95734.75085c3.97223,2.71265,5.13721,9.04785,3.73328,13.26514a14.39531,14.39531,0,0,1-9.93658,8.96838,16.70246,16.70246,0,0,1-5.051.53674Q50.67178,567.74243,50.4541,563.23193Z"/></svg>