<svg id="Слой_1" data-name="Слой 1" xmlns="http://www.w3.org/2000/svg" viewBox="0 0 500 1000"><title>Flags light bulbs</title><path d="M491.02478,319.74634V146.70288a37.08065,37.08065,0,0,0-37.08057-37.08081H323.13147V28.25049A25.75039,25.75039,0,0,0,297.381,2.5H202.619a25.75039,25.75039,0,0,0-25.75049,25.75049v81.37158H46.056A37.08071,37.08071,0,0,0,8.97522,146.70288V319.74634a37.083,37.083,0,0,0,30.61694,36.50757C20.10168,408.79395,8.97522,472.00366,8.97522,544.291c0,225.27026,185.40381,453.209,241.0249,453.209,51.501,0,241.02466-227.93872,241.02466-453.209,0-72.28735-11.12646-135.49707-30.6167-188.03711A37.083,37.083,0,0,0,491.02478,319.74634ZM439.41,432.33521c.54419,2.6709,1.07813,5.3501,1.58081,8.05493a16.43,16.43,0,0,1-4.81177,11.687,14.39557,14.39557,0,0,1-12.73437,4.12036c-4.35376-.89185-9.25879-5.06909-9.62207-9.865a8.27063,8.27063,0,0,1,2.32935-5.5354,6.38521,6.38521,0,0,1,4.215-2.33838,4.82231,4.82231,0,0,1,4.5929,4.46265,3.35075,3.35075,0,0,0,6.70142-.02271v-.02393a11.50291,11.50291,0,0,0-11.4397-11.116,12.75439,12.75439,0,0,0-9.0332,4.53613q-.51892.572-.97778,1.18091c.07178-1.09692.11108-2.2.11108-3.30786a70.31755,70.31755,0,0,0-6.43091-28.02319l5.81116,3.42871,5.57385,16.31494a2.904,2.904,0,1,0,5.49609-1.87744l-3.38293-9.90186,14.74377,8.69922a3.33961,3.33961,0,0,0,1.00464.74438c.14453.06958.29248.13354.43921.19971a19.93819,19.93819,0,0,1,5.61377,8.00635C439.27026,431.95166,439.33545,432.14307,439.41,432.33521Zm-25.95312,26.084a18.93348,18.93348,0,0,0,17.30237,4.14014,52.651,52.651,0,0,1,1.22449,27.94385,52.66572,52.66572,0,0,1-23.58813-15.03174,19.812,19.812,0,0,0,4.50635-7.39917,18.70614,18.70614,0,0,0,.90479-5.86768A21.1379,21.1379,0,0,0,413.45691,458.41919ZM373.28345,456.781l-.162-17.11377,6.88354,7.88062a2.9039,2.9039,0,1,0,4.374-3.8208l-11.34216-12.98511-.06384-6.74878c6.08594,8.418,14.42993,16.43188,23.97693,21.14038q-.75641.09338-1.51379.25635a12.751,12.751,0,0,0-8.44531,5.55493,11.50155,11.50155,0,0,0,3.90674,15.46509,3.35072,3.35072,0,0,0,3.39124-5.78,4.82285,4.82285,0,0,1-1.56921-6.209,6.38815,6.38815,0,0,1,4.13379-2.48145,8.24572,8.24572,0,0,1,5.95728.75073c3.97229,2.71265,5.13733,9.04785,3.73328,13.26514a14.39556,14.39556,0,0,1-9.9364,8.96851c-7.043,1.8457-14.00488-.90674-19.10107-7.55151a19.92761,19.92761,0,0,1-4.12671-8.86475c.01587-.15991.03442-.32007.04639-.47974.00659-.08618.00964-.17114.00964-.25586A3.32643,3.32643,0,0,0,373.28345,456.781Zm21.64246-83.5957c.05908-.03516.11938-.06885.17615-.10718a67.07985,67.07985,0,0,1,29.47693,4.77344q1.58276,4.5509,3.06531,9.19092c-10.21765,5.09448-22.69324,6.876-32.54309,6.17236-.0564-.03809-.11646-.07129-.175-.10645l-5.75146-9.96167Zm-15.338-6.64331-5.75-9.95923c-.00085-.06543-.00818-.13037-.01257-.19556A62.58712,62.58712,0,0,1,377.7804,349.5h21.61255a67.74646,67.74646,0,0,1-8.12207,16.94238c-.062.03027-.12158.06567-.18188.09961Zm40.472-3.1228a40.72907,40.72907,0,0,0,1.123,4.74292,77.09141,77.09141,0,0,0-14.3208-2.865l5.87622-3.31934Zm-2.67139-11.2356.917-2.68359h1.67773c-.06934.41553-.11133.83447-.168,1.25171Zm-7.68738,4.53589-5.8103,3.42822A78.06388,78.06388,0,0,0,407.75439,349.5h4.41345Zm19.953,44.26489-16.91577,3.33057-5.87622-3.31909a73.03273,73.03273,0,0,0,23.15991-6.24c.6731,2.25635,1.33923,4.51855,1.97852,6.804A2.88577,2.88577,0,0,0,429.65417,400.98438Zm3.25415,3.9187q1.66956,6.16333,3.18335,12.45923a3.37809,3.37809,0,0,0-.67676-.2395l-14.90552-8.4187,10.2666-2.02124A2.89542,2.89542,0,0,0,432.90833,404.90308ZM391.09,399.75146c.05994.03394.11914.06909.18091.09912,6.76746,10.002,12.30469,25.26343,10.77783,38.804-12.49341-5.45-22.94629-17.88281-28.2229-28.74731.00439-.06567.01184-.13086.0127-.19653l5.74939-9.95923ZM378.67,198.55664h11.27344c1.78711,0,4.81152-.41211,4.81152,2.47461,0,1.9248-1.2373,6.18652-1.2373,10.31152,0,16.085,13.47363,31.208,16.22363,31.208,5.499,0,9.21094-16.498,9.21094-27.084,0-6.874-1.5127-12.64844-1.5127-14.84766,0-2.47461,3.4375-2.0625,4.94922-2.0625h12.23633c2.6123.41211,2.19922,4.81152,2.19922,10.72363,1.2373,40.28223-29.833,79.32715-60.0791,79.32715-3.16211,0-3.2998-2.0625-3.2998-5.22461V271.28418c0-1.64941.27539-5.63672,3.9873-5.63672,15.81055,0,19.93457-5.08691,19.93457-6.874,0-5.77441-23.92187-15.53516-23.92187-53.75488C373.44543,198.832,373.30872,198.55664,378.67,198.55664ZM374.4292,371.90283c.01819.03149.03967.05981.05872.09033.03491.05664.06995.113.10791.167.03467.0498.07153.09741.1084.145.03271.042.06506.08374.09937.12427.04492.053.0918.10327.1394.15308.03076.03247.06128.06445.09326.09546.05225.05078.106.09888.16064.146.03271.02808.06543.05591.09912.08276q.0824.06555.168.12573c.03882.02734.07813.05444.11792.08032.05347.03467.10767.06738.16272.09888.04773.02734.09607.054.14514.07935.0498.02588.10022.0498.151.07275.05627.02588.113.05054.17078.07324.04761.0188.09546.03613.1438.05273.06116.021.12256.04126.18518.05908.05017.0144.10071.02686.15137.03906.05994.0144.12.02808.18127.03931.05957.01123.11963.01929.17969.02734.05273.00708.105.0144.1582.019.07373.00659.14746.009.22156.011.03076.001.06079.00488.09167.00488h8.85693l-4.42847,7.67017c-.01611.02783-.02832.05713-.04346.085-.03442.06372-.06836.1272-.09888.19287-.02344.05029-.04419.10132-.06531.15234-.02209.054-.04395.10742-.06335.16235-.02185.06128-.04077.12256-.05908.18433-.01392.04712-.02759.09448-.03967.14209-.0166.06616-.03052.13232-.04321.19873-.00891.04688-.01746.09375-.02454.14111-.00977.06494-.01733.12988-.02332.19507q-.00751.07764-.0116.156c-.00293.05908-.00415.11816-.00415.17725,0,.05933.00122.11816.00415.17725q.004.07837.0116.15625c.006.06519.01355.12988.02332.19507.00708.04736.01563.094.02454.14087.0127.06665.02661.13257.04321.19873.01208.04785.02576.09473.03967.14209.01831.06177.03723.12329.05908.18433.01941.05493.04126.10864.06335.1626.02112.05078.04187.10181.06531.15234.03052.06519.06445.12891.09888.19263.01514.02808.02734.05713.04346.085l4.42859,7.67041h-8.85706c-.03088,0-.06091.00391-.09167.00464-.0741.002-.14783.00439-.22156.011-.05322.00488-.10547.012-.1582.019-.06006.00806-.12012.01636-.17969.02734-.06128.01123-.12134.0249-.18127.03931-.05066.01221-.1012.02466-.15137.03906-.06262.01782-.12415.03809-.18542.05908-.0481.01685-.09583.03394-.14331.05273-.058.02271-.115.04761-.17139.07349-.05078.02295-.10083.04688-.15039.07251-.04932.02515-.09753.052-.14539.07959-.05505.03149-.10925.06421-.16284.09888-.03967.02563-.07874.05249-.11755.08008-.05713.04028-.11353.082-.16846.126-.03369.02686-.06616.05444-.09875.08276-.05481.04688-.10852.095-.16077.14575-.032.031-.0625.06323-.09326.09546-.04761.0498-.09448.1001-.1394.15308-.0343.04053-.06665.08252-.09937.12427-.03687.04785-.07373.095-.1084.145-.038.05444-.073.1106-.10791.167-.019.03076-.04053.05908-.05872.09033l-4.42834,7.67065-4.42847-7.67065c-.01685-.02905-.03674-.05518-.05432-.084-.03674-.05933-.07361-.11865-.11389-.17578-.033-.04761-.06812-.09253-.10315-.13818-.0343-.04419-.06848-.08813-.10461-.13062-.04358-.051-.08875-.1001-.13477-.14819-.0321-.03369-.06421-.06738-.0979-.09985-.0509-.04956-.10352-.09692-.157-.14282-.03357-.02905-.06738-.05762-.10205-.08545-.0542-.043-.10937-.084-.16577-.12378q-.059-.04211-.12012-.082c-.05273-.03394-.1062-.06616-.16064-.09741-.04834-.02783-.09717-.05493-.147-.08057-.04919-.02515-.09912-.04883-.14941-.072-.05664-.02588-.11365-.05054-.17187-.07373-.04736-.01855-.09521-.03564-.14331-.05249-.06128-.021-.12268-.04126-.1853-.05908-.05029-.0144-.10083-.02686-.15161-.03906-.05981-.01416-.11963-.02808-.18066-.03931-.06006-.011-.12012-.01953-.18054-.02734-.05237-.00708-.10461-.01416-.15759-.019-.07373-.00659-.14771-.009-.22192-.011-.03076-.00073-.06079-.00464-.09155-.00464h-8.85718l4.42847-7.67041.00415-.00854a3.52452,3.52452,0,0,0,.15942-.324c.01575-.0354.03589-.06934.05054-.10474.02222-.05493.037-.1123.05664-.16846a3.54945,3.54945,0,0,0,.20874-1.178l-.00024-.00293.00024-.00366a3.54911,3.54911,0,0,0-.2085-1.17651c-.01953-.05664-.03442-.11426-.05688-.16968-.01465-.0354-.03479-.06958-.05054-.10474a3.59141,3.59141,0,0,0-.15942-.32422l-.00415-.0083L353.62,373.68945h8.85742c.031,0,.06091-.00391.0918-.00488.074-.00171.1477-.00439.22119-.011.05347-.00464.1062-.012.15894-.019.05981-.00806.11951-.01611.17871-.02734.06177-.01123.12256-.02515.18311-.03979.0498-.012.09961-.02393.14868-.03809.06372-.01807.12622-.03857.18835-.06006.047-.0166.09387-.0332.14038-.05176.0592-.02319.11731-.04834.17493-.07471.04907-.02246.09766-.04565.14575-.07031.05115-.02637.10156-.0542.15112-.083.05286-.03027.10474-.06152.156-.09473.04272-.02734.08423-.05615.12561-.08545.05432-.03833.10779-.07788.16-.11963.03662-.0293.07227-.05957.10779-.09033.05164-.04419.10242-.08984.15173-.1377.0354-.03442.06934-.06982.10352-.10547.04395-.04639.0874-.09326.12915-.14233.03821-.04468.07446-.09131.11035-.13794.0332-.043.06641-.08594.0979-.13086.04224-.06006.08105-.12207.11963-.18481.01611-.02637.03442-.05054.05-.07739l4.42847-7.67041Zm-18.52966,75.92163a2.90413,2.90413,0,0,0,4.09741-.27661l6.88354-7.88086-.16187,17.11768a3.33561,3.33561,0,0,0-.14233,1.24268c.01209.1604.03052.32056.04651.481a19.92652,19.92652,0,0,1-4.12708,8.864c-5.09595,6.64453-12.05786,9.39722-19.1012,7.55176a14.3981,14.3981,0,0,1-9.93616-8.96851c-1.4043-4.21436-.23926-10.55225,3.7334-13.26514a8.24452,8.24452,0,0,1,5.9574-.75073,6.385,6.385,0,0,1,4.13281,2.48145,4.82218,4.82218,0,0,1-1.56824,6.209,3.35061,3.35061,0,0,0,3.39124,5.77979,11.50146,11.50146,0,0,0,3.90637-15.4646,12.75249,12.75249,0,0,0-8.44507-5.55542q-.75586-.16333-1.51367-.25635c9.54688-4.7085,17.89038-12.72241,23.97607-21.13989l-.06384,6.74878-11.34192,12.98462A2.9035,2.9035,0,0,0,355.89954,447.82446Zm-28.799,20.24854a19.80986,19.80986,0,0,0,4.506,7.39844,52.65875,52.65875,0,0,1-23.58789,15.032,52.65884,52.65884,0,0,1,1.22437-27.94385,18.92995,18.92995,0,0,0,17.29883-4.13745A19.85233,19.85233,0,0,0,327.10059,468.073Zm2.693-30.59131c-.30688-.40674-.63257-.80371-.98-1.18652a12.75178,12.75178,0,0,0-9.03271-4.53564,11.50225,11.50225,0,0,0-11.4397,11.11572l-.00024.02393a3.35063,3.35063,0,0,0,6.70117.02271,4.823,4.823,0,0,1,4.59314-4.46265,6.38581,6.38581,0,0,1,4.215,2.33813,8.25889,8.25889,0,0,1,2.3291,5.53516c-.36328,4.79614-5.26831,8.97314-9.62158,9.86572a14.39645,14.39645,0,0,1-12.73462-4.12061c-5.12-5.17725-6.21753-12.58252-3.011-20.31812a19.92071,19.92071,0,0,1,5.61377-8.00635c.14648-.06641.29419-.13037.4386-.2a3.32238,3.32238,0,0,0,.98938-.73511l14.759-8.7085L319.23,424.011a2.904,2.904,0,1,0,5.49609,1.87769l5.57385-16.31445,5.81287-3.42993C331.86536,415.62427,329.09729,426.85815,329.79358,437.48169Zm-49.77844-44.57764c2.94922-3.32373,9.01917-5.48291,13.35461-3.39941a8.24612,8.24612,0,0,1,3.62878,4.78418,6.39225,6.39225,0,0,1-.08264,4.82007,4.82239,4.82239,0,0,1-6.16113,1.74585,3.35061,3.35061,0,0,0-3.31006,5.82666,11.50175,11.50175,0,0,0,15.34644-4.34888,12.75142,12.75142,0,0,0,.588-10.09106q-.23639-.73682-.535-1.43994c8.8512,5.91382,19.96326,9.13306,30.29626,10.19434l-5.87659,3.31934-16.916-3.33032a2.90393,2.90393,0,0,0-1.12183,5.69849l10.26648,2.021-14.90576,8.41919a3.33867,3.33867,0,0,0-1.14722.4978c-.13269.09058-.26208.18677-.39282.28076a19.92667,19.92667,0,0,1-9.74.85767c-8.30237-1.09058-14.16711-5.7439-16.09045-12.7666A14.39516,14.39516,0,0,1,280.01514,392.90405Zm-5.01257-4.44727a19.8059,19.8059,0,0,0-4.15454,7.60156,52.65824,52.65824,0,0,1-24.81152-12.91162A52.65719,52.65719,0,0,1,270.848,370.23511a18.93345,18.93345,0,0,0,12.22974,12.91162A19.85336,19.85336,0,0,0,275.00256,388.45679Zm69.89771-15.37817c.0564.03809.11621.07129.1748.1062l5.75159,9.9624-5.7511,9.96118c-.05884.03491-.11865.06812-.17529.10645-12.04565.86011-28.03174-1.97632-38.99438-10.06812C316.86853,375.05493,332.85461,372.21851,344.90027,373.07861ZM340.608,349.5h21.61255a62.56664,62.56664,0,0,1,3.94873,6.87354c-.00488.06885-.004.13818-.00488.20728l-5.751,9.96118H348.91162c-.06018-.03369-.11951-.06934-.1814-.09937A67.73984,67.73984,0,0,1,340.608,349.5Zm19.80579,50.25146,5.75146,9.96191c.001.06885-.00012.13745.00476.20581-5.27808,10.86133-15.72754,23.28735-28.21667,28.73535-1.52649-13.53906,4.0105-28.80225,10.77759-38.804.06165-.03.12085-.06519.18079-.09912Zm-56.399-176.03564c0-29.2832,2.19922-27.22168,25.57129-27.22168,30.7959,0,38.49512,14.43555,38.49512,29.00879,0,10.70972-5.01208,21.08105-11.61755,29.28345-4.36621,5.42163-14.64832,17.21436-22.25916,11.42529-2.486-1.89111-5.03149-3.95557-6.25061-6.8313-3.87488-9.14038,8.65808-9.13647,13.5802-12.93628a24.18081,24.18081,0,0,0,9.49927-18.60449c0-8.9353-7.28589-15.12256-15.94775-15.1228-5.49109-.00024-8.78723,1.7644-10.53149,7.24-3.802,11.93506-2.07617,24.74341-1.415,36.99829.30835,5.71558.25146,11.34839,1.04224,17.0437.47742,3.43774,1.69287,7.14526,1.69287,10.62134,0,2.2002-2.88672,1.9248-4.39941,1.9248H310.20129c-4.26172,0-6.18652,1.2373-6.18652-22.40918Zm32.09692,136.43262-5.81274-3.42993L327.8324,349.5h4.41626A77.966,77.966,0,0,0,336.11169,360.14844Zm-13.49963-7.96533L318.06433,349.5h3.63086ZM305.16882,349.5l14.32251,8.08936-10.26538,2.021a2.90381,2.90381,0,1,0,1.12183,5.69824l16.91479-3.33008,5.87646,3.31909c-10.33252,1.06177-21.44409,4.281-30.29492,10.19434q.29736-.702.535-1.43994a12.754,12.754,0,0,0-.588-10.09082,11.502,11.502,0,0,0-15.34607-4.34985,3.35078,3.35078,0,0,0,3.30945,5.82739,4.822,4.822,0,0,1,6.16138,1.74609,6.38884,6.38884,0,0,1,.08264,4.82007,8.24552,8.24552,0,0,1-3.62878,4.78394c-4.33545,2.0835-10.4054-.07568-13.35437-3.39917a14.398,14.398,0,0,1-2.79919-13.08936A16.58949,16.58949,0,0,1,286.42834,349.5Zm-9.26733-123.99707c0,21.44727-21.03516,43.03223-31.62109,43.03223-4.5957,0-7.13916-6.34229-8.62012-9.66455a9.12546,9.12546,0,0,1-1.03271-4.43262c.37183-4.20361,4.95032-3.47021,7.92383-4.40137a22.33581,22.33581,0,0,0,8.40479-4.94775,24.0381,24.0381,0,0,0,7.89746-17.24927c0-8.9353-7.286-15.12256-15.948-15.1228-3.93164,0-7.3175.60205-9.35278,4.33105-4.24121,7.77075-3.40186,19.14917-2.68079,27.53882q1.084,12.61084,2.16785,25.22144c.35522,4.13306.78613,8.26758,1.06641,12.40649.25269,3.729-1.20886,4.33032-4.81128,4.33032H238.02161c-4.26172,0-6.18652,1.2373-6.18652-22.40918V223.71582c0-29.2832,2.19922-27.22168,25.57129-27.22168C288.20227,196.49414,295.90149,210.92969,295.90149,225.50293ZM249.83337,40.5a23,23,0,1,1-23,23A22.99989,22.99989,0,0,1,249.83337,40.5ZM191.13879,270.32227c8.56812,0,9.04614-7.06226,9.889-14.13574a83.58477,83.58477,0,0,0-.76343-24.82349c-.79749-4.37817-1.42627-10.62842-4.46741-14.10107-2.668-3.04687-7.00769-4.54517-10.98267-4.54517-14.02319.00024-11.96069,11.82422-14.98511,11.82422-4.39941,0-9.21094-5.3623-9.21094-11.27344,0-10.17383,11.41016-16.77344,24.05859-16.77344,4.39941,0,23.23438-.13672,30.24609,19.11035,2.88672,7.97363,3.16211,48.668,3.16211,53.48047,0,6.04883,1.09961,9.623,1.09961,14.29785,0,2.88672-12.92285,3.16211-25.15918,3.16211-33.13281,0-35.46973-17.04785-35.46973-25.29687.00012-9.48047,5.39282-17.7522,12.75488-23.35742a45.37294,45.37294,0,0,1,12.24951-6.58252c3.63135-1.29321,10.053-4.0188,12.48035.4646a12.73043,12.73043,0,0,1,1.11755,5.3418,8.8038,8.8038,0,0,1-.31689,3.77661c-1.04126,2.64575-3.64832,1.78662-5.86951,2.19556a17.87252,17.87252,0,0,0-6.69617,2.77295c-4.05859,2.731-7.16016,7.20483-7.16016,12.22632C177.11536,265.78516,183.85266,270.32227,191.13879,270.32227ZM72.4884,172.16016H91.18567c.8252,0,4.125-.41211,4.125,1.2373,0,1.78711-9.34863,21.72168-9.34863,36.29492,0,3.4375,1.2373,6.7373,3.29883,6.7373,4.2627,0,4.2627-4.125,22.96-4.125,6.73633,0,12.09863,1.5127,12.09863-4.26172,0-13.06055-12.09863-32.7207-12.09863-34.50781s4.124-1.375,4.94922-1.375h18.00977c5.22461,0,11.96094,39.59473,11.96094,68.87793,0,6.59961,0,45.50684-4.39941,45.50684H122.94446c-1.375,0-5.08691.1377-5.08691-2.0625a4.39842,4.39842,0,0,1,.41211-1.9248c4.8125-12.64844,8.79883-25.57129,8.79883-39.18164,0-9.34863-3.71191-12.51074-12.92285-12.51074-13.88574,0-28.7334,6.59863-28.7334,22.54688A78.1082,78.1082,0,0,0,91.049,283.10742a5.77925,5.77925,0,0,1,.5498,2.0625c0,1.9248-3.2998,1.375-4.39941,1.375h-20.21c-3.84961,0-3.84961-39.59473-3.84961-45.50684C63.13977,231.002,65.88977,172.16016,72.4884,172.16016Zm.40576,383.02637a18.933,18.933,0,0,0,17.30225,4.14014,52.65,52.65,0,0,1,1.22449,27.9436,52.66572,52.66572,0,0,1-23.58813-15.03174,19.81168,19.81168,0,0,0,4.50623-7.39917,18.7011,18.7011,0,0,0,.905-5.86743A21.1379,21.1379,0,0,0,72.89417,555.18652Zm9.98755-2.22168c-4.35364-.89209-9.25867-5.06909-9.62195-9.865a8.27121,8.27121,0,0,1,2.32935-5.5354,6.38444,6.38444,0,0,1,4.215-2.33838,4.82231,4.82231,0,0,1,4.5929,4.46265,3.35081,3.35081,0,0,0,6.70154-.02295v-.02368a11.50268,11.50268,0,0,0-11.4397-11.116,12.75341,12.75341,0,0,0-9.0332,4.53589q-.51892.57239-.97778,1.18115c.07178-1.09717.11084-2.2.11084-3.30786a70.31536,70.31536,0,0,0-6.43079-28.02319l5.81116,3.42871,5.574,16.31494a2.904,2.904,0,1,0,5.49609-1.87744L76.826,510.87646l14.74377,8.69922a3.34522,3.34522,0,0,0,1.00464.74438c.14465.06958.29248.13354.43909.19971a19.93565,19.93565,0,0,1,5.614,8.00635c3.2063,7.73511,2.10815,15.14111-3.01123,20.31836A14.39624,14.39624,0,0,1,82.88171,552.96484Zm13.51013-38.29639c-.13062-.094-.25989-.18994-.39246-.28027a3.33461,3.33461,0,0,0-1.14722-.498l-14.90552-8.4187,10.2666-2.02124a2.904,2.904,0,0,0-1.12207-5.69849l-16.91565,3.33057-5.8761-3.31909c10.33252-1.06177,21.44446-4.281,30.29541-10.19482q-.29736.702-.53491,1.43994a12.75779,12.75779,0,0,0,.58789,10.09082,11.501,11.501,0,0,0,15.34619,4.34912,3.35061,3.35061,0,1,0-3.31006-5.82666,4.82253,4.82253,0,0,1-6.16113-1.74609,6.38641,6.38641,0,0,1-.08228-4.82007,8.24557,8.24557,0,0,1,3.62866-4.78394c4.33545-2.0835,10.40576.07544,13.35474,3.39917A14.39351,14.39351,0,0,1,122.22229,502.76c-1.92273,7.02222-7.78711,11.67554-16.08972,12.7666A19.93118,19.93118,0,0,1,96.39185,514.66846Zm19.96887-34.75513a18.92672,18.92672,0,0,0,12.22876-12.91187,52.66167,52.66167,0,0,1,24.81335,12.91162,52.66131,52.66131,0,0,1-24.81311,12.9126,18.92719,18.92719,0,0,0-12.229-12.91235Zm3.06323-9.75757c-2.949,3.32373-9.01929,5.4834-13.35474,3.3999a8.24783,8.24783,0,0,1-3.62915-4.78394,6.38246,6.38246,0,0,1,.08276-4.82056,4.82356,4.82356,0,0,1,6.16113-1.74634,3.3504,3.3504,0,1,0,3.31006-5.82617,11.50159,11.50159,0,0,0-15.34619,4.34912,12.74988,12.74988,0,0,0-.58838,10.09106q.23621.73645.53467,1.43945C87.74329,466.345,76.632,463.126,66.29944,462.06445l5.87622-3.31934,16.915,3.33032a2.904,2.904,0,0,0,3.41028-2.28833,2.941,2.941,0,0,0,.0553-.564,2.9051,2.9051,0,0,0-2.34351-2.84619l-10.26636-2.021,14.90625-8.41943A3.3314,3.3314,0,0,0,95.999,445.439c.13232-.09058.26172-.18652.39221-.28027a19.9253,19.9253,0,0,1,9.74048-.85791c8.30225,1.09033,14.16724,5.74341,16.09058,12.76587A14.39367,14.39367,0,0,1,119.424,470.15576Zm-20.79785-38.855a19.92407,19.92407,0,0,1-5.61255,8.00635c-.14673.06616-.2948.13037-.43945.19971a3.33565,3.33565,0,0,0-1.00537.74487l-14.74292,8.69922,3.38281-9.90112a2.90407,2.90407,0,1,0-5.49609-1.87817l-5.57422,16.31519L63.328,456.915a70.30985,70.30985,0,0,0,6.43018-28.02148c0-1.1084-.03931-2.21191-.11108-3.30957.30579.405.63184.8.978,1.1814a12.75033,12.75033,0,0,0,9.0321,4.53516,11.50135,11.50135,0,0,0,11.44019-11.11548v-.02393a3.35069,3.35069,0,0,0-6.70129-.02271,4.82225,4.82225,0,0,1-4.593,4.46289A6.38511,6.38511,0,0,1,75.588,422.2627a8.27817,8.27817,0,0,1-2.32886-5.53442c.36292-4.79639,5.26807-8.97388,9.62109-9.86572a14.3957,14.3957,0,0,1,12.735,4.12061C100.73523,416.15967,101.83289,423.56421,98.6261,431.30078Zm-8.43066-30.8a18.93106,18.93106,0,0,0-17.30249,4.14014,21.13589,21.13589,0,0,0,.34961-3.78442,18.705,18.705,0,0,0-.905-5.86841,19.03167,19.03167,0,0,0-1.45288-3.26953q1.5531-5.0625,3.21851-10.02588a52.86447,52.86447,0,0,1,17.31567-9.13574A52.6588,52.6588,0,0,1,90.19543,400.50073ZM61.69263,427.11914c.35657,7.947-1.52539,16.30811-4.50867,23.74658Q59.16113,438.76685,61.69263,427.11914Zm-7.2323,42.77417c.02637-.01587.05334-.03076.07886-.0481,12.04492-.85962,28.031,1.97632,38.9939,10.06836-10.96313,8.09229-26.94958,10.92871-38.99463,10.0686-.05652-.03809-.11646-.07129-.175-.10645l-1.76709-3.06055Q53.399,478.25464,54.46033,469.89331Zm-2.80908,28.18115c6.32642,9.98828,11.28955,24.44385,9.83459,37.34741A47.37236,47.37236,0,0,1,50.193,528.27271Q50.56763,512.91418,51.65125,498.07446Zm-1.62048,40.08545a53.12553,53.12553,0,0,0,6.35632,3.741q-.75659.09338-1.51379.25635a14.80368,14.80368,0,0,0-4.897,1.98145C49.97681,542.13306,50.01245,540.15283,50.03076,538.15991Zm.42322,25.072a3.34541,3.34541,0,0,0,3.272-5.835,4.823,4.823,0,0,1-1.56909-6.209,6.38818,6.38818,0,0,1,4.13367-2.48145,8.246,8.246,0,0,1,5.9574.751c3.97217,2.71265,5.13721,9.04785,3.73315,13.26514a14.39467,14.39467,0,0,1-9.93652,8.96826,16.70282,16.70282,0,0,1-5.051.53687Q50.67163,567.74243,50.454,563.23193Zm63.57446,215.67993c-.04077.32275.08228,1.81958-.35889,1.84766-.2583.0166-.53174-.62769-.61792-.81348-.25647-.55273-.564-1.0874-.83911-1.63184q-.878-1.738-1.74634-3.4812-1.77283-3.5592-3.50549-7.13843a20.03019,20.03019,0,0,1,7.40955-4.219c1.74561-.6333,3.57544-1.21777,5.49-1.73145a5.96905,5.96905,0,0,0-.49976.97778c-.46362,1.10913-1.30872,2.114-1.86572,3.19214a28.5416,28.5416,0,0,0-1.655,3.887,33.80994,33.80994,0,0,0-1.43225,6.625C114.31311,777.16187,114.14014,778.02808,114.02844,778.91187Zm42.88794,10.61743a39.03041,39.03041,0,0,0-6.0968,18.21045c-.50928,6.78516-1.4718,13.57422-1.6803,20.42432a63.03492,63.03492,0,0,0,1.37488,16.56934q-7.04846-10.77319-13.76184-21.92578c-6.52368-10.85913-13.9375-23.90845-21.61829-38.77246a1.29473,1.29473,0,0,0,1.85242-1.05151q.00513-.07617.00928-.15283c.06055-1.16406-.08936-2.395.00928-3.59033a40.3934,40.3934,0,0,1,1.5033-8.05835c1.07166-3.64575,2.91687-6.782,4.45569-10.2124.16187-.03516.32373-.07764.4856-.11279a69.02362,69.02362,0,0,1,10.2478-1.53369c.27441-.02148.53491-.03564.80933-.0498-5.9895,4.72266-6.4259,14.33691-4.58887,21.32568.52783,1.99951,3.7373,1.35889,3.56836-.68213-.366-4.42041-.9502-8.58691-.2605-12.46484.04224-.127.07043-.26074.11975-.38062a20.51907,20.51907,0,0,1,2.09875-3.96143,22.47688,22.47688,0,0,1,1.46484-2.22852c.41345-.55444.9834-1.57129,1.66553-1.78174,1.42224-.43921,3.47424.03076,4.93652.13574q1.91748.13733,3.82935.34229a33.757,33.757,0,0,0,3.41748.45557c-.57129-.08911-1.24121,1.2666-1.52612,1.63916-.56836.74341-1.28809,1.34717-1.83093,2.12427a13.81665,13.81665,0,0,0-2.16248,5.02393,17.3571,17.3571,0,0,0,.491,8.64185,4.481,4.481,0,0,0,.85413,1.73291,1.7789,1.7789,0,0,0,1.74426.60742c1.00134-.292.8916-1.44653.76245-2.24658a35.59517,35.59517,0,0,1-.47607-3.62793,15.83022,15.83022,0,0,1,1.18677-7.20142c.9502-2.1958,3.11792-3.9834,3.864-6.20068.05627.01367.11963.021.18286.03516a84.71707,84.71707,0,0,1,8.52344,2.2168c-.14087-.04517-.93054,1.12939-1.022,1.27344a4.56882,4.56882,0,0,0-.46826,1.24219c-.38867,1.231-.98242,2.37476-1.31714,3.634a20.45723,20.45723,0,0,0-.53491,7.77637,2.51948,2.51948,0,0,0,.61511,1.583c1.9906,1.84961,2.6344-3.67847,2.81091-4.562a78.74017,78.74017,0,0,1,2.40283-9.13184c.31567-.96094.866-.73267,1.58936-.40723,2.71313,1.2207,5.60547,2.28052,8.2511,3.72876,1.65088.90356,3.22559,1.936,4.801,2.96338.80847.5271,1.61694,1.05493,2.4375,1.56323a18.01329,18.01329,0,0,1,2.4054,1.44434,27.87248,27.87248,0,0,1-4.0603.31445,35.73982,35.73982,0,0,0-3.79663.52124,22.33075,22.33075,0,0,0-7.39294,2.9209A38.969,38.969,0,0,0,156.91638,789.5293Zm46.92871,21.75977-11.00488-3.92285,1.92627,11.52344-4.96094-10.54736-6.73877,9.51025,3.9231-11.00488-11.52344,1.92627,10.54736-4.96094-9.51025-6.73877,11.00488,3.92285-1.92627-11.52344,4.96094,10.54736,6.73877-9.51025-3.923,11.00488,11.52332-1.92627-10.54736,4.96094ZM189.3136,773.709c.99243-6.792-.4082-26.37939-1.31616-52.231.14087.2251.28857.45752.45752.70361.35889.54248.76721,1.12646,1.23877,1.75977.47852.61206,1.02051,1.26685,1.61157,1.96362,16.58325,19.54517,37.96411,35.22168,59.94507,48.18384,1.88623,1.1123,3.62451,2.01318,5.13782,2.79443.528.28125,1.03455.52783,1.51331.74609-1.12622.00684-2.25928.01416-3.39258.021-5.97534-.01416-11.965.00732-17.835-.35889-10.46582-.65479-20.9668-2.168-31.62988-3.01221A153.79712,153.79712,0,0,0,189.3136,773.709Zm74.35706,44.91333-11.00476-3.92285,1.926,11.52344-4.96082-10.54736-6.73877,9.51025,3.923-11.00488-11.52319,1.92627,10.54736-4.96094-9.51038-6.73877,11.00476,3.92285-1.926-11.52344,4.96082,10.54736,6.73889-9.51025-3.9231,11.00488,11.52332-1.92627-10.54749,4.96094Zm22.23621-50.97925a257.177,257.177,0,0,1-32.63953-18.21191,312.04893,312.04893,0,0,1-42.174-32.46069c-4.19556-3.84253-8.38562-8.2373-12.50952-12.3623-2.20605-2.20679-4.41809-4.43115-6.76562-6.48877-1.34229-1.17676-4.57385-2.93018-4.623-4.90747-.23376-9.37842-.25464-18.845-1.05579-28.19482a6.25931,6.25931,0,0,0,1.15564.82446c2.86108,1.56934,5.8916.395,8.56409-.927,2.85449,4.14038,6.67493,7.80225,10.30042,11.25537,9.0498,8.61963,19.41162,16.30273,29.297,23.52246a361.13245,361.13245,0,0,0,30.44153,19.80786q7.83765,4.59412,15.83667,8.90527c.89941.48682,14.5708,7.10938,14.504,5.36841.71082,18.52979.22546,33.80884,1.12561,40.55737C296.869,770.64624,288.69226,768.90332,285.90686,767.64307ZM230.121,616.94556a70.46794,70.46794,0,0,1-1.42114-9.17358,21.67182,21.67182,0,0,1,2.556-11.54517c2.54309-4.26782,8.22644-4.43848,10.10339.70483a12.49459,12.49459,0,0,1,.4751,5.44092c-.21338,2.292-.55371,4.56763-.88806,6.83838-1.07446,7.29517-1.27917,14.90039,1.6925,21.80591.7229,1.67969,1.99438,3.749,3.87109,4.43311a4.0985,4.0985,0,0,0,3.95825-.78564c.9126-.64551,2.0575-2.59692,3.311-2.44409,1.35339.1648,1.38037,1.7417,1.325,2.76172-.7583,13.925-2.94653,28.20044,6.04712,40.21094,3.6311,4.84937,8.73657,6.06982,12.62073.89526,1.7135-2.28271,3.46008-5.54248,6.61108-5.94189,3.21863-.40771,5.8385,2.5603,7.16553,5.15308,1.16431,2.2749,2.204,4.61279,3.40466,6.86963.8352,1.56958,2.2085,2.78589,3.05188,4.34326,1.0863,2.0061.4978,4.53662.452,6.717q-.09869,4.71094.252,9.41748C271.78845,691.87427,250.098,678.56958,231.965,660.739q-4.22516-4.15466-8.16479-8.5874c-1.81909-2.04907-20.81812-24.45654-20.18481-25.085a7.28789,7.28789,0,0,1,11.90869,2.31616,24.02278,24.02278,0,0,0,1.62524,3.30664,6.67906,6.67906,0,0,0,10.56006.95679C231.86218,629.07251,231.15735,622.52759,230.121,616.94556Zm10.77026-134.77271c1.08472,7.34424,2.1499,13.66309,2.02173,18.291a17.14148,17.14148,0,0,1-.85657,5.395,3.41834,3.41834,0,0,1-2.14294,1.8208c-.11377-.00391-.12964-.16211-.06323-.45264.06995-.28906.22974-.70654.37646-1.28711a22.12964,22.12964,0,0,0,.75659-5.18164c.20276-4.56934-.67651-11.07324-1.76367-18.4292-1.092-7.35449-1.75305-14.12744-1.27026-19.042.40271-4.9292,1.7749-7.77148,2.08472-7.62549.28931.09912.13,2.86084-.25659,7.6665C239.31189,468.11914,239.80017,474.82715,240.89124,482.17285Zm41.88037,92.67725c-1.47217-3.52319-4.00842-6.47754-6.50391-9.36743-1.62085-1.877-3.3313-3.81982-5.63135-4.74731a15.50991,15.50991,0,0,1-2.84888-1.08423.90178.90178,0,0,1,.41772-1.71313,10.36,10.36,0,0,1,3.60266.8186c.35925.11646.75891.24487,1.19592.38525,4.58582,1.47192,8.28589,5.48022,10.72754,9.49658a31.99958,31.99958,0,0,1,4.04675,10.738,49.1271,49.1271,0,0,1-.72,19.7c-.2196.97852-1.80554,8.78442-3.82043,7.86719-.95386-.43408-.39282-2.63745-.269-3.37207q.40833-2.42688.696-4.87207.55389-4.6842.67163-9.40649C284.455,584.52515,284.64539,579.33374,282.77161,574.8501Zm45.45557,229.5752-11.00488-3.92285,1.92627,11.52344-4.96094-10.54736-6.73877,9.51025,3.9231-11.00488-11.52344,1.92627,10.54736-4.96094-9.51025-6.73877,11.00488,3.92285-1.92627-11.52344,4.96094,10.54736,6.73877-9.51025-3.923,11.00488,11.52332-1.92627-10.54736,4.96094Zm104.202-141.0769a33.64789,33.64789,0,0,1-1.629-8.96875,13.054,13.054,0,0,0,4.43372-1.35474Q433.87744,658.22327,432.4292,663.34839Zm1.38879-14.5166a9.37724,9.37724,0,0,1-8.71143.38208c-4.3031-1.99463-6.658-6.26538-6.46069-11.717a12.98032,12.98032,0,0,1,1.605-6.16455c.07434-.07373.15015-.14648.22241-.22168.03894-.04053.07568-.082.11084-.12451a2.1667,2.1667,0,0,0,.33472-.56079l7.01855-8.66309.188,6.814a1.89171,1.89171,0,1,0,3.782-.10425l-.30957-11.22729,2.76782-3.41626c-.43579,6.75293.43042,14.2395,3.272,20.56543q-.41858-.26733-.86658-.49927a8.30543,8.30543,0,0,0-6.54626-.71387,7.4924,7.4924,0,0,0-4.45386,9.38818,2.18284,2.18284,0,0,0,4.10132-1.49609,3.14193,3.14193,0,0,1,1.78784-3.76953,4.16136,4.16136,0,0,1,3.10571.46875,5.3714,5.3714,0,0,1,2.68054,2.84863C438.31592,643.63086,436.27283,647.29614,433.818,648.83179ZM392.23206,622.522a34.30625,34.30625,0,0,1-18.08362-2.23584,34.30437,34.30437,0,0,1,12.20789-13.5271,12.33387,12.33387,0,0,0,10.40527,5.09888,12.32641,12.32641,0,0,0-4.52954,10.66406Zm13.92871-66.50391a12.33289,12.33289,0,0,0-11.49915,1.41089,34.30311,34.30311,0,0,1-7.1051-16.77832,34.30277,34.30277,0,0,1,17.8186,3.80859,12.33408,12.33408,0,0,0,.78564,11.55884Zm-12.42212,9.043a9.37762,9.37762,0,0,1,6.83594-5.41309c2.86023-.4458,6.80469.988,8.11792,3.833a5.37183,5.37183,0,0,1-.16235,3.90845,4.16355,4.16355,0,0,1-2.04126,2.38672,3.14176,3.14176,0,0,1-3.81885-1.6792,2.18263,2.18263,0,0,0-4.07959,1.55322,7.49216,7.49216,0,0,0,9.512,4.18237,8.30637,8.30637,0,0,0,4.48193-4.82422q.187-.46838.32861-.94507c1.99219,6.64209,6.23779,12.86914,10.98718,17.68921l-4.32861-.771-7.11462-8.69067a1.89177,1.89177,0,0,0-2.92761,2.39673l4.318,5.27441-10.97937-1.95532a2.17524,2.17524,0,0,0-.78284-.22607c-.104-.00952-.209-.01489-.31372-.022a12.98226,12.98226,0,0,1-5.2478-3.60986C392.806,574.15625,391.79114,569.38623,393.73865,565.061Zm33.51941-6.689,9.87708,5.345,1.57459,4.105c-5.63-3.75342-12.54651-6.74634-19.44531-7.44824q.44073-.22925.86609-.50122a8.30837,8.30837,0,0,0,3.89111-5.31226,7.49273,7.49273,0,0,0-5.90308-8.55127,2.18271,2.18271,0,0,0-.75537,4.29956,3.14211,3.14211,0,0,1,2.37024,3.43335,4.1629,4.1629,0,0,1-1.95825,2.45532,5.37255,5.37255,0,0,1-3.8075.89722c-3.04175-.7522-5.19458-4.355-5.29687-7.2478a9.37878,9.37878,0,0,1,4.02429-7.73535c3.87952-2.72925,8.75549-2.63306,13.37805.26343A12.983,12.983,0,0,1,430.608,546.844c.02686.10229.05225.20532.08154.30664a2.17568,2.17568,0,0,0,.36963.72583l3.99377,10.41187-5.99438-3.24365a1.89166,1.89166,0,1,0-1.80054,3.32739Zm14.13074,18.2373c.01245.04272.02869.084.0437.12622l-1.24426,7.38965-7.02112,2.61719c-.04419-.00684-.088-.01514-.13232-.01929-6.40674-4.56543-13.25928-12.62207-15.4082-21.23437C426.48962,565.97241,435.69556,571.18018,441.38879,576.60938Zm-40.34753,9.48975c.101.02759.20178.05688.30322.08179a2.16373,2.16373,0,0,0,.802.041l11.02551,1.74927-5.80676,3.56982a1.89174,1.89174,0,0,0,1.98145,3.22314l9.568-5.88159,4.34253.68872c-6.06628,2.99927-12.11719,7.49341-16.175,13.11792.01489-.33154.01587-.66626.00024-1.00269a8.30711,8.30711,0,0,0-2.655-6.02515,7.49269,7.49269,0,0,0-10.35742.83691l-.00989.01172a2.18274,2.18274,0,0,0,3.35608,2.79175,3.14141,3.14141,0,0,1,4.15857-.33594,4.16039,4.16039,0,0,1,1.14685,2.9231,5.37954,5.37954,0,0,1-1.12646,3.74609c-2.17236,2.2583-6.3689,2.32129-8.92554.96338a9.37844,9.37844,0,0,1-4.68665-7.35278c-.42358-4.72437,2.09729-8.89893,6.91711-11.4541A12.98041,12.98041,0,0,1,401.04126,586.09912ZM397.11,618.511c1.04321-2.69922,4.25757-5.39941,7.37842-5.11377a5.3709,5.3709,0,0,1,3.30371,2.09448,4.15933,4.15933,0,0,1,1.04614,2.96094,3.14116,3.14116,0,0,1-3.36365,2.468,2.1827,2.1827,0,0,0-.69446,4.30981,7.49264,7.49264,0,0,0,8.37781-6.14673,8.30651,8.30651,0,0,0-1.93689-6.2937q-.31165-.39587-.65381-.75684c6.74841,1.5957,14.26379,1.03247,20.8125-.6709l-2.83191,3.36328-11.0835,1.81616a1.89171,1.89171,0,0,0,.61169,3.73364l6.72681-1.10229L417.62,627.70337a2.178,2.178,0,0,0-.587.56519c-.06042.08545-.11755.17383-.17615.26074a12.98312,12.98312,0,0,1-5.75049,2.74c-5.31592,1.22314-9.95459-.28271-12.72656-4.13184A9.37922,9.37922,0,0,1,397.11,618.511Zm39.76074-14.6792c-.02808.03516-.05713.06909-.083.10547-7.1571,3.26538-17.56055,5.17139-26.09363,2.72632,4.85022-7.43359,13.9635-12.80225,21.5116-15.01831.04358.0105.08789.01709.13208.02515l5.777,4.772Zm4.12671,24.60669a43.10975,43.10975,0,0,1-.35962-21.3313c.02942-.031.06018-.06079.08789-.09326l4.447-1.65771Q443.36987,617.02,440.99744,628.43848ZM445.953,600.0957l-3.98132,1.48413.95813-5.6897c.00354-.02173.00439-.04321.00757-.06494.0061-.04492.01209-.09009.01575-.1355.00305-.0376.00427-.075.00549-.1123.00122-.03638.0022-.07251.00171-.10889-.00073-.0437-.00317-.08716-.00635-.13037-.00208-.03027-.00427-.06055-.00769-.09082-.005-.04614-.01184-.09155-.01965-.137-.00488-.02832-.00989-.05688-.01575-.085-.0094-.04419-.02014-.08765-.03186-.1311-.0083-.03052-.01685-.06079-.02637-.09106-.01233-.03906-.02588-.07739-.04028-.11548-.0127-.03418-.026-.06787-.04028-.10156-.0144-.033-.02954-.06567-.04517-.0979-.01782-.03662-.03613-.07275-.05579-.10864-.01624-.02881-.03308-.05737-.05029-.08569-.022-.03613-.04456-.07153-.06848-.10669-.01929-.02783-.03955-.05518-.05994-.08228-.02417-.032-.04846-.06372-.07458-.09473-.02539-.03076-.05212-.05957-.0791-.08862-.02356-.02539-.04663-.05054-.07141-.075-.0343-.03394-.07043-.06592-.10681-.0979-.01514-.01294-.02856-.02734-.04407-.04028l-4.44861-3.67432,5.40649-2.01538.00549-.00244a2.35116,2.35116,0,0,0,.2146-.09668c.02258-.01123.04675-.02.06873-.03174.03406-.01831.06531-.041.09839-.061a2.31184,2.31184,0,0,0,.59351-.50513l.00122-.00171.00146-.00146a2.31077,2.31077,0,0,0,.38354-.67749c.01355-.03638.03-.07178.04175-.10889.00732-.02368.01147-.04932.01807-.07349a2.34781,2.34781,0,0,0,.05444-.229l.00146-.00586.95789-5.68994,2.55627,2.11133Q447.19409,591.42517,445.953,600.0957Zm2.64063-23.05811-2.47827-2.04712c-.01624-.042-.03125-.08423-.0498-.125a44.2565,44.2565,0,0,1,3.55078-13.3147Q449.25671,569.32617,448.59363,577.0376Zm-1.89429-40.85205a2.183,2.183,0,0,0-3.061.30225l-.00977.01221a7.49288,7.49288,0,0,0,1.134,10.32886,7.92746,7.92746,0,0,0,5.23193,1.56641q-.01318,1.17-.03247,2.33887a46.53384,46.53384,0,0,0-7.623,15.73486l-1.49658-4.134,3.96826-10.5061a1.89159,1.89159,0,1,0-3.53918-1.33667l-2.40833,6.37573-3.79993-10.49658a2.16636,2.16636,0,0,0-.19177-.77954c-.04419-.09595-.09241-.19043-.13916-.28564a12.9892,12.9892,0,0,1,.50293-6.34692c1.59888-5.21582,5.22253-8.48,9.94141-8.95557a9.713,9.713,0,0,1,4.69775.71826q.13586,6.60205.14783,13.29224a3.85548,3.85548,0,0,1-2.55334-.6106,3.14155,3.14155,0,0,1-.45544-4.147A2.18313,2.18313,0,0,0,446.69934,536.18555Zm2.8186-17.3894c-2.19751,9.65356-11.50806,6.44067-16.43848,14.30811-2.2478,3.58716-1.11816,5.59717-4.25537,5.761-3.9458.20581-7.16235-4.0271-12.26514-3.01978-2.40454.47461-5.44019,3.623-7.64172,3.7041-2.62244.09644-8.40771-3.61548-11.25037-4.18359-6.90552-1.38013-16.93372-3.14429-16.22705,6.10034.5791,7.57544,6.19507,12.49,7.98535,19.1145.9425,3.48706-1.26025,6.9873-.78223,10.76465a18.60749,18.60749,0,0,0,6.51392,11.53125c-3.718,1.44727-7.35889,3.74561-9.40088,7.261-2.0647,3.5542-.82141,8.42432-2.26538,11.27222-2.8667,5.65283-19.24219,11.582-15.56946,21.01563,3.296,8.46582,19.47388,4.36963,25.24133,6.13745,2.49792.76538,4.899,4.8269,8.10864,6.17749a18.629,18.629,0,0,0,13.24683.07666c-1.26941,8.27026,2.27661,12.43994,7.62878,17.72754,2.847,2.81274,2.30688,1.74854,2.99646,6.68311.64087,4.58643,4.15259,9.18481,4.57654,13.38086.3783,3.74365-3.22668,10.36035-4.41931,13.96777q-2.54,7.68274-5.29517,15.29175-5.0235,13.90027-10.70654,27.55a691.67575,691.67575,0,0,1-44.20825,87.86792c-2.578-22.15991-14.86133-43.124-39.12866-43.36572,10.11768-5.67187,22.00244-8.3313,33.52954-6.54614,6.25159.96826,11.382,3.20044,16.82886,6.21411,2.52954,1.39966,8.8175,5.77246,8.2395.85742-.85669-7.28613-20.54626-11.04419-25.593-11.64136A48.74047,48.74047,0,0,0,324.361,771.8186c4.524-6.69751,8.32544-14.885,13.52783-21.02686,2.78369-3.28613,5.34082-3.63867,9.14941-5.42285,1.49329-.69946,7.34424-5.44507,8.55164-5.27417,3.92786.55542,12.353,17.79028,15.03186,16.31763,5.76172-3.16772-9.11584-16.00952-11.31494-17.386a23.88189,23.88189,0,0,1,14.9342,1.12427c1.90051.79883,7.27283,5.14282,8.46936,1.67944,2.63647-7.63159-16.416-9.10449-19.7832-8.33789a105.15617,105.15617,0,0,0,8.26807-9.04272c1.39453-1.74219,4.90417-9.39282,6.56531-10.10083,2.03223-.866,6.10828.96216,8.913-.22876a13.406,13.406,0,0,0,5.08459-3.88647c9.37476-11.54736-5.61389-25.92749-17.14832-16.82788a12.11026,12.11026,0,0,0-4.86646,7.94971c-.57629,4.34473,3.71094,7.16772,3.68945,10.22583-.01721,2.4541-4.26782,6.48022-5.65125,8.32446a94.41913,94.41913,0,0,1-9.11658,10.77661c-3.819,3.76831-11.10571,11.88745-16.80835,12.74072,2.71973-9.825,8.50928-19.10474,11.63672-28.95312,3.07886-9.69507,3.48535-22.74878,8.03052-31.63867,2.29248-4.48389,7.87659-6.68384,9.31384-11.85059,2.6449-9.50806-6.85217,3.00513-8.70508,5.7041,2.42993-3.53931-1.141-10.58789.91882-13.281.22815-.29834,6.275-2.1582,7.19434-3.00024a12.25749,12.25749,0,0,0,3.86914-6.83276c2.12952-13.14233-16.71069-18.1333-21.51074-5.91406-2.8252,7.19165,2.09106,8.45337,4.13623,13.75464,1.04321,2.7041-.30322,6.999-.65894,9.74243-.59546,4.59131-1.1543,9.21362-1.85352,13.78735-.97314,6.36377-4.61255,13.93872-4.35474,20.29443a157.83864,157.83864,0,0,0-2.79712-26.19409,73.67182,73.67182,0,0,0-3.51733-12.08887c-1.49988-3.7749-2.83594-5.041-1.725-8.06934,2.04688-5.5791,6.308-7.77686,3.58606-14.94238a12.923,12.923,0,0,0-14.60425-8.10181c-10.16089,2.07983-13.967,16.40845-6.176,23.22095,3.31714,2.90039,8.344,1.11792,11.00342,2.91772,1.91077,1.293,3.49048,9.75,4.08826,11.97534,1.42346,5.29932,2.14844,10.76367,3.29944,16.12183.39746,1.8501.66553,7.072,1.99646,8.708-1.75085-2.1521-11.27759-21.87891-13.37048-18.78564-1.52271,2.25024,4.95044,11.094,6.16821,13.22192,2.39648,4.188,5.31763,8.41235,6.77625,13.03931a26.40464,26.40464,0,0,1,.29846,14.23486c-1.058,4.33545-5.10437,8.61719-5.22241,12.98315.15-5.59326-4.32471-13.87939-7.82788-18.1001-7.37671-8.88794-5.79175-.0166-2.76318,5.66943,2.88647,5.41992,7.95227,12.32129,7.22717,18.78882-.88074,7.8562-8.76892,16.18433-12.76648,22.82471-2.51392,4.17554-6.01111,13.79224-12.399,12.46362-6.75647-1.40552-5.80994-12.73413-6.14026-17.42383-1.31348-18.64893-2.81787-37.28271-4.18787-55.92725-.50452-6.86523-1.361-10.19385,5.18811-13.1416,5.891-2.65161,10.50171-4.8147,10.69824-12.252.1488-5.63013-2.88159-10.927-4.84229-16.01318a57.9812,57.9812,0,0,1-3.33252-25.73975c2.25952-29.38477,15.00537-65.92041-13.85474-87.20093-6.6377-4.89453-15.32544-8.79858-23.636-9.386-8.13672-.5752-20.17773,5.95483-27.78564,2.65771-7.20691-3.12329,3.2168-18.689-1.55542-21.20142,9.271,4.88135,21.0188-6.13843,24.10718-14.06543,4.76343-12.22681-1.26392-24.6958-7.114-35.36206-6.166-11.24243-12.00342-21.56055-14.32617-34.35034-.58838-3.24023-.0437-6.79956-3.53662-5.02612-2.77588,1.40967-6.72681,12.87671-8.46667,15.60547-11.45984,17.97363-32.18787,44.16455-14.50964,65.86768,3.29956,4.051,7.58557,5.82813,12.694,6.22363,4.14087.32031,6.82886-1.67114,8.33386,2.05908,1.34558,3.33521-4.43579,17.85791-.79248,19.55737-25.20337-11.75659-57.72009,4.59033-67.48047,28.842-4.58765,11.39917-6.03809,23.82861-7.21533,35.96338-1.46472,15.09717-3.012,30.11694-.20728,45.17822,1.11084,5.96631,2.04529,14.74585,8.1814,17.71777,3.324,1.60986,6.82739-.64014,8.49438,1.802,2.902,4.25073,1.23975,17.89941,1.42993,22.75317.94751,24.16724.28967,48.29883-.05176,72.47827-6.3396-5.6792-12.87427-10.82739-18.77319-17.00659-4.34143-4.54785-10.17554-8.20508-8.85522-14.49878.67969-3.23926,11.9856-13.46509,10.55481-15.23706-2.639-3.26855-10.12781,8.00537-11.00793,9.95.6936-5.1272,1.545-9.53662,4.05066-13.98706,2.74207-4.87012,6.37-6.61475,9.92358-10.39258,8.75549-9.30737-9.89453,2.00781-8.84106,3.39136-2.04944-2.69165,5.84937-11.08862,7.49939-12.59961,1.198-1.09717,10.38867-6.48755,9.31274-8.18872-1.22461-1.93652-8.20117,3.77881-9.28345,4.7063,1.472-2.498,9.7981-11.7251,9.14941-14.26416-.95764-3.74878-7.76086,6.10864-8.31165,6.88721,1.5271-2.15845,3.64087-9.04468,2.35144-11.53-1.29846-2.50293-5.37976,10.44336-5.56812,11.34058-1.63489,7.78882-5.42944,13.88843-8.20666,21.38232.00952-1.18457,3.5979-18.23169,3.14075-18.45923-4.47876-2.23071-6.6123,30.20215-6.864,31.325-.26111-1.39185-.748-12.56592-2.58118-12.29834-2.75562.4021-.97766,10.94141-.76892,12.55176.6875,5.30469,1.62964,9.16479,1.14966,14.55615-5.35547-7.2439-6.61145-12.478-6.40234-21.74731.01758-.78345.94727-8.749-1.589-5.99731-1.91833,2.08105-.65125,12.45288-.58166,15.1582-4.66809-7.39233-10.22949-15.9292-11.368-24.55884-1.332-10.09619-2.00293-19.77222,1.36487-29.61255,15.9397,11.51563,28.93628-25.44409,5.0293-25.27783-8.39087.05835-15.2627,8.34473-12.899,16.65479.6189,2.176,2.95715,3.85181,3.52356,5.69263.76086,2.47314-.10889,3.32568-.93555,6.48877a63.96177,63.96177,0,0,0-1.55859,14.20142c-3.32739-8.77393-3.97192-18.82642-4.27-28.12378-.11377-3.54639-.15088-7.15259.07031-10.698a45.69562,45.69562,0,0,1,.62842-5.86011,8.71621,8.71621,0,0,0,2.66431-.03638c5.09607-2.989,9.43945-3.95361,10.37366-11.0293a13.601,13.601,0,0,0-9.82727-14.78638c-12.15625-3.4126-22.98755,12.07324-13.85156,21.74561a13.197,13.197,0,0,0,4.26172,2.94092q4.32385.19189,1.77344,3.80908c.40442,2.79785-.61133,6.44824-.68384,9.27368a108.26366,108.26366,0,0,0,2.41992,25.20825c-.64856-3.053-3.71594-5.11133-4.32178-8.44531-.14893-.81909.72644-7.28711-.27441-7.41772-1.608-.2102-1.24316,4.88355-1.244,5.02-1.77539-4.41187-2.82935-7.77051-2.47693-12.45483.17053-2.26807,2.25916-6.40967,1.70313-8.3916-1.19531-4.26147-5.19788-.49683-4.5387,2.31665-.30017-1.28149-.70667-8.27124-3.41577-7.56982-3.14673.8147,1.79016,17.71094,2.34058,19.31372-5.43066-6.21606-5.87781-3.31152-2.02332,2.7,1.30444,2.03442,3.68555,3.38477,4.84045,5.03711,2.09924,3.00342,3.13562,7.33862,4.88831,10.61328-.32617-.24194-5.49268-4.61353-6.422-3.34937-2.03894,2.77344,8.553,8.11914,9.8429,9.1084,5.77246,4.42725,7.15845,11.65869,9.66162,18.21094a139.757,139.757,0,0,0,9.07446,19.752c1.56519,2.74194,8.34448,10.10571,7.673,13.7959.10828-.59546-13.76941-15.35107-14.95166-18.32471-.54065-1.35986-1.56311-11.093-3.3208-10.50732-1.96155.65381-.83423,8.09424.39172,9.146-2.32251-1.99219-5.07446-4.16455-8.06763-5.04395,1.44934.42529,1.342-6.14795,1.33545-6.20605a12.43043,12.43043,0,0,0-4.15063-7.79663,13.3009,13.3009,0,0,0-17.45215-.69458c-10.41333,8.47119-2.77649,26.96582,10.95215,23.86572,3.21973-.72681,4.67114-3.697,7.2301-4.67139,2.75745-1.05,1.01-1.03,3.87817-.22534,1.34155.37646,7.75891,4.58081,6.79846,6.40454-.91675,1.74072-9.64819,1.86743-2.37671,3.44507,2.14343.46509,4.08105-1.51294,6.39539-.27515.972.51953,2.61682,4.54541,3.782,4.33569-1.07788.19116-12.47815,5.13306-10.77185,7.27832,1.32324,1.66333,10.05933-5.54492,13.45667-3.73169,3.715,1.98242,6.74,8.021,10.36182,10.616,1.00647-.08594-7.19226.77881-4.20068,3.1062,1.78845,1.39111,6.08948-1.03809,8.20288-.40063,4.928,1.48584,10.01794,10.23413,13.57471,13.79639-8.82092-2.52344-17.72424-4.05933-26.57654-6.30615-1.88745-.47925-9.47852-3.46655-10.58325-1.407-1.49878,2.79395,9.15137,4.676,11.01965,4.60229-8.85852.35059-17.1283-1.21606-25.972-1.00757-1.27942.03027-9.05347-.22925-5.99731,3.40161,1.77075,2.10376,10.03772.616,12.60718.689-2.46667.70654-5.217,2.14185-7.71387,2.47021a4.67545,4.67545,0,0,0-4.41211-.76172q-3.74927,1.55017-4.13916-2.49609c-4.57275-5.39355-7.05176-15.634-9.79224-22.15332q-9.77161-23.24561-17.66016-47.22339c-11.56616-35.35156-19.79285-71.905-23.0697-108.99146,1.73938.00171,7.11743-1.95581,8.567-1.5835.77271.19849,4.5752,5.05762,5.05127,5.50171a58.17646,58.17646,0,0,0,12.8938,9.2876c10.38623,5.34741,20.70679,7.0918,23.18848-6.3457a59.99722,59.99722,0,0,0,.26636-19.24634c-.41455-2.89917-2.83911-7.6355-2.40186-10.22.28491-1.68457,1.01367-1.96875,2.20642-3.88184,6.05139-9.7063,7.74109-19.42847,1.81824-30.03809,2.90137,5.19653,20.09155-7.71924,22.25562-10.76758,1.751-2.46606,2.08057-7.73145,3.80884-9.59277,1.06531-1.14746,8.1416-1.92407,9.97278-2.60547,7.23767-2.69336,15.42639-6.928,20.79822-12.64648,12.05908-12.83765-13.8446-24.23486-23.56616-27.436a54.26981,54.26981,0,0,0-5.90686-1.59644q-2.40509.46985-1.80493-2.51758c-2.31726-3.1853-2.88269-7.03906-5.82507-10.12524-5.17224-5.425-12.3689-7.69678-19.7334-7.80225,3.67236-6.58081,4.97925-14.63647,2.70056-21.91235-1.2179-3.88892-6.52148-7.68823-7.29773-10.84521-.47241-1.92139,2.55151-8.86206,2.87183-10.97046,1.09253-7.189,2.59619-19.19824-1.69385-25.686-4.52136-6.83789-14.68225-3.499-20.69092-.498A41.34647,41.34647,0,0,0,80.01672,349.5H275.188c-2.03711,2.55933-2.60181,9.19531-4.78345,11.17407-2.606,2.36377-11.89832,3.69189-15.46045,5.499-5.8822,2.98389-13.097,6.84131-17.10852,12.29956-3.56787,4.85474-2.77173,6.53125,1.572,11.16211,4.47217,4.76782,10.39221,8.40552,16.27454,11.15991a56.59217,56.59217,0,0,0,9.83582,3.62329c5.42114,1.38306,3.05286.16284,5.23535,3.34521,3.306,4.82007,4.01465,9.10034,9.24854,12.80835a28.9422,28.9422,0,0,0,16.30933,5.11987c-3.0083,5.38892-5.03833,11.5896-4.02759,17.78394,1.01978,6.24951,7.37354,11.4939,8.05212,16.13672.48352,3.30713-2.4325,9.37476-2.8136,12.94482a56.70392,56.70392,0,0,0-.21228,9.94263c.29968,4.304.78381,14.27588,5.4303,16.62378,5.12842,2.59155,14.36914-2.40112,18.687-4.58154a64.4476,64.4476,0,0,0,7.95532-4.72729c2.88684-2.02515,6.20361-6.7605,9.23083-8.103,4.18762-1.85718,11.78271,1.00708,17.59973-1.31372a28.86522,28.86522,0,0,0,13.78833-12.16138c5.09009,8.52686,13.8772,14.66431,24.07581,13.8667,2.19788-.17212,5.36755-1.58032,6.95178-.93042,1.33862.54907,3.40308,3.76587,4.69067,4.96338a56.45583,56.45583,0,0,0,15.7522,10.65234c11.52148,4.999,18.865,3.34351,20.64038-9.56421a62.42675,62.42675,0,0,0-.64355-20.82349c-.42676-2.11255-2.672-6.24536-2.37463-7.9519.174-.99829,3.54358-3.54028,4.21118-4.46753q2.48,15.79907,3.99207,31.73C448.224,495.344,451.66785,509.35107,449.51794,518.79614ZM382.85388,694.95361c.0459-.35986.19116-.78662.54736-.85547a.69327.69327,0,0,1,.697.45947,5.26661,5.26661,0,0,1,.208.87549c.50146,2.00732,3.50122,2.5459,4.01709,4.5498a1.4,1.4,0,0,1-.68726,1.61572,1.48041,1.48041,0,0,1-1.2832.063,6.81286,6.81286,0,0,1-2.58313-2.67139A6.23034,6.23034,0,0,1,382.85388,694.95361Zm-19.09253-49.1958c-.32654-.1748-.7854-.21973-1.00439-.52148a.55567.55567,0,0,1,.27625-.77979,1.02378,1.02378,0,0,1,.90588.12061c.27246.16064.498.38867.75342.57568a3.04918,3.04918,0,0,0,1.71753.5542c.45422.01709,1.18188-.28857,1.47681.20508.40869.68457-.991,1.66406-1.552,1.68848-.43872.01855-.89624-.19434-1.30322-.02979-.58838.23828-.68652,1.10156-1.24988,1.394a.81034.81034,0,0,1-1.00342-1.229c.39624-.48926,1.23169-.47461,1.33606-1.19141A.66738.66738,0,0,0,363.76135,645.75781Zm-36.30444-1.94336a3.76144,3.76144,0,0,0-.96326.84863,4.0335,4.0335,0,0,0-.26648,1.46777c-.07886.49561-.4679,1.04443-.95825.93848a.78736.78736,0,0,1-.54761-.74316,2.30315,2.30315,0,0,1,.22241-.95752q.24518-.62842.49023-1.25635a2.28063,2.28063,0,0,1,.647-1.01562,1.9636,1.9636,0,0,1,.70264-.67187.827.827,0,0,1,1.09644.27A1.005,1.005,0,0,1,327.45691,643.81445Zm-188.55225,4.50049c.19214-.18262.53857-.09229.74817.0415a2.31216,2.31216,0,0,1,.53235.49707,3.72148,3.72148,0,0,1,.65356,1.20654,3.19638,3.19638,0,0,1-.2627,2.66943c-.32227-.88379-.50024-1.60937-.74512-2.35156-.10645-.37256-.24048-.73389-.35962-1.11768-.07349-.19238-.11523-.38623-.18811-.54346A.59007.59007,0,0,0,138.90466,648.31494Zm-21.21777-28.80908c-.047.01855-.0769-.05664-.05994-.10059.0094-.062.11-.09326.15906-.07324a1.0767,1.0767,0,0,1,.22156.1333,3.2715,3.2715,0,0,0,.34167.21484,4.99528,4.99528,0,0,0,.68665.33154,5.41074,5.41074,0,0,0,1.41956.33936,14.04619,14.04619,0,0,0,3.14478-.18115,3.87916,3.87916,0,0,1-3.25854,1.23145,3.47281,3.47281,0,0,1-1.72021-.68018,2.79416,2.79416,0,0,1-.63367-.67236,2.30233,2.30233,0,0,1-.21057-.40479l-.05933-.16846c-.01025-.01221.00049-.03809-.02173-.03125C117.67859,619.45215,117.649,619.48926,117.68689,619.50586ZM100.5592,710.48047a1.88668,1.88668,0,0,1-1.8811-.58545,3.69506,3.69506,0,0,1-.95959-1.79541,4.61,4.61,0,0,1,.75452-3.72852c.00708.64746.00854,1.23877.047,1.81885a11.59394,11.59394,0,0,0,.23059,1.68262,5.22405,5.22405,0,0,0,.56885,1.50342A2.45231,2.45231,0,0,0,100.5592,710.48047Z"/></svg>