<svg id="Слой_1" data-name="Слой 1" xmlns="http://www.w3.org/2000/svg" viewBox="0 0 500 1000"><title>Flags light bulbs</title><path d="M491.0249,319.74683V146.70288a37.0806,37.0806,0,0,0-37.08057-37.08057h-130.813V28.25073A25.75039,25.75039,0,0,0,297.38086,2.50024H202.61914a25.75039,25.75039,0,0,0-25.75049,25.75049v81.37158H46.05615A37.08071,37.08071,0,0,0,8.9751,146.70288V319.74683a37.08309,37.08309,0,0,0,30.61719,36.50732C20.10156,408.79419,8.9751,472.00366,8.9751,544.29126c0,225.27,185.40381,453.2085,241.0249,453.2085,51.501,0,241.0249-227.93848,241.0249-453.2085,0-72.2876-11.12646-135.49707-30.6167-188.03711A37.08312,37.08312,0,0,0,491.0249,319.74683Zm-41,224.54443q0,9.31567-.47412,18.55762l-36.26807-31.87671L450.021,543.89648C450.02148,544.02881,450.0249,544.15869,450.0249,544.29126Zm-400.0498,0c0-.13159.00342-.26074.00342-.39233l36.7373-12.92407-36.28,31.88794Q49.98975,553.62,49.9751,544.29126Zm287.1897,11.56055.019-.01245,26.25537-15.15894-18.1814,47.31445-34.07007-17.14526Zm-33.17432,2.53149,2.18628-38.07886,50.06543,7.9104-39.37158,22.73193Zm41.26831,49.35181,18.18213,47.31372-52.25269-30.16748Zm20.95361,4.96216,45.584,24.05859L384.6333,660.6311Zm5.4624,70.37891-7.09473,35.46338L320.95093,691.0918Zm-50.72461-178.438,43.62744-27.44727,7.09521,35.46143Zm63.68213,30.46021,27.16357,23.87427-45.583,24.06006Zm-71.53149-46.52905,2.14038-56.36475,37.77905-12.77734,7.82422,39.10547Zm56.81812-98.41382a14.7292,14.7292,0,0,1,13.498-26.1106,7.82032,7.82032,0,0,1,1.71289,1.0647,3.42019,3.42019,0,0,0,.63867.29175,14.72853,14.72853,0,0,1-15.84961,24.75415Zm-8.491-39.88916a31.13008,31.13008,0,0,0-9.00366,46.12378L273.71265,423.012l62.45-53.55981a8.89027,8.89027,0,1,0-11.57568-13.49634l-67.39014,57.79688V389.03516l39.53467-39.53491H362.843C362.36768,349.74316,361.89551,349.99658,361.428,350.26636ZM257.19727,531.3667l-.00049-60.335,31.88354,39.4021Zm30.4624,1.27-2.08887,36.3811-28.37354,16.38184V552.63672Zm-2.08838,94.07715,2.08887,36.38037-30.46289-19.99951V610.332ZM262.959,449.88745l34.25854-11.58691-1.95605,51.50708ZM203.26855,349.50024l39.53467,39.53491v24.71753l-67.39038-57.79687a8.89,8.89,0,1,0-11.57471,13.49634L226.28735,423.012l-78.71313-26.62231a31.12923,31.12923,0,0,0-9.00586-46.12158c-.46875-.27051-.94238-.52441-1.41895-.76782Zm39.533,151.87158.00024,29.99561-31.88281-20.93237,31.88379-39.40332v30.3147Zm.00122,108.9602v32.7627l-30.46167,19.99951,2.08862-36.38037Zm-.00049-24.93237-28.373-16.3811-2.08862-36.38037L242.802,552.637Zm-38.06372-95.59253-1.95581-51.50635,34.2583,11.58667Zm-94.5188-119.92578A14.30573,14.30573,0,0,1,122.449,362.8208a14.51775,14.51775,0,1,1-12.22925,7.06055Zm25.20093,107.31152,43.62842,27.44678-50.7229,8.01489Zm3.73267-18.6582,7.82422-39.10864,37.78076,12.77856,2.14014,56.3667Zm-5.366,124.49951L88.2041,558.97485l27.16284-23.87476Zm45.26221,108.05908-43.62769,27.447-7.09473-35.46143Zm-63.68188-30.46045-27.16357-23.875,45.58325-24.05908Zm21.19238-119.95044,26.25684,15.15942.01733.011L188.811,570.85034l-34.06909,17.14551Zm52.2522,84.19971-52.25171,30.16821,18.1814-47.314Zm-45.05542-96.66553,50.06592-7.91138,2.18628,38.07861ZM78.03271,370.51392a40.88312,40.88312,0,0,0,2.49561-16.09424l18.37915,2.7439a31.15042,31.15042,0,0,0,23.5415,51.561,31.40225,31.40225,0,0,0,4.27954-.2998l-16.30054,81.478L95.26831,409.041a8.89,8.89,0,1,0-17.47559,3.27588l16.35889,87.26025-21.407-12.35937-13.2334-49.38623A421.28527,421.28527,0,0,1,78.03271,370.51392ZM51.2915,503.50366l14.25659-3.82007,21.40649,12.35913L50.28516,524.94336Q50.60669,514.09,51.2915,503.50366Zm22.62061,68.033,49.885,26.32983-49.885,26.32983L55.04175,607.61084q-1.34729-8.64148-2.3606-17.41357ZM86.7168,664.75879,65.52686,657.304Q63.65405,650.22107,61.96,642.999Zm.23779,18.93213-11.56128,6.6748q-1.98779-5.98608-3.87354-12.10474ZM94.1521,696.156l-5.61816,29.96948q-4.29126-10.65674-8.34937-21.90527Zm16.27661,9.6731,16.30151,81.47925a30.78,30.78,0,0,0-9.79126.196c-5.18506-9.89893-10.51465-20.65259-15.79639-32.13965Zm19.65137,99.74658a14.73441,14.73441,0,0,1,7.11426,12.59253,14.57509,14.57509,0,0,1-.65381,4.28589c-3.34766-5.58032-6.92676-11.73462-10.65332-18.40869A14.92031,14.92031,0,0,1,130.08008,805.57568Zm56.81909-98.41431-2.13989,56.36694-37.78,12.77856-7.82446-39.10864ZM143.75684,667.5166l26.26172-15.1626.01416-.00684,25.97681-14.998-2.18628,38.07813Zm30.92432-69.65039,32.55029-16.3811,25.196,14.54614,3.17773,1.83472L207.23169,614.2478ZM204.7395,705.92554l32.303,39.91895-34.25854,11.58716Zm6.18018-20.62866,31.88257-20.93213v29.99512l.001.019.00049,30.31982Zm31.88355-321.40723-14.3894-14.3894h14.3894Zm28.78271-14.3894-14.38916,14.3894v-14.3894Zm-.418,538.62622c.00024,11.42651-9.32739,19.80566-19.55249,20.85986a20.10621,20.10621,0,0,1-14.18726-3.84814A21.16122,21.16122,0,1,1,271.168,888.12646ZM257.19727,666.082v-1.71777l31.88525,20.93286-31.88477,39.40356Zm38.06519,39.8418,1.95654,51.50781-34.25952-11.58716Zm-2.49438-91.67676-26.27344-15.1687-2.09985-1.21265,28.373-16.38135L325.3186,597.865Zm37.2002,38.09912.01929.01,26.2561,15.15845-50.06641,7.91162-2.18652-38.07812Zm30.87964,84.85107-7.82349,39.10815-37.78149-12.77808-2.14087-56.36768Zm1.96069,80.96924a13.824,13.824,0,0,1,9.72461-13.70581c-3.30664,5.84033-6.48926,11.26685-9.49316,16.25122A14.62633,14.62633,0,0,1,362.80859,818.1665Zm14.74414-31.16016a31.36559,31.36559,0,0,0-4.28027.30029l16.2998-81.48047,8.99756,47.98926c-5.56592,12.00464-11.18652,23.2146-16.64062,33.49951A31.24993,31.24993,0,0,0,377.55273,787.00635Zm28.2959-90.853,13.41895,7.74683q-3.906,10.68677-8.05469,20.8623Zm7.19775-12.46533,14.87354-5.23242q-1.8457,5.87659-3.79443,11.62891Zm.23828-18.93237,24.37988-21.429q-1.71094,7.1261-3.60693,14.12085Zm12.80371-40.56177L376.20215,597.8645l49.88525-26.33057,21.16309,18.6001q-1.0481,8.86487-2.44775,17.61108ZM413.04346,512.04053l21.40723-12.35986L448.708,503.501q.68481,10.58606,1.00635,21.43994Zm14.20947-24.82471-21.40527,12.35889,16.35742-87.26025a8.8902,8.8902,0,0,0-17.47607-3.27563l-15.15869,80.8645-16.30273-81.479a31.12981,31.12981,0,0,0,35.44336-30.85937,31.027,31.027,0,0,0-7.62061-20.40356l18.38184-2.74487a40.87652,40.87652,0,0,0,2.49561,16.09741,421.29607,421.29607,0,0,1,18.51953,67.3103ZM398.69336,258.3689c1.65234,0,3.61719-.21,4.69141-1.63281,1.19043-1.57617,1.0835-4.07373,1.208-5.95508.144-2.16943.1709-4.34473.18652-6.51855.03076-4.30322.38379-8.63037-.17285-12.915-.32764-2.52295-.69043-5.74365-1.98779-7.97656-1.61523-2.77832-5.12939-4.13574-8.22217-4.13574-9.52637,0-8.125,8.03223-10.17969,8.03223-2.98926,0-6.25781-3.64258-6.25781-7.6582,0-6.91211,7.752-11.39551,16.34473-11.39551,2.98828,0,15.78418-.09277,20.54785,12.98242C416.8125,226.614,417,254.25952,417,257.52905c0,4.10938.74707,6.53711.74707,9.71289,0,1.96191-8.78027,2.14844-17.09277,2.14844-22.50879,0-24.09668-11.58105-24.09668-17.18555,0-11.76855,11.582-19.89355,22.042-21.66895,1.33057-.22949,2.41211,1.10059,2.8999,2.231a7.277,7.277,0,0,1,.47021,3.41553,4.29541,4.29541,0,0,1-.89551,2.59473c-1.05811,1.17969-2.71484,1.062-4.10254,1.51074a12.11653,12.11653,0,0,0-3.89746,2.17334,10.06253,10.06253,0,0,0-3.90723,7.59521C389.167,255.28687,393.74316,258.3689,398.69336,258.3689ZM310.334,206.62573c1.96191,0,4.0166.09375,4.0166,1.49512,0,1.12012-1.12109,2.89551-1.12109,4.20313a1.76749,1.76749,0,0,0,1.86816,1.58691c1.12109,0,2.42871-1.12012,4.4834-2.14746a17.76643,17.76643,0,0,1,8.7793-2.14844c4.57617,0,7.56543,4.2959,9.90039,4.2959a10.49065,10.49065,0,0,0,5.51074-1.68066,17.5935,17.5935,0,0,1,8.59277-2.61523c17.18457,0,16.81152,22.50879,16.81152,34.46387,0,28.4873-3.54883,25.31152-6.25781,25.31152h-6.35156c-.93359,0-3.54883.18652-3.54883-1.49414,0-1.68164,3.54883-11.95508,3.54883-27.55273,0-17.83984-6.35059-19.707-9.90039-19.707-3.26855,0-6.35059-.28027-6.35059,15.12988,0,33.53027-.4668,33.624-3.45605,33.624H328.4541c-1.77539,0-3.26953.374-3.26953-.93359,0-1.40137,3.54883-20.1748,3.54883-29.04785,0-5.60352,0-18.77246-7.6582-18.77246-7.00488,0-9.62012,8.59277-9.62012,22.50879,0,18.77344,2.61523,22.32227,2.61523,24.9375,0,1.58789-1.68164,1.30762-2.709,1.30762H303.9834c-3.17578,0-5.1377,2.98926-5.1377-24.65723C298.8457,205.41187,297.63184,206.62573,310.334,206.62573Zm-24.6582-10.64746c.65332,0,1.12012.1875,1.12012,1.96191,0,2.52148-2.80176,8.21875-2.80176,9.33984,0,1.68164.4668,2.80176,1.86816,2.80176,1.21387,0,2.335-.4668,3.54883-.4668,3.5498,0,3.64258,2.52148,3.64258,5.69727,0,1.30762,0,4.85645-1.96094,4.85645-.74707,0-2.61523-.83984-4.29687-.83984-5.13672,0-5.13672,5.97754-5.13672,14.29,0,24.84375,5.23047,28.95313,5.23047,30.541,0,1.40137-10.834,6.63184-12.98242,6.63184-3.54883,0-4.4834-20.82812-4.4834-25.96484,0-11.48828.56055-15.97168.56055-17.74609,0-2.80176.84082-7.752-3.3623-7.752-1.68164,0-2.61523,1.12012-3.64258,1.12012-1.21387,0-1.12109-1.21387-1.12109-2.89551,0-7.09766,2.05469-7.93848,5.60449-7.93848a13.89867,13.89867,0,0,0,1.77441.374c2.89551,0,3.17578-4.57715,3.64258-7.8457C273.34668,198.59351,283.80762,195.97827,285.67578,195.97827ZM249.8335,40.50024a23,23,0,1,1-23,23A22.99989,22.99989,0,0,1,249.8335,40.50024Zm-31.688,185.27295c0-11.39453,9.15332-17.55957,19.24023-17.55957,11.6748,0,18.11914,7.00488,18.11914,8.873,0,1.77441-5.23047,9.33984-7.37891,9.33984-2.42773,0-2.98828-7.19141-11.58105-7.19141-2.89551,0-6.81836,1.30762-6.81836,4.10938,0,9.62012,27.27246,9.43359,27.27246,28.39355,0,12.1416-10.08691,19.05371-21.29492,19.05371-9.90039,0-19.707-5.791-19.707-16.71875,0-4.38965,2.24121-9.99414,2.98828-9.99414.46777,0,2.80273,14.10352,16.06543,14.10352,3.8291,0,8.3125-1.96094,8.3125-6.72461C243.36328,241.83765,218.14551,244.35913,218.14551,225.77319Zm-18.12109-36.05176c3.73535,0,7.19141,2.42773,7.19141,6.44434,0,4.01563-3.45605,6.16406-7.19141,6.16406-3.73633,0-7.19141-2.14844-7.19141-6.16406C192.833,192.14917,196.28809,189.72144,200.02441,189.72144ZM196.38184,209.615h5.13672c3.92285,0,4.0166.28027,4.0166,1.40137,0,3.45508-1.12109,6.91113-1.12109,17.0918a194.99878,194.99878,0,0,0,3.64258,38.85352c0,2.98926-2.80176,2.42871-4.9502,2.42871h-6.35156c-4.57617,0-4.9502,1.96094-4.9502-30.915C191.80469,206.533,193.2998,209.615,196.38184,209.615Zm-42.40527,0h7.752c1.40137,0,3.082-.4668,3.17578,1.30762.18652,1.40137.373,3.17578,2.24121,3.17578,1.40137,0,2.98926-1.49414,4.9502-2.98926,1.96191-1.40039,4.20313-2.89551,6.72461-2.89551a8.959,8.959,0,0,1,8.68652,9.15332c0,6.53809-5.32422,10.46094-8.126,10.46094-1.12109,0,.18652-6.25781-6.25781-6.25781-7.8457,0-8.40527,12.6084-8.40527,18.21289,0,18.58594,3.1748,26.43164,3.1748,28.11328-.09277,1.49414-2.14746,1.49414-3.1748,1.49414h-7.47266c-3.45508,0-5.13672,2.89551-5.13672-28.01953C152.1084,215.49878,151.36133,209.70874,153.97656,209.615Zm-47.0752-19.89355h10.17969c.84082,0,1.49512,1.02734,1.49512,1.96094,0,1.30762-3.5498,10.46094-3.5498,17.93262,0,1.12109,0,2.89551,1.58789,2.89551.74707,0,2.24219-.84082,4.29688-2.05469a16.82671,16.82671,0,0,1,7.84473-2.24219c8.5,0,14.75781,6.07129,14.75781,28.58008,0,8.9668-1.30762,32.59668-4.20312,32.59668h-9.71387c-.84082,0-3.3623.28027-3.3623-1.21387,0-.6543,4.66992-19.14746,4.66992-31.56934,0-14.47656-2.42773-17.37207-7.00488-17.37207-9.52637,0-9.71289,14.57031-9.71289,21.20117,0,18.68066,2.05469,24.751,2.05469,27.46,0,1.49414-1.77539,1.49414-2.709,1.49414h-9.24609c-2.709,0-2.709,3.17578-2.709-38.29395C101.57715,223.62476,101.76367,189.72144,106.90137,189.72144Zm-67.9043,42.96289c0-20.26758,11.39453-42.40332,34.09082-42.40332,8.126,0,20.64063,3.45605,20.64063,13.543,0,5.417-3.73535,8.5-9.62012,8.5-3.8291,0,1.30762-8.78027-10.55371-8.78027-13.63574,0-19.42676,13.917-19.42676,25.5918,0,17.83887,12.1416,25.03125,20.26758,25.03125,15.22363,0,16.53125-13.63672,17.37207-13.63672,1.30762,0,2.05469,7.47168,2.05469,8.40625,0,13.82324-10.64746,21.85547-23.72363,21.85547C48.89746,270.79175,38.99707,251.55151,38.99707,232.68433ZM208.583,919.84741c-20.68481-22.02808-42.29858-50.38086-61.93066-81.08911a31.12205,31.12205,0,0,0,.92334-39.415l78.71436-26.624L163.8396,826.28076a8.88983,8.88983,0,1,0,11.5752,13.49561L242.8042,781.979l.00024,24.71826-51.58228,51.5835a8.89028,8.89028,0,0,0,12.57275,12.57275l39.00977-39.01074.00024,18.87183a38.10478,38.10478,0,0,0-4.09448,73.8103,62.00551,62.00551,0,0,1-5.04443,19.21387A276.37148,276.37148,0,0,1,208.583,919.84741Zm81.81885-.83984A299.60708,299.60708,0,0,1,265.91528,942.802a62.97915,62.97915,0,0,1-4.62109-18.2771,38.105,38.105,0,0,0-4.09595-73.81055V831.84229l39.01025,39.01123a8.89045,8.89045,0,1,0,12.57324-12.57275l-51.5835-51.58423-.00024-24.717,67.39087,57.79688a8.89039,8.89039,0,1,0,11.5752-13.49707l-62.45-53.55957,78.71338,26.62183a31.12376,31.12376,0,0,0,.03784,38.33594C332.81982,868.23486,311.16333,896.66577,290.40186,919.00757ZM445.39551,270.79175c-9.90039,0-19.707-5.791-19.707-16.71875,0-4.38965,2.24121-9.99414,2.98828-9.99414.46777,0,2.80273,14.10352,16.06543,14.10352,3.8291,0,8.3125-1.96094,8.3125-6.72461,0-9.62012-25.21777-7.09863-25.21777-25.68457,0-11.39453,9.15332-17.55957,19.24023-17.55957,11.6748,0,18.11914,7.00488,18.11914,8.873,0,1.77441-5.23047,9.33984-7.37891,9.33984-2.42773,0-2.98828-7.19141-11.58105-7.19141-2.89551,0-6.81836,1.30762-6.81836,4.10938,0,9.62012,27.27246,9.43359,27.27246,28.39355C466.69043,263.87964,456.60352,270.79175,445.39551,270.79175Z"/></svg>