<svg id="Слой_1" data-name="Слой 1" xmlns="http://www.w3.org/2000/svg" viewBox="0 0 500 1000"><title>Flags light bulbs</title><path d="M491.02478,319.74634V146.70288a37.08065,37.08065,0,0,0-37.08057-37.08081H323.13147V28.25049A25.75039,25.75039,0,0,0,297.381,2.5H202.619a25.75039,25.75039,0,0,0-25.75049,25.75049v81.37158H46.056A37.08071,37.08071,0,0,0,8.97522,146.70288V319.74634a37.083,37.083,0,0,0,30.61694,36.50757C20.10168,408.79395,8.97522,472.00366,8.97522,544.291c0,225.27026,185.40381,453.209,241.0249,453.209,51.501,0,241.02466-227.93872,241.02466-453.209,0-72.28735-11.12646-135.49707-30.6167-188.03711A37.083,37.083,0,0,0,491.02478,319.74634ZM249.83337,40.5a23,23,0,1,1-23,23A22.99989,22.99989,0,0,1,249.83337,40.5ZM80.017,349.5H241.51941a54.03293,54.03293,0,0,1,16.37012,19.7876c5.78711,12.39648,5.24756,27.07031-1.375,37.38281-6.88965,10.73047-21.02,16.27295-32.16992,12.61572-11.46924-3.76123-16.84277-19.99512-13.645-30.92822,2.17139-7.42187,7.313-10.145,15.27881-8.0918a11.17116,11.17116,0,0,1,6.83252,5.89063,9.11089,9.11089,0,0,1,.56494,7.50928,6,6,0,1,0,11.06055,4.6543,21.05567,21.05567,0,0,0-.874-17.49268A23.1449,23.1449,0,0,0,228.973,368.646c-14.12891-3.64014-25.82227,2.77393-29.791,16.34326-4.87207,16.6582,3.25488,39.74121,21.42334,45.69922a35.2809,35.2809,0,0,0,11.00977,1.72266,41.29242,41.29242,0,0,0,18.30542-4.43689c-.19922,1.49731-.33936,2.99365-.40649,4.48572-.5708,12.67676,3.77979,24.73389,11.93652,33.0791a36.65656,36.65656,0,0,0,25.9126,11.083,31.98851,31.98851,0,0,0,8.58691-1.15576c12.916-3.59717,22.47363-15.98193,22.23193-28.80762-.20947-11.1499-7.96631-21.17529-18.04248-23.31934a20.01568,20.01568,0,0,0-16.96289,4.57422,17.63527,17.63527,0,0,0-6.501,14.27344,6.00018,6.00018,0,0,0,11.98438-.61914,5.987,5.987,0,0,1,2.30518-4.52539,8.1793,8.1793,0,0,1,6.67676-1.96582c4.606.98,8.438,6.27686,8.542,11.80762.13965,7.40527-5.77,14.88232-13.45361,17.02246-7.56934,2.10742-16.68945-.60742-22.69775-6.75537-5.75732-5.89062-8.94629-14.91895-8.53027-24.15137.38721-8.59912,3.67236-17.50977,9.501-25.76953a5.98465,5.98465,0,0,0,.79041-5.33447,53.1069,53.1069,0,0,0-3.03015-37.68408A62.10537,62.10537,0,0,0,259.06409,349.5h73.56079l25.07373,32.86646-82.2749,11.34326,82.46851,11.37036-50.05347,66.52051,66.03162-50.37573,11.34326,82.27527L396.584,421.03125l47.09473,35.43628q-1.04077-6.85217-2.24109-13.57617,3.93347,21.80658,6.063,45.048c-20.55664-2.64465-42.31873,5.413-55.87476,21.18127a60.09018,60.09018,0,0,0-8.46851,12.96094c-6.696,9.38159-17.269,17.991-27.0271,21.62354-11.6748,4.3457-24.99268,1.84082-32.38721-6.09229a24.62891,24.62891,0,0,1-4.53809-25.67334,19.79022,19.79022,0,0,1,10.8252-10.9248c4.67236-1.73193,10.1001-.9248,13.50439,2.00488,3.28564,2.82764,4.54395,8.02539,2.80566,11.58691-1.65479,3.39014-6.36133,5.2417-9.50391,3.73486a6,6,0,0,0-5.18652,10.82129c9.0376,4.333,20.94238-.00928,25.47412-9.292,4.11279-8.42529,1.63574-19.58008-5.76221-25.94678-6.71436-5.77783-16.72314-7.41211-25.49756-4.16309a31.53951,31.53951,0,0,0-17.71,17.502,36.47291,36.47291,0,0,0,6.81055,38.53174c7.23389,7.76123,18.20605,11.981,29.55762,11.981a45.35343,45.35343,0,0,0,15.79443-2.82422A65.3477,65.3477,0,0,0,376.881,545.5a62.08477,62.08477,0,0,0,4.43286,28.4873c3.91357,9.3916,9.83838,16.92578,17.13379,21.78711a35.377,35.377,0,0,0,19.47412,6.041,30.1364,30.1364,0,0,0,9.12109-1.38232c8.29248-2.63232,15.54395-9.11914,19.895-17.79736.53638-1.06982,1.01123-2.16016,1.44263-3.26172-4.98987,54.37427-20.77893,105.93628-38.88745,149.57544a71.16107,71.16107,0,0,1-27-20.14673c-7.79639-9.50684-11.92871-20.084-11.63623-29.7832.32324-10.70068,6.59326-20.44971,15.24658-23.708a20.17959,20.17959,0,0,1,26.84863,14.687c1.55078,7.293-2.0127,15.40723-7.94336,18.08887a11.57274,11.57274,0,0,1-9.8833-.61084,8.8088,8.8088,0,0,1-4.87793-5.95459,6.74271,6.74271,0,0,1,1.30273-5.07031A3.47319,3.47319,0,0,1,393.868,674.96a5.99993,5.99993,0,0,0-.96582-11.96094,15.22875,15.22875,0,0,0-10.86963,6.144,18.73874,18.73874,0,0,0-3.58984,14.53467,20.6812,20.6812,0,0,0,11.11182,14.42773,23.47925,23.47925,0,0,0,20.39746.9165c11.15088-5.0415,17.48682-18.59229,14.7373-31.52a32.18029,32.18029,0,0,0-42.814-23.4209c-13.0835,4.92578-22.54687,19.144-23.0127,34.57666-.38037,12.59766,4.7168,26.00586,14.35107,37.75439a83.32826,83.32826,0,0,0,31.58081,23.5752c-8.59619,19.69006-17.53467,37.5614-25.95923,53.09937-4.55237-19.52612-.58325-39.6167-1.70349-59.2644a10.22651,10.22651,0,0,0-3.78845-7.48425c-3.36182-2.8595-6.80127-5.6416-10.10815-8.5553-8.36218-7.36816-15.49451-15.439-18.72021-26.12061a176.66,176.66,0,0,0-7.35339-19.52954c-5.75244-13.17163-1.5863-31.76709,1.56738-45.10767,1.03552-4.38025.45483-23.97668,5.07776-25.32959,3.481-1.01855,11.15405,21.30652,12.80774,25.12964,1.26306,2.91431,2.60559,5.93652,5.11707,8.03027,2.39038,1.9928,8.51184,3.66187,9.67334-.13843.81055-2.6521-4.61084-6.64209-5.84253-8.73035-2.50293-4.24951-3.79468-9.03333-5.12207-13.68652a92.45959,92.45959,0,0,0-12.95813-28.1449c-5.4259-7.73084-9.278-10.04028-18.54846-13.34558-15.989-5.70081-31.478-10.34607-48.77783-8.33142-16.564,1.92712-34.2771,6.51782-48.65942,14.49292a35.512,35.512,0,0,1-5.58154,2.62183c-5.24365,1.80652-7.21191.29712-6.41187-4.803,1.46094-9.31152,2.246-19.5686,5.79517-27.9729,1.77612-4.20569-.51306-8.82227-1.88867-13.15686-2.448-7.71448-1.33069-22.87122,3.74084-29.65662,2.61389-3.49731,2.96472-7.13232,2.94275-11.06689-.04-7.08618-2.47656-14.03064-1.52551-21.1853.20667-2.82812.451-5.65442.6106-8.48486.19824-3.51831-2.77075-7.51636-5.746-7.43176-3.98755.11328-4.09924,3.37854-4.41968,5.83923a40.8944,40.8944,0,0,1-4.06421,12.63281c-.76172,1.57385-1.57007,3.13208-2.38208,4.68921a96.01979,96.01979,0,0,1,3.01221-21.7356,23.24937,23.24937,0,0,0,.94922-5.54517c.00818-.97729.04224-3.40308-.93652-3.99951-3.4021-2.06787-4.46,11.157-5.21545,12.22192.00671-.00928-2.0675-3.8186-2.212-4.24829a21.72722,21.72722,0,0,1-1.02148-4.91162,93.25519,93.25519,0,0,0-2.02954-11.083c-.72766-3.364-1.084-6.78455-1.85474-10.13709-.2019-.87817-.30664-2.23962-1.089-2.86035-1.12048-.88745-1.942,1.47485-2.02258,2.06409a35.31673,35.31673,0,0,0,.155,12.24426c.21362.97913.46216,3.33875,1.24268,4.05371q-3.5235-3.21625-7.03564-6.44336c-.58838-.53894-6.53662-6.55713-6.80615-3.4436a1.9763,1.9763,0,0,0,.58228,1.30859c3.05481,3.84583,7.02087,6.95886,10.09619,10.78821a26.327,26.327,0,0,1,5.614,12.572,29.14985,29.14985,0,0,1,.15942,6.43079c-.0813,1.11291-.31116,2.16931-1.18152.62439-.40479-.71851-.723-1.88159-1.54248-2.29956a1.49326,1.49326,0,0,0-2.16272,1.11938c-.08875.98438,1.395,2.11108,1.93457,2.90125a17.14183,17.14183,0,0,1,1.71851,3.26526c2.37622,5.8866,3.25244,12.82837,1.64233,18.98376-.74329,2.84192-4.0127-2.49939-4.29224-3.32434-.69385-2.04773-1.20117-4.31641-3.05811-5.7616-1.29077-1.00476-3.30994-1.08118-3.11646,1.01025.16614,1.79578,1.88843,3.0636,2.04736,4.97888.27808,3.35034,3.03918,6.05322,2.09778,9.52759q-.15619.57642-.34045,1.145c-.92126,2.85645-2.31445,5.58521-3.50757,8.35425-2.04529.35925-4.09949.66943-6.17859.89844-3.28943.36255-6.67737.67993-9.68762,1.96826-2.24731-1.98779-4.41333-4.05615-6.467-6.219a19.96987,19.96987,0,0,1-3.29761-4.23828,11.95394,11.95394,0,0,1-.99194-4.37927c-.17334-1.19519-.7041-2.28723-.79492-3.52576-.1145-1.55591.51807-3.06494.78564-4.60437a3.931,3.931,0,0,0-.05859-1.95886,2.0035,2.0035,0,0,0-1.43286-1.33337c-2.36011-.47327-3.324,3.379-3.14185,4.839.32837,2.6333,1.62061,5.52014.09668,7.7572a47.37235,47.37235,0,0,1-11.32812-31.94275,6.30036,6.30036,0,0,1,.71533-3.18311c.87769-1.41016,2.63721-2.07324,4.02417-3.06458.887-.63391,2.15747-2.07861,1.80786-3.23572-.30737-1.01794-.72461-.57031-1.50977-.106-.86108.509-1.71021,1.03613-2.57129,1.54541a2.53751,2.53751,0,0,1-.71045.32593,1.66537,1.66537,0,0,1-1.85791-1.38513c-.25928-1.51,1.20752-3.43762,1.76489-4.8208.72925-1.80994,1.437-3.62805,2.07935-5.46667.63965-1.83179,1.21777-3.68359,1.686-5.56042a18.69731,18.69731,0,0,0,.5188-4.64771.86651.86651,0,0,0-.157-.61963.88654.88654,0,0,0-.88037-.1178,3.62065,3.62065,0,0,0-2.25806,2.30432,15.10442,15.10442,0,0,0-.59155,3.18811,18.99436,18.99436,0,0,1-4.09985,9.28235,7.7018,7.7018,0,0,1-1.39478,1.49939c-2.06348-2.968-3.2666-6.8927-4.78369-10.14978-.74561-1.601-1.5957-3.31287-3.23047-4.15991s-4.231-.18225-4.446,1.55188a4.07543,4.07543,0,0,0,1.22607,2.78284,54.93,54.93,0,0,1,7.968,14.18713,53.75838,53.75838,0,0,1,2.33643,7.94824c.48535,2.29688,1.46436,5.321.79932,7.627a.59384.59384,0,0,1-.25293.39258c-.23975.12451-.52417-.05786-.72681-.23059a63.18589,63.18589,0,0,1-5.98169-5.81677,9.26215,9.26215,0,0,1-1.86157-2.68237,9.164,9.164,0,0,0-.96436-2.40967c-1.63745-2.11829-3.26294.41479-2.95825,2.03418.36719,1.95,1.90771,3.75061,3.35181,5.12451,8.2207,7.8208,13.157,17.761,15.79321,28.35229.08813.354.07959.85706-.30176.93005a.78448.78448,0,0,1-.47559-.11536c-2.707-1.31946-5.32251-2.78528-7.979-4.1897-2.81348-1.48755-5.7937-2.49658-8.65869-3.83435a8.516,8.516,0,0,0-4.09644-.5946,3.22576,3.22576,0,0,0-.8772.36389c-2.34766-.88916-4.67993-1.81787-6.97656-2.8363-6.14966-2.72705-9.38867-.47888-9.57861,5.87085a93.75075,93.75075,0,0,0,.23877,12.75769c1.30054,12.13464,10.77319,28.40833,26.95459,30.28674,8.27344.96045,14.835,4.54407,21.39795,8.97156,5.21143,3.51575,6.84033,7.25061,5.55273,13.12219-1.365,6.22375-1.3645,12.52039,1.67407,18.717,2.39331,4.88037,1.59155,10.19482-1.40723,14.82312a39.82081,39.82081,0,0,0-5.10767,11.77942c-2.36279,9.10205-7.08228,17.3938-9.51978,26.58777-4.49634,16.95837-1.99829,35.23059.9165,52.44885,1.34863,7.96582,7.96338,14.35083,12.90747,20.93079,4.46533,5.94275,3.1438,10.49219,1.27222,16.7594-1.90991,6.39563-3.49365,14.30139-2.41357,20.94446.73486,4.52039.76294,9.682,1.75073,14.08533a44.16831,44.16831,0,0,0-7.9292-14.99365c-8.99707-11.03125-22.65869-16.33691-34.80273-13.51465a27.39879,27.39879,0,0,0-17.53613,13.70215,22.80333,22.80333,0,0,0-1.68652,18.92969,19.47129,19.47129,0,0,0,13.999,12.51709c7.42236,1.498,15.27832-2.59277,17.88916-9.31543a5.99986,5.99986,0,1,0-11.18555-4.34473c-.51367,1.32178-2.61426,2.24512-4.32764,1.89746a7.64624,7.64624,0,0,1-5.127-4.93457c-1.375-3.70117.041-7.26855,1.00732-9.06592a15.4565,15.4565,0,0,1,9.68213-7.69727c8.77881-2.03809,17.77,3.25781,22.78857,9.41064,8.75879,10.73975,9.75977,27.65869,2.32861,39.356-6.52466,10.27051-19.45532,16.36145-31.61255,15.41711-19.96021-36.34619-43.53369-86.91125-58.50293-144.45508a22.66311,22.66311,0,0,0,8.40747,2.26208c.60205.04492,1.20264.06689,1.80518.06689,10.74268-.001,21.36133-7.03076,25.73291-17.26758,4.03442-9.44495,2.7915-20.85583-3.07446-29.72314a53.81735,53.81735,0,0,1,30.36938,15.7373c7.57373,7.89941,11.75146,17.56348,11.4624,26.51465-.30908,9.58887-6.33447,18.42139-14.32715,21.00146a16.50841,16.50841,0,0,1-12.95117-1.58691,12.942,12.942,0,0,1-6.563-8.15088c-.73291-3.17041.15186-6.543,2.10352-8.019a3.99459,3.99459,0,0,1,3.14746-.53906,2.06113,2.06113,0,0,1,1.396.84863,5.99987,5.99987,0,1,0,10.71191-5.4082,13.89263,13.89263,0,0,0-9.397-7.13037,15.94208,15.94208,0,0,0-13.09668,2.65771c-5.72656,4.33105-8.36133,12.48584-6.55664,20.293a24.773,24.773,0,0,0,12.33691,15.8877,29.48454,29.48454,0,0,0,14.436,3.81348,26.459,26.459,0,0,0,8.11914-1.24609c12.85254-4.14941,22.16016-17.32227,22.63477-32.03418.39258-12.1582-5-24.99072-14.79443-35.20654a65.0276,65.0276,0,0,0-19.99707-14.10925A50.69482,50.69482,0,0,0,133.514,588.55908c8.85742-12.94629,10.54-28.16895,4.50146-40.71973-4.85742-10.09717-14.34082-17.50537-24.749-19.33447-11.53564-2.02441-23.42578,2.90479-29.5791,12.27246-6.58789,10.03027-5.249,24.231,3.04834,32.32959,5.45557,5.32568,14.84619,8.18652,22.2373,3.34766a6.00008,6.00008,0,0,0-6.57129-10.041c-1.73389,1.13623-5.06934.26807-7.28418-1.894-4.25635-4.1543-4.88428-11.84961-1.3999-17.1543,3.50488-5.3374,10.69043-8.23389,17.47217-7.041,6.666,1.1709,12.80176,6.04395,16.01221,12.71729,4.2168,8.76514,2.90771,19.24121-3.59229,28.7417-7.21143,10.541-18.91748,16.8042-29.80469,15.957-7.95068-.61914-16.28516-4.94238-23.46924-12.17432-7.65771-7.709-15.8894-21.46936-20.29-34.36719-.042-2.29932-.0708-4.60107-.0708-6.90771a583.04228,583.04228,0,0,1,6.68579-90.08423c10.56152-3.3125,23.67041.44287,31.69458,9.63989,4.92139,5.64063,7.41162,12.39746,6.83105,18.53857-.5957,6.31006-4.89111,11.95166-10.21387,13.41553a10.92946,10.92946,0,0,1-8.26416-1.28125,8.41068,8.41068,0,0,1-4.11182-5.13281,6.086,6.086,0,0,1,.79053-4.92969,3.45081,3.45081,0,0,1,3.10205-1.41113,5.99988,5.99988,0,1,0,2.43555-11.75A15.42556,15.42556,0,0,0,63.766,477.28516a18.10146,18.10146,0,0,0-2.84229,14.88525A20.273,20.273,0,0,0,70.599,504.84766a23.37437,23.37437,0,0,0,11.85645,3.28369,21.49546,21.49546,0,0,0,5.69873-.76025c10.11084-2.77979,17.91553-12.59082,18.97949-23.85742.88818-9.40283-2.66064-19.44678-9.73633-27.55664a44.09915,44.09915,0,0,0-38.59668-14.44458,434.49828,434.49828,0,0,1,14.49878-57.35889c9.8645-9.9325,23.553-18.31128,37.05542-18.31128h.12451c10.01514.03857,18.38428,4.897,24.87646,14.44092,6.91357,10.16406,7.2583,24.21.83838,34.15674-6.50732,10.082-19.78125,15.13916-30.87891,11.7627a15.02755,15.02755,0,0,1-10.44043-11.27051c-1.103-4.86328.09082-9.90283,2.9707-12.54,3.269-2.99316,8.042-2.30957,11.47119-1.20654a6.00018,6.00018,0,0,0,3.67188-11.4248c-12.31348-3.95654-19.85059.6709-23.24707,3.78125-6.14111,5.62354-8.6582,14.83691-6.56934,24.04492a26.99785,26.99785,0,0,0,18.65088,20.09619c16.03418,4.877,35.14648-2.31592,44.45313-16.73535,8.959-13.88086,8.54883-33.37793-.99854-47.41357-8.72607-12.8291-20.74316-19.63818-34.75244-19.69141-.05713-.00049-.11279-.00049-.16943-.00049-10.6687,0-21.15356,3.84717-30.43311,9.66821A41.106,41.106,0,0,0,80.017,349.5Zm361.37415,93.1228L412.72864,405.053l19.49084-2.68713Q437.616,421.80981,441.39111,442.6228Zm-28.85559-60.283,9.26819-12.31738-.00085-.00281c.05835.16394.10425.33069.1648.494,1.677,4.52063,3.25293,9.13184,4.78076,13.78564Zm14.21411,1.96362q1.4469,4.40717,2.8064,8.89111Q428.19666,388.71069,426.74963,384.30347Zm2.86023,9.07129q1.34711,4.4588,2.6095,8.991Q430.96069,397.8302,429.60986,393.37476Zm-10.17175-36.623c.00183.16895-.00635.33789-.00244.50684C419.43152,357.08948,419.44006,356.92065,419.43811,356.75171Zm.13281,2.94189c.00378.04639.00427.09277.0083.139C419.5752,359.78638,419.57483,359.74,419.57092,359.6936Zm.06519-7.60522q.13257-1.29877.34729-2.58838Q419.76825,350.7887,419.63611,352.08838Zm-.18188,2.58765c.01416-.36621.052-.731.07593-1.09668C419.506,353.94507,419.46863,354.30981,419.45422,354.676Zm-22.897,11.5188L394.25549,349.5h24.18506ZM351.39929,349.5H376.172l-2.32837,16.88818Zm98.62549,194.791q0,6.16608-.213,12.30017a30.57006,30.57006,0,0,0-1.4071-4.01208c-4.52246-10.39453-15.11182-17.51172-25.78613-17.26465-11.90137.25586-22.53857,10.08936-23.22852,21.47363a6.00024,6.00024,0,0,0,11.97852.72559c.31592-5.2168,5.80078-10.07959,11.5083-10.20215,5.811-.10645,11.93457,4.103,14.52393,10.05469,2.55518,5.874,2.11035,13.30957-1.18994,19.89063-2.90869,5.80176-7.57373,10.08008-12.79883,11.73877-5.63867,1.78857-12.65527.56152-18.31006-3.20654-6.7168-4.47656-10.62012-11.39844-12.71094-16.417a51.76317,51.76317,0,0,1,1.10791-41.14478,59.0302,59.0302,0,0,0,3.63574-5.91724,6.00052,6.00052,0,0,0,.51855-1.375,47.378,47.378,0,0,1,3.07227-3.99121,51.758,51.758,0,0,1,47.76636-16.7085Q449.99988,521.7182,450.02478,544.291ZM175.72253,843.49268c.89014-11.218,3.189-22.10522,8.04285-32.4541,3.13367-6.68127,5.42749-13.59412,5.15442-21.05725-.21387-5.85022-.12671-11.6864,1.329-17.45276,4.08-16.16223,8.33142-33.00586,8.10706-49.70557-.05908-4.38135.55591-16.33423,7.552-15.58472,4.74048.50793,5.9812,6.20447,6.71838,9.71436,1.54285,7.34668-1.902,23.27173,4.15979,28.93237,1.61182,2.8739,1.23682,6.325.82043,9.54565-1.29407,10.00928-2.608,20.07275-3.38513,30.147a46.54145,46.54145,0,0,0,3.02026,20.27417c4.30908,11.28369,5.71167,22.699,5.70093,34.43579-.00415,4.39746-1.15552,8.76709-.59448,13.19849a40.43531,40.43531,0,0,1,.27686,6.01392h-49.9668C173.78918,854.2063,175.288,848.97021,175.72253,843.49268ZM200.13123,505.6283a16.59992,16.59992,0,0,1,.88306-1.8009,50.43317,50.43317,0,0,1,4.52881-6.49585,27.76149,27.76149,0,0,0-.2395,2.80591C205.22107,502.91992,203.16321,504.78784,200.13123,505.6283Zm69.88892,334.47913c-1.91406,5.28711-4.801,10.31665-7.04956,15.48633q-.845,1.94275-1.64038,3.90625H237.67688c-.15161-1.16675-.29773-2.334-.46851-3.49463-1.96436-13.35278-3.40027-26.73267-2.859-40.26184.26257-6.56458,2.7594-12.78613,2.44983-19.47815-.30347-6.56421-.26538-13.08289-2.15308-19.48682-2.57153-8.72388-1.09961-17.56055-.89062-26.40112.31934-13.50781,3.98315-26.67017,4.1582-40.16992.04993-3.84692-3.24512-9.90527.07373-11.33154,2.09033-.89807,8.49683,1.78735,10.27686,2.955,7.17358,4.7052,12.89038,9.58386,17.21143,16.75464a40.73514,40.73514,0,0,0,12.58569,12.83777c13.1333,8.7533,10.70654,22.86963,8.14258,35.37524q-5.20605,25.39233-10.41406,50.78442C274.23376,825.17163,272.6698,832.78809,270.02014,840.10742ZM172.785,513.05713c-2.69141,1.38989-3.50049.29822-6.65088-4.03735a84.68952,84.68952,0,0,0-6.15063-7.73022,16.50948,16.50948,0,0,1,4.65845,3.57092Q168.7135,508.95892,172.785,513.05713ZM55.4469,610.15454a21.81455,21.81455,0,0,1,12.43872-3.34888c7.50928.1748,14.82129,3.68994,19.08252,9.17383,4.36816,5.62061,5.5459,13.51025,2.93018,19.6333-2.62109,6.13818-9.33154,10.41357-15.61182,9.94727-2.91357-.2168-5.479-1.49219-6.53662-3.249a4.5665,4.5665,0,0,1,4.72607-6.84766,6.00018,6.00018,0,1,0,2.13672-11.80859,16.83727,16.83727,0,0,0-15.65454,5.68872Q57.01538,619.84656,55.4469,610.15454Zm-3.69092-28.744a84.49382,84.49382,0,0,0,10.06616,12.61243c.36084.3634.72949.71082,1.09595,1.06274a34.05717,34.05717,0,0,0-9.32739,2.48657Q52.525,589.542,51.756,581.41052ZM130.1803,811.6228c13.90137-1.26489,27.25366-8.82251,34.88013-20.63416-.16895,2.07739-.28345,4.16309-.36768,6.25525-.68311,16.98755-1.77759,33.88892-6.24121,50.52563-.53882,2.00732-1.26514,3.97852-1.94238,5.96191-6.79077-10.02124-13.41724-20.37158-19.75684-30.92383Q133.59558,817.55286,130.1803,811.6228ZM339.86206,856.595a6.01428,6.01428,0,0,0-1.11072.29468,6.89329,6.89329,0,0,1-5.43457-.83691,22.80508,22.80508,0,0,1-6.16553-5.79687c-4.65039-5.85449-7.60742-11.74219-8.78955-17.498-1.30225-6.34375-.34814-12.66113,2.61719-17.334,3.04053-4.78906,8.46045-7.79883,13.47607-7.48926,4.94531.30664,9.48633,4.168,10.12354,8.60742a8.32064,8.32064,0,0,1-1.97705,6.2959,6.77866,6.77866,0,0,1-4.73047,2.65137,6,6,0,0,0,.57324,11.98633,18.75957,18.75957,0,0,0,13.41064-6.99707,20.20808,20.20808,0,0,0,4.60156-15.6416c-1.44922-10.10059-10.58838-18.21729-21.25928-18.87939-9.3877-.57617-18.95459,4.53564-24.3501,13.03662-4.61621,7.27344-6.16162,16.81445-4.24023,26.17676,1.56494,7.61914,5.31543,15.20508,11.14795,22.54883.45117.56787.94849,1.16895,1.47314,1.78027H285.243a120.31978,120.31978,0,0,0,3.15442-15.97192c.51184-3.98389,1-7.97827,1.87817-11.90991.69788-3.12427,1.608-9.0603,4.12195-11.408,2.33838-4.25073,5.33521-8.15991,7.72083-12.3877,10.31482-18.27991,8.43933-40.90869,18.63831-59.24512,1.94592-3.49829,4.22522-8.04443,1.4054-10.97815a24.59772,24.59772,0,0,1-2.13257-1.94959c-3.06921-4.07812.34729-12.42822-2.11731-17.13928a18.85486,18.85486,0,0,0-2.13379-2.95593,36.07484,36.07484,0,0,1-4.92944-7.8877c-2.93945-6.62207-4.5957-16.84473-2.61548-23.71191,4.54382,4.45435,5.64441,13.00342,7.52051,18.72949,1.7561,5.35962,3.53687,10.77295,6.54834,15.62134,3.97974,6.4071,9.26074,10.37073,15.06738,14.931,5.93188,4.65857,10.08838,11.5697,13.80713,17.80237A94.49861,94.49861,0,0,1,363.75854,786.84a281.46061,281.46061,0,0,1,2.6803,28.16821c-1.35205,2.29358-2.67786,4.51575-3.96582,6.64514C355.25256,833.58984,347.65845,845.30542,339.86206,856.595ZM461.83337,306.97949A13.52052,13.52052,0,0,1,448.31287,320.5h-389a13.5206,13.5206,0,0,1-13.52051-13.52051v-149.959A13.5206,13.5206,0,0,1,59.31287,143.5h389a13.52052,13.52052,0,0,1,13.52051,13.52051Z"/></svg>