<svg id="Слой_1" data-name="Слой 1" xmlns="http://www.w3.org/2000/svg" viewBox="0 0 500 1000"><title>Flags light bulbs</title><path d="M491.0249,319.74683V146.70288a37.0806,37.0806,0,0,0-37.08057-37.08057h-130.813V28.25073A25.75039,25.75039,0,0,0,297.38086,2.50024H202.61914a25.75039,25.75039,0,0,0-25.75049,25.75049v81.37158H46.05615A37.08071,37.08071,0,0,0,8.9751,146.70288V319.74683a37.08309,37.08309,0,0,0,30.61719,36.50732C20.10156,408.79419,8.9751,472.00366,8.9751,544.29126c0,225.27,185.40381,453.2085,241.0249,453.2085,51.501,0,241.0249-227.93848,241.0249-453.2085,0-72.2876-11.12646-135.49707-30.6167-188.03711A37.08312,37.08312,0,0,0,491.0249,319.74683ZM384.36621,198.51245h11.27344c1.78711,0,4.81152-.41211,4.81152,2.47461,0,1.9248-1.2373,6.18652-1.2373,10.31152,0,16.085,13.47363,31.208,16.22363,31.208,5.499,0,9.21094-16.498,9.21094-27.084,0-6.874-1.5127-12.64844-1.5127-14.84766,0-2.47461,3.4375-2.0625,4.94922-2.0625h12.23633c2.6123.41211,2.19922,4.81152,2.19922,10.72363,1.2373,40.28223-29.833,79.32715-60.0791,79.32715-3.16211,0-3.2998-2.0625-3.2998-5.22461V271.24c0-1.64941.27539-5.63672,3.9873-5.63672,15.81055,0,19.93457-5.08691,19.93457-6.874,0-5.77441-23.92187-15.53516-23.92187-53.75488C379.1416,198.78784,379.00488,198.51245,384.36621,198.51245ZM255.01074,789.12524V732.41162c17.4292,10.88965,32.37646,28.31641,44.52344,51.90869.50293,1.77051,1.07324,3.5498,1.68848,5.33521C286.30518,799.04321,269.97949,798.86792,255.01074,789.12524Zm42.81689,43.87354q-2.05811,2.57373-4.07715,5.145l-.11133.14258c-11.86768,15.04419-23.07666,29.25488-37.34082,32.66992a2.48386,2.48386,0,0,0-1.2876.77319V819.59424a40.89652,40.89652,0,0,0,16.64795,12.0979,39.465,39.465,0,0,0,14.18018,2.427A74.268,74.268,0,0,0,297.82764,832.99878Zm-99.55225-43.32935c.64551-1.85156,1.2373-3.6958,1.76221-5.53125,12.12988-23.49829,27.043-40.86523,44.42725-51.72656v56.71362C229.50293,798.86279,213.187,799.04248,198.27539,789.66943Zm46.18945,29.9248v52.13525a2.48635,2.48635,0,0,0-1.28711-.77319c-14.26562-3.415-25.47461-17.62573-37.34082-32.66992l-.11279-.14258q-2.02148-2.56384-4.07715-5.145a74.28907,74.28907,0,0,0,11.98877,1.12036,39.45868,39.45868,0,0,0,14.18066-2.427A40.90122,40.90122,0,0,0,244.46484,819.59424ZM147.96045,664.9375a155.031,155.031,0,0,1,39.59131-17.6167c2.40332-.71436,4.82227-1.30347,7.24707-1.82446-2.1377,1.38623-4.32031,2.71924-6.58643,3.94653A155.20916,155.20916,0,0,1,147.96045,664.9375ZM170.895,772.07129c-.897,1.60742-1.75146,3.26978-2.5791,4.96655-17.18652-3.9104-28.606-15.57788-32.30225-33.05151l40.103-40.10254C180.74121,723.90845,178.98828,746.8,170.895,772.07129Zm-90.87793-422.571H184.00928a3.52786,3.52786,0,0,0-.021.40845,223.05238,223.05238,0,0,0,10.97266,66.08105,74.53745,74.53745,0,0,0,5.42871,12.18506,4.13183,4.13183,0,0,1-5.3125,5.72485,51.51089,51.51089,0,0,1-10.95557-6.70825,191.56724,191.56724,0,0,0-22.728-29.136c-.30957-.65454-.645-1.29712-.93848-1.95923a3.22741,3.22741,0,0,0-3.7251-1.89282,3.55319,3.55319,0,0,0-.35449.10669,3.40906,3.40906,0,0,0-1.77588.55835,3.22809,3.22809,0,0,0-1.29541,3.97241q.43433,1.1272.83643,2.26611a191.63246,191.63246,0,0,0,4.43066,36.33057,51.61674,51.61674,0,0,1-3.01709,12.616,4.132,4.132,0,0,1-7.80469-.29126,74.44971,74.44971,0,0,0-4.77832-12.45508,223.63958,223.63958,0,0,0-12.44385-21.44824,223.24437,223.24437,0,0,0-26.52295-33.03711,3.33871,3.33871,0,0,0-5.67725,1.72559,289.21629,289.21629,0,0,1-8.62744,33.90234,4.12756,4.12756,0,0,1-8.02148-.76294,127.92616,127.92616,0,0,0-8.58057-32.915c1.57422-4.81567,3.20117-9.58447,4.93506-14.25781A40.98216,40.98216,0,0,0,80.01709,349.50024ZM188.584,596.0144c2.20459,1.19458,4.33154,2.48853,6.41455,3.835-2.49072-.53125-4.97754-1.13257-7.44678-1.8667a155.22175,155.22175,0,0,1-39.41992-17.50635A155.05051,155.05051,0,0,1,188.584,596.0144ZM176.4873,541.57349l-40.10254-40.10205c3.69434-17.46509,15.104-29.12964,32.27637-33.04517q1.27881,2.64771,2.665,5.15649C179.36523,498.77588,181.1001,521.60156,176.4873,541.57349Zm-5.17676,67.87891a12.07637,12.07637,0,0,1,6.78662-2.188c5.33057.1394,7.16748,4.33447,11.083,6.79,4.6748,2.93237,10.31055,4.95581,15.50293,6.75415,1.96387.67993,3.9541,1.28125,5.95459,1.84326-2.00049.56152-3.99072,1.16309-5.95459,1.84326-5.19238,1.79834-10.82812,3.82178-15.50293,6.75415-3.91553,2.45557-5.75244,6.65063-11.083,6.79a12.07637,12.07637,0,0,1-6.78662-2.188,20.66145,20.66145,0,0,1-9.09668-13.19946A20.66084,20.66084,0,0,1,171.31055,609.45239Zm29.78955-23.65088c-4.50586-1.032-8.76953.636-12.63818-3.03467a12.08384,12.08384,0,0,1-3.25146-6.34668,20.66354,20.66354,0,0,1,2.90088-15.76587,20.66139,20.66139,0,0,1,15.76563-2.90063,12.07639,12.07639,0,0,1,6.34717,3.252c3.67041,3.86768,2.00146,8.13232,3.03467,12.63745,1.23242,5.37964,3.78662,10.79517,6.18555,15.73877.90918,1.86914,1.89014,3.7019,2.90771,5.51343-1.812-1.01733-3.644-1.999-5.51367-2.907C211.895,589.58838,206.479,587.03394,201.1001,585.80151Zm-86.25977-105.875-36.86523-36.865a2.48418,2.48418,0,0,0,1.45654-.364c12.50244-7.67212,30.47656-5.54907,49.50537-3.30273l.18018.02124c2.16162.25586,4.3374.51221,6.521.75513a74.31629,74.31629,0,0,0-9.26953,7.68555,39.4595,39.4595,0,0,0-8.311,11.74292A40.9014,40.9014,0,0,0,114.84033,479.92651Zm-7.457,7.457a40.89818,40.89818,0,0,0-20.32666,3.21729A39.4711,39.4711,0,0,0,75.313,498.91162a74.39118,74.39118,0,0,0-7.68506,9.26978c-.24268-2.18311-.499-4.35962-.75488-6.52075l-.022-.18066c-2.24561-19.02832-4.36865-37.00317,3.30322-49.50439a2.48608,2.48608,0,0,0,.36377-1.45679ZM88.77588,572.95166c23.49854,12.13037,40.86572,27.043,51.72607,44.42725H83.78857c-9.7373-14.96143-9.91748-31.27783-.54346-46.18945C85.09619,571.83521,86.94043,572.427,88.77588,572.95166Zm12.06641-29.14258c-1.60693-.89648-3.26953-1.751-4.96582-2.57886,3.91016-17.18677,15.57764-28.6062,33.05176-32.302l40.10205,40.10229C149.00537,553.65552,126.11328,551.90186,100.84229,543.80908Zm83.99658,125.228a12.07862,12.07862,0,0,1,3.25244-6.34668c3.86768-3.67041,8.13281-2.002,12.63721-3.03467,5.38037-1.23242,10.79492-3.78687,15.73828-6.18652,1.87012-.908,3.70264-1.88965,5.51465-2.90723-1.01807,1.812-1.999,3.64453-2.90723,5.51416-2.3999,4.94287-4.9541,10.35864-6.187,15.73828-1.03174,4.50513.63574,8.76953-3.03467,12.6377a12.08017,12.08017,0,0,1-6.34619,3.25171,20.66081,20.66081,0,0,1-15.76611-2.90088A20.661,20.661,0,0,1,184.83887,669.03711Zm38.26172,15.293c1.19434-2.20459,2.48828-4.33179,3.835-6.41479-.53174,2.4917-1.13281,4.97778-1.86719,7.44727A155.20743,155.20743,0,0,1,207.562,724.78174,155.02072,155.02072,0,0,1,223.10059,684.33008Zm.37061-123.20312a155.21454,155.21454,0,0,1-15.49414-40.252,155.02862,155.02862,0,0,1,17.61621,39.59058c.71436,2.40381,1.30322,4.82275,1.82471,7.24756C226.03174,565.57568,224.69873,563.39258,223.47119,561.127ZM200.46533,461.5083c-.50244-1.77026-1.07373-3.55029-1.688-5.33545,14.918-9.3877,31.24316-9.21191,46.21191.53027V513.4165C227.55957,502.52759,212.6123,485.10059,200.46533,461.5083Zm43.23682-86.63623a2.49037,2.49037,0,0,0,1.28711-.77271v52.13525A40.90156,40.90156,0,0,0,228.34131,414.136a39.46717,39.46717,0,0,0-14.18066-2.42676,74.27853,74.27853,0,0,0-11.98877,1.12036c1.37207-1.71582,2.72949-3.436,4.07715-5.145l.1123-.14282C218.228,392.49829,229.437,378.28711,243.70215,374.87207Zm-6.62549-25.37183h7.9126v15.8855C242.30957,360.41772,239.65039,355.05859,237.07666,349.50024Zm-.01416,194.72461a20.6623,20.6623,0,0,1,13.19971-9.09692,20.66109,20.66109,0,0,1,13.19971,9.09692,12.07237,12.07237,0,0,1,2.1875,6.78711c-.13916,5.33057-4.334,7.16626-6.78955,11.082-2.93262,4.67554-4.95557,10.31128-6.75439,15.50366-.67969,1.96387-1.28125,3.95361-1.84326,5.9541-.56152-2.00049-1.16309-3.99023-1.84326-5.9541-1.79883-5.19238-3.82129-10.82812-6.75391-15.50366-2.45605-3.91577-6.65088-5.75146-6.79-11.082A12.07615,12.07615,0,0,1,237.0625,544.22485Zm19.75977-169.35278c14.26514,3.415,25.47412,17.62622,37.34082,32.66968l.1123.14282c1.34766,1.709,2.70508,3.4292,4.07715,5.145a74.27853,74.27853,0,0,0-11.98877-1.12036,39.46282,39.46282,0,0,0-14.18018,2.42676,40.903,40.903,0,0,0-16.64844,12.09863V374.09937A2.49037,2.49037,0,0,0,256.82227,374.87207Zm-1.28711-9.48633v-15.8855h7.9126C260.874,355.05859,258.21484,360.41772,255.53516,365.38574Zm46.18994,90.77368c-.646,1.85132-1.23779,3.69556-1.76221,5.531-12.13037,23.498-27.04346,40.86523-44.42773,51.72607V456.70313C270.49658,446.96582,286.813,446.78564,301.7251,456.15942Zm14.79-106.65918H419.9834a40.98216,40.98216,0,0,0,1.98438,21.01367c1.81836,4.90259,3.52295,9.90747,5.1665,14.96655a128.06881,128.06881,0,0,0-8.44189,32.57715,4.12736,4.12736,0,0,1-8.021.76343,289.02483,289.02483,0,0,1-8.627-33.90259,3.33927,3.33927,0,0,0-5.67822-1.72559,223.06923,223.06923,0,0,0-38.9668,54.48535,74.52019,74.52019,0,0,0-4.77734,12.45483,4.13232,4.13232,0,0,1-7.80518.29175,51.44949,51.44949,0,0,1-2.9917-12.397,191.62426,191.62426,0,0,0,4.55957-36.96826c.22217-.61768.44531-1.23511.68213-1.84766a3.22887,3.22887,0,0,0-1.29541-3.97266c-.10645-.06885-.21729-.11914-.32666-.17578a3.41072,3.41072,0,0,0-1.65039-.86011,3.22768,3.22768,0,0,0-3.7251,1.89282c-.356.80469-.75928,1.58789-1.13965,2.38135A191.59293,191.59293,0,0,0,316.562,427.06567a51.66648,51.66648,0,0,1-11.11475,6.834,4.13183,4.13183,0,0,1-5.3125-5.72485,74.53744,74.53744,0,0,0,5.42871-12.18506,223.06947,223.06947,0,0,0,10.97314-66.08105A3.5274,3.5274,0,0,0,316.51514,349.50024Zm65.79834,110.4707a39.46318,39.46318,0,0,0-8.311-11.74316,74.21422,74.21422,0,0,0-9.26953-7.6853c2.18311-.24316,4.35889-.49951,6.521-.75488l.18018-.022c19.02881-2.24609,37.00293-4.3689,49.50439,3.30249a2.49064,2.49064,0,0,0,1.457.3645l-36.86426,36.865A40.912,40.912,0,0,0,382.31348,459.97095Zm-18.32764,41.87134L323.8833,541.94458c-4.62451-20.02466-2.87158-42.91675,5.22168-68.188.89648-1.60742,1.75146-3.26929,2.5791-4.96558C348.87109,472.70068,360.29,484.3689,363.98584,501.84229Zm-80.45361,90.51709c-1.86865.90771-3.70117,1.88965-5.51367,2.90674,1.01758-1.81152,1.99951-3.644,2.90723-5.51343,2.3999-4.94336,4.95459-10.35889,6.187-15.73877,1.03174-4.50513-.63574-8.76929,3.03467-12.63745a12.07874,12.07874,0,0,1,6.3457-3.252,20.6629,20.6629,0,0,1,15.7666,2.90112,20.66078,20.66078,0,0,1,2.90137,15.76587,12.07794,12.07794,0,0,1-3.25244,6.34619c-3.86816,3.67041-8.13281,2.00269-12.6377,3.03467C293.89111,587.40527,288.47607,589.95947,283.53223,592.35938Zm27.2876,22.21973c3.916-2.45581,5.752-6.65039,11.08252-6.79028a12.0768,12.0768,0,0,1,6.78662,2.18823,20.66052,20.66052,0,0,1,9.09766,13.19946A20.66112,20.66112,0,0,1,328.689,636.376a12.07869,12.07869,0,0,1-6.78662,2.18823c-5.33057-.13989-7.1665-4.33472-11.08252-6.79053-4.67529-2.93213-10.311-4.95557-15.50293-6.75415-1.96387-.67969-3.9541-1.28125-5.95459-1.843,2.00049-.56177,3.99072-1.16333,5.95459-1.843C300.50879,619.53491,306.14453,617.51123,310.81982,614.5791Zm-37.75488-46.666c.53125-2.4917,1.13281-4.97778,1.8667-7.44751A155.2283,155.2283,0,0,1,292.438,521.04639,155.01411,155.01411,0,0,1,276.89941,561.498C275.70508,563.70313,274.41162,565.83008,273.06494,567.91309Zm18.958,157.04077a155.04655,155.04655,0,0,1-17.61621-39.59131c-.71484-2.40332-1.3042-4.82275-1.82422-7.24731,1.38623,2.1377,2.71875,4.32056,3.9458,6.58618A155.21575,155.21575,0,0,1,292.02295,724.95386Zm4.1001-36.87866a12.075,12.075,0,0,1-6.34668-3.25244c-3.6709-3.86792-2.00244-8.13232-3.03467-12.63721-1.23291-5.37988-3.78662-10.79565-6.187-15.73853-.9082-1.86963-1.88916-3.70215-2.90723-5.51392,1.812,1.01733,3.64453,1.99927,5.51416,2.907,4.94336,2.40015,10.35889,4.9541,15.73877,6.187,4.50488,1.03223,8.76953-.636,12.63672,3.03442a12.07356,12.07356,0,0,1,3.25244,6.34668,20.66022,20.66022,0,0,1-2.90088,15.76563A20.65912,20.65912,0,0,1,296.123,688.0752Zm15.29248-38.26147c-2.20459-1.19434-4.33154-2.48828-6.415-3.83472,2.49268.53174,4.978,1.13281,7.44824,1.8667a155.21207,155.21207,0,0,1,39.41846,17.50635A155.0333,155.0333,0,0,1,311.41553,649.81372Zm1.0332-51.3064c-2.4043.7146-4.82324,1.30371-7.24756,1.82471,2.13721-1.38623,4.32031-2.71924,6.58594-3.94629a155.2077,155.2077,0,0,1,40.25244-15.49438A155.04267,155.04267,0,0,1,312.44873,598.50732Zm18.89209-49.10547,40.10254-40.10254c17.46436,3.69409,29.12891,15.10425,33.04492,32.27661q-2.64771,1.27808-5.15674,2.66455C374.13867,552.27905,351.31348,554.01465,331.34082,549.40186Zm61.647-61.647L429.853,450.8894a2.48309,2.48309,0,0,0,.36377,1.45728c7.67188,12.50146,5.54883,30.47583,3.30273,49.50488l-.02148.17993c-.25586,2.16138-.51172,4.33765-.75537,6.521a74.245,74.245,0,0,0-7.68506-9.26978,39.46141,39.46141,0,0,0-11.74268-8.31055A40.8928,40.8928,0,0,0,392.98779,487.75488Zm35.56934-50.48364c2.01855-6.74438,4.48682-13.8938,7.2417-21.10278q1.35278,5.58765,2.58105,11.27979-1.18652,1.18689-2.374,2.374Q432.28223,433.54663,428.55713,437.27124Zm12.3291,2.58521c.19629,1.05151.38379,2.11035.57422,3.167-1.8374.59448-3.66016,1.17041-5.44629,1.70508ZM309.71094,223.67163c0-29.2832,2.19922-27.22168,25.57129-27.22168,30.7959,0,38.49512,14.43555,38.49512,29.00879,0,11.92773-6.15576,23.50928-14.062,32.13037-4.44727,4.84912-17.23193,16.68164-23.6665,8.86279-2.832-3.44141-3.3623-14.87012,1.33252-17.25879a7.12677,7.12677,0,0,1,2.67529-.57568c3.77393-.313,5.54639-.71094,8.40723-3.23926a24.06693,24.06693,0,0,0,8.26563-17.58252c0-8.93555-7.28613-15.123-15.94824-15.123-7.28613,0-12.51074.55078-12.51074,27.90918a26.88435,26.88435,0,0,0,.377,5.40674,87.92728,87.92728,0,0,0,.32959,12.61035,30.47085,30.47085,0,0,0-.019,3.84229c0,9.624,2.6123,20.62207,2.6123,22.13477,0,2.2002-2.88672,1.9248-4.39941,1.9248H315.89746c-4.26172,0-6.18652,1.2373-6.18652-22.40918ZM281.22852,364.98657a4.1276,4.1276,0,0,1-5.13232-6.21143c2.34229-3.00659,4.53711-6.10913,6.59131-9.2749h25.04541A289.21867,289.21867,0,0,1,281.22852,364.98657Zm20.36914-139.52783c0,11.44727-5.69141,22.54443-13.0708,31.01953-4.70654,5.40576-16.1499,17.02881-23.16211,8.563a18.12628,18.12628,0,0,1-3.2334-7.53027,7.72878,7.72878,0,0,1-.06006-4.729c1.06152-2.53857,5.49121-2.45166,7.73975-3.35889a22.96768,22.96768,0,0,0,7.77881-5.29687,23.87782,23.87782,0,0,0,6.96-16.33057c0-8.93555-7.28613-15.123-15.94775-15.123-6.68018,0-9.63477,3.00488-11.12842,9.54395-2.37207,10.38379-1.89795,21.09961-1.43018,31.65576.45459,10.26416,3.34814,20.61035,3.34717,30.7041-.00049,2.19971-2.88672,1.92432-4.39941,1.92432H243.71777c-4.26172,0-6.18652,1.2373-6.18652-22.40918V223.67163c0-29.2832,2.19922-27.22168,25.57129-27.22168C293.89844,196.45,301.59766,210.8855,301.59766,225.45874ZM249.8335,40.50024a23,23,0,1,1-23,23A22.99989,22.99989,0,0,1,249.8335,40.50024ZM224.34229,363.95a3.98465,3.98465,0,0,1-5.04639,1.03662,289.21868,289.21868,0,0,1-26.50439-15.48633h25.04541c2.0542,3.16577,4.249,6.26831,6.59131,9.2749A4.00641,4.00641,0,0,1,224.34229,363.95ZM196.835,270.27808c6.91748,0,8.13232-3.00781,8.34082-8.06934,2.93555-12.2832,2.1499-26.4502-1.0459-38.436a1.53911,1.53911,0,0,0-.29736-.59277c-.15186-6.86719-7.33691-10.50732-13.32178-10.50732-14.02344,0-11.96094,11.82422-14.98535,11.82422-4.39941,0-9.21094-5.3623-9.21094-11.27344,0-10.17383,11.41016-16.77344,24.05859-16.77344,4.39941,0,23.23438-.13672,30.24609,19.11035,2.88672,7.97363,3.16211,48.668,3.16211,53.48047,0,6.04883,1.09961,9.623,1.09961,14.29785,0,2.88672-12.92285,3.16211-25.15918,3.16211-33.13281,0-35.46973-17.04785-35.46973-25.29687,0-9.86572,5.82275-18.35937,13.60107-23.98486,3.48535-2.52051,14.68213-9.71387,18.85889-5.76855,1.57178,1.48486,2.11182,3.75732,2.27637,5.91309.13721,1.79443.01367,3.75439-1.13623,5.13867-2.30469,2.77539-6.57275,1.70068-9.33057,3.68115-3.22754,2.31787-5.71,7.97266-5.71,11.85791C182.81152,265.741,189.54883,270.27808,196.835,270.27808ZM78.18457,172.116H96.88184c.8252,0,4.125-.41211,4.125,1.2373,0,1.78711-9.34863,21.72168-9.34863,36.29492,0,3.4375,1.2373,6.7373,3.29883,6.7373,4.2627,0,4.2627-4.125,22.96-4.125,6.73633,0,12.09863,1.5127,12.09863-4.26172,0-13.06055-12.09863-32.7207-12.09863-34.50781s4.124-1.375,4.94922-1.375H140.876c5.22461,0,11.96094,39.59473,11.96094,68.87793,0,6.59961,0,45.50684-4.39941,45.50684H128.64063c-1.375,0-5.08691.1377-5.08691-2.0625a4.39842,4.39842,0,0,1,.41211-1.9248c4.8125-12.64844,8.79883-25.57129,8.79883-39.18164,0-9.34863-3.71191-12.51074-12.92285-12.51074-13.88574,0-28.7334,6.59863-28.7334,22.54688a78.1082,78.1082,0,0,0,5.63672,29.69531,5.77925,5.77925,0,0,1,.5498,2.0625c0,1.9248-3.2998,1.375-4.39941,1.375h-20.21c-3.84961,0-3.84961-39.59473-3.84961-45.50684C68.83594,230.95776,71.58594,172.116,78.18457,172.116ZM64.40234,415.35107c2.82373,7.36011,5.35205,14.66577,7.41211,21.54932q-3.72583-3.7251-7.44971-7.44922-1.30518-1.30518-2.61084-2.61084Q63.01074,421.03882,64.40234,415.35107Zm-5.1665,23.88477q2.56055,2.56055,5.12061,5.12134c-1.87988-.56274-3.80029-1.17065-5.73633-1.79956Q58.92187,440.89209,59.23584,439.23584Zm.78076,132.9248a4.03939,4.03939,0,0,1-4.75635.61865c-1.51514-.80615-2.95508-1.53247-4.38232-2.22217q-.56836-8.39978-.77881-16.88062c1.34033.908,2.68848,1.804,4.05225,2.676a51.67262,51.67262,0,0,1,6.834,11.11426A4.02935,4.02935,0,0,1,60.0166,572.16064Zm-9.82715-43.76343c.16748-6.9165.42578-13.76733.8125-20.52319,4.51025,2.70752,9.10693,5.27637,13.7627,7.64063a74.45039,74.45039,0,0,0,12.4541,4.77759,4.1322,4.1322,0,0,1,.2915,7.80493,51.44812,51.44812,0,0,1-12.397,2.99219C60.18066,529.98535,55.2002,529.10449,50.18945,528.39722ZM83.2583,674.13672c-9.38721-14.91772-9.2124-31.24292.53027-46.21191H140.502c-10.88867,17.42969-28.31543,32.377-51.90771,44.52417C86.82373,672.95142,85.04395,673.52222,83.2583,674.13672Zm17.41064,27.45117c25.19287-8.03882,48.01807-9.77368,67.99023-5.16113l-40.10254,40.10278c-17.46436-3.69434-29.12988-15.10425-33.04492-32.27661Q98.15942,702.97485,100.66895,701.58789Zm3.19727,59.63232q-.7002-1.48535-1.39941-2.98853a43.63447,43.63447,0,0,0,4.5459-.158Zm24.87988,44.8208-.18066.022c-.4873.05737-.96777.1123-1.4541.16943-5.84912-10.38794-12.09277-22.10669-18.39893-34.94482l5.75732-5.75684a40.89173,40.89173,0,0,0,3.2168,20.32715,39.47142,39.47142,0,0,0,8.31055,11.74268,74.33638,74.33638,0,0,0,9.27,7.68579C133.084,805.5293,130.90723,805.78564,128.74609,806.041Zm24.1875,40.57568a3.35,3.35,0,0,0-.21875,1.45679c-5.46484-8.24487-10.80957-16.68774-15.9624-25.26514-.38525-.64136-.77637-1.29761-1.168-1.95386,2.47705-4.1709,4.83594-8.41113,7.0166-12.70435a74.492,74.492,0,0,0,4.77686-12.45459,4.13181,4.13181,0,0,1,7.80469-.2915,51.42149,51.42149,0,0,1,2.99219,12.39648,191.66246,191.66246,0,0,0-4.55957,36.96826C153.39307,845.38672,153.16943,846.00415,152.93359,846.6167Zm30.66211,44.12012c-9.85986-12.4314-19.66748-25.89819-29.12207-40.01587.02734.01367.0542.02954.08154.0437a3.40273,3.40273,0,0,0,1.65039.86035,3.22734,3.22734,0,0,0,3.72461-1.89282c.35693-.80469.75977-1.58765,1.14014-2.3811a191.63907,191.63907,0,0,0,22.36816-28.58862,51.69684,51.69684,0,0,1,11.11328-6.834,4.13212,4.13212,0,0,1,5.31348,5.7251,74.49266,74.49266,0,0,0-5.42822,12.18506,223.0247,223.0247,0,0,0-10.84131,60.89819Zm5.96826,7.39844a289.07346,289.07346,0,0,1,29.20752-17.29346,4.12735,4.12735,0,0,1,5.13232,6.21143,127.603,127.603,0,0,0-17.61084,30.313Q197.988,908.36511,189.564,898.13525ZM240.75,949.271a51.5789,51.5789,0,0,0-4.53027-13.31982,8.01964,8.01964,0,0,0-2.17578-2.86475c-3.0791-2.25-6.5249,1.582-9.75049,2.42456-.78174-.72339-1.57178-1.46069-2.38184-2.229a341.31238,341.31238,0,0,1,22.55322-52.8396V940.4668c0,3.80811.10938,7.67969.21924,11.56787C243.481,951.23071,242.16455,950.30786,240.75,949.271Zm8.98779-238.57031a20.66138,20.66138,0,0,1-13.19922-9.09717,12.07759,12.07759,0,0,1-2.188-6.78711c.13965-5.33057,4.334-7.1665,6.78906-11.082,2.93311-4.67578,4.95605-10.31128,6.75439-15.50342.68018-1.96387,1.28125-3.9541,1.84375-5.95459.561,2.00049,1.1626,3.99072,1.84277,5.95459,1.79834,5.19214,3.82275,10.82764,6.75439,15.50342,2.45605,3.91553,6.65088,5.75146,6.79053,11.082a12.08137,12.08137,0,0,1-2.188,6.78711A20.66355,20.66355,0,0,1,249.73779,710.70068Zm24.6543,224.47852c-2.94531-1.20776-6.022-4.12329-8.80127-2.09277a8.042,8.042,0,0,0-2.17578,2.86475,49.89652,49.89652,0,0,0-4.32812,12.41016q-2.31519,1.78491-4.28125,3.16724c.10449-3.71753.20508-7.41895.20508-11.06177V880.44238a341.208,341.208,0,0,1,22.26709,51.98682C276.29346,933.3811,275.335,934.29248,274.39209,935.1792Zm18.39014-18.77588a127.95855,127.95855,0,0,0-17.21-29.3501,4.12735,4.12735,0,0,1,5.13232-6.21143,289.11126,289.11126,0,0,1,28.37061,16.73413Q300.89844,907.52808,292.78223,916.40332Zm23.02441-27.20142a222.54718,222.54718,0,0,0-10.76758-59.36328,74.53745,74.53745,0,0,0-5.42871-12.18506,4.13185,4.13185,0,0,1,5.312-5.7251,51.51625,51.51625,0,0,1,10.95557,6.70825,191.57435,191.57435,0,0,0,22.72852,29.13647c.31055.6543.64551,1.29712.938,1.959a3.22821,3.22821,0,0,0,3.7124,1.89478C334.32715,864.804,325.09668,877.438,315.80664,889.2019Zm46.6665-67.54785c-5.12842,8.47778-10.44922,16.84009-15.89209,25.02393-.24707-.64966-.48926-1.30127-.72168-1.95654a191.60359,191.60359,0,0,0-4.43164-36.33057,51.64574,51.64574,0,0,1,3.01855-12.616,4.13174,4.13174,0,0,1,7.80469.29175,74.39738,74.39738,0,0,0,4.77734,12.45435c1.98828,3.91553,4.12842,7.7854,6.36719,11.59985C363.0874,820.6333,362.77734,821.15088,362.47314,821.65405Zm-31.13428-44.25146q-1.27881-2.64807-2.665-5.157c-8.03857-25.19312-9.77393-48.01831-5.16113-67.991l40.10254,40.10278C359.92041,761.822,348.51074,773.48682,331.33887,777.40259Zm40.05029,29.06934c-.10937-.01294-.21729-.02515-.32666-.03809l-.18018-.02148c-2.16064-.25562-4.3374-.51221-6.52051-.75537a74.17285,74.17285,0,0,0,9.269-7.68506,39.462,39.462,0,0,0,8.31152-11.74316,40.8906,40.8906,0,0,0,3.21729-20.32715l5.13477,5.13525C383.79883,784.09131,377.37988,795.97168,371.38916,806.47192Zm23.79443-45.46-2.56738-2.56714c1.24072.11011,2.47656.16235,3.70605.16846C395.94238,759.41553,395.56348,760.21753,395.18359,761.012Zm-24.11182-24.11157-40.10205-40.10254c20.02441-4.62476,42.916-2.87158,68.1875,5.22168,1.60742.896,3.26953,1.75122,4.96582,2.57861C400.21338,721.78491,388.54541,733.20435,371.07178,736.90039Zm45.68311-62.26147c-1.85107-.64526-3.69531-1.23706-5.53076-1.76221-23.49854-12.12988-40.86523-27.04321-51.72656-44.42725h56.71338C425.94824,643.41089,426.12842,659.72754,416.75488,674.63892Zm-.54395-56.7356H359.49756c10.88916-17.42944,28.31592-32.37646,51.9082-44.52344,1.77051-.50269,3.55029-1.07324,5.33545-1.688C426.12891,586.60938,425.95313,602.93506,416.21094,617.90332Zm6.64941-89.4353a4.132,4.132,0,0,1,.2915-7.80469,74.407,74.407,0,0,0,12.45459-4.77759c4.541-2.30591,9.0249-4.80713,13.42773-7.44019.37939,6.7395.62891,13.57471.79053,20.47363-4.81592.68042-9.604,1.52051-14.34814,2.56665A51.63646,51.63646,0,0,1,422.86035,528.468Zm26.20117,42.64282c-1.4082.68164-2.82812,1.39844-4.32227,2.19312a4.13192,4.13192,0,0,1-5.7251-5.3125,51.51757,51.51757,0,0,1,6.7085-10.95532c1.40088-.88916,2.78467-1.80444,4.16113-2.73169Q449.65454,562.74194,449.06152,571.11084Z"/></svg>