<svg id="Слой_1" data-name="Слой 1" xmlns="http://www.w3.org/2000/svg" viewBox="0 0 500 1000"><title>Flags light bulbs</title><path d="M491.02478,319.74634V146.70288a37.08065,37.08065,0,0,0-37.08057-37.08081H323.13147V28.25049A25.75039,25.75039,0,0,0,297.381,2.5H202.619a25.75039,25.75039,0,0,0-25.75049,25.75049v81.37158H46.056A37.08071,37.08071,0,0,0,8.97522,146.70288V319.74634a37.083,37.083,0,0,0,30.61694,36.50757C20.10168,408.79395,8.97522,472.00366,8.97522,544.291c0,225.27026,185.40381,453.209,241.0249,453.209,51.501,0,241.02466-227.93872,241.02466-453.209,0-72.28735-11.12646-135.49707-30.6167-188.03711A37.083,37.083,0,0,0,491.02478,319.74634ZM249.83337,86.5a23,23,0,1,1,23-23A22.99989,22.99989,0,0,1,249.83337,86.5Z"/></svg>