<svg id="Слой_1" data-name="Слой 1" xmlns="http://www.w3.org/2000/svg" viewBox="0 0 500 1000"><title>Flags light bulbs</title><path d="M491.02481,319.74634V146.70288a37.08065,37.08065,0,0,0-37.08057-37.08081H323.13144V28.25049A25.75039,25.75039,0,0,0,297.381,2.5H202.619A25.75039,25.75039,0,0,0,176.8685,28.25049v81.37158H46.056A37.08071,37.08071,0,0,0,8.97519,146.70288V319.74634a37.083,37.083,0,0,0,30.61694,36.50757C20.10165,408.79395,8.97519,472.00366,8.97519,544.291c0,225.27026,185.40381,453.209,241.0249,453.209,51.501,0,241.02472-227.93872,241.02472-453.209,0-72.28735-11.12646-135.49707-30.6167-188.03711A37.083,37.083,0,0,0,491.02481,319.74634ZM440.93857,440.1236c.30585,1.64063.58661,3.30145.877,4.95453-2.908.97906-5.77618,1.90063-8.56793,2.73615q3.6698-3.66925,7.33862-7.33838Zm-2.46082-12.23169q-2.619,2.61887-5.23792,5.23785-3.6687,3.6687-7.338,7.338c2.5188-8.416,5.73914-17.46887,9.36255-26.47528Q436.96524,420.86307,438.47775,427.89191ZM310.50229,649.84979c-2.17187-1.1767-4.26758-2.45123-6.31934-3.77759,2.45483.5235,4.90369,1.11578,7.33667,1.83875a152.90428,152.90428,0,0,1,38.833,17.2464A152.73972,152.73972,0,0,1,310.50229,649.84979Zm11.917,53.63135,39.50635,39.50623c-3.63965,17.20508-14.87988,28.69635-31.79663,32.55389q-1.25922-2.6087-2.625-5.08008C319.58481,745.64264,317.87521,723.15674,322.41928,703.48114ZM254.93637,787.0896V731.21948c17.17,10.7276,31.8949,27.8952,43.86133,51.1366.49548,1.744,1.05725,3.497,1.66309,5.2558C285.765,796.86017,269.68222,796.68726,254.93637,787.0896Zm42.18005,43.22113q-2.02753,2.53546-4.01648,5.06842l-.10986.14063c-11.69128,14.82019-22.73328,28.8197-36.7854,32.184a2.44832,2.44832,0,0,0-1.26831.76154V817.10541A40.28674,40.28674,0,0,0,271.337,829.02356a38.86768,38.86768,0,0,0,13.96875,2.39093A73.1665,73.1665,0,0,0,297.11642,830.31073Zm-98.0719-42.68524c.636-1.82367,1.21887-3.64062,1.73608-5.44891,11.94959-23.14874,26.64063-40.25757,43.7666-50.95709V787.0896C229.808,796.68237,213.73447,796.8595,199.04453,787.62549Zm45.50269,29.47992v51.35986a2.45349,2.45349,0,0,0-1.26843-.76154c-14.05334-3.36426-25.09509-17.36377-36.78528-32.184l-.11108-.14062q-1.99127-2.52548-4.0166-5.06842a73.19592,73.19592,0,0,0,11.81091,1.10376,38.86947,38.86947,0,0,0,13.96985-2.39093A40.2956,40.2956,0,0,0,244.54721,817.10541ZM149.47787,664.74847A152.728,152.728,0,0,1,188.48032,647.394c2.36743-.70361,4.75037-1.28412,7.13965-1.79736-2.1062,1.3656-4.25635,2.67871-6.4884,3.88776A152.89944,152.89944,0,0,1,149.47787,664.74847Zm22.59351,105.541c-.88354,1.5835-1.72534,3.22095-2.54053,4.89258-16.93115-3.85217-28.18091-15.3465-31.822-32.55994l39.50635-39.50635C181.77109,722.84259,180.04416,745.39368,172.07138,770.28943ZM116.85043,482.489,80.53354,446.17224a2.45058,2.45058,0,0,0,1.43494-.35876c12.3158-7.558,30.02307-5.46637,48.76868-3.25354l.17749.02112c2.12952.252,4.27295.50452,6.42419.74377a73.2044,73.2044,0,0,0-9.132,7.57123,38.87548,38.87548,0,0,0-8.18713,11.56818A40.28964,40.28964,0,0,0,116.85043,482.489Zm-7.34631,7.34613a40.29494,40.29494,0,0,0-20.02454,3.16937,38.89183,38.89183,0,0,0-11.56885,8.18732,73.23162,73.23162,0,0,0-7.5708,9.13177c-.239-2.1507-.49182-4.2948-.74353-6.42377l-.02161-.17773c-2.21228-18.74567-4.304-36.45312,3.25366-48.76868a2.44851,2.44851,0,0,0,.35864-1.435ZM91.17343,574.13086c23.14917,11.94958,40.25769,26.64069,50.95691,43.76642H86.26022c-9.59241-14.73877-9.7699-30.81262-.53528-45.5025C87.54855,573.03076,89.36557,573.61377,91.17343,574.13086Zm11.887-28.70929c-1.5835-.88312-3.2207-1.72522-4.89209-2.54053,3.85229-16.93109,15.34619-28.181,32.5603-31.82159l39.50586,39.506C150.50754,555.12152,127.9559,553.3941,103.06039,545.42157Zm98.7666,41.368c-4.43835-1.01678-8.639.6264-12.45-2.98956a11.90323,11.90323,0,0,1-3.20312-6.25232,20.35734,20.35734,0,0,1,2.85742-15.53143,20.35554,20.35554,0,0,1,15.53174-2.85767,11.89954,11.89954,0,0,1,6.25244,3.2038c3.61572,3.81018,1.97192,8.01141,2.98938,12.44952,1.21423,5.2995,3.73059,10.63464,6.09436,15.50458.89478,1.84137,1.86157,3.647,2.864,5.43164-1.78516-1.00238-3.59-1.96936-5.43188-2.86371C212.46164,590.52008,207.12643,588.00366,201.827,586.78955Zm9.39624,36.30219c-1.9707.55341-3.9314,1.146-5.866,1.81586-5.11548,1.77167-10.66736,3.76489-15.27295,6.65369-3.85718,2.41919-5.66638,6.55164-10.9176,6.68927a11.89835,11.89835,0,0,1-6.68628-2.15558,20.35593,20.35593,0,0,1-8.9613-13.00323,20.35611,20.35611,0,0,1,8.9613-13.00317,11.89824,11.89824,0,0,1,6.68628-2.15552c5.25122.13757,7.06042,4.27,10.9176,6.68927,4.60559,2.88873,10.15747,4.8819,15.27295,6.65363C207.29184,621.94586,209.25253,622.53845,211.22324,623.09174Zm-21.72607-26.24115c2.17188,1.17676,4.2677,2.45154,6.31934,3.778-2.4541-.5235-4.90356-1.11578-7.33618-1.839a152.89962,152.89962,0,0,1-38.83337-17.24615A152.73548,152.73548,0,0,1,189.49716,596.85059ZM177.58078,543.2193l-39.50623-39.506c3.63892-17.20508,14.87927-28.69635,31.79651-32.55389q1.259,2.6087,2.62512,5.0802C180.41537,501.05811,182.12473,523.544,177.58078,543.2193Zm8.22742,125.56812a11.89818,11.89818,0,0,1,3.20386-6.25238c3.8103-3.61591,8.01147-1.97241,12.44922-2.98956,5.3-1.21411,10.63452-3.73047,15.50452-6.0946,1.84192-.89459,3.64734-1.86163,5.43225-2.86389-1.00293,1.785-1.96973,3.59021-2.86389,5.43195-2.36438,4.86957-4.88074,10.20465-6.09485,15.50452-1.017,4.43811.62634,8.639-2.9895,12.44958a11.90007,11.90007,0,0,1-6.25244,3.20337,20.35264,20.35264,0,0,1-15.53113-2.85767A20.353,20.353,0,0,1,185.8082,668.78741Zm37.69238,15.06549c1.17676-2.17187,2.45129-4.26733,3.77759-6.3194-.5238,2.45459-1.11572,4.90369-1.83862,7.33649a152.89572,152.89572,0,0,1-17.24683,38.83282A152.73128,152.73128,0,0,1,223.50058,683.85291Zm.36523-121.37079a152.90276,152.90276,0,0,1-15.26392-39.65381A152.71283,152.71283,0,0,1,225.956,561.83038c.70349,2.368,1.28406,4.751,1.79773,7.13977C226.38815,566.86438,225.075,564.71368,223.86581,562.48212ZM201.20175,464.3446c-.49487-1.744-1.05725-3.49731-1.66235-5.256,14.6958-9.24823,30.77832-9.075,45.52441.52228V515.481C227.89316,504.75366,213.16818,487.58606,201.20175,464.3446Zm42.59363-85.3479a2.45164,2.45164,0,0,0,1.26843-.76129v51.36a40.29183,40.29183,0,0,0-16.40063-11.91858,38.87653,38.87653,0,0,0-13.96936-2.39087,73.18267,73.18267,0,0,0-11.81079,1.1037c1.35168-1.69025,2.68909-3.38477,4.0166-5.06836l.11047-.14062C218.70078,396.36072,229.74277,382.361,243.79538,378.9967Zm-8.572-29.4967h9.84045v20.15155C241.70724,363.42767,238.38046,356.58759,235.22336,349.5Zm2.03174,196.33105a20.35336,20.35336,0,0,1,13.0033-8.96155,20.35372,20.35372,0,0,1,13.00317,8.96155,11.89947,11.89947,0,0,1,2.15552,6.68628c-.13745,5.25122-4.27,7.05975-6.68933,10.91705-2.88867,4.60614-4.88184,10.158-6.65356,15.27313-.6698,1.93463-1.26245,3.895-1.8158,5.86584-.55347-1.97089-1.146-3.93121-1.81592-5.86584-1.77173-5.11517-3.76489-10.667-6.65369-15.27313-2.41907-3.8573-6.55164-5.66583-6.68909-10.91705A11.89736,11.89736,0,0,1,237.2551,545.83105ZM256.72128,378.9967c14.05273,3.36426,25.09448,17.364,36.7854,32.184l.11035.14063c1.32764,1.68359,2.66479,3.37811,4.0166,5.06836a73.18267,73.18267,0,0,0-11.81079-1.1037,38.87653,38.87653,0,0,0-13.96936,2.39087,40.293,40.293,0,0,0-16.40076,11.91858v-51.36A2.45247,2.45247,0,0,0,256.72128,378.9967Zm-1.26855-9.34515V349.5h9.84058C262.1362,356.58759,258.80942,363.42767,255.45273,369.65155Zm45.50293,89.42371c-.636,1.82361-1.219,3.64069-1.73608,5.44861-11.94971,23.14874-26.64062,40.25757-43.76685,50.95709V459.61084C270.1915,450.01831,286.26584,449.84094,300.95566,459.07526ZM283.03378,593.24982c-1.84119.89429-3.64673,1.86133-5.43176,2.86371,1.00232-1.78479,1.9696-3.59,2.864-5.43176,2.36438-4.86981,4.88074-10.20465,6.09485-15.50452,1.01685-4.438-.62622-8.639,2.9895-12.44946a11.89921,11.89921,0,0,1,6.25183-3.2038,20.35376,20.35376,0,0,1,15.53162,2.858,20.35272,20.35272,0,0,1,2.85791,15.53143,11.89817,11.89817,0,0,1-3.20361,6.252c-3.81079,3.61591-8.01147,1.97266-12.45,2.98956C293.23862,588.36932,287.90366,590.8858,283.03378,593.24982Zm26.88184,21.8894c3.85742-2.41925,5.66589-6.55176,10.91724-6.68933a11.89864,11.89864,0,0,1,6.68616,2.15552,20.35465,20.35465,0,0,1,8.962,13.00323,20.35465,20.35465,0,0,1-8.962,13.00323,11.89864,11.89864,0,0,1-6.68616,2.15552c-5.25134-.13757-7.05981-4.27-10.91724-6.68927-4.60608-2.88873-10.15771-4.882-15.27258-6.65369-1.93494-.6698-3.89539-1.26239-5.86633-1.8158,1.97095-.55341,3.9314-1.146,5.86633-1.8158C299.7579,620.02112,305.30954,618.02789,309.91562,615.13922Zm-37.19373-45.972c.52332-2.45459,1.11584-4.904,1.83875-7.33679a152.90567,152.90567,0,0,1,17.24658-38.83307,152.73829,152.73829,0,0,1-15.30774,39.85022C275.32272,565.01965,274.04831,567.11517,272.72189,569.16718ZM291.398,723.87244A152.72755,152.72755,0,0,1,274.044,684.87c-.7041-2.36761-1.28467-4.751-1.79761-7.13947,1.3656,2.10577,2.67871,4.25616,3.88745,6.488A152.90383,152.90383,0,0,1,291.398,723.87244Zm4.03906-36.33032a11.899,11.899,0,0,1-6.25244-3.20374c-3.61584-3.81055-1.97266-8.01147-2.9895-12.44952-1.21411-5.29987-3.73047-10.635-6.09473-15.50452-.89453-1.84174-1.86133-3.647-2.864-5.43176,1.78491,1.00208,3.59058,1.96942,5.43213,2.86371,4.86987,2.36432,10.20447,4.88049,15.50464,6.09491,4.43774,1.01685,8.63916-.62634,12.44922,2.9895a11.89727,11.89727,0,0,1,3.20361,6.25208,20.35209,20.35209,0,0,1-2.85791,15.53137A20.35155,20.35155,0,0,1,295.4371,687.54211Zm16.08252-88.23578c-2.36792.70392-4.75085,1.28448-7.13928,1.79773,2.10535-1.36566,4.256-2.67877,6.48755-3.88776a152.91173,152.91173,0,0,1,39.65417-15.264A152.723,152.723,0,0,1,311.51962,599.30634ZM327.9288,476.41071c.88281-1.58356,1.72534-3.2207,2.54065-4.89191,16.931,3.85181,28.18054,15.34637,31.82117,32.55994l-39.50562,39.506C318.22885,523.85779,319.95615,501.30646,327.9288,476.41071Zm2.2019,74.52045,39.50635-39.50629c17.20508,3.6391,28.696,14.87964,32.554,31.79657q-2.60889,1.259-5.07983,2.625C372.29233,553.76556,349.80649,555.4751,330.13071,550.93115ZM380.34592,462.83a38.87416,38.87416,0,0,0-8.18762-11.56854,73.12722,73.12722,0,0,0-9.13159-7.57086c2.15088-.23962,4.29443-.49213,6.42383-.74377l.17749-.02142c18.74573-2.21259,36.45288-4.30414,48.76855,3.25348a2.45089,2.45089,0,0,0,1.43518.35876l-36.31653,36.317A40.30176,40.30176,0,0,0,380.34592,462.83Zm10.51526,27.37079,36.31714-36.317a2.44959,2.44959,0,0,0,.35828,1.43536c7.55823,12.31555,5.4668,30.02271,3.25378,48.76868l-.021.17743c-.2522,2.12921-.50464,4.273-.744,6.424a73.17616,73.17616,0,0,0-7.571-9.132,38.87785,38.87785,0,0,0-11.56812-8.18707A40.28985,40.28985,0,0,0,390.86118,490.20074ZM275.70834,363.13916A129.65269,129.65269,0,0,0,285.00009,349.5h134.9834a40.97969,40.97969,0,0,0,1.98413,21.01367c1.68213,4.53448,3.2627,9.1601,4.7948,13.82855a124.1209,124.1209,0,0,0-10.57849,37.19794,4.06593,4.06593,0,0,1-7.90161.752,284.64349,284.64349,0,0,1-8.499-33.39844,3.28938,3.28938,0,0,0-5.59351-1.7,219.73684,219.73684,0,0,0-38.38745,53.67535,73.37767,73.37767,0,0,0-4.7063,12.26935,4.07086,4.07086,0,0,1-7.68921.28729,50.6895,50.6895,0,0,1-2.94727-12.21234,188.83266,188.83266,0,0,0,4.49207-36.41846c.219-.60858.4386-1.21686.67163-1.82031a3.17982,3.17982,0,0,0-1.27625-3.91339,3.617,3.617,0,0,0-.32153-.17316,3.35765,3.35765,0,0,0-1.62573-.84753,3.17979,3.17979,0,0,0-3.66968,1.86462c-.35132.79291-.74829,1.56445-1.12317,2.34595A188.77673,188.77673,0,0,0,315.572,430.41418a50.92112,50.92112,0,0,1-10.9491,6.73248,4.07074,4.07074,0,0,1-5.23389-5.63989,73.35369,73.35369,0,0,0,5.3479-12.00385,219.74442,219.74442,0,0,0,10.81018-65.09814,3.2892,3.2892,0,0,0-5.1571-2.753,284.71528,284.71528,0,0,1-29.62585,17.60638,4.066,4.066,0,0,1-5.05579-6.119ZM249.83334,40.5a23,23,0,1,1-23,23A22.99989,22.99989,0,0,1,249.83334,40.5ZM78.03256,370.51367A40.9824,40.9824,0,0,0,80.01694,349.5H215.51645a129.65386,129.65386,0,0,0,9.29187,13.63916,4.066,4.066,0,0,1-5.05579,6.119,284.74248,284.74248,0,0,1-29.626-17.60638,3.28909,3.28909,0,0,0-5.157,2.753,219.74442,219.74442,0,0,0,10.81018,65.09814,73.35369,73.35369,0,0,0,5.3479,12.00385,4.07066,4.07066,0,0,1-5.23376,5.63989,50.75028,50.75028,0,0,1-10.79224-6.60846,188.77512,188.77512,0,0,0-22.39038-28.70288c-.30554-.64484-.63562-1.27783-.92456-1.93018a3.17979,3.17979,0,0,0-3.66968-1.86462,3.56411,3.56411,0,0,0-.34937.105,3.35732,3.35732,0,0,0-1.74939.55029,3.1802,3.1802,0,0,0-1.27637,3.91309q.42828,1.11063.82434,2.23279A188.81824,188.81824,0,0,0,159.931,440.6319a50.85266,50.85266,0,0,1-2.97253,12.42816,4.07051,4.07051,0,0,1-7.6886-.28693,73.37361,73.37361,0,0,0-4.707-12.26978A220.18594,220.18594,0,0,0,132.30368,419.374a219.91183,219.91183,0,0,0-26.1283-32.546,3.28914,3.28914,0,0,0-5.59277,1.70026,284.87768,284.87768,0,0,1-8.49915,33.39813,4.06624,4.06624,0,0,1-7.90222-.75165,123.97509,123.97509,0,0,0-10.72473-37.502C74.92221,379.23328,76.43076,374.83167,78.03256,370.51367ZM64.93027,413.20044c3.69373,9.147,6.9751,18.353,9.53369,26.90192q-3.66962-3.66907-7.33862-7.33826-2.7356-2.73541-5.47095-5.47095Q63.19083,420.16183,64.93027,413.20044Zm-5.74878,26.31183q.299.299.5979.598,3.6687,3.66916,7.33813,7.33832c-2.88281-.86273-5.84717-1.81744-8.853-2.83307C58.56564,442.91071,58.86386,441.20374,59.18149,439.51227ZM62.8414,573.3515a3.97908,3.97908,0,0,1-4.68518.6095c-2.5426-1.35291-4.89392-2.5155-7.28723-3.54224q-.58008-8.62674-.78271-17.33917,3.43671,2.42715,6.97766,4.69891A50.91073,50.91073,0,0,1,63.796,568.72723,3.96884,3.96884,0,0,1,62.8414,573.3515ZM50.15048,529.8147q.24023-10.92728.82886-21.6012c5.384,3.34875,10.92432,6.48254,16.53955,9.33429a73.36407,73.36407,0,0,0,12.26929,4.7066,4.07067,4.07067,0,0,1,.28711,7.689,50.69026,50.69026,0,0,1-12.21252,2.94757Q59.09183,530.92767,50.15048,529.8147ZM85.73825,673.8111c-9.24792-14.69586-9.07532-30.7785.522-45.52478h55.87012c-10.72693,17.17065-27.89465,31.89551-51.13611,43.862C89.25034,672.64343,87.49667,673.20557,85.73825,673.8111ZM102.88962,700.854c24.81824-7.91913,47.30408-9.62842,66.97913-5.08441l-39.50586,39.50629c-17.205-3.63916-28.69653-14.87964-32.55371-31.79657Q100.41769,702.22018,102.88962,700.854Zm-1.22229,55.64966a42.62338,42.62338,0,0,0,7.47168-.00372l-5.09644,5.09644Q102.85385,759.07822,101.66733,756.50366Zm28.7041,47.27173q-2.18848.25827-4.3512.5072c-5.49854-9.83777-11.3197-20.81464-17.19873-32.77319l7.66321-7.66333a40.28945,40.28945,0,0,0,3.16943,20.02466,38.87952,38.87952,0,0,0,8.187,11.56824,73.18988,73.18988,0,0,0,9.13208,7.57129c-2.15076.2392-4.29468.49207-6.42383.74371Zm54.09326,88.059a644.5408,644.5408,0,0,1-47.7124-69.02673c-.35107-.58441-.708-1.18353-1.06421-1.78058,3.03992-4.95966,5.894-10.04547,8.50964-15.19543a73.3673,73.3673,0,0,0,4.70642-12.26935,4.07053,4.07053,0,0,1,7.68872-.28723,50.67781,50.67781,0,0,1,2.94775,12.2124,188.77965,188.77965,0,0,0-4.49219,36.41833c-.21912.60864-.43921,1.21692-.67163,1.82031a3.17971,3.17971,0,0,0,1.27563,3.91345c.10571.06757.21436.11731.32178.17285a3.35712,3.35712,0,0,0,1.62634.8476,3.17865,3.17865,0,0,0,3.66882-1.86469c.35193-.79266.74854-1.56415,1.12366-2.34564a188.80959,188.80959,0,0,0,22.03528-28.16345,50.9168,50.9168,0,0,1,10.94824-6.73248,4.0708,4.0708,0,0,1,5.23438,5.63989,73.31119,73.31119,0,0,0-5.34766,12.00391,219.56353,219.56353,0,0,0-10.79858,64.63684Zm3.05542,3.79218a3.2638,3.2638,0,0,0,2.09-.57794,284.7168,284.7168,0,0,1,29.62585-17.60632,4.06595,4.06595,0,0,1,5.05579,6.119,124.44318,124.44318,0,0,0-18.6095,33.14307C199.6705,910.15924,193.59482,903.1037,187.52011,895.62653Zm54.44922,54.52771a49.78524,49.78524,0,0,0-4.41162-13.6026,7.19146,7.19146,0,0,0-1.95093-2.5683c-3.08948-2.25757-6.59155,2.325-9.7666,2.32385a4.43014,4.43014,0,0,1-.707-.05743c-.0199-.00323-.03857-.0119-.05835-.01587q-1.88049-1.7265-3.87073-3.62463l.02942-.09467a335.29871,335.29871,0,0,1,23.31372-55.46576V936.1806c0,5.24768.19922,10.61212.32935,15.98291C243.971,951.56183,242.99716,950.88855,241.96933,950.15424Zm7.77246-240.32294a20.35411,20.35411,0,0,1-13.00317-8.96191,11.89659,11.89659,0,0,1-2.15552-6.68622c.13757-5.25128,4.27-7.05988,6.6886-10.91711,2.88928-4.60614,4.882-10.1579,6.65356-15.27277.67-1.93475,1.26257-3.89532,1.81653-5.86621.55273,1.97089,1.14526,3.93146,1.81519,5.86621,1.77173,5.11487,3.7655,10.66663,6.65381,15.27277,2.4198,3.85724,6.55212,5.66583,6.68982,10.91711a11.89965,11.89965,0,0,1-2.15564,6.68622A20.35472,20.35472,0,0,1,249.74179,709.8313ZM273.2269,936.27039c-3.05994-.37067-6.386-4.44305-9.33667-2.287a7.20822,7.20822,0,0,0-1.95093,2.5683,48.19685,48.19685,0,0,0-4.26514,12.88373c-1.08032.811-2.10278,1.55487-3.05542,2.22382.13037-5.20209.31763-10.39526.31763-15.47858V877.04883a335.43736,335.43736,0,0,1,23.06152,54.68384C276.3486,933.3382,274.76157,934.84387,273.2269,936.27039Zm20.20166-20.574a124.88611,124.88611,0,0,0-18.23682-32.13507,4.066,4.066,0,0,1,5.05579-6.119,284.70579,284.70579,0,0,1,29.626,17.60632,3.37582,3.37582,0,0,0,.89966.43518C304.9736,902.61462,299.17368,909.378,293.42856,915.69635Zm69.04443-94.043a667.842,667.842,0,0,1-47.49463,68.59711,219.17824,219.17824,0,0,0-10.75806-63.05292,73.39414,73.39414,0,0,0-5.34766-12.00391,4.07036,4.07036,0,0,1,5.23291-5.63989,50.72914,50.72914,0,0,1,10.79224,6.60846A188.7682,188.7682,0,0,0,337.289,844.86542c.3053.64478.63538,1.27783.92383,1.92987a3.181,3.181,0,0,0,3.67029,1.86469c.12183-.02631.23413-.06793.34937-.10468a3.35806,3.35806,0,0,0,1.74878-.55042,3.1798,3.1798,0,0,0,1.27637-3.91339q-.42847-1.11017-.82385-2.23248a188.8003,188.8003,0,0,0-4.36536-35.79022,50.85061,50.85061,0,0,1,2.97339-12.42841,4.07035,4.07035,0,0,1,7.68848.28729,73.35724,73.35724,0,0,0,4.7063,12.26935c2.42432,4.77325,5.0603,9.48608,7.85376,14.09814C363.01779,820.74829,362.74277,821.20752,362.473,821.65332Zm10.02747-17.13519c-1.07678-.12469-2.15271-.24927-3.23816-.37738l-.17749-.02112c-2.12878-.252-4.27295-.50446-6.42371-.74408a73.10845,73.10845,0,0,0,9.13147-7.57086,38.87668,38.87668,0,0,0,8.18774-11.56854,40.2876,40.2876,0,0,0,3.16931-20.02466l7.03906,7.03912C384.12936,783.41779,378.13779,794.56372,372.50046,804.51813Zm22.50745-43.14038-4.51245-4.51239a43.21017,43.21017,0,0,0,6.61475.0813Q396.05954,759.18292,395.0079,761.37775Zm-25.73657-25.73651-39.50562-39.506c19.7262-4.55609,42.27808-2.82892,67.17358,5.14386,1.58325.88287,3.22046,1.72528,4.89209,2.54053C397.97958,720.75073,386.485,732.00031,369.27133,735.64124ZM414.27524,674.306c-1.82373-.636-3.64062-1.219-5.44873-1.73615-23.149-11.94958-40.25757-26.64093-50.9574-43.76666h55.87024C423.33176,643.54218,423.50912,659.61609,414.27524,674.306Zm-.53589-55.89185H357.86911c10.72766-17.17035,27.89539-31.89526,51.1366-43.86176,1.74414-.49512,3.49707-1.05725,5.25562-1.66278C423.50986,587.58521,423.33676,603.66809,413.73935,618.41412Zm6.55042-88.10541a4.07074,4.07074,0,0,1,.28723-7.6886,73.3553,73.3553,0,0,0,12.26941-4.70667c5.49817-2.79218,10.92657-5.851,16.20416-9.12067q.59253,10.63284.81311,21.53851-8.64413,1.0806-17.14508,2.95032A50.86332,50.86332,0,0,1,420.28976,530.30872Zm28.78125,40.6521c-2.3728,1.02081-4.70624,2.17529-7.22778,3.51709a4.07058,4.07058,0,0,1-5.63977-5.23376A50.76087,50.76087,0,0,1,442.8118,558.452q3.5994-2.285,7.085-4.74261Q449.67575,562.3707,449.071,570.96082Z"/></svg>