<?xml version="1.0" encoding="utf-8"?>
<!-- Generator: Adobe Illustrator 24.3.0, SVG Export Plug-In . SVG Version: 6.00 Build 0)  -->
<svg version="1.1" id="Ebene_1" xmlns="http://www.w3.org/2000/svg" xmlns:xlink="http://www.w3.org/1999/xlink" x="0px" y="0px"
	 viewBox="0 0 841.9 595.3" style="enable-background:new 0 0 841.9 595.3;" xml:space="preserve">
<style type="text/css">
	.st0{fill:none;stroke:#E82C88;stroke-miterlimit:10;}
</style>
<path class="st0" d="M92.2,158.7c-39.4,0-71.4-32-71.4-71.4s32-71.4,71.4-71.4s71.4,32,71.4,71.4S131.5,158.7,92.2,158.7z
	 M92.2,31.2C61.2,31.2,36,56.4,36,87.3s25.2,56.1,56.1,56.1c30.9,0,56.1-25.2,56.1-56.1S123.1,31.2,92.2,31.2z"/>
<path class="st0" d="M214,191.2c-5,0-9-4-9-9v-9.8c0-5,4-9,9-9h7.2c2.5,0,4.5-2,4.5-4.5c0-1.8-1.1-3.4-2.8-4.1
	c-27-11.4-44.1-37.7-43.6-67.1c0.3-18.4,7.7-35.8,20.8-49c13.1-13.2,30.5-20.7,48.9-21.1c0.6,0,1.1,0,1.7,0
	c39.4,0,71.4,32,71.4,71.4c0,28.8-17.1,54.6-43.6,65.8c-1.7,0.7-2.7,2.3-2.7,4.1c0,2.5,2,4.5,4.5,4.5h7.2c5,0,9,4,9,9v9.8
	c0,5-4,9-9,9H214z M271.4,182.2V172H230v10.2H271.4z"/>
<path class="st0" d="M453.4,425.6v-10.9c0-2.4-1.4-4.6-3.6-5.5c-30.3-12.5-50.7-46.2-50.7-83.8c0-49,34.2-88.9,76.1-88.9
	c42,0,76.1,39.9,76.1,88.9c0,37.6-20.4,71.3-50.7,83.8c-2.2,0.9-3.6,3.1-3.6,5.5v10.9H453.4z M475.3,252.2
	c-34.5,0-62.5,32.8-62.5,73.2c0,40.3,28,73.2,62.5,73.2s62.5-32.8,62.5-73.2C537.8,285,509.7,252.2,475.3,252.2z"/>
<path class="st0" d="M76.4,428v-10.8c0-2-1.3-3.8-3.2-4.4C37.9,402,13.7,370,12.8,333.2c-0.6-22.8,7.9-44.5,23.7-61.1
	c15.8-16.6,37.1-26.1,59.8-26.6c0.7,0,1.4,0,2.1,0c47.2,0,85.6,38.4,85.6,85.6c0,18.7-5.9,36.5-17.2,51.4
	c-10.9,14.4-26.3,25.3-43.5,30.5c-2,0.6-3.3,2.3-3.3,4.4V428H76.4z M98.3,260.6c-38.8,0-70.4,31.6-70.4,70.4s31.6,70.4,70.4,70.4
	c38.8,0,70.4-31.6,70.4-70.4S137.2,260.6,98.3,260.6z"/>
<path class="st0" d="M264.8,431.4v-10.8c0-2-1.3-3.8-3.2-4.4c-35.2-10.8-59.4-42.9-60.3-79.7c-0.6-22.8,7.9-44.5,23.7-61.1
	c15.8-16.6,37.1-26.1,59.8-26.6c0.7,0,1.4,0,2.1,0c22.8,0,44.3,8.9,60.5,25l1.6-1.4c-0.3-1.7,0.3-3.6,1.6-4.7l7.5-6.5
	c0.8-0.7,1.8-1.1,2.8-1.2c-0.4-5.3,1.7-10.5,5.8-14c3-2.6,6.9-4.1,10.9-4.1c4.9,0,9.5,2.1,12.7,5.8c6,7,5.3,17.6-1.7,23.6
	c-3,2.6-6.9,4.1-10.9,4.1c0,0,0,0,0,0c-1.3,0-2.5-0.1-3.7-0.4c-0.2,1-0.8,1.9-1.6,2.6l-7.5,6.5c-0.9,0.8-2.1,1.2-3.2,1.2
	c-0.6,0-1.1-0.1-1.7-0.3l-1.9,1.6c9.5,14.1,14.5,30.6,14.5,47.6c0,18.7-5.9,36.5-17.2,51.4c-10.9,14.4-26.3,25.3-43.5,30.5
	c-2,0.6-3.3,2.3-3.3,4.4v10.7H264.8z M286.8,264c-38.8,0-70.4,31.6-70.4,70.4s31.6,70.4,70.4,70.4s70.4-31.6,70.4-70.4
	S325.7,264,286.8,264z M377.5,249.3c-2.3,0-4.5,0.8-6.2,2.3c-4,3.4-4.4,9.4-1,13.4c1.8,2.1,4.4,3.3,7.2,3.3c2.3,0,4.5-0.8,6.2-2.3
	c1.9-1.7,3.1-4,3.3-6.5c0.2-2.5-0.6-5-2.3-6.9C382.9,250.5,380.3,249.3,377.5,249.3z"/>
</svg>
