<?xml version="1.0" encoding="utf-8"?>
<!-- Generator: Adobe Illustrator 24.3.0, SVG Export Plug-In . SVG Version: 6.00 Build 0)  -->
<svg version="1.1" id="Ebene_1" xmlns="http://www.w3.org/2000/svg" xmlns:xlink="http://www.w3.org/1999/xlink" x="0px" y="0px"
	 viewBox="0 0 841.9 595.3" style="enable-background:new 0 0 841.9 595.3;" xml:space="preserve">
<style type="text/css">
	.st0{fill:none;stroke:#924A96;stroke-miterlimit:10;}
	.st1{fill:none;stroke:#B04E98;stroke-miterlimit:10;}
</style>
<path class="st0" d="M326.1,270.3c-55,0-99.8-44.8-99.8-99.8c0-24.8,9.2-48.6,25.8-67c16.4-18.1,38.8-29.5,63-32.2v-4.1
	c-2-1.1-3.3-3.3-3.3-5.6V48.4c0-1.4,0.5-2.8,1.3-3.9c-5.7-4.2-9.2-10.8-9.2-17.9c0-12.2,9.9-22.2,22.2-22.2
	c12.2,0,22.2,9.9,22.2,22.2c0,7.1-3.4,13.8-9.2,17.9c0.9,1.1,1.3,2.5,1.3,3.9v13.2c0,2.3-1.3,4.5-3.3,5.6v4.1
	c24.2,2.7,46.5,14.1,63,32.2c16.7,18.4,25.8,42.2,25.8,67C425.9,225.5,381.1,270.3,326.1,270.3z M326.1,88.9
	c-45,0-81.6,36.6-81.6,81.6s36.6,81.6,81.6,81.6s81.6-36.6,81.6-81.6S371.1,88.9,326.1,88.9z M326.1,13.7c-7.1,0-12.9,5.8-12.9,12.9
	s5.8,12.9,12.9,12.9c7.1,0,12.9-5.8,12.9-12.9S333.2,13.7,326.1,13.7z"/>
<path class="st1" d="M102.6,271.1c-55,0-99.8-44.8-99.8-99.8c0-24.8,9.2-48.6,25.8-67c16.4-18.1,38.8-29.5,63-32.2V68
	c-2-1.1-3.3-3.3-3.3-5.6V49.2c0-1.4,0.5-2.8,1.3-3.9c-5.7-4.2-9.2-10.8-9.2-17.9c0-12.2,9.9-22.2,22.2-22.2
	c12.2,0,22.2,9.9,22.2,22.2c0,7.1-3.4,13.8-9.2,17.9c0.9,1.1,1.3,2.5,1.3,3.9v13.2c0,2.3-1.3,4.5-3.3,5.6v4.1
	c10.9,1.2,21.4,4.1,31.3,8.8l11.7-21.7l-8.8-0.8l27.3-22.1l-3.3,35l-5.5-6.9l-11.7,21.7c29.9,18.3,47.7,50.1,47.7,85.1
	C202.4,226.3,157.6,271.1,102.6,271.1z M79.1,198.9c1.6,12.7,4.2,23.9,7.8,33.3c5.4,14.3,11.8,20.7,15.7,20.7h0.6v0.1
	c2.6,0,5.3-0.2,8-0.5c8.8-8.8,16-29.4,19-53.8c-8.9,0.6-18.2,0.9-27.6,0.9C94.7,199.5,86.8,199.3,79.1,198.9z M140.5,197.8
	c-1.7,14.7-4.7,28.3-8.9,39.4c-1.7,4.6-3.7,8.8-5.8,12.4c28.1-8.3,49.5-30.9,56.2-59.4c-3.8,1.3-8.1,2.4-13.4,3.5
	C160.4,195.4,150.9,196.8,140.5,197.8z M23.2,190.2c6.2,26.2,25.5,48.1,50.7,57.5c-1.4-2.8-2.8-5.9-4-9.1
	c-4.4-11.5-7.5-25.8-9.2-41.2c-8.9-1-17-2.2-24.1-3.7C31.3,192.6,27,191.4,23.2,190.2z M77.6,180.6c3.4,0.2,6.9,0.4,10.3,0.5
	c-2-2.9-3-6.3-3-9.8c0-5.5,2.5-10.6,6.9-14c-4.7,0.1-9.4,0.3-14,0.6c-0.3,4.5-0.4,9-0.4,13.4C77.4,174.3,77.5,177.4,77.6,180.6z
	 M115.5,159.1c3.1,3.3,4.8,7.6,4.8,12.2c0,3.5-1,6.9-3,9.8c4.9-0.2,9.7-0.4,14.3-0.8c0.1-3,0.2-6.1,0.2-9.1c0-4.4-0.1-8.8-0.4-13.1
	c-4.8-0.3-9.9-0.6-15-0.8L115.5,159.1z M141.6,159.1c0.2,4.1,0.3,8.2,0.3,12.2c0,2.7,0,5.4-0.1,8.2c23.4-2.5,38.3-6.9,42.4-10
	c0-0.3,0-0.6,0-1c-3.2-1.6-9.3-4-20.2-6.2C157.4,161,149.9,159.9,141.6,159.1z M21,169.5c3.8,2.9,17.3,7,38.4,9.5
	c-0.1-2.7-0.1-5.2-0.1-7.7c0-3.8,0.1-7.8,0.3-11.8c-6.7,0.8-12.9,1.7-18.4,2.8c-10.9,2.2-17,4.5-20.2,6.2
	C21,168.8,21,169.1,21,169.5z M73.9,94.8c-27,10.1-46.7,33.8-51.7,62.1c9-3.4,21.8-6,38.1-7.7c1.5-17,4.9-32.7,9.6-45.3
	C71.1,100.7,72.5,97.7,73.9,94.8z M140.9,148.8c17.9,1.7,32.4,4.5,42.1,8.2c-4-22.6-17.4-42.5-36.9-54.8l-9.9,18.3
	C138.4,129.2,139.9,138.7,140.9,148.8z M121.7,147.5c3,0.1,6,0.3,8.9,0.5c-0.5-4.7-1.1-9.3-1.9-13.6L121.7,147.5z M102.6,89.7
	c-3.9,0-10.3,6.4-15.7,20.7c-3.9,10.3-6.7,23.2-8.2,37.4c8-0.5,16.2-0.7,24-0.7c2.1,0,4.4,0,6.7,0.1l15.7-29.3
	c-3.6-12.6-8.5-22.4-13.8-27.7c-2.7-0.3-5.4-0.4-8-0.5v0.1H102.6z M125.8,93c2.1,3.6,4,7.8,5.8,12.4c0,0,0,0.1,0,0.1l4.6-8.6
	C132.9,95.4,129.4,94.1,125.8,93z M102.6,14.5c-7.1,0-12.9,5.8-12.9,12.9c0,7.1,5.8,12.9,12.9,12.9c7.1,0,12.9-5.8,12.9-12.9
	C115.5,20.3,109.7,14.5,102.6,14.5z"/>
</svg>
