<svg id="Слой_1" data-name="Слой 1" xmlns="http://www.w3.org/2000/svg" viewBox="0 0 425.2 425.2"><title>3d christmas toy2</title><path d="M352.405,72.79478A197.71443,197.71443,0,0,0,72.79457,352.40522,197.71443,197.71443,0,1,0,352.405,72.79478ZM212.60021,21.91146c105.14584,0,190.68811,85.5427,190.68811,190.68854a189.80767,189.80767,0,0,1-11.2954,64.66364,74.9244,74.9244,0,0,1-13.56649,6.0106c-12.94329,3.90054-26.84008,1.4867-40.37156,1.03876-8.70408-.288-19.50841.8699-27.56424,4.275-8.85981,3.74493-17.06333,10.44993-27.11136,10.45166-6.82937.00118-13.21048-3.341-19.97175-4.30308-11.48256-1.63384-22.65507,3.64288-33.91693,6.41579-22.27925,5.48563-45.64308,1.15852-68.58739,1.28541a42.33343,42.33343,0,0,0-11.5,1.24747c-10.79477,3.10637-19.28357,13.648-30.5116,13.31954-9.18494-.26868-17.08317-7.9783-26.263-7.5712a30.6835,30.6835,0,0,0-8.70117,2.13179l-18.83,6.62138c-11.38466,4.00329-14.127-4.02376-19.03175-12.78881a189.45246,189.45246,0,0,1-24.154-92.798C21.91167,107.45416,107.45438,21.91146,212.60021,21.91146Z" fill="#abb5c9"/></svg>