<svg id="Слой_1" data-name="Слой 1" xmlns="http://www.w3.org/2000/svg" viewBox="0 0 425.2 425.2"><title>3d christmas toy2</title><path d="M352.405,72.79478A197.71443,197.71443,0,0,0,72.79457,352.40522,197.71443,197.71443,0,1,0,352.405,72.79478ZM212.60021,21.91146c105.14563,0,190.68778,85.54237,190.68811,190.68792.00011,34.4896-6.05208,78.24026-43.21636,91.19059-15.02435,5.23541-31.80515,5.7961-46.42521,12.11778-6.93587,2.99905-12.63323,6.61677-20.26791,8.07518-23.41108,4.47207-45.26974-4.95252-68.3113-6.73964-17.581-1.36359-36.53722,1.0605-52.40217,9.046-5.10988,2.572-8.87753,7.313-14.48582,8.9733-7.609,2.25266-15.70312-.48265-23.16275-3.1892-10.63389-3.85826-22.48616-10.30939-33.45329-12.42573-12.005-2.3166-26.78578,4.156-38.80681,5.24066-1.32428.11948-2.67392.17459-4.03069.1993A189.65936,189.65936,0,0,1,21.91167,212.6C21.91167,107.45416,107.45438,21.91146,212.60021,21.91146Z" fill="#abb5c9"/></svg>