<svg id="Слой_1" data-name="Слой 1" xmlns="http://www.w3.org/2000/svg" viewBox="0 0 425.2 425.2"><title>3d christmas toy2</title><path d="M352.405,72.79481A197.71441,197.71441,0,0,0,72.79454,352.40519,197.71441,197.71441,0,1,0,352.405,72.79481ZM169.31917,244.63448c-1.08961,1.97241-2.51166,4.27737-3.87223,6.53195-1.36347,2.252-2.64583,4.46745-3.53989,6.19124a52.67508,52.67508,0,0,0-3.85594,9.84209,69.70909,69.70909,0,0,1-20.27774-3.3869,1.1143,1.1143,0,0,0-.14591-.22921c-.85884-.90848,1.60565-3.34466,4.09431-5.42085,9.87334-4.11013,20.049-8.44,28.53407-15.09516C169.83682,243.74423,169.50448,244.3031,169.31917,244.63448Zm51.07668,103.39578c-13.21452,1.87227-26.33685-1.92524-39.47772-4.79036,3.50907-.96,6.9447-2.1909,10.37454-3.41188,1.47754-.29922,3.019-.58664,4.64627-.96819,2.80788-.65665,5.19384-1.25165,7.30036-1.88589,1.80484.15652,3.62083.23478,5.42846.218,2.38317-.00836,4.75514-.176,7.07962-.35754a81.341,81.341,0,0,0,8.09375-1.03659c1.32155-.24583,2.6402-.51127,3.9617-.83815,1.30472-.31851,2.61506-.67048,3.93935-1.09513.00557-.00279.00836-.00279.0335-.01115l.02519-.00847c1.29073-.49176,2.67086-1.06168,4.03707-1.73494a18.81319,18.81319,0,0,0,4.00919.40782c1.48911-.07537,3.35817.17325,4.64617-.04192a1.521,1.521,0,0,1,.19276.014,18.12273,18.12273,0,0,0,4.43668-.01115c.19555-.02519.53357-.028.80459-.03077,1.57552-.008,3.118.03409,4.70717-.02712C244.01294,339.572,232.94477,346.25211,220.39585,348.03026Zm-66.8254-144.30569c-.39254-1.95339,2.107-4.05547,3.2978-5.30692a62.54268,62.54268,0,0,1,5.31853-4.89877c3.102-2.58374,6.28049-5.45117,9.78415-7.48562,3.06617-1.78042,5.764-4.02974,8.7124-6.06517a1.14715,1.14715,0,0,1,.63612-.26711c.49254.00685.75468.65794.57946,1.11831a2.53914,2.53914,0,0,1-1.01208,1.045c-1.04116.74191-1.44206,1.73169-2.63839,2.44316-1.22479.7284-2.5304,1.31237-3.73383,2.079a87.96218,87.96218,0,0,0-9.78835,7.23463c-3.406,2.78671-5.98937,6.28879-9.1479,9.30024C155.02438,203.44953,154.2769,204.01916,153.57044,203.72457ZM194.76416,220.139a10.7727,10.7727,0,0,0,6.44393.28271,9.81315,9.81315,0,0,0,2.95068-1.32712c.496-.33454,1.75531-1.86649,2.38473-1.77086,1.86161.28281-1.6592,4.1834-2.28561,4.6638a9.61178,9.61178,0,0,1-5.58772,1.96211,12.25955,12.25955,0,0,1-9.02672-4.096,16.97741,16.97741,0,0,1-3.28463-5.35518,12.47355,12.47355,0,0,1-.86817-3.7728c.05666-.46233.32688-.6046.98363-.06229a3.2647,3.2647,0,0,1,.83027,1.553A12.82889,12.82889,0,0,0,194.76416,220.139Zm-7.2162-22.1736a2.60865,2.60865,0,1,1,2.51793,2.69627A2.60857,2.60857,0,0,1,187.548,197.96538Zm27.46478,6.34412a8.64156,8.64156,0,0,1-3.1964,1.12332,3.95089,3.95089,0,0,1-3.15673-.9691,3.81281,3.81281,0,0,1-.98358-3.166c.43993-3.61177,5.0394-6.19532,7.87253-7.81694,3.607-2.06461,7.29414-3.98373,10.9608-5.939,3.57479-1.90626,7.038-4.132,10.73175-5.79736.65107-.29353,1.563-.51047,1.95836.08427.37346.56182-.09847,1.288-.55174,1.78769a140.189,140.189,0,0,1-11.58057,11.19092C223.28139,198.12153,219.46534,201.9007,215.01274,204.3095Zm1.96555,45.173c.30238.28946.59951.5861.88639.88961.01485.025.03072.04814.04513.07354a4.07227,4.07227,0,0,1,.24583.51964c.02519.03077.04749.06422.07269.095.1257.15931.2514.31573.37158.47214.12849.15931.25424.31862.38273.47225a5.42361,5.42361,0,0,1,.63526.94225,3.35145,3.35145,0,0,1-.7088,3.504c-2.1195,2.55819-4.39224,1.24211-6.64838.14173a5.25509,5.25509,0,0,1-.408-.41125c-.38831-.43859-.77114-.866-1.13152-1.33538a4.1063,4.1063,0,0,1,3.63552-6.86772C215.55027,248.146,216.114,248.86489,216.97828,249.48252Zm-11.80324-56.796a2.60865,2.60865,0,1,1,2.69622-2.518A2.60865,2.60865,0,0,1,205.175,192.68647Zm32.077,88.93626a5.14992,5.14992,0,0,1-2.64192,3.07665,3.2525,3.2525,0,0,1-2.23244.23779c-2.07656-.60283-2.86-3.03987-3.02149-4.93252a1.3005,1.3005,0,0,0-.05033-.30168,6.0225,6.0225,0,0,1-.05494-2.36907,3.86785,3.86785,0,0,1,.18188-1.09824,3.80469,3.80469,0,0,1,.65836-1.23278,3.94111,3.94111,0,0,1,5.786-.23017,5.96854,5.96854,0,0,1,1.43122,2.73551A7.35108,7.35108,0,0,1,237.25205,281.62273Zm1.18743,28.18457a6.15481,6.15481,0,0,1,.549,2.41292,5.56466,5.56466,0,0,1-4.11865,5.77924,4.82337,4.82337,0,0,1-5.0691-2.36039,5.38948,5.38948,0,0,1-.48962-3.82806c.3324-1.43294,1.9984-2.89825,3.2321-3.64442a4.27729,4.27729,0,0,1,4.247-.30061A4.23243,4.23243,0,0,1,238.43948,309.8073Zm30.38222-22.38667c-1.16127,3.3556-2.05024,6.776-2.93208,10.21324a.915.915,0,0,0,.10517.74231c-.0059.02616-.01378.05-.01962.07622-.02192.09788-.0365.18558-.05762.28228q-1.11016,3.471-2.33123,6.90353c-.07681.0163-.15513.03431-.23178.05017a18.83189,18.83189,0,0,0-5.65408,2.05324c.0052-.0699.01-.1398.0163-.20991.05216-.58257.07939-1.16513.10458-1.74791a.99127.99127,0,0,0,.22342-.25783c3.231-5.63623,4.43137-14.171,3.59274-20.72517-.00166-.2023.00118-.40557-.003-.60722.84088-7.66781-1.80881-16.79354-4.765-23.115a56.68026,56.68026,0,0,0-9.45764-14.14766c6.88654,3.14054,14.27454,3.50655,21.682-.39474a117.19876,117.19876,0,0,0,13.66335-8.06325c-4.83571,14.43342-8.21093,29.37066-12.15408,44.11139A42.841,42.841,0,0,0,268.82171,287.42063Zm110.22973,18.13225c-3.11663,2.05142-13.74284-2.0853-17.86487-2.6432a128.00813,128.00813,0,0,0-39.89433.9163c-9.66171,1.74941-18.23243,5.7459-27.69983,7.89692a56.93822,56.93822,0,0,0-6.67218,1.97176,6.32234,6.32234,0,0,0-.65381-4.92126,8.11745,8.11745,0,0,0-6.00567-3.61075,7.85149,7.85149,0,0,0-2.76328-.38884c-.12131-.01533-.24406-.03291-.36365-.04642-.38032-.04481-.75908-.07086-1.13651-.09284a21.22679,21.22679,0,0,1-.58616-6.28215,204.5575,204.5575,0,0,0,9.185-27.84076c2.55578-10.19952,4.8795-20.90313,4.90127-31.462a.52765.52765,0,0,0-.23012-.43274c.13224-.63263.24106-1.28869.36343-1.9337.11123-.59238.23956-1.18947.36922-1.78667a23.70192,23.70192,0,0,1,4.27346-3.124c1.97846-1.3922,3.823-3.16927,4.26043-5.65445.5965-3.38889-2.44584-6.61568-5.2982-5.62411.04567-.18584,7.83147-15.835,8.97811-17.57723a1.234,1.234,0,0,0,.18139-.17845c3.86578-4.68415,8.0487-9.09281,12.27969-13.44566,2.15835-2.22052,4.23743-4.61364,6.52521-6.6988,2.03128-1.85137,3.61126-4.29583,6.10568-5.47382a22.318,22.318,0,0,0,6.37913-5.17925,6.2357,6.2357,0,0,0,1.79387-2.66026c.24579-.93249.22637-2.3787-1.1454-2.08387a3.34037,3.34037,0,0,0-.99533.45931l-5.76843,3.47749a4.30722,4.30722,0,0,1,1.4615-2.432c.70927-.65354,1.52926-1.17557,2.26088-1.804.25523-.21923.52288-.53485.41265-.85273a.79267.79267,0,0,0-.68814-.41873c-2.09939-.291-5.02672,1.74163-6.84483,2.66617a29.33035,29.33035,0,0,0-2.9222,1.688c-.39318.26089-2.26814,2.04005-3.27637,2.76649.99928-1.12841,1.93617-5.01641,1.62773-5.92687-1.24881-3.68612-4.46756-.157-5.54751,2.43753q-.429.46716-.85643.93239c-.10356.11209-.20525.22047-.3087.33218a46.54115,46.54115,0,0,0,2.40274-10.886,1.56429,1.56429,0,0,0-2.31086-1.36636c-4.56694,2.8253-5.74306,7.6929-8.01731,12.01723a43.73421,43.73421,0,0,0-.20932-4.578,1.1844,1.1844,0,0,0-2.24643-.30436,8.47048,8.47048,0,0,0-.8857,4.70508c.00129.02123.01094.03474.01345.05489-.13321.22471-.254.45874-.39276.67921.31444-2.33059.52961-4.64263.68908-6.94732.86468-1.52.51781-3.76867.42492-5.418a3.815,3.815,0,0,0-.35261-1.42109l-.007-.04873c-.00842-.03356-.00557-.095-.02519-.109l-.04465-.06422c-.03516-.03763-.0722-.07789-.11546-.118a1.65042,1.65042,0,0,0-1.60029-.75292c-1.49453.14875-1.84944,1.83931-2.18795,3.02058a24.20311,24.20311,0,0,0-.89015,5.53438,1.05936,1.05936,0,0,0,.45687.93549q-.21782,1.07309-.42358,2.15595c-.406-1.55489-.81279-3.09626-1.05262-4.59176-.28029-1.74781-.2067-4.59122-2.20826-5.37234-3.20433-1.25052-3.699,2.89418-3.50178,6.908-.02734-.11643-.05173-.23618-.07966-.352-.081-.32688-.162-.651-.24309-.97505-.0922-.34087-.18156-.67889-.271-1.01424-.18156-.64539-.36038-1.26-.53357-1.83834,0,0-.028-.02509-.042-.03629-.00273.00836-.00836.03356-.01394.04749l-.05864.20954-.11455.41634c-.06829.2521-.133.5013-.19174.74847-.081-.19394-.15877-.37989-.224-.547-.75967-1.94812-2.18119-6.6696-5.19962-5.59517-1.4123.50275-1.82232,1.79471-1.76684,3.23676a3.04261,3.04261,0,0,0-3.0611,1.085.71415.71415,0,0,0-.1725.38745,22.4978,22.4978,0,0,0-6.44093-4.95755c-1.00673-.48018-2.41148.74209-1.82618,1.80189,1.85491,3.3586,3.83535,7.00254,6.53,9.806a64.4927,64.4927,0,0,1,3.2254,11.66055c.46378,2.44182.83536,4.90041,1.19574,7.35064q.26823,1.83968.53641,3.66827c.17046,1.21536.37158,2.453.60068,3.66l-.01115-.06985c.70682,3.38889,1.626,6.95944,2.16243,10.49643.1079.72349,2.89044,13.72445-.135,23.853a110.94669,110.94669,0,0,1-12.52679,8.61858c-5.36338,3.1466-12.85613,8.43655-19.129,4.66134-6.79938-4.09212-13.07553-7.79132-21.30109-6.65336-3.68714-3.3318-8.174-6.0961-13.039-6.03279-.22551-.064-.45622-.12811-.66731-.18493a29.89,29.89,0,0,0,2.57314-2.69043,41.61636,41.61636,0,0,0,3.294-4.5456c.63419-1.18738,1.25722-2.54522,1.84113-3.90858.26261-.69846.55877-1.383.77667-2.07029.11455-.34087.23747-.67332.34087-1.00577.09777-.3325.1956-.65659.28775-.96943a30.36174,30.36174,0,0,0,.989-4.825l.081-.60915c.02241-.20391.03634-.40508.05307-.609l.09783-1.21809a24.23144,24.23144,0,0,0,.00279-2.467,29.06433,29.06433,0,0,0-.89776-5.63312c1.2769-1.17869,2.53755-2.35342,3.78411-3.49073,4.55772-4.15826,9.73135-8.21168,12.31253-13.961a1.53869,1.53869,0,0,0-1.75386-1.98345q-1.24685.403-2.48448.84587c-.55148.17995-1.11324.37442-1.66912.59484-.199.07826-.38782.16263-.58241.24443a122.3246,122.3246,0,0,0-14.73671,6.96769c-.368-.48892-.73528-.95758-1.091-1.37853-.06148-.07263-.12854-.13969-.19-.21232.23468-.07826.5057-.204.81585-.34365.14805-.081.30447-.16767.46651-.257.081-.04755.1621-.095.24588-.14259.081-.05307.16194-.10887.24352-.165,7.1158-4.90282,4.98875-16.22229-2.6127-19.45889a12.84131,12.84131,0,0,0-3.61526-.908c-.78508-.081-.542-.11739-.70961-.17325a19.32886,19.32886,0,0,0-3.00342-.17325c-.32409.00557-.64812.02514-.97221.04755-.086.006-2.7115-5.05736-3.08962-5.58091a20.373,20.373,0,0,0-4.80526-4.799c-4.30964-3.01232-9.53146-4.99979-14.41916-6.848-7.04992-2.66577-14.752-4.256-22.23894-2.66186A69.30964,69.30964,0,0,0,151.88,149.15464a31.16642,31.16642,0,0,0-5.50946,3.26608c-.29337.21785-.68731.51122-1.084.80738-.40514.29059-.80459.60063-1.12316.84094a31.97985,31.97985,0,0,0-3.49786,2.9838,31.45748,31.45748,0,0,0-3.10114,3.50912,32.28893,32.28893,0,0,0-4.56238,8.20551,27.18945,27.18945,0,0,0-1.49753,10.64738c.29059,2.56194.78787,5.63516.79344,8.0491a18.21275,18.21275,0,0,1-.44421,4.42258,15.57111,15.57111,0,0,1-1.72658,4.0316c-.73759,1.30188-1.59809,2.57872-2.3189,3.96164-.1844.34365-.37437.68447-.54762,1.03091l-.50007,1.0561-.24867.52805-.22353.5392-.44416,1.0784a35.68242,35.68242,0,0,0-1.40249,4.59315c-.38841,1.54781-.6203,3.06764-.82984,4.36952a30.294,30.294,0,0,0-.19833,7.074,37.96067,37.96067,0,0,0,1.23771,6.79187c.09483.3243.18316.64764.282.97741a9.415,9.415,0,0,0-3.77167.58144,1.37806,1.37806,0,0,0-.67176.11,8.16621,8.16621,0,0,0-4.57016,4.741,1.95658,1.95658,0,0,0-.11166.36665,9.307,9.307,0,0,0,.233,9.237c3.26571,5.16012,7.905,3.08715,12.493,1.64832a1.93643,1.93643,0,0,0,.44186.0416c.43221-.01169.8635-.03077,1.29507-.0476a.60554.60554,0,0,0,.18113.15491c2.28535,1.25154,4.60548,1.79927,6.92047.16145a6.7579,6.7579,0,0,0,1.25948-1.16192c2.06777-.8255,3.33314-2.511,2.70549-5.996a11.55126,11.55126,0,0,0-1.96265-4.606c-.10094-.17062-.19689-.34478-.3101-.506a10.44187,10.44187,0,0,0-3.0537-3.14306,8.78007,8.78007,0,0,0-4.255-1.36063c.11455-.31567.22632-.6314.34087-.94707.09027-.2536.1926-.51342.28571-.76809a.96838.96838,0,0,0,.16944-.21865c3.54745-6.76689,6.24672-17.76334,15.56736-17.53435a11.449,11.449,0,0,0,.22942,1.17628,7.67267,7.67267,0,0,0,2.792,7.247c1.8444,1.51747,5.36928,2.63,7.747,1.53259a7.25838,7.25838,0,0,0,1.98291-.43934c.218-.07263.45542-.14811.67332-.2291.109-.05028.21232-.10061.3101-.14811l.24031.746c.08662.24867.19.48892.285.732a21.14756,21.14756,0,0,0,.95736,2.03384c1.82912,5.518,7.28262,10.03914,12.60692,11.9588a1.78432,1.78432,0,0,0,.7824.103c.57737.2997,1.16529.58032,1.76823.83188a15.46382,15.46382,0,0,0-1.66842,1.07926c-4.29983,1.4435-8.34478,3.68966-12.46155,5.57351q-7.39186,3.38251-14.74352,6.84146-7.44638,3.51582-14.91837,6.96968c-3.198,1.47582-7.22349,2.79126-9.79122,5.32329-3.86714,3.81338-1.78747,9.25266,2.80423,11.31673,6.65191,2.99013,15.65854,2.12218,23.079,1.73365-2.90517,2.40617-6.19751,4.10369-9.14433,6.41263a9.76141,9.76141,0,0,0-1.52535,1.48858.75435.75435,0,0,0-.46448.32441,3.01625,3.01625,0,0,0-.38863,1.064,3.24546,3.24546,0,0,0-.289,1.62227c.49653,4.5753,5.33733.62985,8.91335-2.19057-1.462,3.189-2.69456,6.95756-.66876,8.20953,1.18288.73094,2.13434.03506,2.93379-.851.04213-.04664.08587-.10238.129-.15438.10555,2.81056,1.12295,6.5862,3.58985,6.14643a1.90832,1.90832,0,0,0,1.63433-1.812.91482.91482,0,0,0,.087-.3094.32289.32289,0,0,0-.0468-.18247c.00161-.06315.007-.12415.00633-.18858-.01753-1.7834-.82845-3.41113-.77693-5.28673a20.149,20.149,0,0,1,.8463-5.00338,1.04,1.04,0,0,0,.26325.07226,62.265,62.265,0,0,0,.75866,10.0861c.96092,5.14039.74421,9.68261,2.08929,14.88107a22.35483,22.35483,0,0,0,1.68594,4.90842c.47978.90761,10.2221,10.42388,7.8473,11.078-.27487.07571-.55342.14344-.83685.20044a38.7474,38.7474,0,0,1-8.84994.44363c-5.60541-.17325-11.52107-.565-16.7074,1.99578a13.7328,13.7328,0,0,0-3.83224,2.83157,12.23114,12.23114,0,0,0-1.968,1.38137c-3.44362,2.98241-4.2429,7.99319-2.14882,11.3296-5.01212.95415-9.89189,2.47714-14.90229,3.267-5.19351.81885-10.49922-.23768-15.74763-.937A60.03187,60.03187,0,0,1,86.822,339.28094c-4.10745-1.82768-7.04933-3.71442-11.6092-4.71424-.99489-.21817-5.99462-.433-9.65716-.687A189.81578,189.81578,0,0,1,21.9117,212.6c0-105.14584,85.54265-190.68854,190.68849-190.68854S403.2883,107.45419,403.2883,212.6a190.42534,190.42534,0,0,1-15.58285,75.469C385.92892,292.174,382.81057,303.07873,379.05144,305.55287ZM285.39718,200.97971a.70225.70225,0,0,1-.09207-.28954c-.14924-1.19788,2.97591-2.64842,3.81323-2.95435a7.31257,7.31257,0,0,1,4.76642-.19464c2.09152.692,6.36046,4.58276,4.58,7.07111-.83933-.86-1.02431-2.35243-1.87575-3.32652a6.7331,6.7331,0,0,0-8.19809-1.6462C287.86781,199.89524,285.87332,201.73522,285.39718,200.97971Zm-2.26954-28.834c-.6536-2.051-1.31112-4.10155-1.932-6.16407.05579.18533,1.41095,1.019,1.6543,1.3702a8.23261,8.23261,0,0,1,.92119,2.10847c.73173,2.09647,1.44984,4.18671,2.0397,6.32913a77.327,77.327,0,0,1,1.82836,8.46827c.20715,1.31244,1.19689,3.51144.26458,4.69526-1.42962-3.56354-1.9939-7.72259-3.10151-11.43C284.265,175.7246,283.69782,173.935,283.12764,172.14571Zm8.66524,11.91236a19.99063,19.99063,0,0,1,.48135,2.73023,14.15435,14.15435,0,0,1-.66143,6.38591c-.78833-1.68341-.66675-3.62916-.61064-5.48717s-.00928-3.8491-1.08049-5.36825a2.38541,2.38541,0,0,1-.38725-.65412c-.3094-1.02727.59072-.52531.91337-.26936a4.13523,4.13523,0,0,1,1.01369,1.65976A8.9244,8.9244,0,0,1,291.79288,184.05807Zm4.74438,1.02547.01132-.06159q.60439-3.31752,1.37778-6.60127c.1104-.4687.31661-1.02762.79261-1.10038a.84371.84371,0,0,1,.85474.65721,2.45971,2.45971,0,0,1-.05494,1.16569l-2.02173,9.59725c-.20038.9512-.49057,2.191-1.46338,2.6175C295.38469,189.13577,296.12823,187.28786,296.53727,185.08354Zm4.79085,7.70918c-.74021-1.06862,3.76891-4.91833,4.33783-5.37484l6.74406-5.41159c2.3666-1.899,4.68648-4.41534,7.42206-5.75319.76308-.37319,1.78539-.62364,2.3777-.01476-3.14886,1.5214-4.99831,4.1252-7.61136,6.27462l-7.30815,6.01148c-.604.49682-5.02361,4.93039-5.83272,4.39294A.47379.47379,0,0,1,301.32811,192.79272Z" fill="#abb5c9"/></svg>