<svg id="Слой_1" data-name="Слой 1" xmlns="http://www.w3.org/2000/svg" viewBox="0 0 425.2 425.2"><title>3d christmas toy2</title><path d="M352.405,72.79478A197.9376,197.9376,0,0,0,32.372,131.07871l-.09831-.014.08142.05082A197.768,197.768,0,1,0,352.405,72.79478ZM299.24978,42.76056c.25837.13235.513.271.77072.40449l-.84866.14194Zm-7.05512-3.42084-.11836.1897-.23286-.35395C291.961,39.22941,292.07727,39.28558,292.19466,39.33972ZM46.329,119.33652l2.3531,14.06859-8.93319-1.27422Q42.80333,125.596,46.329,119.33652ZM45.526,139.33322l-12.08938,7.95293q2.299-6.28676,5.02643-12.3597ZM212.60021,403.28854c-105.14584,0-190.68854-85.54228-190.68854-190.68854A189.806,189.806,0,0,1,33.26,147.78686l15.56366-2.60311-2.3404,16.40835,8.2685-13.25231,8.58476,13.04969-2.73422-16.3474,16.4084,2.3405L63.75836,139.114l13.04974-8.58471-16.3474,2.73417,2.34045-16.40835L54.5326,130.10741l-7.68968-11.68907a191.76978,191.76978,0,0,1,99.70216-84.70472,50.24427,50.24427,0,1,0,71.88981,69.42521,50.12425,50.12425,0,0,1-22.21948.89861l2.4379-13.69974,17.56437,9.22286L204.59084,84.919l18.16039-4.44483-19.53168-3.47583L212.4424,59.434,197.80084,71.06081,193.356,52.90047l-3.47578,19.53168-17.56431-9.22281,11.62678,14.64151-18.16033,4.44488,19.53163,3.47578-6.17012,11.75071a50.2471,50.2471,0,0,1-16.83964-68.86564A190.70547,190.70547,0,0,1,283.773,35.70045l1.30059,7.77609-19.63969-2.80139L281.296,50.57208,265.67642,60.8474l19.56668-3.27262-2.80134,19.63969,9.89687-15.86212L302.614,76.972l-3.27267-19.56674,19.63975,2.80139-15.86218-9.89693,4.526-2.97737A190.80655,190.80655,0,0,1,403.28833,212.6C403.28833,317.74627,317.74605,403.28854,212.60021,403.28854ZM181.6253,98.94118l9.10734-7.23212,2.88367,11.78164A49.911,49.911,0,0,1,181.6253,98.94118Z" fill="#abb5c9"/></svg>