<svg id="Слой_1" data-name="Слой 1" xmlns="http://www.w3.org/2000/svg" viewBox="0 0 425.2 425.2"><title>3d christmas toy2</title><path d="M352.405,72.79478A197.71443,197.71443,0,0,0,72.79457,352.40522,197.71443,197.71443,0,1,0,352.405,72.79478ZM212.60021,21.91146c105.14584,0,190.68811,85.5427,190.68811,190.68854a189.59557,189.59557,0,0,1-32.43,106.26723c-14.468-2.39866-29.713-9.27694-44.1715-6.46156-10.03774,1.95458-16.75165,6.572-23.48927,13.61557-6.45639,6.74956-17.07789,12.81187-26.62643,12.14384-4.06352-.28429-7.99575-1.72864-12.06783-1.83425-13.41957-.348-24.17507,13.53985-37.58324,12.88654-9.7001-.47264-17.43507-8.45614-26.8911-10.66945a35.79981,35.79981,0,0,0-10.33313-.60861,76.31772,76.31772,0,0,0-22.80363,4.98757c-7.28155,2.81153-11.35226,6.51217-19.35916,5.24529-13.8504-2.1915-3.06785-6.38761,2.71805-10.39565a5.91022,5.91022,0,0,0,2.78809-5.39,5.23238,5.23238,0,0,0-3.263-4.2168A67.87246,67.87246,0,0,1,124.773,309.04235c8.26844-1.36529,15.80991-6.0679,20.04043-12.8751a3.42045,3.42045,0,0,0,.38643-2.79008,3.72745,3.72745,0,0,0-1.87158-2.22172,62.47951,62.47951,0,0,1-21.3934-18.40723c7.102-2.00854,12.8906-7.76923,13.90917-14.72042a3.56429,3.56429,0,0,0-1.77675-3.56776c-13.59881-8.13792-24.01382-19.54213-28.57347-31.28813a4.10208,4.10208,0,0,0-7.49253,0c-4.55965,11.746-14.9746,23.15021-28.57239,31.28813a3.56473,3.56473,0,0,0-1.77681,3.56583c1.01756,6.95311,6.80517,12.71574,13.90714,14.72235a62.446,62.446,0,0,1-21.39238,18.40723,3.72736,3.72736,0,0,0-1.87152,2.22172,3.42023,3.42023,0,0,0,.38638,2.79008c4.23159,6.8072,11.772,11.50981,20.04043,12.8751-.52484-.08668-4.773,5.29584-5.43763,5.937a67.61006,67.61006,0,0,1-6.70793,5.67246c-2.72752,2.01968-5.60294,3.36943-7.3315,5.147A189.67413,189.67413,0,0,1,21.91167,212.6C21.91167,107.45416,107.45438,21.91146,212.60021,21.91146ZM78.31174,325.22288a16.2117,16.2117,0,0,0-1.9924-.54735,3.3251,3.3251,0,0,1-1.4205-.88779,2.9253,2.9253,0,0,1-.72949-1.58362,4.1835,4.1835,0,0,1,.73775-2.85355,4.07654,4.07654,0,0,1,1.02024-1.05251,5.4527,5.4527,0,0,1,1.1996-.62524,36.32433,36.32433,0,0,1,4.58849-.94611A12.149,12.149,0,0,0,88.87,311.76226a11.74835,11.74835,0,0,1-6.78935,6.19832,41.29971,41.29971,0,0,0-4.27442,1.29094,4.25263,4.25263,0,0,0-.78642.50007,2.42223,2.42223,0,0,0-.82839,2.12657c.12849.41859.26014.54059.78128.69519.26684.06679.60755.12248,1.007.19013a4.86875,4.86875,0,0,1,1.4131.42642,2.65408,2.65408,0,0,1,1.317,1.48225,2.807,2.807,0,0,1-.00783,1.72835,59.02119,59.02119,0,0,0-10.05779,3.58824c-.4433.13187-.88371.27284-1.3171.43312-.67589.24218-1.3417.51336-1.991.8203-.32328.1562-.64453.31632-.96031.48715a3.27089,3.27089,0,0,0-.69749.472,1.72751,1.72751,0,0,0-.40814.48544l-.01308.0312a1.10982,1.10982,0,0,0,.1146.063c-.1576.095-.31026.19715-.46678.29375q-.82086-1.00451-1.62795-2.02038a4.75237,4.75237,0,0,1,.67691-.76466,5.85953,5.85953,0,0,1,1.17655-.83123c.35282-.197.7117-.38236,1.0732-.56273a23.2461,23.2461,0,0,1,2.2281-.95013,23.50364,23.50364,0,0,1,4.69779-1.14289c.79805-.10994,1.608-.17657,2.4081-.20664a9.21552,9.21552,0,0,0,1.95681-.18413,1.66559,1.66559,0,0,0,.57828-.26062,1.20763,1.20763,0,0,0,.342-.43237.635.635,0,0,0,.06432-.31165A.30007.30007,0,0,0,78.31174,325.22288Zm9.05551-72.25437a4.87954,4.87954,0,0,1-1.66885-.73448,4.11887,4.11887,0,0,1-1.23921-1.4167,3.24174,3.24174,0,0,1-.3726-1.9671,2.86857,2.86857,0,0,1,.99574-1.76651,9.43745,9.43745,0,0,1,2.82444-1.33189,12.82644,12.82644,0,0,0,7.35981-7.8074,12.4533,12.4533,0,0,1-6.74754,9.18314,8.53524,8.53524,0,0,0-2.23689,1.2598,1.08814,1.08814,0,0,0-.10147,1.46923c.67728,1.1587,2.31515,1.16894,4.18356.98181a1.12844,1.12844,0,0,1,1.17328,1.50632l-.02235.06014a8.45347,8.45347,0,0,1-2.9049,3.77719,11.21226,11.21226,0,0,1-4.20672,1.92534,21.34715,21.34715,0,0,1-6.60635.31315,9.923,9.923,0,0,0,1.8585,2.64181,9.60405,9.60405,0,0,0,4.45357,2.63109,9.97435,9.97435,0,0,0,5.25344-.09718,10.27278,10.27278,0,0,0,4.61223-2.76783l.05023-.054a.65933.65933,0,0,1,.9318-.03377.71839.71839,0,0,1,.06722.07263,4.4697,4.4697,0,0,0,4.01423,1.58775,4.86034,4.86034,0,0,0,3.71453-2.829,5.0583,5.0583,0,0,1-3.55184,3.615,5.46517,5.46517,0,0,1-4.61234-.92354A11.3291,11.3291,0,0,1,89.96,265.40417a11.59291,11.59291,0,0,1-6.36733.5,12.009,12.009,0,0,1-8.99376-8.66919,1.29487,1.29487,0,0,1,1.36384-1.60865l.02691.00273a26.07658,26.07658,0,0,0,7.84524-.01806,8.74763,8.74763,0,0,0,4.52336-2.48389A6.883,6.883,0,0,1,87.36725,252.96851Zm30.15789,12.29125a2.25237,2.25237,0,0,0-1.01606-1.55263,1.27121,1.27121,0,0,1,.66072-2.38875l.04755.00252a22.473,22.473,0,0,0,6.40866-.34253,7.08011,7.08011,0,0,0,3.4857-2.018,17.24439,17.24439,0,0,1-3.90515-1.417,18.91348,18.91348,0,0,1-4.8244-3.50344,18.24021,18.24021,0,0,1-3.44281-4.76565,15.67358,15.67358,0,0,1-1.61433-5.53583,19.19012,19.19012,0,0,0,6.17773,9.06945,18.93418,18.93418,0,0,0,4.60929,2.79222,16.64479,16.64479,0,0,0,5.12983,1.28622,1.19435,1.19435,0,0,1,1.035,1.59252l-.025.068a7.22073,7.22073,0,0,1-2.45275,3.22979,10.20489,10.20489,0,0,1-3.50135,1.71468,15.92115,15.92115,0,0,1-4.5187.50023,4.91623,4.91623,0,0,1,.21184.85723,4.69179,4.69179,0,0,1-1.06382,3.819,4.58856,4.58856,0,0,1-3.62415,1.4547,4.75289,4.75289,0,0,1-2.43774-.83257,8.329,8.329,0,0,1-2.048,1.96061,9.69542,9.69542,0,0,1-3.66634,1.50359,9.40509,9.40509,0,0,1-3.86886-.07467,7.48179,7.48179,0,0,1-3.33855-1.72,7.96716,7.96716,0,0,0,3.44474,1.04184,9.18465,9.18465,0,0,0,3.46677-.43173,8.8585,8.8585,0,0,0,2.97566-1.63068,7.16092,7.16092,0,0,0,1.948-2.58563.95833.95833,0,0,1,1.59766-.2596l.06486.07419a2.45485,2.45485,0,0,0,1.90926.74563,2.33839,2.33839,0,0,0,1.79455-.78857A2.28484,2.28484,0,0,0,117.52514,265.25976Zm7.86974,32.60137a4.69224,4.69224,0,0,1-1.08328,2.62471,6.14753,6.14753,0,0,1-4.68985,1.97718,10.17822,10.17822,0,0,1-4.62092-1.07438,23.795,23.795,0,0,1-3.85315-2.45859,34.12194,34.12194,0,0,0,4.16362,1.65614,9.84636,9.84636,0,0,0,4.2005.40562,4.74919,4.74919,0,0,0,3.2686-1.69715,2.658,2.658,0,0,0,.4909-1.52556,1.73743,1.73743,0,0,0-.51015-1.229,1.13966,1.13966,0,0,1,1.28612-1.82971l.0283.013a13.29936,13.29936,0,0,0,6.89833,1.38185,5.56716,5.56716,0,0,0,2.8596-1.2479,3.5977,3.5977,0,0,0,.948-1.16261,28.68924,28.68924,0,0,1-5.326-.89427,29.14458,29.14458,0,0,1-6.38556-2.48732,26.9593,26.9593,0,0,1-5.57062-3.907,21.87239,21.87239,0,0,1-4.23953-5.20654,29.49129,29.49129,0,0,0,4.96516,4.2972,32.09975,32.09975,0,0,0,5.66791,3.09112,32.768,32.768,0,0,0,12.42446,2.59491,1.29133,1.29133,0,0,1,1.26591,1.14948l.00113.01115A4.71381,4.71381,0,0,1,137.08,294.963a6.13159,6.13159,0,0,1-1.54706,1.9187,8.16646,8.16646,0,0,1-4.23915,1.78222,11.38886,11.38886,0,0,1-4.33532-.35888c-.53636-.14473-1.05476-.32184-1.56437-.51293C125.39225,297.81476,125.39718,297.83861,125.39488,297.86112Zm2.0006,27.85786a1.20689,1.20689,0,0,0,.34194.43237,1.66559,1.66559,0,0,0,.57828.26062,9.2157,9.2157,0,0,0,1.95686.18413c.8.03007,1.61.0967,2.408.20664a23.50364,23.50364,0,0,1,4.69779,1.14289,23.24609,23.24609,0,0,1,2.2281.95013c.3615.18038.72044.36569,1.0732.56273a5.858,5.858,0,0,1,1.17655.83123,4.17663,4.17663,0,0,1,.9966,1.302,2.52378,2.52378,0,0,1,.0297,2.19829,2.44815,2.44815,0,0,1-.71036.88436,3.31875,3.31875,0,0,1-.7921.45644,8.226,8.226,0,0,1-1.24366.37641,36.69406,36.69406,0,0,1-8.63783,1.21691q-1.2836-1.00708-2.60129-1.95627c.61382-.01474,1.22747-.03447,1.83942-.07714,1.48381-.09027,2.953-.3087,4.41336-.53888a36.81892,36.81892,0,0,0,4.3038-1.0442,9.5446,9.5446,0,0,0,.93957-.30447,1.09373,1.09373,0,0,0,.15958-.08523l-.01308-.0312a1.72751,1.72751,0,0,0-.40814-.48544,3.27089,3.27089,0,0,0-.69749-.472c-.31573-.17084-.637-.331-.96031-.48715-.6492-.30694-1.31506-.57812-1.991-.8203a20.90446,20.90446,0,0,0-4.16813-1.07352c-.71229-.10769-1.42377-.176-2.14807-.21345a9.6732,9.6732,0,0,1-2.57668-.34339,4.03491,4.03491,0,0,1-1.439-.78433,3.60383,3.60383,0,0,1-.98272-1.40694,2.86856,2.86856,0,0,1-.068-1.92808,2.6538,2.6538,0,0,1,1.317-1.48225,4.86922,4.86922,0,0,1,1.4131-.42642c.39946-.06765.74016-.12334,1.007-.19013.52114-.15459.65279-.2766.78128-.69519a2.42223,2.42223,0,0,0-.82839-2.12657,4.25263,4.25263,0,0,0-.78642-.50007,41.29848,41.29848,0,0,0-4.27437-1.29094,11.74845,11.74845,0,0,1-6.78941-6.19832,12.149,12.149,0,0,0,7.15461,4.96446,36.32364,36.32364,0,0,1,4.58843.94611,5.45423,5.45423,0,0,1,1.19965.62524,4.07719,4.07719,0,0,1,1.02019,1.05251,4.1835,4.1835,0,0,1,.73775,2.85355,2.92492,2.92492,0,0,1-.72949,1.58362,3.32479,3.32479,0,0,1-1.4205.88779,16.21749,16.21749,0,0,0-1.9924.54735.29991.29991,0,0,0-.16724.18445A.63364.63364,0,0,0,127.39548,325.719Zm-33.98134-5.194a2.0649,2.0649,0,0,0,1.09095.90414,3.206,3.206,0,0,0,.82309.22246,2.9581,2.9581,0,0,0,.8917-.04519,15.66339,15.66339,0,0,0,4.2414-2.00971,10.1722,10.1722,0,0,1-1.36561,2.23029,6.24622,6.24622,0,0,1-2.20708,1.74025,4.42709,4.42709,0,0,1-1.5409.40739,4.77162,4.77162,0,0,1-1.61991-.17041,4.20971,4.20971,0,0,1-2.68239-2.12748,3.54933,3.54933,0,0,1-.31766-1.91977,4.47363,4.47363,0,0,1,.54724-1.59584,9.36092,9.36092,0,0,1,.77152-1.14621,12.63644,12.63644,0,0,1,.85386-1.01054,11.10442,11.10442,0,0,1,4.29747-2.92178c-.97216,1.44473-1.868,2.77759-2.64208,4.15548-.37233.66967-.7839,1.41348-1.04635,2.02885a2.269,2.269,0,0,0-.1978.76139A.97779.97779,0,0,0,93.41414,320.525ZM106.301,286.9848a1.74927,1.74927,0,0,0-1.14337-1.28815,1.9759,1.9759,0,0,1,2.23721.59741,3.1321,3.1321,0,0,1,.71127,2.55336,5.42648,5.42648,0,0,1-2.9324,3.96122,5.24892,5.24892,0,0,1-2.51793.5912,4.34917,4.34917,0,0,1-2.49472-.83493,4.14043,4.14043,0,0,1-1.47025-1.98817,2.88607,2.88607,0,0,1,.12211-2.27382,3.7061,3.7061,0,0,0,2.37653,2.47178,3.53846,3.53846,0,0,0,2.78027-.3087,4.90516,4.90516,0,0,0,2.12437-2.11215A2.0579,2.0579,0,0,0,106.301,286.9848Zm9.27668,34.92584a1.40927,1.40927,0,0,0-.46094-.73394,8.20079,8.20079,0,0,0-1.07234-.77881,4.50236,4.50236,0,0,1-1.16052-1.09245,1.76445,1.76445,0,0,1-.32832-1.50707,1.70875,1.70875,0,0,0,.83922.98508,4.311,4.311,0,0,0,1.20078.44405,8.8049,8.8049,0,0,1,1.4532.49546,3.11485,3.11485,0,0,1,1.41477,1.33,3.75812,3.75812,0,0,1,.429,1.9024,5.15758,5.15758,0,0,1-.35882,1.76887,6.66114,6.66114,0,0,1-2.02644,2.7525c-.06422.052-.13562.094-.20166.14371q-1.76475-.61679-3.57141-1.11475a5.70364,5.70364,0,0,0,2.11494-1.07551,5.20938,5.20938,0,0,0,1.38893-1.69345A2.81761,2.81761,0,0,0,115.57766,321.91064Zm-9.94667,3.277a4.55428,4.55428,0,0,1-.28935-1.28638,7.29025,7.29025,0,0,0,1.484,1.49255C106.428,325.32183,106.03028,325.25139,105.631,325.18766Zm-5.49412-77.5895a2.47992,2.47992,0,0,0,.80888,1.777,2.60323,2.60323,0,0,0,1.82023.50725,3.64932,3.64932,0,0,0,3.0686-2.68968,10.05135,10.05135,0,0,0-.08636-5.2253,7.23,7.23,0,0,1,1.717,5.61152,5.61842,5.61842,0,0,1-1.42077,2.95523,4.77823,4.77823,0,0,1-1.41241,1.04431,4.9725,4.9725,0,0,1-1.71881.44572,4.33488,4.33488,0,0,1-3.3571-1.17248,4.04279,4.04279,0,0,1-1.08773-3.31041,5.43931,5.43931,0,0,1,1.2591-2.87279,10.90447,10.90447,0,0,1,2.16452-1.93129C100.99131,244.4113,99.99251,246.06841,100.13686,247.59815Zm8.96926-9.70739a1.68473,1.68473,0,0,1-1.729-.04326,6.05116,6.05116,0,0,1-1.35425-1.20721,5.56822,5.56822,0,0,0-1.78726-1.37215,2.36372,2.36372,0,0,0-2.17808.08319,8.56208,8.56208,0,0,0-1.0122.96138,1.345,1.345,0,0,1-1.26853.40819c-.478-.16124-.71218-.70489-1.13587-.97881-.98663-.63789-2.477.41752-3.41612-.2885a1.50737,1.50737,0,0,1-.35368-1.73564c.52151-1.32412,1.9322-1.96415,2.7807-3.01816a6.4,6.4,0,0,0,1.00357-2.469c.41988-1.6064,1.27-3.14874,3.1548-3.22191,1.54368-.06,2.4051,1.34546,3.10254,2.55749,1.49876,2.60461,4.23808,5.14093,4.7709,8.16435A2.1189,2.1189,0,0,1,109.10612,237.89077ZM85.25907,286.47353a13.05309,13.05309,0,0,0,3.335-2.412,13.69145,13.69145,0,0,0,3.86816-7.46433,12.92908,12.92908,0,0,1-2.93631,8.30028,13.90536,13.90536,0,0,1-3.4486,3.04052c-.32613.21227-.67841.38193-1.01922.57442-.35287.16612-.71636.32162-1.07642.46941-.72392.27574-1.42366.48683-2.054.7348a5.6693,5.6693,0,0,0-1.61315.89,5.52816,5.52816,0,0,0-1.10987,1.40356c-.344.573-.67117,1.23364-1.10317,1.91853a10.11771,10.11771,0,0,1-1.59445,1.91376,10.25314,10.25314,0,0,1-5.13632,2.51439,15.32462,15.32462,0,0,0,4.37552,2.35932c2.59019.85048,5.64384.56863,7.46514-1.43a6.613,6.613,0,0,1,1.05074-.91175,2.585,2.585,0,0,1,1.78292-.4314,2.78062,2.78062,0,0,1,1.52787.79178,6.8767,6.8767,0,0,1,.8464,1.01461,8.81356,8.81356,0,0,0,.64539.84694,5.1912,5.1912,0,0,0,.74327.68318,5.665,5.665,0,0,0,1.84622.91127,5.43426,5.43426,0,0,0,4.13779-.40374,6.27948,6.27948,0,0,0,2.94767-3.31148,6.26183,6.26183,0,0,1-2.55267,3.95092,6.36937,6.36937,0,0,1-4.82783,1.05739,7.10069,7.10069,0,0,1-2.4133-.91952,6.79544,6.79544,0,0,1-1.05353-.79607,10.29706,10.29706,0,0,1-.86393-.92724c-.47606-.58589-.98808-1.01976-1.21391-.97527a.63.63,0,0,0-.41318.17212,5.08564,5.08564,0,0,0-.65273.67273,8.7898,8.7898,0,0,1-.91786.93962,6.79558,6.79558,0,0,1-1.11689.78894,8.56825,8.56825,0,0,1-2.51413.93008,10.96557,10.96557,0,0,1-5.19233-.23907c-3.32569-1.02426-5.93057-3.15528-8.30575-5.1309l-.01152-.0096a1.30579,1.30579,0,0,1,1.17146-2.26562,7.99531,7.99531,0,0,0,7.01235-1.71044,7.70021,7.70021,0,0,0,1.25572-1.38582c.37062-.53239.71947-1.166,1.15087-1.82709a6.921,6.921,0,0,1,1.71554-1.90117,7.72824,7.72824,0,0,1,2.2683-1.079c.74536-.234,1.45631-.3964,2.1099-.5972A13.85554,13.85554,0,0,0,85.25907,286.47353Z" fill="#abb5c9"/></svg>