<svg id="Слой_1" data-name="Слой 1" xmlns="http://www.w3.org/2000/svg" xmlns:xlink="http://www.w3.org/1999/xlink" viewBox="0 0 425.2 535.2"><defs><radialGradient id="Безымянный_градиент_55" cx="208.21715" cy="319.10608" r="194.20131" gradientUnits="userSpaceOnUse"><stop offset="0.00562" stop-color="#a0acd1"/><stop offset="0.18755" stop-color="#a3afd3"/><stop offset="0.31737" stop-color="#acb8d9"/><stop offset="0.43089" stop-color="#bcc8e3"/><stop offset="0.44359" stop-color="#becae5"/><stop offset="0.6163" stop-color="#c6cee9"/><stop offset="0.6238" stop-color="#c7cee9"/><stop offset="0.6411" stop-color="#c3cbe7"/><stop offset="0.73487" stop-color="#b4bfe1"/><stop offset="0.84343" stop-color="#abb7dd"/><stop offset="1" stop-color="#a8b5dc"/></radialGradient></defs><title>3d christmas toy2</title><circle cx="208.21715" cy="319.10608" r="194.20131" fill="url(#Безымянный_градиент_55)"/><path d="M348.02215,179.30087a197.9376,197.9376,0,0,0-320.033,58.28392l-.09831-.014.08142.05082a197.768,197.768,0,1,0,320.04986-58.3207Zm-53.15522-30.03422c.25837.13235.513.271.77072.40449l-.84866.14194Zm-7.05512-3.42084-.11836.1897-.23285-.35395C287.57815,145.73549,287.69442,145.79167,287.81181,145.84581Zm-245.8657,79.9968,2.3531,14.06859L35.366,238.637Q38.42048,232.10208,41.94611,225.84261Zm-.80293,19.99669L29.0538,253.79223q2.299-6.28676,5.02643-12.3597ZM208.21736,509.79463c-105.14584,0-190.68854-85.54228-190.68854-190.68854a189.806,189.806,0,0,1,11.34831-64.81314l15.56366-2.60311-2.3404,16.40835,8.2685-13.25231,8.58476,13.04969-2.73422-16.3474,16.4084,2.3405L59.3755,245.62006l13.04974-8.58471-16.3474,2.73417,2.34045-16.40835-8.26855,13.25231-7.68968-11.68907a191.76978,191.76978,0,0,1,99.70216-84.70472A50.24427,50.24427,0,1,0,214.052,209.64492a50.12425,50.12425,0,0,1-22.21948.89861l2.4379-13.69974,17.56437,9.22286L200.208,191.42509l18.16039-4.44483-19.53168-3.47583,9.22286-17.56431L193.418,177.56689l-4.44488-18.16033-3.47578,19.53168L167.933,169.71543l11.62678,14.64151-18.16033,4.44488,19.53163,3.47578L174.761,204.02831a50.2471,50.2471,0,0,1-16.83964-68.86564,190.70547,190.70547,0,0,1,121.46885,7.04386l1.30059,7.77609-19.63969-2.80139,15.86212,9.89693-15.61962,10.27532,19.56668-3.27262-2.80134,19.63969,9.89687-15.86212,10.27537,15.61962-3.27267-19.56674,19.63975,2.80139-15.86218-9.89693,4.526-2.97737a190.80655,190.80655,0,0,1,95.64343,165.26768C398.90547,424.25235,313.3632,509.79463,208.21736,509.79463ZM177.24244,205.44726l9.10734-7.23212,2.88367,11.78164A49.911,49.911,0,0,1,177.24244,205.44726Z" fill="#909296"/><path d="M348.02215,179.30087a197.71426,197.71426,0,1,0,57.90929,139.80522A196.41913,196.41913,0,0,0,348.02215,179.30087ZM208.21736,509.79463c-105.14584,0-190.68854-85.54228-190.68854-190.68854,0-105.14584,85.5427-190.68854,190.68854-190.68854s190.68811,85.5427,190.68811,190.68854a189.71368,189.71368,0,0,1-13.112,69.49436c-.14886-.086-.29032-.17984-.44647-.258a92.11216,92.11216,0,0,1-33.21224-28.39352,38.75653,38.75653,0,0,0,26.62014-19.11244,5.59391,5.59391,0,0,0,.51326-4.1417,5.423,5.423,0,0,0-2.486-3.298,86.392,86.392,0,0,1-28.41727-27.32461,27.06635,27.06635,0,0,0,18.47585-21.85171,5.50379,5.50379,0,0,0-2.36012-5.29617c-18.06363-12.08032-31.898-29.00927-37.95473-46.44557a5.23534,5.23534,0,0,0-9.95246,0c-6.0567,17.43631-19.89109,34.36525-37.95333,46.44557A5.50439,5.50439,0,0,0,276.26,284.2176,27.057,27.057,0,0,0,294.733,306.07215a86.34449,86.34449,0,0,1-28.41587,27.32461,5.423,5.423,0,0,0-2.486,3.298,5.59391,5.59391,0,0,0,.51326,4.1417,38.75945,38.75945,0,0,0,26.6202,19.11244A92.16018,92.16018,0,0,1,257.939,388.24837a7.868,7.868,0,0,0-4.40484,6.921,8.74764,8.74764,0,0,0,4.49479,7.78177c16.36059,9.3239,41.98327,13.97018,66.63481,13.97018,19.82806,0,39.02139-3.01136,52.25762-9.01188C344.92856,468.4426,281.31642,509.79463,208.21736,509.79463ZM297.597,382.45857a2.56473,2.56473,0,0,0-.8842-.70259l-.33133-.17453a2.58638,2.58638,0,0,0-.29005-.117,3.39884,3.39884,0,0,0-.66292-.15358,9.35574,9.35574,0,0,0-1.60994-.0476c-.58782.0179-1.20732.05891-1.89479.03865a6.68038,6.68038,0,0,1-2.137-.41854,4.53265,4.53265,0,0,1-1.964-1.3677,3.02413,3.02413,0,0,1-.5436-2.64765,4.33272,4.33272,0,0,1,1.27765-1.97691,10.34364,10.34364,0,0,1,1.6101-1.19408A21.64869,21.64869,0,0,1,293.543,371.996c2.29859-.941,4.61663-1.62613,6.79841-2.55685a14.65358,14.65358,0,0,0,5.76933-3.89212,7.13614,7.13614,0,0,0,1.60259-6.61251,6.28239,6.28239,0,0,1,.428,3.61611,8.89652,8.89652,0,0,1-1.43449,3.44158,15.26922,15.26922,0,0,1-5.809,4.642c-2.21159,1.1171-4.51124,1.94-6.63867,2.97035a23.12917,23.12917,0,0,0-3.027,1.71543,8.45705,8.45705,0,0,0-1.26505,1.01692,2.32745,2.32745,0,0,0-.65381,1.04576.86329.86329,0,0,0,.20713.77066,2.424,2.424,0,0,0,1.03166.60862,4.80257,4.80257,0,0,0,1.42179.229c.52376.00295,1.11367-.04722,1.73516-.08405a11.60908,11.60908,0,0,1,2.01765.01619,5.828,5.828,0,0,1,1.10965.2283,5.02886,5.02886,0,0,1,.55743.20788c.17405.0774.31873.15567.47922.23457a4.7088,4.7088,0,0,1,1.877,1.59182,2.62324,2.62324,0,0,1,.3465,1.70626,3.09845,3.09845,0,0,1-.617,1.38791,6.564,6.564,0,0,1-1.68965,1.49249,14.80779,14.80779,0,0,1-1.75311.94927,20.85144,20.85144,0,0,1-3.66452,1.29909c-.16966.03817-.33213.07735-.52.1093a5.3,5.3,0,0,1-.55978.07242l-.92563.07724-1.83883.122-3.61167.206a26.00939,26.00939,0,0,0-6.78919,1.13168,13.08725,13.08725,0,0,0-4.297,2.43324,12.78457,12.78457,0,0,0-1.17821,1.10472,2.77189,2.77189,0,0,0-.93716,2.16886c.07531.555.84983,1.19713,1.85464,1.70669a41.936,41.936,0,0,0,6.51447,2.64369,41.42039,41.42039,0,0,0,28.012-1.63728,38.60061,38.60061,0,0,1-28.57711,3.66645,38.14212,38.14212,0,0,1-7.026-2.56709,8.81007,8.81007,0,0,1-1.777-1.11319,3.8707,3.8707,0,0,1-1.16755-4.65989,7.02922,7.02922,0,0,1,1.16653-1.8756,15.66281,15.66281,0,0,1,3.01-2.60584,17.03979,17.03979,0,0,1,3.5318-1.75445,28.328,28.328,0,0,1,7.48583-1.334l3.644-.17636,1.7871-.103.88516-.066a2.64144,2.64144,0,0,0,.34087-.03972c.111-.01694.24331-.04765.36928-.07446a18.35943,18.35943,0,0,0,3.18246-1.10049,7.65977,7.65977,0,0,0,2.50341-1.62334.91034.91034,0,0,0,.14838-.23763C297.6,382.49106,297.61638,382.52665,297.597,382.45857Zm-3.83273-52.76691c-.421-.52264-.88832-.71738-2.00854-.74279a8.59908,8.59908,0,0,1-1.9589-.22449,3.64243,3.64243,0,0,1-2.05764-1.44,3.92211,3.92211,0,0,1-.61923-2.33772,4.63018,4.63018,0,0,1,.65992-2.14753,4.57611,4.57611,0,0,1,.70344-.887,6.71673,6.71673,0,0,1,.78224-.64678,9.31119,9.31119,0,0,1,1.67078-.9266c1.12488-.486,2.23281-.797,3.27032-1.1431l1.52808-.559c.4953-.22,1.00684-.40793,1.49844-.64a27.80866,27.80866,0,0,0,5.57335-3.41119,25.20947,25.20947,0,0,0,7.97271-10.45,23.6676,23.6676,0,0,1-7.08423,11.4947,28.83541,28.83541,0,0,1-5.64212,4.00469c-.50838.27912-1.034.52655-1.55542.78342l-1.60645.6775c-1.07513.41468-2.119.77-3.03735,1.22383a7.08078,7.08078,0,0,0-1.2375.76353,4.42506,4.42506,0,0,0-.494.45049,2.231,2.231,0,0,0-.31583.44813,2.438,2.438,0,0,0-.28319,1.05267,1.49463,1.49463,0,0,0,.24025.86243,1.15311,1.15311,0,0,0,.67257.40707,6.68375,6.68375,0,0,0,1.38754.09311,6.32644,6.32644,0,0,1,2.05774.28078,4.29343,4.29343,0,0,1,1.96094,1.367,4.91815,4.91815,0,0,1,.864,4.3827,5.43027,5.43027,0,0,1-.44336,1.07953l-.32162.49744-.33883.41886a7.13179,7.13179,0,0,1-1.59289,1.3297,15.02907,15.02907,0,0,1-7.12459,1.80929,24.48228,24.48228,0,0,0-6.29529.724,6.49116,6.49116,0,0,0-2.39084,1.365,2.64374,2.64374,0,0,0-.93292,1.95654,3.52132,3.52132,0,0,0,.99928,2.17321,6.75046,6.75046,0,0,0,2.32683,1.61015,33.87023,33.87023,0,0,0,6.24136,1.67882,61.43355,61.43355,0,0,0,13.14612,1.73441c4.3641-.0453,8.89089-.95844,12.55755-3.62308a16.52563,16.52563,0,0,1-5.78385,3.53319,26.02121,26.02121,0,0,1-6.70648,1.46714,55.50249,55.50249,0,0,1-13.61441-.95726,30.85008,30.85008,0,0,1-6.811-1.57236,9.27,9.27,0,0,1-3.2255-2.12239,6.09872,6.09872,0,0,1-1.78662-3.81043,5.22907,5.22907,0,0,1,1.70626-4.01793,9.16248,9.16248,0,0,1,3.38181-2.00977,26.187,26.187,0,0,1,7.035-.93153,19.63328,19.63328,0,0,0,3.12971-.34462,8.70322,8.70322,0,0,0,2.70748-.99457,4.413,4.413,0,0,0,.99725-.80829l.19346-.23409c.04454-.07194.08882-.14066.13819-.20847a2.82062,2.82062,0,0,0,.20032-.47407A2.35909,2.35909,0,0,0,293.76425,329.69166ZM305.911,271.37514a.832.832,0,0,0-.5622-.208c-.311-.0246-.75785.04465-1.3112.076a3.47452,3.47452,0,0,1-2.04166-.41254,2.58829,2.58829,0,0,1-1.20909-2.0139,3.32819,3.32819,0,0,1,.47831-2.01373,4.56662,4.56662,0,0,1,1.29309-1.30123c.9438-.63419,1.79718-.98036,2.59244-1.44119a22.51422,22.51422,0,0,0,4.469-3.32392,22.99073,22.99073,0,0,0,6.0315-9.51832,21.25519,21.25519,0,0,1-5.08132,10.43206,23.56279,23.56279,0,0,1-4.496,3.90954c-.8307.57051-1.7433,1.02319-2.3695,1.50868a2.63768,2.63768,0,0,0-.70017.76166,1.28417,1.28417,0,0,0-.13144.7593c.0446.23988.13256.32763.22851.36585a1.50536,1.50536,0,0,0,.76235.03924,11.20916,11.20916,0,0,1,1.56609-.13755,3.0445,3.0445,0,0,1,3.07434,2.78568,5.00761,5.00761,0,0,1-.14505,1.89565,6.06177,6.06177,0,0,1-.71813,1.66686,5.906,5.906,0,0,1-.57077.74933c-.20546.22364-.38568.39865-.58814.58975a15.91884,15.91884,0,0,1-5.42739,3.0715c-1.89543.69449-3.78856,1.16009-5.56284,1.734a17.75239,17.75239,0,0,0-4.88379,2.17707,7.38662,7.38662,0,0,0-2.90361,3.80646,4.13434,4.13434,0,0,0,1.0226,4.17032,12.35288,12.35288,0,0,0,4.41594,2.79394,28.05549,28.05549,0,0,0,21.97768-.48994,26.34407,26.34407,0,0,1-22.73231,2.4565,13.4969,13.4969,0,0,1-5.381-3.13695,6.97409,6.97409,0,0,1-1.76083-2.96188,6.59547,6.59547,0,0,1-.00563-3.51271,9.75845,9.75845,0,0,1,3.85438-5.28641,20.148,20.148,0,0,1,5.5867-2.58965c1.89634-.58728,3.754-1.02528,5.48222-1.64038a14.13482,14.13482,0,0,0,4.61416-2.48727c.152-.13358.32189-.29053.44582-.41688a3.43523,3.43523,0,0,0,.3176-.38659,3.59794,3.59794,0,0,0,.4522-.96058A1.66757,1.66757,0,0,0,305.911,271.37514Zm12.85066-26.67868a.534.534,0,0,0,.11611.16767c.11085.09252.09005.02493.05918.01115-.02664-.01056.00767.0186.21168-.22589.19-.2179.41511-.567.69948-.96771a4.28335,4.28335,0,0,1,1.35639-1.30922,2.69539,2.69539,0,0,1,2.46229-.09917,4.25983,4.25983,0,0,1,.89615.57828c-.2848-.63236-.555-1.26489-.85278-1.8979l-1.90294-3.97767a20.43033,20.43033,0,0,1,1.65829,1.51157c.5079.54381,1.03182,1.08462,1.493,1.67164a28.68186,28.68186,0,0,1,2.57663,3.68108.98537.98537,0,0,1,.09531.78583l-.04154.13653a1.93683,1.93683,0,0,1-1.17752,1.16856,2.6529,2.6529,0,0,1-1.2175.11857,3.36217,3.36217,0,0,1-1.0122-.29611,3.41411,3.41411,0,0,1-.47279-.27885l-.31455-.23071a3.656,3.656,0,0,0-.79066-.54676c-.11562-.02208-.02573-.00338-.08148.01378a2.53372,2.53372,0,0,0-.49793.55437c-.236.31272-.48715.712-.882,1.15827-.10453.11123-.22626.22664-.344.33652a4.01819,4.01819,0,0,1-.45515.32929,2.59536,2.59536,0,0,1-1.22849.38059,2.36857,2.36857,0,0,1-1.30922-.28158,2.70469,2.70469,0,0,1-.91346-.80593,2.936,2.936,0,0,1-.47541-1.00936,3.03086,3.03086,0,0,1-.06877-1.07567,4.48728,4.48728,0,0,1,.54017-1.63036c.47005-.8478.91-1.54813,1.40233-2.31188a47.19043,47.19043,0,0,1,3.0938-4.38753,47.18893,47.18893,0,0,1-1.57981,5.1309c-.27981.82593-.64078,1.70155-.91925,2.45457a2.66179,2.66179,0,0,0-.18048.90666A.49252.49252,0,0,0,318.76169,244.69647Zm16.69464,28.18843a3.59794,3.59794,0,0,0,.4522.96058,3.43524,3.43524,0,0,0,.3176.38659c.12393.12634.2938.2833.44582.41688a14.13482,14.13482,0,0,0,4.61416,2.48727c1.72819.6151,3.58588,1.0531,5.48222,1.64038a20.148,20.148,0,0,1,5.5867,2.58965,9.75845,9.75845,0,0,1,3.85438,5.28641,6.59547,6.59547,0,0,1-.00563,3.51271,6.97409,6.97409,0,0,1-1.76083,2.96188,13.4969,13.4969,0,0,1-5.381,3.13695,26.34407,26.34407,0,0,1-22.73231-2.4565,28.05549,28.05549,0,0,0,21.97768.48994,12.35288,12.35288,0,0,0,4.41594-2.79394,4.13434,4.13434,0,0,0,1.0226-4.17032,7.38662,7.38662,0,0,0-2.90361-3.80646,17.75239,17.75239,0,0,0-4.88379-2.17707c-1.77429-.57388-3.66741-1.03949-5.56284-1.734a15.91884,15.91884,0,0,1-5.42739-3.0715c-.20246-.1911-.38268-.36611-.58814-.58975a5.906,5.906,0,0,1-.57077-.74933,6.06178,6.06178,0,0,1-.71813-1.66686,5.00762,5.00762,0,0,1-.14505-1.89565,3.0445,3.0445,0,0,1,3.07434-2.78568,11.20916,11.20916,0,0,1,1.56609.13755,1.50536,1.50536,0,0,0,.76235-.03924c.096-.03822.184-.126.22851-.36585a1.28417,1.28417,0,0,0-.13144-.7593,2.63768,2.63768,0,0,0-.70017-.76166c-.6262-.48549-1.53881-.93817-2.3695-1.50868a23.56279,23.56279,0,0,1-4.496-3.90954,21.25519,21.25519,0,0,1-5.08132-10.43206,22.99073,22.99073,0,0,0,6.0315,9.51832,22.51422,22.51422,0,0,0,4.469,3.32392c.79527.46083,1.64864.807,2.59244,1.44119a4.56662,4.56662,0,0,1,1.29309,1.30123,3.32819,3.32819,0,0,1,.47831,2.01373,2.58829,2.58829,0,0,1-1.20909,2.0139,3.47452,3.47452,0,0,1-2.04166.41254c-.55335-.03136-1.00025-.10061-1.3112-.076a.832.832,0,0,0-.5622.208A1.66757,1.66757,0,0,0,335.45634,272.8849Zm12.44139,58.913a3.55814,3.55814,0,0,0,1.69,1.68981,9.51389,9.51389,0,0,0,2.824.94563,23.06166,23.06166,0,0,0,3.21907.31658,25.79806,25.79806,0,0,1,7.18082.96937,9.33454,9.33454,0,0,1,3.44222,2.06294,5.75755,5.75755,0,0,1,1.27373,1.8392,4.69587,4.69587,0,0,1,.35277,2.34292,6.19085,6.19085,0,0,1-2.0139,3.77655,9.84856,9.84856,0,0,1-3.34863,2.02456,35.05518,35.05518,0,0,1-6.94148,1.50675,57.75429,57.75429,0,0,1-13.88414.9162A27.382,27.382,0,0,1,334.852,348.716a17.12738,17.12738,0,0,1-5.93871-3.53469,18.29589,18.29589,0,0,0,6.17366,2.781,27.73182,27.73182,0,0,0,6.67437.82947,64.11231,64.11231,0,0,0,13.42025-1.70653,39.51511,39.51511,0,0,0,6.4159-1.639,7.3013,7.3013,0,0,0,2.45763-1.5648,3.58877,3.58877,0,0,0,1.14037-2.16811,2.477,2.477,0,0,0-.86769-1.96919,6.64025,6.64025,0,0,0-2.43356-1.39772,23.94559,23.94559,0,0,0-6.40544-.754,16.43155,16.43155,0,0,1-7.2578-1.6786,6.19791,6.19791,0,0,1-2.9227-3.20047,4.89242,4.89242,0,0,1,.6686-4.52834,4.35765,4.35765,0,0,1,1.944-1.46258,6.17353,6.17353,0,0,1,2.12839-.33867,9.875,9.875,0,0,0,1.49667-.07408,1.22687,1.22687,0,0,0,.76294-.3786,1.72482,1.72482,0,0,0,.03913-1.86273,2.05941,2.05941,0,0,0-.30876-.45772,4.01668,4.01668,0,0,0-.49042-.45563,7.14741,7.14741,0,0,0-1.25964-.77533c-.93212-.46244-1.99915-.81628-3.09466-1.22565l-1.64483-.66635c-.53781-.24754-1.06977-.50763-1.59793-.77163a29.73654,29.73654,0,0,1-5.82105-3.98212A23.72484,23.72484,0,0,1,330.721,304.1355a25.204,25.204,0,0,0,8.29074,10.52222,28.70288,28.70288,0,0,0,5.745,3.38412l1.54015.628,1.56931.54928a35.06131,35.06131,0,0,1,3.35088,1.15061,9.39727,9.39727,0,0,1,1.70712.946,6.32682,6.32682,0,0,1,.80057.67471,4.53123,4.53123,0,0,1,1.309,3.15657,3.686,3.686,0,0,1-.80936,2.37293,3.73643,3.73643,0,0,1-2.16758,1.27658,11.46948,11.46948,0,0,1-1.92588.17469,3.66146,3.66146,0,0,0-1.24645.20782,1.68144,1.68144,0,0,0-.74515.604A2.28583,2.28583,0,0,0,347.89773,331.79792Zm-15.62428,46.72828a2.638,2.638,0,0,0-.82995-.92847c-.77886-.65477-2.22724-1.12718-3.48425-2.33707a4.12226,4.12226,0,0,1-.805-1.10477,3.11037,3.11037,0,0,1-.3034-1.32927,2.536,2.536,0,0,1,.32886-1.27834,1.52032,1.52032,0,0,1,.965-.72612,1.62752,1.62752,0,0,0,.00021,1.75311,2.21956,2.21956,0,0,0,.48619.61173,3.98092,3.98092,0,0,0,.64266.41661,22.65965,22.65965,0,0,1,3.81675,1.85662,4.34277,4.34277,0,0,1,1.65266,2.39116,3.19566,3.19566,0,0,1-.05789,1.65025,3.42344,3.42344,0,0,1-.736,1.29582A4.20945,4.20945,0,0,1,331.7424,382.08a6.94052,6.94052,0,0,1-2.27125.11621c1.19547-.92016,2.40161-1.70385,2.74891-2.62948A1.20952,1.20952,0,0,0,332.27345,378.52619Zm-19.52959-6.97547a2.20754,2.20754,0,0,1,.89138,1.36336,3.68335,3.68335,0,0,1-.04535,1.73768,6.86907,6.86907,0,0,1-1.82446,2.83913,18.88174,18.88174,0,0,0-1.89409,2.03764,2.42548,2.42548,0,0,0-.5883,1.74277,2.19577,2.19577,0,0,0,1.08253,1.3788,3.94828,3.94828,0,0,0,2.1478.60653c1.66526.00048,3.44571-.91368,5.24562-1.92931a9.30124,9.30124,0,0,1-1.96329,2.46626,6.958,6.958,0,0,1-2.99136,1.56545,5.52531,5.52531,0,0,1-3.66543-.46164,5.15259,5.15259,0,0,1-1.57472-1.21064,3.94649,3.94649,0,0,1-.69476-4.13586,5.69494,5.69494,0,0,1,1.01456-1.62666,12.59842,12.59842,0,0,1,2.50893-2.04263,7.145,7.145,0,0,0,1.98243-1.74239A2.64164,2.64164,0,0,0,312.74386,371.55073Zm.89878-55.6099a2.15953,2.15953,0,0,1,.94439,1.405,3.64486,3.64486,0,0,1-.09365,1.81042,6.50916,6.50916,0,0,1-2.10926,2.83661,23.42368,23.42368,0,0,0-2.20746,1.93167,2.57538,2.57538,0,0,0-.83917,1.77579,1.8837,1.8837,0,0,0,1.00207,1.396,3.668,3.668,0,0,0,2.19427.56193c1.69678-.11621,3.40872-1.31737,4.98355-2.76848a8.07764,8.07764,0,0,1-1.57992,2.88994,6.36387,6.36387,0,0,1-2.96938,1.95606,5.35424,5.35424,0,0,1-3.86484-.39753,4.89217,4.89217,0,0,1-1.633-1.322,3.94052,3.94052,0,0,1-.82732-2.17133,4.15842,4.15842,0,0,1,.50849-2.18811,6.00486,6.00486,0,0,1,1.2219-1.54095,14.371,14.371,0,0,1,2.78177-1.84435,6.36112,6.36112,0,0,0,2.141-1.66665A2.52164,2.52164,0,0,0,313.64264,315.94083Zm4.43245-10.05222a8.12213,8.12213,0,0,0,3.67159,1.06055,8.22278,8.22278,0,0,0,3.73517-.82684,9.3285,9.3285,0,0,0,3.38149-2.70635,5.80232,5.80232,0,0,1-2.19878,4.46874,7.31472,7.31472,0,0,1-9.88235-.32211,5.78086,5.78086,0,0,1-1.88723-4.60805A9.14946,9.14946,0,0,0,318.07508,305.88861Zm-3.13861-19.902a5.42787,5.42787,0,0,1-3.20379,1.2479,5.238,5.238,0,0,1-3.1496-.89588,4.48671,4.48671,0,0,1-1.84269-2.44133,4.78859,4.78859,0,0,0,4.80515,1.82923,4.227,4.227,0,0,0,2.046-1.21289,3.48329,3.48329,0,0,0,.93421-1.97525,1.14963,1.14963,0,0,1,2.10733-.50077l.071.11064a6.38157,6.38157,0,0,0,4.17333,3.07868,3.48333,3.48333,0,0,0,2.20917-.48517,2.125,2.125,0,0,0,1.13431-1.53693l.01056-.11857a1.23252,1.23252,0,0,1,1.99208-.85755c.89347.7065,1.74958,1.39172,2.63388,1.98034a9.72975,9.72975,0,0,0,2.791,1.32241,5.85008,5.85008,0,0,0,3.02261-.01533,3.92566,3.92566,0,0,0,2.52131-1.90926,3.9235,3.9235,0,0,1-2.1278,2.83291,6.3985,6.3985,0,0,1-3.70156.77082,10.12434,10.12434,0,0,1-3.59151-1.0962,17.74333,17.74333,0,0,1-1.572-.88784c-.04937.08775-.09375.17979-.14875.26212a5.23757,5.23757,0,0,1-1.54374,1.5135,5.91293,5.91293,0,0,1-4.02013.88178,7.15114,7.15114,0,0,1-3.54423-1.66279,9.32412,9.32412,0,0,1-1.12209-1.16127A6.01426,6.01426,0,0,1,314.93647,285.98664Zm16.5133,34.87728a9.95167,9.95167,0,0,0,2.67692.46233,5.92047,5.92047,0,0,1,1.88519.54665,3.91455,3.91455,0,0,1,1.66729,1.62548,4.38953,4.38953,0,0,1-.15068,4.27233,5.32707,5.32707,0,0,1-3.14767,2.27993,7.31746,7.31746,0,0,1-3.49851.07349,11.472,11.472,0,0,1-3.0529-1.17178c2.15134-.05918,4.26585-.05248,5.806-.889a3.59569,3.59569,0,0,0,1.66215-1.54894,2.03636,2.03636,0,0,0-.00123-1.74958,1.24933,1.24933,0,0,0-.533-.54129,3.8618,3.8618,0,0,0-1.09668-.385c-.45569-.11251-.9913-.19817-1.56352-.36161a7.1926,7.1926,0,0,1-.889-.30651,5.30939,5.30939,0,0,1-.87851-.5087,4.785,4.785,0,0,1-1.8913-3.19414,3.721,3.721,0,0,1,1.01376-3.19972A3.91635,3.91635,0,0,0,331.44977,320.86391Zm-20.3909,19.63455a4.9993,4.9993,0,0,0,2.59212-.95442,4.36438,4.36438,0,0,0,1.54738-2.05983,1.18022,1.18022,0,0,1,2.0898-.31487l.07054.10083a5.58609,5.58609,0,0,0,4.158,2.27114,5.64859,5.64859,0,0,0,4.38656-1.78088l.08582-.095a1.20555,1.20555,0,0,1,1.70267-.08625,1.24576,1.24576,0,0,1,.22364.27113,5.03,5.03,0,0,0,2.20976,1.86911,5.672,5.672,0,0,0,3.01548.50264,6.01626,6.01626,0,0,0,4.92072-4.12653,5.49415,5.49415,0,0,1-1.23573,3.56841,6.50008,6.50008,0,0,1-3.32976,2.24734,7.15294,7.15294,0,0,1-6.624-1.54384,7.96029,7.96029,0,0,1-1.92266,1.21981,7.84015,7.84015,0,0,1-3.59258.64014,7.6903,7.6903,0,0,1-4.93943-2.233,6.43636,6.43636,0,0,1-5.42578,2.1166,5.84782,5.84782,0,0,1-3.35061-1.57156,4.9817,4.9817,0,0,1-1.59332-3.08056A5.385,5.385,0,0,0,311.05888,340.49846Zm6.22131,22.88026A5.62221,5.62221,0,0,1,314.606,359.068a8.31422,8.31422,0,0,0,3.6404,2.42916,7.32618,7.32618,0,0,0,3.82512.29745,6.951,6.951,0,0,0,3.3363-1.80806,7.73465,7.73465,0,0,0,2.19213-3.75162,5.41894,5.41894,0,0,1-.51642,5.0542,6.9296,6.9296,0,0,1-4.46649,3.14821A7.13382,7.13382,0,0,1,317.28019,363.37872Zm3.48044-104.27038a71.13137,71.13137,0,0,1-3.68741,7.91166,6.29123,6.29123,0,0,0-.67954,1.67292.89555.89555,0,0,0,.23677.89942.40541.40541,0,0,0,.22251.12554c.02294-.01635-.02262.01458.14988-.07837.16328-.08754.44148-.30828.88387-.5674a3.22007,3.22007,0,0,1,1.77933-.43269,3.62681,3.62681,0,0,1,1.59777.529,9.17878,9.17878,0,0,1,1.03289.73014,6.69178,6.69178,0,0,0,1.42136.99993,1.69916,1.69916,0,0,0,1.21681-.01206,2.55352,2.55352,0,0,0,1.15945-.84389,4.05578,4.05578,0,0,0,.33084-3.40218,18.90745,18.90745,0,0,0-1.82366-3.82372,11.78677,11.78677,0,0,1,3.04363,3.30575,6.35066,6.35066,0,0,1,.74466,2.342,4.777,4.777,0,0,1-.46619,2.62235,4.40326,4.40326,0,0,1-2.03271,1.97921,4.05416,4.05416,0,0,1-3.0083.25263,7.96519,7.96519,0,0,1-2.21861-1.31254,2.83813,2.83813,0,0,0-1.17537-.674.63189.63189,0,0,0-.1168.01056.51849.51849,0,0,0-.176.07086c-.18826.09354-.476.3302-.95211.5808a2.85333,2.85333,0,0,1-1.939.27917,2.938,2.938,0,0,1-1.59-.99189,3.33229,3.33229,0,0,1-.73485-1.55532,3.48349,3.48349,0,0,1,.1108-1.60468,7.08512,7.08512,0,0,1,1.20094-2.21A71.12817,71.12817,0,0,1,320.76063,259.10834Zm-13.275,133.24416a4.28949,4.28949,0,0,1-.03843-4.07051,4.213,4.213,0,0,0,.87712,3.54552,4.08273,4.08273,0,0,0,2.8937,1.59262,3.96563,3.96563,0,0,0,2.88024-1.13072,3.59179,3.59179,0,0,0,1.11523-2.0988,4.26235,4.26235,0,0,1,.00391-.5957l.00557-.07258a1.2369,1.2369,0,0,1,2.47.07349c.00075.04165-.00579.08142-.00611.12286h.00606a2.58771,2.58771,0,0,0,1.00416,1.87458,3.16168,3.16168,0,0,0,2.14442.7564,3.43788,3.43788,0,0,0,2.14533-.95554,3.67481,3.67481,0,0,0,1.14514-2.1017l.01978-.13546a1.22569,1.22569,0,0,1,2.39443-.14913,4.73818,4.73818,0,0,0,1.87463,2.46336,5.43737,5.43737,0,0,0,3.14842.98776,5.639,5.639,0,0,0,3.26871-1.18786A5.70727,5.70727,0,0,0,336.927,388.154a5.44312,5.44312,0,0,1-1.40153,3.8338,6.40635,6.40635,0,0,1-3.78438,2.1486,6.89513,6.89513,0,0,1-4.45153-.80776,6.73847,6.73847,0,0,1-1.55923-1.16374,6.32791,6.32791,0,0,1-.90339,1.13265,5.97246,5.97246,0,0,1-3.84216,1.7469,5.69325,5.69325,0,0,1-4.02034-1.45368,5.41721,5.41721,0,0,1-.52821-.54124,5.90042,5.90042,0,0,1-5.45794,2.03378A5.10117,5.10117,0,0,1,307.48559,392.3525Zm53.88085,7.44407a41.936,41.936,0,0,0,6.51447-2.64369c1.0048-.50956,1.77933-1.15168,1.85464-1.70669a2.77189,2.77189,0,0,0-.93716-2.16886,12.78457,12.78457,0,0,0-1.17821-1.10472,13.08725,13.08725,0,0,0-4.297-2.43324,26.00939,26.00939,0,0,0-6.78919-1.13168l-3.61167-.206-1.83883-.122-.92563-.07724a5.3,5.3,0,0,1-.55978-.07242c-.18788-.03195-.35035-.07113-.52-.1093a20.85144,20.85144,0,0,1-3.66452-1.29909,14.812,14.812,0,0,1-1.75311-.94927,6.564,6.564,0,0,1-1.68965-1.49249,3.09845,3.09845,0,0,1-.617-1.38791,2.62324,2.62324,0,0,1,.3465-1.70626,4.7088,4.7088,0,0,1,1.877-1.59182c.16049-.0789.30517-.15717.47922-.23457a5.02885,5.02885,0,0,1,.55743-.20788,5.828,5.828,0,0,1,1.10965-.2283,11.6091,11.6091,0,0,1,2.01765-.01619c.62148.03683,1.21145.087,1.73516.08405a4.80257,4.80257,0,0,0,1.42179-.229,2.424,2.424,0,0,0,1.03166-.60862.86329.86329,0,0,0,.20713-.77066,2.327,2.327,0,0,0-.65381-1.04576,8.45705,8.45705,0,0,0-1.26505-1.01692,23.12917,23.12917,0,0,0-3.027-1.71543c-2.12743-1.03032-4.42709-1.85325-6.63867-2.97035a15.26922,15.26922,0,0,1-5.809-4.642,8.89652,8.89652,0,0,1-1.43449-3.44158,6.28239,6.28239,0,0,1,.428-3.61611,7.13614,7.13614,0,0,0,1.60259,6.61251,14.65358,14.65358,0,0,0,5.76933,3.89212c2.18178.93072,4.49983,1.61589,6.79841,2.55685a21.6487,21.6487,0,0,1,3.37618,1.70106,10.34364,10.34364,0,0,1,1.6101,1.19408,4.33272,4.33272,0,0,1,1.27765,1.97691,3.02413,3.02413,0,0,1-.5436,2.64765,4.53265,4.53265,0,0,1-1.964,1.3677,6.68009,6.68009,0,0,1-2.137.41854c-.68747.02026-1.307-.02074-1.89479-.03865a9.35574,9.35574,0,0,0-1.60994.0476,3.39884,3.39884,0,0,0-.66292.15358,2.58138,2.58138,0,0,0-.29.117l-.33138.17453a2.56473,2.56473,0,0,0-.8842.70259c-.0194.06808-.003.03248-.00611.036a.91034.91034,0,0,0,.14838.23763,7.65977,7.65977,0,0,0,2.50341,1.62334,18.35943,18.35943,0,0,0,3.18246,1.10049c.126.0268.25826.05752.36928.07446a2.64144,2.64144,0,0,0,.34087.03972l.88516.066,1.7871.103,3.644.17636a28.328,28.328,0,0,1,7.48583,1.334,17.03979,17.03979,0,0,1,3.5318,1.75445,15.6628,15.6628,0,0,1,3.01,2.60584,7.02921,7.02921,0,0,1,1.16653,1.8756,3.8707,3.8707,0,0,1-1.16754,4.65989,8.81007,8.81007,0,0,1-1.777,1.11319,38.14212,38.14212,0,0,1-7.026,2.56709,38.60061,38.60061,0,0,1-28.57711-3.66645A41.42039,41.42039,0,0,0,361.36645,399.79657Z" fill="#4d5159"/><path d="M348.02215,179.30087a197.71426,197.71426,0,1,0,57.90929,139.80522A196.41913,196.41913,0,0,0,348.02215,179.30087ZM208.21736,128.41754c105.14584,0,190.68811,85.5427,190.68811,190.68854a189.80766,189.80766,0,0,1-11.2954,64.66364c-4.33642,2.31737-7.35614,6.04925-12.09472,7.96619a39.18907,39.18907,0,0,1-14.4393,2.59776c-13.58848.07075-26.79081-3.78815-40.3248-4.383-6.134-.26958-10.6685,1.069-16.39465,2.27935-6.01841,1.27214-12.91295-.827-18.52131-3.02344-6.50506-2.54758-12.86373-6.45169-19.84231-6.127-6.11086.28434-11.52679,3.7786-16.81889,6.84735a150.1308,150.1308,0,0,1-41.55338,16.39871c-4.58056,1.0545-9.28423,1.89713-13.96335,1.45061-5.61365-.5357-10.86557-2.88773-16.2627-4.52206-6.95526-2.10616-14.33221-3.07154-20.79341-6.39786-4.56406-2.34965-8.48173-5.78746-12.94231-8.32808s-9.88583-4.15752-14.72169-2.43532c-2.95272,1.05156-5.34322,3.21956-7.78395,5.18608a74.5431,74.5431,0,0,1-65.33451,13.6221c-6.06992-1.661-13.22725-1.446-19.02131-4.49376-5.88657-3.09707-6.94353-10.24439-8.30723-16.08761-1.78777-7.66027-4.41045-15.08263-6.1613-22.76345A190.58073,190.58073,0,0,1,208.21736,128.41754Z" fill="#909296"/><path d="M347.71409,179.30089a197.7142,197.7142,0,1,0,57.90929,139.80522A196.41913,196.41913,0,0,0,347.71409,179.30089ZM164.62829,351.14056c-1.08961,1.97241-2.51166,4.27737-3.87223,6.53195-1.36347,2.252-2.64583,4.46745-3.53989,6.19124a52.67508,52.67508,0,0,0-3.85594,9.84209,69.70909,69.70909,0,0,1-20.27774-3.3869,1.1143,1.1143,0,0,0-.14591-.22921c-.85884-.90848,1.60565-3.34466,4.09431-5.42085,9.87334-4.11013,20.049-8.44,28.53407-15.09516C165.14594,350.25031,164.8136,350.80918,164.62829,351.14056ZM215.705,454.53634c-13.21452,1.87227-26.33685-1.92524-39.47772-4.79036,3.50907-.96,6.9447-2.1909,10.37454-3.41188,1.47754-.29922,3.019-.58664,4.64627-.96819,2.80788-.65665,5.19384-1.25165,7.30036-1.88589,1.80484.15652,3.62083.23478,5.42846.218,2.38317-.00836,4.75514-.176,7.07962-.35754a81.34092,81.34092,0,0,0,8.09375-1.03659c1.32155-.24583,2.6402-.51127,3.9617-.83815,1.30472-.31851,2.61506-.67048,3.93935-1.09513.00557-.00279.00836-.00279.0335-.01115l.02519-.00847c1.29073-.49176,2.67086-1.06168,4.03707-1.73494a18.81319,18.81319,0,0,0,4.00919.40782c1.48911-.07537,3.35817.17325,4.64617-.04192a1.521,1.521,0,0,1,.19276.014,18.12273,18.12273,0,0,0,4.43668-.01115c.19555-.02519.53357-.028.80459-.03077,1.57552-.008,3.118.03409,4.70717-.02712C239.32206,446.07809,228.25389,452.7582,215.705,454.53634Zm-66.8254-144.30569c-.39254-1.95339,2.107-4.05547,3.2978-5.30692a62.5427,62.5427,0,0,1,5.31853-4.89877c3.102-2.58374,6.28049-5.45117,9.78415-7.48562,3.06617-1.78042,5.764-4.02974,8.7124-6.06517a1.14715,1.14715,0,0,1,.63612-.26711c.49254.00685.75468.65794.57946,1.11831a2.53914,2.53914,0,0,1-1.01208,1.045c-1.04116.74191-1.44206,1.73169-2.63839,2.44316-1.22479.7284-2.5304,1.31237-3.73383,2.079a87.96219,87.96219,0,0,0-9.78835,7.23463c-3.406,2.78671-5.98937,6.28879-9.1479,9.30024C150.3335,309.95561,149.586,310.52525,148.87956,310.23065Zm41.19371,16.41441a10.7727,10.7727,0,0,0,6.44393.28271,9.81315,9.81315,0,0,0,2.95068-1.32712c.496-.33454,1.75531-1.86649,2.38473-1.77086,1.86161.28281-1.6592,4.1834-2.28561,4.6638a9.61178,9.61178,0,0,1-5.58772,1.96211,12.25955,12.25955,0,0,1-9.02672-4.096,16.97741,16.97741,0,0,1-3.28463-5.35518,12.47355,12.47355,0,0,1-.86817-3.7728c.05666-.46233.32688-.6046.98363-.06229a3.2647,3.2647,0,0,1,.83027,1.553A12.82889,12.82889,0,0,0,190.07327,326.64506Zm-7.2162-22.1736a2.60865,2.60865,0,1,1,2.51793,2.69627A2.60857,2.60857,0,0,1,182.85707,304.47146Zm27.46478,6.34412a8.64156,8.64156,0,0,1-3.1964,1.12332,3.95089,3.95089,0,0,1-3.15673-.9691,3.81281,3.81281,0,0,1-.98358-3.166c.43993-3.61177,5.0394-6.19532,7.87253-7.81694,3.607-2.0646,7.29414-3.98373,10.9608-5.939,3.57479-1.90626,7.038-4.132,10.73175-5.79736.65107-.29353,1.563-.51047,1.95836.08427.37346.56182-.09847,1.288-.55174,1.78769a140.189,140.189,0,0,1-11.58057,11.19092C218.59051,304.62761,214.77445,308.40679,210.32185,310.81558Zm1.96555,45.173c.30238.28946.59951.5861.88639.88961.01485.025.03072.04814.04513.07354a4.07227,4.07227,0,0,1,.24583.51964c.02519.03077.04749.06422.07269.095.1257.15931.2514.31573.37158.47214.12849.15931.25424.31862.38273.47225a5.42361,5.42361,0,0,1,.63526.94225,3.35145,3.35145,0,0,1-.7088,3.504c-2.1195,2.55819-4.39224,1.24211-6.64838.14173a5.25507,5.25507,0,0,1-.408-.41125c-.38831-.43859-.77114-.866-1.13152-1.33538a4.1063,4.1063,0,0,1,3.63552-6.86772C210.85939,354.652,211.42309,355.371,212.2874,355.9886Zm-11.80324-56.796a2.60865,2.60865,0,1,1,2.69622-2.518A2.60865,2.60865,0,0,1,200.48416,299.19256Zm32.077,88.93626a5.14992,5.14992,0,0,1-2.64192,3.07665,3.2525,3.2525,0,0,1-2.23244.23779c-2.07656-.60283-2.86-3.03987-3.02149-4.93252a1.3005,1.3005,0,0,0-.05033-.30168A6.0225,6.0225,0,0,1,224.56,383.84a3.86785,3.86785,0,0,1,.18188-1.09824,3.80469,3.80469,0,0,1,.65836-1.23278,3.94111,3.94111,0,0,1,5.786-.23017,5.96854,5.96854,0,0,1,1.43122,2.73551A7.35108,7.35108,0,0,1,232.56117,388.12881Zm1.18743,28.18457a6.15481,6.15481,0,0,1,.549,2.41292,5.56466,5.56466,0,0,1-4.11865,5.77924,4.82337,4.82337,0,0,1-5.0691-2.36039,5.38948,5.38948,0,0,1-.48962-3.82806c.3324-1.43294,1.9984-2.89825,3.2321-3.64442a4.27729,4.27729,0,0,1,4.247-.30061A4.23243,4.23243,0,0,1,233.7486,416.31338Zm30.38222-22.38667c-1.16127,3.3556-2.05024,6.776-2.93208,10.21324a.915.915,0,0,0,.10517.74231c-.0059.02616-.01378.05-.01962.07622-.02192.09788-.0365.18558-.05762.28228q-1.11016,3.471-2.33123,6.90353c-.07681.0163-.15513.03431-.23178.05017a18.83189,18.83189,0,0,0-5.65408,2.05324c.0052-.0699.01-.1398.0163-.20991.05216-.58257.07939-1.16513.10458-1.74791a.99127.99127,0,0,0,.22342-.25783c3.231-5.63623,4.43137-14.171,3.59274-20.72517-.00166-.2023.00118-.40557-.003-.60722.84088-7.66781-1.80881-16.79354-4.765-23.115a56.68026,56.68026,0,0,0-9.45765-14.14766c6.88654,3.14054,14.27454,3.50655,21.682-.39474a117.19873,117.19873,0,0,0,13.66335-8.06325c-4.83571,14.43342-8.21093,29.37066-12.15408,44.11139A42.841,42.841,0,0,0,264.13082,393.92671ZM374.36056,412.059c-3.11663,2.05142-13.74284-2.0853-17.86487-2.6432a128.00813,128.00813,0,0,0-39.89433.9163c-9.66171,1.74941-18.23243,5.7459-27.69983,7.89692a56.93822,56.93822,0,0,0-6.67218,1.97176,6.32234,6.32234,0,0,0-.65381-4.92126,8.11745,8.11745,0,0,0-6.00567-3.61075,7.85149,7.85149,0,0,0-2.76328-.38884c-.12131-.01533-.24406-.03291-.36365-.04642-.38032-.04481-.75908-.07086-1.13651-.09284a21.22679,21.22679,0,0,1-.58616-6.28215,204.55753,204.55753,0,0,0,9.185-27.84076c2.55578-10.19952,4.8795-20.90313,4.90127-31.462a.52765.52765,0,0,0-.23012-.43274c.13224-.63263.24106-1.28869.36343-1.9337.11123-.59238.23956-1.18947.36922-1.78667a23.70193,23.70193,0,0,1,4.27346-3.124c1.97846-1.3922,3.823-3.16927,4.26043-5.65445.5965-3.38889-2.44584-6.61568-5.2982-5.62411.04567-.18584,7.83147-15.835,8.97811-17.57723a1.234,1.234,0,0,0,.18139-.17845c3.86578-4.68415,8.0487-9.09281,12.27969-13.44566,2.15835-2.22052,4.23743-4.61364,6.52521-6.6988,2.03128-1.85137,3.61126-4.29583,6.10568-5.47382a22.318,22.318,0,0,0,6.37913-5.17925,6.2357,6.2357,0,0,0,1.79387-2.66026c.24579-.93249.22637-2.3787-1.1454-2.08387a3.34037,3.34037,0,0,0-.99533.45931l-5.76843,3.47749a4.30722,4.30722,0,0,1,1.46151-2.432c.70927-.65354,1.52926-1.17557,2.26088-1.804.25523-.21923.52288-.53485.41265-.85273a.79267.79267,0,0,0-.68814-.41873c-2.09939-.291-5.02672,1.74163-6.84483,2.66617a29.33032,29.33032,0,0,0-2.9222,1.688c-.39318.26089-2.26814,2.04005-3.27637,2.76649.99928-1.12841,1.93617-5.01641,1.62773-5.92687-1.24881-3.68612-4.46756-.157-5.54751,2.43753q-.429.46716-.85643.93239c-.10356.11209-.20525.22047-.3087.33218a46.54115,46.54115,0,0,0,2.40274-10.886,1.56429,1.56429,0,0,0-2.31086-1.36636c-4.56694,2.8253-5.74306,7.6929-8.01731,12.01723a43.7342,43.7342,0,0,0-.20932-4.578,1.1844,1.1844,0,0,0-2.24643-.30436,8.47048,8.47048,0,0,0-.8857,4.70508c.00129.02123.01094.03474.01345.05489-.13321.22471-.254.45874-.39276.67921.31444-2.33059.52961-4.64263.68908-6.94732.86468-1.52.51781-3.76867.42492-5.418a3.815,3.815,0,0,0-.35261-1.42109l-.007-.04873c-.00842-.03356-.00557-.095-.02519-.109l-.04465-.06422c-.03516-.03763-.0722-.07789-.11546-.118a1.65042,1.65042,0,0,0-1.60029-.75292c-1.49453.14875-1.84944,1.83931-2.18795,3.02058a24.20311,24.20311,0,0,0-.89015,5.53438,1.05936,1.05936,0,0,0,.45687.93549q-.21782,1.0731-.42358,2.15595c-.406-1.55489-.81279-3.09626-1.05262-4.59176-.28029-1.74781-.2067-4.59122-2.20826-5.37234-3.20433-1.25052-3.699,2.89418-3.50178,6.908-.02734-.11643-.05173-.23618-.07966-.352-.081-.32688-.162-.651-.24309-.97505-.0922-.34087-.18156-.67889-.271-1.01424-.18156-.64539-.36038-1.26-.53357-1.83834,0,0-.028-.02509-.042-.03629-.00273.00836-.00836.03356-.01394.04749l-.05864.20954-.11455.41634c-.06829.2521-.133.5013-.19174.74847-.081-.19394-.15877-.37989-.224-.547-.75967-1.94812-2.18119-6.6696-5.19962-5.59517-1.4123.50275-1.82232,1.79471-1.76684,3.23676a3.04261,3.04261,0,0,0-3.0611,1.085.71415.71415,0,0,0-.1725.38745,22.4978,22.4978,0,0,0-6.44093-4.95755c-1.00673-.48018-2.41148.74209-1.82618,1.80189,1.85491,3.3586,3.83535,7.00254,6.53,9.806a64.49269,64.49269,0,0,1,3.2254,11.66055c.46378,2.44182.83536,4.90041,1.19574,7.35064q.26823,1.83968.53641,3.66827c.17046,1.21536.37158,2.453.60068,3.66l-.01115-.06985c.70682,3.38889,1.626,6.95944,2.16243,10.49643.1079.72349,2.89044,13.72445-.135,23.853a110.9467,110.9467,0,0,1-12.52679,8.61858c-5.36338,3.1466-12.85613,8.43655-19.129,4.66134-6.79938-4.09212-13.07553-7.79132-21.30109-6.65336-3.68714-3.3318-8.174-6.0961-13.039-6.03279-.22551-.064-.45622-.12811-.66731-.18493a29.89,29.89,0,0,0,2.57314-2.69043,41.61637,41.61637,0,0,0,3.294-4.5456c.63419-1.18738,1.25722-2.54522,1.84113-3.90858.26261-.69846.55877-1.383.77667-2.07029.11455-.34087.23746-.67332.34087-1.00577.09777-.3325.1956-.65659.28775-.96943a30.36175,30.36175,0,0,0,.989-4.825l.081-.60915c.02241-.20391.03634-.40508.05307-.609l.09783-1.21809a24.23144,24.23144,0,0,0,.00279-2.467,29.06433,29.06433,0,0,0-.89776-5.63312c1.2769-1.17869,2.53755-2.35342,3.78411-3.49073,4.55772-4.15826,9.73135-8.21168,12.31253-13.961a1.53869,1.53869,0,0,0-1.75386-1.98345q-1.24685.403-2.48448.84587c-.55148.17995-1.11324.37442-1.66912.59484-.199.07826-.38782.16263-.58241.24443a122.32458,122.32458,0,0,0-14.73671,6.96769c-.368-.48892-.73528-.95758-1.091-1.37853-.06148-.07263-.12854-.13969-.19-.21232.23468-.07826.5057-.204.81585-.34365.14805-.081.30447-.16767.46651-.257.081-.04755.1621-.095.24588-.14259.081-.05307.16194-.10887.24352-.165,7.1158-4.90282,4.98875-16.22229-2.6127-19.45889a12.84131,12.84131,0,0,0-3.61526-.908c-.78508-.081-.542-.11739-.70961-.17325a19.32886,19.32886,0,0,0-3.00342-.17325c-.32409.00557-.64812.02514-.97221.04755-.086.00595-2.7115-5.05736-3.08962-5.58091a20.373,20.373,0,0,0-4.80526-4.799c-4.30964-3.01232-9.53146-4.99979-14.41916-6.848-7.04992-2.66577-14.752-4.256-22.23894-2.66186a69.30963,69.30963,0,0,0-15.05941,5.53776,31.16642,31.16642,0,0,0-5.50946,3.26608c-.29337.21785-.68731.51122-1.084.80738-.40514.29059-.80459.60063-1.12316.84094a31.97985,31.97985,0,0,0-3.49786,2.9838,31.45749,31.45749,0,0,0-3.10114,3.50912,32.28893,32.28893,0,0,0-4.56238,8.20551,27.18945,27.18945,0,0,0-1.49753,10.64738c.29059,2.56194.78787,5.63516.79344,8.0491a18.21275,18.21275,0,0,1-.44421,4.42258,15.57112,15.57112,0,0,1-1.72658,4.0316c-.73759,1.30188-1.59809,2.57872-2.3189,3.96164-.1844.34365-.37437.68447-.54762,1.03091l-.50007,1.0561-.24867.52805-.22353.5392-.44416,1.0784a35.68246,35.68246,0,0,0-1.40249,4.59315c-.38841,1.54781-.6203,3.06764-.82984,4.36952a30.294,30.294,0,0,0-.19833,7.074,37.96068,37.96068,0,0,0,1.23771,6.79187c.09483.3243.18316.64764.282.97741a9.415,9.415,0,0,0-3.77167.58144,1.37806,1.37806,0,0,0-.67176.11,8.16621,8.16621,0,0,0-4.57016,4.741,1.95659,1.95659,0,0,0-.11166.36665,9.307,9.307,0,0,0,.233,9.237c3.26571,5.16012,7.905,3.08715,12.493,1.64832a1.93643,1.93643,0,0,0,.44186.0416c.43221-.01169.8635-.03077,1.29507-.0476a.60554.60554,0,0,0,.18113.15492c2.28535,1.25154,4.60548,1.79927,6.92047.16145a6.7579,6.7579,0,0,0,1.25948-1.16192c2.06777-.8255,3.33314-2.511,2.70549-5.996a11.55126,11.55126,0,0,0-1.96265-4.606c-.10094-.17062-.19689-.34478-.3101-.506a10.44188,10.44188,0,0,0-3.0537-3.14306,8.78007,8.78007,0,0,0-4.255-1.36063c.11455-.31567.22632-.6314.34087-.94707.09027-.2536.1926-.51342.28571-.76809a.96838.96838,0,0,0,.16944-.21865c3.54745-6.76689,6.24672-17.76334,15.56736-17.53435a11.449,11.449,0,0,0,.22942,1.17628,7.67267,7.67267,0,0,0,2.792,7.247c1.8444,1.51747,5.36928,2.63,7.747,1.53259a7.25837,7.25837,0,0,0,1.98291-.43934c.218-.07263.45542-.14811.67332-.2291.109-.05028.21232-.10061.3101-.14811l.24031.746c.08662.24867.19.48892.285.732a21.14753,21.14753,0,0,0,.95736,2.03384c1.82912,5.518,7.28262,10.03914,12.60692,11.9588a1.78432,1.78432,0,0,0,.7824.103c.57737.2997,1.16529.58032,1.76823.83188a15.46381,15.46381,0,0,0-1.66842,1.07926c-4.29983,1.4435-8.34478,3.68966-12.46155,5.57351q-7.39186,3.38251-14.74352,6.84146-7.44638,3.51582-14.91837,6.96968c-3.198,1.47582-7.22349,2.79126-9.79122,5.32329-3.86714,3.81338-1.78747,9.25266,2.80423,11.31673,6.65191,2.99013,15.65854,2.12218,23.079,1.73365-2.90517,2.40617-6.19751,4.10369-9.14433,6.41263a9.76141,9.76141,0,0,0-1.52535,1.48858.75435.75435,0,0,0-.46448.32441,3.01626,3.01626,0,0,0-.38863,1.064,3.24546,3.24546,0,0,0-.289,1.62227c.49653,4.5753,5.33733.62984,8.91335-2.19057-1.462,3.189-2.69456,6.95756-.66876,8.20953,1.18288.73094,2.13434.03506,2.93379-.851.04213-.04664.08587-.10238.129-.15438.10555,2.81056,1.12295,6.5862,3.58985,6.14643a1.90832,1.90832,0,0,0,1.63433-1.812.91482.91482,0,0,0,.087-.3094.32289.32289,0,0,0-.0468-.18247c.00161-.06315.007-.12415.00633-.18858-.01753-1.7834-.82845-3.41113-.77693-5.28673a20.149,20.149,0,0,1,.8463-5.00338,1.04,1.04,0,0,0,.26325.07226,62.265,62.265,0,0,0,.75866,10.0861c.96092,5.14039.74421,9.68261,2.08929,14.88107a22.35483,22.35483,0,0,0,1.68594,4.90843c.47978.90761,10.2221,10.42388,7.8473,11.078-.27487.07571-.55342.14344-.83685.20044a38.7474,38.7474,0,0,1-8.84994.44363c-5.60541-.17325-11.52107-.565-16.7074,1.99578a13.7328,13.7328,0,0,0-3.83224,2.83157,12.23115,12.23115,0,0,0-1.968,1.38137c-3.44362,2.98241-4.2429,7.99319-2.14882,11.3296-5.01212.95415-9.89189,2.47714-14.90229,3.267-5.19351.81885-10.49922-.23768-15.74763-.937A60.03187,60.03187,0,0,1,82.13114,445.787c-4.10745-1.82768-7.04933-3.71442-11.6092-4.71424-.99489-.21817-5.99462-.433-9.65716-.687a189.81578,189.81578,0,0,1-43.644-121.27968c0-105.14584,85.54265-190.68854,190.68849-190.68854s190.68811,85.5427,190.68811,190.68854a190.42534,190.42534,0,0,1-15.58285,75.469C381.238,398.68008,378.11969,409.58482,374.36056,412.059ZM280.7063,307.4858a.70225.70225,0,0,1-.09207-.28954c-.14924-1.19788,2.97591-2.64842,3.81323-2.95435a7.31257,7.31257,0,0,1,4.76642-.19464c2.09152.692,6.36046,4.58276,4.58,7.07111-.83933-.86-1.02431-2.35243-1.87575-3.32652a6.7331,6.7331,0,0,0-8.19809-1.6462C283.17693,306.40132,281.18244,308.24131,280.7063,307.4858Zm-2.26954-28.834c-.6536-2.051-1.31112-4.10155-1.932-6.16407.05579.18533,1.41095,1.019,1.6543,1.3702a8.2326,8.2326,0,0,1,.92119,2.10847c.73173,2.09647,1.44984,4.18671,2.0397,6.32913a77.327,77.327,0,0,1,1.82836,8.46827c.20715,1.31244,1.19689,3.51144.26458,4.69526-1.42962-3.56354-1.9939-7.72259-3.10151-11.43C279.57413,282.23069,279.00694,280.441,278.43676,278.65179Zm8.66524,11.91236a19.99067,19.99067,0,0,1,.48135,2.73023,14.15435,14.15435,0,0,1-.66143,6.38591c-.78833-1.68341-.66675-3.62916-.61064-5.48717s-.00928-3.8491-1.08049-5.36825a2.38541,2.38541,0,0,1-.38725-.65412c-.3094-1.02727.59072-.52531.91337-.26936a4.13523,4.13523,0,0,1,1.01369,1.65976A8.92441,8.92441,0,0,1,287.102,290.56415Zm4.74438,1.02547.01132-.06159q.60439-3.31752,1.37778-6.60127c.1104-.4687.31661-1.02762.79261-1.10038a.84371.84371,0,0,1,.85474.65721,2.45971,2.45971,0,0,1-.05494,1.16569l-2.02173,9.59725c-.20038.9512-.49057,2.191-1.46338,2.6175C290.69381,295.64185,291.43735,293.79394,291.84638,291.58962Zm4.79085,7.70918c-.74021-1.06862,3.76891-4.91833,4.33783-5.37484l6.74406-5.41159c2.3666-1.899,4.68648-4.41534,7.42206-5.75319.76308-.37319,1.78539-.62364,2.3777-.01476-3.14886,1.5214-4.99831,4.1252-7.61136,6.27462l-7.30815,6.01148c-.604.49682-5.02361,4.93039-5.83272,4.39294A.47379.47379,0,0,1,296.63723,299.2988Z" fill="#4f5052"/><path d="M348.02215,179.30087a197.71426,197.71426,0,1,0,57.90929,139.80522A196.41913,196.41913,0,0,0,348.02215,179.30087ZM208.21736,128.41754c105.14584,0,190.68811,85.5427,190.68811,190.68854a189.59557,189.59557,0,0,1-32.43,106.26723c-14.468-2.39866-29.713-9.27694-44.1715-6.46156-10.03774,1.95458-16.75165,6.572-23.48927,13.61557-6.45639,6.74956-17.07789,12.81187-26.62643,12.14385-4.06352-.28429-7.99575-1.72864-12.06783-1.83425-13.41957-.348-24.17507,13.53985-37.58324,12.88654-9.7001-.47264-17.43507-8.45614-26.8911-10.66945a35.79981,35.79981,0,0,0-10.33313-.60861,76.31772,76.31772,0,0,0-22.80363,4.98757c-7.28155,2.81153-11.35226,6.51217-19.35916,5.24529-13.8504-2.1915-3.06785-6.38761,2.71805-10.39565a5.91022,5.91022,0,0,0,2.78809-5.39,5.23238,5.23238,0,0,0-3.263-4.2168,67.87246,67.87246,0,0,1-25.00318-19.12735c8.26844-1.36529,15.80991-6.0679,20.04043-12.8751a3.42045,3.42045,0,0,0,.38643-2.79008,3.72745,3.72745,0,0,0-1.87158-2.22172A62.47951,62.47951,0,0,1,117.552,379.2543c7.102-2.00854,12.8906-7.76923,13.90918-14.72042a3.56429,3.56429,0,0,0-1.77675-3.56776C116.08562,352.8282,105.67061,341.424,101.111,329.678a4.10208,4.10208,0,0,0-7.49253,0c-4.55965,11.746-14.9746,23.15021-28.57239,31.28813a3.56473,3.56473,0,0,0-1.77681,3.56583c1.01756,6.95311,6.80517,12.71574,13.90714,14.72235A62.446,62.446,0,0,1,55.784,397.66153a3.72736,3.72736,0,0,0-1.87152,2.22172,3.42023,3.42023,0,0,0,.38638,2.79008c4.23159,6.8072,11.772,11.50981,20.04043,12.8751-.52484-.08668-4.773,5.29584-5.43763,5.937a67.61,67.61,0,0,1-6.70793,5.67246c-2.72752,2.01969-5.60294,3.36943-7.3315,5.147a189.67413,189.67413,0,0,1-37.3334-113.1988C17.52882,213.96024,103.07152,128.41754,208.21736,128.41754ZM73.92889,431.729a16.21168,16.21168,0,0,0-1.9924-.54735,3.3251,3.3251,0,0,1-1.4205-.88779,2.9253,2.9253,0,0,1-.72949-1.58362,4.1835,4.1835,0,0,1,.73775-2.85355,4.07654,4.07654,0,0,1,1.02024-1.05251,5.4527,5.4527,0,0,1,1.1996-.62524,36.32433,36.32433,0,0,1,4.58849-.94611,12.149,12.149,0,0,0,7.15456-4.96447,11.74835,11.74835,0,0,1-6.78935,6.19832,41.29973,41.29973,0,0,0-4.27442,1.29094,4.25263,4.25263,0,0,0-.78642.50007,2.42223,2.42223,0,0,0-.82839,2.12657c.12849.41859.26014.54059.78128.69519.26684.06679.60755.12248,1.007.19013a4.86875,4.86875,0,0,1,1.4131.42642,2.65408,2.65408,0,0,1,1.317,1.48225,2.807,2.807,0,0,1-.00783,1.72835,59.02119,59.02119,0,0,0-10.05779,3.58824c-.4433.13187-.88371.27284-1.3171.43312-.67589.24218-1.3417.51336-1.991.8203-.32328.1562-.64453.31632-.96031.48715a3.27088,3.27088,0,0,0-.69749.472,1.72751,1.72751,0,0,0-.40814.48544l-.01308.0312a1.10984,1.10984,0,0,0,.1146.063c-.1576.095-.31026.19715-.46678.29375q-.82086-1.00451-1.62795-2.02038a4.75237,4.75237,0,0,1,.67691-.76466,5.85953,5.85953,0,0,1,1.17655-.83123c.35282-.197.7117-.38236,1.0732-.56273a23.2461,23.2461,0,0,1,2.2281-.95013,23.50364,23.50364,0,0,1,4.69779-1.14289c.79805-.10994,1.608-.17657,2.4081-.20664a9.21552,9.21552,0,0,0,1.95681-.18413,1.66559,1.66559,0,0,0,.57828-.26062,1.20763,1.20763,0,0,0,.342-.43237.635.635,0,0,0,.06432-.31165A.30007.30007,0,0,0,73.92889,431.729Zm9.05551-72.25437a4.87954,4.87954,0,0,1-1.66885-.73448,4.11887,4.11887,0,0,1-1.23921-1.4167,3.24174,3.24174,0,0,1-.3726-1.9671,2.86857,2.86857,0,0,1,.99574-1.76651,9.43745,9.43745,0,0,1,2.82444-1.33189,12.82644,12.82644,0,0,0,7.35981-7.8074,12.4533,12.4533,0,0,1-6.74754,9.18314,8.53524,8.53524,0,0,0-2.23689,1.2598,1.08814,1.08814,0,0,0-.10147,1.46923c.67728,1.1587,2.31515,1.16894,4.18356.98181a1.12844,1.12844,0,0,1,1.17328,1.50632l-.02235.06014a8.45347,8.45347,0,0,1-2.9049,3.77719,11.21226,11.21226,0,0,1-4.20672,1.92534,21.34715,21.34715,0,0,1-6.60635.31315,9.923,9.923,0,0,0,1.8585,2.64181,9.60406,9.60406,0,0,0,4.45357,2.63109,9.97435,9.97435,0,0,0,5.25344-.09718,10.27278,10.27278,0,0,0,4.61223-2.76783l.05023-.054a.65933.65933,0,0,1,.9318-.03377.71836.71836,0,0,1,.06722.07263,4.4697,4.4697,0,0,0,4.01423,1.58775,4.86034,4.86034,0,0,0,3.71453-2.829,5.0583,5.0583,0,0,1-3.55184,3.615,5.46517,5.46517,0,0,1-4.61234-.92354,11.3291,11.3291,0,0,1-4.62874,3.14065,11.59291,11.59291,0,0,1-6.36733.5,12.009,12.009,0,0,1-8.99376-8.66919,1.29487,1.29487,0,0,1,1.36384-1.60865l.02691.00273a26.07658,26.07658,0,0,0,7.84524-.01806,8.74763,8.74763,0,0,0,4.52336-2.48389A6.883,6.883,0,0,1,82.9844,359.47459Zm30.15789,12.29125a2.25237,2.25237,0,0,0-1.01606-1.55263,1.27121,1.27121,0,0,1,.66072-2.38875l.04755.00252a22.473,22.473,0,0,0,6.40866-.34253,7.08011,7.08011,0,0,0,3.4857-2.018,17.24438,17.24438,0,0,1-3.90515-1.417,18.91347,18.91347,0,0,1-4.8244-3.50344,18.24021,18.24021,0,0,1-3.44281-4.76565,15.67358,15.67358,0,0,1-1.61433-5.53583,19.19012,19.19012,0,0,0,6.17773,9.06945,18.93418,18.93418,0,0,0,4.60929,2.79222,16.64479,16.64479,0,0,0,5.12983,1.28622,1.19435,1.19435,0,0,1,1.035,1.59252l-.025.068a7.22073,7.22073,0,0,1-2.45275,3.22979,10.20489,10.20489,0,0,1-3.50135,1.71468,15.92114,15.92114,0,0,1-4.5187.50023,4.91623,4.91623,0,0,1,.21184.85723,4.69179,4.69179,0,0,1-1.06382,3.819,4.58856,4.58856,0,0,1-3.62415,1.4547,4.75289,4.75289,0,0,1-2.43774-.83257,8.329,8.329,0,0,1-2.048,1.96061,9.69542,9.69542,0,0,1-3.66634,1.50359,9.40509,9.40509,0,0,1-3.86886-.07467,7.48179,7.48179,0,0,1-3.33855-1.72,7.96716,7.96716,0,0,0,3.44474,1.04184,9.18465,9.18465,0,0,0,3.46677-.43173,8.8585,8.8585,0,0,0,2.97566-1.63068,7.16092,7.16092,0,0,0,1.948-2.58563.95833.95833,0,0,1,1.59766-.2596l.06486.07419a2.45485,2.45485,0,0,0,1.90926.74563,2.33839,2.33839,0,0,0,1.79455-.78857A2.28484,2.28484,0,0,0,113.14229,371.76584Zm7.86974,32.60137a4.69224,4.69224,0,0,1-1.08328,2.62471,6.14753,6.14753,0,0,1-4.68985,1.97718,10.17822,10.17822,0,0,1-4.62092-1.07438,23.795,23.795,0,0,1-3.85315-2.45859,34.122,34.122,0,0,0,4.16362,1.65614,9.84636,9.84636,0,0,0,4.2005.40562,4.74919,4.74919,0,0,0,3.2686-1.69715,2.658,2.658,0,0,0,.4909-1.52556,1.73743,1.73743,0,0,0-.51015-1.229,1.13966,1.13966,0,0,1,1.28612-1.82971l.0283.013a13.29936,13.29936,0,0,0,6.89833,1.38185,5.56716,5.56716,0,0,0,2.8596-1.2479,3.5977,3.5977,0,0,0,.948-1.16261,28.68925,28.68925,0,0,1-5.326-.89427,29.14458,29.14458,0,0,1-6.38556-2.48732,26.95931,26.95931,0,0,1-5.57062-3.907,21.87238,21.87238,0,0,1-4.23953-5.20654,29.49128,29.49128,0,0,0,4.96516,4.2972A32.09975,32.09975,0,0,0,119.51,395.094a32.768,32.768,0,0,0,12.42446,2.59491,1.29133,1.29133,0,0,1,1.26591,1.14948l.00113.01115a4.71381,4.71381,0,0,1-.50441,2.61951,6.13159,6.13159,0,0,1-1.54706,1.9187,8.16646,8.16646,0,0,1-4.23915,1.78222,11.38886,11.38886,0,0,1-4.33532-.35888c-.53636-.14473-1.05476-.32184-1.56437-.51294C121.0094,404.32084,121.01433,404.34469,121.012,404.36721Zm2.0006,27.85786a1.20689,1.20689,0,0,0,.34194.43237,1.66559,1.66559,0,0,0,.57828.26062,9.2157,9.2157,0,0,0,1.95686.18413c.8.03007,1.61.0967,2.408.20664a23.50364,23.50364,0,0,1,4.69779,1.14289,23.24609,23.24609,0,0,1,2.2281.95013c.3615.18038.72044.36569,1.0732.56273a5.858,5.858,0,0,1,1.17655.83123,4.17664,4.17664,0,0,1,.9966,1.302,2.52378,2.52378,0,0,1,.0297,2.19829,2.44815,2.44815,0,0,1-.71036.88436,3.31875,3.31875,0,0,1-.7921.45644,8.226,8.226,0,0,1-1.24366.37641,36.69406,36.69406,0,0,1-8.63783,1.21691q-1.2836-1.00708-2.60129-1.95627c.61382-.01474,1.22747-.03447,1.83942-.07714,1.48381-.09027,2.953-.3087,4.41336-.53888a36.81894,36.81894,0,0,0,4.3038-1.0442,9.54465,9.54465,0,0,0,.93957-.30447,1.09373,1.09373,0,0,0,.15958-.08523l-.01308-.0312a1.72751,1.72751,0,0,0-.40814-.48544,3.27088,3.27088,0,0,0-.69749-.472c-.31573-.17084-.637-.331-.96031-.48715-.6492-.30694-1.31506-.57812-1.991-.8203a20.90445,20.90445,0,0,0-4.16813-1.07352c-.71229-.10769-1.42377-.176-2.14807-.21345a9.6732,9.6732,0,0,1-2.57668-.34339,4.03491,4.03491,0,0,1-1.439-.78433,3.60383,3.60383,0,0,1-.98272-1.40694,2.86856,2.86856,0,0,1-.068-1.92808,2.6538,2.6538,0,0,1,1.317-1.48225,4.86922,4.86922,0,0,1,1.4131-.42642c.39946-.06765.74016-.12334,1.007-.19013.52114-.15459.65279-.2766.78128-.69519a2.42223,2.42223,0,0,0-.82839-2.12657,4.25263,4.25263,0,0,0-.78642-.50007,41.2985,41.2985,0,0,0-4.27437-1.29094,11.74845,11.74845,0,0,1-6.78941-6.19832,12.149,12.149,0,0,0,7.15461,4.96447,36.32365,36.32365,0,0,1,4.58843.94611,5.45424,5.45424,0,0,1,1.19965.62524,4.07719,4.07719,0,0,1,1.02019,1.05251,4.1835,4.1835,0,0,1,.73775,2.85355,2.92492,2.92492,0,0,1-.72949,1.58362,3.32479,3.32479,0,0,1-1.4205.88779,16.21747,16.21747,0,0,0-1.9924.54735.29991.29991,0,0,0-.16724.18445A.63364.63364,0,0,0,123.01263,432.22506Zm-33.98134-5.194a2.0649,2.0649,0,0,0,1.09095.90414,3.206,3.206,0,0,0,.82309.22246,2.9581,2.9581,0,0,0,.8917-.04519,15.66339,15.66339,0,0,0,4.2414-2.00971,10.1722,10.1722,0,0,1-1.36561,2.23029,6.24622,6.24622,0,0,1-2.20708,1.74025,4.42709,4.42709,0,0,1-1.5409.40739,4.77161,4.77161,0,0,1-1.61991-.17041,4.20971,4.20971,0,0,1-2.68239-2.12748,3.54933,3.54933,0,0,1-.31766-1.91977,4.47363,4.47363,0,0,1,.54724-1.59584,9.36093,9.36093,0,0,1,.77152-1.14621,12.63645,12.63645,0,0,1,.85386-1.01054,11.10442,11.10442,0,0,1,4.29747-2.92178c-.97216,1.44473-1.868,2.77759-2.64208,4.15548-.37233.66967-.7839,1.41348-1.04635,2.02885a2.269,2.269,0,0,0-.1978.76139A.97779.97779,0,0,0,89.03128,427.03107Zm12.88684-33.54018a1.74927,1.74927,0,0,0-1.14337-1.28815,1.9759,1.9759,0,0,1,2.23721.59741,3.1321,3.1321,0,0,1,.71127,2.55336,5.42648,5.42648,0,0,1-2.9324,3.96122,5.24892,5.24892,0,0,1-2.51793.5912,4.34917,4.34917,0,0,1-2.49472-.83493,4.14043,4.14043,0,0,1-1.47025-1.98817A2.88607,2.88607,0,0,1,94.43,394.809a3.7061,3.7061,0,0,0,2.37653,2.47178,3.53846,3.53846,0,0,0,2.78027-.3087,4.90516,4.90516,0,0,0,2.12437-2.11215A2.0579,2.0579,0,0,0,101.91813,393.49088Zm9.27668,34.92584a1.40927,1.40927,0,0,0-.46094-.73394,8.20079,8.20079,0,0,0-1.07234-.77881,4.50237,4.50237,0,0,1-1.16052-1.09245,1.76445,1.76445,0,0,1-.32832-1.50707,1.70875,1.70875,0,0,0,.83922.98508,4.311,4.311,0,0,0,1.20078.44405,8.8049,8.8049,0,0,1,1.4532.49546,3.11485,3.11485,0,0,1,1.41477,1.33,3.75812,3.75812,0,0,1,.429,1.9024,5.15757,5.15757,0,0,1-.35882,1.76887,6.66114,6.66114,0,0,1-2.02644,2.7525c-.06422.052-.13562.094-.20166.14371q-1.76475-.61679-3.57141-1.11475a5.70365,5.70365,0,0,0,2.11494-1.07551,5.20938,5.20938,0,0,0,1.38893-1.69345A2.81761,2.81761,0,0,0,111.19481,428.41673Zm-9.94667,3.277a4.55428,4.55428,0,0,1-.28935-1.28638,7.29025,7.29025,0,0,0,1.484,1.49255C102.04517,431.82791,101.64743,431.75748,101.24813,431.69374ZM95.754,354.10424a2.47992,2.47992,0,0,0,.80888,1.777,2.60323,2.60323,0,0,0,1.82023.50725,3.64932,3.64932,0,0,0,3.0686-2.68968,10.05135,10.05135,0,0,0-.08636-5.2253,7.23,7.23,0,0,1,1.717,5.61152,5.61842,5.61842,0,0,1-1.42077,2.95523,4.77823,4.77823,0,0,1-1.41241,1.04431,4.9725,4.9725,0,0,1-1.71881.44572,4.33488,4.33488,0,0,1-3.3571-1.17248,4.04279,4.04279,0,0,1-1.08773-3.31041,5.43931,5.43931,0,0,1,1.2591-2.87279,10.90446,10.90446,0,0,1,2.16452-1.93129C96.60845,350.91738,95.60965,352.57449,95.754,354.10424Zm8.96926-9.70739a1.68473,1.68473,0,0,1-1.729-.04326,6.05117,6.05117,0,0,1-1.35425-1.20721,5.56821,5.56821,0,0,0-1.78726-1.37215,2.36372,2.36372,0,0,0-2.17808.08319,8.56208,8.56208,0,0,0-1.0122.96138,1.345,1.345,0,0,1-1.26853.40819c-.478-.16124-.71218-.70489-1.13587-.97881-.98663-.63789-2.477.41752-3.41612-.2885a1.50737,1.50737,0,0,1-.35368-1.73564c.52151-1.32412,1.9322-1.96415,2.7807-3.01816a6.4,6.4,0,0,0,1.00357-2.469c.41988-1.6064,1.27-3.14874,3.1548-3.22191,1.54368-.06,2.4051,1.34546,3.10254,2.55749,1.49876,2.60461,4.23808,5.14093,4.7709,8.16435A2.1189,2.1189,0,0,1,104.72327,344.39685ZM80.87621,392.97961a13.05309,13.05309,0,0,0,3.335-2.412,13.69145,13.69145,0,0,0,3.86816-7.46433A12.92908,12.92908,0,0,1,85.143,391.4036a13.90536,13.90536,0,0,1-3.4486,3.04052c-.32613.21227-.67841.38193-1.01922.57442-.35287.16612-.71636.32162-1.07642.46941-.72392.27574-1.42366.48683-2.054.7348a5.6693,5.6693,0,0,0-1.61315.89,5.52816,5.52816,0,0,0-1.10987,1.40356c-.344.573-.67117,1.23364-1.10317,1.91853a10.11771,10.11771,0,0,1-1.59445,1.91376,10.25314,10.25314,0,0,1-5.13632,2.51439,15.32462,15.32462,0,0,0,4.37552,2.35932c2.59019.85048,5.64384.56863,7.46514-1.43a6.613,6.613,0,0,1,1.05074-.91175,2.585,2.585,0,0,1,1.78292-.4314A2.78062,2.78062,0,0,1,83.19,405.241a6.8767,6.8767,0,0,1,.8464,1.01461,8.81356,8.81356,0,0,0,.64539.84694,5.1912,5.1912,0,0,0,.74327.68318,5.665,5.665,0,0,0,1.84622.91127,5.43426,5.43426,0,0,0,4.13779-.40374,6.27948,6.27948,0,0,0,2.94767-3.31148,6.26183,6.26183,0,0,1-2.55267,3.95092,6.36937,6.36937,0,0,1-4.82783,1.05739,7.10069,7.10069,0,0,1-2.4133-.91952,6.79544,6.79544,0,0,1-1.05353-.79607,10.29708,10.29708,0,0,1-.86393-.92724c-.47606-.58589-.98808-1.01976-1.21391-.97527a.63.63,0,0,0-.41318.17212,5.08564,5.08564,0,0,0-.65273.67273,8.7898,8.7898,0,0,1-.91786.93962,6.79557,6.79557,0,0,1-1.11689.78894,8.56825,8.56825,0,0,1-2.51413.93008,10.96557,10.96557,0,0,1-5.19233-.23907c-3.32569-1.02426-5.93057-3.15528-8.30575-5.1309l-.01152-.0096a1.30579,1.30579,0,0,1,1.17146-2.26562,7.99531,7.99531,0,0,0,7.01235-1.71044,7.70021,7.70021,0,0,0,1.25572-1.38582c.37062-.53239.71947-1.166,1.15087-1.82709a6.921,6.921,0,0,1,1.71554-1.90117,7.72824,7.72824,0,0,1,2.2683-1.079c.74536-.234,1.45631-.3964,2.1099-.5972A13.85554,13.85554,0,0,0,80.87621,392.97961Z" fill="#56595e"/><path d="M351.53513,179.30089a197.71426,197.71426,0,1,0,57.90929,139.80522A196.41913,196.41913,0,0,0,351.53513,179.30089ZM211.73034,128.41756c105.14563,0,190.68778,85.54237,190.68811,190.68792.00011,34.4896-6.05208,78.24026-43.21636,91.19059-15.02435,5.23541-31.80515,5.7961-46.42521,12.11778-6.93587,2.99905-12.63323,6.61677-20.26791,8.07518-23.41108,4.47207-45.26974-4.95252-68.3113-6.73964-17.581-1.36359-36.53722,1.0605-52.40217,9.046-5.10988,2.572-8.87753,7.313-14.48582,8.9733-7.609,2.25266-15.70312-.48265-23.16275-3.1892-10.63389-3.85826-22.48616-10.30939-33.45329-12.42573-12.005-2.3166-26.78578,4.156-38.80681,5.24066-1.32428.11948-2.67392.17459-4.03069.1993A189.65936,189.65936,0,0,1,21.0418,319.10611C21.0418,213.96027,106.58451,128.41756,211.73034,128.41756Z" fill="#6b6c6e"/><path d="M352.99306,174.02241A203.77231,203.77231,0,0,0,251.31576,118.514L245.12329,65.8932a5.17759,5.17759,0,0,0-1.05524-2.575,3.14453,3.14453,0,0,0,.18472-1.02721c0-15.88989-3.60132-30.87666-10.14013-42.19951C227.25734,8.2202,217.95086,1.68267,207.90936,1.68267s-19.348,6.53752-26.20327,18.40884C175.16729,31.41436,171.566,46.40113,171.566,62.291a3.1434,3.1434,0,0,0,.18445,1.0263,5.17773,5.17773,0,0,0-1.05583,2.57588L164.50286,118.514a205.24786,205.24786,0,1,0,188.4902,55.50843ZM213.62214,71.70085l3.42411,42.43467c-3.03494-.13213-6.07991-.209-9.13688-.209-2.68057,0-5.35057.06631-8.01431.16794l3.42078-42.39361Zm13.91534,43.15408-3.48216-43.15408h11.28034l5.274,44.81628Q234.12166,115.484,227.53748,114.85494ZM207.90936,8.03451c16.07359,0,29.67224,24.2924,29.97714,53.26634H177.93223C178.23713,32.32691,191.83577,8.03451,207.90936,8.03451ZM180.48221,71.70085h12.40044l-3.47439,43.05754q-7.15442.63529-14.19928,1.75874Zm27.42715,430.62871c-101.02992,0-183.22346-82.194-183.22346-183.22346,0-101.02992,82.19354-183.22346,183.22346-183.22346,101.02906,0,183.223,82.19354,183.223,183.22346C391.13239,420.1356,308.93843,502.32957,207.90936,502.32957Z" fill="#b8bbc1"/></svg>