<svg id="Слой_1" data-name="Слой 1" xmlns="http://www.w3.org/2000/svg" viewBox="0 0 425.2 535.2"><title>3d christmas toy2</title><path d="M357.68391,178.63823a203.77231,203.77231,0,0,0-101.6773-55.50843L249.81414,70.509a5.17759,5.17759,0,0,0-1.05525-2.575,3.14453,3.14453,0,0,0,.18472-1.02721c0-15.88989-3.60132-30.87666-10.14013-42.19951C231.94819,12.836,222.64171,6.29849,212.60021,6.29849s-19.348,6.53752-26.20327,18.40884c-6.53881,11.32284-10.14013,26.30962-10.14013,42.19951a3.1434,3.1434,0,0,0,.18445,1.0263,5.17773,5.17773,0,0,0-1.05583,2.57588l-6.19172,52.62079a205.24786,205.24786,0,1,0,188.4902,55.50843ZM218.313,76.31667l3.42411,42.43467c-3.03494-.13213-6.07991-.209-9.13688-.209-2.68057,0-5.35057.06631-8.01431.16794l3.42078-42.39361Zm13.91534,43.15408-3.48216-43.15408h11.28034l5.274,44.81628Q238.81251,120.09982,232.22833,119.47075ZM212.60021,12.65033c16.07359,0,29.67224,24.2924,29.97714,53.26634H182.62308C182.928,36.94273,196.52662,12.65033,212.60021,12.65033ZM185.17307,76.31667h12.40044l-3.47439,43.05754q-7.15442.63529-14.19928,1.75874Zm27.42715,430.62871c-101.02992,0-183.22346-82.194-183.22346-183.22346,0-101.02992,82.19354-183.22346,183.22346-183.22346,101.02906,0,183.223,82.19354,183.223,183.22346C395.82325,424.75142,313.62928,506.94538,212.60021,506.94538Z" fill="#abb5c9"/></svg>