<svg id="Слой_1" data-name="Слой 1" xmlns="http://www.w3.org/2000/svg" viewBox="0 0 425.2 425.2"><title>3d christmas toy2</title><path d="M352.405,72.79478A197.71443,197.71443,0,0,0,72.79457,352.40522,197.71443,197.71443,0,1,0,352.405,72.79478ZM212.60021,403.28854c-105.14584,0-190.68854-85.54228-190.68854-190.68854,0-105.14584,85.5427-190.68854,190.68854-190.68854S403.28833,107.45416,403.28833,212.6a189.71368,189.71368,0,0,1-13.112,69.49436c-.14886-.086-.29032-.17984-.44647-.258a92.11216,92.11216,0,0,1-33.21224-28.39352,38.75653,38.75653,0,0,0,26.62014-19.11245,5.59391,5.59391,0,0,0,.51326-4.1417,5.423,5.423,0,0,0-2.486-3.298,86.392,86.392,0,0,1-28.41727-27.32461,27.06635,27.06635,0,0,0,18.47585-21.85171,5.50379,5.50379,0,0,0-2.36012-5.29617c-18.06363-12.08032-31.898-29.00927-37.95473-46.44557a5.23534,5.23534,0,0,0-9.95246,0c-6.0567,17.43631-19.89109,34.36525-37.95333,46.44557a5.50439,5.50439,0,0,0-2.36012,5.29332,27.057,27.057,0,0,0,18.47306,21.85455A86.34449,86.34449,0,0,1,270.7,226.89067a5.423,5.423,0,0,0-2.486,3.298,5.59391,5.59391,0,0,0,.51326,4.1417,38.75945,38.75945,0,0,0,26.6202,19.11245,92.16018,92.16018,0,0,1-33.02553,28.29944,7.868,7.868,0,0,0-4.40484,6.921,8.74764,8.74764,0,0,0,4.49479,7.78177c16.36059,9.3239,41.98327,13.97018,66.63481,13.97018,19.82806,0,39.02139-3.01136,52.25762-9.01188C349.31142,361.93651,285.69927,403.28854,212.60021,403.28854Zm89.37961-127.33605a2.56473,2.56473,0,0,0-.8842-.70259l-.33133-.17453a2.58637,2.58637,0,0,0-.29005-.117,3.39884,3.39884,0,0,0-.66292-.15357,9.35572,9.35572,0,0,0-1.60994-.0476c-.58782.0179-1.20732.05891-1.89479.03865a6.68037,6.68037,0,0,1-2.137-.41854,4.53265,4.53265,0,0,1-1.964-1.3677,3.02413,3.02413,0,0,1-.5436-2.64765,4.33272,4.33272,0,0,1,1.27765-1.97691,10.34364,10.34364,0,0,1,1.6101-1.19408,21.6487,21.6487,0,0,1,3.37618-1.70106c2.29859-.941,4.61663-1.62613,6.79841-2.55685a14.65358,14.65358,0,0,0,5.76933-3.89212,7.13614,7.13614,0,0,0,1.60259-6.61251,6.28239,6.28239,0,0,1,.428,3.61611,8.89652,8.89652,0,0,1-1.43449,3.44158,15.26922,15.26922,0,0,1-5.809,4.642c-2.21159,1.1171-4.51124,1.94-6.63867,2.97035a23.12916,23.12916,0,0,0-3.027,1.71543,8.45706,8.45706,0,0,0-1.26505,1.01692,2.32745,2.32745,0,0,0-.65381,1.04576.86329.86329,0,0,0,.20713.77066,2.424,2.424,0,0,0,1.03166.60862,4.80258,4.80258,0,0,0,1.42179.229c.52376.00295,1.11367-.04723,1.73516-.08405a11.60908,11.60908,0,0,1,2.01765.01619,5.828,5.828,0,0,1,1.10965.2283,5.02885,5.02885,0,0,1,.55743.20788c.17405.0774.31873.15567.47922.23457a4.7088,4.7088,0,0,1,1.877,1.59182,2.62324,2.62324,0,0,1,.3465,1.70626,3.09845,3.09845,0,0,1-.617,1.38791,6.56394,6.56394,0,0,1-1.68965,1.49249,14.80779,14.80779,0,0,1-1.75311.94927,20.85145,20.85145,0,0,1-3.66452,1.29909c-.16966.03817-.33213.07735-.52.1093a5.3,5.3,0,0,1-.55978.07242l-.92563.07724-1.83883.122-3.61167.206a26.00939,26.00939,0,0,0-6.78919,1.13168,13.08726,13.08726,0,0,0-4.297,2.43324,12.78455,12.78455,0,0,0-1.17821,1.10472,2.77189,2.77189,0,0,0-.93716,2.16886c.07531.555.84984,1.19713,1.85464,1.70669a41.936,41.936,0,0,0,6.51447,2.64369,41.42039,41.42039,0,0,0,28.012-1.63728,38.60061,38.60061,0,0,1-28.57711,3.66645,38.14212,38.14212,0,0,1-7.026-2.56709,8.81007,8.81007,0,0,1-1.777-1.11319,3.8707,3.8707,0,0,1-1.16754-4.65989,7.02922,7.02922,0,0,1,1.16653-1.8756,15.6628,15.6628,0,0,1,3.01-2.60584,17.03979,17.03979,0,0,1,3.5318-1.75445,28.328,28.328,0,0,1,7.48583-1.334l3.644-.17636,1.7871-.103.88516-.066a2.64144,2.64144,0,0,0,.34087-.03972c.111-.01694.24331-.04765.36928-.07446a18.35942,18.35942,0,0,0,3.18246-1.10049,7.65977,7.65977,0,0,0,2.50341-1.62334.91034.91034,0,0,0,.14838-.23763C301.98283,275.985,301.99923,276.02057,301.97983,275.95249Zm-3.83273-52.76691c-.421-.52264-.88832-.71738-2.00854-.74279a8.59909,8.59909,0,0,1-1.9589-.22449,3.64243,3.64243,0,0,1-2.05764-1.44,3.92211,3.92211,0,0,1-.61923-2.33772,4.63018,4.63018,0,0,1,.65992-2.14753,4.57611,4.57611,0,0,1,.70344-.887,6.71673,6.71673,0,0,1,.78224-.64678,9.3112,9.3112,0,0,1,1.67078-.9266c1.12488-.486,2.23281-.797,3.27032-1.1431l1.52808-.559c.4953-.22,1.00684-.40793,1.49844-.64a27.80865,27.80865,0,0,0,5.57335-3.41119,25.20947,25.20947,0,0,0,7.97271-10.45,23.6676,23.6676,0,0,1-7.08423,11.4947,28.83541,28.83541,0,0,1-5.64212,4.00469c-.50838.27912-1.034.52655-1.55542.78342l-1.60645.6775c-1.07513.41468-2.119.77-3.03735,1.22383a7.08078,7.08078,0,0,0-1.2375.76353,4.42506,4.42506,0,0,0-.494.45049,2.231,2.231,0,0,0-.31583.44813,2.438,2.438,0,0,0-.28319,1.05267,1.49463,1.49463,0,0,0,.24025.86243,1.15311,1.15311,0,0,0,.67257.40707,6.68375,6.68375,0,0,0,1.38754.09311,6.32644,6.32644,0,0,1,2.05774.28078,4.29343,4.29343,0,0,1,1.96094,1.367,4.91815,4.91815,0,0,1,.864,4.3827,5.43027,5.43027,0,0,1-.44336,1.07953l-.32162.49744-.33883.41886a7.13178,7.13178,0,0,1-1.59289,1.3297,15.02907,15.02907,0,0,1-7.12459,1.80929,24.48228,24.48228,0,0,0-6.29529.724,6.49115,6.49115,0,0,0-2.39084,1.365,2.64374,2.64374,0,0,0-.93292,1.95654,3.52132,3.52132,0,0,0,.99928,2.17321,6.75046,6.75046,0,0,0,2.32684,1.61015,33.87023,33.87023,0,0,0,6.24136,1.67882,61.43355,61.43355,0,0,0,13.14612,1.73441c4.3641-.0453,8.89089-.95844,12.55755-3.62308a16.52563,16.52563,0,0,1-5.78385,3.53319,26.02122,26.02122,0,0,1-6.70648,1.46714,55.5025,55.5025,0,0,1-13.61441-.95726,30.85008,30.85008,0,0,1-6.811-1.57236,9.27,9.27,0,0,1-3.2255-2.12239,6.09872,6.09872,0,0,1-1.78662-3.81043,5.22907,5.22907,0,0,1,1.70626-4.01793,9.16248,9.16248,0,0,1,3.38181-2.00977,26.187,26.187,0,0,1,7.035-.93153,19.6333,19.6333,0,0,0,3.12971-.34462,8.70322,8.70322,0,0,0,2.70748-.99457,4.413,4.413,0,0,0,.99725-.80829l.19346-.23409c.04454-.07194.08882-.14066.13819-.20847a2.82061,2.82061,0,0,0,.20032-.47407A2.35909,2.35909,0,0,0,298.1471,223.18558Zm12.14679-58.31652a.832.832,0,0,0-.5622-.208c-.311-.0246-.75785.04465-1.3112.076a3.47452,3.47452,0,0,1-2.04166-.41253,2.58829,2.58829,0,0,1-1.20909-2.0139,3.32819,3.32819,0,0,1,.47831-2.01373,4.56662,4.56662,0,0,1,1.29309-1.30123c.9438-.63419,1.79718-.98036,2.59244-1.44119a22.51422,22.51422,0,0,0,4.469-3.32392,22.99073,22.99073,0,0,0,6.0315-9.51832,21.25519,21.25519,0,0,1-5.08132,10.43206,23.56279,23.56279,0,0,1-4.496,3.90954c-.8307.57051-1.7433,1.02319-2.3695,1.50868a2.63768,2.63768,0,0,0-.70017.76166,1.28417,1.28417,0,0,0-.13144.7593c.0446.23988.13256.32763.22851.36585a1.50536,1.50536,0,0,0,.76235.03924,11.20918,11.20918,0,0,1,1.56609-.13755,3.0445,3.0445,0,0,1,3.07434,2.78568,5.00762,5.00762,0,0,1-.14505,1.89565,6.06178,6.06178,0,0,1-.71813,1.66686,5.906,5.906,0,0,1-.57077.74933c-.20546.22364-.38568.39865-.58814.58975a15.91884,15.91884,0,0,1-5.42739,3.0715c-1.89543.69449-3.78856,1.16009-5.56284,1.734a17.75239,17.75239,0,0,0-4.88379,2.17707,7.38662,7.38662,0,0,0-2.90361,3.80646,4.13434,4.13434,0,0,0,1.0226,4.17032,12.35288,12.35288,0,0,0,4.41594,2.79394,28.05549,28.05549,0,0,0,21.97768-.48994,26.34407,26.34407,0,0,1-22.73231,2.4565,13.4969,13.4969,0,0,1-5.381-3.13695,6.97409,6.97409,0,0,1-1.76083-2.96188,6.59547,6.59547,0,0,1-.00563-3.51271,9.75845,9.75845,0,0,1,3.85438-5.28641,20.148,20.148,0,0,1,5.5867-2.58965c1.89634-.58728,3.754-1.02528,5.48222-1.64038a14.13482,14.13482,0,0,0,4.61416-2.48727c.152-.13358.32189-.29053.44582-.41688a3.43525,3.43525,0,0,0,.3176-.38659,3.59794,3.59794,0,0,0,.4522-.96058A1.66757,1.66757,0,0,0,310.29389,164.86906Zm12.85066-26.67868a.534.534,0,0,0,.11611.16767c.11085.09252.09005.02493.05918.01115-.02664-.01056.00767.0186.21168-.22589.19-.2179.41511-.567.69948-.96771a4.28335,4.28335,0,0,1,1.35639-1.30922,2.69539,2.69539,0,0,1,2.46229-.09917,4.25983,4.25983,0,0,1,.89615.57828c-.2848-.63236-.555-1.26489-.85278-1.8979l-1.90294-3.97767a20.43034,20.43034,0,0,1,1.65829,1.51157c.5079.54381,1.03182,1.08462,1.493,1.67164a28.68186,28.68186,0,0,1,2.57663,3.68108.98537.98537,0,0,1,.09531.78583l-.04154.13653a1.93683,1.93683,0,0,1-1.17752,1.16856,2.6529,2.6529,0,0,1-1.2175.11857,3.36217,3.36217,0,0,1-1.0122-.29611,3.41409,3.41409,0,0,1-.47279-.27885l-.31455-.23071a3.656,3.656,0,0,0-.79066-.54676c-.11562-.02208-.02573-.00338-.08148.01378a2.53371,2.53371,0,0,0-.49793.55437c-.236.31272-.48715.712-.882,1.15827-.10453.11123-.22626.22664-.344.33652a4.01818,4.01818,0,0,1-.45515.32929,2.59536,2.59536,0,0,1-1.22849.38059,2.36857,2.36857,0,0,1-1.30922-.28158,2.70468,2.70468,0,0,1-.91346-.80593,2.936,2.936,0,0,1-.47541-1.00936,3.03087,3.03087,0,0,1-.06877-1.07567,4.48728,4.48728,0,0,1,.54017-1.63036c.47005-.8478.91-1.54813,1.40233-2.31188a47.19043,47.19043,0,0,1,3.0938-4.38753,47.18893,47.18893,0,0,1-1.57981,5.1309c-.27981.82593-.64078,1.70155-.91925,2.45457a2.66179,2.66179,0,0,0-.18048.90666A.49252.49252,0,0,0,323.14455,138.19038Zm16.69464,28.18843a3.59794,3.59794,0,0,0,.4522.96058,3.43524,3.43524,0,0,0,.3176.38659c.12393.12634.2938.2833.44582.41688a14.13482,14.13482,0,0,0,4.61416,2.48727c1.72819.6151,3.58588,1.0531,5.48222,1.64038a20.148,20.148,0,0,1,5.5867,2.58965,9.75845,9.75845,0,0,1,3.85438,5.28641,6.59547,6.59547,0,0,1-.00563,3.51271,6.97409,6.97409,0,0,1-1.76083,2.96188,13.4969,13.4969,0,0,1-5.381,3.13695,26.34407,26.34407,0,0,1-22.73231-2.4565,28.05549,28.05549,0,0,0,21.97768.48994,12.35288,12.35288,0,0,0,4.41594-2.79394,4.13434,4.13434,0,0,0,1.0226-4.17032,7.38662,7.38662,0,0,0-2.90361-3.80646,17.75239,17.75239,0,0,0-4.88379-2.17707c-1.77429-.57388-3.66741-1.03949-5.56284-1.734a15.91884,15.91884,0,0,1-5.42739-3.0715c-.20246-.1911-.38268-.36611-.58814-.58975a5.906,5.906,0,0,1-.57077-.74933,6.06177,6.06177,0,0,1-.71813-1.66686,5.00761,5.00761,0,0,1-.14505-1.89565,3.0445,3.0445,0,0,1,3.07434-2.78568,11.20918,11.20918,0,0,1,1.56609.13755,1.50536,1.50536,0,0,0,.76235-.03924c.096-.03822.184-.126.22851-.36585a1.28417,1.28417,0,0,0-.13144-.7593,2.63768,2.63768,0,0,0-.70017-.76166c-.6262-.48549-1.53881-.93817-2.3695-1.50868a23.56279,23.56279,0,0,1-4.496-3.90954,21.25519,21.25519,0,0,1-5.08132-10.43206,22.99073,22.99073,0,0,0,6.0315,9.51832,22.51422,22.51422,0,0,0,4.469,3.32392c.79527.46083,1.64864.807,2.59244,1.44119a4.56662,4.56662,0,0,1,1.29309,1.30123,3.32819,3.32819,0,0,1,.47831,2.01373,2.58829,2.58829,0,0,1-1.20909,2.0139,3.47452,3.47452,0,0,1-2.04166.41253c-.55335-.03136-1.00025-.10061-1.3112-.076a.832.832,0,0,0-.5622.208A1.66757,1.66757,0,0,0,339.83919,166.37881Zm12.44139,58.913a3.55814,3.55814,0,0,0,1.69,1.68981,9.51388,9.51388,0,0,0,2.824.94563,23.06166,23.06166,0,0,0,3.21907.31658,25.79806,25.79806,0,0,1,7.18082.96937,9.33454,9.33454,0,0,1,3.44222,2.06294,5.75755,5.75755,0,0,1,1.27373,1.8392,4.69587,4.69587,0,0,1,.35277,2.34292,6.19085,6.19085,0,0,1-2.0139,3.77655,9.84856,9.84856,0,0,1-3.34863,2.02456,35.05518,35.05518,0,0,1-6.94148,1.50675,57.75428,57.75428,0,0,1-13.88414.9162,27.382,27.382,0,0,1-6.84012-1.47239,17.12738,17.12738,0,0,1-5.93871-3.53469,18.29589,18.29589,0,0,0,6.17366,2.781,27.73182,27.73182,0,0,0,6.67437.82947,64.1123,64.1123,0,0,0,13.42025-1.70653,39.51512,39.51512,0,0,0,6.4159-1.639,7.3013,7.3013,0,0,0,2.45763-1.5648,3.58877,3.58877,0,0,0,1.14037-2.16811,2.477,2.477,0,0,0-.86769-1.96919,6.64025,6.64025,0,0,0-2.43356-1.39772,23.94559,23.94559,0,0,0-6.40544-.754,16.43155,16.43155,0,0,1-7.2578-1.6786,6.19792,6.19792,0,0,1-2.9227-3.20047,4.89242,4.89242,0,0,1,.6686-4.52834,4.35766,4.35766,0,0,1,1.944-1.46258,6.17353,6.17353,0,0,1,2.12839-.33867,9.875,9.875,0,0,0,1.49667-.07408,1.22687,1.22687,0,0,0,.76294-.3786,1.72482,1.72482,0,0,0,.03913-1.86273,2.05941,2.05941,0,0,0-.30876-.45772,4.01668,4.01668,0,0,0-.49042-.45563,7.1474,7.1474,0,0,0-1.25964-.77533c-.93212-.46244-1.99915-.81628-3.09466-1.22565l-1.64483-.66635c-.53781-.24754-1.06977-.50763-1.59793-.77163a29.73654,29.73654,0,0,1-5.82105-3.98212,23.72484,23.72484,0,0,1-7.40976-11.59842,25.204,25.204,0,0,0,8.29074,10.52222,28.70288,28.70288,0,0,0,5.745,3.38412l1.54015.628,1.56931.54928a35.06129,35.06129,0,0,1,3.35088,1.15061,9.39727,9.39727,0,0,1,1.70712.946,6.32684,6.32684,0,0,1,.80057.67471,4.53124,4.53124,0,0,1,1.309,3.15657,3.686,3.686,0,0,1-.80936,2.37293,3.73643,3.73643,0,0,1-2.16758,1.27658,11.46949,11.46949,0,0,1-1.92588.17469,3.66145,3.66145,0,0,0-1.24645.20782,1.68144,1.68144,0,0,0-.74515.604A2.28583,2.28583,0,0,0,352.28059,225.29183ZM336.6563,272.02011a2.638,2.638,0,0,0-.82995-.92847c-.77886-.65477-2.22724-1.12718-3.48425-2.33707a4.12226,4.12226,0,0,1-.805-1.10477,3.11037,3.11037,0,0,1-.3034-1.32927,2.536,2.536,0,0,1,.32886-1.27834,1.52032,1.52032,0,0,1,.965-.72612,1.62752,1.62752,0,0,0,.00021,1.75311,2.21957,2.21957,0,0,0,.48619.61173,3.98093,3.98093,0,0,0,.64266.41661,22.65966,22.65966,0,0,1,3.81675,1.85662,4.34277,4.34277,0,0,1,1.65266,2.39116,3.19566,3.19566,0,0,1-.05789,1.65025,3.42344,3.42344,0,0,1-.736,1.29582,4.20945,4.20945,0,0,1-2.20692,1.28258,6.94052,6.94052,0,0,1-2.27125.11621c1.19547-.92016,2.40161-1.70385,2.74891-2.62948A1.20952,1.20952,0,0,0,336.6563,272.02011Zm-19.52959-6.97547a2.20754,2.20754,0,0,1,.89138,1.36336,3.68335,3.68335,0,0,1-.04535,1.73768,6.86907,6.86907,0,0,1-1.82446,2.83913,18.88172,18.88172,0,0,0-1.89409,2.03764,2.42548,2.42548,0,0,0-.5883,1.74277,2.19577,2.19577,0,0,0,1.08253,1.3788,3.94828,3.94828,0,0,0,2.1478.60653c1.66526.00048,3.44571-.91368,5.24562-1.92931a9.30125,9.30125,0,0,1-1.96329,2.46626,6.958,6.958,0,0,1-2.99136,1.56545,5.52531,5.52531,0,0,1-3.66543-.46164,5.15259,5.15259,0,0,1-1.57472-1.21064,3.94648,3.94648,0,0,1-.69476-4.13586,5.69494,5.69494,0,0,1,1.01456-1.62666,12.59843,12.59843,0,0,1,2.50893-2.04263,7.145,7.145,0,0,0,1.98243-1.74239A2.64164,2.64164,0,0,0,317.12671,265.04465Zm.89878-55.6099a2.15953,2.15953,0,0,1,.94439,1.405,3.64486,3.64486,0,0,1-.09365,1.81042,6.50916,6.50916,0,0,1-2.10926,2.83661,23.42368,23.42368,0,0,0-2.20746,1.93167,2.57538,2.57538,0,0,0-.83917,1.77579,1.8837,1.8837,0,0,0,1.00207,1.396,3.668,3.668,0,0,0,2.19427.56193c1.69678-.11621,3.40872-1.31737,4.98355-2.76848a8.07764,8.07764,0,0,1-1.57992,2.88994,6.36387,6.36387,0,0,1-2.96938,1.95606,5.35424,5.35424,0,0,1-3.86484-.39753,4.89217,4.89217,0,0,1-1.633-1.322,3.94052,3.94052,0,0,1-.82732-2.17133,4.15842,4.15842,0,0,1,.50849-2.18811,6.00486,6.00486,0,0,1,1.2219-1.54095,14.371,14.371,0,0,1,2.78177-1.84435,6.36112,6.36112,0,0,0,2.141-1.66665A2.52164,2.52164,0,0,0,318.02549,209.43475Zm4.43245-10.05222a8.12213,8.12213,0,0,0,3.67159,1.06055,8.22278,8.22278,0,0,0,3.73517-.82684,9.32849,9.32849,0,0,0,3.38149-2.70635,5.80232,5.80232,0,0,1-2.19878,4.46874,7.31472,7.31472,0,0,1-9.88235-.32211,5.78086,5.78086,0,0,1-1.88723-4.60805A9.14946,9.14946,0,0,0,322.45794,199.38253Zm-3.13861-19.902a5.42787,5.42787,0,0,1-3.20379,1.2479,5.238,5.238,0,0,1-3.1496-.89588,4.48671,4.48671,0,0,1-1.84269-2.44133,4.78859,4.78859,0,0,0,4.80515,1.82923,4.227,4.227,0,0,0,2.046-1.21289,3.48329,3.48329,0,0,0,.93421-1.97525,1.14963,1.14963,0,0,1,2.10733-.50077l.071.11064a6.38157,6.38157,0,0,0,4.17333,3.07868,3.48333,3.48333,0,0,0,2.20917-.48517,2.125,2.125,0,0,0,1.13431-1.53693l.01056-.11857a1.23252,1.23252,0,0,1,1.99208-.85755c.89347.7065,1.74958,1.39172,2.63388,1.98034a9.72975,9.72975,0,0,0,2.791,1.32241,5.85008,5.85008,0,0,0,3.02261-.01533,3.92566,3.92566,0,0,0,2.52131-1.90926,3.9235,3.9235,0,0,1-2.1278,2.83291,6.3985,6.3985,0,0,1-3.70156.77082,10.12434,10.12434,0,0,1-3.59151-1.0962,17.74332,17.74332,0,0,1-1.572-.88784c-.04937.08775-.09375.17979-.14875.26212a5.23757,5.23757,0,0,1-1.54374,1.5135,5.91293,5.91293,0,0,1-4.02013.88178,7.15114,7.15114,0,0,1-3.54423-1.66279,9.32411,9.32411,0,0,1-1.12209-1.16127A6.01427,6.01427,0,0,1,319.31933,179.48055Zm16.5133,34.87728a9.95167,9.95167,0,0,0,2.67692.46233,5.92048,5.92048,0,0,1,1.88519.54665,3.91455,3.91455,0,0,1,1.66729,1.62548,4.38953,4.38953,0,0,1-.15068,4.27233,5.32707,5.32707,0,0,1-3.14767,2.27993,7.31746,7.31746,0,0,1-3.49851.07349,11.472,11.472,0,0,1-3.0529-1.17178c2.15134-.05918,4.26585-.05248,5.806-.889a3.59569,3.59569,0,0,0,1.66215-1.54894,2.03636,2.03636,0,0,0-.00123-1.74958,1.24932,1.24932,0,0,0-.533-.54129,3.86179,3.86179,0,0,0-1.09668-.385c-.45569-.11251-.9913-.19817-1.56352-.36161a7.19263,7.19263,0,0,1-.889-.30651,5.30938,5.30938,0,0,1-.87851-.5087,4.785,4.785,0,0,1-1.8913-3.19414,3.721,3.721,0,0,1,1.01376-3.19972A3.91635,3.91635,0,0,0,335.83263,214.35783Zm-20.3909,19.63455a4.9993,4.9993,0,0,0,2.59212-.95442,4.36438,4.36438,0,0,0,1.54738-2.05983,1.18022,1.18022,0,0,1,2.0898-.31487l.07054.10083a5.58609,5.58609,0,0,0,4.158,2.27114,5.6486,5.6486,0,0,0,4.38656-1.78088l.08582-.095a1.20555,1.20555,0,0,1,1.70267-.08625,1.24576,1.24576,0,0,1,.22364.27113,5.03,5.03,0,0,0,2.20976,1.86911,5.672,5.672,0,0,0,3.01548.50264,6.01626,6.01626,0,0,0,4.92072-4.12653,5.49414,5.49414,0,0,1-1.23573,3.56841,6.50008,6.50008,0,0,1-3.32976,2.24734,7.15294,7.15294,0,0,1-6.624-1.54384,7.96029,7.96029,0,0,1-1.92266,1.21981,7.84015,7.84015,0,0,1-3.59258.64014,7.6903,7.6903,0,0,1-4.93943-2.233,6.43636,6.43636,0,0,1-5.42578,2.1166,5.84782,5.84782,0,0,1-3.35061-1.57156,4.98169,4.98169,0,0,1-1.59332-3.08056A5.385,5.385,0,0,0,315.44173,233.99238Zm6.22131,22.88026a5.62221,5.62221,0,0,1-2.67419-4.31071,8.31421,8.31421,0,0,0,3.6404,2.42916,7.32618,7.32618,0,0,0,3.82512.29745,6.951,6.951,0,0,0,3.3363-1.80806,7.73465,7.73465,0,0,0,2.19213-3.75162,5.41894,5.41894,0,0,1-.51642,5.0542,6.9296,6.9296,0,0,1-4.46649,3.14821A7.13382,7.13382,0,0,1,321.663,256.87263Zm3.48044-104.27038a71.13137,71.13137,0,0,1-3.68741,7.91166,6.29123,6.29123,0,0,0-.67954,1.67292.89555.89555,0,0,0,.23677.89942.40541.40541,0,0,0,.22251.12554c.02294-.01635-.02262.01458.14988-.07837.16328-.08754.44148-.30828.88387-.5674a3.22007,3.22007,0,0,1,1.77933-.43269,3.62681,3.62681,0,0,1,1.59777.529,9.17877,9.17877,0,0,1,1.03289.73014,6.69178,6.69178,0,0,0,1.42136.99993,1.69916,1.69916,0,0,0,1.21681-.01206,2.55352,2.55352,0,0,0,1.15945-.84389,4.05578,4.05578,0,0,0,.33084-3.40218,18.90745,18.90745,0,0,0-1.82366-3.82372,11.78676,11.78676,0,0,1,3.04363,3.30575,6.35066,6.35066,0,0,1,.74466,2.342,4.777,4.777,0,0,1-.46619,2.62235,4.40326,4.40326,0,0,1-2.03271,1.97921,4.05416,4.05416,0,0,1-3.0083.25263A7.96518,7.96518,0,0,1,325.04684,165.5a2.83813,2.83813,0,0,0-1.17537-.674.63189.63189,0,0,0-.1168.01056.51849.51849,0,0,0-.176.07086c-.18826.09354-.476.3302-.95211.5808a2.85333,2.85333,0,0,1-1.939.27917,2.938,2.938,0,0,1-1.59-.99189,3.33229,3.33229,0,0,1-.73485-1.55532,3.48349,3.48349,0,0,1,.1108-1.60468,7.08512,7.08512,0,0,1,1.20094-2.21A71.12817,71.12817,0,0,1,325.14349,152.60225Zm-13.275,133.24416a4.28949,4.28949,0,0,1-.03843-4.07051,4.213,4.213,0,0,0,.87712,3.54552,4.08273,4.08273,0,0,0,2.8937,1.59262,3.96563,3.96563,0,0,0,2.88024-1.13072,3.59179,3.59179,0,0,0,1.11523-2.0988,4.26233,4.26233,0,0,1,.00391-.5957l.00557-.07258a1.2369,1.2369,0,0,1,2.47.07349c.00075.04165-.00579.08142-.00611.12286h.00606a2.5877,2.5877,0,0,0,1.00416,1.87458,3.16167,3.16167,0,0,0,2.14442.7564,3.43788,3.43788,0,0,0,2.14533-.95554,3.67481,3.67481,0,0,0,1.14514-2.1017l.01978-.13546a1.22569,1.22569,0,0,1,2.39443-.14913,4.73818,4.73818,0,0,0,1.87463,2.46336,5.43737,5.43737,0,0,0,3.14842.98776,5.639,5.639,0,0,0,3.26871-1.18786,5.70727,5.70727,0,0,0,2.08916-3.11712,5.44312,5.44312,0,0,1-1.40153,3.8338,6.40635,6.40635,0,0,1-3.78438,2.1486,6.89513,6.89513,0,0,1-4.45153-.80776,6.73847,6.73847,0,0,1-1.55923-1.16374,6.32792,6.32792,0,0,1-.90339,1.13265,5.97246,5.97246,0,0,1-3.84216,1.7469,5.69325,5.69325,0,0,1-4.02034-1.45368,5.41722,5.41722,0,0,1-.52821-.54124,5.90041,5.90041,0,0,1-5.45794,2.03378A5.10117,5.10117,0,0,1,311.86845,285.84642Zm53.88085,7.44407a41.936,41.936,0,0,0,6.51447-2.64369c1.0048-.50956,1.77933-1.15168,1.85464-1.70669a2.77189,2.77189,0,0,0-.93716-2.16886,12.78454,12.78454,0,0,0-1.17821-1.10472,13.08726,13.08726,0,0,0-4.297-2.43324,26.00939,26.00939,0,0,0-6.78919-1.13168l-3.61167-.206-1.83883-.122-.92563-.07724a5.3,5.3,0,0,1-.55978-.07242c-.18788-.03195-.35035-.07113-.52-.1093a20.85145,20.85145,0,0,1-3.66452-1.29909,14.812,14.812,0,0,1-1.75311-.94927,6.564,6.564,0,0,1-1.68965-1.49249,3.09845,3.09845,0,0,1-.617-1.38791,2.62324,2.62324,0,0,1,.3465-1.70626,4.7088,4.7088,0,0,1,1.877-1.59182c.16049-.0789.30517-.15717.47922-.23457a5.02886,5.02886,0,0,1,.55743-.20788,5.828,5.828,0,0,1,1.10965-.2283,11.6091,11.6091,0,0,1,2.01765-.01619c.62148.03683,1.21145.087,1.73516.08405a4.80258,4.80258,0,0,0,1.42179-.229,2.424,2.424,0,0,0,1.03166-.60862.86329.86329,0,0,0,.20713-.77066,2.327,2.327,0,0,0-.65381-1.04576A8.45706,8.45706,0,0,0,354.601,268.814a23.12916,23.12916,0,0,0-3.027-1.71543c-2.12743-1.03032-4.42709-1.85325-6.63867-2.97035a15.26922,15.26922,0,0,1-5.809-4.642,8.89652,8.89652,0,0,1-1.43449-3.44158,6.28239,6.28239,0,0,1,.428-3.61611,7.13614,7.13614,0,0,0,1.60259,6.61251,14.65358,14.65358,0,0,0,5.76933,3.89212c2.18178.93072,4.49983,1.61589,6.79841,2.55685a21.64869,21.64869,0,0,1,3.37618,1.70106,10.34364,10.34364,0,0,1,1.6101,1.19408,4.33272,4.33272,0,0,1,1.27765,1.97691,3.02413,3.02413,0,0,1-.5436,2.64765,4.53265,4.53265,0,0,1-1.964,1.3677,6.68009,6.68009,0,0,1-2.137.41854c-.68747.02026-1.307-.02074-1.89479-.03865a9.35572,9.35572,0,0,0-1.60994.0476,3.39884,3.39884,0,0,0-.66292.15357,2.58139,2.58139,0,0,0-.29.117l-.33138.17453a2.56473,2.56473,0,0,0-.8842.70259c-.0194.06808-.003.03248-.00611.036a.91034.91034,0,0,0,.14838.23763,7.65977,7.65977,0,0,0,2.50341,1.62334,18.35942,18.35942,0,0,0,3.18246,1.10049c.126.0268.25826.05752.36928.07446a2.64144,2.64144,0,0,0,.34087.03972l.88516.066,1.7871.103,3.644.17636a28.328,28.328,0,0,1,7.48583,1.334,17.03978,17.03978,0,0,1,3.5318,1.75445,15.66281,15.66281,0,0,1,3.01,2.60584,7.02922,7.02922,0,0,1,1.16653,1.8756,3.8707,3.8707,0,0,1-1.16755,4.65989,8.81007,8.81007,0,0,1-1.777,1.11319,38.14212,38.14212,0,0,1-7.026,2.56709,38.60061,38.60061,0,0,1-28.57711-3.66645A41.42039,41.42039,0,0,0,365.7493,293.29049Z" fill="#abb5c9"/></svg>