<svg id="Слой_1" data-name="Слой 1" xmlns="http://www.w3.org/2000/svg" viewBox="0 0 1003 1030"><title>Christmas flags</title><path d="M963.33561,10.98259H40.31715A21.12177,21.12177,0,0,0,21.25947,41.21085l461.50943,965.7917a21.12153,21.12153,0,0,0,38.115,0l461.509-965.7917A21.12137,21.12137,0,0,0,963.33561,10.98259ZM585.56991,727.034a308.89172,308.89172,0,0,0-8.25514-30.67026,102.93878,102.93878,0,0,0-7.4974-16.82895,5.70655,5.70655,0,0,1,7.3366-7.90691,71.1308,71.1308,0,0,1,15.13023,9.26471q4.29237,6.76083,9.007,13.24193Zm-33.91022,70.96312a181.51081,181.51081,0,0,0-15.042-22.61338,5.7004,5.7004,0,0,1,7.088-8.57869c6.1033,3.14161,12.13439,6.49192,18.09738,9.96547Zm-43.91833,91.90725c-.4783-13.51113.47888-27.39761.47888-40.75028V766.25348a469.96485,469.96485,0,0,1,28.05846,63.93133ZM441.467,775.97c5.51182-3.18113,11.07379-6.26751,16.70269-9.165a5.70036,5.70036,0,0,1,7.088,8.57869,181.7321,181.7321,0,0,0-14.0745,20.91944ZM401.59462,692.53q4.03419-5.63315,7.77587-11.46349a71.39061,71.39061,0,0,1,15.34937-9.43859,5.70715,5.70715,0,0,1,7.33836,7.90691,102.78949,102.78949,0,0,0-7.4974,16.82895c-3.00091,9.19446-5.56216,18.63627-7.69215,28.12979ZM369.77653,119.68834a264.45652,264.45652,0,0,0,5.24974,34.72465,71.27984,71.27984,0,0,1-4.16748,17.42384,5.70657,5.70657,0,0,1-10.77893-.40229,102.88225,102.88225,0,0,0-6.599-17.20177,308.74263,308.74263,0,0,0-17.187-29.62253c-1.08656-1.65325-2.20043-3.28924-3.31938-4.9219Zm53.92215,0c.52318,1.704,1.03523,3.41393,1.58632,5.1026a102.83922,102.83922,0,0,0,7.4974,16.82895,5.70678,5.70678,0,0,1-7.33738,7.90691,71.14022,71.14022,0,0,1-15.13023-9.26471q-6.74356-10.62262-14.49035-20.57375Zm183.98154,0q-7.71245,9.861-14.45113,20.39987a71.3867,71.3867,0,0,1-15.35015,9.43859,5.70691,5.70691,0,0,1-7.33758-7.90691,102.82263,102.82263,0,0,0,7.4974-16.82895c.55108-1.68867,1.06314-3.39861,1.58632-5.1026Zm62.80253,0q-1.85845,2.70044-3.66518,5.43425a308.963,308.963,0,0,0-17.18684,29.62292,102.85417,102.85417,0,0,0-6.598,17.20128,5.7073,5.7073,0,0,1-10.7801.40268,71.07054,71.07054,0,0,1-4.132-17.12127,264.192,264.192,0,0,0,5.42693-35.53986Zm173.85693,7.03442c-2.11106,2.78469-5.39688,4.50468-8.03638,5.88542a469.99768,469.99768,0,0,1-78.09707,31.87419q5.14475-5.144,10.28853-10.288,17.25231-17.253,34.5056-34.506h43.07746A8.82242,8.82242,0,0,1,844.33967,126.72277ZM782.402,119.68834q-12.10346,12.10346-24.20673,24.20692-5.14329,5.14344-10.28756,10.28765c3.28621-10.98061,7.41271-22.73769,12.06258-34.49457ZM763.68857,341.20567a5.56446,5.56446,0,0,1-1.33849-6.483,71.17409,71.17409,0,0,1,9.26481-15.13023q6.53427-4.14821,12.80685-8.69207l-15.076,31.54928A5.55024,5.55024,0,0,1,763.68857,341.20567ZM708.08683,470.645c-24.492-14.96787-43.12254-32.51826-55.55842-52.42277h78.32772c.45351.69676.85356,1.40083,1.277,2.10169ZM429.86188,640.88523c.8918-2.55667,1.70906-5.10407,2.434-7.63917,16.75284-32.45367,37.34923-56.43959,61.35925-71.44v78.32782C472.99125,653.58271,450.45651,653.831,429.86188,640.88523ZM493.65515,682.215v72.0047a3.44035,3.44035,0,0,0-1.77834-1.06773c-19.702-4.71651-35.18255-24.34333-51.57165-45.1207l-.15572-.19709q-2.79191-3.54068-5.63105-7.10575a102.61128,102.61128,0,0,0,16.55829,1.54739,54.49547,54.49547,0,0,0,19.58535-3.352A56.49083,56.49083,0,0,0,493.65515,682.215ZM219.14827,310.72762q5.72931,4.11118,11.66214,7.92057a71.3862,71.3862,0,0,1,9.43829,15.34976,5.723,5.723,0,0,1-6.18545,7.94223Zm51.71332,108.21975c.29857-.48269.56806-.96918.88088-1.44982h78.32811C337.727,437.2558,319.2889,454.69906,295.06383,469.595Zm.88088-16.01491c-13.44809-20.66312-13.6969-43.19815-.75033-63.79278,2.55657.89171,5.104,1.709,7.63888,2.434,32.45406,16.75284,56.43949,37.34923,71.43956,61.35876Zm42.88661-189.83739-50.91519-50.9147a3.43665,3.43665,0,0,0,2.01193-.503c17.26627-10.596,42.091-7.66366,68.37191-4.56137l.24861.02966c2.98569.35321,5.9907.7073,9.00664,1.04275a102.63184,102.63184,0,0,0-12.80276,10.61452,54.49865,54.49865,0,0,0-11.47793,16.21825A56.482,56.482,0,0,0,314.62908,213.09507Zm-10.29946,10.299a56.4921,56.4921,0,0,0-28.07349,4.44331A54.52488,54.52488,0,0,0,260.037,239.31577a102.67021,102.67021,0,0,0-10.61423,12.80237c-.33487-3.01525-.68925-6.02114-1.04206-9.00586l-.03044-.2492c-3.10161-26.28071-6.03383-51.10594,4.56167-68.37191a3.43465,3.43465,0,0,0,.50249-2.01183Zm-9.03376,77.93022c-2.21995-1.23809-4.51522-2.4187-6.85889-3.56175,5.40117-23.73672,21.51531-39.50868,45.64866-44.61265l55.38553,55.38592C361.81489,314.9232,330.19838,312.50148,295.29586,301.32426ZM684.04012,185.53384a54.50787,54.50787,0,0,0-11.4789-16.21864,102.56,102.56,0,0,0-12.802-10.61413c3.01535-.33584,6.02036-.68993,9.00586-1.04275l.24881-.03005c26.28071-3.1019,51.10545-6.03422,68.37191,4.56137a3.43531,3.43531,0,0,0,2.01173.503l-50.91421,50.91509A56.50393,56.50393,0,0,0,684.04012,185.53384Zm-15.01353,68.12828c24.12086,5.10192,40.23071,20.8607,45.6393,44.57762q-3.65718,1.76522-7.12175,3.6802c-34.795,11.10228-66.31959,13.499-93.90385,7.12848Zm-65.685,45.08694c-6.38743-27.65637-3.96609-59.27258,7.21151-94.17549,1.2376-2.22,2.4186-4.51522,3.56175-6.85831,23.73682,5.4001,39.50829,21.51512,44.61226,45.64779ZM642.228,352.5389c-16.80182,10.75931-35.39057,18.59724-54.67989,24.32986-3.31978.98684-6.66063,1.80078-10.00928,2.52027,2.95174-1.91455,5.96709-3.75543,9.09562-5.45045C604.24433,364.39843,622.83893,356.82278,642.228,352.5389ZM622.5429,410.93968a28.53653,28.53653,0,0,1-12.56429,18.23,16.68114,16.68114,0,0,1-9.3739,3.022c-7.362-.1929-9.89766-5.98641-15.30527-9.37809-6.45768-4.0499-14.241-6.84435-21.41208-9.32823-2.7121-.939-5.46089-1.76985-8.22411-2.54564,2.76323-.77579,5.512-1.60661,8.22411-2.54574,7.17112-2.48388,14.9544-5.27823,21.41208-9.32813,5.40761-3.39169,7.9433-9.18529,15.30527-9.37819a16.6819,16.6819,0,0,1,9.3739,3.022A28.53648,28.53648,0,0,1,622.5429,410.93968Zm-31.24847-64.06315a16.6814,16.6814,0,0,1-4.49161,8.76515c-5.34263,5.06943-11.23185,2.76567-17.45419,4.19119-7.42988,1.70262-14.90952,5.23052-21.737,8.54483-2.581,1.25379-5.11236,2.60955-7.61488,4.01478,1.40523-2.50213,2.76128-5.03294,4.01527-7.615,3.3147-6.82738,6.8425-14.30663,8.54473-21.7368,1.42552-6.222-.87814-12.11166,4.19109-17.4538a16.68318,16.68318,0,0,1,8.76485-4.49151,28.53559,28.53559,0,0,1,21.77485,4.00668A28.53429,28.53429,0,0,1,591.29444,346.87653Zm-58.13939-12.26182c.73335-3.44115,1.56427-6.87519,2.57784-10.2859,5.70638-19.19789,13.49727-37.70283,24.17921-54.44259-4.27324,19.48895-11.87563,38.17575-21.46106,55.8686C536.8013,328.8,535.01457,331.73781,533.15505,334.61471Zm26.18353,216.89106c-10.7598-16.80192-18.59734-35.39106-24.33006-54.67989-.98723-3.31938-1.80117-6.66072-2.52008-10.00928,1.91435,2.95222,3.75533,5.967,5.45,9.096C547.47895,513.522,555.05421,532.11674,559.33858,551.50577Zm10.96509-363.59714c-16.75284,32.45377-37.34923,56.43969-61.35925,71.44V181.02076c20.66332-13.44829,43.19864-13.6971,63.79327-.75081C571.84608,182.82661,571.02882,185.37392,570.30367,187.90863ZM519.892,301.89828a16.68182,16.68182,0,0,1,3.022,9.3739c-.1928,7.36207-5.98641,9.89766-9.37819,15.30537-4.04981,6.45768-6.84426,14.24106-9.32823,21.41237-.939,2.71229-1.76975,5.46059-2.54545,8.22372-.77589-2.76313-1.60681-5.51143-2.54584-8.22372-2.48378-7.17132-5.27823-14.9547-9.32823-21.41237-3.39159-5.40771-9.18519-7.9433-9.37819-15.30537a16.68484,16.68484,0,0,1,3.022-9.3739,28.5365,28.5365,0,0,1,18.23027-12.5638A28.53573,28.53573,0,0,1,519.892,301.89828Zm-25.51262-42.54969c-24.07247-15.03919-44.71627-39.10766-61.49273-71.6912-.69393-2.445-1.48231-4.90317-2.33079-7.3689,20.603-12.9656,43.15025-12.72284,63.82352.73227Zm-29.71893,65.894c-9.53957-17.60952-17.11581-36.20413-21.3992-55.59326,10.7598,16.80153,18.59714,35.39116,24.32986,54.6795.98645,3.31978,1.8002,6.66072,2.52027,10.00967C468.19678,331.38636,466.3558,328.3711,464.66039,325.24257Zm4.78432,161.29781c-.73452,3.44115-1.56427,6.8748-2.57784,10.28551-5.70638,19.19789-13.49747,37.70283-24.17941,54.4422,4.27246-19.48856,11.87563-38.17536,21.46106-55.86821C465.79827,492.35505,467.585,489.41727,469.44472,486.54037Zm-31.8458-165.95724a16.6809,16.6809,0,0,1,8.76544,4.49151c5.06943,5.34175,2.76479,11.23176,4.19128,17.4538,1.702,7.42968,5.23,14.90933,8.54376,21.7367,1.25477,2.58165,2.61023,5.11295,4.01527,7.61507-2.50252-1.40523-5.03294-2.761-7.61488-4.01478-6.82747-3.3147-14.30711-6.8426-21.7368-8.54483-6.22253-1.42552-12.11156.87814-17.45419-4.19119a16.68457,16.68457,0,0,1-4.49063-8.76554,28.53714,28.53714,0,0,1,4.0059-21.77446A28.5364,28.5364,0,0,1,437.59892,320.58313Zm9.3374,89.63188c-2.763.77579-5.51182,1.60661-8.22431,2.54574-7.17151,2.48388-14.955,5.27823-21.41189,9.32813-5.40761,3.39169-7.94389,9.18529-15.30605,9.37819a16.68235,16.68235,0,0,1-9.3739-3.022A28.53817,28.53817,0,0,1,380.05667,410.215a28.53822,28.53822,0,0,1,12.56351-18.23,16.68159,16.68159,0,0,1,9.3739-3.022c7.36217.1929,9.89844,5.98641,15.30605,9.37809,6.4569,4.0499,14.24038,6.84435,21.41189,9.32823C441.4245,408.6085,444.17329,409.43922,446.93632,410.215ZM416.477,373.42585c3.045,1.64974,5.98309,3.437,8.8595,5.29658-3.44076-.73393-6.8747-1.56437-10.285-2.57823-19.19779-5.706-37.7038-13.497-54.443-24.17843C380.09726,356.23813,398.78417,363.8409,416.477,373.42585Zm-16.7062-75.18914L344.3845,242.85079c5.10143-24.12086,20.86022-40.2312,44.57752-45.6393q1.76536,3.65732,3.6802,7.12214C403.74451,239.12834,406.14126,270.65274,399.77081,298.23671Zm15.28068,146.04922c3.319-.98645,6.66-1.80029,10.00928-2.51988-2.95271,1.91455-5.96689,3.75553-9.0964,5.45054-17.60913,9.54006-36.20374,17.11581-55.59277,21.39959C377.17363,457.85648,395.76218,450.01894,415.05149,444.28593Zm-3.74616,29.99262a16.681,16.681,0,0,1,4.49141-8.76554c5.34185-5.06933,11.23185-2.76528,17.4536-4.19119,7.43047-1.70223,14.90933-5.23013,21.7366-8.54444,2.58213-1.25419,5.11353-2.60994,7.616-4.01517-1.4062,2.50252-2.76147,5.03342-4.01527,7.61546-3.3147,6.827-6.84269,14.30663-8.54493,21.7368-1.42533,6.222.87814,12.11156-4.19109,17.4538a16.68185,16.68185,0,0,1-8.76563,4.491c-7.45427,1.68028-15.966.06771-21.77407-4.00629A28.53507,28.53507,0,0,1,411.30533,474.27855Zm71.40248,44.97786a16.67879,16.67879,0,0,1-3.022-9.3739c.1928-7.36207,5.98621-9.89766,9.37721-15.30537,4.05059-6.45768,6.84426-14.24106,9.328-21.41189.93922-2.71239,1.76995-5.46108,2.54662-8.22421.77511,2.76313,1.60564,5.51182,2.54486,8.22421,2.484,7.17083,5.27921,14.95421,9.32823,21.41189,3.39256,5.40771,9.186,7.9433,9.379,15.30537a16.68182,16.68182,0,0,1-3.022,9.3739,28.53682,28.53682,0,0,1-18.23008,12.56419A28.536,28.536,0,0,1,482.70782,519.25641ZM508.22025,682.215a56.48053,56.48053,0,0,0,22.99313,16.70884,54.49292,54.49292,0,0,0,19.58379,3.352,102.57759,102.57759,0,0,0,16.55829-1.54739q-2.84285,3.55458-5.63125,7.10575l-.154.19709c-16.39085,20.77738-31.87117,40.40419-51.57165,45.1207a3.43417,3.43417,0,0,0-1.77834,1.06773Zm0-42.08106V561.80611c24.07188,15.03968,44.71549,39.10805,61.49214,71.69169.69451,2.44495,1.48231,4.90268,2.33157,7.36841C551.44074,653.83181,528.89351,653.58944,508.22025,640.13393ZM565.00085,500.572a16.68294,16.68294,0,0,1-8.76563-4.49151c-5.06923-5.34224-2.76557-11.23176-4.19109-17.4538-1.70223-7.43017-5.23023-14.90981-8.54493-21.7368-1.2536-2.582-2.60906-5.11295-4.01527-7.615,2.50271,1.40474,5.03391,2.761,7.616,4.01478,6.82728,3.3147,14.30614,6.84211,21.7366,8.54473,6.22175,1.42552,12.11175-.87814,17.4536,4.19119a16.68119,16.68119,0,0,1,4.49141,8.76524c1.68018,7.45427.06771,15.966-4.00668,21.77436C580.96707,500.63976,572.45512,502.25223,565.00085,500.572Zm21.12093-52.8432c-3.04482-1.64974-5.98309-3.43657-8.85969-5.29609,3.44174.73393,6.87489,1.56427,10.286,2.57784,19.19779,5.70638,37.70283,13.49737,54.4422,24.17872C622.50231,464.917,603.81541,457.31418,586.12178,447.72884Zm101.10756,66.5645-23.41893,49.00844-50.682-50.68248C635.38,507.48,660.20065,508.05471,687.22934,514.29334Zm43.62679-110.63621H652.5284c15.03968-24.07227,39.10805-44.716,71.69169-61.49253,2.44495-.69412,4.90258-1.48221,7.36782-2.33118C744.554,360.43614,744.31125,382.98376,730.85613,403.65713ZM726.85628,228.35a56.48391,56.48391,0,0,0-28.07427-4.44321L749.6972,172.9916a3.43367,3.43367,0,0,0,.5023,2.01232c10.59647,17.266,7.66405,42.09072,4.56186,68.37181l-.02966.24881c-.3536,2.9851-.7072,5.9906-1.043,9.00625A102.59452,102.59452,0,0,0,743.07443,239.828,54.50669,54.50669,0,0,0,726.85628,228.35Zm7.42715-100.70293a5.70021,5.70021,0,0,1-11.07769,1.05416c-.95659-2.98608-1.86869-5.9945-2.75679-9.01288h15.00943C735.0119,122.32717,734.615,124.98014,734.28343,127.64706Zm-166.203-7.22078c-1.6595-.27154-3.375-.51489-5.11275-.73793h4.52791C567.69187,119.93452,567.8835,120.1802,568.0804,120.42628Zm-26.66865-.73793a49.48526,49.48526,0,0,0-9.4742,2.54252,56.48857,56.48857,0,0,0-22.99313,16.70933V119.68834Zm-47.03242,19.25185a56.48669,56.48669,0,0,0-22.99294-16.70933,49.48908,49.48908,0,0,0-9.4742-2.54252h32.46714Zm-54.023-19.25185c-1.73794.223-3.45325.46639-5.11275.73793.1967-.24608.38833-.49176.58465-.73793Zm-160.44962,8.50014a5.70061,5.70061,0,0,1-11.07847-1.05368q-.46483-3.74075-1.08382-7.44647h14.76726C281.67057,122.53421,280.80882,125.3715,279.90667,128.18849Zm-24.70219,25.48218q-5.14446-5.144-10.28834-10.288-11.84734-11.847-23.69428-23.69428h22.12006C247.90925,131.27429,251.96588,142.84959,255.20448,153.67067Zm-98.24774-33.98232h43.66757q16.99648,16.99663,33.99335,33.99325,5.14329,5.144,10.28756,10.288a469.96865,469.96865,0,0,1-78.09609-31.8738c-2.6397-1.38064-5.92552-3.10063-8.03717-5.88571A8.93329,8.93329,0,0,1,156.95674,119.68834Zm4.65436,40.8499a172.081,172.081,0,0,0,56.75777,17.05571,5.70017,5.70017,0,0,1,1.05416,11.07779A399.02842,399.02842,0,0,1,172.6,200.58708a4.519,4.519,0,0,0-3.73641,4.911l-28.019-58.63476A114.74318,114.74318,0,0,0,161.6111,160.53824Zm54.2334,84.52108a308.96047,308.96047,0,0,0,29.62331,17.18694,102.86548,102.86548,0,0,0,17.20128,6.59847,5.70694,5.70694,0,0,1,.40278,10.77961A71.06672,71.06672,0,0,1,245.95,283.7567a264.39682,264.39682,0,0,0-42.5213-5.92474l-33.12555-69.32119A308.42581,308.42581,0,0,0,215.8445,245.05932ZM316.05362,513.52008c26.56366-5.98123,50.98271-6.47641,72.90509-1.41342l-49.78843,49.78921Zm29.77689,62.31321L399.258,522.40563c6.38743,27.65647,3.96609,59.27219-7.21132,94.1751-1.23877,2.21995-2.419,4.51561-3.56175,6.85909a59.45623,59.45623,0,0,1-25.97863-12.70918ZM466.356,828.05453a469.06226,469.06226,0,0,1,27.29916-61.80105v82.90061c0,12.20708.81863,24.86524.59343,37.27088ZM613.63755,623.94368q-1.76507-3.65732-3.68-7.12224c-11.10247-34.7947-13.49922-66.319-7.12858-93.90346l54.32122,54.32131-15.20009,31.80882C634.53386,616.26929,625.01283,621.34965,613.63755,623.94368ZM799.89933,278.51115a264.547,264.547,0,0,0-42.435,5.79331,71.30553,71.30553,0,0,1-17.42453-4.16787,5.707,5.707,0,0,1,.40258-10.77912,102.8495,102.8495,0,0,0,17.20148-6.59857,308.77669,308.77669,0,0,0,29.62331-17.18733,308.33442,308.33442,0,0,0,45.62837-36.63051,4.70493,4.70493,0,0,0,.63226-.80379Zm34.19649-74.2024a4.55606,4.55606,0,0,0-3.58439-3.209,399.137,399.137,0,0,1-46.823-11.91573,5.70017,5.70017,0,0,1,1.05416-11.07779,172.09293,172.09293,0,0,0,56.75855-17.05532,114.6505,114.6505,0,0,0,21.26748-14.10563l-28.68448,60.02808A4.53946,4.53946,0,0,0,834.09582,204.30875ZM88.82583,55.74384a19.16883,19.16883,0,0,1,34.73236-11.20473,158.71069,158.71069,0,0,0,2.25664,18.317,19.17707,19.17707,0,0,1-36.989-7.11228ZM892.928,74.92719a19.15313,19.15313,0,0,1-16.12858-8.82242A158.3628,158.3628,0,0,0,879.73,41.84594,19.17618,19.17618,0,1,1,892.928,74.92719Z"/></svg>