<svg id="Слой_1" data-name="Слой 1" xmlns="http://www.w3.org/2000/svg" viewBox="0 0 1003 1030"><title>Christmas flags</title><path d="M963.00927,10.98259H39.9908A21.12161,21.12161,0,0,0,20.93332,41.21085l461.50923,965.79179a21.1216,21.1216,0,0,0,38.115,0l461.509-965.79179A21.12137,21.12137,0,0,0,963.00927,10.98259ZM672.34551,119.68834H750.955l-19.66145,23.78327-77.98427,43.4295-20.475-47.3788Zm-45.21193,81.78956-47.97789,26.719-19.83318-51.77245,46.82538-23.50616ZM591.7873,119.68834l2.40163,5.55748L548.5026,148.17963l-10.91475-28.49129ZM515.627,125.90073q12.83378,33.50032,25.66718,67.001,7.37436,19.2495,14.74853,38.4992c2.72732,7.11882,5.62129,21.39569,13.6487,24.0953,9.08391,3.05477,25.46735-9.949,33.04183-14.16739q22.30925-12.42369,44.61811-24.84758,15.309-8.52532,30.61776-17.05083c3.45423-1.92372,10.51958-4.18,13.09079-7.29016l-57.66148,69.75118-17.48775,7.23083a634.7447,634.7447,0,0,0-78.238-9.3536L515.627,217.39027Zm199.71086,83.83681q-10.58193,31.63807-21.16347,63.27594-2.37187,7.091-4.74354,14.18222-15.364-4.76686-30.906-8.73422C660.901,275.58742,715.33789,209.73754,715.33789,209.73754ZM606.06085,490.488l-56.43247-33.07091a433.48563,433.48563,0,0,1,77.98544,16.08058Zm3.31431,36.79834,43.08565,25.24918-46.268-1.77522ZM595.72861,392.502c13.38623,4.05781,25.60551-2.04412,29.27654-.59382,2.79,1.10236-2.275,24.19912-2.55325,24.735-1.11388,2.14736-4.94571-.1167-6.54549-.76223a412.81284,412.81284,0,0,0-55.95417-16.54111c-7.51808-1.22433-4.96093-5.63105-.137-28.60408,4.13274-19.68077,13.17372-52.3813,30.97878-66.27354,12.34183,2.65707,18.47049,4.21216,30.58927,7.77431,1.33341.392,3.74441,1.96314,2.78879,3.33109-10.33654,14.79536-32.07431,30.94853-39.49131,52.724C579.5491,383.35795,587.726,390.07634,595.72861,392.502Zm-82.04013-97.52552c1.38805.04625,4.15772.95484,3.65757,2.51344-5.40273,16.82993-21.25909,37.78205-21.77173,60.54979-.35536,15.78084,9.48083,20.22366,17.82886,20.56965,13.96327.579,23.71145-8.3572,27.62173-7.88573,2.97164.35848,5.06553,23.82932,4.9621,24.41416-.41351,2.34445-4.7131,1.13554-6.4206.91776a425.96044,425.96044,0,0,0-58.26467-2.00646c-7.57233.677-6.45924-4.19655-8.78769-27.51284-1.99436-19.9731-3.22923-53.664,9.628-71.47235C494.75413,294.57407,501.074,294.55689,513.68848,294.97645Zm-12.74636,286.7043-24.60521-22.61729,24.60521-68.6174,24.60482,68.6174Zm31.78589-2.59306,17.01492,47.45218-34.31826-31.54645Zm-46.26883,15.90573-34.31846,31.54645,17.01551-47.45218Zm-.202-377.60315-22.07947,42.44324a634.60235,634.60235,0,0,0-77.85645,9.43244l-18.73355-7.74621L309.729,191.53049,423.1567,254.69774c.22207.12333.45781.18753.68378.29467.226.10694.426.2492.66154.34209.12567.05.25427.06245.38033.10752,13.05488,4.68617,17.01258-13.73905,20.35772-22.47151q8.29495-21.65211,16.58931-43.30421,12.21411-31.88278,24.42782-63.76556ZM374.57757,473.73967A433.4952,433.4952,0,0,1,451.98578,457.576L395.82339,490.488Zm21.1139,77.02066-46.268,1.77522,43.08565-25.24918Zm1.82771-140.1319c-7.10028,2.72732-7.633-2.2461-17.53732-23.8945-8.47312-18.52025-20.716-50.5569-14.16271-70.99737a517.56112,517.56112,0,0,1,76.20632-17.25339c2.36065-.31184,9.40766-1.49831,9.73628.86019.13153.94254-9.47966,18.92147-11.892,19.27292-3.156.45956-10.07329-4.35111-28.22082-.61138-10.97524,2.26171-24.7141,10.29439-20.79582,22.07849.78116,2.34952,2.959,6.22916,7.77158,4.93322,5.5003-1.48094,16.27806-10.052,31.24515-12.71358,2.13877-.38014,8.12478-.87444,8.51527,1.11329.02342.11767-5.54636,20.76323-7.536,21.13888-1.65891.3132-8.56659-.77921-15.0311.71383-8.45419,1.9526-19.05553,9.57021-14.99129,20.75211,3.28426,9.03552,11.75406,13.60362,24.196,10.7358,14.66325-3.37949,22.379-12.3227,26.09278-12.85154,2.32064-.33057,15.36245,18.36492,15.519,19.54417.2974,2.24122-3.32992,2.15731-5.03938,2.36474A387.88148,387.88148,0,0,0,397.51919,410.62842ZM343.06547,278.82094q-15.33649,3.95458-30.5079,8.68582-1.71-5.11314-3.42008-10.2257-11.09477-33.1716-22.18934-66.3434Zm67.03069-159.1326h54.20023l-10.91475,28.49129-45.68691-22.93439Zm-14.361,33.22995,46.82655,23.50616-19.83337,51.77245-47.97848-26.71939Zm-66.197-33.22995,39.511,19.834-20.47481,47.37841-79.079-44.03873-19.1572-23.17364ZM107.68284,74.92719a19.18335,19.18335,0,1,1,19.18335-19.18335A19.18343,19.18343,0,0,1,107.68284,74.92719Zm19.84977,44.76115h26.855l40.87254,141.73246Zm57.84433,0h26.13591l35.19933,42.57906L275.70791,248.959l-49.52265,12.239Zm99.92988,157.96993,5.68471,16.9958q-25.03706,8.81364-49.45239,19.78693l-6.98964-24.23853ZM273.2776,436.40937c-10.94948-10.53441-40.15812-36.1971-34.9638-51.90866,8.6062-6.944,13.01878-10.24775,22.027-16.5177.99328-.69159,5.22749-3.55883,5.69759-2.55735,3.80549,8.10956,2.94334,23.11529,10.48836,32.35083,1.87767,2.2982,5.33853,3.58966,7.54579,2.02929,4.56284-3.22494,1.81581-6.7941,23.05811-19.23624,7.65273-4.48263,14.7294-7.04,11.84168-10.91611-6.98183-9.37175-25.14185-11.99311-32-17.24246-.92576-.70837,4.49532-3.99926,5.543-4.58762,9.15026-5.1387,13.80423-7.55223,23.238-12.06765,19.84157,2.51579,36.63051,32.64764,44.05649,46.67824,5.36956,10.14549,16.09131,25.90779,14.43981,37.40992-7.58151,3.37988-11.32064,5.20583-18.66681,9.13-1.27526.68144-4.62782,2.66761-5.73428,1.04733a3.17458,3.17458,0,0,1-.58309-1.63081c-1.27311-11.07886-4.1585-24.084-10.30707-33.87295-4.40906-7.01969-10.19369-7.136-20.097-1.678-11.83036,6.51993-26.68309,22.72383-16.72006,34.84456,5.43337,6.61008,14.05187,12.64528,22.73242,16.50677a4.91547,4.91547,0,0,1,1.6837,1.08031c1.11915,1.3219-2.06676,2.956-3.01535,3.63747-6.974,5.01128-10.38162,7.65917-17.00751,13.23968C294.07908,458.86117,281.88985,444.695,273.2776,436.40937ZM309.1453,499.746q13.02668-6.438,26.35174-11.95232l-18.10167,29.217Zm50.05734-13.13665,18.43654,14.53446-43.08546,25.24957ZM398.73122,687.2208,377.27308,642.316q-.29623-11.24376-.72593-22.478c-.58621-14.71594-8.32149-18.75345-19.19077-19.20169L343.91,572.49732l54.44552-2.08842,11.595,85.5248S403.92847,672.72732,398.73122,687.2208Zm11.9611-170.59023,62.30237-36.51011-24.606,68.61818-33.17063,1.27272ZM441.20764,568.765,424.1933,616.21445,417.882,569.66033ZM432.426,757.73343l12.74753-14.75477,35.20382,37.41226-24.62082,26.16538Zm32.434-37.54125,36.08216-41.76375,36.081,41.76336L500.94154,758.537ZM501.5,902.28278,469.60838,835.544l31.33316-33.29864,32.07373,34.08585ZM546.8673,807.3435l-25.36158-26.95259,35.204-37.41226L570.176,758.56552ZM580.921,736.08q-23.56031-27.27047-47.12082-54.54095-9.681-11.20541-19.36191-22.41082c-7.84671-9.08235-16.05833-12.65523-24.5976-2.77181q-5.62832,6.51437-11.25644,13.02873-17.074,19.76293-34.14868,39.526-11.37694,13.16836-22.75408,26.3371l-4.86863-10.18862,21.08561-58.80229,63.04372-57.95127,63.04275,57.95029,21.56449,60.13785ZM560.67661,568.765l23.32565.89532-6.31132,46.55452Zm25.98955-18.75365-33.17063-1.27272-24.606-68.61818,62.30237,36.51011ZM645.808,600.29175a33.99388,33.99388,0,0,0-7.95091-.64729,12.66609,12.66609,0,0,0-9.82858,5.05674c-6.21141,8.12791-2.81884,21.02492-3.02043,30.41872q-.09777,4.55464-.19553,9.10909l-21.18162,44.326-11.69727-32.62071,11.595-85.52538,55.54106,2.13057Zm-21.56293-99.14794,18.43615-14.53368L667.329,526.39221Zm60.873,16.885-19.12793-30.873q14.09216,5.77585,27.87054,12.57737ZM734.45236,448.359c-18.03767,15.38274-42.72971,14.17754-61.70133.322-4.73164-3.30807-7.1358-4.89829-12.01145-7.95052-38.31967-23.98895-17.93931-65.40691,11.1575-87.43974,4.26212-3.22728,8.86028-6.16769,14.0064-7.61761,5.14592-1.44972,10.93933-1.26277,15.52754,1.48153,4.58821,2.74449,7.60375,8.34666,6.42606,13.56167-.93591,4.14425-4.21763,7.391-7.83383,9.62134-3.616,2.2301-7.65976,3.67572-11.37372,5.73877-8.95863,4.97654-15.48929,14.34575-20.49647,22.96444-6.49514,11.17936,3.261,22.52537,12.34807,28.52485,10.10568,6.67194,25.584,11.4873,35.36306,1.08578,7.67049-8.15874,13.14953-19.98734,13.6085-31.24261.56221-13.78042-23.053-38.84461-1.15466-46.52427,3.03428-1.06392,6.559-2.08725,9.307-.4178a9.80666,9.80666,0,0,1,3.19254,3.791q.17007.30208.33526.60377C758.61732,386.62816,761.70058,421.11054,734.45236,448.359Zm26.01922-134.36074q-24.39806-10.92821-49.46371-19.6878l5.56958-16.65215,50.75634,12.54419ZM726.17614,248.959l29.39714-87.89267,34.20664-41.378h26.72719L775.6984,261.198ZM804.925,267.311l42.57145-147.62266h27.97084ZM892.60163,74.92719A19.18335,19.18335,0,1,1,911.785,55.74384,19.1833,19.1833,0,0,1,892.60163,74.92719Z"/></svg>