<svg id="Слой_1" data-name="Слой 1" xmlns="http://www.w3.org/2000/svg" viewBox="0 0 1003 1030"><title>Christmas flags</title><path d="M963.00929,10.98259H39.99082A21.12177,21.12177,0,0,0,20.93314,41.21085l461.50943,965.79179a21.1216,21.1216,0,0,0,38.115,0l461.509-965.79179A21.12137,21.12137,0,0,0,963.00929,10.98259Zm-70.40764,25.5779a19.18335,19.18335,0,1,1-19.18335,19.18335A19.1833,19.1833,0,0,1,892.60164,36.56049ZM257.478,119.68834l36.047,62.43439H221.37949l36.04743-62.43439Zm579.444,0,21.08951,36.52923-12.37891,25.90515H800.82348l36.04743-62.43439ZM757.07317,367.44969l-93.40253,53.92683L696.7958,364.1503l61.8877-.07084ZM740.80253,119.68834l36.04606,62.43439h-72.2619l36.04567-62.43439ZM525.135,517.36518l99.19789-57.272-33.0672,57.272Zm92.21684,83.28651-66.12542-.07572-30.00833-51.8427h-.002l-3.11683-5.38527ZM679.414,196.65582,643.27545,259.251l-36.2334-62.59519Zm-72.14208-13.83223,36.01093-62.37292,36.01074,62.37292Zm85.45552,21.6566,36.0726,62.47937H656.656ZM680.67854,350.09473H608.65686l36.01152-62.3737ZM595.223,342.47732,559.09929,279.905l72.20394.08206Zm36.0726,91.7526H559.032l36.13075-62.58338Zm11.98725,20.76147,36.01074,62.3738H607.27193Zm-34.74641-91.0653h72.3741L644.677,426.52137Zm62.01493-83.107h66.25071L769.93,338.19568Zm70.28119-20.68225L704.7069,197.56441h72.15847ZM724.66224,119.68834,692.6693,175.10412l-31.99508-55.41577ZM591.26571,182.82359H525.135l99.19789-57.27178Zm26.08615,83.2866-66.12542-.07474-30.00833-51.8427h-.002l-3.11683-5.38537ZM547.17448,286.9144l36.071,62.47859H511.10168Zm35.95083,77.92134L547.05973,427.3034,511.0851,364.83574Zm-44.08205,76.32263-33.01061,57.20787V383.83088Zm-27.95816,258.218h72.04021L547.05973,761.8448Zm27.95816,76.32351-33.01061,57.208V718.37238Zm-27.94157-91.76518L547.17448,621.456l36.071,62.47869Zm47.9976-69.489,72.20394.08186L595.223,677.018Zm84.17616-20.65317-36.2334-62.59519h71.7834l-2.82782,5.91752Zm47.45413-87.50677L656.649,447.25728l62.3213-.07084ZM800.80729,197.56441h37.4466l-16.98175,35.53683Zm13.21158,50.71585-18.266,38.22493V216.56052ZM781.92,163.18585l-25.11219-43.4975H781.92Zm-275.88732.63987V119.68834H531.501Zm-115.0761,18.99787H318.93467l36.01113-62.37292Zm.23183,13.83223L354.95478,259.251l-36.13836-62.59519Zm59.80688,424.69724,36.13153,62.58162H414.86431ZM402.94692,676.916,366.927,614.52754l72.08549-.08108Zm-28.99866-88.2691,33.12555-57.22621,66.12308-.07562Zm6.88114-140.55741H447.0801L480.2074,505.466Zm22.11752-105.71421L366.927,279.987l72.08549-.08206Zm.05815,29.37519,36.073,62.47947H366.93442Zm-13.43365-21.65572H317.54955l36.01093-62.3737Zm.12021,13.83136-36.13817,62.59528-36.2334-62.59528ZM310.11069,501.76642l-26.07854-54.57451,57.54888.06537Zm44.83511-46.775,36.01074,62.3738H318.93467Zm96.16459-27.58426-36.12587-62.57138h72.15866ZM414.86431,349.393l36.13095-62.58065L487.12679,349.393Zm-40.91605-95.28683,33.12555-57.22709,66.12308-.07562Zm-32.37405,12.8534H269.30977l36.13114-62.58436ZM257.33774,260.033,221.3633,197.56441h72.03982Zm77.273,32.78893-33.0672,57.27276h-63.91l-.48005-1.00479Zm-6.9791,140.55858-50.22653-.05679-19.09924-39.96853Zm-3.457,97.81677h67.01372l-36.23359,62.59519-5.04191-8.73295Zm162.96852,168.179-36.03279,62.57245-36.12587-62.57245Zm-28.13632-91.87017,33.19073-57.34008V664.99692Zm0-334.54052,33.19073-57.34115V330.45533ZM480.2074,170.92532l-88.74408-51.237h59.16155ZM337.556,119.68834l-32.053,55.51783-32.053-55.51783Zm-176.19747,0,36.04606,62.43439H157.36708l-14.59319-30.539,18.41449-31.89537Zm16.00525,0h25.1118v43.49653Zm-49.83136,0h17.68543l-9.67637,16.76055Zm37.2136,77.87607h32.675l-17.857,31.00932Zm51.56443,18.99611L249.32106,273.888l-26.31291,45.60056-6.6977-14.01635Zm214.77376,538.3648,7.99384,13.84521h-1.37771ZM447.0801,782.631l33.1273,57.37667-11.69161-6.75029L444.32351,782.631ZM525.135,851.90678l.60416-.34882-.16665.34882ZM559.032,768.77053l36.13075-62.58348.02342.04049-29.88656,62.543Zm293.8604-649.08219H875.4673l-10.22335,21.39413ZM107.68286,36.56049A19.18335,19.18335,0,1,1,88.4995,55.74384,19.1833,19.1833,0,0,1,107.68286,36.56049Z"/></svg>