<svg id="Слой_1" data-name="Слой 1" xmlns="http://www.w3.org/2000/svg" viewBox="0 0 1003 1030"><title>Christmas flags</title><path d="M963.00928,10.98259H39.99081A21.12169,21.12169,0,0,0,20.93323,41.21085l461.50933,965.7917a21.12153,21.12153,0,0,0,38.115,0l461.509-965.7917A21.12137,21.12137,0,0,0,963.00928,10.98259Zm-215.18415,375.82-27.69745,4.95712-80.97133-26.44346L657.28457,279.962l58.05332-70.22437-21.16357,63.27571-14.44768,43.19626c-2.15846,6.45347-5.45591,13.43888-6.61748,20.101-2.58445,14.82286,15.39585,15.30744,25.2303,17.29265l45.91176,9.26789,13.68915,2.76333ZM637.8571,599.64436a12.6668,12.6668,0,0,0-9.82858,5.05684c-6.21141,8.12791-2.81884,21.025-3.02043,30.41882l-.19553,9.109-21.18162,44.326-11.69727-32.62071,11.595-85.52538,55.54106,2.13048L645.808,600.29175A34.00455,34.00455,0,0,0,637.8571,599.64436Zm-260.584,42.67156q-.29623-11.24376-.72593-22.47786c-.58621-14.716-8.32149-18.75345-19.19077-19.20169l-13.44634-28.139,54.44552-2.08852,11.595,85.5248s-6.02212,16.79363-11.21936,31.2871ZM750.955,119.68834l-19.66145,23.78327L653.30931,186.9012l-20.475-47.3789,39.51122-19.834ZM553.49555,548.73854l-24.606-68.618,62.30237,36.51-4.52576,33.3807Zm30.50673,20.92188L577.691,616.21494l-17.01434-47.44984ZM415.21809,550.01127l-4.52576-33.3807,62.30237-36.51-24.606,68.618Zm25.98955,18.75384-17.01434,47.44925L417.882,569.66042ZM423.15671,254.69774c.22207.12343.45781.18753.68378.29457s.426.2493.66154.34218c.12563.04994.25438.06244.38041.10767,13.05484,4.68616,17.01239-13.73917,20.35772-22.47172l16.58928-43.30417,24.42778-63.76555v91.48964l-39.90033,76.69974-78.76914-32.57037L309.729,191.53049Zm-48.40682-53.22032,20.9853-48.55913,46.82655,23.50616L422.72837,228.197ZM403.54873,351.9843l-22.22153,7.25728-9.75482-45.93738ZM394.354,293.8975l42.87919,17.72993-10.90011,20.953Zm22.691,74.41286,46.244,55.93934-70.84984-12.6803-6.99471-32.9387Zm22.78335-19.405,15.50041-29.79563,30.92843,12.78861V405.0686Zm24.62433-47.333,21.80451-41.9144v50.93051ZM371.764,407.86881l-48.99693-8.76964,44.07757-14.39434Zm-5.16544,29.727L354.17176,457.653l-36.566-28.82557Zm-7.396,49.01361,18.43664,14.53436-43.08546,25.24957Zm33.30654,40.6769,3.18239,23.474-46.268,1.77522Zm-22.90454-57.46692,17.672-28.523,70.85023,12.68089-62.30335,36.5106Zm99.55169,109.26835,17.303,15.90563-34.31846,31.54635Zm7.18068-20.02432,24.60521-68.6174,24.60482,68.6174-24.60482,22.61719Zm70.218-239.95376,15.2721,29.35763L515.627,404.35408V331.89831ZM515.627,310.58839V259.65847l21.80451,41.91382ZM575.32231,332.143l-10.67238-20.51559,41.9827-17.35886Zm55.1939-19.80049-9.96011,46.899-22.68617-7.40851ZM584.37383,368.159l32.06475,10.47167-6.99471,32.9387-71.54221,12.80441ZM532.728,579.08779l17.01492,47.452-34.31826-31.54635Zm11.03027-125.11046L614.607,441.297l17.672,28.523-26.21807,20.6679Zm65.61688,73.309,43.08565,25.24918-46.268-1.77522Zm14.86991-26.14255L642.68123,486.61,667.329,526.39221Zm11.04-63.548,48.993-8.76837-36.56631,28.82615Zm-5.16583-29.72645,4.91956-23.16456L679.117,399.09976Zm3.27919-145.9779L555.527,294.09011,515.627,217.39037V125.90074l25.66721,67.00091L556.04289,231.401c2.72713,7.11883,5.621,21.39572,13.64852,24.09534,9.08387,3.05482,25.46731-9.94909,33.04192-14.16736l44.618-24.8476,30.61786-17.051c3.45436-1.92372,10.51947-4.17976,13.09078-7.29021Zm-74.07595-85.467,46.82538-23.50616L627.13359,201.478,579.1557,228.197Zm34.86642-51.17863-45.68633,22.93381-10.91475-28.49129h54.19945ZM453.38165,148.17963l-45.68691-22.93439,2.40143-5.5569H464.2964Zm-84.33247-8.65733-20.47491,47.37832L269.49544,142.862,250.338,119.68834h79.20011Zm-157.53633-19.834,35.19933,42.57916L275.708,248.959l-49.52265,12.23889L185.37684,119.68834Zm73.794,157.96984,17.59274,52.59859-53.6748,10.83493L234.5494,290.20257Zm-40.34555,87.771c24.36345-4.9181,49.03113-9.04572,73.21293-14.779,16.49922-3.91178,9.07428-19.21948,5.51646-29.85691l-14.55322-43.51223-22.18936-66.34331L344.804,280.9241l17.92273,84.39219-80.96967,26.44346-26.47809-4.739Zm31.63319,56.0577,67.17461,52.9556-26.37369,42.56813-46.09983-96.47213ZM464.86,720.19228l36.08216-41.76385,36.081,41.76327-36.08158,38.34524Zm15.51739,60.19863-24.62082,26.16538L432.426,757.73343l12.74753-14.75468Zm76.33239-37.41216L570.176,758.56562,546.86731,807.3434l-25.36158-26.95249Zm24.2112-6.89872-47.12077-54.541-19.36186-22.41084c-7.84669-9.08233-16.05855-12.65516-24.59773-2.77176q-5.62827,6.51426-11.25627,13.02874l-34.14876,39.526-22.75413,26.33711-4.86863-10.18862,21.08561-58.80219,63.04372-57.95137,63.04275,57.95029,21.56449,60.13775ZM685.118,518.02877l-27.00391-43.58512,67.17568-52.95619,6.51856-1.16666Zm31.45942-240.37059,50.75634,12.54439L752.65824,341.0917,698.9849,330.25677Zm9.5987-28.69921,29.39714-87.89267,34.20664-41.378h26.72719L775.69841,261.19786ZM107.68285,74.92719A19.18335,19.18335,0,1,1,126.8662,55.74384,19.18343,19.18343,0,0,1,107.68285,74.92719Zm46.70478,44.76115L195.26026,261.4209,127.53251,119.68834ZM501.5,902.28278l-31.89166-66.73886,31.33316-33.29854,32.07373,34.08575ZM804.925,267.311l42.57145-147.62266h27.97084ZM892.60164,74.92719A19.18335,19.18335,0,1,1,911.785,55.74384,19.18336,19.18336,0,0,1,892.60164,74.92719Z"/></svg>