<svg id="Слой_1" data-name="Слой 1" xmlns="http://www.w3.org/2000/svg" viewBox="0 0 1003 1030"><title>Christmas flags</title><path d="M963.00928,10.98264H39.99081A21.12156,21.12156,0,0,0,20.93323,41.2107l461.50933,965.79189a21.1216,21.1216,0,0,0,38.115,0L982.06657,41.2107A21.12124,21.12124,0,0,0,963.00928,10.98264ZM795.42347,119.6883A183.42479,183.42479,0,0,1,755.14261,211.189c1.471-12.77309.85843-29.83778-8.0276-45.71267-9.63227-17.20558-27.40883-28.24658-45.48377-28.32737-.29193-.00117-.58367.00039-.87346.00527-21.784.33038-40.76872,17.36813-42.31777,37.97954-.86,11.4309,4.19675,22.97674,13.52615,30.8855,8.75978,7.42637,19.69189,10.23858,29.98745,7.72942,8.74027-2.13662,15.58159-7.62678,18.77258-15.06329,4.6247-10.77893.0964-23.41425-10.09436-28.16618a13.27169,13.27169,0,0,0-17.77442,17.32988,10.14361,10.14361,0,0,1-3.73016-2.07554c-2.73883-2.32279-4.436-5.79809-4.22192-8.648.51127-6.7863,8.4095-13.31423,16.25347-13.43326,8.6706-.11221,17.78378,5.79419,22.7974,14.7497,4.85594,8.67684,6.41182,20.37919,4.37745,32.95187-2.073,12.81817-7.47945,25.53019-12.44818,36.50113a159.39315,159.39315,0,0,0-69.7385-15.71663c-.73784-.002-1.47587.0199-2.2139.03922-9.64436-43.93609-39.15235-80.27252-71.24071-112.52929Zm-306.2596,0h29.983c38.356,36.03279,76.97421,73.39529,87.87686,117.90783l-3.85408,1.13612c-1.98246.61509-4.07615,1.14627-5.90386,1.89367q-6.07734,2.15819-12.0415,4.72559a177.54025,177.54025,0,0,0-74.84364-103.32166,11.39837,11.39837,0,0,0-3.70148-1.5147c-.05854-.01366-.114-.03513-.17251-.048a11.33617,11.33617,0,0,0-1.51626-.19163c-.28569-.02459-.56709-.06206-.85434-.065-.28764.00059-.56923.03532-.85512.05718a11.3168,11.3168,0,0,0-1.51782.17817c-.05893.01229-.11474.03337-.17329.04683a11.40636,11.40636,0,0,0-3.71553,1.48133,177.53959,177.53959,0,0,0-75.762,102.64978q-5.9386-2.61248-11.999-4.83292c-1.82127-.7636-3.91008-1.31351-5.88688-1.94616l-3.84393-1.17047C411.66785,192.31589,450.53529,155.33626,489.16388,119.6883ZM564.1687,255.98524c-.65207.38443-1.295.788-1.94158,1.18374h-116.391c-.91825-.58114-1.83522-1.16461-2.7643-1.72389a154.416,154.416,0,0,1,60.951-89.922A154.41782,154.41782,0,0,1,564.1687,255.98524ZM435.1467,119.6883c-32.136,31.8177-61.65157,67.70882-71.62378,111.27842-.738-.026-1.47606-.05444-2.2137-.05893a159.39692,159.39692,0,0,0-69.87588,15.09374c-4.87058-11.0131-10.16266-23.77136-12.1221-36.60983-1.92138-12.59239-.26188-24.28127,4.67134-32.91167,5.09246-8.90828,14.30009-14.74892,22.92717-14.54636,7.84339.1889,15.68307,6.78708,16.13307,13.57767.18948,2.85143-1.5387,6.31171-4.2992,8.60972a10.137,10.137,0,0,1-3.74753,2.04237,13.27111,13.27111,0,0,0-17.61791-17.48795c-10.23584,4.6608-14.87693,17.25631-10.34551,28.07934,3.12561,7.46247,9.91854,13.01253,18.63851,15.226,10.27077,2.60984,21.2265-.11279,30.05439-7.46149,9.39965-7.82543,14.55885-19.32581,13.80091-30.76393-1.36717-20.62429-20.19771-37.83045-41.97685-38.35538-18.37448-.44922-36.66583,10.51353-46.60916,27.9082-8.73656,15.28439-9.73374,31.75877-8.55976,44.39624a183.475,183.475,0,0,1-37.47763-88.01619ZM107.68285,74.92714A19.18335,19.18335,0,1,1,126.8662,55.74379,19.18336,19.18336,0,0,1,107.68285,74.92714Zm19.84967,44.76115h61.6103a209.57484,209.57484,0,0,0,40.975,100.97292,294.25737,294.25737,0,0,0-61.93-15.89441ZM185.182,240.33008a250.83516,250.83516,0,0,1,49.59221,16.8389H193.22853Zm29.51033,64.79728h51.78016c-2.50681,3.36407-6.15794,6.283-10.18345,9.47615a96.94461,96.94461,0,0,0-9.48942,8.23348c-5.92279,6.09081-10.245,14.64627-12.8089,24.05217Zm32.45933,70.24216c-2.08218-14.66071,1.93494-32.8584,10.65638-41.8262a84.29054,84.29054,0,0,1,8.02429-6.90963c6.84006-5.42576,14.51963-11.53023,17.81852-21.50634h9.12c-6.11715,12.91809-8.71685,69.75021-8.71685,80.4661,0,6.117.00273,42.08808,2.93183,52.21874h-10.979Zm74.29373,150.11659L312.636,507.05094c1.21906.07279,2.43714.15338,3.66264.17251,2.21761-.04527,4.43463.03727,6.64853-.15611l6.63975-.68768a68.80714,68.80714,0,0,0,13.41355-3.4716,75.01352,75.01352,0,0,0,21.52292-12.34163h53.56816c-1.143,4.17138-2.198,8.36559-3.1059,12.59142a18.56083,18.56083,0,0,0-.36219,5.11978,84.9993,84.9993,0,0,0-9.6389,1.98773,91.42266,91.42266,0,0,0-53.86478,39.55747ZM418.68462,728.9767l12.44681-61.76963a11.50166,11.50166,0,0,0-22.55-4.54449l-6.40226,31.7734-41.867-87.614c.15943-2.43363.376-4.8979.71949-7.42383,4.46683-32.86425,23.00055-56.01018,50.84923-63.50368,18.28842-4.92288,38.61629-.47869,51.79255,11.31655,13.11225,11.73981,21.55649,35.81911,13.22817,52.95365-2.84363,5.852-10.485,11.59306-19.01241,14.28819-7.322,2.30913-14.4562,2.15653-19.08988-.41214a19.10069,19.10069,0,0,1-6.8062-24.43329,13.2708,13.2708,0,0,0-23.01889-13.21314c-5.65525,9.85083-7.0355,22.187-3.78675,33.84563,3.24757,11.65844,10.80742,21.50477,20.7402,27.01327,11.21253,6.21668,25.40178,7.10711,39.95731,2.508q2.92276-.92381,5.71243-2.09428c-23.05987,34.18361-35.92741,76.9707-40.58743,117.10306Zm32.657-218.12983a200.91221,200.91221,0,0,1,5.53436-20.28045H548.1334a200.94174,200.94174,0,0,1,5.487,20.73747,78.45574,78.45574,0,0,0-30.18123,16.32119c-9.007,7.91988-16.58639,19.23194-21.1742,31.88893-4.475-12.69757-11.95271-24.07715-20.88851-32.07763A78.45984,78.45984,0,0,0,451.34162,510.84687ZM501.5,902.28273l-27.434-57.41053,19.7961,11.5472c.01073.00624.02225.01015.03317.01659a14.15344,14.15344,0,0,0,1.28131.63734c.13894.06284.2732.14363.41351.20178.21719.08938.44473.1487.66622.22754a14.06782,14.06782,0,0,0,4.66138.84712l.01307-.00078.01307.001a14.06376,14.06376,0,0,0,4.6647-.80438c.22363-.07708.45312-.13465.67246-.22285.1405-.057.27554-.1366.41526-.19827a14.1198,14.1198,0,0,0,1.28677-.62582c.01093-.006.02264-.01.03356-.0162l21.1422-12.08092Zm-.433-74.43618-35.03366-20.43539c2.772-17.03639,20.36689-31.50371,37.59335-30.67279,15.93051.78272,30.85057,14.599,33.90378,30.27275Zm3.81485-76.65476c-15.89909-.78526-31.3517,5.311-43.184,15.57515,3.31275-40.15148,15.83509-84.18358,40.16358-116.83786,23.77039,32.50558,35.8958,76.03577,39.01887,115.85473A60.87929,60.87929,0,0,0,504.88188,751.19179Zm96.04653-56.98121-5.90484-30.71631a11.50136,11.50136,0,0,0-22.589,4.34311l11.79016,61.329-12.46535,26.086c-4.31618-40.13041-16.7987-82.96823-39.52546-117.315q2.77581,1.19106,5.6935,2.145c14.514,4.72793,28.71434,3.96336,39.97819-2.15126,9.9806-5.41971,17.62787-15.19619,20.98042-26.82516s2.08335-23.978-3.48155-33.8788a13.27156,13.27156,0,0,0-23.1389,13.00492,19.10107,19.10107,0,0,1-7.024,24.37279c-4.65651,2.52827-11.79348,2.618-19.0928.24178-8.50317-2.771-16.09306-8.58025-18.8842-14.45737-8.17494-17.20811.48376-41.2113,13.7-52.83247,13.28105-11.67619,33.6497-15.9389,51.89168-10.855,27.7798,7.74172,46.1051,31.052,50.27941,63.955.1848,1.45538.315,2.88383.43888,4.309ZM679.164,530.48841,653.4867,551.16676a91.41965,91.41965,0,0,0-53.50454-40.03166,85.07657,85.07657,0,0,0-9.62153-2.0732,18.54652,18.54652,0,0,0-.31711-5.12309c-.92225-4.48771-2.00071-8.94341-3.18513-13.37238H639.1466a75.296,75.296,0,0,0,22.8817,13.765,68.82878,68.82878,0,0,0,13.38194,3.591l6.6335.74681c2.21175.21329,4.42955.15046,6.64638.21544.27164-.00176.54074-.02634.81219-.031Zm33.74805-65.4998h-424.347l-5.90981-12.7889H718.85389ZM345.58341,373.3213c11.11223,0,15.5896,3.81388,15.5896,15.09159,0,16.42012-4.80911,32.00972-10.61423,47.26679a5.20846,5.20846,0,0,0-.478,2.13252H318.22785a7.39863,7.39863,0,0,0-.5062-1.469c-4.64441-10.94519-6.80035-23.8824-6.80035-35.822C310.9213,381.28158,328.8331,373.3213,345.58341,373.3213ZM311.58479,347.781c0-15.96447,9.29857-37.25946,11.00793-42.65361h20.957c2.02022,5.04757,14.30663,26.20245,14.30663,40.66315,0,6.96583-6.46782,5.14085-14.59437,5.14085-22.55542,0-22.55542,4.97537-27.69706,4.97537C313.07725,355.90673,311.58479,351.92737,311.58479,347.781ZM683.73271,437.8122c28.36181-13.48673,52.28987-51.51506,51.091-90.52924,0-7.13131.498-12.43764-2.65317-12.93565H717.40993c-1.8242,0-5.9706-.498-5.9706,2.48847,0,2.65239,1.8242,9.61822,1.8242,17.911,0,12.77017-4.47736,32.67165-11.11145,32.67165-3.31665,0-19.56973-18.24354-19.56973-37.647,0-4.97537,1.49245-10.11778,1.49245-12.4392,0-3.48291-3.6484-2.98491-5.80512-2.98491H664.67054c-6.46782,0-6.30234.331-6.30234,7.7948,0,46.1053,28.85777,57.881,28.85777,64.84685,0,2.15594-4.97537,8.29124-24.04788,8.29124-4.47814,0-4.80989,4.80989-4.80989,6.80035v14.59515c0,.39673.00468.76984.0122,1.13651H600.9726c-.07347-6.79547-2.2379-14.3922-3.43413-20.98491-1.81844-10.0208-.53264-21.54068-.53264-31.73047,0-33.004,6.30234-33.66746,15.09237-33.66746,10.448,0,19.238,7.46383,19.238,18.24354,0,8.359-4.29959,16.5216-10.673,21.81076-3.54819,2.94471-7.26576,3.70187-11.26044,5.56529-4.01312,1.8722-5.33551,8.74183-4.753,12.83183.92683,6.507,7.95569,9.98255,13.71642,7.97609,5.65778-1.97056,10.60837-6.1515,14.76277-10.344,10.49782-10.59413,18.77218-25.43281,18.77218-40.65944,0-17.58006-9.28725-34.99463-46.437-34.99463-28.19428,0-30.84745-2.4869-30.84745,32.83869v48.75925c0,14.48977.60046,21.2265,1.86371,24.35543H513.89c-.13094-1.33946-.87795-5.02162-1.61344-9.7515a200.83556,200.83556,0,0,1-2.42309-43.90545c.59236-8.872-.76594-20.51091,4.42107-28.40757,2.526-3.84569,6.49066-4.31832,10.75444-4.31832,10.44855.0002,19.23828,7.46383,19.23828,18.24354,0,8.68582-4.63553,17.15855-11.43949,22.42585-3.86257,2.99018-7.72308,3.57366-12.08521,5.217-4.188,1.57754-4.25646,9.88673-3.44174,13.73105a10.02745,10.02745,0,0,0,2.506,5.13363c3.22728,3.191,8.57859,2.88324,12.445,1.30843A39.69678,39.69678,0,0,0,543.5774,409.89,67.57933,67.57933,0,0,0,562.515,380.91549a46.335,46.335,0,0,0,2.31723-14.062c0-17.58006-9.28725-34.99463-46.437-34.99463-28.19428,0-30.84745-2.4869-30.84745,32.83869v48.75925c0,14.48977.60046,21.2265,1.86371,24.35543H471.62295a1.4558,1.4558,0,0,0,.66768-1.13651c0-5.63886-1.327-9.95074-1.327-17.24909,0-5.80434-.33174-54.89455-3.81388-64.51432-8.45828-23.21891-31.17919-23.05343-36.4863-23.05343-15.25863,0-29.02325,7.96184-29.02325,20.234,0,7.13131,5.80434,13.59914,11.11145,13.59914,3.6484,0,1.16071-14.26243,18.07689-14.26262a18.35262,18.35262,0,0,1,12.35061,4.56167c4.29022,4.0221,3.15878,8.68485,3.83007,13.92346a207.57308,207.57308,0,0,1,1.495,35.15465c-.15621,3.68528.66066,9.04937-1.31907,12.34749-1.80644,3.0095-5.504,3.50243-8.7269,3.50243-8.79,0-16.91657-5.47181-16.91657-14.76063,0-5.73526,3.36524-10.89952,7.88076-14.21793a22.05245,22.05245,0,0,1,7.6742-3.626c3.132-.78428,4.18953-1.95592,4.42321-5.41659a45.35887,45.35887,0,0,0-.05005-6.77791,8.64389,8.64389,0,0,0-.55489-2.72888c-1.83776-4.26622-10.96178.14109-14.01381,1.38805a53.76657,53.76657,0,0,0-13.72686,8.09434c-8.19426,6.70941-14.0224,16.2886-14.0225,27.10031,0,7.75245,1.71677,21.94482,21.37354,27.83834H382.05176c3.33217-10.03192,3.33539-45.40122,3.33539-52.21874,0-30.42633-6.02885-70.054-11.7283-80.4661H722.22714c3.2988,9.97611,10.97778,16.08077,17.81784,21.5079a83.95054,83.95054,0,0,1,8.02351,6.90807c8.08419,8.3131,11.54867,22.18095,9.78292,34.72065L725.53852,437.8122ZM770.321,341.42515A50.62131,50.62131,0,0,0,759.07689,322.837a96.96533,96.96533,0,0,0-9.48864-8.23348c-4.025-3.19313-7.676-6.11208-10.18267-9.47615h47.77972Zm27.13817-58.49064-3.60244,7.80534h-585.813l-4.43238-9.59168H798.31286ZM809.77137,257.169H777.91308A251.32356,251.32356,0,0,1,815.75,244.65757Zm23.1549-48.4558a294.38138,294.38138,0,0,0-54.18735,13.89224A209.57876,209.57876,0,0,0,821.18354,119.6883h54.28375Zm59.67536-133.786A19.18335,19.18335,0,1,1,911.785,55.74379,19.1833,19.1833,0,0,1,892.60164,74.92714Z"/></svg>