<svg id="Слой_1" data-name="Слой 1" xmlns="http://www.w3.org/2000/svg" viewBox="0 0 1003 1030"><title>Christmas flags</title><path d="M963.00928,10.98259H39.99081A21.12169,21.12169,0,0,0,20.93323,41.21085l461.50933,965.79179a21.1216,21.1216,0,0,0,38.115,0l461.509-965.79179A21.12137,21.12137,0,0,0,963.00928,10.98259ZM535.0914,831.98657,511.42112,803.609V731.52863l30.96941,30.29929,2.84265,48.93526ZM432.4264,707.4185a10.73269,10.73269,0,0,0,14.80278-.2492l43.26206-44.79023v39.87165L448.4375,743.39256c-.07045.00781-.1405.01581-.21856.02361l-21.369,2.64809-36.89181-77.20253,6.32264-8.08049,2.15945,21.17108a10.46822,10.46822,0,1,0,20.828-2.128l-2.0654-20.1579,17.56191,12.96316a10.76565,10.76565,0,0,0,14.62344-2.2059,10.45713,10.45713,0,0,0-2.19809-14.64686l-32.85586-24.258-5.55787-54.43245,24.406-42.2803,9.93864,70.537,47.37022-53.01376v79.922l-58.322,60.37221a10.45482,10.45482,0,0,0,.2572,14.795Zm24.37572,101.32612,2.71951-46.9089,30.96961-30.29949V803.609l-22.97674,27.553Zm-82.319-172.26729,16.41134-28.42143,2.31518,22.67524-13.33179,17.03561ZM175.89435,220.89446,205.5604,238.019l-18.94879,5.30262Zm55.039,31.77145,34.52394,19.93173-57.94776,14.45679-11.73415-24.55564Zm98.13085-132.97756L372.76334,195.388l-20.8048-9.33838-15.18467-37.66546a10.44788,10.44788,0,0,0-13.61787-5.79175,10.48038,10.48038,0,0,0-5.79185,13.62567l7.039,17.46082-19.41733-8.7148a10.4647,10.4647,0,0,0-13.83623,5.26164,10.505,10.505,0,0,0,5.26164,13.84394l18.49762,8.29388-19.99417,8.72261a10.44746,10.44746,0,0,0-5.41,13.77379,10.691,10.691,0,0,0,13.774,5.40976L340.7181,203.947l49.927,22.41053,24.40616,42.2723-66.047-26.65889,22.22329,67.5205-69.21922-39.95731-23.12017-80.69384a10.46858,10.46858,0,0,0-20.12687,5.76833l17.157,59.86552-34.53194-19.93173-14.6-56.9816,24.486-57.87243Zm89.53323,0h17.18528a10.51481,10.51481,0,0,0-1.02548.65714l-17.5543,12.96307Zm-21.04228,0-1.27428,12.49775L386.502,119.68834Zm-30.75085,0a10.45234,10.45234,0,0,0,1.37556,10.56456l25.02984,31.983-2.31518,22.67563-37.65794-65.22318ZM347.28155,386.02282H298.46922L254.09992,353.9852,249.51639,313.389a10.46543,10.46543,0,0,0-20.79718,2.36182l2.3101,20.5234L216.7222,306.33378l74.8171-18.66856,69.212,39.95731-69.5859,14.522Zm46.01378-39.60664,68.60394,39.60664H387.92459l-38.85788-30.385Zm-5.37073,60.53613,73.97467-.00781-68.60394,39.61425-44.22861-9.22929Zm27.12665,117.385-24.39836,42.27991L349.84807,584.924l-33.3726-69.83861,54.75209-31.60948-22.22329,67.52031Zm-25.41173-16.73587,14.12466-42.91939,68.59594-39.60645-36.97963,64.05164ZM403.75636,328.285l-14.11685-42.91939,45.741,18.46659,36.97963,64.05905Zm-185.537-184.18819-6.259-24.4085h16.584Zm32.41952,233.21342,12.05907,8.71256H254.802Zm47.82236,29.642h48.82033L291.1654,450.82264l69.5859,14.52216-53.332,30.78929L273.437,425.02023Zm60.41339,196.861,13.88873-6.23424-9.22851,15.98671ZM460.3869,548.43948,453.504,499.60374l36.98724-64.05944v79.21289ZM453.504,293.3634l6.88289-48.83574,30.10434,33.68249V357.423ZM443.121,187.62411l-9.93864,70.537-24.406-42.2723,5.55787-54.44025,32.85586-24.266a10.47194,10.47194,0,0,0,2.19809-14.63125,10.32265,10.32265,0,0,0-3.2304-2.863h4.694l39.63943,41.02748v79.92224Zm36.83288-67.93577h10.53734V130.596Zm270.69515,0,24.4848,57.81789-14.61564,57.03614L725.99428,254.4741l17.15659-59.87343a10.4674,10.4674,0,0,0-20.12667-5.76043l-23.12778,80.69384-69.21161,39.95731,22.22329-67.5205-66.04717,26.65889,24.39855-42.2801,49.927-22.40273,37.44719,16.32275a10.692,10.692,0,0,0,13.77379-5.40976,10.46478,10.46478,0,0,0-5.40956-13.77379l-20.00217-8.72261,18.49762-8.30168a10.46769,10.46769,0,0,0-.569-19.33947,10.33418,10.33418,0,0,0-8.00555.24168l-19.41752,8.7148,7.0392-17.46082a10.467,10.467,0,1,0-19.40972-7.84173L649.94582,186.0496,629.149,195.38027l43.7066-75.69193Zm124.81824,0-5.9304,12.41062a10.32788,10.32788,0,0,0-4.098,5.1227l-5.49055,14.94279-16.47515,34.47721-57.58986,33.25385,10.74926-41.96836,55.25868-36.33243a10.46622,10.46622,0,0,0-11.49764-17.492l-36.0443,23.689,7.20293-28.10334ZM783.69264,144.089l-10.32717-24.4007h16.58112ZM771.77915,336.67464l-1.03387.74623,2.44749-21.68587a10.45694,10.45694,0,0,0-9.2291-11.5677,10.52265,10.52265,0,0,0-11.56008,9.22168l-4.59113,40.58841L703.44314,386.015H654.63082l56.10853-43.87052-69.57809-14.522,69.21161-39.95731,75.7936,18.90137ZM583.31439,119.68834l1.39508,13.62021-17.5543-12.96307a10.48247,10.48247,0,0,0-1.02138-.65714Zm-27.56729,0a10.45365,10.45365,0,0,0-1.02489,17.50219l32.85586,24.258,5.55807,54.43254-24.40616,42.28-9.939-70.537-47.36983,53.014V160.71582l39.63435-41.02748Zm56.52575,165.67731L598.1482,328.285l-68.59613,39.60625,36.97982-64.05144Zm-70.74758-40.838,6.88328,48.83574L511.42112,357.423V278.21014Zm-11.9732,180.548L598.1482,464.6821l14.12466,42.91178-45.741-18.46659Zm18.85649,74.52809-6.88328,48.83574-30.10415-33.6901V435.5443ZM652.9159,550.99625l-22.22368-67.52031L686.291,515.57406,652.9602,585.32486l-41.70072-18.715-24.39855-42.27249ZM608.61685,446.551l-68.60374-39.60645h73.97447l38.85807,30.385Zm5.37073-60.53594-73.97447.00781,68.60374-39.61425,44.2288,9.22149Zm-9.6307-266.32667h11.05349l-9.77882,12.49775Zm6.661,65.22318-2.31518-22.67563,25.02945-31.983a10.45156,10.45156,0,0,0,1.376-10.56456h13.57162ZM521.951,119.68834l-10.52992,10.89982V119.68834Zm30.66674,625.95206v-.00293l.0002.00293Zm1.12207-2.21663c-.08567-.01542-.17134-.02342-.25681-.03122l-42.06193-41.14183V662.37908L554.691,707.1615a10.72465,10.72465,0,0,0,14.80278.265,10.48432,10.48432,0,0,0,.2572-14.803l-58.32985-60.37221v-79.922L558.791,605.343l9.939-70.537,24.41377,42.2721-5.56568,54.44064-32.85586,24.26566a10.4804,10.4804,0,0,0-2.2059,14.63144,10.7693,10.7693,0,0,0,14.63886,2.2059l17.5543-12.963-2.06559,20.17351a10.4718,10.4718,0,0,0,20.836,2.12l2.15945-21.17108,6.99276,8.93717-36.54368,76.47425Zm68.971-94.79683-14.00035-17.8958,2.31479-22.68344L628.027,637.50223Zm6.43036-51.04788,14.79165,6.63682-4.96308,10.3863Zm66.20407-100.953-54.184-31.28125,69.5859-14.52216-56.11634-43.87813h48.81232L729.284,425.60332Zm43.86135-110.611L752.94,376.09863l-4.73847,9.91639Zm56.17117-98.72487-58.92289-14.69252,34.52414-19.93992,36.1206,10.10237ZM796.352,238.019l31.17021-17.99688-11.26093,23.56568ZM892.60164,36.56049a19.18335,19.18335,0,1,1-19.18335,19.18335A19.1833,19.1833,0,0,1,892.60164,36.56049ZM190.35016,119.68834l7.20488,28.11115-36.0443-23.69682a10.46725,10.46725,0,1,0-11.48964,17.49975L205.272,177.92716l10.75727,41.96836-56.08355-32.377L138.34335,142.312l-1.87006-5.09031a10.43239,10.43239,0,0,0-2.31732-3.6723l-6.62355-13.861ZM107.68285,36.56049A19.18335,19.18335,0,1,1,88.49949,55.74384,19.1833,19.1833,0,0,1,107.68285,36.56049ZM501.5,902.28278l-24.05451-50.338,13.05371-15.65146V870.654a10.46094,10.46094,0,1,0,20.92188,0V836.29337l13.73964,16.47457Z"/></svg>