<svg id="Слой_1" data-name="Слой 1" xmlns="http://www.w3.org/2000/svg" viewBox="0 0 1003 1030"><title>Christmas flags</title><path d="M963.00929,10.98259H39.99082A21.12172,21.12172,0,0,0,20.93314,41.21075l461.50943,965.79189a21.1216,21.1216,0,0,0,38.115,0l461.509-965.79189A21.12132,21.12132,0,0,0,963.00929,10.98259ZM657.79683,179.2913l13.31657-7.303c2.11067-1.15837,5.41561-3.60468,7.28664-.19358,1.24735,2.273,2.54623,8.107,5.21891,12.97936,10.42142,19.0007,36.1327,28.135,39.38067,26.35369,6.49514-3.56253.192-25.456-6.66609-37.95924-4.45317-8.11952-9.98118-13.95976-11.40573-16.55907-1.60408-2.92246,2.72342-4.66158,4.51015-5.642L723.891,143.04c3.35256-1.2052,5.71457,4.25724,9.54562,11.24024,27.55889,46.78127,16.15395,113.03-19.57208,132.62552-3.73582,2.04822-5.23452-.29974-7.28274-4.034L698.74333,268.581c-1.06938-1.94831-3.326-6.83469,1.05846-9.23886,18.6752-10.24423,20.25039-18.9242,19.0928-21.03487-3.7405-6.82064-38.32143-2.85377-63.08275-47.999C651.80438,183.00059,651.464,182.76485,657.79683,179.2913ZM771.60939,281.95748l-46.841,37.48485-9.28979-5.07762Zm-94.07148,92.309.06362.05093c.016.01249.03142.02576.04742.03805l28.66633,22.93927-22.53786,12.31939L641.7065,365.75331l18.90625-19.712,32.752-18.90937,12.9497,7.078L677.5379,357.23843c-.02225.018-.03786.041-.0601.05893a11.08457,11.08457,0,0,0-4.01683,8.0399A11.44676,11.44676,0,0,0,677.5379,374.26643ZM621.04474,119.68834l-27.96206,17.02819-2.59618-17.02819ZM598.49127,208.6502c36.37624-19.95143,54.82273-7.88691,64.26376,9.32628,13.89419,25.3327,3.03174,64.45656-9.47225,71.31467-4.14835,2.27537-11.11838-2.18873-13.31491-5.60061-1.95953-3.04345-5.67632-6.98417-4.44351-10.85815.95532-3.00228,4.26515-4.64929,6.06173-7.08506a31.41822,31.41822,0,0,0,5.07206-10.83005,32.07047,32.07047,0,0,0-2.52681-23.13559c-5.78873-10.55646-18.40356-13.14328-28.63452-7.531-8.285,4.54449-13.97127,8.46492,1.425,37.57715,3.39773,8.64835,33.29874,51.53457,34.27836,53.32052,1.42533,2.59775-2.163,4.14328-3.9497,5.12368l-13.31579,7.3046c-5.03391,2.7601-6.50607,5.47025-21.82637-22.46176l-26.18665-47.7445C566.95068,222.78169,570.884,223.79175,598.49127,208.6502Zm-1.73151,305.53093c-.01776-.007-.0361-.01132-.05386-.01815a10.90859,10.90859,0,0,0-14.69018,8.532l-5.55455,36.43381-21.93838-13.35911,16.94779-58.36341,59.021,14.503.60065,25.6785Zm34.88515,37.03544.98469,42.1154L596.64775,571.4213l4.8737-31.968ZM568.16759,471.622a7.324,7.324,0,0,0-8.7147,5.03138l-17.7953,61.28217-23.03177-14.02494L544.49341,440.682l85.01587,19.21126.63031,26.95688Zm-24.65048-53.5223-.84185-3.96706,39.18221-22.62177,41.16369,44.5545Zm-32.10534-268.75,9.26988-29.66137H568.426l4.47034,29.321-33.94691,20.67268-27.53762,15.8987Zm1.82771,106.05991c36.37624-19.953,54.82273-7.88847,64.26376,9.32472,13.89419,25.3327,3.03252,64.45812-9.47225,71.31623a8.69969,8.69969,0,0,1-9.20832-1.06743c-2.29537-2.01075-3.47355-5.054-4.96181-7.64181-1.13944-1.98109-2.96832-4.19929-3.02423-6.51446-.09464-3.92121,4.04883-6.20809,6.03217-9.08489a32.81671,32.81671,0,0,0,2.01154-33.20243c-5.78873-10.5549-18.40434-13.14172-28.63452-7.531-8.20109,4.49844-13.85058,8.39311.96937,36.70838,1.69716,5.90737,4.85594,11.64809,7.68318,16.72064,3.732,6.69575,26.26383,36.03689,27.05006,37.47022,1.42533,2.59775-2.163,4.14328-3.94892,5.12368l-13.31657,7.303c-5.03391,2.76167-6.50607,5.47181-21.82637-22.46019l-26.18665-47.7445C481.69888,269.5411,485.633,270.55116,513.23948,255.40962ZM491.05814,582.15983l-17.58669,56.27538a298.69572,298.69572,0,0,0-34.76163,3.98892l-9.1368-59.92729,61.48512-37.44211Zm.0002,77.2398.00137,150.94146a266.671,266.671,0,0,0-35.437-46.551L488.13021,659.77c.08294-.00078.16529-.0039.248-.00468A10.88394,10.88394,0,0,0,491.05834,659.39963ZM405.693,514.18855c-1.95924.56982-3.94482,1.54163-5.86366,2.291l-24.526,9.57763-3.92472,1.53265.345-14.75829,32.74424-18.90469,26.53127-6.52012,16.95013,58.36614-21.93838,13.3595-5.55494-36.43557c-.00312-.02186-.15182-.80731-.24822-1.17183C418.5529,515.29032,411.58863,512.474,405.693,514.18855Zm.13153,57.23665L369.84186,593.337l.9845-42.11852,30.12386-11.76381Zm54.98978-33.487s-17.783-61.23377-17.79705-61.28314a6.87059,6.87059,0,0,0-2.307-3.65288l23.15569-13.36906,19.98051,64.27937ZM438.43643,395.933c-6.1191-11.15633-5.14095-24.36948-.12021-35.73227a61.06153,61.06153,0,0,1,10.12842-15.68561c1.87484-2.12082,4.11215-4.94239,6.57925-6.389,2.99769-1.75746,5.68745,1.28209,7.50677,3.57034,1.69277,2.1294,5.088,7.75421,3.80158,10.63764-.50874,1.14081-2.80518,2.37138-3.70352,3.344a24.588,24.588,0,0,0-3.27255,4.47775c-3.44086,6.01782-4.47766,13.7611-1.04558,20.019,4.98786,9.09367,15.88387,10.08812,24.49046,5.36878,7.24713-3.97585,7.66542-7.836,5.55319-12.923a4.36923,4.36923,0,0,0-.20929-1.05163c-3.18415-9.51089-8.6143-17.55742-13.60548-26.16616-4.61592-7.96125-8.44784-16.19083-15.43407-22.41843a4.40774,4.40774,0,0,0-1.06529-.69081c-5.33434-4.72773-14.0344-3.98307-20.02832-.69608-16.56375,9.08586-6.46782,21.71553-10.04129,23.67477-5.19627,2.85065-14.35317-.36531-18.18266-7.34831-6.59194-12.0177,2.611-27.20608,17.55117-35.40053,5.19705-2.85065,27.35517-15.21336,48.10747,2.9771,8.57693,7.5497,35.26549,55.43939,38.38309,61.12352,3.91925,7.14536,7.53331,10.65482,10.56193,16.17659,1.871,3.4111-13.21587,12.10668-27.669,20.03418C457.58621,424.299,443.781,405.67764,438.43643,395.933Zm14.97216-176.86408q3.70226-12.74831,7.40412-25.497l17.88975,10.89367Zm-19.3664-99.38055h47.7445l9.26969,29.66137v37.10335l-61.48492-37.44114Zm-13.80169,90.169a55.93082,55.93082,0,0,0,1.0327-6.41611l3.98014-26.10488q.3776-2.479.75579-4.9582l21.9378,13.35911-12.7288,43.83422-18.91386,10.91982-44.32618-10.89309-.60026-25.6783s34.26675,13.38175,34.361,13.41531A11.36883,11.36883,0,0,0,420.2405,209.85735Zm-22.12728,41.13656-25.29328,14.603-.48942-20.93925Q385.22167,247.82538,398.11322,250.99392Zm13.86824-131.30557-2.59657,17.03092-27.96772-17.03092Zm-6.15891,40.397-4.87409,31.96952-30.12327-11.76362-.98489-42.11716Zm-98.82185-40.397h40.41317l.18578.3214,1.20852,51.68347-49.15968-19.1976A300.66747,300.66747,0,0,0,307.00069,119.68834Zm42.35992,75.63358,1.68291,71.96762L318.912,248.73845l-39.94307-43.369a298.75034,298.75034,0,0,0,13.9258-32.09831Zm-64.54594-75.63358a276.35349,276.35349,0,0,1-21.71885,68.44626l-25.2283-27.392a177.56829,177.56829,0,0,0,17.46707-41.05421Zm-83.19459,0h38.42525a162.21342,162.21342,0,0,1-12.52175,29.82295l-26.26217-28.51471C201.38435,120.56844,201.49831,120.11942,201.62008,119.68834ZM107.68286,74.92719a19.18335,19.18335,0,1,1,19.18335-19.18335A19.1833,19.1833,0,0,1,107.68286,74.92719Zm26.733,59.166a264.241,264.241,0,0,0,44.91707-6.85792l73.82831,80.16129c-.041.0722-.07923.14538-.12021.21739a10.89536,10.89536,0,0,0-1.02255,2.50369L139.77922,145.31649ZM155.291,177.778l86.5493,49.96894a10.87666,10.87666,0,0,0-1.65677,2.13721c-.04235.0722-.089.14089-.13133.2129l-66.93624-15.01744Zm32.89586,68.84045c1.33361-2.13077,2.62565-4.27266,3.83222-6.43582l36.29,8.14176A274.11094,274.11094,0,0,1,203.577,278.82484Zm46.13164,96.53868-20.6721-43.25972c.69569-.70271,1.41869-1.381,2.10677-2.09057l41.206,32.9749Zm-3.94989-61.58757a298.70393,298.70393,0,0,0,20.83426-28.109l57.53132,12.907L340.11,284.482l-27.62466,15.949L277.699,319.44545Zm48.69836,64.88919,22.08552-12.11292c.97415-.53391,4.6046-3.15976,5.6732-1.21145,1.15759,2.11067,3.03018,31.71466,12.47121,48.92941,2.227,4.059,5.82541,7.15473,8.26158,5.81839,5.03391-2.76167,2.362-7.63244,24.44753-19.74536,7.95716-4.365,15.27034-6.05256,11.52984-12.8732-8.46219-15.42724-35.48873-30.81076-36.6471-32.92143-1.15759-2.11067,3.9817-4.29627,4.95586-4.83018l21.27294-11.668c6.17121-3.38456,39.77954,39.0177,58.75214,73.608,4.2752,7.79636,29.48223,53.75179,24.286,56.60244L412.7712,448.88077c-1.62437.88985-5.91986,3.4595-7.34519.86019a5.91653,5.91653,0,0,1-.76028-2.54311c-2.51032-18.0562-6.17433-35.90322-14.99168-51.97989-6.05724-11.04354-12.48916-12.37364-23.36956-6.40538-16.40217,8.99688-29.66488,26.40989-19.33244,45.24823,6.41318,11.69142,15.47095,23.20174,25.89628,31.42429a7.724,7.724,0,0,1,1.98578,2.081c1.24735,2.273-3.00677,3.75924-4.30564,4.47268L346.677,485.13212c-4.54684,2.49315-30.19957-44.27564-34.02906-51.25864C306.14577,422.01971,271.27213,350.7347,279.06693,346.45872Zm69.23132,235.222-8.72446-18.25759,9.23573-3.60664Zm1.06353-45.49274-19.21653,7.50423-2.5673-5.37307,22.03127-12.71982Zm17.55839,84.46224,42.46646-25.86056,7.95442,52.17308a301.2656,301.2656,0,0,0-32.90035,10.35254Zm26.97015,56.43949A276.87,276.87,0,0,1,466.48279,660.798l-11.10364,35.5301c-15.79176-.23417-32.35142,2.14657-49.1347,6.61535Zm35.14918,73.55647-16.37544-34.2687a167.86484,167.86484,0,0,1,38.16707-5.49679l-11.57453,37.03719C435.907,748.75177,432.49315,749.67051,429.03951,750.64622ZM447.59508,789.477l3.534-11.30855c15.55623,17.32012,31.8337,40.98552,39.93077,60.96389l.00039,41.30361Zm53.64036-283.09415L483.229,448.454l37.84509-21.85,3.82832,3.63161Zm10.17828,38.67347,61.48473,37.44036L563.762,642.42257a298.72623,298.72623,0,0,0-34.76046-3.98775l-17.58786-56.27674Zm.00039,114.34354a10.87887,10.87887,0,0,0,2.67932.3655c.08313.00078.16548.0039.24822.00468l32.50929,104.01773a266.74643,266.74643,0,0,0-35.43565,46.55276Zm.00176,222.132L511.41547,839.13c8.0959-19.97719,24.37318-43.64162,39.9298-60.96213l3.74226,11.9734Zm62.48347-130.758c-3.61366-1.02645-7.18146-1.98675-10.68214-2.85807l-11.57492-37.037a168.248,168.248,0,0,1,38.63463,5.62207Zm22.79116-47.69454c-16.93842-4.548-33.65634-6.9789-49.59465-6.748l-11.1054-35.534a276.94136,276.94136,0,0,1,73.04188,16.45466Zm21.78968-45.59871a301.39517,301.39517,0,0,0-33.34938-10.51978l7.95423-52.17191,42.87627,26.109Zm-17.25846-277.1497,23.15744-13.37a6.01911,6.01911,0,0,0,.19709.86253,10.96734,10.96734,0,0,0,2.96793,4.17138q4.29881,4.48117,8.59684,8.96253,12.93331,13.48361,25.86622,26.96683,4.276,4.45746,8.55156,8.91531l-23.659,12.93253Zm52.97609,202.404-.53606-22.92054,9.682,3.7809Zm18.5747-38.87076-19.66321-7.67849-1.68291-71.967,32.13246,18.5505,12.12,13.15948Zm36.00606-75.34925-15.04144-3.37442L661.60368,446.5894l63.16608-34.52746,7.94642,6.35893Zm46.93622-98.22257-28.6597,15.6657-25.25035-20.2059,25.24977-20.2059,32.10085,17.54591Zm12.85779-26.90751L745.5084,330.77839l41.20623-32.97548c.80633.83131,1.65247,1.62749,2.469,2.44944Zm30.67026-64.18277c-2.66839-2.83972-5.2556-5.74911-7.80026-8.69538l16.51028-9.53216ZM892.60164,74.92719A19.18335,19.18335,0,1,1,911.785,55.74384,19.1833,19.1833,0,0,1,892.60164,74.92719Z"/></svg>