<svg id="Слой_1" data-name="Слой 1" xmlns="http://www.w3.org/2000/svg" viewBox="0 0 1003 1030"><title>Christmas flags</title><path d="M963.00929,10.98259H39.99082A21.12177,21.12177,0,0,0,20.93314,41.21085l461.50962,965.79179a21.12129,21.12129,0,0,0,38.11458,0L982.06658,41.21085A21.12137,21.12137,0,0,0,963.00929,10.98259ZM789.9466,119.68834l-6.25395,24.4007-10.32717-24.4007Zm12.9497,151.8682H738.25747l32.7216-18.89883,36.1206,10.10237ZM290.93085,461.79144l-4.58547-9.59168H716.6563l-4.58508,9.59168Zm321.34221,45.80244L566.5319,489.12729,559.05635,476.179h42.87607Zm-63.8645-7.99014-6.88348,48.83574-30.104-33.6901V476.179h23.46206ZM399.98074,476.179H442.856l-7.47554,12.94833-45.74077,18.4742Zm67.04845,0h23.46206v38.57824l-30.10434,33.68229-6.88309-48.83574Zm-271.254-213.68018,35.15816-9.83287,32.72043,18.89064H200.10343ZM565.67132,383.53494c0,3.23879-.61,46.33225,4.12689,54.27731H549.98649a1.68,1.68,0,0,0,.11474-.60182c0-2.01641-7.04467-22.95859-7.04467-65.62,0-37.07212,7.16761-59.12759,7.74523-61.66718h19.68253C565.1093,323.60317,565.67132,377.18265,565.67132,383.53494Zm-47.64147,0c0,3.23879-.61,46.33225,4.12611,54.27731h-40.7131c12.09458-4.78764,20.27381-14.22554,20.27381-27.43966,0-1.24092-.55655-9.30774-3.33695-9.30774-2.5954,0-2.5954,19.39118-32.99871,19.39118-9.2693,0-23.35863-5.27355-23.35863-12.56507,0-16.134,59.69429-9.1526,59.69429-42.50491,0-18.30521-17.24051-27.92342-37.63374-27.92342-24.84094,0-49.68344,18.61568-49.68344,56.15556,0,18.95152,8.01063,36.804,26.56288,44.19407H395.53655c4.55074-6.77693,6.62979-39.5602,6.62979-52.87989,0-37.3863-12.42125-47.46974-29.29177-47.46974a38.39635,38.39635,0,0,0-15.57242,3.72255c-4.07771,2.01622-7.04389,3.41227-8.527,3.41227-3.152,0-3.152-2.94705-3.152-4.80833,0-12.40974,7.04467-27.61314,7.04467-29.7847,0-.02693-.00742-.05425-.0082-.08118H522.84208C517.46784,323.60317,518.02985,377.18265,518.02985,383.53494ZM439.427,378.2614c0-8.99766,8.71353-22.49317,23.72941-22.49317,7.04467,0,15.57242,4.18777,15.57242,11.78938,0,7.91188-33.74025,14.11607-35.96488,14.11607A3.14141,3.14141,0,0,1,439.427,378.2614Zm-95.47261,12.72c0-11.01388.37155-35.21319,19.28014-35.21319,9.0843,0,13.90434,4.80813,13.90434,28.85386,0,20.63209-9.2693,51.34743-9.2693,52.43321a1.47715,1.47715,0,0,0,.19983.757H347.60081a1.89244,1.89244,0,0,0,.43283-1.22238C348.03364,432.09027,343.95436,422.007,343.95436,390.98141Zm-23.46479,46.83084H279.46736l-61.136-127.889H325.71082c-6.50451,12.02355-6.78318,54.90489-6.78318,65.54624C318.92765,421.08068,318.92843,434.17069,320.48957,437.81225ZM629.9983,385.39778c0-12.25636,5.19081-29.62956,23.54363-29.62956s23.54363,17.3732,23.54363,29.62956c0,12.40974-4.81925,30.09478-23.54363,30.09478S629.9983,397.80752,629.9983,385.39778Zm41.20408,52.41447c15.49983-6.47758,28.871-21.99029,28.871-48.53678,0-24.97676-14.27433-51.81285-46.53149-51.81285s-46.53149,26.83608-46.53149,51.81285c0,26.54649,13.37121,42.0592,28.871,48.53678H597.62874a1.68,1.68,0,0,0,.11474-.60182c0-2.01641-7.04467-22.95859-7.04467-65.62,0-37.07212,7.16761-59.12759,7.74523-61.66718H784.66875l-61.13483,127.889Zm-459.749-142.27652-4.58547-9.59168H796.13146l-4.58508,9.59168Zm245.12437-23.97919,3.80919-27.02889,24.15755,27.02889Zm60.79021,0,24.15716-27.02889,3.80958,27.02889Zm233.28114-151.8682,24.4848,57.81779-14.61564,57.03624L725.99429,254.4741l17.15659-59.87343a10.4674,10.4674,0,0,0-20.12667-5.76043l-23.128,80.69384-3.50321,2.02246H643.17046l9.73764-29.58565-66.04737,26.65889,24.39875-42.2801,49.927-22.40282,37.44719,16.32294A10.69173,10.69173,0,0,0,712.40725,214.86a10.4647,10.4647,0,0,0-5.40937-13.774l-20.00217-8.72251,18.49762-8.30178a10.46771,10.46771,0,0,0-.569-19.33947,10.33462,10.33462,0,0,0-8.00555.24178l-19.41752,8.7149,7.0392-17.461a10.467,10.467,0,1,0-19.40972-7.84163L649.94583,186.0495,629.149,195.38027l43.7066-75.69193Zm-114.773,2.83972a10.52439,10.52439,0,0,0-.76808-2.83972h13.57182L611.0179,184.91143l-2.31518-22.67563L633.73217,130.253A10.43217,10.43217,0,0,0,635.876,122.52807Zm-20.46583-2.83972-9.77862,12.49775-1.27468-12.49775Zm-32.09558,0,1.39488,13.62021-17.5543-12.963a10.44182,10.44182,0,0,0-1.02138-.65724Zm-71.89346,0h10.52992l-10.52992,10.89992Zm0,41.02748,39.63435-41.02748h4.69163a10.45365,10.45365,0,0,0-1.02489,17.50219l32.85586,24.258,5.55807,54.43245L568.73,258.16114l-9.939-70.537-47.36983,53.014Zm-20.92988-41.02748v10.90772l-10.53734-10.90772Zm-71.89386,0h17.18509a10.49486,10.49486,0,0,0-1.02528.65724l-17.5543,12.963Zm-4.2631,41.76024,32.85586-24.266a10.47172,10.47172,0,0,0,2.19809-14.63105,10.32512,10.32512,0,0,0-3.2304-2.86314h4.694l39.63943,41.02748v79.92224l-47.37022-53.014-9.93864,70.537-24.40616-42.2723Zm-16.77919-41.76024-1.27428,12.49775-9.779-12.49775Zm-30.751,0a10.45365,10.45365,0,0,0,1.37576,10.56466l25.02984,31.98279-2.31518,22.67563-37.65794-65.22308Zm-37.7399,0,43.69918,75.69954-20.805-9.33838-15.18448-37.66536a10.44763,10.44763,0,0,0-13.61787-5.79185,10.48042,10.48042,0,0,0-5.79185,13.62567l7.0392,17.461-19.41752-8.7149a10.465,10.465,0,0,0-13.83643,5.26164,10.505,10.505,0,0,0,5.26184,13.84384l18.49762,8.294-19.994,8.72251a10.44755,10.44755,0,0,0-5.41015,13.774,10.69111,10.69111,0,0,0,13.774,5.40976l37.43938-16.32294,49.927,22.41063,24.40616,42.2723-66.047-26.65889,9.73764,29.58565h-53.23l-3.5036-2.02246-23.12017-80.69384a10.46866,10.46866,0,0,0-20.12706,5.76824l17.157,59.86562-34.53175-19.93173-14.59983-56.9816,24.48578-57.87243Zm-100.51979,0-10.325,24.4085-6.259-24.4085ZM107.68286,74.92719a19.18335,19.18335,0,1,1,19.18335-19.18335A19.18336,19.18336,0,0,1,107.68286,74.92719Zm30.6605,67.38488-1.86986-5.0905a10.43706,10.43706,0,0,0-2.31752-3.6722l-6.62355-13.861h62.81775l7.20468,28.11115-36.04411-23.69682a10.46729,10.46729,0,1,0-11.48964,17.49985L205.272,177.92725l10.75746,41.96826-56.08375-32.377Zm67.21705,95.707-18.94879,5.30262-10.71726-22.42722Zm92.323,238.15991h44.10118L307.41928,496.1341Zm18.59207,38.90647,54.75209-31.60948-22.22329,67.52031,66.047-26.65889L390.6529,566.61726,349.84808,584.924ZM363.535,613.56578l-4.66041-9.75247,13.88873-6.23424Zm10.94831,22.91156,16.41115-28.42143,2.31518,22.67524-13.33179,17.03561ZM448.219,743.41617l-21.369,2.64809-36.89181-77.20253,6.32264-8.08049,2.15945,21.17108a10.46822,10.46822,0,1,0,20.828-2.128l-2.06539-20.1579,17.56171,12.96316a10.76589,10.76589,0,0,0,14.62364-2.2059,10.45713,10.45713,0,0,0-2.19809-14.64686l-32.85586-24.258-5.55807-54.43245,24.40616-42.2803,9.93864,70.537,47.37022-53.01376v79.922l-58.322,60.37221a10.45482,10.45482,0,0,0,.2572,14.795,10.73269,10.73269,0,0,0,14.80278-.2492l43.26206-44.79023v39.87165l-42.05374,41.14183C448.36687,743.40036,448.297,743.40836,448.219,743.41617Zm8.58318,65.32846,2.71951-46.9089,30.96961-30.29949V803.609l-22.97693,27.553Zm44.69793,93.53816-24.05451-50.338,13.05351-15.65146V870.654a10.461,10.461,0,1,0,20.92208,0V836.29337l13.73964,16.47457Zm33.59155-70.29622L511.42113,803.609V731.52863l30.96961,30.29929,2.84245,48.93526Zm40.99684-85.7939-22.34857-2.76889c-.08547-.01542-.17134-.02342-.25681-.03122l-42.06193-41.14183V662.37908L554.691,707.1615a10.72464,10.72464,0,0,0,14.80278.265,10.48479,10.48479,0,0,0,.2572-14.803l-58.32985-60.37221v-79.922L558.791,605.343l9.939-70.537,24.41358,42.2721-5.56548,54.44064-32.85586,24.26566a10.48058,10.48058,0,0,0-2.2059,14.63144,10.7693,10.7693,0,0,0,14.63886,2.2059l17.5543-12.963-2.0654,20.17351a10.47171,10.47171,0,0,0,20.83582,2.12l2.15945-21.17108,6.99276,8.93717Zm46.62243-97.56572-14.00035-17.8958,2.31479-22.68344L628.027,637.50223Zm16.25894-34.02477-9.82858-17.02312,14.79185,6.63682Zm13.99059-29.27733-41.70092-18.715-24.39875-42.27249,66.05517,26.65889-22.22368-67.52031,55.59862,32.09812ZM659.9278,476.179h45.18852l-9.77082,20.4471ZM816.26126,243.58785,796.352,238.019l31.17021-17.99688ZM869.5369,132.09906a10.327,10.327,0,0,0-4.098,5.12251l-5.49055,14.94289-16.47515,34.47711-57.58986,33.254,10.74926-41.96826,55.25868-36.33253a10.46622,10.46622,0,0,0-11.49764-17.492l-36.0443,23.689,7.20293-28.10334h63.915Zm23.06475-57.17187A19.18335,19.18335,0,1,1,911.785,55.74384,19.18336,19.18336,0,0,1,892.60164,74.92719Z"/></svg>