<svg id="Слой_1" data-name="Слой 1" xmlns="http://www.w3.org/2000/svg" viewBox="0 0 1003 1030"><title>Christmas flags</title><path d="M963.00925,10.98259H39.99078A21.12177,21.12177,0,0,0,20.9331,41.21085l461.50943,965.7917a21.12153,21.12153,0,0,0,38.115,0l461.509-965.7917A21.1213,21.1213,0,0,0,963.00925,10.98259ZM839.19054,119.68834l-7.8229,13.85048c-.46951-4.56869-1.13183-9.20129-1.95221-13.85048Zm-73.6158,0h43.84242a165.35764,165.35764,0,0,1,2.82528,42.7585c-.09367.13865-.17524.28559-.2611.42971L787.49517,177.0135l-24.48422-14.13578c-.08586-.1445-.16782-.29184-.26149-.43088A165.35764,165.35764,0,0,1,765.57474,119.68834Zm-19.99788,0c-.82077,4.65016-1.48348,9.28384-1.953,13.8536l-7.82485-13.8536Zm-88.71519,3.21859a39.95978,39.95978,0,0,0,3.13439-3.21859h42.42841l20.11457,6.87216,8.43018,14.2875c-23.30048-10.44-50.91285-17.24363-77.02456-15.53242C654.94458,124.56165,655.9203,123.76088,656.86167,122.90694ZM746.439,171.8624c.07376.15163.1608.29711.24354.44463V200.5781l-24.48539,14.13656c-.1686.00234-.3376-.0002-.505.01181-26.69675-12.97351-57.239-38.65708-70.63011-69.35456C684.34055,141.62,721.856,155.22947,746.439,171.8624ZM677.99294,344.48719a7.13348,7.13348,0,0,0,9.06206,4.44624l24.33786-8.31515-19.72078,33.42343L650.23851,396.1008l-.1405.07259c-.14363.06869-.29193.12489-.47459.199-.0281.01171-.05776.02342-.08586.03591-.07337.02108-.14987.04449-.22949.06947a4.69975,4.69975,0,0,1-1.01318.20763h-.49957a4.49655,4.49655,0,0,1-1.2333-.313c-.06557-.02576-.13114-.05074-.19827-.07572-.039-.01951-.07962-.039-.12021-.05932-.13894-.06713-.27945-.13192-.32472-.153l-36.418-22.72666a33.09,33.09,0,0,1-1.55783-17.85491c2.19243-10.70106,12.4593-22.7573,24.24751-23.65018,4.02619-.29232,9.49488,1.99592,13.605,5.7253,3.52819,3.19976,5.67671,7.07257,5.74814,10.36A11.85348,11.85348,0,0,1,640.57424,359.227a8.23583,8.23583,0,0,0,.0564,16.47145h.05835a28.27153,28.27153,0,0,0,27.3216-28.11778c-.17329-7.95355-4.13235-15.838-11.14853-22.2028q-1.40562-1.27536-2.90295-2.40329c2.69649.17641,5.40742.27261,8.13044.27261,23.63144,0,47.98921-6.448,68.87889-15.8064L722.541,321.72414l-40.10074,13.70041A7.13985,7.13985,0,0,0,677.99294,344.48719ZM543.79729,553.76494l8.0278,40.77545-8.00126,14.16583c-2.5593-24.90788-10.31956-51.69381-24.57516-73.02978q1.69248.71715,3.4714,1.2898c8.84642,2.83826,17.487,2.3343,24.32576-1.41781a27.72765,27.72765,0,0,0,10.48563-36.99329A8.07753,8.07753,0,0,0,543.4837,506.533a11.62523,11.62523,0,0,1-4.20885,14.85273c-2.827,1.55149-7.17073,1.62564-11.6198.19914-5.18261-1.6634-9.81746-5.17832-11.53257-8.74778-5.0222-10.451.18265-25.08341,8.19465-32.19228,8.05141-7.14273,20.43676-9.79228,31.55289-6.74756,16.92906,4.63631,28.1453,18.77384,30.77524,38.78792,1.17632,8.94673.45117,16.99111-2.06364,23.47-.22851.318-.46229.63314-.68281.95581a8.04819,8.04819,0,0,0-1.19974,2.76459l-20.29372,35.931-4.87155-24.7461a7.00011,7.00011,0,0,0-13.73652,2.70449Zm-91.51862-8.2204a6.99992,6.99992,0,0,0-8.2206,5.51592l-4.87194,24.74883L418.89085,539.877a8.045,8.045,0,0,0-1.20013-2.76547c-.21817-.31974-.45-.63187-.67637-.94693-.408-1.05-.7513-2.15516-1.0647-3.28455V507.16437a47.87216,47.87216,0,0,1,9.67481-20.4l23.58266-13.61582c10.149-1.68652,20.84909,1.09095,28.06822,7.49564,8.01219,7.10945,13.21685,21.74187,8.19445,32.19286-1.71511,3.56946-6.35,7.08438-11.53276,8.74778-4.45024,1.42513-8.79256,1.35176-11.61941-.19914a11.62535,11.62535,0,0,1-4.20885-14.85215,8.077,8.077,0,0,0-14.04562-7.97931,27.72583,27.72583,0,0,0,10.48348,36.99416c6.84094,3.75319,15.47914,4.25675,24.32576,1.41781q1.77678-.56977,3.47082-1.2898c-14.2556,21.337-22.01585,48.124-24.57477,73.03281l-8.00126-14.16632,8.0278-40.778A7.00055,7.00055,0,0,0,452.27867,545.54454ZM326.41759,335.42328l-40.10113-13.7009-8.42609-14.28116c20.88793,9.3578,45.24374,15.80484,68.87441,15.80484,2.7242,0,5.4363-.0966,8.13474-.2732q-1.49431,1.12754-2.90412,2.40387c-7.01657,6.36479-10.97446,14.24925-11.147,22.20026a28.26954,28.26954,0,0,0,27.321,28.11925h.05874a8.23587,8.23587,0,0,0,.056-16.47154A11.85181,11.85181,0,0,1,357.315,347.93547c.071-3.28738,2.21917-7.16048,5.74755-10.36034,4.1103-3.728,9.58075-6.01353,13.60343-5.72394,11.78938.892,22.057,12.94824,24.24888,23.648a33.71935,33.71935,0,0,1-2.67912,20.61843l-34.51887,19.93007-.384.21934c-.14363.07493-.2935.13738-.49488.22793-.02029.00859-.04059.018-.05932.02732-.07181.02342-.14831.04918-.231.07806a4.273,4.273,0,0,1-1.28014.26227h-.153a4.28511,4.28511,0,0,1-1.28794-.26227c-.07337-.02654-.14831-.05152-.2248-.07728-.04059-.01873-.0843-.03825-.128-.05854-.14206-.06323-.28569-.12333-.44961-.21l-43.57273-25.155-17.986-30.482,24.3363,8.31466a7.13787,7.13787,0,1,0,4.61592-13.50888Zm53.23466-86.69283L360.281,231.80988l42.06408.39721a8.18578,8.18578,0,0,0,2.43929.37546c.20841,0,.41819-.00742.62914-.02371.39477-.02966.78935-.07523,1.18413-.11494a39.61185,39.61185,0,0,1,9.75208,2.93739l.50854,1.06431,13.68188,7.8992c14.74521,12.34456,20.72967,28.67316,16.4012,45.19291-2.97886,11.36806-11.63034,20.95388-22.044,24.42109-10.359,3.452-25.93608.5868-32.60432-9.17378-2.27674-3.33587-3.01867-9.221-1.84469-14.6454,1.00791-4.65475,3.28738-8.45292,6.09861-10.159a11.8574,11.8574,0,0,1,15.26254,3.85554,8.23531,8.23531,0,1,0,14.20564-8.33554,28.27056,28.27056,0,0,0-38.01076-9.60075c-6.80074,4.12533-11.65063,11.49666-13.65378,20.75513q-.40219,1.85962-.6307,3.72353c-11.57433-23.46557-31.27188-43.97443-51.96252-58.93235l16.58853.1565,31.91683,27.87873a7.137,7.137,0,0,0,9.38951-10.751Zm94.85893-58.59355c.475-6.44848-.22622-13.29738-.22622-19.30373,0,1.58538,13.69744,7.95329,15.53552,8.96474,17.281,9.50924,31.155-.39448,46.02512-8.96958v19.29087c.00083,18.82949,16.93255,26.02955,30.778,34.023L549.87824,233.81c-16.164,9.37419-14.03266,27.65984-14.03264,43.64349,0-2.35169-17.421-9.82567-20.0265-10.81522-7.84774-2.98057-15.828-3.26057-23.48741.44919-6.20538,3.00552-12.07608,6.91915-18.04584,10.36577,1.84112-1.063-.10541-18.76591-.44245-21.3293-.97452-7.41191-3.664-14.39553-9.44835-19.37273-6.04-5.19716-14.0254-8.64706-20.88709-12.60845,1.532.88446,14.37911-8.305,16.23758-9.615,5.449-3.84073,10.42139-8.58419,12.84655-14.93525A33.38292,33.38292,0,0,0,474.51118,190.1369ZM602.26491,232.447c.393.03932.78682.08469,1.17964.11435.21134.0162.42014.02361.62836.02361a8.17619,8.17619,0,0,0,2.43558-.37438l42.06466-.39829-19.36991,16.9193a7.13755,7.13755,0,1,0,9.39107,10.75112l31.91605-27.87825,16.58834-.157c-20.69064,14.9587-40.388,35.46746-51.96154,58.93333q-.2292-1.85918-.63031-3.7207c-2.00314-9.25983-6.85148-16.63117-13.6528-20.75786a28.26974,28.26974,0,0,0-38.01213,9.60212,8.23582,8.23582,0,0,0,14.20681,8.33554,11.85459,11.85459,0,0,1,15.26117-3.85681c2.81143,1.70623,5.09207,5.5043,6.0992,10.16052,1.1732,5.424.432,11.308-1.84547,14.64257-6.66746,9.7634-22.23871,12.62693-32.60471,9.17612-10.41167-3.467-19.06392-13.05283-22.04356-24.42324-4.08766-15.59652,1.02684-31.01976,14.01947-43.08487l23.08134-13.32633C600.10741,232.85214,601.19318,232.61212,602.26491,232.447Zm19.81718,177.02976,11.09779,6.92592.36843.22246c15.85027,9.5704,30.72555-.8439,44.79234-8.32011-1.92267,1.02186-.52335,19.04651-.25335,21.65856.78411,7.58559,3.41586,14.71619,9.276,19.8399,5.84666,5.112,13.343,8.74561,19.90537,12.841-1.4054-.87709-14.00675,7.42411-15.83661,8.58777-5.36553,3.41208-10.44592,7.60243-13.36468,13.37676-4.44624,8.79622-3.05972,20.64277-3.39067,30.25738L658.28642,504.6372c-15.9311-9.94271-31.04569.61351-45.13444,8.1139,1.39733-.74389.5796-15.68942.61109-17.7655.30338-20.0018-14.89619-27.43348-29.53759-36.57247l17.02467-9.06421A28.58583,28.58583,0,0,0,616.154,425.46672l.64924-18.86185A56.78257,56.78257,0,0,0,622.08209,409.47679ZM398.16659,477.23028a28.57831,28.57831,0,0,0-6.19613,17.531v19.28717l-16.67459-9.6268a28.67941,28.67941,0,0,0-28.18179-.01717l-16.70414,9.64391c1.37561-.79419.01064-15.50963-.00011-17.57C330.352,485.39,325.242,475.75463,315.725,470.02806c-5.30472-3.19195-10.73139-6.19562-16.09317-9.29117l16.70425-9.644c.2794-.16077.54943-.3309.82609-.51532,15.30979-10.20539,13.24764-27.037,13.24764-43.01018.35965.17192.74291.328,1.10822.49615l15.71312,9.07133.46922.2574a28.72622,28.72622,0,0,0,27.00225-.01152l17.26779-9.95774c-1.35816.7832-.00918,15.346,0,17.36845.04672,10.25115,4.35554,20.25992,13.26661,25.798.24822.16548.50581.32784.80711.50347l16.70425,9.644-16.74328,9.66661A27.60569,27.60569,0,0,0,398.16659,477.23028Zm109.2568-188.49645L539.133,307.04049c-15.23892,15.04349-28.82342,34.02467-35.01453,54.66584a55.00627,55.00627,0,0,0-2.24981-6.80191,147.09189,147.09189,0,0,0-31.70705-47.38036l32.53934-18.78711c.13114-.06635.26071-.13426.39185-.20529l.57918-.26461,1.3941-.23886.40121.02029,1.62671.51362C507.20327,288.62064,507.31255,288.67684,507.42339,288.73382Zm-22.18777,87.75236a129.434,129.434,0,0,1-68.68375-3.007,46.528,46.528,0,0,0-10.17613-42.528,51.95642,51.95642,0,0,0,9.30169.859,45.9774,45.9774,0,0,0,14.4244-2.22453,48.683,48.683,0,0,0,18.187-11.07584A129.43966,129.43966,0,0,1,485.23562,376.48618Zm-66.91771,54.0043c-.11865-.07728-.23417-.15065-.34033-.21622l-.71657-.5425-1.06-1.62827-.23261-1.24267c-.00312-.15846-.00937-.31535-.01873-.47381V397.36786a150.35862,150.35862,0,0,0,20.96481,4.18289,179.13243,179.13243,0,0,0,32.29521.93,154.83524,154.83524,0,0,0-14.26731,27.10119,147.08869,147.08869,0,0,0-6.05841,18.55489Zm51.35309,28.055a126.93486,126.93486,0,0,1,31.12533-59.81108,126.93805,126.93805,0,0,1,31.12494,59.81147,45.64024,45.64024,0,0,0-31.12494,29.48135A45.63915,45.63915,0,0,0,469.671,458.54553ZM530.69811,401.237c.32843.04683.65529.1043.98352.149a151.14543,151.14543,0,0,0,61.44745-4.07878l-.92771,27.009c-.01405.153-.025.299-.03278.42775l-.14831.88907-.68378,1.37771-1.22706,1.08265c-.13426.07493-.26383.15221-.39809.23261l-37.05378,19.7278c-3.60429-13.5242-9.5946-26.36159-16.70035-38.38846C534.27255,406.81367,532.5067,404.01122,530.69811,401.237Zm61.10927-49.04132a48.681,48.681,0,0,0,.49879,21.28582,129.4116,129.4116,0,0,1-68.68336,3.00979,129.44121,129.44121,0,0,1,36.94684-57.97781,48.6886,48.6886,0,0,0,18.18617,11.07593,45.97141,45.97141,0,0,0,14.42244,2.22434,51.95449,51.95449,0,0,0,9.30384-.8598A48.79544,48.79544,0,0,0,591.80738,352.19564Zm-234.01195-49.285c-33.27971,3.75309-70.79344-9.8559-95.377-26.48844-.07415-.1526-.16158-.29886-.24471-.44717V247.70634l24.47856-14.133c.161-.002.321-.02.48122-.031C313.83671,246.50982,344.39769,272.20149,357.79544,302.91068ZM500.79633,543.05714c19.50612,26.427,26.34354,64.96354,24.27034,94.00074-.09191.13611-.17192.28013-.25642.42161l-24.0149,13.86492-24.01295-13.86385c-.0843-.14167-.16431-.28618-.25661-.42268C474.4524,608.02069,481.29,569.48411,500.79633,543.05714ZM651.062,302.91322c13.39541-30.708,43.95482-56.40027,70.659-69.36978.16158.011.3216.02927.48317.03122l24.47837,14.13168v28.27107c-.08274.14743-.16977.293-.24354.44483C721.85526,293.05595,684.34329,306.666,651.062,302.91322ZM616.563,143.49991c2.27732,3.33412,3.01886,9.21856,1.84527,14.64286-1.00713,4.65485-3.287,8.45292-6.09939,10.15818a11.85271,11.85271,0,0,1-15.26136-3.85476,8.23534,8.23534,0,1,0-14.20564,8.33564,28.26916,28.26916,0,0,0,38.01037,9.60134c6.80152-4.12669,11.65083-11.49793,13.65456-20.75708q.40219-1.85815.63031-3.7206c11.57355,23.46538,31.27091,43.97346,51.96076,58.93137l-16.58834-.1569-31.91527-27.87766a7.13748,7.13748,0,1,0-9.39107,10.75092l19.37069,16.9193-42.074-.3979a8.2075,8.2075,0,0,0-3.05477-.34989c-.3938.02976-.788.07523-1.182.11455-1.06646-.16441-2.14677-.40268-3.23255-.67666L575.9282,201.82536c-12.98736-12.06365-18.09972-27.48455-14.01342-43.07941,2.97945-11.36806,11.63229-20.95447,22.04376-24.42226C594.31712,130.87219,609.89481,133.73543,616.563,143.49991Zm-40.48927-23.81156a49.13492,49.13492,0,0,0-15.50412,10.08383A124.93088,124.93088,0,0,1,550.566,119.68834Zm-53.84624,0A139.567,139.567,0,0,0,539.21494,141.195L507.592,159.45305l-.384.21934c-.14363.07493-.2935.13738-.49488.22793-.02029.00859-.04059.018-.05932.02732-.07181.02342-.14831.04918-.231.07806a4.273,4.273,0,0,1-1.28014.26227h-.153a4.28511,4.28511,0,0,1-1.28794-.26227c-.07337-.02654-.14831-.05152-.2248-.07728-.04059-.01873-.0843-.03825-.128-.05854-.14206-.06323-.28569-.12333-.44961-.21l-32.66891-18.8601a160.25039,160.25039,0,0,0,18.31535-21.11146Zm-63.94158,0a124.92364,124.92364,0,0,1-10.00011,10.08031,49.12746,49.12746,0,0,0-15.49749-10.08031Zm-83.93672,41.936c2.00353,9.25905,6.85206,16.63039,13.654,20.7562a28.26812,28.26812,0,0,0,38.01037-9.60192,8.23529,8.23529,0,1,0-14.20564-8.33544,11.85483,11.85483,0,0,1-15.26175,3.85544c-2.812-1.70565-5.09207-5.50294-6.099-10.15857-1.174-5.424-.432-11.30855,1.84469-14.64257,6.66863-9.76379,22.24261-12.62664,32.60549-9.1769,10.41108,3.46721,19.06392,13.05361,22.04278,24.42226,4.33179,16.53136-1.664,32.86991-16.433,45.21681l-18.11767,10.46065a36.84122,36.84122,0,0,1-5.79458,1.41606c-.39438-.03952-.78877-.08508-1.18257-.11474a8.18937,8.18937,0,0,0-3.04853.35057l-42.08106.39819,19.36952-16.91969a7.137,7.137,0,1,0-9.38951-10.75112L338.34747,216.6779l-16.58912.157c20.69025-14.9586,40.38682-35.46785,51.96-58.93391Q373.94812,159.76133,374.34924,161.62431ZM286.31841,126.558l20.1056-6.86962h42.43622a39.97493,39.97493,0,0,0,3.134,3.21742c.94059.85278,1.91474,1.65316,2.91349,2.4068-26.10957-1.71209-53.71939,5.09236-77.01948,15.53271Zm-13.2631-6.86962L265.232,133.53882c-.46932-4.56869-1.13183-9.20129-1.95221-13.85048Zm-10.88157,52.6181c.08274-.14811.17-.29379.24393-.4458,24.58433-16.63361,62.09611-30.24094,95.37582-26.49019-13.39111,30.69719-43.9314,56.38056-70.6266,69.35407-.16919-.0122-.33974-.00985-.50991-.012l-24.48324-14.13519Zm-62.73481-52.6181h43.84281a165.35712,165.35712,0,0,1,2.82509,42.7585c-.09347.13865-.17524.28559-.2611.42971L221.35955,177.0135l-24.484-14.13578c-.08606-.1445-.168-.29184-.26169-.43088A165.36573,165.36573,0,0,1,199.43893,119.68834Zm-19.99788,0c-.82058,4.65016-1.48328,9.28384-1.9526,13.8536l-7.82465-13.8536ZM107.68282,74.92719a19.18335,19.18335,0,1,1,19.18335-19.18335A19.18336,19.18336,0,0,1,107.68282,74.92719Zm19.84957,44.76115h8.75685l20.11457,6.87216L164.834,140.848a189.91289,189.91289,0,0,0-32.53056-11.17555ZM143.723,153.56988a165.23129,165.23129,0,0,1,36.58036,18.29252c.07376.15163.1606.29711.24354.44463V200.5781l-11.25547,6.49836Zm93.835,196.36688-32.96514-68.98593L221.36033,271.27l24.48461,14.136c.08625.14528.169.2932.26344.43283A166.79416,166.79416,0,0,1,237.558,349.93676Zm10.80644-114.50053c-.12274.08538-.23925.17573-.35633.26647-.10323.0802-.20588.15992-.30559.24432-.13.11045-.25388.22559-.37643.34257-.07942.07542-.15787.15085-.234.22939-.12509.12811-.24354.26-.35926.39458-.06908.0804-.13738.1609-.20334.24364-.10772.13484-.20978.27271-.30872.413-.06752.09533-.13387.19163-.19768.28959-.08528.13153-.16529.26481-.24315.40014-.06752.11748-.1327.236-.19495.35662-.06362.12265-.12235.24637-.17895.37126-.06381.13826-.12411.27769-.17973.41956-.04644.117-.089.23485-.12977.3537-.05171.15026-.10128.3013-.14538.45507-.03532.12343-.066.24734-.09582.37194-.03532.14733-.06908.29506-.0966.44551-.02752.14655-.048.294-.06771.4419-.017.12918-.03493.25769-.04625.38892-.016.1809-.02225.36209-.02752.54445-.00176.07562-.01151.14928-.01151.22539v21.76939l-18.853-10.88489c-.0683-.03942-.13992-.06928-.209-.10674-.15611-.08469-.31262-.16782-.47381-.24286-.12372-.05766-.249-.10879-.37428-.1606-.13231-.05425-.26422-.10811-.39887-.15582-.15065-.05357-.3015-.10011-.45312-.14509-.11631-.03415-.23242-.06791-.3495-.09738-.16275-.04088-.3253-.075-.48883-.10635-.11513-.022-.23027-.04293-.34579-.06049-.16-.02371-.31964-.04215-.47986-.05708-.12782-.0122-.25544-.02205-.38346-.02869-.14577-.00712-.29076-.00985-.43595-.00985-.14538,0-.29037.00273-.43595.00985-.128.00663-.25583.01649-.38346.02869-.16041.01493-.31964.03337-.47947.05708-.1165.01756-.23144.03854-.34657.06049-.16353.03132-.32569.06547-.48825.10635-.11748.02947-.23339.06323-.3497.09738-.15143.045-.30247.09152-.45273.14509-.13465.04771-.267.10157-.39965.15582-.12489.05181-.25017.10294-.37448.1606-.1606.075-.31711.15816-.47322.24286-.06908.03747-.1405.06732-.2088.10674l-18.85336,10.88528V242.63428c0-.07611-.00956-.14977-.01132-.22539-.00507-.18236-.01112-.36355-.02752-.54445-.01132-.13123-.02966-.25974-.04625-.38892-.0201-.14792-.04-.29535-.06752-.4419-.02752-.15046-.06147-.29818-.0966-.44551-.03005-.1246-.06069-.24851-.096-.37194-.0441-.154-.09328-.3052-.14519-.45566-.04137-.11826-.08352-.23573-.12938-.35243-.056-.14255-.11709-.28237-.1809-.42122q-.0843-.18719-.17758-.3698c-.06245-.12109-.12821-.23954-.19592-.35711-.07767-.13553-.15807-.26861-.24354-.40024-.06323-.09786-.129-.19368-.19631-.28871-.09913-.14089-.20178-.27915-.31028-.41439-.06557-.08255-.13367-.16265-.20256-.24266-.11552-.13465-.23437-.26686-.35906-.395-.0763-.07855-.15494-.154-.23417-.22939-.12255-.117-.24627-.23212-.37682-.34257-.09933-.0844-.20217-.16412-.305-.24432-.11709-.09074-.23378-.18109-.35633-.26647-.13367-.09338-.272-.17934-.41058-.26539-.07533-.04674-.14519-.09933-.22246-.14411l-15.29532-8.83052-1.5387-3.21976,16.834-9.7191c.07181-.04118.136-.09035.20685-.13358.146-.09035.29154-.18109.432-.27964.11689-.08137.22773-.16782.33935-.25378.10869-.084.2168-.16812.3214-.2571.12567-.107.24588-.21817.36453-.33135.08274-.07894.16509-.15787.2451-.24042.12177-.12528.23807-.25456.35106-.38609.07123-.08255.14148-.16538.20978-.25066.10616-.13309.20646-.269.30442-.40726.06869-.09708.1364-.19524.201-.29525.0843-.12987.16353-.26139.24-.39516.0685-.11884.135-.23886.19788-.36111.06245-.12109.1206-.24364.177-.36716.06381-.13923.1247-.27954.18148-.42268.04547-.1165.08762-.234.129-.35214.05191-.15046.10108-.3015.14519-.45566.03532-.12333.066-.24754.096-.37243.03474-.147.06908-.29418.0966-.44424.02752-.14733.04781-.29506.06752-.44366.01659-.1286.03493-.25691.04625-.38736.01639-.18129.02244-.36316.02752-.54543.00176-.07562.01132-.14928.01132-.2251V183.88L216.968,194.76479l.02029.01a8.68972,8.68972,0,0,0,.79716.39185c.08625.03883.17.08859.25661.12411.135.055.27671.09113.41448.13943a8.728,8.728,0,0,0,2.89514.51284l.00781-.00059.0082.00059a8.72709,8.72709,0,0,0,2.89241-.51206c.13855-.0483.28062-.08489.41683-.14021.08723-.03552.17095-.08528.2572-.12411a8.7861,8.7861,0,0,0,.797-.39185l.02029-.01,18.85434-10.88567v21.77095c0,.0762.00976.14977.01151.22549.00488.18187.01151.36336.02752.54406.01132.13143.02927.26081.04625.39048.0201.147.0402.29379.06732.43936.02791.15172.06206.30111.09777.4499.02947.12265.05913.24481.09425.3657.04449.1566.09464.31.14792.46278.03981.11572.08118.23085.12626.34482.05737.14587.11943.28842.184.43019.05523.1206.11221.24.17251.35828q.09747.18851.20412.37155c.07415.12967.151.25749.233.38336.06752.10469.13758.207.21.30862.09406.13358.19163.26481.29428.39341.07142.09.14616.17778.22168.26491.10909.12714.2209.25164.33838.37282.0845.087.17173.17065.25935.25437.11435.108.22929.215.35009.31779.10987.09377.22422.18265.339.27125.10557.08147.21075.16324.32121.24032.14753.10382.30052.19944.45449.29408.06459.03961.12431.08479.19046.12333l18.85317,10.8845-18.85317,10.88528c-.07728.04479-.14675.09738-.22227.14411C248.63588,235.25689,248.49733,235.34285,248.36443,235.43623Zm.59441,138.35873c9.01893-18.51518,14.25072-39.35305,16.27474-59.05051l8.15815,14.44332L265.20626,370.764a7.13714,7.13714,0,0,0,5.62442,8.38189,7.129,7.129,0,0,0,8.38179-5.62432L284.18,348.288l20.69415,36.63812a8.19749,8.19749,0,0,0,1.22335,2.81767c.10752.15738.22149.31145.33311.46659v35.34637a50.62169,50.62169,0,0,1-3.03252,7.31738L282.10839,443.1662,275.92762,430.232a8.176,8.176,0,0,0,3.28094-3.17381,28.27006,28.27006,0,0,0-10.69014-37.71961,27.92891,27.92891,0,0,0-13.69027-3.26094ZM361.82163,586.31443a23.17241,23.17241,0,0,1-8.897,5.04767l-22.83331-47.78255q.99113-1.4905,2.12726-2.88626l23.60529-13.6285a43.30552,43.30552,0,0,1,9.78233-.54894l40.9906,23.66618,19.5592,33.14955-23.86854-8.15484a7.0004,7.0004,0,0,0-4.52635,13.249l39.32837,13.43648,8.26821,14.01255c-22.85282-10.239-49.93362-16.91179-75.543-15.23346.98079-.73949,1.93777-1.52475,2.8608-2.36231,6.88075-6.24234,10.7641-13.97518,10.93367-21.77427a27.72782,27.72782,0,0,0-26.79608-27.577l-.05737-.00029a8.07693,8.07693,0,0,0-.055,16.15366,11.62658,11.62658,0,0,1,10.75785,11.07262C367.38848,579.37767,365.28171,583.17613,361.82163,586.31443Zm5.166,33.99725c32.63808-3.67981,69.43154,9.66778,93.54167,25.98067.0724.1487.15768.29145.23886.436v27.72711L436.75387,688.32c-.16548.00234-.33116-.0001-.49566.01161C410.07546,675.60783,380.121,650.41846,366.98766,620.31168Zm47.3589,99.587a155.59821,155.59821,0,0,1,21.94014-13.11216c.15846.01083.31574.02869.4742.03064l24.00729,13.85975v27.727c-.08118.1447-.16646.28745-.23886.43634a157.68435,157.68435,0,0,1-25.6945,13.93381Zm60.614-10.75473c-.09757-.08294-.19827-.16109-.29935-.23964-.11474-.089-.2291-.17758-.34931-.26149-.13114-.09142-.26657-.17582-.40278-.26013-.074-.04586-.14245-.09747-.21778-.14148l-18.49079-10.675,18.49079-10.6754c.06986-.04049.13328-.08869.20256-.131.14324-.0886.28569-.17758.42366-.27427.11494-.07972.22344-.16451.33272-.24881.10694-.08245.21271-.1649.31535-.25222.12333-.105.2412-.21407.3575-.32491.08118-.07747.16236-.15494.24042-.23583.11923-.12294.23339-.24959.34423-.37868.06986-.081.13894-.16226.20568-.24588.10421-.13055.20295-.26383.29876-.39946.06752-.09523.13367-.19144.19729-.28949.08235-.12733.16-.25642.23534-.38765.06713-.1165.13231-.23417.19417-.35418.06069-.11865.11787-.23876.17348-.35994.06225-.1366.122-.27418.178-.41458.04449-.11426.08586-.22939.12645-.3454.05074-.14753.09913-.29564.14245-.44688.03474-.121.06459-.24276.09406-.36521.034-.14431.06752-.28862.09464-.43575.02712-.1445.047-.2894.06615-.43517.01659-.12616.03435-.25193.04547-.37985.01581-.17778.02205-.35623.02712-.53489.00156-.07415.01093-.14645.01093-.22071V658.07871l18.49059,10.6754.0199.00976a8.55524,8.55524,0,0,0,.78174.38443c.08469.03805.16685.08684.25193.12167.1325.054.27125.08938.40648.1367a8.55819,8.55819,0,0,0,2.83933.503l.00761-.00059.0082.00059a8.55873,8.55873,0,0,0,2.8366-.5021c.136-.04742.27535-.08333.40882-.13758.08547-.03483.16743-.08362.25232-.12167a8.60182,8.60182,0,0,0,.78155-.38443l.0199-.00976,18.49176-10.67618V679.43c0,.07464.00917.14665.01093.2211.00468.17826.01132.35633.02712.53352.01112.12889.02908.25583.04566.383.01951.14421.03922.28813.06576.43088.02732.149.06088.29535.09582.44132.02908.12021.05835.24.0925.35867.04352.15348.09289.30394.145.45381.039.11348.07962.22637.12392.33828.0562.14294.11709.28286.1807.4218.05405.11835.10987.23544.16919.35145.06362.12323.13075.24461.2.36443.07279.12714.14831.25252.22812.376.06635.10265.13543.203.20646.30257.0923.131.18773.25964.28842.3859.07006.0882.14324.17426.21719.25974.10713.1247.217.24686.33213.3657.08294.08528.16841.16743.25427.24939.112.106.2252.21095.34326.31174.10791.092.21993.17914.33233.266.10382.07991.20724.16011.31535.23583.1448.10167.29467.19544.44571.28832.06362.03893.12216.08323.18695.121l18.4902,10.675-18.4902,10.67579c-.07611.044-.144.09562-.21817.14148-.13621.0843-.272.1687-.40278.26013-.11982.08391-.23456.17251-.34931.26149-.10128.07855-.20178.1567-.29974.23964-.12762.10821-.24861.2211-.369.33584-.07786.07406-.15494.148-.22968.2251-.12235.12548-.23886.255-.352.387-.06791.07874-.13484.15777-.19944.23886-.10577.13231-.20588.26754-.30286.40512-.06635.09357-.13153.18792-.194.284-.08352.12889-.162.25974-.23846.39243q-.09894.17285-.19124.34979c-.06206.12021-.12.24159-.17543.364-.06225.13562-.12177.27242-.1766.41146-.04527.11484-.08664.23046-.12684.347-.05074.14733-.09952.29545-.14284.44629-.03435.121-.06459.24256-.09367.36492-.03474.14441-.06791.2893-.095.43683-.02673.14363-.04664.28842-.066.43341-.01659.12675-.03454.25271-.04566.38141-.01581.17739-.02186.35516-.02712.534-.00176.07415-.01093.14636-.01093.2211v21.35042l-18.4902-10.6754c-.06713-.03874-.13738-.068-.2051-.10479-.15319-.08294-.30676-.16451-.46464-.23807-.12138-.05669-.24432-.10665-.36726-.15758-.12977-.05318-.25935-.106-.39146-.1527-.14753-.05259-.29545-.09825-.44415-.14245-.114-.03347-.22793-.06654-.34267-.09542-.15963-.0402-.31925-.07367-.47947-.1043-.11279-.02156-.22559-.04215-.33935-.05923-.1569-.02332-.3132-.04147-.47049-.0561-.12509-.0119-.25037-.02156-.37585-.0281-.143-.007-.2851-.00966-.42756-.00966-.14284,0-.28471.00263-.42775.00966-.12567.00654-.251.0162-.376.0281-.15709.01464-.31359.03278-.47029.0561-.11416.01707-.227.03766-.33994.05923-.16021.03064-.31925.0641-.47888.1043-.11513.02888-.22871.062-.34267.09542-.14889.0442-.29681.08986-.44434.14245-.13211.04674-.26169.09952-.39185.1527-.12255.05093-.24549.10089-.36726.15758-.15748.07357-.31106.15514-.46405.23807-.06791.03678-.138.06606-.2049.10479l-18.49059,10.67589v-21.3509c0-.07474-.00937-.14694-.01093-.2211-.00507-.17885-.01132-.35662-.02712-.534-.01112-.1287-.02888-.25466-.04547-.38141-.01951-.145-.039-.28979-.06615-.43341-.02712-.14753-.0603-.29242-.09464-.43683-.02947-.12235-.05932-.24393-.09406-.36492-.04332-.151-.09172-.29925-.14245-.44688-.04059-.11592-.082-.23115-.12684-.3456-.055-.13982-.11474-.27691-.17739-.41312q-.08284-.18353-.17446-.36277c-.06108-.11865-.12548-.23485-.19183-.35018-.0765-.13289-.15533-.26354-.23886-.39253-.06206-.096-.12684-.19-.19241-.28325-.09757-.13806-.19827-.27369-.30481-.40639-.064-.081-.13075-.15953-.19866-.238-.11318-.13211-.22949-.26178-.352-.38726-.07474-.07708-.15182-.151-.22949-.2251C475.20994,709.36506,475.08856,709.25217,474.96055,709.144Zm25.83637,142.93132c-19.5069-26.42814-26.34491-64.9652-24.27112-94.00152.09172-.136.17192-.28052.25622-.422l24.01431-13.86463,24.01314,13.86394c.08469.14255.16587.28764.25837.42453C527.14085,787.11155,520.304,825.64793,500.79692,852.07528Zm67.129-88.80115a158.37651,158.37651,0,0,1-26.86165-14.43386c-.07279-.14967-.15846-.2931-.24022-.43858V720.67692l24.00768-13.86111c.15807-.00185.31477-.01961.47205-.03044A156.29836,156.29836,0,0,1,588.297,720.64443Zm-2.58955-74.94443c-.16587-.012-.33291-.00966-.5-.01171l-24.01236-13.86326V646.72782c.08157-.14519.167-.28813.23925-.43722,24.1115-16.31338,60.90144-29.659,93.5405-25.98038C621.47051,650.4167,591.51818,675.60588,565.33641,688.3297Zm84.58284-96.64132a22.51243,22.51243,0,0,1-10.14978-5.3759c-3.46067-3.13829-5.56782-6.93656-5.63886-10.16071a11.62665,11.62665,0,0,1,10.759-11.07262,8.077,8.077,0,0,0-.055-16.15375c-.01971,0-.03825,0-.05815.00059a27.72737,27.72737,0,0,0-26.7951,27.57675c.169,7.79987,4.05332,15.53271,10.935,21.775.92225.83638,1.87806,1.62135,2.85729,2.36045-25.60707-1.67911-52.68553,4.9944-75.53718,15.23375l8.26782-14.01225L603.82976,588.423a6.99984,6.99984,0,1,0-4.52713-13.24749l-23.86523,8.15386,20.07242-34.01921L638.496,526.42461a41.32658,41.32658,0,0,1,12.3549,1.83835l16.7667,10.46455A35.52275,35.52275,0,0,1,672.31,544.832Zm97.97747-205.03612A26.40611,26.40611,0,0,0,740.34,389.3386a28.255,28.255,0,0,0-11.23166,36.63217l-8.1121,16.97609-13.45785-8.39847a49.67513,49.67513,0,0,1-5.667-12.76939l1.1892-34.57927a8.2418,8.2418,0,0,0,.92459-2.27478l20.69259-36.63656,4.968,25.23435a7.14042,7.14042,0,0,0,6.99549,5.76024,7.21773,7.21773,0,0,0,1.38669-.13592,7.1389,7.1389,0,0,0,5.62442-8.38189l-8.18625-41.57759,8.15776-14.44313a182.185,182.185,0,0,0,13.397,52.81481Zm21.047-44.044a167.38862,167.38862,0,0,1-6.19423-56.77143c.09367-.13865.17524-.286.26149-.43019l24.485-14.13666,12.17771,7.03062Zm53.397-111.74335-7.20781,4.16182c-.07728.04479-.14714.09738-.22246.14411-.13894.08606-.2771.172-.41058.26539-.12255.08538-.23886.17573-.35594.26647-.10382.0802-.20607.15992-.30559.24432-.13.11045-.25408.22559-.37663.34257-.07923.07542-.15807.15085-.23417.22939-.12489.12811-.24354.26-.35867.39458-.06947.0804-.13777.1609-.20373.24364-.10733.13484-.20958.27271-.30872.413-.06752.09533-.13387.19163-.19748.28959-.08547.13153-.16548.26481-.24354.40014-.06713.11748-.1327.236-.19514.35662-.06323.12265-.12216.24637-.17875.37126-.06362.13826-.12372.27769-.17953.41956-.04644.117-.089.23485-.12957.3537-.0523.15026-.10147.3013-.14558.45507-.03552.12343-.066.24734-.09562.37194-.03591.14733-.06908.29506-.09679.44551-.02732.14655-.048.294-.06752.4419-.01717.12918-.03474.25769-.04644.38892-.016.1809-.02225.36209-.02771.54445-.002.07562-.01132.14928-.01132.22539v12.50448l-3.46965,7.26147-15.38313-8.88145c-.0683-.03942-.14011-.06928-.20919-.10674-.1565-.08469-.31262-.16782-.47381-.24286-.12372-.05766-.249-.10879-.37428-.1606-.1327-.05425-.26422-.10811-.39926-.15582-.15026-.05357-.3013-.10011-.45234-.14509-.1167-.03415-.233-.06791-.3497-.09738-.16275-.04088-.3255-.075-.489-.10635-.11513-.022-.22988-.04293-.34579-.06049-.16-.02371-.31964-.04215-.47966-.05708-.128-.0122-.25564-.02205-.38365-.02869-.14558-.00712-.29076-.00985-.43595-.00985s-.29037.00273-.43595.00985c-.128.00663-.25564.01649-.38365.02869-.16.01493-.31964.03337-.47966.05708-.11591.01756-.23144.03854-.34618.06049-.16353.03132-.3255.06547-.48864.10635-.11709.02947-.233.06323-.34931.09738-.15143.045-.30247.09152-.45273.14509-.13465.04771-.26657.10157-.39926.15582-.12528.05181-.25056.10294-.37467.1606-.1608.075-.31769.15816-.47342.24286-.06908.03747-.14089.06732-.20919.10674L764.2505,264.40406V242.63428c0-.07611-.01015-.14977-.01132-.22539-.00546-.18236-.01132-.36355-.02771-.54445-.01132-.13123-.02966-.25974-.04644-.38892-.0199-.14792-.0402-.29535-.06752-.4419-.02732-.15046-.06128-.29818-.09679-.44551-.02966-.1246-.0601-.24851-.09523-.37194-.04449-.154-.09367-.3052-.146-.45566-.041-.11826-.08313-.23573-.12879-.35243-.05659-.14255-.11709-.28237-.18109-.42122q-.0843-.18719-.17758-.3698c-.06284-.12109-.1284-.23954-.19592-.35711-.07767-.13553-.15807-.26861-.24354-.40024-.06323-.09786-.12918-.19368-.19631-.28871q-.1487-.21134-.31028-.41439c-.06557-.08255-.13348-.16265-.20256-.24266-.11552-.13465-.23417-.26686-.35945-.395-.07611-.07855-.15455-.154-.23378-.22939-.12255-.117-.24666-.23212-.37663-.34257-.09952-.0844-.20256-.16412-.3052-.24432-.11709-.09074-.23378-.18109-.35633-.26647-.13348-.09338-.272-.17934-.41058-.26539-.07533-.04674-.14558-.09933-.22246-.14411l-18.85356-10.8845L759.859,213.25733c.07181-.04118.13621-.09035.20685-.13358.146-.09035.29154-.18109.43166-.27964.11709-.08137.22793-.16782.33955-.25378.10889-.084.217-.16812.3216-.2571.12567-.107.24588-.21817.36453-.33135.08274-.07894.16548-.15787.2451-.24042.12177-.12528.23807-.25456.35126-.38609.071-.08255.14128-.16538.20958-.25066.10616-.13309.20646-.269.30442-.40726.06869-.09708.13621-.19524.201-.29525.0843-.12987.16392-.26139.24-.39516.0683-.11884.13465-.23886.19788-.36111.06245-.12109.1206-.24364.17719-.36716.06362-.13923.12411-.27954.18109-.42268.04566-.1165.08781-.234.12879-.35214.0523-.15046.10147-.3015.146-.45566.03513-.12333.06557-.24754.09523-.37243.03513-.147.06947-.29418.09679-.44424.02732-.14733.048-.29506.06752-.44366.01678-.1286.03513-.25691.04644-.38736.01639-.18129.02225-.36316.02771-.54543.00117-.07562.01132-.14928.01132-.2251V183.88l18.85278,10.88479.02069.01a8.711,8.711,0,0,0,.797.39185c.08664.03883.17016.08859.25681.12411.135.055.27632.09113.41448.13943a8.72891,8.72891,0,0,0,2.89514.51284l.00781-.00059.00859.00059a8.72659,8.72659,0,0,0,2.892-.51206c.13855-.0483.281-.08489.41683-.14021.08742-.03552.17095-.08528.2572-.12411a8.7042,8.7042,0,0,0,.79657-.39185l.02069-.01,18.85434-10.88567v21.77095c0,.0762.00937.14977.01132.22549.00468.18187.01171.36336.02771.54406.01171.13143.02927.26081.04644.39048.0199.147.0402.29379.06713.43936.0281.15172.06167.30111.09757.4499.02966.12265.05932.24481.09406.3657.04449.1566.09523.31.14831.46278.03981.11572.08118.23085.12645.34482.05737.14587.11943.28842.18382.43019q.08255.1809.1729.35828c.0644.12567.1327.24939.20334.37155.07454.12967.15143.25749.233.38336.06791.10469.13816.207.21036.30862.09406.13358.19163.26481.29428.39341.07142.09.146.17778.22168.26491.10889.12714.2209.25164.33838.37282.08469.087.17173.17065.25954.25437.114.108.2291.215.35009.31779.10967.09377.224.18265.33877.27125.10538.08147.21075.16324.32121.24032.14753.10382.30052.19944.45468.29408.06479.03961.12411.08479.19046.12333L827.377,220.326Zm12.63435-26.43916-6.66609-3.84842V172.30645c.08313-.14811.17056-.29379.24432-.4458a162.38971,162.38971,0,0,1,29.42017-15.56306Zm34.87832-72.98929a191.56064,191.56064,0,0,0-25.82993,9.40883l8.43018-14.28731,20.106-6.86962h2.90763Zm22.74823-56.50926A19.18335,19.18335,0,1,1,911.785,55.74384,19.18336,19.18336,0,0,1,892.60161,74.92719Z"/></svg>