<svg id="Слой_1" data-name="Слой 1" xmlns="http://www.w3.org/2000/svg" viewBox="0 0 1003 1030"><title>Christmas flags</title><path d="M963.00928,10.98264H39.99081A21.12156,21.12156,0,0,0,20.93323,41.2107l461.50933,965.79189a21.1216,21.1216,0,0,0,38.115,0L982.06657,41.2107A21.12124,21.12124,0,0,0,963.00928,10.98264ZM791.2558,132.33845c14.82,0,29.40095-4.22758,43.50063-12.55395-17.63245,25.233-31.32311,36.50835-43.50063,36.50835s-25.86817-11.27537-43.5-36.50835C761.85534,128.11087,776.43585,132.33845,791.2558,132.33845ZM805.58087,225.273h-.09328a16.00483,16.00483,0,0,0-8.25143,2.11223,16.28089,16.28089,0,0,0-5.98036,6.25375,16.28207,16.28207,0,0,0-5.98026-6.25375,15.99172,15.99172,0,0,0-8.25163-2.11223h-.0926a15.98422,15.98422,0,0,0,0-16.73255h.0926a16.00872,16.00872,0,0,0,8.25163-2.11184,16.281,16.281,0,0,0,5.98026-6.25434,16.27983,16.27983,0,0,0,5.98036,6.25434,15.98629,15.98629,0,0,0,8.25143,2.11184h.09328a15.98366,15.98366,0,0,0,0,16.73255ZM756.49476,243.219c9.151-4.98981,19.36415-9.52669,23.727-6.97812,4.36311,2.548,5.58509,13.76267,5.88883,24.27483-9.68749,1.37186-19.01553,6.5693-28.2739,14.946C760.37967,263.16222,760.16472,252.39207,756.49476,243.219ZM681.77552,376.83329a50.25856,50.25856,0,0,0-9.592-4.54274c-2.04315-.69393-6.77986-.76281-4.74978-4.0582l1.8242-2.9611a10.24473,10.24473,0,0,1,2.10472-2.68946c2.36894-1.92626,5.51709.13621,7.90339,1.13144a66.28773,66.28773,0,0,1,8.70592,4.30408c2.9813,1.79454,4.53991,2.30971,5.71428.416,2.60126-4.195,1.461-17.01941-1.96236-19.00206-3.59717-2.08315-9.42863.024-12.91389,1.36464a32.02185,32.02185,0,0,0-6.78327,3.48311,28.24712,28.24712,0,0,0-5.13841,5.173c-4.33062,5.05909-8.24168,10.9208-10.34356,17.25573a23.76555,23.76555,0,0,0-.83746,8.477c.05552,1.30434.79814,4.00336.14645,5.21891-.22568.42112-.73345.23729-1.75551-.30423-4.49581-2.38192-6.76239-3.526-11.32855-5.72043-4.07108-1.95651-2.14931-8.98341,2.10111-18.36453,8.63869-19.06666,38.95418-37.063,53.29584-28.58515,13.98005,8.26392,10.5992,40.46839-.76935,56.65649-12.10785,17.2407-14.04348,13.53435-16.29787,12.04365-3.3668-2.22639-5.06387-3.3108-8.483-5.42205-.687-.42424-3.03057-1.56954-2.41451-2.59306,1.1493-1.90909,11.33274-4.97693,16.17707-12.65132C688.29106,382.43409,685.49788,379.0628,681.77552,376.83329ZM533.57943,789.09444c-9.25837-8.37671-18.58641-13.57416-28.27419-14.94582.30335-10.51217,1.52543-21.72665,5.889-24.27483,4.36584-2.54974,14.57563,1.98773,23.72658,6.97851C531.25137,766.025,531.03613,776.79535,533.57943,789.09444Zm-19.095-50.1873h-.09269a16.00181,16.00181,0,0,0-8.25153,2.11223,15.62263,15.62263,0,0,0-4.89839,4.56869h-.00107a19.68807,19.68807,0,0,0-1.0808,1.68409h-.00117a19.7119,19.7119,0,0,0-1.0808-1.68409h-.00117a15.62231,15.62231,0,0,0-4.89829-4.56869,15.99473,15.99473,0,0,0-8.25153-2.11223h-.09269a15.98387,15.98387,0,0,0,0-16.73235h.09269a16.00279,16.00279,0,0,0,8.25153-2.11223,16.27894,16.27894,0,0,0,5.98026-6.25434H500.16a16.27894,16.27894,0,0,0,5.98026,6.25434,15.9829,15.9829,0,0,0,8.25153,2.11223h.09269a15.98331,15.98331,0,0,0,0,16.73235Zm-49.0866,17.94458c9.15094-4.98962,19.36357-9.5265,23.72667-6.97793,4.3636,2.54818,5.58558,13.76267,5.88893,24.27483-9.68769,1.37166-19.01572,6.5691-28.27409,14.94582C469.28269,776.79535,469.06745,766.025,465.39788,756.85172Zm1.34151-84.8658c9.25837,8.37671,18.58641,13.57416,28.27409,14.946-.30335,10.512-1.52534,21.72685-5.88893,24.27522-4.36711,2.54759-14.57661-1.98851-23.72667-6.97812C469.06745,695.05516,469.28269,684.28541,466.73939,671.98592Zm44.45488,39.22123c-4.3636-2.54837-5.58568-13.76325-5.889-24.27522,9.68778-1.37186,19.01582-6.5693,28.27419-14.946-2.5433,12.29987-2.32806,23.06963,1.34141,32.24331C525.77049,709.22,515.55845,713.75729,511.19427,711.20716Zm-11.03427-41.28h-.00117c-12.17752,0-25.86847-11.275-43.50033-36.50835,14.09968,8.32578,28.68038,12.55395,43.50033,12.55395V645.736l.00117.00039v.23632c14.82,0,29.40066-4.22817,43.5-12.55395C526.02847,658.65218,512.33752,669.92716,500.16,669.92716Zm0-41.33815h-.00117c-16.78836,0-33.63634-7.248-49.64119-21.00033,15.2118-12.85349,32.42625-19.28053,49.64119-19.28053H500.16c17.21484,0,34.4293,6.427,49.6411,19.28053C533.79624,621.341,516.94836,628.589,500.16,628.589Zm0-57.5561h-.00117c-21.682,0-43.36364,8.13766-62.03708,24.4128a209.0467,209.0467,0,0,1-25.74621-36.11631,209.09452,209.09452,0,0,1,25.70386-36.07026c18.683,16.29992,40.37619,24.475,62.07942,24.475H500.16c21.70284,0,43.39613-8.17513,62.07942-24.475a209.09958,209.09958,0,0,1,25.70377,36.07026,209.05254,209.05254,0,0,1-25.7465,36.11631C543.52354,579.17058,521.84167,571.03291,500.16,571.03291ZM320.39746,384.32523a41.74278,41.74278,0,0,0,12.17508,12.71709,3.02887,3.02887,0,0,1,.92283.83912c.57294.95659-1.43059,1.79473-2.04247,2.16921-4.49561,2.75191-6.7221,4.17743-11.12745,7.1276-2.09847,1.40542-15.04212-17.56249-16.90232-20.38212-6.36069-9.64163-18.03415-24.99237-16.27855-37.08383,4.93166-3.22376,7.42159-4.78471,12.44467-7.80436.55421-.33311,2.654-1.85874,3.13907-1.03523.52542.892.32062,14.49172,4.73905,21.68274,1.04138,1.695,2.81426,2.84558,4.10688,2.06169,2.67044-1.61949,1.35761-3.9013,13.39541-10.463,4.33784-2.36435,8.23016-3.36661,6.70229-6.3404-3.457-6.72815-16.9435-12.46711-17.43867-13.37628-.49508-.90937,2.44661-2.22619,3.01369-2.52808,4.95117-2.63541,7.44578-3.90579,12.46857-6.35191,11.37323,4.07283,20.34758,22.08337,24.9872,32.30712,1.57354,3.4675,10.97046,23.94758,8.40647,25.14888-4.615,2.16219-6.90631,3.29089-11.45129,5.64315-.78935.40863-2.87641,1.59725-3.47326.47147a2.30563,2.30563,0,0,1-.28471-1.11095c-.654-7.94057-1.61091-15.84348-5.17442-22.87312-2.448-4.829-5.64373-5.31882-11.41129-2.20375C322.61984,367.636,315.5543,376.46232,320.39746,384.32523ZM242.48217,275.4617c-9.25837-8.37671-18.58651-13.57416-28.27419-14.946.30364-10.51217,1.52563-21.72685,5.88913-24.27483,4.36613-2.54974,14.57583,1.98831,23.72687,6.97812C240.154,252.39207,239.93906,263.16222,242.48217,275.4617ZM175.6433,158.352c9.25827,8.3771,18.5867,13.57435,28.27409,14.9464-.30374,10.51178-1.52573,21.72607-5.889,24.27464-4.36672,2.54759-14.576-1.9889-23.72638-6.97871C177.97155,181.42144,178.1865,170.65129,175.6433,158.352Zm19.09456,50.18847h.09328a16.00878,16.00878,0,0,0,8.25124-2.11184,16.28312,16.28312,0,0,0,5.98055-6.25434,16.27914,16.27914,0,0,0,5.97977,6.25434,15.988,15.988,0,0,0,8.25163,2.11184h.09308a15.98422,15.98422,0,0,0,0,16.73255h-.09308a16.00578,16.00578,0,0,0-8.25163,2.11223,16.28021,16.28021,0,0,0-5.97977,6.25375,16.28418,16.28418,0,0,0-5.98055-6.25375,15.99276,15.99276,0,0,0-8.25124-2.11223h-.09328a15.9831,15.9831,0,0,0,0-16.73255ZM243.824,190.59512c-9.15046,4.99059-19.3624,9.52806-23.72687,6.97793-4.3635-2.54857-5.58548-13.76286-5.88913-24.27464,9.68769-1.37205,19.01582-6.5693,28.27419-14.9464C239.93906,170.65168,240.154,181.42183,243.824,190.59512Zm-12.69231,26.31154c0-5.09675,8.98966-11.77455,17.83706-17.29671,6.01812,7.801,15.1315,13.37414,26.93249,17.29671-11.801,3.92257-20.91437,9.49606-26.93249,17.2969C240.12132,228.68159,231.13167,222.0038,231.13167,216.90666Zm29.823,30.30651c6.08876-10.66887,22.587-17.02487,53.00644-19.85484-14.17822,8.18918-25.08965,18.84907-32.49933,31.83233a80.77062,80.77062,0,0,0-7.19649,16.941c-4.14484,1.84664-8.26714,3.76216-12.37686,5.71477C256.8205,265.95081,256.62126,254.8058,260.95471,247.21317ZM338.974,234.9533a90.33369,90.33369,0,0,1,1.26287,16.66015q-21.76934,6.56471-43.08926,14.94192C305.62912,252.54994,319.88628,241.88186,338.974,234.9533Zm23.68257,117.22522c-3.6042-8.70963-15.50793-28.46709-8.086-37.66907,10.41284-4.19948,15.68278-6.10544,26.313-9.53,18.65276-6.009,25.55165,1.08792,27.226,7.64454,3.15156,12.342-10.0848,20.99916-9.221,22.11167,4.681,6.02934,21.36876,13.48868,24.21609,25.99873.19085.83853-.09181,1.08343-1.86791,1.53265-3.82373.96713-5.72989,1.48-9.52864,2.56418-1.51236.43166-4.04249,1.43157-4.40936.21134a21.34875,21.34875,0,0,0-1.09944-2.83309,42.42255,42.42255,0,0,0-9.67081-13.011,19.81148,19.81148,0,0,0-5.49269-3.85661c-2.53891-1.07426-3.89759.15787-6.41553.7716a3.334,3.334,0,0,1-3.27577-.70408,4.21661,4.21661,0,0,1-.80331-1.8119,14.17493,14.17493,0,0,1-.55811-3.66479c.03191-2.81631,1.49733-4.02424,3.40408-5.73135a48.7234,48.7234,0,0,0,4.90346-5.03313c2.28844-2.73825,5.59124-7.0152,4.4278-10.86674-1.45069-4.80091-7.78153-4.799-13.05225-3.03487-3.57639,1.197-7.61136,2.96188-8.82145,6.87333-1.63335,5.28018,1.403,10.97056,3.08229,15.79411q1.99822,5.73955,4.23392,11.39285a99.04215,99.04215,0,0,0,4.25939,8.98556c2.2259,4.32827,5.24574,8.09571,7.76875,12.22669a1.13252,1.13252,0,0,1,.11094.19573c.46025,1.27311-1.73765,1.64935-2.56135,1.95533-3.82081,1.41928-5.72257,2.15984-9.5064,3.70265C376.193,377.22436,373.95732,379.48724,362.65658,352.17852Zm-7.07111-122.03725a202.07671,202.07671,0,0,1,41.90348-4.5082q3.11141,5.49513,5.81722,10.87923-23.12929,4.12786-45.94353,10.236A109.45029,109.45029,0,0,0,355.58547,230.14126ZM437.614,322.44319c2.08023,11.5111,7.50725,23.51729,10.415,33.34372.19817.66954-.37087.9482-1.143,1.07875-.68593.11592-1.0287.17485-1.71414.29447-4.18192.72964-6.26849,1.12851-10.42943,1.99475-2.13135.44376-4.705,2.26-10.89152-26.63938-1.971-9.20763-10.10266-30.743-1.22989-38.48437,4.43424-.90585,6.65692-1.32658,11.11067-2.10384,1.33966-.23359,3.88062-.899,4.12689.59363C437.98817,293.30656,434.885,307.34262,437.614,322.44319Zm12.28943,99.69434c3.71074,10.89367.26705,27.61119-11.141,52.65079.07855-16.51574-3.59219-31.404-11.00246-44.38706q-1.12871-1.97787-2.36865-3.8812Q437.59033,423.90552,449.90342,422.13753ZM465.7228,303.91591c.54513,5.7052,10.446,7.09189,15.88709,8.3131,11.36533,1.74731,24.38245,8.5338,24.39319,20.66507.01132,12.71221-13.64265,20.74723-25.66474,21.27158-12.00521.52337-25.45828-3.454-27.2413-15.98476-.953-6.69751,3.25791-11.281,4.19489-11.39831,1.59276-.199,1.97719,15.48149,21.28221,14.17754,6.82445-.46093,12.68255-3.24621,12.53424-8.17864-.17465-5.808-8.69382-7.88515-14.26516-8.935-21.03867-3.971-25.06565-11.19692-25.55565-17.55566-.96352-12.502,12.70538-20.1497,24.6859-20.59814,14.76111-.55245,25.93794,5.30536,25.9355,7.61429-.00234,2.22775-5.205,9.49137-8.00184,9.54757-2.49715.05015-6.66541-7.12214-17.23651-6.43914C471.5889,296.74381,465.28363,299.32048,465.7228,303.91591Zm67.85664,142.75657c-9.25837-8.3771-18.58641-13.57416-28.27419-14.94621a105.2821,105.2821,0,0,1,1.08783-13.25432q13.43736.18119,26.84613,1.37069C531.30787,427.76389,531.51872,436.7073,533.57943,446.67248ZM467.13534,420.0692q13.37443-1.27214,26.7992-1.53773a105.56932,105.56932,0,0,1,1.07895,13.1948c-9.68769,1.37205-19.01572,6.5691-28.27409,14.94621C468.7804,436.80195,469.007,427.93484,467.13534,420.0692Zm33.02349,28.66243H500.16c12.17752,0,25.86847,11.27479,43.5,36.50777-14.09938-8.326-28.68009-12.55395-43.5-12.55395h-.00117c-14.82,0-29.40066,4.228-43.50033,12.55395C474.29036,460.00642,487.98131,448.73163,500.15883,448.73163Zm0,41.33717v-.19358H500.16v.19358c16.80524,0,33.67,7.26362,49.68881,21.04189C534.6254,523.99171,517.39241,530.432,500.16,530.432h-.00117c-17.23251,0-34.4655-6.44031-49.6892-19.32132C466.48883,497.33242,483.35349,490.06881,500.15883,490.06881Zm50.39142-68.29854q12.40964,1.69218,24.72015,4.249c-.94674,1.43177-1.85854,2.88734-2.71161,4.38194-7.41027,12.98307-11.08091,27.87132-11.00246,44.38706C550.018,449.46264,546.63139,432.65379,550.55025,421.77027ZM565.93046,308.6374c-1.67638-.29057-4.6849-7.54306-11.94325-8.54454-6.14916-.84848-8.9681,14.17578-9.83726,21.44779-2.428,20.31225,1.16208,30.874.97132,32.29287-.23339,1.73619-3.282.94-4.40341.805-3.62156-.43614-5.435-.62914-9.06528-.9642-1.64291-.15163-5.69018,2.717-3.9414-20.29879,1.34483-17.69968,6.57808-28.61247,6.83567-31.54723.20871-2.378.841-3.76958-1.691-3.97682-7.19142-.58914-20.15419,8.03463-21.83837,7.99189-.89219-.02264-1.39488.28569-1.34629-1.94148.05386-2.46758,3.03818-12.26806,4.66421-14.44528,1.08373-1.47645,15.32362-3.83866,29.38924-2.32942,16.77431,1.8,30.89174,8.04029,30.19069,11.71483C573.259,302.282,567.01575,308.82552,565.93046,308.6374ZM422.74857,233.4023q-5.312-7.73089-10.373-16.49564a209.12846,209.12846,0,0,1,25.70386-36.06987c18.683,16.29953,40.37619,24.47524,62.07942,24.47524H500.16c21.70284,0,43.39613-8.17572,62.07942-24.47524a209.13352,209.13352,0,0,1,25.70377,36.06987q-4.93561,8.58122-10.13154,16.14731A559.08638,559.08638,0,0,0,422.74857,233.4023Zm-15.51017,197.481a61.09169,61.09169,0,0,1,5.64,8.20948c8.32715,14.592,10.58154,32.79966,6.93461,53.49264-24.70932-9.35633-41.36215-27.54016-47.61063-50.3602A365.63206,365.63206,0,0,1,407.2384,430.88326Zm180.20191,8.20948a61.18574,61.18574,0,0,1,6.11764-8.77734,365.4645,365.4645,0,0,1,35.24627,11.16687c-6.12486,23.30555-23.0425,41.86016-48.26788,51.26586C576.84862,471.9884,579.09111,453.72261,587.44031,439.09273Zm38.95789-62.03035c-4.16806-1.72585-6.26419-2.5513-10.47772-4.12689-.987-.36921-3.13449-1.11407-2.55872-2.21566,5.00132-9.56767,12.98268-20.94784,17.61186-32.0989.62182-1.49792,4.36906-10.61852,1.244-11.77845-2.74615-1.01943-8.97844,5.13656-10.53539,6.61887-13.1628,12.70148-12.16435,20.94647-18.02284,19.11486-7.34655-2.297-1.92987-8.52971-6.03412-26.55605-.48288-1.94675-1.59276-10.56759-4.60938-11.32377-3.21128-.80477-5.4883,8.78944-5.81868,10.37225-2.473,11.84616-2.01993,25.91091-3.18747,36.54055-.13387,1.21828-2.32952.6348-3.34563.3815-3.62283-.90273-5.43962-1.32795-9.08206-2.12589-2.12755-.466-5.2194.13972.99523-28.75337,1.98226-9.21563,3.40008-32.1791,14.67057-35.61343,3.76548.8397,5.64422,1.28287,9.39224,2.21585,3.97224.98879,5.46537,1.36834,8.92507,7.867,6.62784,12.503,5.22125,18.27711,7.121,18.87229,1.42552.44649,3.53082-5.14983,17.353-11.17936,7.29933-3.17381,8.82876-2.499,12.67894-1.01631,3.08014,1.18628,4.61533,1.7961,7.675,3.0495,7.37514,9.24139-4.63592,28.93563-8.28724,37.62613C630.65788,380.18058,628.43315,377.905,626.39819,377.06239ZM597.22537,236.08006q2.61819-5.17139,5.60393-10.4464a201.47205,201.47205,0,0,1,42.36889,4.61494,109.59034,109.59034,0,0,0-1.7356,15.92446Q620.51741,240.1443,597.22537,236.08006Zm63.33058,14.8701a90.54034,90.54034,0,0,1,1.24482-15.83587c18.24549,6.70629,32.04758,16.8469,40.54587,30.08014Q681.6741,257.225,660.556,250.95016Zm25.80173-23.59183c30.4193,2.83,46.91758,9.186,53.00634,19.85484,4.234,7.41817,4.1543,18.21466-.578,33.53184q-6.53061-3.06619-13.11586-5.96592a80.57155,80.57155,0,0,0-6.81313-15.58842C711.44733,246.2074,700.5358,235.54751,686.35768,227.35833Zm38.05984-10.45167c11.80109-3.92257,20.91417-9.49567,26.93229-17.29671,8.84759,5.52216,17.83725,12.2,17.83725,17.29671,0,5.09714-8.98966,11.77494-17.83725,17.2969C745.33169,226.40271,736.21861,220.82923,724.41752,216.90666ZM757.83666,158.352c9.25837,8.3771,18.58641,13.57435,28.2739,14.9464-.30374,10.51178-1.52573,21.72607-5.88883,24.27464-4.36662,2.54759-14.57651-1.9889-23.727-6.97871C760.16472,181.42144,760.37967,170.65129,757.83666,158.352Zm44.45371,39.221c-4.3633-2.54857-5.58558-13.76286-5.88922-24.27464,9.68759-1.37205,19.016-6.5693,28.27429-14.9464-2.5432,12.29968-2.32825,23.06982,1.34132,32.24311C816.86639,195.58571,806.65464,200.12318,802.29037,197.573Zm-72.431-67.33726c12.78636,28.06432,15.594,45.69608,9.50464,56.36475-6.08876,10.66848-22.587,17.02468-53.00634,19.85464,14.17812-8.189,25.08965-18.84888,32.49933-31.83214C726.267,161.64017,729.93792,146.75133,729.85938,130.23578Zm-34.6985-10.54749h16.79129c1.98041,17.70729-.63636,33.381-7.97677,46.24346-8.29339,14.52919-22.66422,25.579-42.078,32.73331C656.16757,165.42946,668.84388,136.31839,695.16088,119.6883Zm-55.81582,0h28.827c-20.203,21.32876-29.01164,51.32889-22.87039,83.85262a201.28155,201.28155,0,0,1-42.47242,4.63894,209.78938,209.78938,0,0,1-18.124-40.89049C610.10833,158.28117,628.9614,141.26078,639.34506,119.6883Zm-59.64433,0h40.03c-8.6828,13.53279-21.9897,24.22214-39.1944,30.63728A95.55546,95.55546,0,0,1,579.70073,119.6883Zm-17.38764,0a100.02323,100.02323,0,0,0-.75677,12.67767c-2.05037-4.50039-3.81241-8.70065-5.35268-12.67767Zm-86.84767,0h49.3879A170.30506,170.30506,0,0,1,543.66,142.81705c-14.09938-8.32559-28.68009-12.55395-43.5-12.55395h-.00117c-14.82,0-29.40066,4.22836-43.50033,12.55395A170.312,170.312,0,0,1,475.46541,119.6883Zm24.69341,27.95855H500.16c16.80524,0,33.67,7.26323,49.68881,21.0415-15.22341,12.881-32.4564,19.32132-49.68881,19.32132h-.00117c-17.23251,0-34.4655-6.44031-49.6892-19.32132C466.48883,154.91007,483.35349,147.64684,500.15883,147.64684ZM444.11508,119.6883c-1.54036,3.977-3.30231,8.17728-5.35268,12.67767a100.0234,100.0234,0,0,0-.75667-12.67767Zm-23.49611,0a95.42644,95.42644,0,0,1-.80594,30.47453c-16.98994-6.43328-30.143-17.05629-38.74918-30.47453Zm-59.161,0c10.32336,21.45013,29.01915,38.40066,54.20208,47.44827a209.64085,209.64085,0,0,1-18.17114,41.04407,201.9703,201.9703,0,0,1-42.00681-4.532c6.18135-32.56861-2.63053-62.61031-22.86336-83.96034Zm-73.088,0h17.26656c26.36335,16.65488,39.03985,45.83366,33.24107,79.13776-19.64272-7.14868-34.17708-18.25232-42.53457-32.8943C289.00292,153.06968,286.38967,137.395,288.37,119.6883Zm-17.91092,10.54749c-.07825,16.51555,3.59249,31.40439,11.00276,44.38726,7.40968,12.98326,18.32111,23.64315,32.49933,31.83214-30.4194-2.83-46.91768-9.18617-53.00644-19.85464C254.86536,175.93187,257.673,158.3001,270.45906,130.23578ZM107.68285,74.92714A19.18335,19.18335,0,1,1,126.8662,55.74379,19.18336,19.18336,0,0,1,107.68285,74.92714Zm50.65721,109.23137L144.5406,155.28084a94.83884,94.83884,0,0,0,3.12541-25.04506C159.526,156.26632,162.78659,173.31012,158.34005,184.15852Zm50.72287-51.82007c14.81976,0,29.40046-4.22758,43.50014-12.55395-17.632,25.233-31.32252,36.50835-43.50014,36.50835s-25.86876-11.27537-43.50063-36.50835C179.662,128.11087,194.24268,132.33845,209.06293,132.33845ZM179.00122,227.396l-12.043-25.20215c.76925-.83541,1.50972-1.69111,2.19848-2.58389,8.8475,5.52216,17.837,12.2,17.837,17.29671C186.9937,220.02114,183.63051,223.72535,179.00122,227.396Zm5.22945,10.94343c5.78931-2.44612,10.999-3.73367,13.79769-2.09857,4.3633,2.548,5.58529,13.76267,5.889,24.27483a39.92358,39.92358,0,0,0-8.094,2.08335ZM222.28622,302.644a78.40773,78.40773,0,0,0-7.79411-.97708l-11.13916-23.31082a21.42541,21.42541,0,0,1,5.71-.83521c8.36793,0,17.45038,5.32468,28.035,16.843C232.1266,297.03594,227.19475,299.81088,222.28622,302.644Zm72.21135,125.29731c-13.08767,11.581-34.197,9.169-45.67755-2.27283-14.84873-14.79848-12.1822-39.31939,4.69544-52.85881,7.4492-5.97587,21.017-12.34417,26.01268-5.34751,2.68293,3.75748.80653,8.28949-4.44117,12.2788-3.4154,2.59638-3.44574-7.08174-14.03138,1.5067-12.16991,9.87346-9.0243,23.41288-2.32191,30.76607,10.2415,11.23556,23.68638,7.4332,30.12932,2.23263,12.07165-9.7435,6.4727-19.61091,7.18371-20.12609,1.10529-.80106,5.43981,3.93116,5.90142,4.57806C308.7919,408.28919,303.77116,419.73531,294.49757,427.94128Zm44.38,113.30733a107.1992,107.1992,0,0,1-12.50877-5.45952l-26.88526-56.2623q7.92467-5.23374,16.03042-10.021C335.0651,486.70532,343.89581,512.42714,338.87761,541.24861Zm-7.59595-80.53518q12.32812-6.49592,24.97969-12.01126c8.27026,27.75306,29.168,49.99548,59.39874,60.85636A209.6283,209.6283,0,0,1,397.48895,550.603a201.9703,201.9703,0,0,1-42.00681-4.532C361.79873,512.78932,352.46523,482.14053,331.28166,460.71342Zm43.10868,175.5695L357.114,600.12915a106.06691,106.06691,0,0,0-1.52856-27.56592,202.10452,202.10452,0,0,1,41.90348-4.50781,210.35322,210.35322,0,0,1,18.016,40.53474A97.71144,97.71144,0,0,0,374.39034,636.28293Zm8.25582,17.2768c8.59049-12.25382,21.15352-21.96863,37.068-28.01475,3.77856,20.91,1.56154,39.30534-6.83577,54.0207a62.81293,62.81293,0,0,1-11.06735,14.10007Zm26.9722,56.44437a81.62815,81.62815,0,0,0,18.14158-21.74675c7.41027-12.98326,11.081-27.87151,11.00246-44.38726,12.78607,28.06354,15.594,45.69628,9.50464,56.36436-4.75105,8.32442-15.8786,14.01264-34.97385,17.45965Zm38.92169,81.4506-21.38154-44.745c10.81337,3.42008,17.65158,8.07932,21.10854,14.13656C452.22514,767.78052,452.39706,777.68325,448.54005,791.4547Zm9.7998-45.86664h-.00117c-5.9704-6.6294-14.39317-11.5154-25.01813-15.0471,11.80079-3.92277,20.91388-9.49567,26.9321-17.2971,8.8475,5.52236,17.83745,12.20035,17.83745,17.2971,0,4.42155-6.76786,10.0327-14.33658,15.0471h-.002c-1.15515.76535-2.32728,1.51743-3.49892,2.24844C459.65365,747.05905,459,746.32141,458.33985,745.58806Zm43.1601,156.69467-5.85547-12.25362c1.50416.07884,3.00911.12743,4.51434.12743H500.16c2.43139,0,4.86209-.11826,7.28908-.32335Zm14.994-31.37765a69.91551,69.91551,0,0,1-16.334,1.94928h-.00117a69.659,69.659,0,0,1-13.34418-1.30336l-15.332-32.08485a65.35823,65.35823,0,0,1,28.67619-6.97422H500.16c10.32649,0,20.67454,2.75347,30.83593,8.06488Zm22.022-46.085a82.99147,82.99147,0,0,0-38.356-9.71188h-.00117a82.31217,82.31217,0,0,0-36.18969,8.6345l-1.76927-3.70245c15.00641-19.872,27.09-28.88665,37.959-28.88665H500.16c11.26152,0,23.82434,9.66856,39.594,31.07557Zm3.46408-79.232H541.979c-.66027.73335-1.3139,1.471-1.91279,2.24844-1.17174-.731-2.34377-1.48309-3.49921-2.24844h-.00176c-7.56921-5.0144-14.33658-10.62554-14.33658-15.0471,0-5.09675,8.99-11.77474,17.83755-17.2971,6.01821,7.80143,15.13072,13.37433,26.932,17.2971C556.37322,734.07267,547.95055,738.95866,541.98005,745.58806Zm10.82449,49.33043c-4.89585-15.59974-5.03567-26.56893-.75286-34.07219,3.77875-6.62121,11.59365-11.57316,24.231-15.06Zm36.691-76.78258c-20.63629-3.39412-32.4887-9.21915-37.44387-17.90146-6.08934-10.66809-3.28133-28.30083,9.50464-56.36436-.07845,16.51574,3.59219,31.404,11.00246,44.38726A82.13637,82.13637,0,0,0,592.63833,711.559Zm10.87074-22.749a63.45265,63.45265,0,0,1-12.926-15.82123c-8.41984-14.7538-10.62437-33.20634-6.80513-54.18344,16.9474,6.3404,30.12532,16.82251,38.80324,30.093Zm43.69479-91.4392L627.818,637.9393c-10.68955-12.95243-25.22332-23.18418-42.95784-29.50213A210.6283,210.6283,0,0,1,602.82929,568.056a201.44505,201.44505,0,0,1,42.36889,4.61533A104.98621,104.98621,0,0,0,644.06109,603.94771Zm-41.23179-53.3455a209.80988,209.80988,0,0,1-18.124-40.89049c30.76539-10.90987,51.93354-33.56638,60.07189-61.83579q12.90418,5.51972,25.4893,12.0698c-21.69348,21.43706-31.3156,52.38383-24.96476,86.01734A201.2553,201.2553,0,0,1,602.82929,550.60221Zm74.73885-16.77411a103.182,103.182,0,0,1-15.67077,7.25932c-5.03138-29.184,4.13625-55.18336,24.26215-72.3501q8.78056,5.136,17.35993,10.783Zm92.6647-131.23474c-1.5548,1.59549-10.62769,2.90666-12.81817.86487-1.95572-1.823-.17114-10.09046-8.73412-17.3494-4.11635-3.48955-10.718-6.22136-13.58508-2.60262-3.55922,4.49239,3.02813,12.696,6.345,17.57459,5.83254,10.56193,13.72159,23.23023,4.35462,32.97412-9.01317,9.376-25.468,4.08122-34.55565-3.82129-8.3812-7.28821-16.96574-20.44671-9.59655-31.21061,3.74021-5.46323,10.32239-5.77331,11.11487-5.1832,1.34737,1.00284-9.33594,12.42359,6.33552,25.62581,5.54,4.667,11.98413,7.01891,15.30849,3.37188,3.91447-4.29452-1.17779-12.08795-4.70578-16.9193-13.31784-18.249-11.26269-26.14079-7.22381-31.12514,7.98048-9.84887,24.664-4.6928,33.14809,3.111C766.98312,388.35571,771.84433,400.93971,770.23284,402.59336Zm18.34365-101.07029a78.03983,78.03983,0,0,0-8.42843.7915q-7.95964-4.58157-16.0232-8.89911c10.19594-10.84,19.00431-15.8946,27.13095-15.8946a22.49193,22.49193,0,0,1,8.02663,1.598Zm18.17914-38.04316a40.894,40.894,0,0,0-10.35449-2.96422c.30364-10.51217,1.52592-21.72685,5.88922-24.27483,3.1541-1.842,9.36043.02166,16.01169,3.076Zm16.52453-34.58054c-5.61466-4.14913-9.95532-8.452-9.95532-11.99272,0-5.09675,8.98966-11.77455,17.837-17.29671a39.714,39.714,0,0,0,4.01419,4.39521Zm20.06618-41.99207c-.06186-.10421-.13865-.202-.19846-.30677-6.08915-10.66867-3.28182-28.30044,9.50435-56.36475a93.30356,93.30356,0,0,0,4.12386,28.567Zm49.2553-111.98016A19.18335,19.18335,0,1,1,911.785,55.74379,19.18336,19.18336,0,0,1,892.60164,74.92714Z"/></svg>