<svg id="Слой_1" data-name="Слой 1" xmlns="http://www.w3.org/2000/svg" viewBox="0 0 1003 1030"><title>Christmas flags</title><path d="M963.0971,10.98259H40.07854A21.12169,21.12169,0,0,0,21.021,41.21085l461.50933,965.7917a21.12153,21.12153,0,0,0,38.115,0l461.509-965.7917A21.1214,21.1214,0,0,0,963.0971,10.98259ZM862.24654,119.68834a186.31977,186.31977,0,0,1-28.47968,32.01509,71.28743,71.28743,0,0,0-26.55918-16.33758c-10.328-3.49218-22.678-4.30905-34.7266-2.16677a75.87922,75.87922,0,0,0,9.21837-13.51074ZM702.98037,480.832a15.73037,15.73037,0,0,1-3.86091-10.22989c.12577-4.8135,3.29694-10.47138,8.48492-15.13423a35.52169,35.52169,0,0,1,10.636-6.57018Zm-142.364-115.577c-.10772-.22383-.23466-.43868-.35516-.65636l.18461-41.39806,35.93961-20.53686c.236-.002.47-.02752.705-.04254,39.02053,19.16491,83.60732,56.98843,103.027,102.04786C651.35711,409.948,596.50861,389.77318,560.61633,365.255Zm-3.65971,421.15822-17.22772,36.05211c-.442-.5908-.89532-1.17359-1.32239-1.77473a98.33014,98.33014,0,0,1-14.6611-30.74646,123.05281,123.05281,0,0,1-4.38731-27.91367,221.36942,221.36942,0,0,0,28.12344-34.89276A108.73693,108.73693,0,0,1,556.95661,786.41323ZM352.53539,590.364l-15.60218-32.65037q5.02035-2.20853,9.57655-4.72481a120.548,120.548,0,0,0,.97367,13.9621,110.204,110.204,0,0,0,5.49826,23.24584C352.83142,590.24656,352.68409,590.30813,352.53539,590.364Zm1.8402-75.328c-.25271.51928-.48561,1.05055-.72613,1.57715-6.21824,7.67352-15.50578,14.27589-27.13368,19.29995l-16.99589-35.56689a42.8389,42.8389,0,0,0,3.68879-3.33461A40.36219,40.36219,0,0,0,325.045,468.414c-.20227-11.64848-5.94874-23.22106-16.18185-32.58764q-2.05061-1.877-4.23548-3.53834c3.94784.27583,7.91715.43439,11.9048.45215,34.60659.15436,70.31954-9.12919,100.97272-22.69778l-12.435,20.86217-58.815,19.80166a10.4528,10.4528,0,1,0,6.67009,19.813l35.69549-12.01789L357.0714,511.43186A11.99864,11.99864,0,0,0,354.37559,515.03605ZM530.05291,119.68834a245.28864,245.28864,0,0,1,7.42081,78.5495c-.13816.20256-.25866.41722-.38541.628l-35.95073,20.54252-35.7634-20.86109c-.12509-.21232-.24393-.42853-.38072-.63275a245.2757,245.2757,0,0,1,8.05229-78.22615Zm-69.3207,152.4224c.215-.13133.42863-.26335.635-.40678.17163-.11845.335-.24412.499-.3695.15953-.12245.31857-.24471.472-.37438.1849-.15582.36131-.318.53567-.48269.12216-.11533.24364-.23046.36111-.35057.179-.18285.3496-.37116.51625-.563.10489-.1206.20851-.24159.30891-.36609.15621-.19407.30462-.39234.44844-.59431.10157-.14187.2008-.28491.29662-.431.12372-.18948.2409-.382.35418-.57723.10108-.17368.19885-.34882.292-.52747.09172-.1769.17807-.35584.26139-.53655.09435-.20353.18441-.40853.26822-.61782.068-.17016.13036-.34189.191-.51469.07718-.21993.15065-.441.21632-.66632.05259-.18041.09786-.36219.14255-.54474.0524-.21534.103-.43078.14441-.65022.04088-.21524.072-.43175.102-.64914.02566-.18841.05259-.37594.07006-.567.02478-.2653.03561-.53147.04391-.79862.00332-.11065.01766-.21827.01815-.3296l.14216-31.881,27.53821,16.06331c.00985.00566.02029.00917.03015.01493a12.82512,12.82512,0,0,0,1.16442.57918c.12636.05718.24842.13065.37575.18353.19748.08128.40434.13523.60553.20666a12.78154,12.78154,0,0,0,4.23636.76994l.0119-.00078.0119.00088a12.77983,12.77983,0,0,0,4.23919-.73091c.20314-.07.41165-.12235.61119-.20246.12782-.05171.25047-.12411.37731-.18021a12.84825,12.84825,0,0,0,1.16969-.56865c.00976-.00576.02029-.00907.03025-.01483l27.68223-15.81781-.14226,31.882c-.00049.11152.01288.21954.01512.33038.006.26627.01444.53206.03678.79677.0159.1927.04108.38219.06537.57235.028.21554.05669.43039.09533.64378.04.22256.08908.44122.14041.65958.04225.17973.08538.35867.13533.53635.0643.22929.1368.45439.21339.67832.05806.16977.11767.33867.18275.5061.08313.21358.17319.42307.26735.631.07991.177.16236.35214.25027.52562.09416.1849.19319.36609.29584.54582.10821.19026.22032.378.33867.563.09864.15368.2009.30394.30579.453.13748.19622.27915.389.42814.578.10469.1325.2131.2613.32286.3896.15943.18656.32257.36989.49371.54806.12284.12811.25008.25115.37819.374.16626.15933.33408.31672.5101.46786.1606.13836.32716.269.4944.39936.15455.12.308.24032.46932.35428.21544.1527.43858.29389.66358.43332.09484.05854.18168.12538.27837.18187l27.53811,16.06311-27.68018,15.81782c-.11377.06489-.216.14148-.32706.20939-.20373.12509-.40678.25017-.6027.386-.18012.1244-.35175.25593-.52367.38794-.15143.1167-.30267.23271-.44863.35594-.19134.1609-.3738.32843-.55391.499-.1164.11006-.23222.22-.34443.33448-.18314.18675-.3576.37916-.52786.57557-.10167.117-.20227.23456-.29964.35526-.15855.1969-.3093.39809-.45517.60309-.09952.13923-.197.27954-.291.42278-.12538.19192-.24422.38668-.35867.58436-.09991.17163-.19631.34462-.28842.521-.09289.17895-.18012.35975-.26432.5426-.09347.20188-.183.40551-.26608.61294-.0685.17124-.13114.34355-.192.51732-.07728.21963-.15065.44054-.216.66563-.0524.18021-.098.3616-.14245.54386-.05269.21573-.10313.43175-.1447.65149-.04088.21456-.07162.43049-.10167.647-.02576.18909-.05279.37741-.07025.56894-.02478.2651-.03542.53069-.04381.79735-.00342.11074-.01766.21856-.01825.33008l-.14216,31.88L507.07139,331.475c-.10021-.05845-.20441-.10274-.3054-.15816-.22832-.12489-.45722-.24764-.69208-.35828-.181-.08567-.364-.16129-.54728-.23778-.19348-.0804-.38668-.16021-.58348-.23085-.21983-.07942-.44073-.1487-.66271-.21534-.17-.05093-.33955-.10118-.51137-.14509-.23739-.06069-.47527-.11191-.71422-.15875-.1686-.03308-.33691-.06449-.507-.09084-.23388-.0361-.46756-.06391-.702-.08684-.18685-.01864-.3735-.03415-.56123-.04449-.21329-.01142-.42541-.01629-.63841-.01717-.2128-.001-.42512.002-.63831.01151-.18792.00868-.37477.02254-.56182.03952-.23456.02078-.46844.04654-.70271.0805-.17026.02478-.33877.05484-.50766.08635-.23944.04459-.47771.09377-.71569.15231-.17221.04235-.34228.09113-.51264.1406-.22256.06459-.44415.13192-.66456.20939-.19748.069-.39136.147-.58553.22559-.18392.07493-.36755.14889-.54943.2329-.23583.1086-.4659.22929-.6952.35214-.10157.05454-.20607.09786-.30676.15543L466.52552,347.235l.14226-31.88053c.00049-.11143-.01288-.21944-.01532-.33018-.006-.26676-.01425-.53255-.03659-.79775-.01581-.19173-.04127-.38024-.06528-.56953-.028-.2168-.057-.43293-.09591-.64778-.03952-.22022-.08811-.43673-.13875-.65275-.043-.18285-.08694-.36462-.13767-.54533-.06362-.22578-.13494-.44756-.21027-.66827-.05932-.17348-.12-.34589-.18665-.51684-.08157-.20919-.16958-.41439-.26169-.61821-.08245-.18285-.16782-.36384-.25876-.543-.09045-.17739-.18568-.35136-.284-.524-.11279-.19875-.22978-.39477-.3535-.58787-.0925-.14363-.18822-.28432-.28618-.42395-.14441-.20695-.29389-.41009-.45127-.60914-.096-.12109-.195-.23886-.29545-.35643-.16851-.19807-.3416-.39224-.52308-.58084-.11113-.11533-.22607-.22637-.3415-.3376-.17856-.172-.35945-.34121-.54943-.50386-.14489-.1244-.295-.24178-.44532-.35984-.17075-.13348-.34131-.26666-.52025-.39263-.19485-.13748-.39673-.26452-.59928-.39136-.11035-.06889-.21193-.14636-.325-.21232l-27.5387-16.06291,27.68086-15.817C460.53434,272.24481,460.62908,272.17339,460.73221,272.11075ZM499.8025,519.135c-28.951-39.592-38.90471-97.18021-35.61509-140.52258.13836-.20256.25905-.41761.3858-.62826l35.94956-20.54262,35.76369,20.86119c.12567.21349.24569.43068.38326.636C539.57131,422.30813,529.10559,479.80413,499.8025,519.135ZM518.42218,630.4562a71.29771,71.29771,0,0,0,27.29457,15.07159,189.55126,189.55126,0,0,1-46.87358,89.10753,189.54325,189.54325,0,0,1-46.07934-89.52172,68.12849,68.12849,0,0,0,46.67356-43.81032A71.46236,71.46236,0,0,0,518.42218,630.4562ZM441.21536,253.6506,405.2657,274.19322c-.24705.00224-.49459-.00263-.74047.01376-39.01058-19.17311-83.56976-56.98511-102.97986-102.02737,48.75876-5.277,103.6093,14.8984,139.5012,39.417.107.22256.23349.43624.3534.65285ZM405.1531,301.81251l35.75432,20.85514-.1847,41.40118c-.12187.21563-.25008.428-.35926.64973C404.2533,388.91719,349.23035,408.60333,300.51657,402.89c19.81708-44.88253,64.73757-82.30777,103.92865-101.1264C404.68125,301.7807,404.9161,301.80851,405.1531,301.81251Zm-104.22624,167.017a14.9945,14.9945,0,0,1-2.52662,8.24685l-13.84053-28.96383a35.9205,35.9205,0,0,1,8.01765,5.50762C297.72251,458.32911,300.84412,464.0149,300.92686,468.82947ZM374.6575,528.867c.33984-.46844.68759-.93249,1.01523-1.408a12.01257,12.01257,0,0,0,1.81064-4.12142l30.54283-53.51713,7.11033,36.98694a10.45281,10.45281,0,0,0,20.52964-3.947l-11.7163-60.94164,12.041-21.0981c3.65552,37.2098,15.065,77.25834,36.21,109.21254q-2.52305-1.08231-5.17442-1.94909c-13.18846-4.29491-26.09571-3.60078-36.33214,1.95416a41.39931,41.39931,0,0,0-15.90017,55.16892,12.06038,12.06038,0,0,0,21.0257-11.8208,17.36044,17.36044,0,0,1,6.38352-22.149c4.23363-2.29859,10.7198-2.37938,17.35145-.219,7.72767,2.51842,14.6253,7.7986,17.16216,13.138,7.42949,15.63877-.43966,37.45373-12.45062,48.016-12.0699,10.61149-30.581,14.487-47.15907,9.86234-25.24645-7.03384-41.90162-28.2175-45.69521-58.11958C369.7154,550.5401,370.85377,538.5267,374.6575,528.867ZM478.08512,761.84636a123.04473,123.04473,0,0,1-4.63572,27.87376,98.87332,98.87332,0,0,1-12.61435,27.28052L439.61841,772.601a107.60631,107.60631,0,0,1,10.65452-45.8963A221.376,221.376,0,0,0,478.08512,761.84636Zm7.07433,78.16332a129.48578,129.48578,0,0,0,13.31335-22.20836,129.477,129.477,0,0,0,13.11508,22.32613,132.52433,132.52433,0,0,0,12.636,14.785l-22.63621,47.37031-24.89041-52.0877A130.87216,130.87216,0,0,0,485.15945,840.00968ZM534.51037,612.486c-11.91632-10.66906-19.59237-32.55339-12.02365-48.12523,2.58623-5.31843,9.52894-10.53685,17.27866-12.98619,6.64706-2.1012,13.13782-1.96441,17.34881.37555a17.36068,17.36068,0,0,1,6.1875,22.205,12.06,12.06,0,0,0,20.91856,12.00794,41.40064,41.40064,0,0,0-15.40831-55.30854c-10.18833-5.64793-23.08143-6.46265-36.31331-2.28q-2.65492.83848-5.18915,1.90177c21.42613-31.76364,33.1918-71.7074,37.17906-108.88207l11.85251,21.20455-12.25831,60.83265a10.45153,10.45153,0,0,0,8.18138,12.31148,10.56179,10.56179,0,0,0,2.02929.20832,10.45594,10.45594,0,0,0,10.282-8.38969l7.43993-36.92079,30.06619,53.78974a12.0068,12.0068,0,0,0,1.77278,4.13381c.32335.4783.6669.94537,1.00245,1.41693,3.71689,9.69305,4.74871,21.71611,2.93193,35.07415-4.05839,29.867-20.9011,50.90309-46.20921,57.71319C564.95524,627.24521,546.48318,623.20282,534.51037,612.486Zm62.00527-337.44288-35.76193-20.86022.18461-41.40108c.12226-.21612.25076-.42912.35994-.65139,36.11095-24.198,91.1338-43.88047,139.84533-38.1701-19.81113,44.86663-64.70293,82.279-103.88152,101.10347C597.01442,275.045,596.76464,275.04736,596.51564,275.04307ZM752.221,119.68834c-6.37357,6.60228-14.53729,11.39216-23.252,12.0133-5.92435.417-13.89126-2.98393-19.88616-8.47146a32.88855,32.88855,0,0,1-3.3387-3.54185Zm-73.68156,0A50.35787,50.35787,0,0,0,692.7979,141.024c1.37147,1.25526,2.79357,2.43353,4.25129,3.54351-38.22474-2.67775-78.7024,7.107-112.89226,22.24368l12.43842-20.86783,58.80951-19.80108a10.42354,10.42354,0,0,0,6.52012-6.454ZM577.71155,134.9298l-12.04111,21.09907a282.11209,282.11209,0,0,0-5.99275-36.34053h15.10379ZM443.36037,119.68834A282.20339,282.20339,0,0,0,437.17424,155.46l-11.8529-21.20611,2.93505-14.56558Zm-95.652,5.08494,58.63476,20.32523L418.595,166.0767c-34.05453-15.4406-74.44662-25.58492-112.69682-23.24916,1.46914-1.09788,2.903-2.26434,4.2869-3.50858a51.08312,51.08312,0,0,0,13.89-19.63062h17.77754A10.40824,10.40824,0,0,0,347.70833,124.77329Zm-51.90261-5.08494c-.55479.57557-1.13446,1.14237-1.74721,1.69326-6.04368,5.43464-14.08,8.76144-19.961,8.29446-7.70191-.618-14.94162-4.495-20.88129-9.98772Zm-65.23089,11.09877c-12.029-2.24951-24.38616-1.543-34.74641,1.85581a71.29947,71.29947,0,0,0-26.70251,16.10068,185.9037,185.9037,0,0,1-25.93667-29.05525h79.62318A76.16611,76.16611,0,0,0,230.57483,130.78711Zm-61.74231,75.14543a60.80225,60.80225,0,0,1,2.07427-14.7498c4.43736-16.62844,17.17162-30.61054,32.44108-35.62084,15.19258-4.98688,37.98647-.69208,47.68791,13.65095,3.31353,4.89741,4.36057,13.51981,2.60672,21.4556-1.50543,6.8102-4.86931,12.35744-8.99844,14.83664a17.35842,17.35842,0,0,1-22.32467-5.745,12.06033,12.06033,0,1,0-20.858,12.1141,41.39977,41.39977,0,0,0,55.60214,14.30907c9.98694-5.9987,17.1363-16.762,20.13155-30.30846q.60094-2.7183.94732-5.4444c16.79548,34.43925,45.50679,64.601,75.70832,86.64112l-24.29113-.338-46.55657-41.034a10.4525,10.4525,0,1,0-13.82267,15.68287l28.25624,24.90407-61.61245-.85746a12.01232,12.01232,0,0,0-4.47053-.53255c-.57714.04088-1.15447.105-1.7319.16011-10.25282-1.62788-21.17986-6.74639-31.84043-14.99821-1.79258-1.38747-3.4956-2.817-5.12826-4.277Zm60.68327,93.445c.57567.0602,1.15144.12918,1.72692.17524.309.02517.61538.03747.9199.03893a11.98321,11.98321,0,0,0,3.56907-.53255l61.604-.30852-28.47665,24.651a10.45257,10.45257,0,1,0,13.68236,15.80562l46.92139-40.61748,24.29356-.12167c-30.39793,21.77075-59.37776,51.67644-76.47943,85.96533q-.32418-2.72459-.89863-5.45308c-2.87329-13.57357-9.92547-24.40021-19.85855-30.4877a39.31811,39.31811,0,0,0-22.20758-5.53221l-18.8519-39.451A57.82968,57.82968,0,0,1,229.51579,299.37751ZM362.00315,608.88683A83.08579,83.08579,0,0,0,410.632,645.27175a77.26371,77.26371,0,0,0,8.74475,1.86323,16.86226,16.86226,0,0,0,.28637,4.67758,220.91056,220.91056,0,0,0,18.5907,53.67168,122.00237,122.00237,0,0,0-14.75468,33.38431L361.55793,609.24531ZM575.8654,746.84317A123.217,123.217,0,0,0,559.68862,706.025a220.91317,220.91317,0,0,0,19.06763-53.5063,16.85458,16.85458,0,0,0,.32852-4.67221,77.30023,77.30023,0,0,0,8.76329-1.78419,83.08891,83.08891,0,0,0,48.95019-35.95112l3.165,2.5956Zm73.37675-153.56282a10.36013,10.36013,0,0,0-3.25606-1.77853,110.19089,110.19089,0,0,0,5.705-23.19745,120.47914,120.47914,0,0,0,1.09768-13.95205,120.30852,120.30852,0,0,0,12.20474,5.97411l-15.74834,32.95636Zm25.45925-55.0328c-12.42906-5.21549-22.26339-12.20591-28.72731-20.3307-.236-.52923-.46425-1.06294-.71266-1.585a11.99893,11.99893,0,0,0-2.66487-3.63064l-31.07518-53.20685,35.58484,12.33539a10.45314,10.45314,0,0,0,6.84835-19.75278l-58.63671-20.32611-12.247-20.9692c30.52907,13.84043,66.1544,23.44089,100.76,23.59524,3.98931.01776,7.96223-.10577,11.91476-.34677q-2.19551,1.64154-4.26866,3.50126c-10.31712,9.27486-16.16478,20.79572-16.46911,32.43816a40.3595,40.3595,0,0,0,11.57794,28.70409,42.73446,42.73446,0,0,0,5.55582,4.84043l-16.72991,35.01024C675.17452,538.427,674.93879,538.34717,674.7014,538.24755Zm93.00288-192.86192a39.42758,39.42758,0,0,0-23.10592,5.28067c-9.986,5.99685-17.1363,16.76006-20.13048,30.30563q-.60138,2.72049-.9481,5.44869c-16.79626-34.43964-45.50855-64.60243-75.71115-86.643l24.2921.33789L718.659,341.15083A10.45192,10.45192,0,0,0,732.47987,325.468l-28.2578-24.90583,61.59791.85639a11.97885,11.97885,0,0,0,3.56917.56611c.3054.00127.61285-.00829.92205-.03074.57811-.04108,1.15661-.10518,1.73512-.16041a58.08913,58.08913,0,0,1,14.37854,4.4158ZM804.119,262.75871c-10.7316,8.15542-21.70177,13.17606-31.96825,14.7137-.577-.0604-1.15447-.12958-1.7315-.17573a11.994,11.994,0,0,0-4.46673.49342l-61.62806.30823L732.80107,253.447a10.45193,10.45193,0,1,0-13.68041-15.80562L672.20005,278.259l-24.29444.12157c30.39715-21.77085,59.376-51.67673,76.47757-85.96611q.32418,2.72634.89961,5.45649c2.87329,13.5726,9.92547,24.39923,19.85942,30.48594a41.3988,41.3988,0,0,0,55.72751-13.8133,12.06032,12.06032,0,0,0-20.749-12.29977,17.3616,17.3616,0,0,1-22.37589,5.54655c-4.1061-2.516-7.4211-8.092-8.86487-14.91635-1.68379-7.9512-.559-16.56375,2.79718-21.4315,9.829-14.25491,32.65574-18.34531,47.8087-13.22583,15.22419,5.14534,27.83307,19.24072,32.121,35.90887a61.05147,61.05147,0,0,1,1.91972,13.51464l-24.372,51.0029C807.5486,260.04827,805.87593,261.42373,804.119,262.75871ZM114.165,84.51887a19.18335,19.18335,0,1,1,19.18335-19.18335A19.18338,19.18338,0,0,1,114.165,84.51887Zm784.91879,0a19.18335,19.18335,0,1,1,19.18335-19.18335A19.18338,19.18338,0,0,1,899.08381,84.51887Z"/><path d="M-20.50962,10.98259H-943.52809a21.12177,21.12177,0,0,0-19.05768,30.22826l461.50943,965.79179a20.86379,20.86379,0,0,0,19.05748,12.01477,20.86379,20.86379,0,0,0,19.05748-12.01477L-1.45233,41.21085A21.12137,21.12137,0,0,0-20.50962,10.98259Zm-167.97,108.70575h51.65888l14.1992,7.76114-22.83819,13.1866-40.88522,9.1727a212.35862,212.35862,0,0,0-14.80824-19.97827ZM-347.36111,465.9839a13.72672,13.72672,0,0,0-10.56583,4.95078A283.153,283.153,0,0,0-376.98013,443.987a13.762,13.762,0,0,0,9.75755-13.164,13.75911,13.75911,0,0,0-13.759-13.75915,13.74946,13.74946,0,0,0-12.48838,8.00985,286.58,286.58,0,0,0-21.48448-20.37236,13.75143,13.75143,0,0,0,8.91238-12.864,13.73087,13.73087,0,0,0-5.44235-10.94285,13.67994,13.67994,0,0,0-8.31681-2.8165,13.75493,13.75493,0,0,0-13.65241,12.118,273.22763,273.22763,0,0,0-33.67975-20.71932c.27632-.38268.539-.78252.79853-1.1853a35.20079,35.20079,0,0,0,18.35555-24.90514,28.12508,28.12508,0,0,0,1.76839-3.26611,273.23426,273.23426,0,0,0,34.78895,18.79853,13.75454,13.75454,0,0,0-3.67006,17.8837,13.7375,13.7375,0,0,0,3.62322,4.10367,13.76232,13.76232,0,0,0,15.17218.93259,13.75148,13.75148,0,0,0,6.68365-14.1551,286.60808,286.60808,0,0,0,28.37928,8.43428,13.74945,13.74945,0,0,0-.68573,14.81019,13.75907,13.75907,0,0,0,18.79541,5.03586,13.76176,13.76176,0,0,0,6.52285-15.02641,283.11528,283.11528,0,0,0,32.86425,3.01535,13.72689,13.72689,0,0,0,.99386,11.63112,13.7593,13.7593,0,0,0,18.79541,5.03606,13.75041,13.75041,0,0,0,5.88532-17.01063q8.65879-.52337,17.25924-1.59764a7.73673,7.73673,0,0,0,1.84157-.47439c1.52973-.5946,6.77186,15.65438,7.19942,17.093,1.08578,3.65523,2.018,7.31475,2.87934,10.98266a54.77443,54.77443,0,0,0-7.15375-2.92422,54.30912,54.30912,0,0,0-16.9154-2.71054,54.3757,54.3757,0,0,0-51.647,37.46182,54.369,54.369,0,0,0,22.70764,62.913c-8.61479,2.24063-17.404,3.88764-26.0961,5.28292q-4.81018.77218-9.64749,1.28736a7.74381,7.74381,0,0,0-.50971-1.832q-3.36036-7.98409-7.25152-15.74512A13.75025,13.75025,0,0,0-333.602,479.74324,13.75932,13.75932,0,0,0-347.36111,465.9839Zm-75.8338,70.60981L-405.923,522.6158a5.25108,5.25108,0,0,0,1.07114-1.21594,195.66484,195.66484,0,0,0,44.26276,6.00436c-16.60649,13.68285-40.85946,25.73275-62.17943,33.97305A57.217,57.217,0,0,0-423.19491,536.59371ZM-541.783,561.37728c-21.32017-8.24011-45.57314-20.2902-62.17982-33.97305a195.69871,195.69871,0,0,0,44.263-6.00455,5.252,5.252,0,0,0,1.07114,1.21613l17.27192,13.97791A57.21714,57.21714,0,0,0-541.783,561.37728Zm-77.37269-68.03119c-2.84987,5.7056-5.52294,11.53257-7.89588,17.4255-.68144,1.69248-22.6329-4.07361-24.94359-4.92288-1.25262-.46034-2.48144-.97318-3.69933-1.50963a54.35187,54.35187,0,0,0,21.98209-53.87863,54.36618,54.36618,0,0,0-53.43468-44.77071v14.38732a39.89436,39.89436,0,0,1,39.27295,32.92221,40.02892,40.02892,0,0,1-23.2275,43.62054c-.51967-.25291-1.04519-.49293-1.56915-.73686a43.14805,43.14805,0,0,0,15.35542-41.191,43.1398,43.1398,0,0,0-33.04378-34.47067c1.07153-.08645,2.144-.144,3.21049-.14421l.00156-14.38732h-.00215a54.69088,54.69088,0,0,0-9.65451.86214,54.18652,54.18652,0,0,0-18.71091,7.09853l-.957-2.00256a173.70205,173.70205,0,0,1,6.58686-23.55729c1.76487-4.92229,1.23662-5.61778,6.154-6.09588,5.35-.52006,11.82021,1.28229,17.24636,1.61032a13.75031,13.75031,0,0,0,5.88513,17.011,13.75927,13.75927,0,0,0,18.79541-5.03664,13.72692,13.72692,0,0,0,.99386-11.63053,283.07448,283.07448,0,0,0,32.86406-3.01613,13.76212,13.76212,0,0,0,6.523,15.02641,13.75938,13.75938,0,0,0,18.79541-5.03645,13.74986,13.74986,0,0,0-.68612-14.81019,286.62579,286.62579,0,0,0,28.37928-8.43467,13.75105,13.75105,0,0,0,6.68385,14.1549,13.759,13.759,0,0,0,18.79521-5.03625,13.75459,13.75459,0,0,0-3.67025-17.8837,273.28074,273.28074,0,0,0,34.78895-18.79814c.28062.62485.59909,1.24384.93376,1.85932a35.19725,35.19725,0,0,0,19.50358,26.78886c.16041.23807.31457.48337.48083.71383A273.22763,273.22763,0,0,0-531.09814,390.196a13.75474,13.75474,0,0,0-13.65221-12.118,13.75923,13.75923,0,0,0-13.75935,13.75935,13.75171,13.75171,0,0,0,8.91238,12.864,286.58,286.58,0,0,0-21.48448,20.37236A13.74939,13.74939,0,0,0-583.57,417.06385,13.75928,13.75928,0,0,0-597.32913,430.823a13.762,13.762,0,0,0,9.75755,13.164,283.09114,283.09114,0,0,0-19.053,26.94771,13.72679,13.72679,0,0,0-10.566-4.95078,13.75932,13.75932,0,0,0-13.75915,13.75935A13.75025,13.75025,0,0,0-619.1557,493.34609Zm-58.33882-15.51349a27.27652,27.27652,0,0,1-4.83292,5.26847l-22.67368-47.44944c.1366-.02654.26754-.0685.40492-.09308a27.5749,27.5749,0,0,1,4.84638-.4338l.00117-13.01546.0002-.0002v13.01566a27.12422,27.12422,0,0,1,26.69792,22.38819A26.99881,26.99881,0,0,1-677.49452,477.8326Zm35.97893-172.71222,71.51333,17.125c-30.8574,8.69753-61.80183,12.60078-94.27053,1.07563A183.439,183.439,0,0,1-641.51559,305.12038Zm-30.44389,4.23246-1.89347-11.97613,12.5518,3.00559Q-666.81355,304.696-671.95948,309.35284Zm-4.45844-27.46757c16.04721-6.05607,35.31174-11.53589,53.8074-11.11047l71.01825,41.00192Zm3.91965,49.68169c.01854.00761.034.0199.05288.02732a134.862,134.862,0,0,0,50.3241,9.56475c24.63155,0,48.5202-6.21024,72.45216-14.04465l16.49389,3.94989c-49.06777,29.313-108.40709,42.3004-165.16993,35.95844A180.18252,180.18252,0,0,1-672.49827,331.567Zm57.16582-73.29654c-9.62992-15.81245-14.53387-35.22822-17.31661-52.1684l88.28978,93.14377Zm-2.62858-57.70227,11.3183-4.34876q-1.44982,6.78513-2.4389,13.716Zm22.876,24.13335a183.4135,183.4135,0,0,1,4.38252-28.80937c26.21651,22.35892,38.30718,51.10682,46.20424,82.17614Zm-8.5301-40.72228a5.248,5.248,0,0,0-1.60154.32121l-20.7402,7.96867a57.23791,57.23791,0,0,0-21.25187-12.76139c17.7994-14.34614,40.36653-29.32728,60.52306-36.86654A195.67394,195.67394,0,0,0-603.61508,183.97923Zm-39.745,13.153c2.02441,15.65633,5.58265,34.98234,13.18309,52.56785l-30.74773-17.75159c-9.4178-12.08307-18.199-30.51083-23.3317-46.23936l28.19584,6.32537A42.94571,42.94571,0,0,1-643.36008,197.13227Zm-35.28422,24.58628-42.27737-24.40831-50.62716-29.22913a7.71712,7.71712,0,0,0,1.17671-1.519c.03025-.05152.06342-.1003.09367-.15143l75.57484,16.95462A189.54612,189.54612,0,0,0-678.6443,221.71855Zm-15.00221,8.04419,7.77138,4.48654a189.58142,189.58142,0,0,0-41.24741,5.26867l-52.473-56.97321c.02908-.05113.0564-.103.08528-.15416a7.74323,7.74323,0,0,0,.7271-1.78049Zm25.49,14.71613,30.73914,17.7471c-19.02353,2.21214-37.54749,8.79725-52.11493,14.86952a42.95666,42.95666,0,0,1-10.761-8.44736l-19.576-21.255C-703.68,243.97306-683.33047,242.36254-668.15653,244.47887Zm-38.55248,38.065a57.21288,57.21288,0,0,0,21.66752,12.03448l3.47335,21.96921a5.26172,5.26172,0,0,0,.51693,1.55334,195.66084,195.66084,0,0,0-27.32843,35.3252C-711.93182,332.18966-710.23681,305.13794-706.709,282.54388Zm247.24812-163.02521a27.15657,27.15657,0,0,1-23.11646,12.95858,27.15787,27.15787,0,0,1-23.17539-13.05556C-490.90294,119.43466-474.404,119.474-459.46089,119.51867Zm-23.11646,28.9447A43.17408,43.17408,0,0,0-442.815,122.11993,40.02113,40.02113,0,0,1-482.57735,158.055a40.02113,40.02113,0,0,1-39.76237-35.93512A43.17408,43.17408,0,0,0-482.57735,148.46337ZM-526.89124,161.899a13.71288,13.71288,0,0,0,1.33907-10.5509,54.24805,54.24805,0,0,0,42.97481,21.09449,54.26844,54.26844,0,0,0,44.10508-22.60616,13.7222,13.7222,0,0,0,.81336,12.06882,13.72722,13.72722,0,0,0,9.5706,6.67507,283.13491,283.13491,0,0,0-13.81106,29.97438,13.7615,13.7615,0,0,0-16.27884-1.8683,13.75915,13.75915,0,0,0-5.03625,18.79541,13.74975,13.74975,0,0,0,13.18075,6.81011,286.67068,286.67068,0,0,0-6.90065,28.7922,13.751,13.751,0,0,0-15.59662-1.286,13.75915,13.75915,0,0,0-5.03625,18.79541,13.75456,13.75456,0,0,0,17.32051,5.76414,274.024,274.024,0,0,0-1.28072,34.56531,35.0128,35.0128,0,0,0-21.0499-6.99276,34.99781,34.99781,0,0,0-20.43637,6.55583,273.99923,273.99923,0,0,0-1.28853-34.135,13.75483,13.75483,0,0,0,17.32071-5.76453,13.7591,13.7591,0,0,0-5.03645-18.79521,13.75107,13.75107,0,0,0-15.59662,1.28619,286.59916,286.59916,0,0,0-6.901-28.79181,13.74965,13.74965,0,0,0,13.18036-6.8105,13.75915,13.75915,0,0,0-5.03625-18.79541A13.7618,13.7618,0,0,0-522.65,198.548a283.12877,283.12877,0,0,0-13.81106-29.974A13.72776,13.72776,0,0,0-526.89124,161.899Zm51.84914,250.53686,36.52572,123.04946c-13.26837-10.87064-27.64554-24.81538-36.52572-41.04407Zm-21.96238-25.59029-4.82628,16.25913c-31.20983,27.97631-58.45571,58.09392-65.26582,104.08916-.00293.01912,0,.03766-.00273.057a180.17262,180.17262,0,0,1-43.6301,4.6569C-587.84342,459.583-546.925,414.68233-497.00448,386.84555Zm7.49506,25.59029v82.00539c-8.88038,16.22869-23.25755,30.17342-36.52592,41.04407Zm-58.06679,105.469q6.59633-2.13565,13.08357-4.765l-3.67455,12.3791Zm-8.27-13.65456c6.25473-33.88231,25.10595-58.72774,48.0661-81.10266l-20.92481,70.4937A183.41319,183.41319,0,0,1-555.84619,504.2503Zm66.33676,7.29679v35.48678c-5.75477,14.199-17.32344,31.01839-28.37947,43.3288l-8.61967-27.58153a42.96085,42.96085,0,0,1-1.93523-13.54332C-515.90156,539.65941-500.93525,526.91461-489.50942,511.54709Zm0,55.94871V674.775a7.72876,7.72876,0,0,0-1.90479-.26052c-.05874-.00039-.11728-.00273-.176-.00332l-23.10514-73.93037A189.57317,189.57317,0,0,0-489.50942,567.4958Zm0,162.17566v26.37047l-43.699-26.6105,6.49358-42.591a212.39923,212.39923,0,0,0,24.7059,2.83523Zm7.23357,53.85756,17.29515,55.64272c-.593-.22324-1.18979-.44024-1.79785-.63929a43.12664,43.12664,0,0,0-13.43307-2.15262,43.14406,43.14406,0,0,0-20.03944,4.97478l.00585-.01405Zm-6.7982,103.98983a27.17458,27.17458,0,0,1,8.8033-1.46923,26.94464,26.94464,0,0,1,5.70716.63168l-7.45525,15.6015Zm27.40317-27.818-5.88337,12.312a43.11671,43.11671,0,0,0-12.7167-1.94928,43.05476,43.05476,0,0,0-15.71195,2.9972l-5.16856-10.816a27.08626,27.08626,0,0,1,20.94-9.87873,27.16073,27.16073,0,0,1,8.46063,1.35976A27.056,27.056,0,0,1-461.67089,859.70079Zm14.56412-30.478-4.4237.99972-18.38639-59.15394,16.36919-9.9683,12.6482,43.55614a5.26294,5.26294,0,0,0,2.30581,2.9814,5.1432,5.1432,0,0,0,1.52134.58582Zm-27.93533-73.182v-26.3693l12.49931-39.99576a212.39437,212.39437,0,0,0,24.7059-2.83523l6.49319,42.58921Zm2.081-81.52963c-.05893.00059-.11767.00293-.17641.00332a7.72591,7.72591,0,0,0-1.9046.26052V567.4958a189.53934,189.53934,0,0,0,25.186,33.085Zm-2.081-127.47745V511.54709c11.42563,15.36733,26.39213,28.11232,38.93418,37.69073a42.96785,42.96785,0,0,1-1.935,13.5441l-8.61986,27.58075C-457.71885,578.05265-469.28733,561.23287-475.0421,547.03367Zm18.27047-123.886c22.96,22.37472,41.81137,47.22035,48.0661,81.10227a183.43261,183.43261,0,0,1-27.14129-10.60857Zm39.79593,94.75761-9.40883,7.6137-3.67435-12.3791Q-423.57173,515.75555-416.97569,517.90524Zm19.52329-10.65482c-.00254-.01912.0002-.03747-.00273-.05659-6.81011-45.99524-34.056-76.11285-65.26582-104.08916l-4.82628-16.25913c49.92054,27.83678,90.83894,72.73726,113.72474,125.062A180.181,180.181,0,0,1-397.4524,507.25043ZM-264.25511,268.652a42.97627,42.97627,0,0,1-10.76214,8.44736c-14.569-6.07207-33.092-12.65542-52.11649-14.86718l30.74207-17.749c15.17316-2.11594,35.52269-.50581,51.71215,2.91368Zm8.08712,84.778a195.66359,195.66359,0,0,0-27.32941-35.32481,5.26725,5.26725,0,0,0,.51771-1.55373l3.47277-21.96882a57.20429,57.20429,0,0,0,21.66713-12.03487C-254.3112,305.14243-252.61658,332.19415-256.168,353.43Zm-47.08023-53.043,12.55161-3.006-1.89308,11.97593Q-297.7406,304.70863-303.24822,300.387Zm2.97183,22.93849c-32.47026,11.52574-63.41176,7.62171-94.26838-1.07465l71.51079-17.12557A183.45825,183.45825,0,0,1-300.27639,323.32548Zm-112.68189-11.54174,71.02215-41.005c18.49528-.42814,37.75864,5.05343,53.80545,11.11047ZM-285.906,221.72323a189.57455,189.57455,0,0,0,16.0595-38.353l75.576-16.95579c.03005.05093.06284.09933.09289.15007a7.72474,7.72474,0,0,0,1.1771,1.51938Zm-17.72036,10.231L-334.3716,249.705c7.60063-17.5861,11.1575-36.91113,13.18153-52.56746a42.95286,42.95286,0,0,1,12.70148-5.09792l28.19467-6.32556C-285.427,201.444-294.208,219.87191-303.62641,231.95419Zm-34.94448-39.67241-20.763-7.97609a5.24208,5.24208,0,0,0-1.601-.32121,195.64787,195.64787,0,0,0-16.92964-41.33756c20.16609,7.54228,42.7465,22.53513,60.55077,36.8881A57.18723,57.18723,0,0,0-338.57089,192.28179Zm-8.01746,8.29085-8.8796,9.36785q-.97913-6.9309-2.43909-13.71583Zm-22.87526,24.133L-420.05,278.07393c7.89744-31.0703,19.98812-59.81879,46.20287-82.17673A183.40574,183.40574,0,0,1-369.46361,224.7056Zm37.5633-18.59929c-2.782,16.9396-7.68552,36.35478-17.31505,52.16879l-70.97707,40.97869Zm-82.97877,121.01412c23.93118,7.83422,47.81339,14.04387,72.44806,14.04387a134.9053,134.9053,0,0,0,50.33-9.56611c.01815-.00722.033-.01893.05093-.02634a180.17246,180.17246,0,0,1,25.84749,35.455c-56.76011,6.3441-116.10256-6.64287-165.16915-35.95668ZM-258.8274,435.21412l-21.81349,45.64866a27.1921,27.1921,0,0,1-5.97509-26.9922,27.11863,27.11863,0,0,1,25.82056-18.7353C-260.13837,435.13528-259.4823,435.16572-258.8274,435.21412ZM-301.809,448.89833a43.17382,43.17382,0,0,0,12.66947,45.98392A40.02132,40.02132,0,0,1-310.925,445.915a39.8797,39.8797,0,0,1,37.9731-27.54953,39.68892,39.68892,0,0,1,8.50317.94957A43.16547,43.16547,0,0,0-301.809,448.89833Zm81.89475-95.11686-18.3177,38.33275a195.86377,195.86377,0,0,0-10.42494-25.10048c7.59985-26.05571,4.97186-64.82245-.25447-93.66519l18.81238-20.42661C-222.7068,281.52367-218.84511,317.79376-219.9143,353.78147Zm-17.512-114.26041a189.58073,189.58073,0,0,0-41.24682-5.26808l92.9057-53.64a7.75834,7.75834,0,0,0,.7273,1.78029c.02908.05113.0564.103.08528.15416Zm4.86121-119.83272a196.13316,196.13316,0,0,1,29.948,33.77108l-25.793,5.78677c-7.9837-14.31492-19.96822-27.65793-34.371-39.55786Zm-47.369,0c17.196,12.32544,31.69027,26.5623,40.95137,41.93l-26.90926,6.03695c-15.51934-16.08311-36.31711-32.8461-59.60491-47.967Zm-64.92959,0c25.83773,15.38577,49.4118,33.28088,67.07733,50.63574l-27.09719,6.0791c-22.36614-18.94781-54.626-40.60724-80.9887-47.05194q-3.25323-4.93693-6.82025-9.6629Zm-32.01167,64.96218c-.01542.0119-.03317.01893-.0484.031-36.42639,28.896-48.88589,67.55-57.50946,108.56672l-11.66819,12.30963c-.853-57.14923,17.57283-115.03571,51.44383-161.02041A180.17012,180.17012,0,0,1-376.87534,184.65052Zm-34.11883-63.09368c2.56613,3.07594,5.03918,6.22311,7.39085,9.45508a7.748,7.748,0,0,0-1.33244,1.358q-5.234,6.90236-10.00967,14.15237a13.74981,13.74981,0,0,0-17.67724-3.41237,13.73474,13.73474,0,0,0-3.00911,2.361,54.0479,54.0479,0,0,0,7.36841-25.84583c9.58328.03649,15.65419.06323,15.65419.06323C-412.0737,120.31329-411.52105,120.92516-410.99417,121.55684Zm-140.32353-1.8685c-.06127-.12255,5.50245-.19583,14.42205-.23476a54.06212,54.06212,0,0,0,6.708,24.861,13.79972,13.79972,0,0,0-1.74029-1.211,13.75021,13.75021,0,0,0-17.67685,3.41208q-4.78325-7.23766-10.00987-14.15227a7.739,7.739,0,0,0-1.33224-1.35781C-558.59654,127.77576-553.88207,122.76234-551.3177,119.68834ZM-518.447,305.55145l-11.66917-12.31061c-8.62181-41.01421-21.08151-79.66758-57.50985-108.56437-.01522-.0121-.03278-.01912-.0482-.031a180.17749,180.17749,0,0,1,17.78183-40.11392C-536.02121,190.51594-517.59423,248.40242-518.447,305.55145Zm-53.4337-185.86311q-3.54419,4.72778-6.79684,9.65617c-26.36306,6.44655-58.62334,28.1053-80.98889,47.0536l-27.09543-6.07832c17.66319-17.353,41.24116-35.24207,67.07343-50.63145Zm-67.187,0c-23.27941,15.12106-44.07347,31.88249-59.58969,47.96267l-26.90907-6.03656c9.258-15.36342,23.73955-29.60214,40.92815-41.92611Zm-92.96073,0h30.25616c-14.4,11.89944-26.38491,25.24059-34.368,39.554l-25.79226-5.78619A196.01819,196.01819,0,0,1-732.02844,119.68834Zm-95.70444,0h51.6661l12.67025,10.139a212.33087,212.33087,0,0,0-14.80785,19.97836l-40.887-9.17241-22.83819-13.18485Zm-48.10317-44.76115a19.18336,19.18336,0,0,1-19.18335-19.18335,19.1833,19.1833,0,0,1,19.18335-19.18335A19.1833,19.1833,0,0,1-856.6527,55.74384,19.18336,19.18336,0,0,1-875.83606,74.92719Zm59.97881,128.73866-29.33938-61.39818,18.87132,10.89465,28.38786,30.823a212.30064,212.30064,0,0,0-9.89746,22.81321Zm15.541,32.52217A196.12851,196.12851,0,0,1-786.656,196.23441l17.93053,19.46865c-8.55508,14.32195-14.16466,31.72871-17.23524,50.52666Zm22.7613,47.63229c1.82693-22.44693,6.99354-43.50931,16.18107-60.13492l18.66583,20.267c-7.02964,24.47876-11.39773,55.33635-12.19157,87.27816Zm43.10458-30.90189,18.81375,20.42758c-5.22632,28.84294-7.85354,67.61007-.25447,93.66519a195.91121,195.91121,0,0,0-10.214,24.47719L-744.65615,352.667C-745.6145,317.0448-741.76608,281.22549-734.45036,252.91842Zm69.21727,265.95551a196.4953,196.4953,0,0,0,45.72653,8.219c18.76106,19.6154,53.65929,36.73023,81.25995,46.62867l8.28363,26.50629c-40.18329-11.15048-90.08393-36.02811-128.35423-66.88121Zm22.84755,47.81319A79.68043,79.68043,0,0,0-646.04876,555.32c38.34094,26.76486,83.52985,47.53414,119.72188,56.54292l8.22606,26.32149c-36.90879-.69393-80.72564-22.88424-114.558-51.14272Zm19.75395,41.33834c33.09257,23.68023,72.07417,40.52108,106.23749,40.52108.50971,0,1.01435-.02186,1.52251-.02927l7.8951,25.26362c-36.169-3.10043-70.61645-16.0915-102.75789-38.76577Zm69.9393,146.36087-12.58361-26.33359,15.18838,9.24881Zm-24.81538-51.9311-19.6554-41.13266a222.31647,222.31647,0,0,0,55.26083,22.292l-5.6533,37.08012Zm45.16881,94.52382-9.853-20.61882a7.62616,7.62616,0,0,0,2.35167-3.6843,39.82646,39.82646,0,0,0,.73413-4.5601q1.4141-9.27671,2.8284-18.55343.26871-1.76214.53742-3.52389l15.59194,9.49449-12.0458,41.48177Zm8.60523,7.92847c1.8804-4.4438,2.79191-9.58543,4.13508-14.21052q4.29705-14.7979,8.5943-29.5958l16.369,9.96811-18.38639,59.15355-3.84705-.86936-10.23409-21.417A5.08079,5.08079,0,0,0-523.73363,804.90753Zm92.10346-8.07249-.72749.17875-12.046-41.482,15.59194-9.49508s3.94833,25.89725,3.95106,25.90818a7.82446,7.82446,0,0,0,2.81494,4.83291Zm19.89484-41.63379-2.72927-17.90165,15.91509-9.69159Zm25.418-53.19134-30.679,18.68281-5.6531-37.07817a222.57571,222.57571,0,0,0,55.97583-22.71291Zm32.28936-67.571c-32.36761,23.02143-67.08045,36.21623-103.54724,39.342l7.89549-25.26362c.508.00742,1.01162.02927,1.52212.02927,34.433,0,73.761-17.11015,107.02118-41.08622Zm31.47776-65.8731-8.48717,17.76056c-33.9553,28.60076-78.21805,51.1599-115.41351,51.8589l8.22626-26.32227c36.21369-9.01425,81.436-29.80324,119.79232-56.59171A87.02544,87.02544,0,0,0-322.55022,568.56577Zm17.15074-35.89131c-38.37724,31.16436-88.71461,56.32182-129.18905,67.55348l8.28383-26.50629c27.60046-9.89844,62.49888-27.01366,81.25956-46.62867a196.54474,196.54474,0,0,0,46.33166-8.41028ZM-209.617,332.232c-.72671-32.29814-5.12056-63.54251-12.22357-88.2771l18.66544-20.267c9.31282,16.85178,14.49152,38.26367,16.25172,61.054Zm31.15909-65.20571c-3.04131-19.102-8.69031-36.79678-17.36559-51.32069l17.92975-19.46807A196.17049,196.17049,0,0,1-164.0694,236.9159Zm30.39335-63.60359-8.65011,3.37793a212.33054,212.33054,0,0,0-9.89786-22.81243l28.38786-30.82374,19.57735-11.30279ZM-90.91727,74.92719a19.18336,19.18336,0,0,1-19.18335-19.18335A19.1833,19.1833,0,0,1-90.91727,36.56049,19.1833,19.1833,0,0,1-71.73391,55.74384,19.18336,19.18336,0,0,1-90.91727,74.92719ZM-687.14708,405.68974h0v0Z"/></svg>