<svg id="Слой_1" data-name="Слой 1" xmlns="http://www.w3.org/2000/svg" viewBox="0 0 1003 1030"><title>Christmas flags</title><path d="M963.00929,10.98264H39.99082A21.12165,21.12165,0,0,0,20.93314,41.2107l461.50962,965.79189a21.12129,21.12129,0,0,0,38.11458,0L982.06658,41.2107A21.12124,21.12124,0,0,0,963.00929,10.98264ZM845.75148,119.6883a8.82272,8.82272,0,0,1-1.73814,7.03452c-2.11106,2.78469-5.39688,4.50468-8.03638,5.88532a469.99719,469.99719,0,0,1-78.09707,31.8741q5.14475-5.14388,10.28853-10.28795,17.25231-17.25319,34.5056-34.506Zm-86.1075,0h22.4317q-12.10346,12.10346-24.20673,24.20692-5.14329,5.14329-10.28756,10.28775C750.86762,143.20226,754.99412,131.44528,759.644,119.6883Zm-5.209,123.68738-.02966.24881c-.28081,2.36982-.55616,4.75954-.828,7.15h-1.5832a96.27309,96.27309,0,0,0-9.24608-10.94655,54.512,54.512,0,0,0-16.218-11.47812,56.486,56.486,0,0,0-28.07446-4.443l50.91519-50.91519a3.434,3.434,0,0,0,.5023,2.01232C760.46964,192.26984,757.53722,217.09458,754.435,243.37568Zm-19.303-123.68738c-.44649,2.63873-.84341,5.29189-1.17476,7.95872a5.70036,5.70036,0,0,1-11.07789,1.05416c-.95659-2.98608-1.86869-5.99441-2.757-9.01288Zm1.92723,42.5014a3.43657,3.43657,0,0,0,2.01193.50288l-50.914,50.915a56.50524,56.50524,0,0,0-4.44341-28.07368,54.51131,54.51131,0,0,0-11.47871-16.21874,102.58508,102.58508,0,0,0-12.80217-10.61423c3.01535-.33565,6.02056-.68983,9.00586-1.04265l.24861-.03005C694.96848,154.52642,719.793,151.594,737.05929,162.18969Zm-103.838-42.5014h36.93513q-1.85815,2.70059-3.66518,5.43435a309.01482,309.01482,0,0,0-17.187,29.62273,102.88986,102.88986,0,0,0-6.59779,17.20148,5.70732,5.70732,0,0,1-10.7801.40258,71.06137,71.06137,0,0,1-4.132-17.12127A264.19436,264.19436,0,0,0,633.22129,119.6883Zm-19.43274,78.02681c23.73682,5.4002,39.50829,21.51531,44.61245,45.64788l-7.41154,7.41154h-50.619a222.08434,222.08434,0,0,1,9.85629-46.20092C611.46439,202.35347,612.64539,200.05839,613.78854,197.71511ZM570.215,141.61985a102.8263,102.8263,0,0,0,7.4974-16.82895c.55108-1.68877,1.06314-3.39861,1.58612-5.1026h28.05534q-7.71245,9.861-14.45113,20.39987a71.38752,71.38752,0,0,1-15.35035,9.43868,5.707,5.707,0,0,1-7.33738-7.907Zm-3.04579-21.93155c.19631.24627.38794.49176.58465.738-1.6595-.27164-3.37481-.515-5.11275-.738Zm-58.55114,0h32.46753a49.4856,49.4856,0,0,0-9.47459,2.54252,56.48748,56.48748,0,0,0-22.99294,16.70933Zm0,61.33232c20.66332-13.44809,43.19884-13.6971,63.79346-.75072-.8918,2.55657-1.70906,5.104-2.43422,7.63868-13.86531,26.8597-30.37052,47.90023-49.25764,62.86595H508.6181ZM494.053,119.6883v19.25185a56.48748,56.48748,0,0,0-22.99294-16.70933,49.48193,49.48193,0,0,0-9.4742-2.54252Zm0,61.33232v69.75392H481.95179c-18.94723-15.012-35.49927-36.13524-49.39151-63.1171-.69393-2.44514-1.48231-4.90317-2.33079-7.369C450.8327,167.32274,473.37954,167.56549,494.053,181.02061ZM435.50187,119.6883H440.03c-1.73794.223-3.45325.46639-5.11275.738C435.11392,120.18006,435.30555,119.93457,435.50187,119.6883Zm-12.12971,0c.52337,1.704,1.03543,3.41383,1.58651,5.1026a102.85947,102.85947,0,0,0,7.4974,16.82895,5.70685,5.70685,0,0,1-7.33738,7.907,71.13567,71.13567,0,0,1-15.13023-9.26481q-6.74356-10.62262-14.49055-20.57375Zm-31.05625,84.64529a221.34634,221.34634,0,0,1,9.81843,46.44095H351.98216l-7.924-7.92379c5.10143-24.12086,20.86-40.2313,44.57772-45.6393Q390.401,200.86892,392.31591,204.33358Zm-22.8657-84.64529a264.45507,264.45507,0,0,0,5.24974,34.72455,71.28736,71.28736,0,0,1-4.16748,17.42394,5.70655,5.70655,0,0,1-10.77893-.40239,102.88768,102.88768,0,0,0-6.599-17.20167,308.73071,308.73071,0,0,0-17.187-29.62253c-1.08656-1.65325-2.20043-3.28933-3.31938-4.9219Zm-87.26489,0c-.84107,2.846-1.70282,5.68315-2.60477,8.5a5.70071,5.70071,0,0,1-11.07867-1.05358q-.46483-3.7406-1.08383-7.44647Zm-16.78582,41.98895c17.26627-10.59588,42.0912-7.66366,68.37191-4.56128l.24861.02966c2.98569.35321,5.99089.7072,9.00664,1.04284a102.60113,102.60113,0,0,0-12.80256,10.61442A54.50047,54.50047,0,0,0,318.74577,185.021a56.48522,56.48522,0,0,0-4.443,28.07407l-50.91519-50.9148A3.43673,3.43673,0,0,0,265.39949,161.67725ZM304.0031,223.394a56.49026,56.49026,0,0,0-28.07329,4.44341,54.52111,54.52111,0,0,0-16.21913,11.47832,97.99067,97.99067,0,0,0-9.62407,11.45881h-1.14549c-.28959-2.56281-.5866-5.1229-.88673-7.6623l-.03044-.2492c-3.10161-26.28071-6.03383-51.106,4.56167-68.37191a3.43317,3.43317,0,0,0,.5023-2.01193ZM243.0154,119.6883c4.56752,11.586,8.62416,23.16115,11.86275,33.98223q-5.14417-5.14388-10.28834-10.28795-11.84734-11.847-23.69428-23.69428Zm-86.38518,0h43.66757q16.99677,16.99677,33.99354,33.99315,5.143,5.14417,10.28756,10.28814a469.99055,469.99055,0,0,1-78.09628-31.8737c-2.63951-1.38083-5.92533-3.10082-8.03678-5.88591A8.93417,8.93417,0,0,1,156.63022,119.6883ZM107.68286,74.92714a19.18335,19.18335,0,0,1-.00025-38.3667C131.8265,36.56014,132.08639,74.92705,107.68286,74.92714ZM168.68928,203.796a4.5932,4.5932,0,0,0-.15221,1.702l-28.01865-58.63485a114.7301,114.7301,0,0,0,20.76635,13.675,172.07964,172.07964,0,0,0,56.75777,17.05571,5.70023,5.70023,0,0,1,1.05416,11.07789,399.05713,399.05713,0,0,1-46.823,11.91524A4.559,4.559,0,0,0,168.68928,203.796ZM275.26905,429.63063l-38.71562-79.54308c13.45356.82155,27.03786,6.34254,35.85443,14.97841,9.44571,9.24978,13.9301,21.85759,12.62732,35.49888C284.17578,409.56055,281.02421,418.9766,275.26905,429.63063Zm24.49827-12.59181c.692,11.09935,1.76644,16.78309,3.00872,19.67121H291.59512A108.08314,108.08314,0,0,0,299.76732,417.03883Zm-.78565-43.1401a60.00462,60.00462,0,0,0-14.16661-21.50146c-14.08309-13.79584-36.09719-21.439-56.84871-19.95222l-5.12641-10.53227h78.93033C300.29616,331.99154,299.1776,348.13652,298.98168,373.89873ZM315.7273,513.51994l.4902,1.02567h69.976L338.844,561.89592Zm72.43128,109.91984A59.45636,59.45636,0,0,1,362.18,610.73049l-16.67576-34.89725,53.42746-53.42765c6.38743,27.65647,3.96609,59.27219-7.21132,94.1751C390.48156,618.80064,389.30134,621.0963,388.15858,623.43977Zm43.57351,56.09507a102.75825,102.75825,0,0,0-7.4974,16.82875c-3.0013,9.19456-5.56236,18.63636-7.69254,28.12988l-15.27385-31.96367q4.03419-5.633,7.77567-11.46349a71.40033,71.40033,0,0,1,15.34957-9.43849,5.70734,5.70734,0,0,1,7.33855,7.907Zm61.59654-117.72869v78.32772c-20.66371,13.44887-43.19845,13.6971-63.79307.7513.8918-2.55677,1.70906-5.10416,2.43383-7.63907C448.72242,600.79224,469.319,576.80642,493.32863,561.80616ZM442.36115,551.268a198.04447,198.04447,0,0,1,12.109-36.72243h6.06973A200.107,200.107,0,0,1,442.36115,551.268Zm-2.538,156.56607c-1.86128-2.36045-3.73582-4.73612-5.63105-7.10575a102.61151,102.61151,0,0,0,16.55829,1.54729,54.4973,54.4973,0,0,0,19.58535-3.35178,56.49009,56.49009,0,0,0,22.99294-16.70894v72.0047a3.4406,3.4406,0,0,0-1.77814-1.06782c-19.702-4.71641-35.18275-24.34333-51.57165-45.12061ZM450.8569,796.303l-9.71618-20.33313c5.512-3.181,11.07359-6.26741,16.70269-9.1649a5.70038,5.70038,0,0,1,7.088,8.57869A181.74789,181.74789,0,0,0,450.8569,796.303Zm43.06536,90.12179-27.89259-58.37044a469.09894,469.09894,0,0,1,27.299-61.80105V849.154C493.32863,861.361,494.14745,874.01918,493.92226,886.42482Zm6.68912-354.60436a28.53581,28.53581,0,0,1-18.22988-12.5641,21.46437,21.46437,0,0,1-2.29059-4.71076h41.04094a21.44432,21.44432,0,0,1-2.2902,4.71076A28.53755,28.53755,0,0,1,500.61137,531.82046Zm68.77469,101.67738c.69471,2.44475,1.48231,4.90258,2.33157,7.36821-20.60321,12.9657-43.15044,12.72333-63.82352-.73218V561.80616C531.9658,576.84584,552.60922,600.914,569.38606,633.49784ZM540.68285,514.54561h6.05178a198.6899,198.6899,0,0,1,12.27763,36.96011A199.88706,199.88706,0,0,1,540.68285,514.54561Zm-33.268,375.35861c-.4781-13.51093.47927-27.39751.47927-40.75018V766.25333a470.01456,470.01456,0,0,1,28.05846,63.93143Zm43.91852-91.90715a181.5181,181.5181,0,0,0-15.042-22.61338,5.70038,5.70038,0,0,1,7.088-8.57869c6.1033,3.14161,12.13439,6.49183,18.09718,9.96537Zm10.06431-90.163-.15377.19709c-16.39085,20.77728-31.87117,40.40419-51.57165,45.12061a3.43442,3.43442,0,0,0-1.77814,1.06782v-72.0047a56.47978,56.47978,0,0,0,22.99294,16.70894,54.49475,54.49475,0,0,0,19.58378,3.35178,102.57782,102.57782,0,0,0,16.55829-1.54729C565.13389,703.098,563.25935,705.47366,561.39768,707.83411Zm23.84571,19.19974a308.859,308.859,0,0,0-8.25495-30.67026,102.924,102.924,0,0,0-7.4974-16.82875,5.70662,5.70662,0,0,1,7.3366-7.907,71.14,71.14,0,0,1,15.13023,9.26481q4.29237,6.76054,9.007,13.24183ZM641.62376,609.048c-7.41622,7.22127-16.93725,12.30163-28.31254,14.89567q-1.76507-3.65718-3.68-7.12233c-11.10247-34.79461-13.49922-66.319-7.12858-93.90327l54.32122,54.32122Zm21.86032-45.74624-48.75573-48.75612h72.05426Zm46.31371-99.12179H292.08532l-5.29462-10.87806H715.09242ZM358.54873,408.60474c10.48075,0,5.16193-15.19463,18.30287-48.33461,1.56427-3.87945,7.50833-19.88274,12.045-19.88274,5.16193,0,4.6928,19.88274,4.6928,23.27823,0,40.23032-8.10078,68.53564-8.85482,73.04442H329.85371c-.83326-4.50878-9.78721-32.8141-9.78721-73.04442,0-3.39549-.15611-23.27823,5.00581-23.27823,4.8497,0,10.01162,16.32646,11.57589,19.88274C350.5705,393.41011,345.40857,408.60474,358.54873,408.60474Zm-14.49289-86.69195h30.18747c-12.29129,17.1402-13.26778,26.719-15.38157,26.719C356.045,348.63179,354.96824,339.03894,344.05584,321.91279Zm107.093,54.3622c0-9.37624,7.35221-23.44059,20.02325-23.44059,5.94484,0,13.14016,4.365,13.14016,12.28621,0,8.24441-28.46982,14.71067-30.3471,14.71067C451.931,379.83127,451.14883,378.05313,451.14883,376.275Zm278.20309,27.44493c-1.08031-15.09471,2.56886-28.95768,10.27312-39.03487,6.49007-8.48814,16.26011-13.98825,25.9115-15.0229L731.8439,418.88527A87.83047,87.83047,0,0,1,729.35192,403.71992Zm-16.06731-1.22238c.03513.786.06518,1.5711.12177,2.362A113.95644,113.95644,0,0,0,720.68756,436.71H679.52485C692.58032,430.09332,704.591,417.789,713.28461,402.49754Zm60.00574-68.76591C756.302,332.01652,738.39251,340.0972,727.05,354.8229c.07025-2.0049.09016-4.01488.03044-6.02875,0-6.95178.46912-12.12385-2.5033-12.60937H710.65486c-1.72038,0-5.63105-.48552-5.63105,2.42446,0,2.58682,1.72038,9.37624,1.72038,17.45829,0,12.447-4.22368,31.8458-10.48075,31.8458-3.12853,0-18.459-17.78144-18.459-36.69472,0-4.85048,1.40815-9.86019,1.40815-12.12385,0-3.39549-3.44154-2.91-5.47572-2.91H660.90976c-6.101,0-5.94406.32316-5.94406,7.59809,0,44.93912,27.21857,56.41666,27.21857,63.20608,0,2.1013-4.6928,8.082-22.68266,8.082-4.22368,0-4.53591,4.68812-4.53591,6.62706v14.22515c0,.27476.00507.52689.0082.78682H614.90437c-.34384-3.53287-5.29853-17.26-5.29853-48.3112,0-9.69939.93825-31.52264,14.07919-31.52264,10.79376,0,8.60347,10.83122,10.48075,10.83122,4.6928,0,13.60928-6.78942,13.60928-18.10616,0-8.72836-6.57008-15.84094-14.54831-15.84094-4.22368,0-7.97745,2.58682-11.26288,5.01128-3.28543,2.58682-5.94406,5.17207-8.29046,5.17207-3.12932,0-3.44154-3.07077-3.75455-5.49523-.1569-3.07233-2.97242-2.26366-5.31882-2.26366H591.616c-4.37979.16236-3.12853,10.18335-3.12853,54.96168,0,29.07145.83326,40.85166,2.52047,45.56358H542.6374c-.34384-3.53287-5.29853-17.26-5.29853-48.3112,0-9.69939.93825-31.52264,14.07919-31.52264,10.79376,0,8.60347,10.83122,10.48075,10.83122,4.6928,0,13.60928-6.78942,13.60928-18.10616,0-8.72836-6.57008-15.84094-14.54831-15.84094-4.22368,0-7.97745,2.58682-11.26288,5.01128-3.28543,2.58682-5.94406,5.17207-8.29046,5.17207-3.12932,0-3.44154-3.07077-3.75455-5.49523-.1569-3.07233-2.97242-2.26366-5.31882-2.26366H519.349c-4.37979.16236-3.12853,10.18335-3.12853,54.96168,0,29.07145.83326,40.85166,2.52047,45.56358H489.48041c8.5941-5.34946,14.22984-14.54968,14.22984-26.97347,0-1.29419-.46912-9.69939-2.81553-9.69939-2.19029,0-2.19029,20.2059-27.84537,20.2059-7.82134,0-19.71024-5.49523-19.71024-13.09332,0-16.812,50.37113-9.537,50.37113-44.29281,0-19.07407-14.54831-29.09662-31.756-29.09662-20.9615,0-41.923,19.39723-41.923,58.518,0,18.47127,5.90971,35.94732,19.485,44.43175H415.10355c2.168-5.04094,3.82793-18.56475,3.82793-54.61666,0-30.62557-1.197-49.06874-2.82216-60.18058H779.04278Zm14.31141-29.40358H214.281l-6.28829-12.92H793.89024Zm46.156-97.35477a4.59564,4.59564,0,0,0-3.57268-5.87361,399.13739,399.13739,0,0,1-46.823-11.91583,5.70012,5.70012,0,0,1,1.05416-11.07769,172.09293,172.09293,0,0,0,56.75855-17.05532,114.64118,114.64118,0,0,0,21.26748-14.10573ZM892.60164,74.92714c-11.38085,0-21.29952-10.5674-19.73172-21.96867,1.30754-9.50858,10.2586-16.398,19.73173-16.398a19.18335,19.18335,0,1,1,0,38.3667Z"/></svg>