<svg id="Слой_1" data-name="Слой 1" xmlns="http://www.w3.org/2000/svg" viewBox="0 0 1003 1030"><title>Christmas flags</title><path d="M963.00929,10.98264H39.99082A21.12165,21.12165,0,0,0,20.93314,41.2107L482.44257,1007.0025a21.12153,21.12153,0,0,0,38.115,0L982.06658,41.2107A21.12124,21.12124,0,0,0,963.00929,10.98264ZM665.18807,192.7093c5.41249-3.06375,28.48934-16.34987,50.52022,2.44788,9.10616,7.79948,37.786,57.67416,41.13617,63.59247,4.21353,7.44354,8.05551,11.07554,11.31206,16.82524,2.01075,3.55317-13.69749,12.89194-28.75,21.41345-40.76462,23.07607-55.51276,3.72958-61.25777-6.41943-6.59584-11.65278-5.7294-25.56726-.59011-37.5832a72.22873,72.22873,0,0,1,13.32184-20.15029c2.073-2.21,5.474-5.85137,8.89989-5.35824,4.07381.5866,6.90494,4.71251,8.10547,8.33573a11.60636,11.60636,0,0,1,.57938,6.25317c-.60865,2.3265-2.05408,2.68439-3.78636,4.19577-7.41876,6.47231-10.91982,18.61841-5.89645,27.4904,5.361,9.47147,16.80729,10.3621,25.77294,5.2876,9.97884-5.649,7.4451-10.91475,2.75386-19.20287l-4.21353-7.442a51.6987,51.6987,0,0,0-4.53122-7.44627c-4.32008-10.76527-9.84146-21.23392-18.06733-29.47227a2.33362,2.33362,0,0,0-1.0368-.60046c-5.3438-6.9309-15.85987-6.23287-22.804-2.30113-17.25221,9.76652-6.48187,22.87546-10.20208,24.98144-5.41405,3.06453-15.06661-.18031-19.18335-7.45369C640.18477,217.58536,649.62814,201.51884,665.18807,192.7093ZM507.62267,479.92175,533.83508,464.788l14.2874,24.94749a16.20972,16.20972,0,0,0-4.56459,9.13953l-35.93444,66.286Zm58.29413,202.67781-19.53363,26.76291-38.75914-42.437-.00059-30.91028ZM524.60227,418.58592c-5.91986,3.351-37.32074-53.69481-39.52195-57.58518-4.49922-7.94935-48.07078-83.34173-40.4602-87.65049L460.689,264.255c1.86088-1.05377,6.64736-4.43365,8.75334-.71344.5745,1.01474,7.25932,29.39324,31.09957,71.50825,26.33183,46.51432,45.68535,65.71016,46.92958,67.90825,1.62827,2.87563-3.24874,4.52108-5.10963,5.57485ZM402.74163,390.948a108.27187,108.27187,0,0,0,6.70122,15.55076c7.659,13.532,22.97225,30.32446,40.05586,20.65395,17.082-9.67129,10.56583-31.44146,2.90529-44.97347a64.67825,64.67825,0,0,0-7.1239-10.20208c-5.08641-5.94035-11.82177-11.53842-19.83181-12.5961a19.45424,19.45424,0,0,0-5.80122.10186c-1.87455.31867-3.35588.83482-5.209.00878-3.07155-1.36893-4.59386-4.9338-6.33747-7.52023-1.38669-2.0572-3.53248-4.53318-3.849-7.04252-.19261-1.52856.16353-3.93682,1.42181-5.005,1.17262-.99543,3.58868-1.44543,5.04484-1.8845a40.836,40.836,0,0,1,9.89746-1.704,44.28653,44.28653,0,0,1,19.198,3.62986c15.5654,6.5773,27.76614,20.09955,35.95747,34.5698,22.50078,39.74832,9.16861,69.85422-10.28326,80.865s-52.12507,6.94944-74.62586-32.79888c-8.69792-15.36518-14.27179-34.30324-10.52641-51.95959,1.4062-6.629,3.92979-12.79788,9.71852-16.74309a8.606,8.606,0,0,1,6.89246-1.52114,8.12755,8.12755,0,0,1,5.30341,5.482,16.28461,16.28461,0,0,1,.19807,7.8709c-.46951,2.60965-1.24814,5.15763-1.67784,7.77411A34.20875,34.20875,0,0,0,402.74163,390.948Zm91.58087,96.65264.00059,77.56081-32.02455-59.07178Zm.00137,148.41494v30.90989l-38.75855,42.438-19.53363-26.76261ZM384.14136,145.512,487.06961,174.2148c-.02517.0441-.05405.08372-.07845.1284L466.773,211.63779Zm145.46906,196.3101c-32.745-57.84511-26.8798-53.7955-21.2987-56.95526l9.30286-5.26574c7.10477-4.02151,7.56219-3.61015,8.71119-1.5791,3.54068,6.25707,5.05343,13.66314,15.49124,32.10027,24.1275,42.62395,45.56514,65.106,46.42846,66.62967,3.063,5.41249-2.58526,7.27025-6.47563,9.47225l-11.501,6.51154C561.98077,397.42694,563.314,401.35947,529.61043,341.82207ZM514.95283,174.34321c-.02439-.04469-.05347-.0843-.07845-.1284l74.38915-20.7443-65.2143,37.6515Zm99.32552,244.00074,33.75488,56.68674-65.45862-38.38231Zm-41.03392-94.52031c-8.95278-15.8144-13.54957-34.4213-10.501-52.52785a56.256,56.256,0,0,1,6.62667-18.99777c2.24571-3.85017,6.33357-10.27643,11.09155-11.18229,3.90755-.74389,9.24705,1.09085,11.68244,4.18855,4.09957,5.21462.64788,9.29194-2.346,13.5525a28.35872,28.35872,0,0,0-4.35833,11.02578c-2.43109,12.96063,2.31635,26.31232,8.62884,37.46319,6.60677,11.67112,21.24875,27.27867,35.62689,19.13964,18.2654-10.341,1.15213-35.04771-5.74189-47.2262-4.78335-8.4497-10.561-15.74044-15.97637-23.62793-6.52871-9.50972-12.20464-19.56408-18.46405-29.24708a84.56,84.56,0,0,0-10.68428-13.427c-2.56535-2.62175-5.37795-5.152-7.20234-8.37964-1.33771-2.36631,2.89066-4.75954,4.581-5.7173l17.591-9.95776c7.61214-4.308,49.83175,71.84936,54.331,79.79871,2.20121,3.89037,34.954,60.17122,29.03418,63.52143l-39.57815,22.40555C618.641,365.35165,592.5839,357.98929,573.24443,323.82363ZM613.9509,119.6883l6.78825,10.99827-89.78926,25.03862,45.09446-36.03689Zm-106.32881,6.58159,6.011-6.58159h40.90356l-46.91456,37.49188Zm6.52207,123.13318c4.1183,7.27494.06088,14.70677-6.70356,18.53626-6.766,3.83027-15.22585,3.48448-19.34415-3.79046-4.11674-7.27338-.34657-15.21258,6.41787-19.04285C501.28033,241.27652,510.02742,242.12969,514.14416,249.40306ZM488.31092,119.6883l6.011,6.58159v30.91028L447.407,119.6883Zm-100.31723,0h37.906l45.09387,36.03689-89.78809-25.03862Zm69.67566,108.741-.80282,1.48055-33.94281,19.59705L371.24513,159.2682Zm-43.12956,25.91794-34.79656,20.09-.51713-.01073L363.46517,163.83065Zm-54.18286,19.69033-41.91109-.86409c-.049-.00078-.09718-.00078-.14538-.00137l26.98713-104.87734Zm-60.60268-89.92918c-.15514-.14772-.30228-.30306-.47088-.435-.16275-.12762-.34228-.22832-.516-.34013a6.5835,6.5835,0,0,0-.5667-.35028c-.17758-.09055-.368-.15221-.55323-.22637a6.43937,6.43937,0,0,0-.64514-.24217c-.19495-.05484-.39887-.07786-.59967-.11455a6.38346,6.38346,0,0,0-.683-.11045,6.47193,6.47193,0,0,0-.66193.01015c-.19553.00527-.38716-.01464-.58543.009l-46.84314,5.46186-.009.00117-.1126.01307c-.20588.024-.39575.08938-.59441.13153-.20334.04332-.4059.06127-.60787.1245-.01737.00546-.0322.01542-.049.02108a6.51479,6.51479,0,0,0-.79189.33955c-.14128.06752-.29506.1165-.4301.1928a6.50041,6.50041,0,0,0-.60416.41995c-.15494.11221-.32355.2088-.46756.3333-.1526.13192-.27866.28979-.41819.43478a6.626,6.626,0,0,0-.47205.49722c-.1327.1686-.233.35945-.34931.54016-.11592.17992-.24647.34931-.345.53938-.10538.20392-.17485.42619-.25993.641-.07376.18753-.16509.36706-.22246.56143-.05464.18656-.07454.38463-.114.577a6.66751,6.66751,0,0,0-.13367.72144c-.01483.15963.00254.32472-.00137.48688a6.72608,6.72608,0,0,0,.01229.8639c.002.01873-.002.0363.00059.05464a6.7752,6.7752,0,0,0,.231,1.11349c.01015.03552.01015.07142.02108.10694l.00332.01015.009.02966,14.929,49.129-36.93982-21.6605L206.847,162.998l127.26572-4.69807-23.543,91.49286-8.75685-61.73763c-.02771-.19534-.09464-.3735-.13777-.56221-.0521-.22656-.09133-.45722-.1647-.67344a6.57027,6.57027,0,0,0-.26305-.60592c-.09133-.20139-.17114-.408-.27984-.59772-.11065-.19241-.24705-.36336-.37507-.5425-.12333-.17348-.23807-.35379-.377-.51381C300.07409,184.396,299.91056,184.25687,299.75425,184.10836Zm.39243,86.93256-26.35759-15.45534-16.8067-55.30942,32.58754-3.79983ZM204.93283,119.6883h81.15145l53.45049,17.54025-1.911,7.42617-139.20633,5.1389c-.20061.00722-.38775.0564-.58328.08137-.1969.02478-.39165.0242-.58914.06752-.02712.00585-.05035.01912-.07669.02556-.13894.032-.26754.08372-.40219.1247Zm-.58621,95.17794-21.5799-12.65386,10.49753-39.08249ZM107.68286,74.92714a19.18335,19.18335,0,1,1,19.18335-19.18335A19.1833,19.1833,0,0,1,107.68286,74.92714Zm19.84957,44.76115h63.61452l-.31672,1.17905-48.32252,30.15918Zm33.28439,69.65322-12.47316-26.10235,37.3705-23.32351-14.857,55.31332Zm12.91067,27.01815L176.1178,213.91l21.58049,12.65425-16.53,5.36644Zm27.1768,52.41389-.09757.02244c-.18792.04371-.35458.12431-.53469.18265a6.428,6.428,0,0,0-.633.20568c-.01717.00742-.03083.01912-.04761.02693a4.32155,4.32155,0,0,0-.47849.27164L187.0343,244.2064l26.22919-8.51507,36.9406,21.66108-49.26818,11.41353Zm10.66945,11.38211,55.566-12.873L293.497,282.7382l-68.86933,27.9804Zm14.00991,44.72251,55.00812-22.34838-44.40209,44.543Zm78.81168-27.24237c.02517.04332.04391.0884.06947.13153l8.92077,14.98153-56.67113,32.71906Zm46.32932,289.12213-6.08651-12.737,8.61011-4.97108Zm5.41756-72.80869-16.74484,9.47927c-4.90512,2.77728-1.65013,8.527-44.16167-66.57191-7.66054-13.53044-42.07911-75.12074-32.77624-80.38648l18.43712-10.437c1.52212-.86175,3.75924.32706,4.71622,2.01934,1.341,2.36826,4.29627,22.582,11.95525,36.114,1.149,2.02949,2.9693,5.24389,5.84493,3.61561,1.35351-.76574,3.19723-3.82012,5.6732-8.12576,2.74137-4.23226,6.32888-8.9438,11.91-12.10356,15.39133-8.71275,32.948-4.13391,56.02481,36.63071,9.192,16.23747,31.04805,60.371,25.80417,63.33878l-17.591,9.95854c-1.52212.86175-5.80122,3.95438-7.3327,1.24892-.67129-1.18491-11.17155-39.46419-23.90738-61.96029-14.84025-26.21631-22.20573-28.96861-30.49385-24.27737-17.25221,9.76652-2.65395,36.345,4.14484,48.35335,19.149,33.82845,29.0935,42.71527,31.86922,47.62039C361.04734,511.17276,357.83451,512.99227,356.14222,513.94925ZM365.217,617.08591l8.53166-59.87187,45.13251-26.05727-51.28947,90.89865Zm7.12995,14.92094,62.557-109.23537,22.76676,41.995-84.96415,67.99275Zm94.42742-50.44909,20.21878,37.29449c.0242.04508.05581.083.081.12772l-102.93332,28.705ZM406.52389,703.52828l-20.273-42.425,84.74462-23.63281-48.26612,38.57287c-.15631.12479-.27788.27544-.41995.411-.16275.15582-.33643.30247-.48122.47137a6.55072,6.55072,0,0,0-.38912.54035c-.12489.17895-.25993.35048-.36609.53928-.10869.19368-.18734.39887-.27593.60143-.08547.19563-.18207.3857-.249.58767-.06869.208-.10674.42229-.15494.63529-.04761.2088-.10616.41361-.13465.62592-.02752.21329-.0242.42795-.03278.64319-.0082.21758-.02693.43312-.01483.6511.01249.21456.05679.42492.089.63822.03337.21729.05464.43419.10928.64846.05405.21329.14089.4178.21622.62651a6.55725,6.55725,0,0,0,.23281.61675,6.76461,6.76461,0,0,0,.34677.59128c.10089.16665.17758.3417.29467.50181l28.07876,38.46993.00585.0082.06674.09172a6.80181,6.80181,0,0,0,.74311.84185c.0283.02781.0482.06108.07728.0885.02752.02615.06049.04313.0886.069a6.58713,6.58713,0,0,0,.893.69247c.04625.02976.09523.05327.14206.08206a6.56137,6.56137,0,0,0,.88263.44551c.065.02712.1286.05854.19417.08362a6.60377,6.60377,0,0,0,1.00226.28618c.0843.01737.1686.03074.25349.0444a6.56357,6.56357,0,0,0,1.05319.09767l.01132.001.00137-.00029.00527.00029a6.56418,6.56418,0,0,0,1.20481-.12372c.11767-.022.23144-.05591.34853-.08459a6.47591,6.47591,0,0,0,.83443-.264c.13114-.05123.26052-.10421.38912-.16431a6.59108,6.59108,0,0,0,.781-.44132c.105-.06762.2129-.1244.31457-.19895.02693-.01922.056-.032.08235-.05191a6.61037,6.61037,0,0,0,.55265-.51059c.11826-.112.25134-.19924.36277-.32179l.0804-.08811.00059-.00039L494.32425,686.788v43.32022L448.84692,772.099Zm87.80036,44.83658v25.307l-38.5718,10.30756Zm-42.2161,50.55671L494.325,787.64043v44.60338L458.66184,812.636Zm49.3919,103.36117-32.8822-68.81167,29.19166,16.04935c.10752.05913.219.10157.32823.15416.05913.02849.11631.06274.1768.08957.03083.01366.05854.032.08938.04508.02771.01171.05659.01825.08372.02966.17309.07093.34735.12645.523.182.09269.02908.18324.064.27652.08918.08625.02322.17329.0402.25993.05952.0722.016.1448.02742.21817.04108.05913.01112.11767.02391.1768.03337.05991.00946.119.02576.17953.03366a6.49821,6.49821,0,0,0,.8477.05815l.00585-.00039.00585.00039a6.49355,6.49355,0,0,0,.8477-.05815c.06049-.0079.119-.0242.17895-.03366.05913-.00946.11845-.02225.17758-.03337.07318-.01366.146-.02508.21876-.04108.08625-.01961.1729-.0363.25915-.05952.09328-.02478.18265-.05971.27476-.0885.17621-.05552.35184-.11172.52552-.18295.02712-.01112.056-.01766.08294-.02937.03083-.01307.05932-.03171.09016-.04576.05971-.02615.11572-.05981.17426-.08791.10987-.05259.22188-.09572.33-.15514l30.61562-16.83295Zm43.2125-90.4304-37.08734,20.39119-.00039-44.60445,43.14849,11.53023Zm-37.08773-38.18171V748.36456l38.5718,35.61333Zm92.46175-77.69819-46.98442,76.12524-45.47733-41.989-.00078-43.32129,34.37407,37.6357.002.00224.07962.08723c.11065.12089.242.20714.35906.31818a6.59085,6.59085,0,0,0,.55635.5142c.02634.0199.056.03259.08294.0522.10108.07415.20919.13075.3134.19836a6.60242,6.60242,0,0,0,.78213.44161c.128.0604.2572.1127.38853.16431a6.5171,6.5171,0,0,0,.83424.26393c.11709.02878.231.06274.34872.08459a6.55409,6.55409,0,0,0,1.20481.12382l.00449-.00029.00273.00029.01093-.001a6.59724,6.59724,0,0,0,1.05416-.09767c.0843-.01405.16743-.02712.251-.0441a6.59589,6.59589,0,0,0,1.00616-.28774c.06284-.0242.12411-.05425.18656-.0804a6.60549,6.60549,0,0,0,.89415-.45117c.0443-.027.09-.04927.13367-.07737a6.57224,6.57224,0,0,0,.89473-.69315c.02849-.02586.06127-.04283.08938-.06928.02908-.02742.0484-.06147.07728-.08918a6.7368,6.7368,0,0,0,.74232-.84116l.06752-.09211.00527-.00751,28.079-38.47032c.11631-.16.19358-.33516.29447-.50171a6.814,6.814,0,0,0,.34677-.59128c.09582-.20119.15826-.41058.233-.618.07513-.20812.162-.41224.216-.62495.05405-.21466.07591-.43156.10869-.64875.03278-.21329.07728-.42434.08938-.63861.01229-.21788-.007-.43351-.01483-.6507-.0082-.21534-.00507-.42961-.03278-.6429-.0283-.21329-.08742-.41946-.135-.62914-.04879-.212-.08625-.425-.15436-.63178-.06771-.20353-.1647-.39526-.251-.592-.08879-.2009-.16607-.40473-.274-.59714-.10674-.19046-.24315-.36384-.36921-.54455-.12626-.18061-.24061-.3658-.38541-.53469-.14675-.17124-.32238-.31984-.48747-.47732-.14031-.13387-.26071-.28257-.41487-.406l-48.26631-38.5719,85.6735,23.89108ZM514.87361,618.98c.02459-.04469.0562-.08264.08059-.12772l20.218-37.29488L617.80712,647.684Zm115.129,14.38781L544.275,564.76609l22.767-41.99558,63.13271,110.23724Zm4.92327-10.30287L575.526,517.79591l47.19244.9722,14.25345,100.01466ZM566.89252,485.19179a15.66148,15.66148,0,0,0-10.0807-.561l-14.09129-24.97266,26.45165-15.2719,72.20843,42.34021Zm116.14334,37.19428-31.57143,66.06922-9.87619-69.29845,41.91128.8637c.04879.00078.0964.00078.1446.00137Zm13.57767-28.41382-20.82646-34.97648,46.56271-18.88166Zm37.80586-79.11591-68.399,27.73628-23.98173-40.276,1.3018-.7515,97.58289-.31925ZM745.36107,391.959l-84.90444-.27593,44.0965-25.45915,44.486,18.03825Zm11.82958-24.75527-31.918-12.94228,18.23242-10.52661,16.83168,16.88457Zm9.27867-19.41733L755.5171,336.79987l20.73259-11.97008.99621.40473Zm21.56058-74.97321c-3.89037,2.202-5.49523-.23886-7.698-4.13079l-8.4255-14.884c-1.149-2.02949-3.58751-7.12663.9804-9.71188,19.45031-11.01076,20.98179-20.14033,19.736-22.34-4.02151-7.10477-40.24944-2.45256-66.867-49.47269-4.30876-7.61214-4.67095-7.85568,1.92645-11.58994l13.86921-7.851c2.19809-1.245,5.63261-3.85915,7.64337-.30755,1.33946,2.36826,2.78664,8.4739,5.65759,13.54762,11.20434,19.78908,38.31362,29.01154,41.69506,27.0968,6.766-3.82949-.15611-26.71119-7.5294-39.73427-4.788-8.45828-10.67043-14.50928-12.20035-17.21475-1.72507-3.04579,2.79133-4.93166,4.65221-5.98543l15.05256-8.52073c3.50165-1.31214,6.05724,4.3876,10.17554,11.661C836.27553,182.07244,825.24136,251.7479,788.0299,272.81322ZM892.60164,74.92714A19.18335,19.18335,0,1,1,911.785,55.74379,19.1833,19.1833,0,0,1,892.60164,74.92714Z"/></svg>