<svg id="Слой_1" data-name="Слой 1" xmlns="http://www.w3.org/2000/svg" viewBox="0 0 1003 1030"><title>Christmas flags</title><path d="M963.00929,10.98259H39.99082A21.12177,21.12177,0,0,0,20.93314,41.21085l461.50943,965.79179a21.1216,21.1216,0,0,0,38.115,0l461.509-965.79179A21.12137,21.12137,0,0,0,963.00929,10.98259ZM156.58456,180.4848l6.71878-3.87915-4.69163,8.12166Zm583.42589-60.79646,39.8777,23.02328h-65.373L701.2236,119.68834Zm102.87654,0h9.0886l-13.61572,7.86115Zm-20.41412,0h.11787l-.11787.20422ZM789.92611,127.529l-13.58021-7.84066h9.05347ZM733.96159,415.81494h-62.006l11.153-19.3182,26.64992-46.15721,30.361,52.58834ZM622.6416,648.772,600.59413,686.9595h-68.4006l99.70858-57.56674ZM600.59413,325.29369h-68.4006l102.6006-59.23638Zm56.96462-65.361,37.73756,65.361H619.82393ZM634.73247,401.342l-102.64334-59.262,68.38323.07806Zm-111.093-90.34054,34.18732-59.36576h68.6375ZM626.40669,415.76566l-68.38791-.07786-34.25992-59.18516ZM590.95836,506.2388H515.35483l37.80079-65.47433Zm-.13465,16.62376-37.7922,65.46028-37.696-65.46028Zm14.46284,8.19552L615.757,549.19362l27.39732,47.454H567.419Zm.06635-33.13033L567.494,432.35225l75.66909.08528ZM619.574,341.91647h75.85233l-37.87611,65.60361Zm53.3816-90.31283,73.52135-.08313-36.78448,63.71424ZM657.55876,224.938l-36.86683-63.85425h73.83163Zm57.08034-63.61286,65.34973-.07464-98.08909,56.63112Zm-71.48484,73.657H567.419l37.86753-65.58956L615.757,187.52791Zm-90.12276-8.32383-37.69658-65.46252h75.48956Zm-9.62875,16.65059-34.14244,59.16584V184.01806Zm.13894,180.8008L509.26031,483.487V364.73339Zm-.13894,180.86481-34.14244,59.16584V545.68367Zm.13894,180.8008-34.28138,59.3762V726.399Zm14.28506-172.47385h68.6375L523.63944,672.66692Zm61.85589-90.55217h63.17954L654.25108,582.6231Zm71.12284-16.62259H619.81515l37.735-65.36115,35.28422,61.11532Zm33.34782-164.09694h45.06675l-20.40924,42.7103Zm53.84585-18.37195h-52.965l36.85551-63.83942,25.50482,44.17826Zm-20.90842-90.55217-65.35207.07454,97.99054-56.575Zm-62.81463-90.394H620.825l13.29218-23.02328h46.86655ZM605.35289,134.513l-8.55859-14.82463h17.11737Zm-14.394,8.31193H515.354l13.35755-23.13656h48.889ZM509.26031,120.072v-.38365h.22149ZM385.64787,659.84163l-14.1311-29.57219,98.18861,56.69006H401.30381Zm15.65594-334.54794-34.19923-59.23726,102.6008,59.23726ZM469.81,342.07991,367.16664,401.342l34.26011-59.184Zm-87.736-16.78621H306.60182l2.16882-3.7567,35.56718-61.60425Zm-89.93367-9.948L255.2901,251.52051l73.65307.08313ZM382.323,341.91647,344.34777,407.5197l-37.87572-65.60322Zm51.95374,90.43577-37.7961,65.46457-4.36652-7.56326-33.38021-57.816Zm-37.73171,98.82039,37.80235,65.475H358.7427Zm14.39454-8.31007h75.62148l-37.76215,65.57561Zm-.12918-16.62376,37.86675-65.58751,37.865,65.58751Zm33.0674-90.551-68.38674.07786,102.54206-59.20194ZM375.43368,251.63565h68.52959l34.2644,59.34869Zm35.50512-90.43987h75.623l-37.76293,65.57688Zm23.40859,73.78635H358.7427l37.80235-65.47521Zm-90.00958-10.043-36.96343-63.85532h73.83046ZM319.998,217.88164l-98.0887-56.63112,65.34934.07464Zm-9.8397,15.29854-65.3509-.07454-32.73916-56.55756Zm-33.42178,90.47763h-51.736l-9.89473-20.70654,24.8384-43.0196Zm-42.95686,18.37195h43.83364l-23.9829,41.541Zm28.54164,59.72853L292.074,350.22547l37.8685,65.58946h-60.904Zm82.02608,39.00726,23.05655,39.93468,14.67984,25.42647H312.19443l-2.52886-5.292Zm-24.20985,81.98373h62.076l-33.96447,58.82834Zm55.29615,90.55217h68.52959l34.2644,59.3484Zm83.06229-8.327,34.14029-59.28966V664.26426Zm34.14029,121.3882v118.7888L458.30161,785.6792Zm-34.33465-302.348,34.33465-59.31756V483.487Zm.19436-180.70577,34.14029-59.28975V302.59864Zm33.9188-123.62054h.22149v.38365Zm-5.87205,23.13656h-75.7331l13.35813-23.13656h49.01762Zm-90.06207-8.42306-4.36652-7.56316-4.12825-7.15034h16.98975Zm-15.40694,8.30978H307.62027L320.913,119.68834h46.86831ZM300.674,119.68834l-13.29237,23.02328H222.011l39.87828-23.02328Zm-88.737,7.86017,4.52635-7.86017h9.08762Zm-15.88914-7.86017h.11787l-.11787.20422ZM163.49965,127.527l-13.57689-7.83861h9.05152Zm-30.65269,3.2828,20.61492,11.90188H138.53421Zm20.71679,30.44077-4.83623,2.79221-1.33088-2.78518Zm14.23374,42.69956,11.62741-20.08677v44.41916Zm11.43773-84.26173h.18968v.3293Zm16.81256,64.21234,33.776,58.50206-23.88357,41.36771-9.89239-20.70156Zm80.94869,248.56787h36.25525l-28.41557,16.40588Zm44.58435,14.42166L300.9577,482.61165l-8.91921-18.665Zm85.08124,256.92731,63.14793-.072-49.51991,28.59081Zm71.37107,14.41054L443.8778,777.35341l-2.075.00234L427.492,747.40753Zm79.98566,59.12535-34.25992-59.1873,51.51076,29.74L561.19649,777.357Zm-25.92964-73.60789,64.24815.07328L582.472,732.83443ZM701.543,483.65645,680.31713,446.889l30.40642,17.55547Zm-12.89838-51.1879h37.35879l-8.07815,16.90506ZM796.56019,284.81574l-24.54062-42.50744,33.82923-58.4441v81.51344Zm9.09972-165.12739h.1889v.32813Zm16.81295,64.21234,12.207,21.14278-12.207,25.54531Zm21.39,1.92567-5.37092-9.27828,7.68454,4.43658Zm4.47249-24.57584,7.26713.00829-1.56817,3.28192Zm.10069-18.53889,22.13665-12.78022-6.1072,12.78022ZM892.60164,36.56049a19.18335,19.18335,0,1,1-19.18335,19.18335A19.1833,19.1833,0,0,1,892.60164,36.56049Zm-784.91879,0A19.18335,19.18335,0,1,1,88.4995,55.74384,19.1833,19.1833,0,0,1,107.68286,36.56049Z"/></svg>