<svg id="Слой_1" data-name="Слой 1" xmlns="http://www.w3.org/2000/svg" viewBox="0 0 1003 1030"><title>Christmas flags</title><path d="M963.00928,10.98264H39.99081A21.12156,21.12156,0,0,0,20.93323,41.2107l461.50933,965.79189a21.1216,21.1216,0,0,0,38.115,0L982.06657,41.2107A21.12124,21.12124,0,0,0,963.00928,10.98264ZM495.64448,890.02911c1.50416.07884,3.00911.12743,4.51434.12743H500.16c2.43139,0,4.86209-.11826,7.28908-.32335l-5.94913,12.44955ZM305.63654,119.6883c26.36335,16.65488,39.03985,45.83366,33.24107,79.13776-19.64272-7.14868-34.17708-18.25232-42.53457-32.8943-7.34011-12.86208-9.95337-28.53676-7.97306-46.24346Zm114.98244,0a95.42644,95.42644,0,0,1-.80594,30.47453c-16.98994-6.43328-30.143-17.05629-38.74918-30.47453Zm104.23434,0A170.30506,170.30506,0,0,1,543.66,142.81705c-14.09938-8.32559-28.68009-12.55395-43.5-12.55395h-.00117c-14.82,0-29.40066,4.22836-43.50033,12.55395a170.312,170.312,0,0,1,18.80692-23.12876Zm94.87742,0c-8.6828,13.53279-21.9897,24.22214-39.1944,30.63728a95.55546,95.55546,0,0,1-.8356-30.63728Zm92.22143,0c1.98041,17.70729-.63636,33.381-7.97677,46.24346-8.29339,14.52919-22.66422,25.579-42.078,32.73331-5.72979-33.23561,6.94651-62.34667,33.26351-78.97677ZM730.408,423.251c-.394.33409-.79735.642-1.18871.98313A189.202,189.202,0,0,1,712.841,403.16532h-.00059q-4.79072-7.08779-9.36785-15.04632a209.13685,209.13685,0,0,1,25.704-36.07084A102.66127,102.66127,0,0,0,756.231,369.21158ZM677.56814,533.82809a103.182,103.182,0,0,1-15.67077,7.25932c-6.7701-39.26943,12.1502-72.78722,48.914-86.754q.69608,3.85213,1.11817,7.58717ZM533.57943,789.09444c-9.25837-8.37671-18.58641-13.57416-28.27419-14.94582.30335-10.51217,1.52543-21.72665,5.889-24.27483,4.36584-2.54974,14.57563,1.98773,23.72658,6.97851C531.25137,766.025,531.03613,776.79535,533.57943,789.09444Zm-68.18155-32.24272c9.15094-4.98962,19.36357-9.5265,23.72667-6.97793,4.3636,2.54818,5.58558,13.76267,5.88893,24.27483-9.68769,1.37166-19.01572,6.5691-28.27409,14.94582C469.28269,776.79535,469.06745,766.025,465.39788,756.85172Zm1.34151-84.8658c9.25837,8.37671,18.58641,13.57416,28.27409,14.946-.30335,10.512-1.52534,21.72685-5.88893,24.27522-4.36711,2.54759-14.57661-1.98851-23.72667-6.97812C469.06745,695.05516,469.28269,684.28541,466.73939,671.98592Zm11.3507,58.555c0,4.42155-6.76786,10.0327-14.33658,15.0471h-.002c-1.15515.76535-2.32728,1.51743-3.49892,2.24844-.599-.77745-1.25262-1.51509-1.91279-2.24844h-.00117c-5.9704-6.6294-14.39317-11.5154-25.01813-15.0471,11.80079-3.92277,20.91388-9.49567,26.9321-17.2971C469.10014,718.76622,478.09009,725.44422,478.09009,730.541Zm16.08848,10.47841a15.99473,15.99473,0,0,0-8.25153-2.11223h-.09269a15.98387,15.98387,0,0,0,0-16.73235h.09269a16.00279,16.00279,0,0,0,8.25153-2.11223,16.27894,16.27894,0,0,0,5.98026-6.25434H500.16a16.27894,16.27894,0,0,0,5.98026,6.25434,15.9829,15.9829,0,0,0,8.25153,2.11223h.09269a15.98331,15.98331,0,0,0,0,16.73235h-.09269a16.00181,16.00181,0,0,0-8.25153,2.11223,15.62263,15.62263,0,0,0-4.89839,4.56869h-.00107a19.68807,19.68807,0,0,0-1.0808,1.68409h-.00117a19.7119,19.7119,0,0,0-1.0808-1.68409h-.00117A15.62231,15.62231,0,0,0,494.17857,741.01937Zm40.74228-36.79014c-9.15036,4.99079-19.3624,9.52806-23.72658,6.97793-4.3636-2.54837-5.58568-13.76325-5.889-24.27522,9.68778-1.37186,19.01582-6.5693,28.27419-14.946C531.03613,684.2858,531.25137,695.05555,534.92085,704.22923ZM522.22864,730.541c0-5.09675,8.99-11.77474,17.83755-17.2971,6.01821,7.80143,15.13072,13.37433,26.932,17.2971-10.625,3.5317-19.04763,8.41769-25.01813,15.0471H541.979c-.66027.73335-1.3139,1.471-1.91279,2.24844-1.17174-.731-2.34377-1.48309-3.49921-2.24844h-.00176C528.996,740.57366,522.22864,734.96252,522.22864,730.541ZM500.16,669.92716h-.00117c-12.17752,0-25.86847-11.275-43.50033-36.50835,14.09968,8.32578,28.68038,12.55395,43.50033,12.55395V645.736l.00117.00039v.23632c14.82,0,29.40066-4.22817,43.5-12.55395C526.02847,658.65218,512.33752,669.92716,500.16,669.92716Zm0-41.33815h-.00117c-16.78836,0-33.63634-7.248-49.64119-21.00033,15.2118-12.85349,32.42625-19.28053,49.64119-19.28053H500.16c17.21484,0,34.4293,6.427,49.6411,19.28053C533.79624,621.341,516.94836,628.589,500.16,628.589Zm-51.893,71.64544c-4.75105,8.32442-15.8786,14.01264-34.97385,17.45965l-3.67484-7.69a81.62815,81.62815,0,0,0,18.14158-21.74675c7.41027-12.98326,11.081-27.87151,11.00246-44.38726C451.54848,671.93363,454.35639,689.56637,448.267,700.23445Zm-35.38862-20.66878a62.81293,62.81293,0,0,1-11.06735,14.10007l-19.16491-40.106c8.59049-12.25382,21.15352-21.96863,37.068-28.01475C423.49275,646.455,421.27573,664.85032,412.87842,679.56567ZM448.267,760.8463c3.95809,6.93422,4.13,16.837.273,30.6084l-21.38154-44.745C437.97188,750.12982,444.81009,754.78906,448.267,760.8463Zm23.21559,78.61985a65.35823,65.35823,0,0,1,28.67619-6.97422H500.16c10.32649,0,20.67454,2.75347,30.83593,8.06488l-14.502,30.34827a69.91551,69.91551,0,0,1-16.334,1.94928h-.00117a69.659,69.659,0,0,1-13.34418-1.30336ZM538.516,824.82008a82.99147,82.99147,0,0,0-38.356-9.71188h-.00117a82.31217,82.31217,0,0,0-36.18969,8.6345l-1.76927-3.70245c15.00641-19.872,27.09-28.88665,37.959-28.88665H500.16c11.26152,0,23.82434,9.66856,39.594,31.07557Zm13.53571-63.97378c3.77875-6.62121,11.59365-11.57316,24.231-15.06l-23.47816,49.13216C547.9087,779.31875,547.76888,768.34956,552.05168,760.8463Zm0-60.61185c-6.08934-10.66809-3.28133-28.30083,9.50464-56.36436-.07845,16.51574,3.59219,31.404,11.00246,44.38726A82.13637,82.13637,0,0,0,592.63833,711.559l-3.14278,6.57691C568.85926,714.74179,557.00685,708.91676,552.05168,700.23445Zm35.38862-20.66878c-8.41984-14.7538-10.62437-33.20634-6.80513-54.18344,16.9474,6.3404,30.12532,16.82251,38.80324,30.093L600.36629,695.3869A63.45265,63.45265,0,0,1,587.44031,679.56567Zm-25.24362-84.12c-18.67315-16.27513-40.355-24.4128-62.03669-24.4128h-.00117c-21.682,0-43.36364,8.13766-62.03708,24.4128a209.0467,209.0467,0,0,1-25.74621-36.11631,209.09452,209.09452,0,0,1,25.70386-36.07026c18.683,16.29992,40.37619,24.475,62.07942,24.475H500.16c21.70284,0,43.39613-8.17513,62.07942-24.475a209.09958,209.09958,0,0,1,25.70377,36.07026A209.05254,209.05254,0,0,1,562.19669,595.44571ZM355.58547,230.14126a202.07671,202.07671,0,0,1,41.90348-4.5082A210.32306,210.32306,0,0,1,415.505,266.168c-46.11789,16.64473-70.514,59.7901-61.3008,108.58467a201.29662,201.29662,0,0,1-42.47164,4.63894,209.80163,209.80163,0,0,1-18.1245-40.89088C339.97217,322.05993,364.6127,278.96491,355.58547,230.14126ZM500.15883,205.312H500.16c21.70284,0,43.39613-8.17572,62.07942-24.47524a209.13352,209.13352,0,0,1,25.70377,36.06987,209.03382,209.03382,0,0,1-25.7465,36.1167c-18.67315-16.27513-40.355-24.4128-62.03669-24.4128h-.00117c-21.682,0-43.36364,8.13766-62.03708,24.4128a209.028,209.028,0,0,1-25.74621-36.1167,209.12846,209.12846,0,0,1,25.70386-36.06987C456.76241,197.13632,478.45559,205.312,500.15883,205.312Zm-49.6892-36.62368c16.0192-13.77828,32.88386-21.0415,49.6892-21.0415H500.16c16.80524,0,33.67,7.26323,49.68881,21.0415-15.22341,12.881-32.4564,19.32132-49.68881,19.32132h-.00117C482.92632,188.00967,465.69333,181.56936,450.46963,168.68835ZM706.75736,338.34794a209.62842,209.62842,0,0,1-18.17144,41.04426,201.916,201.916,0,0,1-42.00681-4.532c9.299-48.99205-15.2842-92.3031-61.719-108.84538a210.61767,210.61767,0,0,1,17.96917-40.38117,201.47205,201.47205,0,0,1,42.36889,4.61494C636.25517,278.87553,660.70953,321.8041,706.75736,338.34794Zm99.99827-74.868a40.894,40.894,0,0,0-10.35449-2.96422c.30364-10.51217,1.52592-21.72685,5.88922-24.27483,3.1541-1.842,9.36043.02166,16.01169,3.076ZM805.58087,225.273h-.09328a16.00483,16.00483,0,0,0-8.25143,2.11223,16.28089,16.28089,0,0,0-5.98036,6.25375,16.28207,16.28207,0,0,0-5.98026-6.25375,15.99172,15.99172,0,0,0-8.25163-2.11223h-.0926a15.98422,15.98422,0,0,0,0-16.73255h.0926a16.00872,16.00872,0,0,0,8.25163-2.11184,16.281,16.281,0,0,0,5.98026-6.25434,16.27983,16.27983,0,0,0,5.98036,6.25434,15.98629,15.98629,0,0,0,8.25143,2.11184h.09328a15.98366,15.98366,0,0,0,0,16.73255ZM756.49476,243.219c9.151-4.98981,19.36415-9.52669,23.727-6.97812,4.36311,2.548,5.58509,13.76267,5.88883,24.27483-9.68749,1.37186-19.01553,6.5693-28.2739,14.946C760.37967,263.16222,760.16472,252.39207,756.49476,243.219Zm1.3419-84.867c9.25837,8.3771,18.58641,13.57435,28.2739,14.9464-.30374,10.51178-1.52573,21.72607-5.88883,24.27464-4.36662,2.54759-14.57651-1.9889-23.727-6.97871C760.16472,181.42144,760.37967,170.65129,757.83666,158.352Zm44.45371,39.221c-4.3633-2.54857-5.58558-13.76286-5.88922-24.27464,9.68759-1.37205,19.016-6.5693,28.27429-14.9464-2.5432,12.29968-2.32825,23.06982,1.34132,32.24311C816.86639,195.58571,806.65464,200.12318,802.29037,197.573ZM791.2558,156.29286c-12.17762,0-25.86817-11.27537-43.5-36.50835,14.09958,8.32637,28.68009,12.55395,43.5,12.55395s29.40095-4.22758,43.50063-12.55395C817.124,145.01749,803.43332,156.29286,791.2558,156.29286Zm-39.906,43.31709c8.84759,5.52216,17.83725,12.2,17.83725,17.29671,0,5.09714-8.98966,11.77494-17.83725,17.2969-6.01812-7.80085-15.1312-13.37433-26.93229-17.2969C736.21861,212.98408,745.33169,207.411,751.34981,199.60995ZM739.364,186.60054c-6.08876,10.66848-22.587,17.02468-53.00634,19.85464,14.17812-8.189,25.08965-18.84888,32.49933-31.83214,7.41-12.98287,11.08091-27.87171,11.00237-44.38726C742.64574,158.3001,745.45336,175.93187,739.364,186.60054Zm0,60.61263c6.08934,10.66887,3.28172,28.30044-9.50464,56.36475.07855-16.51594-3.59239-31.40439-11.00237-44.38726-7.40968-12.98326-18.32121-23.64315-32.49933-31.83233C716.777,230.18829,733.27526,236.5443,739.364,247.21317ZM703.9754,267.88234c8.32725,14.59163,10.58154,32.79927,6.9349,53.49186-36.6633-13.88248-55.62594-47.18366-49.10953-86.2599C681.26269,242.26765,695.669,253.32876,703.9754,267.88234ZM605.05812,377.66675c-30.4196-2.83-46.91768-9.18578-53.00644-19.85425-6.08934-10.66887-3.28133-28.30083,9.50464-56.36475-.07845,16.51535,3.59219,31.40439,11.00246,44.38726C579.96876,358.81787,590.8799,369.47815,605.05812,377.66675Zm-24.42294-94.70667c37.109,13.88287,56.21664,47.57941,49.33911,87.07775-19.642-7.14907-34.17678-18.25252-42.534-32.8945C579.02046,322.38972,576.81593,303.93738,580.63518,282.96007ZM533.57943,446.67248c-9.25837-8.3771-18.58641-13.57416-28.27419-14.94621.30335-10.51217,1.52543-21.72646,5.889-24.27483,4.36584-2.54974,14.57563,1.98812,23.72658,6.97871C531.25137,423.60286,531.03613,434.37339,533.57943,446.67248Zm-19.095-50.1875h-.09269a16.00167,16.00167,0,0,0-8.25153,2.112,15.63037,15.63037,0,0,0-4.89839,4.5683h-.00107a19.70258,19.70258,0,0,0-1.0808,1.68487h-.00117a19.72643,19.72643,0,0,0-1.0808-1.68487h-.00117a15.63,15.63,0,0,0-4.89829-4.5683,15.99081,15.99081,0,0,0-8.25153-2.112h-.09269a15.98353,15.98353,0,0,0,0-16.73216h.09269a16.00307,16.00307,0,0,0,8.25153-2.11262,16.27647,16.27647,0,0,0,5.98026-6.25395H500.16a16.27647,16.27647,0,0,0,5.98026,6.25395,15.99452,15.99452,0,0,0,8.25153,2.11262h.09269a15.983,15.983,0,0,0,0,16.73216Zm-49.0866,17.94439c9.15094-4.98942,19.36357-9.52689,23.72667-6.97793,4.3636,2.54837,5.58558,13.76267,5.88893,24.27483-9.68769,1.37205-19.01572,6.5691-28.27409,14.94621C469.28269,434.37261,469.06745,423.60286,465.39788,414.42937Zm1.34151-84.86561c9.25837,8.37691,18.58641,13.57435,28.27409,14.946-.30335,10.51217-1.52534,21.727-5.88893,24.27483-4.36711,2.5474-14.57661-1.9887-23.72667-6.97793C469.06745,352.633,469.28269,341.86344,466.73939,329.56377Zm44.45488,39.22084c-4.3636-2.54779-5.58568-13.76267-5.889-24.27483,9.68778-1.37166,19.01582-6.5691,28.27419-14.946-2.5433,12.29968-2.32806,23.06982,1.34141,32.24292C525.77049,366.79766,515.55845,371.33513,511.19427,368.78461ZM500.16,327.50481h-.00117c-12.17752,0-25.86847-11.275-43.50033-36.50835,14.09968,8.32578,28.68038,12.55375,43.50033,12.55375H500.16c14.82,0,29.40066-4.228,43.5-12.55375C526.02847,316.22983,512.33752,327.50481,500.16,327.50481Zm-39.90736,43.3167c8.8475,5.52275,17.83745,12.20015,17.83745,17.29749,0,4.42155-6.76786,10.03231-14.33658,15.04632h-.002c-1.15515.76574-2.32728,1.51763-3.49892,2.24883-.599-.77706-1.25262-1.5147-1.91279-2.24883h-.00117c-5.9704-6.62882-14.39317-11.51462-25.01813-15.04632C445.12134,384.19565,454.23443,378.62314,460.25264,370.82152Zm39.90619,77.91012H500.16c12.17752,0,25.86847,11.27479,43.5,36.50777-14.09938-8.326-28.68009-12.55395-43.5-12.55395h-.00117c-14.82,0-29.40066,4.228-43.50033,12.55395C474.29036,460.00642,487.98131,448.73163,500.15883,448.73163Zm41.82122-45.56631H541.979c-.66027.73413-1.3139,1.47177-1.91279,2.24883-1.17174-.7312-2.34377-1.48309-3.49921-2.24883h-.00176c-7.56921-5.014-14.33658-10.62476-14.33658-15.04632,0-5.09733,8.99-11.77474,17.83755-17.29749,6.01821,7.80163,15.13072,13.37414,26.932,17.29749C556.37322,391.6507,547.95055,396.5365,541.98005,403.16532ZM500.16,286.16647h-.00117c-16.78836,0-33.63634-7.24781-49.64119-20.99974,15.2118-12.85388,32.42625-19.28053,49.64119-19.28053H500.16c17.21484,0,34.4293,6.42665,49.6411,19.28053C533.79624,278.91866,516.94836,286.16647,500.16,286.16647Zm-51.893,71.646c-6.08876,10.66848-22.58733,17.02429-53.00693,19.85425,14.17871-8.1886,25.08985-18.84888,32.49982-31.83175,7.41027-12.98287,11.081-27.8719,11.00246-44.38726C451.54848,329.51166,454.35639,347.14363,448.267,357.81249Zm-35.38862-20.66917c-8.29329,14.53-22.66441,25.579-42.078,32.73331-6.7702-39.26943,12.1499-72.78683,48.9138-86.75362C423.49275,304.033,421.27573,322.428,412.87842,337.14332ZM370.7037,406.32508c19.462,7.15356,33.86807,18.21408,42.17473,32.76766,8.32715,14.592,10.58154,32.79966,6.93461,53.49264C383.14973,478.7025,364.18728,445.40132,370.7037,406.32508Zm31.72393-3.15976H402.426c-2.29859-1.59881-4.66216-3.149-7.16585-4.59523a171.87411,171.87411,0,0,1,28.07271,4.5964h.00341c13.05722,3.49638,21.08161,8.51292,24.9308,15.25746,6.08934,10.66848,3.28143,28.30024-9.50464,56.36436.07855-16.51574-3.59219-31.404-11.00246-44.38706A83.64646,83.64646,0,0,0,402.42763,403.16532Zm97.7312,86.90348v-.19358H500.16v.19358c16.80524,0,33.67,7.26362,49.68881,21.04189C534.6254,523.99171,517.39241,530.432,500.16,530.432h-.00117c-17.23251,0-34.4655-6.44031-49.6892-19.32132C466.48883,497.33242,483.35349,490.06881,500.15883,490.06881ZM552.05168,418.424c3.8492-6.74454,11.87358-11.76108,24.93032-15.25746h.004a171.86223,171.86223,0,0,1,28.07212-4.5964c-2.5031,1.44621-4.86707,2.99642-7.16527,4.59523h-.00176a83.64646,83.64646,0,0,0-25.33231,27.23593c-7.41027,12.98307-11.08091,27.87132-11.00246,44.38706C548.77035,446.7242,545.96234,429.09243,552.05168,418.424Zm35.38862,20.66878c8.37076-14.666,22.94-25.78153,42.63087-32.92845,6.62189,39.30437-12.527,72.78488-49.53484,86.58384C576.84862,471.9884,579.09111,453.72261,587.44031,439.09273Zm-298.00124-117.555c-3.68742-20.75972-1.44494-39.02551,6.904-53.65539,8.37076-14.66579,22.94025-25.78153,42.631-32.929C345.59629,274.25805,326.4466,307.73837,289.43907,321.53773Zm-7.97726-62.34706c-7.41027,12.98287-11.081,27.87132-11.00276,44.38726-12.78607-28.06432-15.59369-45.69589-9.50435-56.36475,6.08876-10.66887,22.587-17.02487,53.00644-19.85484C299.78292,235.54751,288.8715,246.2074,281.46181,259.19066Zm-20.5071-72.59013c-6.08934-10.66867-3.28172-28.30044,9.50435-56.36475-.07825,16.51555,3.59249,31.40439,11.00276,44.38726,7.40968,12.98326,18.32111,23.64315,32.49933,31.83214C283.54175,203.62521,267.04347,197.269,260.95471,186.60054Zm14.9465,30.30612c-11.801,3.92257-20.91437,9.49606-26.93249,17.2969-8.8474-5.522-17.83706-12.19976-17.83706-17.2969,0-5.09675,8.98966-11.77455,17.83706-17.29671C254.98684,207.411,264.10022,212.98408,275.90121,216.90666Zm-33.419,58.555c-9.25837-8.37671-18.58651-13.57416-28.27419-14.946.30364-10.51217,1.52563-21.72685,5.88913-24.27483,4.36613-2.54974,14.57583,1.98831,23.72687,6.97812C240.154,252.39207,239.93906,263.16222,242.48217,275.4617Zm-58.2515-37.12227c5.78931-2.44612,10.999-3.73367,13.79769-2.09857,4.3633,2.548,5.58529,13.76267,5.889,24.27483a39.92358,39.92358,0,0,0-8.094,2.08335Zm18.85171-10.95417a15.99276,15.99276,0,0,0-8.25124-2.11223h-.09328a15.9831,15.9831,0,0,0,0-16.73255h.09328a16.00878,16.00878,0,0,0,8.25124-2.11184,16.28312,16.28312,0,0,0,5.98055-6.25434,16.27914,16.27914,0,0,0,5.97977,6.25434,15.988,15.988,0,0,0,8.25163,2.11184h.09308a15.98422,15.98422,0,0,0,0,16.73255h-.09308a16.00578,16.00578,0,0,0-8.25163,2.11223,16.28021,16.28021,0,0,0-5.97977,6.25375A16.28418,16.28418,0,0,0,203.08238,227.38526ZM175.6433,158.352c9.25827,8.3771,18.5867,13.57435,28.27409,14.9464-.30374,10.51178-1.52573,21.72607-5.889,24.27464-4.36672,2.54759-14.576-1.9889-23.72638-6.97871C177.97155,181.42144,178.1865,170.65129,175.6433,158.352ZM243.824,190.59512c-9.15046,4.99059-19.3624,9.52806-23.72687,6.97793-4.3635-2.54857-5.58548-13.76286-5.88913-24.27464,9.68769-1.37205,19.01582-6.5693,28.27419-14.9464C239.93906,170.65168,240.154,181.42183,243.824,190.59512Zm-34.761-34.30226c-12.17752,0-25.86876-11.27537-43.50063-36.50835,14.09968,8.32637,28.68038,12.55395,43.50063,12.55395,14.81976,0,29.40046-4.22758,43.50014-12.55395C234.9311,145.01749,221.24054,156.29286,209.06293,156.29286Zm-39.90619,43.31709c8.8475,5.52216,17.837,12.2,17.837,17.29671,0,3.11448-3.36319,6.81869-7.99248,10.48933l-12.043-25.20215C167.72751,201.35843,168.468,200.50273,169.15674,199.60995Zm-10.81669-15.45143L144.5406,155.28084a94.83884,94.83884,0,0,0,3.12541-25.04506C159.526,156.26632,162.78659,173.31012,158.34005,184.15852Zm50.72287,93.36233c12.17761,0,25.86817,11.275,43.50014,36.508-12.37432-7.30694-25.11922-11.45549-38.071-12.36193l-11.13916-23.31082A21.42541,21.42541,0,0,1,209.06293,277.52085Zm49.68891,62.37946a85.81385,85.81385,0,0,1-19.90694,12.72919l-15.27366-31.96289C235.50873,323.60078,247.34513,330.0889,258.75183,339.9003Zm12.39032,12.14786A209.13706,209.13706,0,0,1,296.84622,388.119q-4.57381,7.9513-9.36794,15.04632h-.00107a191.19686,191.19686,0,0,1-15.1111,19.61345l-26.06664-54.54914A103.39019,103.39019,0,0,0,271.14216,352.04816ZM288.9799,457.54605c.17124-1.11876.35175-2.24161.55821-3.37539,37.10881,13.88248,56.21674,47.57941,49.3395,87.07794a107.1992,107.1992,0,0,1-12.50877-5.45952Zm4.783-20.32045A202.74077,202.74077,0,0,1,308.274,403.16649h.00059c1.11075-2.09545,2.25771-4.201,3.45794-6.32108a201.454,201.454,0,0,1,42.36821,4.61514c-.10479.5704-.182,1.13651-.278,1.70477h-.0002c-8.06429,47.92052,16.33065,90.04392,61.83754,106.39321A209.6283,209.6283,0,0,1,397.48895,550.603a201.9703,201.9703,0,0,1-42.00681-4.532C364.78052,497.07874,340.19765,453.7675,293.76286,437.2256Zm290.94242,72.48611c45.7877-16.23689,70.36462-58.47289,62.275-106.5464-.10167-.60455-.1847-1.20559-.2972-1.81229a202.07821,202.07821,0,0,1,41.90289-4.508c1.20052,2.12043,2.34747,4.226,3.45823,6.32147h.00059A202.53782,202.53782,0,0,1,706.602,437.37821c-46.11769,16.64493-70.5138,59.79069-61.30031,108.58486a201.2553,201.2553,0,0,1-42.47242,4.63914A209.80988,209.80988,0,0,1,584.70528,509.71172ZM741.56689,339.9003c12.36085-10.63218,25.22586-17.36618,38.178-19.89562l-16.05023,33.588A84.92163,84.92163,0,0,1,741.56689,339.9003Zm6.18887-25.87149c17.63187-25.233,31.32243-36.508,43.5-36.508a22.49193,22.49193,0,0,1,8.02663,1.598l-10.70594,22.40419C774.67849,302.00195,761.00481,306.20533,747.75576,314.02881Zm75.5244-85.12944c-5.61466-4.14913-9.95532-8.452-9.95532-11.99272,0-5.09675,8.98966-11.77455,17.837-17.29671a39.714,39.714,0,0,0,4.01419,4.39521Zm19.86772-42.29884c-6.08915-10.66867-3.28182-28.30044,9.50435-56.36475a93.30356,93.30356,0,0,0,4.12386,28.567L843.34634,186.9073C843.28448,186.8031,843.20769,186.70533,843.14788,186.60054ZM645.30171,203.54091a201.28155,201.28155,0,0,1-42.47242,4.63894,209.78938,209.78938,0,0,1-18.124-40.89049c25.40305-9.0082,44.25612-26.02858,54.63979-47.60107h28.827C647.96912,141.01705,639.16046,171.01719,645.30171,203.54091ZM561.55632,132.366c-2.05037-4.50039-3.81241-8.70065-5.35268-12.67767h6.10944A100.02323,100.02323,0,0,0,561.55632,132.366Zm-122.79392,0a100.0234,100.0234,0,0,0-.75667-12.67767h6.10935C442.57472,123.66531,440.81277,127.86557,438.76241,132.366Zm-23.10231,34.7706a209.64085,209.64085,0,0,1-18.17114,41.04407,201.9703,201.9703,0,0,1-42.00681-4.532c6.18135-32.56861-2.63053-62.61031-22.86336-83.96034H361.458C371.78138,141.13843,390.47716,158.089,415.66009,167.13657ZM355.58547,572.56323a202.10452,202.10452,0,0,1,41.90348-4.50781,210.35322,210.35322,0,0,1,18.016,40.53474,97.71144,97.71144,0,0,0-41.11461,27.69276L357.114,600.12915A106.06691,106.06691,0,0,0,355.58547,572.56323ZM627.818,637.9393c-10.68955-12.95243-25.22332-23.18418-42.95784-29.50213A210.6283,210.6283,0,0,1,602.82929,568.056a201.44505,201.44505,0,0,1,42.36889,4.61533,104.98621,104.98621,0,0,0-1.1371,31.27637ZM892.60164,36.56044a19.18335,19.18335,0,1,1-19.18335,19.18335A19.18336,19.18336,0,0,1,892.60164,36.56044Zm-784.91879,0A19.18335,19.18335,0,1,1,88.49949,55.74379,19.18336,19.18336,0,0,1,107.68285,36.56044Z"/></svg>