<svg id="Слой_1" data-name="Слой 1" xmlns="http://www.w3.org/2000/svg" viewBox="0 0 1003 1030"><title>Christmas flags</title><path d="M963.00929,10.98259H39.99082A21.12177,21.12177,0,0,0,20.93314,41.21085l461.50943,965.7917a21.12153,21.12153,0,0,0,38.115,0l461.509-965.7917A21.12137,21.12137,0,0,0,963.00929,10.98259ZM651.46444,588.45524,641.58824,519.157l41.91128.8637c.04879.00059.0964.00059.1446.00127l-.60826,2.36416ZM425.89965,119.68834l45.09387,36.03689-89.78809-25.03852,6.78825-10.99837Zm22.94727,652.41074-42.323-68.57076-20.273-42.425,84.74462-23.63281-48.26612,38.57287c-.15631.12479-.27788.27544-.41995.411-.16275.15582-.33643.30247-.48122.47137a6.55072,6.55072,0,0,0-.38912.54035c-.12489.17895-.25993.35048-.36609.53928-.10869.19368-.18734.39887-.27593.60143-.08547.19563-.18207.3857-.249.58767-.06869.208-.10674.42229-.15494.63529-.04761.2088-.10616.41361-.13465.62592-.02752.21329-.0242.42795-.03278.64319-.0082.21758-.02693.43312-.01483.6511.01249.21456.05679.42492.089.63822.03337.21729.05464.43419.10928.64846.05405.21329.14089.4178.21622.62651a6.55725,6.55725,0,0,0,.23281.61675,6.76461,6.76461,0,0,0,.34677.59128c.10089.16665.17758.3417.29467.50181l28.07876,38.46993.00585.0082.06674.09172a6.80181,6.80181,0,0,0,.74311.84185c.0283.02781.0482.06108.07728.0885.02752.02615.06049.04313.0886.069a6.58712,6.58712,0,0,0,.893.69247c.04625.02976.09523.05327.14206.08206a6.56136,6.56136,0,0,0,.88263.44551c.065.02712.1286.05854.19417.08362a6.60377,6.60377,0,0,0,1.00226.28618c.0843.01737.1686.03073.25349.04439a6.56355,6.56355,0,0,0,1.05319.09767l.01132.001.00137-.00029.00527.00029a6.56417,6.56417,0,0,0,1.20481-.12372c.11767-.022.23144-.05591.34853-.08459a6.47591,6.47591,0,0,0,.83443-.264c.13114-.05123.26052-.10421.38912-.16431a6.59108,6.59108,0,0,0,.781-.44132c.105-.06762.2129-.1244.31457-.19895.02693-.01922.056-.032.08235-.05191a6.61037,6.61037,0,0,0,.55265-.51059c.11826-.112.25134-.19924.36277-.32179l.0804-.08811.00059-.00039,34.37446-37.63726v43.32022Zm45.47733-23.73419v25.307l-38.5718,10.30756ZM372.34691,632.0069l62.557-109.23537,22.76676,41.995-84.96415,67.99275ZM187.0343,244.20655l26.22919-8.51517,36.9406,21.66108-49.26818,11.41363-.03161.00751-.09757.02254c-.18792.04352-.35458.12421-.53469.18265a6.42644,6.42644,0,0,0-.633.20549c-.01717.00751-.03083.01922-.04761.02712a4.306,4.306,0,0,0-.47849.27164Zm-5.866-12.27567-7.44081-15.57115L176.1178,213.91l21.58049,12.65435ZM426.41854,275.3994l-47.19244-.97289L363.46517,163.8307ZM371.24513,159.26825l86.42421,69.16107-22.76657,41.9949ZM435.02376,308.003a15.59189,15.59189,0,0,0,10.11076.56513L485.181,379.53968,360.56417,306.468Zm43.50892,83.23479-80.54611.263a16.16488,16.16488,0,0,0-5.51923-8.585l-38.55521-64.7521ZM253.79082,383.9063l82.13341-33.30488,24.42646,41.0225-102.71164.33555Zm64.655-110.7328c-.049-.00068-.09718-.00068-.14538-.00137l26.98713-104.87734,15.06934,105.7427Zm-7.87617-23.38069-8.75685-61.73763c-.02771-.19534-.09464-.37341-.13777-.56221-.0521-.22646-.09133-.45732-.1647-.67354a6.58,6.58,0,0,0-.26305-.60582c-.09133-.20139-.17114-.40814-.27984-.59763-.11065-.19261-.24705-.36355-.37507-.5426-.12333-.17348-.23807-.35379-.377-.51381-.14128-.16353-.30481-.30267-.46112-.45117-.15514-.14763-.30228-.30315-.47088-.43507-.16275-.12743-.34228-.22832-.516-.34a6.55829,6.55829,0,0,0-.5667-.35018c-.17758-.09055-.368-.15231-.55323-.22646a6.43937,6.43937,0,0,0-.64514-.24217c-.19495-.05493-.39887-.078-.59967-.11465a6.40811,6.40811,0,0,0-.683-.11045,6.58561,6.58561,0,0,0-.66193.01015c-.19553.00537-.38716-.01454-.58543.009l-46.84314,5.462-.009.00117-.1126.01307c-.20588.024-.39575.08947-.59441.13162-.20334.04313-.4059.06108-.60787.1245-.01737.00537-.0322.01532-.049.02088a6.50055,6.50055,0,0,0-.79189.33974c-.14128.06732-.29506.1164-.4301.1927a6.51918,6.51918,0,0,0-.60416.41995c-.15494.11221-.32355.2089-.46756.3334-.1526.13192-.27866.28969-.41819.43478a6.606,6.606,0,0,0-.47205.49713c-.1327.1686-.233.35955-.34931.54016-.11592.17982-.24647.3494-.345.53938-.10538.20392-.17485.4261-.25993.641-.07376.18763-.16509.36716-.22246.56133-.05464.18675-.07454.38472-.114.57714a6.66486,6.66486,0,0,0-.13367.72154c-.01483.15943.00254.32472-.00137.48678a6.7276,6.7276,0,0,0,.01229.864c.002.01864-.002.0361.00059.05454a6.77193,6.77193,0,0,0,.231,1.11339c.01015.03561.01015.07142.02108.107l.00332.01015.009.02956,14.929,49.12914-36.93982-21.6605-13.0662-60.996L334.11271,158.3Zm-10.423,21.24816-26.35759-15.45543-16.8067-55.30932,32.58754-3.79992Zm-88.57293,9.11465,55.566-12.87291,26.3572,15.45553-68.86933,27.9804Zm92.82159,17.48014c.02517.04342.04391.0885.06947.13162l21.6925,36.43088-80.518,32.64959-3.31743-6.94173Zm-42.31562,103.6171,98.271.31994-24.42587,41.0225-67.08846-27.20315Zm130.38762,9.0282a16.16734,16.16734,0,0,0,5.51923-8.58542l80.54553.26227L353.91271,475.03249Zm92.71368,3.37471-40.04767,70.97541a15.66221,15.66221,0,0,0-10.08148.56221l-74.4877,1.53529ZM466.77433,581.55771l20.21878,37.29459c.0242.04508.05581.083.081.12772L384.14078,647.685Zm27.54953,85.36781-38.75855,42.438-19.53363-26.76261,58.29218-46.58525Zm-35.936-168.04917a16.20629,16.20629,0,0,0-4.56459-9.1407L494.32191,419.017l.00117,146.14436Zm35.934-124.69822-40.493-70.70651a16.245,16.245,0,0,0,4.55835-9.15221l35.93463-66.28534Zm-7.33075-199.835L466.773,211.63774,384.14136,145.512l102.92825,28.70273C487.04444,174.25905,487.01556,174.29857,486.99116,174.34316ZM286.08428,119.68834l53.45049,17.54015-1.911,7.42627-139.20633,5.1389c-.20061.00732-.38775.05649-.58328.08137-.1969.02478-.39165.0243-.58914.06762-.02712.00585-.05035.019-.07669.02547-.13894.032-.26754.08372-.40219.1246l8.16674-30.40437Zm-81.73766,95.17785-21.5799-12.65367L193.26425,163.13Zm-33.48949-19.63725-10.04031-5.88747-12.47316-26.10215,37.3705-23.3237Zm54.72653,129.64939,55.00812-22.34848-44.40209,44.543Zm55.3223,115.7716,45.25135,18.34882L305.91745,492.991Zm37.92529,79.3655,41.52646-.85619-9.633,67.59885Zm60.39563-1.24521,47.19225-.97279L367.59166,622.05548,365.217,617.086Zm72.88128,280.15139L494.325,787.64048v44.60338l-35.66319-19.60779Zm42.21375-672.65167v30.91028L447.407,119.68834h40.904Zm302.68652-6.58159,8.166,30.40047c-.135-.04069-.26364-.0925-.40258-.1246-.02634-.00644-.04957-.01961-.07669-.02556-.20646-.04557-.41019-.04586-.61607-.07113-.186-.02312-.36472-.07074-.556-.07776l-139.20673-5.13763-1.911-7.42754,53.43839-17.53625ZM630.00259,633.36783,544.275,564.76614l22.767-41.99558,63.13271,110.23724ZM617.80712,647.684,514.87361,618.98c.02459-.04469.0562-.08264.08059-.12772l20.218-37.29488Zm-50.9146-162.49228a15.66275,15.66275,0,0,0-10.0807-.56094L516.763,413.65548l124.61763,73.07086Zm193.4009-291.33593a6.85527,6.85527,0,0,0-.13465-.72359c-.039-.19173-.05893-.38941-.11377-.57528-.05718-.19348-.14792-.37272-.22188-.55957a6.87586,6.87586,0,0,0-.26052-.643c-.09718-.18773-.22656-.35516-.34033-.53294-.11767-.18295-.21993-.376-.35379-.5466-.13894-.17631-.30813-.327-.46444-.48932-.14206-.14782-.27086-.30833-.4258-.44258-.14206-.12255-.30813-.21758-.46132-.32833a6.54772,6.54772,0,0,0-.61041-.42453c-.13445-.07562-.28628-.1246-.42717-.19124a6.42641,6.42641,0,0,0-.795-.341c-.01678-.00556-.031-.01551-.0482-.02088-.20529-.0644-.41175-.08333-.61821-.12675-.19631-.04118-.38209-.10587-.58465-.12938l-.10752-.01259-.01737-.00215L707.469,182.30461c-.18461-.02088-.36219-.001-.54406-.00654a6.65074,6.65074,0,0,0-.72125-.00849c-.18324.01434-.35828.05747-.53781.08684a6.66911,6.66911,0,0,0-.75384.14538c-.16275.04674-.31438.11865-.47205.17758a6.605,6.605,0,0,0-.72515.29642c-.1485.07679-.283.17573-.4258.26335a6.66054,6.66054,0,0,0-.64827.42678c-.13777.1083-.25681.237-.38541.35584a6.71119,6.71119,0,0,0-.5384.52591c-.12548.1448-.22715.30813-.34033.46356a6.73515,6.73515,0,0,0-.4059.5865c-.10538.18343-.18207.384-.27086.5787a6.6946,6.6946,0,0,0-.26949.62056,6.82623,6.82623,0,0,0-.16333.66749c-.04371.19046-.11065.3698-.13894.56679l-8.75627,61.73861L667.828,158.29741l127.26514,4.69671-13.06483,60.99609L745.089,245.65139l14.92884-49.132.00781-.026.0039-.01161c.0121-.04049.0121-.08137.02381-.12187a6.79729,6.79729,0,0,0,.22832-1.09856c.002-.01844-.00117-.03591.00078-.05444a6.72516,6.72516,0,0,0,.01151-.86614C760.29069,194.17946,760.30826,194.01485,760.29342,193.85581Zm-15.33435,6.4165-16.8069,55.3103L701.79537,271.038l10.57539-74.56566ZM683.64159,273.1696c-.0484.00059-.09718.00059-.14538.00127l-41.90875.86439L656.65564,168.3025ZM648.0307,318.162,609.478,382.91176a16.16894,16.16894,0,0,0-5.52118,8.58737l-80.54494-.26159ZM666.019,350.59878l83.02014,33.66346-3.67806,7.69693-103.767-.3375ZM516.76376,379.539l40.04571-70.97083a15.58625,15.58625,0,0,0,10.11271-.5667l74.45647-1.53568ZM622.7179,274.42456l-47.19186.97318,62.95259-111.567Zm-55.67785-4.00229-22.76676-41.99461L630.695,159.26728Zm-31.86961-58.78619-20.21761-37.29293c-.02439-.04459-.05347-.0843-.07845-.1284l102.92044-28.70038Zm8.38491,82.6801a16.23778,16.23778,0,0,0,4.55815,9.155l-40.49142,70.70651V228.03406ZM523.4119,401.95763l80.54553-.26364a16.16652,16.16652,0,0,0,5.51923,8.5861l38.55658,64.75074Zm118.18278-.38677,99.32864-.32491-6.50393,13.61045-68.399,27.73628Zm34.19122-67.37551,21.69172-36.43059c.02576-.04313.04449-.0885.06947-.13192l62.78965,62.98674-3.1461,6.58423Zm59.01636-66.91556,55.566,12.87057L777.315,310.71475l-68.87011-27.97914Zm68.70561,2.59209c-.13328-.09572-.28764-.16558-.42853-.25222a6.43694,6.43694,0,0,0-.72827-.41322c-.01717-.00781-.03083-.0199-.048-.02742a6.46436,6.46436,0,0,0-.63773-.20714c-.178-.05747-.344-.13777-.53-.1809l-.09718-.02254-.03278-.00751L751.738,257.34924l36.94177-21.66245,27.14578,8.81276L803.64428,269.991C803.598,269.95227,803.557,269.90739,803.50787,269.87187Zm.73647-43.31212,21.5799-12.65425,3.1018,3.17878-7.23454,15.1396Zm26.84-31.33521-14.85781-55.31284,38.18815,23.83312-11.8165,24.72805ZM819.174,202.20823l-21.57912,12.65406,11.08159-51.73615ZM620.73915,130.68671l-89.78926,25.03852,45.09446-36.03689H613.9509Zm-66.20251-10.99837-46.91456,37.49188V126.26994l6.011-6.58159Zm-6.41416,370.0473a16.20913,16.20913,0,0,0-4.56459,9.13943l-35.93444,66.286L507.62209,419.017Zm17.79432,192.864-19.53363,26.76291-38.75914-42.437-.00059-30.91028Zm-23.91869,41.82347.002.00224.07962.08723c.11065.12089.242.20714.35906.31818a6.59085,6.59085,0,0,0,.55635.5142c.02634.0199.056.03259.08294.0522.10108.07415.20919.13075.3134.19836a6.60241,6.60241,0,0,0,.78213.44161c.128.0604.2572.1127.38853.16431a6.5171,6.5171,0,0,0,.83424.26393c.11709.02878.231.06274.34872.08459a6.55409,6.55409,0,0,0,1.20481.12382l.00449-.00029.00273.00029.01093-.001a6.59725,6.59725,0,0,0,1.05416-.09767c.0843-.01405.16743-.02712.251-.0441a6.5959,6.5959,0,0,0,1.00616-.28774c.06284-.0242.12411-.05425.18656-.0804a6.60551,6.60551,0,0,0,.89415-.45117c.0443-.027.09-.04927.13367-.07737a6.57224,6.57224,0,0,0,.89473-.69315c.02849-.02586.06127-.04283.08938-.06928.02908-.02742.0484-.06147.07728-.08918a6.7368,6.7368,0,0,0,.74232-.84116l.06752-.09211.00527-.00751,28.079-38.47032c.11631-.16.19358-.33516.29447-.50171a6.814,6.814,0,0,0,.34677-.59128c.09582-.20119.15826-.41058.233-.618.07513-.20812.162-.41224.216-.62495.05405-.21466.07591-.43156.10869-.64875.03278-.21329.07728-.42434.08938-.63861.01229-.21788-.007-.43351-.01483-.6507-.0082-.21534-.00507-.42961-.03278-.6429-.0283-.21329-.08742-.41946-.135-.62914-.04879-.212-.08625-.425-.15436-.63178-.06771-.20353-.1647-.39526-.251-.592-.08879-.2009-.16607-.40473-.274-.59714-.10674-.19046-.24315-.36384-.36921-.54455-.12626-.18061-.24061-.3658-.38541-.53469-.14675-.17124-.32238-.31984-.48747-.47732-.14031-.13387-.26071-.28257-.41487-.406l-48.26631-38.5719,85.6735,23.89108-16.53916,34.61117-46.98442,76.12524-45.47733-41.989-.00078-43.32129Zm4.1985,59.55486-38.5718-10.30727V748.36461Zm4.57669,15.19141-6.06076,12.683-37.08734,20.39119-.00039-44.60445ZM634.92586,623.065,575.526,517.79606l47.19244.9722,14.25345,100.01457Zm40.86122-164.06913,46.56271-18.88156-25.73626,53.858Zm45.56378-156.46889,55.895,22.70773-10.77658,22.55191ZM860.25042,151.53219l-49.14056-30.6686-.31574-1.17525H875.4673ZM191.14694,119.68834l-.31672,1.17915-48.32252,30.15908-14.97528-31.33823ZM88.4995,55.74384a19.18335,19.18335,0,1,1,19.18335,19.18335A19.1833,19.1833,0,0,1,88.4995,55.74384ZM501.50006,902.28278l-32.8822-68.81167,29.19166,16.04935c.10752.05913.219.10157.32823.15416.05913.02849.11631.06274.1768.08957.03083.01366.05854.032.08938.04508.02771.01171.05659.01825.08372.02966.17309.07093.34735.12645.523.182.09269.02908.18324.064.27652.08918.08625.02322.17329.0402.25993.05952.0722.016.1448.02742.21817.04108.05913.01112.11767.02391.1768.03337.05991.00946.119.02576.17953.03366a6.49821,6.49821,0,0,0,.8477.05815l.00585-.00039.00585.00039a6.49355,6.49355,0,0,0,.8477-.05815c.06049-.0079.119-.0242.17895-.03366.05913-.00946.11845-.02225.17758-.03337.07318-.01366.146-.02508.21876-.04108.08625-.01961.1729-.0363.25915-.05952.09328-.02478.18265-.05971.27476-.0885.17621-.05552.35184-.11172.52552-.18295.02712-.01112.056-.01766.08294-.02937.03083-.01307.05932-.03171.09016-.04576.05971-.02615.11572-.05981.17426-.08791.10987-.05259.22188-.09572.33-.15514l30.61562-16.83295ZM892.60164,74.92719A19.18335,19.18335,0,1,1,911.785,55.74384,19.18336,19.18336,0,0,1,892.60164,74.92719Z"/></svg>