<svg id="Слой_1" data-name="Слой 1" xmlns="http://www.w3.org/2000/svg" viewBox="0 0 1003 1030"><title>Christmas flags</title><path d="M963.00928,10.98267H39.991A21.12161,21.12161,0,0,0,20.93323,41.21094l461.5094,965.7915a21.12134,21.12134,0,0,0,38.115,0L982.06653,41.21094A21.12129,21.12129,0,0,0,963.00928,10.98267ZM441.736,561.3772c-21.32031-8.24-45.57336-20.29-62.18005-33.97314a195.6874,195.6874,0,0,0,44.26306-6.00439,5.254,5.254,0,0,0,1.07117,1.21606l17.272,13.97778A57.216,57.216,0,0,0,441.736,561.3772Zm-77.3728-68.031c-2.85,5.70557-5.52307,11.53247-7.89587,17.42529-.0863.2146-.51526.30933-1.2019.30933-4.7301,0-21.724-4.49048-23.7417-5.23218-1.25244-.46021-2.48132-.97314-3.69934-1.50952a54.36092,54.36092,0,0,0,18.76355-64.92822H389.2135a13.774,13.774,0,0,0,6.73389,4.57617,283.12109,283.12109,0,0,0-19.0531,26.94727,13.75382,13.75382,0,1,0-12.53113,22.41187ZM199.29041,257.16895h-6.06189l-10.02588-20.981a196.11962,196.11962,0,0,1,13.66028-39.95361l17.93054,19.46875C207.63318,227.68945,202.56238,241.854,199.29041,257.16895Zm22.85474-33.48364,18.66553,20.26709c-1.21191,4.22095-2.33887,8.64355-3.38806,13.21655H209.94324A126.92336,126.92336,0,0,1,222.14514,223.6853Zm25.87476,33.48364c.343-1.42944.68823-2.85645,1.04858-4.25073l3.91467,4.25073Zm-44.09644-74.62427c.02893-.051.0564-.103.085-.15405a7.74035,7.74035,0,0,0,.72729-1.78052l85.1366,49.15259,7.77136,4.48657a189.58268,189.58268,0,0,0-41.24744,5.26855Zm140.52783-62.85645c-23.27954,15.12109-44.07373,31.88257-59.58984,47.96289l-26.90906-6.03662c9.25806-15.36328,23.73962-29.60205,40.92834-41.92627Zm-92.96094,0h30.2561c-14.3999,11.89966-26.38464,25.24072-34.368,39.554l-25.79224-5.78613A196.04767,196.04767,0,0,1,251.49036,119.68823Zm37.32507,63.677a189.538,189.538,0,0,0,16.05908,38.35327L262.597,197.3103l-50.627-29.22925a7.722,7.722,0,0,0,1.17664-1.519c.0304-.05151.06335-.1001.09363-.15137ZM461.97852,335.5835c0-13.1665,10.576-20.28833,22.23071-20.28833,13.48889,0,20.93506,8.09448,20.93506,10.252,0,2.0498-6.04334,10.79077-8.52478,10.79077-2.806,0-3.45325-8.30884-13.38135-8.30884-3.34558,0-7.87744,1.51147-7.87744,4.7478,0,11.11548,31.51,10.8999,31.51,32.80591,0,14.03-11.65393,22.01489-24.60364,22.01489-11.43945,0-22.77-6.69067-22.77-19.31567,0-5.07227,2.58972-11.54785,3.45337-11.54785.53918,0,3.23694,16.29492,18.561,16.29492,4.42419,0,9.60425-2.26636,9.60425-7.76953C491.11572,354.14429,461.97852,357.05762,461.97852,335.5835Zm3.65161,254.77905-8.62-27.58154a42.961,42.961,0,0,1-1.93506-13.54321c12.54224-9.57837,27.50867-22.32324,38.9342-37.69067v35.48682C488.25452,561.23267,476.68591,578.05225,465.63013,590.36255Zm28.37915-22.8667V674.7749a7.72394,7.72394,0,0,0-1.90466-.2605c-.05872-.00024-.11731-.00269-.17615-.00317l-23.105-73.93042A189.58065,189.58065,0,0,0,494.00928,567.49585Zm-36.52588-32.0105,28.51868-96.07446h8.0072v55.03027C485.129,510.66992,470.75208,524.61475,457.4834,535.48535ZM444.05652,257.16895c-8.91528-27.25244-22.66357-52.26489-48.16357-72.49268-.01538-.01172-.03284-.019-.04834-.03076a180.19459,180.19459,0,0,1,17.78186-40.114,267.47477,267.47477,0,0,1,47.6261,112.63745Zm-40.12781,127.0835c-.10742,1.72656-2.48193,1.72656-3.66858,1.72656h-8.63306c-.62976,0-1.20923.08325-1.73743.08325-2.8208,0-4.19812-2.37134-4.19812-32.45825,0-29.89111-.8634-36.58228,2.15833-36.68994h8.95691c.55835,0,1.1554-.06421,1.70227-.06421,1.03833,0,1.896.23169,1.96667,1.57544.21521,1.6189.43164,3.6687,2.59,3.6687,1.6189,0,3.453-1.72681,5.71912-3.45337,2.26587-1.6189,4.85584-3.34546,7.76978-3.34546,5.50391,0,10.03589,4.749,10.03589,10.5752,0,7.55444-6.15088,12.08643-9.38782,12.08643-1.29529,0,.21521-7.22974-7.23059-7.22974-9.0647,0-9.71191,14.5686-9.71191,21.04272C400.26013,373.24512,403.92871,382.3103,403.92871,384.25244Zm-4.65332-127.0835H367.5448c-9.1991-15.60815-13.95581-34.51489-16.67493-51.06689Zm-33.71753-56.60083,11.31836-4.34863q-1.45,6.78479-2.43884,13.71582Zm53.65222,56.60083-30.77637-32.46753a183.41023,183.41023,0,0,1,4.38281-28.80908c20.21973,17.24414,32.02,38.29736,39.99109,61.27661Zm21.83643,36.75879c4.31665,0,8.31006,2.80688,8.31006,7.44678,0,4.63965-3.99341,7.12183-8.31006,7.12183-4.31641,0-8.3092-2.48218-8.3092-7.12183C432.7373,296.73462,436.7301,293.92773,441.04651,293.92773ZM435.25378,316.821c.48071,0,1.00867.093,1.585.093h5.93445c4.53271,0,4.6405.32324,4.6405,1.6189,0,3.99194-1.29492,7.98535-1.29492,19.74854a225.32078,225.32078,0,0,0,4.20886,44.89233c0,2.5105-1.71179,2.85327-3.59973,2.85327-.70874,0-1.44214-.0481-2.11951-.0481h-7.338c-.56384,0-1.07251.02563-1.53125.02563-3.84387,0-4.189-1.80908-4.189-35.74463C431.55017,319.32471,432.76355,316.821,435.25378,316.821Zm-55.3501-132.8418a5.23649,5.23649,0,0,0-1.60132.32129L357.562,192.26929a57.23548,57.23548,0,0,0-21.25183-12.76147c17.79944-14.34619,40.36658-29.32715,60.52295-36.8667A195.67827,195.67827,0,0,0,379.90369,183.97925Zm-39.745,13.15308c2.02454,15.65625,5.58276,34.98218,13.18311,52.56787L322.594,231.94873c-9.41748-12.08325-18.19885-30.511-23.33166-46.2395l28.1958,6.3252A42.94747,42.94747,0,0,1,340.15869,197.13232Zm-40.03809,46.39575a111.69264,111.69264,0,0,1,15.2417.95093l21.98035,12.68994H272.65344l-9.00391-9.77588A183.72877,183.72877,0,0,1,300.12061,243.52808Zm33.34668,50.39966h11.76257c.97083,0,1.72668,1.188,1.72668,2.2666,0,1.51147-4.10144,12.08667-4.10144,20.71973,0,1.29565,0,3.34546,1.83533,3.34546.86328,0,2.59-.97095,4.96362-2.37451a19.46259,19.46259,0,0,1,9.06494-2.58984c9.82031,0,17.05054,7.01416,17.05054,33.02124,0,10.35986-1.51111,37.6626-4.85583,37.6626h-11.223c-.26477,0-.67371.02393-1.12866.02393-1.21472,0-2.7572-.17114-2.7572-1.42749,0-.75366,5.39612-22.12134,5.39612-36.47437,0-16.72607-2.806-20.072-8.09363-20.072-11.007,0-11.223,16.83423-11.223,24.49634,0,21.58276,2.37451,28.59692,2.37451,31.72705,0,1.72656-2.05066,1.72656-3.13,1.72656H330.44568c-.41553,0-.77625.0647-1.08875.0647-2.04163,0-2.04126-2.75635-2.04126-44.30908C327.31567,333.10156,327.53174,293.92773,333.46729,293.92773Zm86.77344,145.48315h26.30054c-14.915,18.93579-26.09143,40.58228-30.1189,67.783-.00305.019,0,.0376-.00281.05688a180.11818,180.11818,0,0,1-40.82349,4.67871q-1.40442,0-2.80652-.02173A264.63155,264.63155,0,0,1,420.24072,439.41089Zm15.7019,78.4939q6.59619-2.13611,13.08362-4.76489l-3.67444,12.37939Zm-8.27-13.65454c4.78613-25.92651,16.96057-46.55322,32.69531-64.83936H470.9115L454.814,493.64136A183.41186,183.41186,0,0,1,427.67261,504.25024ZM457.192,611.863l8.2262,26.32129c-36.90894-.69385-80.72583-22.884-114.55811-51.14258L341.13318,566.687a79.655,79.655,0,0,0-3.66309-11.36694C375.81091,582.085,421.00012,602.85425,457.192,611.863Zm-96.30469-3.83765c33.09253,23.68018,72.07422,40.52124,106.23755,40.52124.50964,0,1.0144-.022,1.52246-.0293l7.895,25.26367c-36.16895-3.10034-70.61646-16.09155-102.75781-38.76611ZM456.804,686.84033a212.37531,212.37531,0,0,0,24.70618,2.83545l12.49915,39.99561V756.042l-43.69885-26.6106Zm44.43921,96.68872,17.295,55.64258c-.59314-.2229-1.1897-.44019-1.79785-.63916a42.90493,42.90493,0,0,0-33.47241,2.822l.00574-.01392Zm9.31445-109.01782c-.05859.00049-.11755.00293-.17639.00317a7.72358,7.72358,0,0,0-1.90442.2605V567.49585a189.54432,189.54432,0,0,0,25.18579,33.085ZM520.976,689.67578a212.3702,212.3702,0,0,0,24.70605-2.83545l6.49316,42.58936-43.69836,26.61108V729.67139ZM508.47681,547.03369V511.54712c11.42554,15.36743,26.39221,28.1123,38.9342,37.69067A42.971,42.971,0,0,1,545.476,562.782l-8.62,27.58057C525.80017,578.05273,514.23157,561.23267,508.47681,547.03369ZM540.212,317.4541c1.40283,0,2.69775-.54,4.10059-.54,4.10022,0,4.20862,2.91309,4.20862,6.58325,0,1.50952,0,5.61084-2.26587,5.61084-.86328,0-3.02246-.97095-4.96436-.97095-5.93567,0-5.93567,6.90649-5.93567,16.5105,0,28.70483,6.04309,33.45386,6.04309,35.28809,0,1.61914-12.5177,7.66187-14.99915,7.66187-4.10144,0-5.18005-24.0647-5.18005-30.00024,0-13.27271.647-18.45264.647-20.50391,0-3.23633.97119-8.9563-3.88464-8.9563-1.94226,0-3.02173,1.29419-4.209,1.29419-1.40271,0-1.29492-1.40234-1.29492-3.344,0-8.20239,2.37439-9.17334,6.475-9.17334a16.11263,16.11263,0,0,0,2.05054.43091c3.34534,0,3.66943-5.28735,4.20862-9.064.53943-4.10132,12.62585-7.12207,14.78418-7.12207.75549,0,1.295.21558,1.295,2.26514,0,2.91479-3.23779,9.49658-3.23779,10.79224C538.05322,316.15845,538.59314,317.4541,540.212,317.4541ZM516.484,439.41089l28.51855,96.07446c-13.26855-10.87061-27.64551-24.81543-36.52576-41.04419V439.41089Zm15.09082,0h10.54333c15.7345,18.28613,27.90918,38.91284,32.69531,64.83911a183.46437,183.46437,0,0,1-27.14136-10.60864Zm249.3269-285.95142L755.109,159.24609c-7.98389-14.31494-19.96838-27.658-34.37109-39.55786h30.21582A196.12692,196.12692,0,0,1,780.90173,153.45947Zm-77.31689-33.77124c17.1958,12.32544,31.69031,26.5625,40.95142,41.93018l-26.90918,6.03687c-15.51941-16.083-36.31726-32.84619-59.605-47.967Zm85.66333,46.72632c.03027.05078.06311.09912.093.1499a7.716,7.716,0,0,0,1.177,1.519l-92.90527,53.63965a189.58122,189.58122,0,0,0,16.05945-38.353ZM679.89233,231.9541l-30.745,17.751c7.60059-17.58618,11.15747-36.91113,13.1814-52.56763a42.95257,42.95257,0,0,1,12.70166-5.0979l28.19446-6.32544C698.0918,201.44385,689.31091,219.87183,679.89233,231.9541ZM681.62756,504.353c-8.61462,2.24048-17.40381,3.88745-26.09607,5.28271q-4.81.77234-9.64746,1.28735a7.73282,7.73282,0,0,0-.50977-1.83179q-3.36-7.98413-7.25134-15.74512a13.7517,13.7517,0,1,0-12.53113-22.41187,283.12109,283.12109,0,0,0-19.0531-26.94727,13.77561,13.77561,0,0,0,6.73389-4.57617h46.40393c-.25134.677-.53,1.33667-.75635,2.02905A54.36947,54.36947,0,0,0,681.62756,504.353ZM560.324,536.59351l17.272-13.97778a5.25356,5.25356,0,0,0,1.07117-1.21582,195.65145,195.65145,0,0,0,44.2627,6.00415c-16.60632,13.68311-40.85937,25.73291-62.17944,33.97314A57.21576,57.21576,0,0,0,560.324,536.59351Zm-3.1897-11.07422-3.67444-12.37939q6.48743,2.61548,13.08337,4.76538Zm28.93225-18.2688c-.00256-.01929.00024-.0376-.00281-.05664-4.02722-27.20068-15.2041-48.84717-30.1189-67.783h26.3009a264.63749,264.63749,0,0,1,47.45081,72.49658q-1.40167.02161-2.80408.02173A180.11164,180.11164,0,0,1,586.06653,507.25049ZM644.98291,366.1228c0-7.92554,4.78027-14.7,11.085-19.11719,2.73059-1.91357,7.177-4.8728,10.61951-5.05469q.10364-.00549.20435-.00562c4.02185,0,4.57544,6.438,5.26172,9.2854-5.66357,2.87866-12.60193,4.333-12.60193,12.40991,0,6.04321,5.28748,9.60449,11.007,9.60449,6.66553,0,6.3053-5.54419,7.03613-10.9563a59.77451,59.77451,0,0,0-.47888-18.9126c-1.37366-7.366-2.3042-15.34717-11.52087-15.34717-11.007,0-9.38892,9.28125-11.76245,9.28125-3.45337,0-7.23059-4.20874-7.23059-8.8501,0-7.98511,8.95691-13.165,18.88525-13.165h.15234c3.7146,0,18.16211.10449,23.58875,15.001,2.26587,6.25854,2.4823,38.20117,2.4823,41.97778,0,4.74878.86328,7.5542.86328,11.2229,0,2.26685-10.14441,2.48218-19.74866,2.48218C646.81787,385.979,644.98291,372.59692,644.98291,366.1228Zm6.6355-160.0166c-2.71777,16.55029-7.47351,35.45361-16.67078,51.06274h-31.73Zm-26.00659-9.88159,11.31885,4.3479-8.87976,9.36816Q627.07184,203.0094,625.61182,196.22461Zm19.33606-3.94287-20.76306-7.97607a5.24657,5.24657,0,0,0-1.60083-.32129A195.63443,195.63443,0,0,0,605.6543,142.647c20.16614,7.54224,42.7467,22.53516,60.55078,36.88794A57.19178,57.19178,0,0,0,644.94788,192.28174Zm-30.89246,32.42383L583.2843,257.16895H569.684c7.97144-22.97754,19.77087-44.0293,39.98779-61.27173A183.41064,183.41064,0,0,1,614.05542,224.70557ZM573.12183,315.1875c0,1.29565-1.295,3.34546-1.295,4.85669a2.0421,2.0421,0,0,0,2.15833,1.83423c1.295,0,2.80615-1.29565,5.18005-2.48242a20.52545,20.52545,0,0,1,10.14331-2.48193c5.28833,0,8.7417,4.96436,11.43945,4.96436a12.13936,12.13936,0,0,0,6.36719-1.94214,20.32816,20.32816,0,0,1,9.9281-3.02222c19.85608,0,19.42444,26.00708,19.42444,39.82007,0,26.91309-2.74219,29.3667-5.453,29.3667-.60437,0-1.207-.12183-1.77759-.12183h-7.338c-.19592,0-.45618.00708-.75061.00708-1.32642,0-3.35059-.14429-3.35059-1.73364,0-1.94214,4.1012-13.813,4.1012-31.835,0-20.61157-7.33813-22.76953-11.43835-22.76953q-.19922,0-.39746-.00024c-3.62585,0-6.94177.302-6.94177,17.48218,0,38.74146-.53906,38.84912-3.99243,38.84912h-9.71191c-.74536,0-1.44812.05688-2.04041.05688-1.03748,0-1.73682-.17456-1.73682-1.1355,0-1.6189,4.10107-23.30957,4.10107-33.56152,0-6.47559,0-21.69092-8.84912-21.69092-8.094,0-11.1156,9.92749-11.1156,26.00757,0,21.69043,3.02161,25.7915,3.02161,28.8125,0,1.356-1.06152,1.533-2.09473,1.533-.36438,0-.7251-.022-1.03467-.022h-8.52527c-.6521,0-1.26038.10913-1.81885.10913-2.58423,0-4.11584-2.333-4.11584-28.59839,0-42.78687-1.24255-44.03369,10.87134-44.03394.7489,0,1.54688.00464,2.40137.00464C570.74817,313.46045,573.12183,313.5686,573.12183,315.1875ZM557.214,573.72168c27.60059-9.89844,62.4989-27.01367,81.25977-46.62866a196.5454,196.5454,0,0,0,46.33166-8.4104l-6.68616,13.99194c-38.3772,31.16431-88.71448,56.32178-129.18884,67.55347ZM672.594,445.915a40.27293,40.27293,0,0,1,2.80249-6.50415h10.76868a43.12076,43.12076,0,0,0,8.21411,55.47144A40.021,40.021,0,0,1,672.594,445.915Zm-7.43921-188.74609,21.97229-12.68579a111.76977,111.76977,0,0,1,15.24146-.95068,183.711,183.711,0,0,1,36.4707,3.86426l-9,9.77222Zm39.69116-22.91577L797.75146,180.613a7.76279,7.76279,0,0,0,.7273,1.78027c.02917.051.0564.103.0852.1543L746.09265,239.521A189.57077,189.57077,0,0,0,704.84595,234.25317Zm75.4978-10.56519a126.8955,126.8955,0,0,1,12.20081,33.481H765.06592c-1.04944-4.57178-2.17578-8.99414-3.38745-13.21411Zm-25.87646,33.481h-4.95886l3.91138-4.24707C753.77979,254.31494,754.12427,255.74048,754.46729,257.16895Zm55.304,0h-6.57617c-3.27246-15.31323-8.34045-29.47778-15.49963-41.46338l17.92969-19.468a196.19662,196.19662,0,0,1,13.82446,40.67822ZM797.17371,149.80859a212.34955,212.34955,0,0,0-14.808-19.978l12.67358-10.14233h51.65881l14.19922,7.76123L838.059,140.63623ZM638.65515,119.68823c25.83777,15.386,49.41187,33.281,67.07751,50.63574l-27.09729,6.0791c-22.36609-18.94775-54.6261-40.60718-80.98889-47.05176q-3.25287-4.93689-6.81995-9.66309Zm-32.01172,64.96216c-.01526.01172-.03308.019-.04834.03125-25.49695,20.22583-39.24438,45.23608-48.16052,72.4873h-17.1969a267.4764,267.4764,0,0,1,47.62354-112.63184A180.16726,180.16726,0,0,1,606.64343,184.65039ZM555.25537,119.625c9.58337.03662,15.65417.06323,15.65417.06323.53552.625,1.08838,1.23682,1.615,1.86865q3.84961,4.61389,7.39087,9.45508a7.73819,7.73819,0,0,0-1.33228,1.35815q-5.23407,6.902-10.00964,14.1521a13.714,13.714,0,0,0-20.6864-1.05127A54.047,54.047,0,0,0,555.25537,119.625Zm-31.19751-.10645a27.0974,27.0974,0,0,1-46.29163-.09668C492.616,119.43433,509.11487,119.47412,524.05786,119.51855Zm-23.11633,28.94482a43.1735,43.1735,0,0,0,39.76221-26.34326,39.966,39.966,0,0,1-79.52441,0A43.17337,43.17337,0,0,0,500.94153,148.46338Zm-44.314,13.43555a13.71361,13.71361,0,0,0,1.33923-10.55127,54.32512,54.32512,0,0,0,87.07971-1.51123,13.73815,13.73815,0,0,0,10.38416,18.7439,283.14468,283.14468,0,0,0-13.81116,29.97437,13.75695,13.75695,0,1,0-9.39307,23.79468q.62878,0,1.25867-.05762a286.67759,286.67759,0,0,0-6.90051,28.79224,13.826,13.826,0,0,0-8.74939-3.12646,13.72595,13.72595,0,0,0-12.94373,9.21143h-7.29224a13.73449,13.73449,0,0,0-21.69495-6.09155,286.57264,286.57264,0,0,0-6.90112-28.79175c.41895.03833.83911.05737,1.25745.05737a13.75379,13.75379,0,1,0-9.3916-23.79492A283.16721,283.16721,0,0,0,447.05786,168.574,13.72594,13.72594,0,0,0,456.62756,161.89893Zm-10.00439-42.44531a54.06559,54.06559,0,0,0,6.708,24.86108,13.82036,13.82036,0,0,0-1.74023-1.21118,13.738,13.738,0,0,0-17.67664,3.41235q-4.78345-7.23779-10.01-14.15234a7.72827,7.72827,0,0,0-1.33228-1.35791c2.35034-3.22974,7.06482-8.24341,9.62927-11.31738C432.13989,119.56567,437.70374,119.49243,446.62317,119.45361Zm-41.782,9.89087c-26.363,6.447-58.62329,28.10522-80.98889,47.05347l-27.09521-6.07812c17.66309-17.35327,41.24109-35.24243,67.07336-50.63159h47.80774Q408.094,124.41638,404.84119,129.34448ZM155.786,119.68823h51.666l12.67029,10.13892a212.41824,212.41824,0,0,0-14.80774,19.97852l-40.887-9.17236-22.83838-13.18457Zm1.40771,33.47388,28.38782,30.82324a212.28593,212.28593,0,0,0-9.89758,22.81323l-8.02246-3.13281-29.33911-61.39819ZM88.49951,55.7439a19.18335,19.18335,0,1,1,19.18335,19.18335A19.18328,19.18328,0,0,1,88.49951,55.7439Zm166.52112,287.8252c0-23.41724,13.16589-48.99365,39.38916-48.99365,9.38782,0,23.849,3.99365,23.849,15.64722,0,6.2605-4.31677,9.82153-11.1156,9.82153-4.42419,0,1.5105-10.14429-12.19385-10.14429-15.75586,0-22.44617,16.07813-22.44617,29.56812,0,20.61182,14.02832,28.92163,23.41724,28.92163,17.59,0,19.10059-15.75659,20.07227-15.75659,1.5105,0,2.37354,8.63306,2.37354,9.71338,0,15.97046-12.30249,25.25122-27.40967,25.25122C266.45984,387.59766,255.02063,365.36719,255.02063,343.56909Zm46.1709,139.532-20.8772-43.69019h18.03882a27.12074,27.12074,0,0,1,2.83838,43.69019Zm9.65662,12.782a43.15067,43.15067,0,0,0,9.45276-56.47217h10.22815a39.959,39.959,0,0,1-18.11169,57.20923C311.89758,496.36694,311.37207,496.127,310.84814,495.88306Zm7.4375,22.99072a196.493,196.493,0,0,0,45.72668,8.21924c18.76086,19.61523,53.65918,36.73022,81.26,46.62866l8.28357,26.50635c-40.18323-11.15063-90.08411-36.02832-128.35413-66.88135ZM430.82654,754.38623l-12.58337-26.3335,15.18835,9.24854Zm-24.81531-51.93091L386.356,661.32251a222.31258,222.31258,0,0,0,55.26086,22.292l-5.65332,37.07983ZM451.18018,796.979l-9.85315-20.6189a7.62506,7.62506,0,0,0,2.35168-3.68408,39.81662,39.81662,0,0,0,.73413-4.5603q1.41431-9.27649,2.82837-18.55322.2688-1.76221.53748-3.52393l15.592,9.49438-12.0459,41.48169Zm8.60522,7.92847c1.88025-4.44385,2.79163-9.58545,4.135-14.21045q4.29712-14.79785,8.59412-29.59595l16.36926,9.96826-18.38672,59.15332-3.84692-.86914-10.23389-21.41724A5.08086,5.08086,0,0,0,459.7854,804.90747Zm41.71472,97.37524-7.0553-14.76392a26.70735,26.70735,0,0,1,14.51062-.83765Zm14.46448-30.27a42.58416,42.58416,0,0,0-28.42859,1.0481l-5.1687-10.81616a27.12838,27.12838,0,0,1,39.48059-2.54419Zm20.44751-42.79-4.42371.99976L513.60205,771.0686l16.36914-9.96826L542.61926,804.656a5.26227,5.26227,0,0,0,2.30591,2.98169,5.1408,5.1408,0,0,0,1.52136.58594Zm14.74915-32.209-12.04614-41.48193,15.59192-9.49512s3.94836,25.89746,3.95117,25.9082a7.825,7.825,0,0,0,2.81494,4.833L551.88879,796.835ZM597.20154,702.01l-30.6792,18.68237-5.65308-37.07788a222.56762,222.56762,0,0,0,55.97583-22.71289Zm-25.41809,53.19116-2.72913-17.90161,15.91492-9.69189ZM629.491,634.439c-32.3678,23.02124-67.08057,36.21606-103.54724,39.342l7.89526-25.26367c.50806.00732,1.01172.0293,1.52222.0293,34.43311,0,73.76086-17.11035,107.02112-41.08643Zm-92.4231,3.74634,8.22644-26.32227c36.21362-9.0144,81.43579-29.80322,119.79224-56.592a87.03628,87.03628,0,0,0-4.1178,13.29468l-8.48718,17.76074C618.52625,614.927,574.26343,637.48633,537.06787,638.1853ZM702.87793,480.86279a27.173,27.173,0,0,1,5.22607-41.4519h14.58191Zm21.6322-93.26514c-11.43945,0-22.77026-6.69067-22.77026-19.31567,0-5.07227,2.59-11.54785,3.45337-11.54785.53943,0,3.23694,16.29492,18.561,16.29492,4.42444,0,9.60413-2.26636,9.60413-7.76953,0-11.11523-29.13721-8.2019-29.13721-29.676,0-13.1665,10.57617-20.28833,22.23084-20.28833,13.48926,0,20.93506,8.09448,20.93506,10.252,0,2.0498-6.04309,10.79077-8.52478,10.79077-2.806,0-3.453-8.30884-13.38135-8.30884-3.34558,0-7.87744,1.51147-7.87744,4.7478,0,11.11548,31.51025,10.8999,31.51025,32.80591C749.11377,379.61279,737.45984,387.59766,724.51013,387.59766ZM826.80432,206.80054a212.364,212.364,0,0,0-9.89783-22.81226l28.38782-30.82373,19.57715-11.303-29.41711,61.561ZM892.60156,74.92725A19.18335,19.18335,0,1,1,911.78479,55.7439,19.18359,19.18359,0,0,1,892.60156,74.92725Z"/></svg>