<svg id="Слой_1" data-name="Слой 1" xmlns="http://www.w3.org/2000/svg" viewBox="0 0 1003 1030"><title>Christmas flags</title><path d="M963.00925,10.98264H39.99078A21.12165,21.12165,0,0,0,20.9331,41.2107l461.50962,965.79189a21.12129,21.12129,0,0,0,38.11458,0L982.06654,41.2107A21.12117,21.12117,0,0,0,963.00925,10.98264ZM506.03241,119.6883h25.46852l-25.46852,44.13748Zm-6.13374,142.61217,25.77451-13.45473c1.13651-.59245,3.24718-1.29341,4.73027,1.551,1.81561,3.47667.74311,47.266,23.50772,90.875,11.38387,21.80451,23.83244,21.94111,32.74814,17.28734,14.91362-7.78621,16.98214-25.9556,21.03487-28.071,3.08014-1.608,25.32177,25.58873,25.73392,26.37711,1.65013,3.16132-3.78734,4.99254-5.73409,6.00807L561.71378,397.3161c-8.42706,4.80052-8.72056-2.08257-26.27407-33.73478C524.3868,342.40906,495.1965,264.75458,499.89867,262.30046Zm21.31939,286.43266h-.002l-3.11683-5.38517,99.25253,57.30378-66.12542-.07572Zm62.02742,135.20151h-72.144l36.073-62.47869ZM525.135,517.365l99.19789-57.27178L591.26547,517.365ZM450.625,119.6883l29.58214,51.237-88.74408-51.237Zm18.99055,77.1192-92.26641,51.42314,29.72459-51.35153ZM354.95493,259.251l-36.13856-62.59509h72.372Zm36.00157-76.42742H318.93463l36.01093-62.373ZM337.556,119.6883l-32.053,55.51783-32.053-55.51783Zm-80.1289,0h.05074L293.525,182.12278H221.37946ZM107.68282,74.92714a19.18335,19.18335,0,1,1,19.18335-19.18335A19.1833,19.1833,0,0,1,107.68282,74.92714Zm19.84957,44.76115h17.68543l-9.67637,16.76045Zm15.24146,31.89537,18.41449-31.89537h.17016l36.04606,62.43449H157.367Zm36.79034,76.99-14.81839-31.00922H197.421Zm22.91137-65.38876-25.1118-43.49663h25.1118Zm20.53257,156.30361-6.6977-14.01635v-88.9117l33.01041,57.32759Zm-1.64506-121.92407h72.03982L257.3377,260.0329Zm84.07781,6.81069,36.13348,62.58436H269.30973Zm10.12247,254.88407c-6.02134-11.53374-38.081-80.85327-30.30027-84.91537l22.04805-11.50876c.97259-.50815,4.61631-3.01379,5.60607-1.11544,1.07251,2.05291,2.00763,30.71943,10.75,47.4674,2.06383,3.9497,5.50148,6.97988,7.93374,5.70989,5.02533-2.6235,2.55091-7.36314,24.5974-18.8719,7.94467-4.1464,15.17433-5.70911,11.70859-12.344-7.83383-15.01041-33.89558-30.15976-34.96653-32.21267-1.07407-2.056,4.03712-4.11986,5.01128-4.628l21.2347-11.08569c6.16184-3.216,37.86089,38.14424,55.43,71.79784,3.9575,7.584,27.30131,52.29992,22.11206,55.00851l-23.34536,12.1863c-1.62047.84614-5.91518,3.28855-7.23435.76106a5.57729,5.57729,0,0,1-.66817-2.46583c-1.914-17.4981-4.96756-34.80495-13.13235-50.44762-5.60919-10.74536-11.88344-12.095-22.74588-6.42489-16.37329,8.54727-29.92091,25.2726-20.35265,43.602,5.9386,11.37606,14.47962,22.59992,24.46158,30.65855a7.30878,7.30878,0,0,1,1.88586,2.031c1.15525,2.21214-3.06609,3.61093-4.36184,4.28847l-23.83244,12.44C342.86465,511.55914,319.11026,466.05488,315.56334,459.25922ZM366.927,614.52749l72.08549-.08108-36.06557,62.46951ZM450.995,621.353l36.13192,62.58162H414.86427ZM437.70031,768.77048l-6.61613-13.84521,7.99384,13.84521Zm30.81544,64.48681-24.19229-50.62638h2.75659l33.12711,57.37667Zm-17.40521-71.30852-36.12607-62.57245h72.15886Zm41.087-96.95189-33.19073-57.49073,33.19073-57.34008ZM464.93527,447.83632c-8.42706,4.80052-8.72056-2.08257-26.27407-33.73478-11.05291-21.17225-40.2432-98.82673-35.541-101.28085l63.87269-33.34216c1.94519-1.01552,7.53409-4.53669,9.18266-1.37537.66036,1.263,1.83278,28.80079-.27476,29.90061-2.757,1.4386-11.49627-3.44935-27.38249,4.84423-11.18717,5.83946-19.63921,18.49567-11.72108,33.66375,1.73287,3.31743,5.35161,8.669,9.88985,6.3,5.18769-2.70781,12.82168-16.143,26.438-23.25091,1.94519-1.01631,7.62463-3.17849,9.02654-.49176.08274.15768,4.44926,30.65152,2.50408,31.66627-1.622.84692-9.43244.90312-15.75508,4.20338-8.26626,4.31579-17.21006,16.42481-9.04527,32.06748,6.599,12.64059,18.19046,18.25057,31.80989,11.14111,16.04857-8.3771,20.49471-23.9667,24.38509-25.99775,2.43226-1.26921,27.23262,19.76254,28.0569,21.34242,1.56739,3.00208-2.81631,4.48517-4.76149,5.50148Zm41.09715,385.07147V718.37233l33.0108,57.32749Zm5.05265-133.53147h72.04021L547.0597,761.84475Zm54.21467,69.39417h-6.268L595.16287,706.187l.02342.04049ZM595.223,677.018l-36.12373-62.57236,72.20413.08186ZM675.9974,537.11469l-32.722,56.67776L607.042,531.19717h71.7834ZM607.27189,517.365l36.01093-62.3736,36.01093,62.3736Zm83.45765-11.07945L656.649,447.25713l62.3213-.07064Zm26.29007-190.04054-65.9818,34.44276c-8.42706,4.80052-8.719-2.08257-26.27563-33.73478-11.05291-21.17225-40.24008-98.82673-35.53947-101.28085l25.77607-13.45551c1.13339-.59167,3.24406-1.29263,4.73027,1.55178,1.81405,3.47667.74311,47.266,23.50772,90.875C654.61752,316.448,667.06609,316.5846,675.98335,311.93c14.91518-7.78543,16.98214-25.95482,21.03487-28.071,3.07858-1.6072,25.32177,25.58873,25.73392,26.37711C724.40071,313.39752,718.9648,315.22953,717.01961,316.24505Zm75.48293-36.38639-16.21093,8.46219c-32.74814,17.09454-57.51415.86878-71.783-26.46687a133.73,133.73,0,0,1-14.97919-57.00638c-.36219-11.15028.41526-47.74743,20.58214-42.01315,4.06483,1.15583,6.92524,4.98318,8.09961,9.04254,3.06687,10.60369-1.89757,22.20046-1.15369,33.11579.94488,13.86492,5.49718,27.41254,11.89866,39.67455,9.651,18.48708,23.57485,20.26679,40.75838,11.29645,17.18509-8.97034,23.68725-21.41267,14.03782-39.89975-10.9046-20.88793-27.82351-43.547-51.02837-51.14546-3.88062-1.27077-7.94467-2.19907-11.40963-4.35969-3.46535-2.16062-6.29688-5.94289-5.92455-10.00948.85551-9.35126,18.12333-6.94632,24.339-5.7698,9.5788,1.81327,18.619,6.08125,26.80915,11.26971,19.01436,12.04462,34.89472,29.86744,45.29,49.78121C826.09682,233.16637,825.25068,262.76334,792.50254,279.85866ZM892.60161,74.92714A19.18335,19.18335,0,1,1,911.785,55.74379,19.1833,19.1833,0,0,1,892.60161,74.92714Z"/></svg>