<svg id="Слой_1" data-name="Слой 1" xmlns="http://www.w3.org/2000/svg" viewBox="0 0 1003 1030"><title>Christmas flags</title><path d="M963.00925,10.98274H39.99078A21.12165,21.12165,0,0,0,20.9331,41.2108l461.50962,965.79189a21.12144,21.12144,0,0,0,38.11458,0L898.07693,216.97447l17.72056-37.08383,66.269-138.67984A21.12117,21.12117,0,0,0,963.00925,10.98274ZM737.263,119.68839l-27.9164,14.071-8.123-14.071Zm-103.14564,0H680.9837l12.68587,21.97273-2.08413,1.05065H620.825Zm21.01848,41.39532-26.67958,13.4479-7.76436-13.4479Zm-41.22438-41.39532L605.35286,134.513l-8.55859-14.82463Zm-8.62494,49.70413,7.52082,13.02659-21.21557,10.69365Zm-76.57495-49.70413h48.88921L590.95871,142.825H515.354Zm62.11289,41.50734-26.30412,45.56222L546.7342,215.723l-31.39931-54.52729Zm-81.56437-41.50734h.22168l-.22168.38365Zm0,64.32972,22.5804,39.21206-22.5804,11.38114Zm-16.62385-64.32972v.38365l-.22168-.38365ZM329.3502,325.29374H306.60159l2.16921-3.7567,35.56679-61.60435,25.85178,44.77637Zm-19.19194-92.11361-65.35071-.07454L212.068,176.548Zm-88.2488-71.92957,65.34914.07474,32.73916,56.55638Zm107.03367,90.353-36.80283,63.74214-36.85044-63.82527Zm38.16141,14.45289,37.181,21.46672L385.085,297.20113Zm-8.36188-31.0744L396.545,169.50688l37.80235,65.47521Zm16.691,16.65352h68.52959l7.10516,12.3069-29.00061,14.61778Zm83.06229-8.32676,34.14029-59.28956v58.97148l-26.60269,13.40868Zm-9.69705-16.536-37.86011-65.57707h75.623ZM424.16752,119.68839h49.01762L486.54269,142.825h-75.7331Zm-19.19194,0-8.495,14.7134-4.36652-7.563-4.12845-7.15044Zm-84.06259,0H367.7813l13.29237,23.02338H307.62023Zm60.29181,41.39532-36.86722,63.85552-36.96323-63.85552Zm-80.53089-41.39532-13.29237,23.02338H222.01094l39.87828-23.02338Zm-84.21051,0h9.08743l-13.614,7.86017Zm-20.41588,0h.11787l-.11787.20412ZM107.68282,74.92724a19.18335,19.18335,0,1,1,19.18335-19.18335A19.1833,19.1833,0,0,1,107.68282,74.92724Zm25.1641,55.88256,20.61492,11.902H138.53417Zm15.88075,33.23307-1.33088-2.78528,6.16691-.007Zm9.884,20.68439-2.02715-4.24241,6.71878-3.87906Zm-8.68894-65.03887h9.05152l4.52537,7.83851Zm29.50213,108.594L167.79744,203.95l11.62741-20.08667Zm0-108.26463-.18968-.3294h.18968ZM196.04753,263.069v-79.1684l33.77616,58.50216L205.94012,283.7706ZM215.106,302.95122l24.83821-43.0195,36.79229,63.72614h-51.736Zm18.67364,39.07858h43.83383l-7.60707,13.17567-24.12086,12.1582Zm100.73055-.8559c-4.37,6.0709,14.407,43.99268,18.73686,52.6063,12.593,25.0515,18.37078,36.54407,21.45326,41.55924L353.8114,445.7839a26.90115,26.90115,0,0,0,.10616-25.4773c-.56474-1.123-6.05373-9.6149-7.7585-8.75783-1.09631.55089,5.439,17.80018-14.41054,27.77843-10.5951,5.326-30.7729,4.63836-41.553-16.80592-7.05442-14.03411-7.91344-34.55946,9.86644-43.497,15.46587-7.7745,14.07333,6.14681,19.06627,3.63688,7.67186-3.85661,10.68057-10.01026,7.40685-16.52218-6.09549-12.12619-24.50178-8.07776-35.09688-2.75191-19.0327,9.56787-26.42355,27.07923-26.02546,44.84L253.00279,382.2572Zm58.621,84.9501c-2.79367-3.88062-8.685-11.24981-17.7994-29.38095-4.00746-7.972-12.56878-25.60922-.14714-31.85361,5.96709-2.99955,10.88274-1.10978,19.631,16.2927,6.03734,12.01028,10.50651,30.71124,12.23118,37.984Zm-81.66077,40.83038-14.5245,7.26225L288.746,457.05654A44.16483,44.16483,0,0,0,311.47041,466.95439Zm8.66709,55.79494h62.07581L348.249,581.57777Zm4.27324-16.62249,44.67295-22.51718,13,22.51718ZM396.545,531.17268l37.80235,65.475h-75.6047Zm14.39454-8.31H486.561l-37.76215,65.57551ZM478.22764,672.6499l-102.794-59.34849h68.52959Zm-67.41727-166.411,35.5543-61.5821,3.58244-1.80566,36.59519,63.38776Zm-14.32975-8.422-4.36652-7.56336-8.16245-14.13773L419.29519,458.301ZM385.64783,659.84168l-14.1311-29.57219,98.18861,56.69006H401.30377Zm21.01418,43.9759,63.14793-.072L420.29,732.33638Zm35.141,73.53833-14.311-29.94823,50.54129-29.17956-34.15551,59.12544Zm50.83323,67.79565-34.33465-59.47241,34.33465-59.31649Zm0-180.88735-34.14029-59.28956,34.14029-59.28975Zm0-180.77709L464.842,435.34335,492.63623,421.334Zm16.62385,361.66444V726.399l34.28158,59.3764ZM695.42625,341.91662l-37.87611,65.60361-31.05937-53.65461,23.70638-11.949Zm-12.25031-16.62288,9.38834-4.732,2.732,4.732ZM634.73244,401.342l-47.74411-27.56553,24.60716-12.4031Zm8.43057,31.09567-37.81015,65.49L567.49392,432.3522Zm-16.75616-16.67186-68.3883-.07806-12.23743-21.141,23.423-11.80636Zm-73.25127,24.99862,37.80274,65.47443H515.35479Zm-.12411,147.55846-37.69619-65.46018h75.48839Zm4.79506,24.97852h68.6377L523.6394,672.66707ZM509.26008,483.48711V412.95458l21.56527-10.86967,12.71631,22.02483Zm34.14263,121.48753-34.14263,59.16584V545.68372Zm17.79354,172.38242-3.17771-.00351-34.25972-59.1873,51.51076,29.73981Zm21.27568-44.52269L532.0891,703.74557l64.24815.07337Zm40.16943-84.0622-22.04727,38.18737H532.1933l99.70878-57.56664ZM567.419,596.64769l37.86753-65.58956,10.47021,18.13563L643.154,596.64769ZM654.251,582.62315l-34.56844-59.87382h63.17954Zm36.5546-76.49631H619.81491l37.73522-65.36124,35.28422,61.11532ZM701.5432,483.6565l-21.22611-36.76731,30.40642,17.55547Zm16.38188-34.28275L688.64463,432.4685h37.35859ZM733.96155,415.815h-62.006l11.15282-19.3182,26.65031-46.15721,30.36076,52.58834Zm-25.748-103.14135,4.171-2.10247-2.69219,4.66353ZM748.81077,384.74l-24.65751-42.7102H769.22Zm29.18834-61.08214h-52.965l15.84757-27.4502,32.54558-16.40432,13.96718,24.19346Zm27.84966-58.28028L796.56,284.81579l-7.45564-12.91457,16.74445-8.43994Zm-498.41,230.797-4.28808-8.97346L824.387,226.58293l-5.68257,11.89183ZM634.17316,270.7046c-8.40911-16.72884-10.19155-28.77229-1.05807-33.36382,9.98586-5.01967,17.9438,10.81113,21.33032,17.54766,4.45512,8.862,9.84185,27.53411,12.02316,34.56688L651.27,297.05458C648.69883,294.08079,643.31834,288.897,634.17316,270.7046Zm50.66306,9.56689c-1.39918-4.86921-6.22468-14.94035-17.49068-37.35254-9.313-18.52533-5.12446-20.209-.86253-22.3517,4.62762-2.3263,14.03782-4.24319,24.81752,17.20128A135.47577,135.47577,0,0,1,702.764,271.30759Zm54.83717-52.1924c-3.44272-6.84835,1.28638-16.25777,8.47116-19.86947,5.84493-2.93808,7.4853,2.14384,9.46093,6.074l2.483,4.93985c2.76557,5.50109,4.21509,8.99259-2.97008,12.6043C750.66463,235.07224,742.83393,234.3668,739.67339,228.07909Zm126.20726-88.3292-21.92706,45.88635a24.52477,24.52477,0,0,0-2.186-6.34723c-11.45685-22.79155-46.90382-4.692-52.71675-16.256-1.69345-3.36876,2.63131-7.51184,6.40616-9.40941,11.20395-5.632,16.28118,2.64634,19.44718,1.05475,2.80069-1.40776,5.04874-13.93107,3.97624-16.06438-1.12832-2.24512-13.76462-6.44207-28.98734,1.21028-13.15187,6.61125-21.36115,20.0213-14.47572,33.71859,11.23166,22.3435,42.58843,2.78333,48.40135,14.34731,2.87836,5.72628-1.78127,11.02188-6.7742,13.53181-17.2928,8.69285-28.86011-6.7301-29.469-6.42392-.97415.48942-.51049,8.69558,2.14189,13.97264,3.34163,6.647,9.16548,10.05729,15.77342,10.97348l-18.58426,9.29213c-1.85035-3.38768-4.11791-5.82346-6.42723-10.41752-1.97563-3.93018-18.925-37.04129-24.75625-42.26722-14.11236-12.5961-30.74012-4.09781-34.63674-2.13877-11.20395,5.63183-18.60261,16.10263-14.42576,24.41124,2.42641,4.82745,8.89072,7.06379,12.78773,5.10475,2.67892-1.34668-4.002-10.0848,8.41965-16.329,5.35785-2.69337,13.33686-2.90607,16.21522,2.81943,1.86245,3.70518-.65607,5.67476-3.906,8.0116-12.56644,8.98946-22.75681,26.34842-15.6458,40.49474,2.32494,4.62489,7.32919,12.14415,19.73326,11.6317l-23.02845,11.51423c-.55889-4.4879-3.4837-12.64957-11.23829-28.07622-7.22459-14.37132-20.339-41.67438-42.7461-30.41072a27.2499,27.2499,0,0,0-9.62368,8.77578,16.28155,16.28155,0,0,1-6.16886,5.63281c-3.045,1.53051-9.53782-1.6753-15.5049,1.32444a27.685,27.685,0,0,0-10.14978,8.33691c-2.058,2.58213-3.086,4.78608-4.54684,5.5206-1.21808.61236-2.83114.43829-3.3951-.684-.79033-1.57188-.40082-4.44009-1.078-5.78716-.84692-1.68428-3.58322-.44961-6.14.8358-16.56219,8.32539-15.71293,6.07012,8.04848,53.33828,7.37017,14.66169,11.63287,21.89955,14.45347,25.23845l-20.305,10.15232c1.39762-2.04861,2.26288-3.68255,2.00217-4.20163-.95932-1.9085-10.26258-3.42008-25.27533-33.28557-5.02377-9.99289-8.63547-17.17845-1.93777-20.54545,2.19224-1.10178,5.135-1.31546,6.10993-1.80546,2.55716-1.28541.41253-5.55143-.3778-7.12311-1.919-3.81778-3.56487-6.78786-8.19172-4.46195-1.58417.79618-2.76284,2.09213-4.34584,2.88792-1.82693.91834-3.11292-.12255-4.12923-2.14423-.67715-1.34707-.466-10.03289-1.99007-13.06425-1.07212-2.13272-1.79415-2.05134-2.64692-1.62262-2.435,1.22394-14.49445,11.22444-12.95868,15.79723,1.36639,4.23558,3.76665,9.9203-.0082,11.81787a21.794,21.794,0,0,1-2.53959.71422c-4.628,2.3265-6.79918,4.68363-2.50993,13.21626,1.01592,2.0209,1.62788,3.54263,3.21206,2.74644,1.33907-.67324,1.87923-2.63326,4.07147-3.73523,5.48-2.75484,7.37524,3.74733,9.0683,7.11511,1.07251,2.1335,3.05048,7.88964,9.99289,21.70031,2.18482,4.34623,9.667,17.72251,15.52286,24.46l-27.84419,13.9219a23.20512,23.20512,0,0,0,.299-21.93136c-11.45685-22.79135-46.90382-4.692-52.71675-16.25581-1.69384-3.369,2.63131-7.51184,6.40616-9.40961,11.20356-5.632,16.28079,2.64634,19.44679,1.05494,2.80108-1.408,5.04913-13.93107,3.97663-16.06457-1.12871-2.24512-13.76462-6.44187-28.98734,1.21028-13.15187,6.61125-21.36154,20.02149-14.47611,33.71878,11.232,22.3433,42.58843,2.78333,48.40174,14.34712,2.87836,5.72628-1.78166,11.02207-6.77459,13.53181-17.29241,8.693-28.85972-6.7301-29.469-6.42392-.97376.48961-.51049,8.69558,2.14228,13.97264a19.77724,19.77724,0,0,0,14.68842,10.78107l-17.95278,8.97639c-2.97359-3.76451-14.95889-18.37819-27.5265-43.37876-6.15208-12.238-6.77849-17.12732-8.86652-21.28153-.67754-1.34766-.96869-1.623-6.08378.9482l-6.6977,3.367c-4.01917,2.02032-7.82992-.70583,11.47247,37.69248,9.76848,19.43177,14.56041,28.6677,17.62221,32.69233l-32.62286,16.31162c-3.19683-3.6763-10.61384-11.94627-19.52719-29.67815-3.38651-6.73673-10.27468-22.26076-.04566-27.40278,8.40286-4.22407,10.47919,4.15518,11.9412,3.42027,3.65269-1.8363,8.2245-10.0407,4.27363-17.90029a12.54226,12.54226,0,0,0-16.85724-5.31024c-3.28777,1.65286-5.3075,4.91917-7.01813,7.88808-1.654,3.08209-2.82177,5.91986-4.64831,6.83821-2.43539,1.22433-3.75143-.78643-4.8415-2.34874-1.19428-2.072-3.10395-.40863-4.93088.50971l-10.108,5.08114c-3.35334,1.82654,1.12051,8.2971,16.7546,39.398,8.468,16.84554,13.1827,25.09755,16.23279,28.89211l-15.74064,7.87032c-2.0049-9.36063-10.32151-28.39177-14.46362-36.63149-13.60187-27.05816-25.43027-30.2546-36.51206-24.68385a26.13918,26.13918,0,0,0-8.87433,7.83675c-1.94558,2.80616-3.38651,4.79623-4.36028,5.286-2.07008,1.0405-3.14259-1.0928-3.81973-2.43987-4.51483-8.98166-5.41913-22.31091-6.20945-23.883a2.8758,2.8758,0,0,0-2.26522-1.55275l99.04373-49.9223a13.10276,13.10276,0,0,0,1.45889,5.62578c3.26787,6.50119,9.52142,7.7144,14.393,5.26535,4.87116-2.44866,7.62854-8.19152,4.36067-14.69272a13.09276,13.09276,0,0,0-3.66206-4.5404L773.92843,119.68839H875.46726Zm26.721-64.82265A19.18335,19.18335,0,1,1,911.785,55.74389,19.1833,19.1833,0,0,1,892.60161,74.92724Z"/></svg>