<svg id="Слой_1" data-name="Слой 1" xmlns="http://www.w3.org/2000/svg" viewBox="0 0 1003 1030"><title>Christmas flags</title><path d="M1002.49038,10.98259H79.47191A21.12177,21.12177,0,0,0,60.41423,41.21085l461.50943,965.79179a21.1216,21.1216,0,0,0,38.115,0l461.509-965.79179A21.12137,21.12137,0,0,0,1002.49038,10.98259Zm-167.97,108.70575h51.65888l14.1992,7.76114-22.83819,13.1866-40.88522,9.1727a212.35862,212.35862,0,0,0-14.80824-19.97827ZM675.63889,465.9839a13.72672,13.72672,0,0,0-10.56583,4.95078A283.153,283.153,0,0,0,646.01987,443.987a13.75731,13.75731,0,1,0-16.48979-18.91327,286.58,286.58,0,0,0-21.48448-20.37236A13.7524,13.7524,0,1,0,589.54642,390.196a273.22763,273.22763,0,0,0-33.67975-20.71932c.27632-.38268.539-.78252.79853-1.1853a35.20079,35.20079,0,0,0,18.35555-24.90514,28.12508,28.12508,0,0,0,1.76839-3.26611,273.23426,273.23426,0,0,0,34.78895,18.79853,13.75438,13.75438,0,1,0,21.809,8.76485,286.60808,286.60808,0,0,0,28.37928,8.43428,13.754,13.754,0,1,0,24.63253,4.81965,283.11528,283.11528,0,0,0,32.86425,3.01535,13.75374,13.75374,0,1,0,25.67459-.34345q8.65879-.52337,17.25924-1.59764a7.73673,7.73673,0,0,0,1.84157-.47439c1.52973-.5946,6.77186,15.65438,7.19942,17.093,1.08578,3.65523,2.018,7.31475,2.87934,10.98266a54.35286,54.35286,0,0,0-53.00849,94.74c-8.61479,2.24063-17.404,3.88764-26.0961,5.28292q-4.81018.77218-9.64749,1.28736a7.74381,7.74381,0,0,0-.50971-1.832q-3.36036-7.98409-7.25152-15.74512a13.75108,13.75108,0,0,0-1.96509-27.36219Zm-75.8338,70.60981L617.077,522.6158a5.25108,5.25108,0,0,0,1.07114-1.21594,195.66484,195.66484,0,0,0,44.26276,6.00436c-16.60649,13.68285-40.85946,25.73275-62.17943,33.97305A57.217,57.217,0,0,0,599.80509,536.59371ZM481.217,561.37728c-21.32017-8.24011-45.57314-20.2902-62.17982-33.97305a195.69871,195.69871,0,0,0,44.263-6.00455,5.252,5.252,0,0,0,1.07114,1.21613l17.27192,13.97791A57.21714,57.21714,0,0,0,481.217,561.37728ZM403.8443,493.34609c-2.84987,5.7056-5.52294,11.53257-7.89588,17.4255-.68144,1.69248-22.6329-4.07361-24.94359-4.92288-1.25262-.46034-2.48144-.97318-3.69933-1.50963a54.36273,54.36273,0,0,0-31.45259-98.64935v14.38732a39.96764,39.96764,0,0,1,16.04545,76.54275c-.51967-.25291-1.04519-.49293-1.56915-.73686a43.14,43.14,0,0,0-17.68836-75.66168c1.07153-.08645,2.144-.144,3.21049-.14421l.00156-14.38732h-.00215a54.52921,54.52921,0,0,0-28.36542,7.96067l-.957-2.00256a173.70205,173.70205,0,0,1,6.58686-23.55729c1.76487-4.92229,1.23662-5.61778,6.154-6.09588,5.35-.52006,11.82021,1.28229,17.24636,1.61032a13.75148,13.75148,0,1,0,25.6744.34384,283.07448,283.07448,0,0,0,32.86406-3.01613,13.75731,13.75731,0,1,0,24.63233-4.82023,286.62579,286.62579,0,0,0,28.37928-8.43467,13.75234,13.75234,0,1,0,21.80881-8.765,273.28074,273.28074,0,0,0,34.78895-18.79814c.28062.62485.59909,1.24384.93376,1.85932a35.19725,35.19725,0,0,0,19.50358,26.78886c.16041.23807.31457.48337.48083.71383A273.22763,273.22763,0,0,0,491.90186,390.196a13.75433,13.75433,0,1,0-18.49918,14.50538,286.58,286.58,0,0,0-21.48448,20.37236A13.75407,13.75407,0,1,0,435.42842,443.987a283.09114,283.09114,0,0,0-19.053,26.94771,13.75366,13.75366,0,1,0-12.53112,22.41141ZM345.50548,477.8326a27.27652,27.27652,0,0,1-4.83291,5.26847l-22.67368-47.44944c.1366-.02654.26754-.0685.40492-.09308a27.5749,27.5749,0,0,1,4.84638-.4338l.00117-13.01546.0002-.0002v13.01566a27.18234,27.18234,0,0,1,22.25393,42.70786Zm35.97893-172.71222,71.51333,17.125c-30.8574,8.69753-61.80183,12.60078-94.27053,1.07563A183.439,183.439,0,0,1,381.48441,305.12038Zm-30.44389,4.23246L349.147,297.37671l12.5518,3.00559Q356.18645,304.696,351.04052,309.35284Zm-4.45844-27.46757c16.04721-6.05607,35.31174-11.53589,53.8074-11.11047l71.01825,41.00192Zm3.91965,49.68169c.01854.00761.034.0199.05288.02732a134.862,134.862,0,0,0,50.3241,9.56475c24.63155,0,48.5202-6.21024,72.45216-14.04465l16.49389,3.94989c-49.06777,29.313-108.40709,42.3004-165.16993,35.95844A180.18252,180.18252,0,0,1,350.50173,331.567Zm57.16582-73.29654c-9.62992-15.81245-14.53387-35.22822-17.31661-52.1684l88.28978,93.14377ZM405.039,200.56815l11.3183-4.34876q-1.44982,6.78513-2.4389,13.716Zm22.876,24.13335a183.4135,183.4135,0,0,1,4.38252-28.80937c26.21651,22.35892,38.30718,51.10682,46.20424,82.17614Zm-8.5301-40.72228a5.248,5.248,0,0,0-1.60154.32121l-20.7402,7.96867a57.23791,57.23791,0,0,0-21.25187-12.76139c17.7994-14.34614,40.36653-29.32728,60.52306-36.86654A195.67394,195.67394,0,0,0,419.38492,183.97923Zm-39.745,13.153c2.02442,15.65633,5.58265,34.98234,13.18309,52.56785l-30.74773-17.75159c-9.4178-12.08307-18.199-30.51083-23.3317-46.23936l28.19584,6.32537A42.94571,42.94571,0,0,1,379.63992,197.13227ZM344.3557,221.71855l-42.27737-24.40831-50.62716-29.22913a7.71712,7.71712,0,0,0,1.17671-1.519c.03025-.05152.06342-.1003.09367-.15143l75.57484,16.95462A189.54612,189.54612,0,0,0,344.3557,221.71855Zm-15.00221,8.04419,7.77138,4.48654a189.58142,189.58142,0,0,0-41.24741,5.26867l-52.473-56.97321c.02908-.05113.0564-.103.08528-.15416a7.74323,7.74323,0,0,0,.7271-1.78049Zm25.49,14.71613,30.73914,17.7471c-19.02353,2.21214-37.54749,8.79725-52.11493,14.86952a42.95666,42.95666,0,0,1-10.761-8.44736l-19.576-21.255C319.32,243.97306,339.66953,242.36254,354.84347,244.47887Zm-38.55248,38.065a57.21288,57.21288,0,0,0,21.66752,12.03448l3.47335,21.96921a5.26172,5.26172,0,0,0,.51693,1.55334,195.66084,195.66084,0,0,0-27.32843,35.3252C311.06818,332.18966,312.76319,305.13794,316.291,282.54388ZM563.53911,119.51867a27.09761,27.09761,0,0,1-46.29186-.097C532.09706,119.43466,548.596,119.474,563.53911,119.51867Zm-23.11646,28.9447A43.17408,43.17408,0,0,0,580.185,122.11993a39.96618,39.96618,0,0,1-79.52473,0A43.17408,43.17408,0,0,0,540.42265,148.46337ZM496.10876,161.899a13.71288,13.71288,0,0,0,1.33907-10.5509,54.32535,54.32535,0,0,0,87.07989-1.51168,13.73786,13.73786,0,0,0,10.384,18.74389,283.13491,283.13491,0,0,0-13.81106,29.97438,13.75725,13.75725,0,1,0-8.13435,23.73721,286.67068,286.67068,0,0,0-6.90065,28.7922,13.75239,13.75239,0,1,0-3.31236,23.27355,274.024,274.024,0,0,0-1.28072,34.56531,35.15535,35.15535,0,0,0-41.48626-.43693,273.99923,273.99923,0,0,0-1.28853-34.135,13.7543,13.7543,0,1,0-3.31236-23.27355,286.59916,286.59916,0,0,0-6.901-28.79181A13.75414,13.75414,0,1,0,500.35,198.548a283.12877,283.12877,0,0,0-13.81106-29.974A13.72776,13.72776,0,0,0,496.10876,161.899ZM547.9579,412.43584,584.48362,535.4853c-13.26837-10.87064-27.64554-24.81538-36.52572-41.04407Zm-21.96238-25.59029-4.82628,16.25913c-31.20983,27.97631-58.45571,58.09392-65.26582,104.08916-.00293.01912,0,.03766-.00273.057a180.17262,180.17262,0,0,1-43.6301,4.6569C435.15658,459.583,476.075,414.68233,525.99552,386.84555Zm7.49506,25.59029v82.00539c-8.88038,16.22869-23.25755,30.17342-36.52592,41.04407Zm-58.06679,105.469q6.59633-2.13565,13.08357-4.765l-3.67455,12.3791Zm-8.27-13.65456c6.25473-33.88231,25.10595-58.72774,48.0661-81.10266l-20.92481,70.4937A183.41319,183.41319,0,0,1,467.15381,504.2503Zm66.33676,7.29679v35.48678c-5.75477,14.199-17.32344,31.01839-28.37947,43.3288l-8.61967-27.58153a42.96085,42.96085,0,0,1-1.93523-13.54332C507.09844,539.65941,522.06475,526.91461,533.49058,511.54709Zm0,55.94871V674.775a7.72876,7.72876,0,0,0-1.90479-.26052c-.05874-.00039-.11728-.00273-.176-.00332l-23.10514-73.93037A189.57317,189.57317,0,0,0,533.49058,567.4958Zm0,162.17566v26.37047l-43.699-26.6105,6.49358-42.591a212.39923,212.39923,0,0,0,24.7059,2.83523Zm7.23357,53.85756,17.29515,55.64272c-.593-.22324-1.18979-.44024-1.79785-.63929a42.9041,42.9041,0,0,0-33.47251,2.82216l.00585-.01405Zm-6.7982,103.98983a26.70538,26.70538,0,0,1,14.51045-.83755l-7.45525,15.6015Zm27.40317-27.818-5.88337,12.312a42.58047,42.58047,0,0,0-28.42865,1.04792l-5.16856-10.816a27.12816,27.12816,0,0,1,39.48058-2.54389Zm14.56412-30.478-4.4237.99972-18.38639-59.15394,16.36919-9.9683,12.6482,43.55614a5.26294,5.26294,0,0,0,2.30581,2.9814,5.1432,5.1432,0,0,0,1.52134.58582Zm-27.93533-73.182v-26.3693l12.49931-39.99576a212.39437,212.39437,0,0,0,24.7059-2.83523l6.49319,42.58921Zm2.081-81.52963c-.05893.00059-.11767.00293-.17641.00332a7.72591,7.72591,0,0,0-1.9046.26052V567.4958a189.53934,189.53934,0,0,0,25.186,33.085Zm-2.081-127.47745V511.54709c11.42563,15.36733,26.39213,28.11232,38.93418,37.69073a42.96785,42.96785,0,0,1-1.935,13.5441l-8.61986,27.58075C565.28115,578.05265,553.71267,561.23287,547.9579,547.03367Zm18.27047-123.886c22.96,22.37472,41.81137,47.22035,48.0661,81.10227a183.43261,183.43261,0,0,1-27.14129-10.60857Zm39.79593,94.75761-9.40883,7.6137-3.67435-12.3791Q599.42827,515.75555,606.02431,517.90524Zm19.52329-10.65482c-.00254-.01912.0002-.03747-.00273-.05659-6.81011-45.99524-34.056-76.11285-65.26582-104.08916l-4.82628-16.25913c49.92054,27.83678,90.83894,72.73726,113.72474,125.062A180.181,180.181,0,0,1,625.5476,507.25043ZM758.74489,268.652a42.97627,42.97627,0,0,1-10.76214,8.44736c-14.569-6.07207-33.092-12.65542-52.11649-14.86718l30.74207-17.749c15.17316-2.11594,35.52269-.50581,51.71215,2.91368ZM766.832,353.43a195.66359,195.66359,0,0,0-27.32941-35.32481,5.26725,5.26725,0,0,0,.51771-1.55373l3.47277-21.96882a57.20429,57.20429,0,0,0,21.66713-12.03487C768.6888,305.14243,770.38342,332.19415,766.832,353.43Zm-47.08023-53.043,12.55161-3.006-1.89308,11.97593Q725.2594,304.70863,719.75178,300.387Zm2.97183,22.93849c-32.47026,11.52574-63.41176,7.62171-94.26838-1.07465L699.966,305.12526A183.45825,183.45825,0,0,1,722.72361,323.32548ZM610.04172,311.78374l71.02215-41.005c18.49528-.42814,37.75864,5.05343,53.80545,11.11047ZM737.094,221.72323a189.57455,189.57455,0,0,0,16.0595-38.353l75.576-16.95579c.03005.05093.06284.09933.09289.15007a7.72474,7.72474,0,0,0,1.1771,1.51938Zm-17.72036,10.231L688.6284,249.705c7.60063-17.5861,11.1575-36.91113,13.18153-52.56746a42.95286,42.95286,0,0,1,12.70148-5.09792l28.19467-6.32556C737.573,201.444,728.792,219.87191,719.37359,231.95419Zm-34.94448-39.67241-20.763-7.97609a5.24208,5.24208,0,0,0-1.601-.32121,195.64787,195.64787,0,0,0-16.92964-41.33756c20.16609,7.54228,42.7465,22.53513,60.55077,36.8881A57.18723,57.18723,0,0,0,684.42911,192.28179Zm-8.01746,8.29085-8.8796,9.36785q-.97913-6.9309-2.43909-13.71583Zm-22.87526,24.133L602.95,278.07393c7.89744-31.0703,19.98812-59.81879,46.20287-82.17673A183.40574,183.40574,0,0,1,653.53639,224.7056Zm37.5633-18.59929c-2.782,16.9396-7.68552,36.35478-17.31505,52.16879l-70.97707,40.97869ZM608.12092,327.12043c23.93118,7.83422,47.81339,14.04387,72.44806,14.04387a134.9053,134.9053,0,0,0,50.33-9.56611c.01815-.00722.033-.01893.05093-.02634a180.17246,180.17246,0,0,1,25.84749,35.455c-56.76011,6.3441-116.10256-6.64287-165.16915-35.95668ZM764.1726,435.21412l-21.81349,45.64866a27.1747,27.1747,0,0,1,19.84547-45.7275C762.86163,435.13528,763.5177,435.16572,764.1726,435.21412ZM721.191,448.89833a43.17382,43.17382,0,0,0,12.66947,45.98392A39.93815,39.93815,0,0,1,758.55131,419.315,43.16547,43.16547,0,0,0,721.191,448.89833Zm81.89475-95.11686L784.768,392.11422a195.86377,195.86377,0,0,0-10.42494-25.10048c7.59985-26.05571,4.97186-64.82245-.25447-93.66519L792.901,252.92193C800.2932,281.52367,804.15489,317.79376,803.0857,353.78147Zm-17.512-114.26041a189.58073,189.58073,0,0,0-41.24682-5.26808l92.9057-53.64a7.75834,7.75834,0,0,0,.7273,1.78029c.02908.05113.0564.103.08528.15416ZM790.435,119.68834a196.13316,196.13316,0,0,1,29.948,33.77108L794.59,159.2462c-7.9837-14.31492-19.96822-27.65793-34.371-39.55786Zm-47.369,0c17.196,12.32544,31.69027,26.5623,40.95137,41.93L757.108,167.65531c-15.51934-16.08311-36.31711-32.8461-59.60491-47.967Zm-64.92959,0c25.83773,15.38577,49.4118,33.28088,67.07733,50.63574l-27.09719,6.0791c-22.36614-18.94781-54.626-40.60724-80.9887-47.05194q-3.25323-4.93693-6.82025-9.6629Zm-32.01167,64.96218c-.01542.0119-.03317.01893-.0484.031-36.42639,28.896-48.88589,67.55-57.50946,108.56672l-11.66819,12.30963c-.853-57.14923,17.57283-115.03571,51.44383-161.02041A180.17012,180.17012,0,0,1,646.12466,184.65052Zm-34.11883-63.09368c2.56613,3.07594,5.03918,6.22311,7.39085,9.45508a7.748,7.748,0,0,0-1.33244,1.358q-5.234,6.90236-10.00967,14.15237a13.71324,13.71324,0,0,0-20.68634-1.05133,54.0479,54.0479,0,0,0,7.36841-25.84583c9.58328.03649,15.65419.06323,15.65419.06323C610.9263,120.31329,611.47895,120.92516,612.00583,121.55684Zm-140.32353-1.8685c-.06127-.12255,5.50245-.19583,14.42205-.23476a54.06212,54.06212,0,0,0,6.708,24.861,13.63894,13.63894,0,0,0-19.41713,2.20112q-4.78325-7.23766-10.00987-14.15227a7.739,7.739,0,0,0-1.33224-1.35781C464.40346,127.77576,469.11793,122.76234,471.6823,119.68834ZM504.553,305.55145l-11.66917-12.31061c-8.62181-41.01421-21.08151-79.66758-57.50985-108.56437-.01522-.0121-.03278-.01912-.0482-.031a180.17749,180.17749,0,0,1,17.78183-40.11392C486.97879,190.51594,505.40577,248.40242,504.553,305.55145Zm-53.4337-185.86311q-3.54419,4.72778-6.79684,9.65617c-26.36306,6.44655-58.62334,28.1053-80.98889,47.0536l-27.09543-6.07832c17.66319-17.353,41.24116-35.24207,67.07343-50.63145Zm-67.187,0c-23.27941,15.12106-44.07347,31.88249-59.58969,47.96267l-26.90907-6.03656c9.258-15.36342,23.73955-29.60214,40.92815-41.92611Zm-92.96073,0h30.25616c-14.4,11.89944-26.38491,25.24059-34.368,39.554l-25.79226-5.78619A196.01819,196.01819,0,0,1,290.97156,119.68834Zm-95.70444,0h51.6661l12.67025,10.139a212.33087,212.33087,0,0,0-14.80785,19.97836l-40.887-9.17241-22.83819-13.18485ZM147.16394,74.92719A19.18335,19.18335,0,1,1,166.3473,55.74384,19.18336,19.18336,0,0,1,147.16394,74.92719Zm59.97881,128.73866-29.33938-61.39818,18.87132,10.89465,28.38786,30.823a212.30064,212.30064,0,0,0-9.89746,22.81321Zm15.541,32.52217A196.12851,196.12851,0,0,1,236.344,196.23441l17.93053,19.46865c-8.55508,14.32195-14.16466,31.72871-17.23524,50.52666Zm22.7613,47.63229c1.82693-22.44693,6.99354-43.50931,16.18107-60.13492l18.66583,20.267c-7.02964,24.47876-11.39773,55.33635-12.19157,87.27816Zm43.10458-30.90189L307.36339,273.346c-5.22632,28.84294-7.85354,67.61007-.25447,93.66519a195.91121,195.91121,0,0,0-10.214,24.47719L278.34385,352.667C277.3855,317.0448,281.23392,281.22549,288.54964,252.91842Zm69.21727,265.95551a196.4953,196.4953,0,0,0,45.72653,8.219c18.76106,19.6154,53.65929,36.73023,81.25995,46.62867l8.28363,26.50629c-40.18329-11.15048-90.08393-36.02811-128.35423-66.88121Zm22.84755,47.81319A79.68043,79.68043,0,0,0,376.95124,555.32c38.34094,26.76486,83.52985,47.53414,119.72188,56.54292l8.22606,26.32149c-36.90879-.69393-80.72564-22.88424-114.558-51.14272Zm19.75395,41.33834c33.09257,23.68023,72.07417,40.52108,106.23749,40.52108.50971,0,1.01435-.02186,1.52251-.02927l7.8951,25.26362c-36.169-3.10043-70.61645-16.0915-102.75789-38.76577Zm69.9393,146.36087-12.58361-26.33359,15.18838,9.24881Zm-24.81538-51.9311-19.6554-41.13266a222.31647,222.31647,0,0,0,55.26083,22.292l-5.6533,37.08012Zm45.16881,94.52382-9.853-20.61882a7.62616,7.62616,0,0,0,2.35167-3.6843,39.82646,39.82646,0,0,0,.73413-4.5601q1.4141-9.27671,2.8284-18.55343.26871-1.76214.53742-3.52389l15.59194,9.49449-12.0458,41.48177Zm8.60523,7.92847c1.8804-4.4438,2.79191-9.58543,4.13508-14.21052q4.29705-14.7979,8.5943-29.5958l16.369,9.96811-18.38639,59.15355-3.84705-.86936-10.23409-21.417A5.08079,5.08079,0,0,0,499.26637,804.90753Zm92.10346-8.07249-.72749.17875-12.046-41.482,15.59194-9.49508s3.94833,25.89725,3.95106,25.90818a7.82446,7.82446,0,0,0,2.81494,4.83291Zm19.89484-41.63379-2.72927-17.90165L624.4505,727.608Zm25.418-53.19134-30.679,18.68281-5.6531-37.07817a222.57571,222.57571,0,0,0,55.97583-22.71291Zm32.28936-67.571c-32.36761,23.02143-67.08045,36.21623-103.54724,39.342l7.89549-25.26362c.508.00742,1.01162.02927,1.52212.02927,34.433,0,73.761-17.11015,107.02118-41.08622Zm31.47776-65.8731-8.48717,17.76056c-33.9553,28.60076-78.21805,51.1599-115.41351,51.8589l8.22626-26.32227c36.21369-9.01425,81.436-29.80324,119.79232-56.59171A87.02544,87.02544,0,0,0,700.44978,568.56577Zm17.15074-35.89131c-38.37724,31.16436-88.71461,56.32182-129.18905,67.55348l8.28383-26.50629c27.60046-9.89844,62.49888-27.01366,81.25956-46.62867a196.54474,196.54474,0,0,0,46.33166-8.41028ZM813.383,332.232c-.72671-32.29814-5.12056-63.54251-12.22357-88.2771l18.66544-20.267c9.31282,16.85178,14.49152,38.26367,16.25172,61.054Zm31.15909-65.20571c-3.04131-19.102-8.69031-36.79678-17.36559-51.32069l17.92975-19.46807A196.17049,196.17049,0,0,1,858.9306,236.9159Zm30.39335-63.60359-8.65011,3.37793a212.33054,212.33054,0,0,0-9.89786-22.81243l28.38786-30.82374,19.57735-11.30279ZM932.08273,74.92719a19.18335,19.18335,0,1,1,19.18335-19.18335A19.18336,19.18336,0,0,1,932.08273,74.92719ZM335.85292,405.68974h0v0Z"/></svg>