<svg id="Слой_1" data-name="Слой 1" xmlns="http://www.w3.org/2000/svg" viewBox="0 0 1003 1030"><title>Christmas flags</title><path d="M963.00938,10.98264H39.99082A21.12156,21.12156,0,0,0,20.93324,41.2107l461.50933,965.79189a21.1216,21.1216,0,0,0,38.115,0L982.06657,41.2107A21.12127,21.12127,0,0,0,963.00938,10.98264ZM752.13331,119.6883c-6.37357,6.60228-14.53729,11.39207-23.252,12.0134-5.92435.41683-13.89126-2.98413-19.88616-8.47155a32.88854,32.88854,0,0,1-3.3387-3.54185ZM351.76155,400.19661c8.36169,14.913,12.98434,18.74291,14.18017,20.91447.65949,1.19759-.96479,2.06032-1.81717,2.52144-3.37481,1.82556-5.04991,2.76869-8.37291,4.71563-8.793-3.511-15.62335-19.72858-21.00462-28.31488-5.62237-8.97073-18.19115-24.95139-14.0345-35.68466,4.63894-2.65824,6.979-3.94072,11.69542-6.41318a1.99357,1.99357,0,0,1,2.58389.67676c.56806,1.053.56884,10.51314,3.89418,16.48745.49908.89668,1.28658,2.3103,3.01428,1.40093.814-.42892,2.061-2.04081,3.81456-4.08532a24.89069,24.89069,0,0,1,7.79158-6.08905c12.60478-6.19443,23.07031,6.35718,26.93122,16.69625,2.73805,7.33172,10.40542,27.89864,7.66493,29.06325-3.67864,1.5629-5.50694,2.37782-9.13855,4.07459-.78516.36706-3.01974,1.71726-3.63386.49683-.2691-.53469-3.22015-17.83647-8.14771-28.06822-5.74267-11.92383-9.55206-13.11772-14.49543-10.68155C342.3978,382.97776,348.79371,394.90355,351.76155,400.19661ZM301.293,322.89885l28.082-24.30918,24.29356-.12177c-4.97839,3.56566-9.91034,7.37017-14.76677,11.35538Q319.92219,315.65767,301.293,322.89885Zm102.62207,54.49743c5.39551,16.07843,10.86908,21.91809,11.27352,23.34224.36014,1.26824-1.67813,1.95046-2.67834,2.27108-2.90988.93317-4.35979,1.41947-7.2481,2.43187-3.34017,1.17086-3.99448,4.25178-14.21062-22.06366-8.54971-22.02327-11.3266-26.64523-8.34286-27.82195,3.57385-1.3,5.36849-1.9245,8.971-3.12229,1.62749-.54133,3.40925-1.46553,4.07449-.07415.53225,1.1131,1.34815,2.6036,3.50321,1.93289,1.61579-.50249,3.03048-2.41392,4.92473-4.333,1.86489-1.88918,4.18358-3.94657,7.17014-4.74139,5.64022-1.50065,11.20961,1.06412,12.30153,5.52938,1.41586,5.78951-3.73055,10.70536-6.87206,11.53472-1.256.33135-1.32668-5.64159-8.644-3.535C399.229,361.3118,402.288,372.54736,403.91511,377.39628Zm4.02336,92.42408,7.11033,36.987a10.45281,10.45281,0,0,0,20.52964-3.947l-9.80858-51.01861q7.18278-1.41615,14.40166-2.55833c5.75019,28.39489,16.11892,56.83856,31.94161,80.74984q-2.52305-1.08246-5.17442-1.94909c-13.18846-4.2951-26.09571-3.60078-36.33214,1.95416a41.39924,41.39924,0,0,0-15.90017,55.16892,12.06043,12.06043,0,0,0,21.0257-11.821,17.36036,17.36036,0,0,1,6.38352-22.14894c4.23363-2.29859,10.7198-2.37938,17.35145-.219,7.72767,2.51832,14.6253,7.79851,17.16216,13.138,7.42949,15.63877-.43966,37.45382-12.45062,48.01614-12.0699,10.61149-30.581,14.487-47.15907,9.86214-25.24645-7.03374-41.90162-28.21731-45.69521-58.11948-1.69667-13.37511-.5583-25.38851,3.24543-35.04829.33984-.46854.68759-.93259,1.01523-1.408a12.01419,12.01419,0,0,0,1.81064-4.12142ZM435.6168,334.23413c-4.5605.85336-9.18734-.1565-9.98694-3.72743-.79989-3.57249,3.05858-6.66316,7.77411-7.54579,4.71446-.88263,9.461.59733,10.07075,4.20553C444.08426,330.77307,440.17632,333.38057,435.6168,334.23413Zm8.10186,6.60169c.54357,3.1-.38453,6.65262,1.41362,15.55291,2.32845,11.52535,7.0355,23.8945,9.9401,34.23357.65812,2.34289-2.4508,2.63326-4.60177,3.01184-2.54418.44766-3.81427.68573-6.34947,1.19057-4.56733.90956-4.53552,2.76947-11.19263-26.446-6.46812-28.38572-4.06786-26.04907-.387-26.78691,2.45324-.492,3.68177-.72671,6.14223-1.174C443.38145,339.56427,443.54225,339.82966,443.71866,340.83582Zm30.01028,7.58678c3.51072,8.49614,31.26242,8.37476,31.44156,24.79137.11757,10.76956-10.4584,17.15445-21.75914,17.83218-9.98225.59831-20.53247-3.35061-21.87379-13.21256-.53879-3.96121,1.22062-9.328,2.03661-9.42522.50981-.06049,4.501,12.08834,18.42922,11.22151,4.022-.25056,9.5182-3.58888,8.52249-6.535-2.97915-8.8154-27.3777-6.535-29.98677-21.11215-1.7396-9.71969,9.06069-17.253,21.3388-17.91687,14.21208-.76828,22.01361,5.88337,21.997,7.584-.01581,1.61539-6.13979,8.49224-8.6265,8.533-2.81231.04644-3.65123-6.6214-13.7936-6.04319C478.03711,344.33435,473.04525,346.76778,473.72894,348.4226Zm66.94122-10.856c1.46426.17,2.86929-.08645,4.33354.10186,4.27842.55011,4.05107,2.86451,3.62586,5.72589-.17514,1.17808-.64934,4.36711-2.944,4.05839-.87492-.11767-2.96091-1.16149-4.93556-1.397-6.03431-.71988-6.61389,4.74764-7.41251,12.27489-2.38689,22.49669,2.61589,26.81325,2.43568,28.24834-.159,1.26648-11.64575,4.89107-13.8096,4.73144-3.576-.26383-3.36661-19.22589-3.08238-23.89411.63568-10.44055,1.52748-14.47689,1.62905-16.08916.16021-2.54584,1.43723-7.0193-3.52468-7.25854-1.98451-.09523-3.12951.882-4.33891.83892-1.42972-.05054-1.28268-1.14842-1.232-2.67873.21358-6.45768,2.73317-7.16214,7.03764-6.94222.453.02322,1.22628.40492,2.131.45683,3.507.201,4.1665-3.93233,4.93478-6.84328.83238-3.15351,14.13061-4.38057,16.46979-4.11069.81892.09425,1.383.33467,1.18227,1.938-.2853,2.27849-4.34574,7.03647-4.46224,8.05083C538.53315,336.29991,538.98129,337.37086,540.67016,337.56659Zm-9.34453,108.16355c-5.74706,26.36852-16.00759,52.46209-31.61085,73.40485-15.3404-20.97867-25.345-47.01037-30.87379-73.29791A387.1837,387.1837,0,0,1,531.32563,445.73014ZM480.10583,630.2854a71.442,71.442,0,0,0,19.24385-28.98227A68.12846,68.12846,0,0,0,545.629,645.52764a189.55158,189.55158,0,0,1-46.87358,89.10763,189.54325,189.54325,0,0,1-46.07934-89.52172A71.28674,71.28674,0,0,0,480.10583,630.2854Zm54.31682-17.7994c-11.91632-10.66926-19.59237-32.55339-12.02365-48.12542,2.58623-5.31843,9.52894-10.53675,17.27866-12.986,6.64706-2.1013,13.13782-1.96451,17.34881.37546A17.3606,17.3606,0,0,1,563.214,573.955a12.06,12.06,0,1,0,20.91856,12.00794,41.40063,41.40063,0,0,0-15.40831-55.30844c-10.18833-5.648-23.08143-6.46256-36.31331-2.27986q-2.65492.83833-5.18915,1.90167c16.171-23.97314,26.83247-52.60552,32.807-81.19067q7.22215,1.11934,14.41113,2.51247L563.995,503.43143a10.45177,10.45177,0,0,0,8.18138,12.31158,10.56934,10.56934,0,0,0,2.02929.20822,10.45593,10.45593,0,0,0,10.282-8.38979l7.43993-36.92069,30.06619,53.78965a12.00647,12.00647,0,0,0,1.77278,4.13391c.32335.4783.6669.94527,1.00245,1.41693,3.71689,9.693,4.74871,21.71611,2.93193,35.07405-4.05839,29.867-20.9011,50.90309-46.20921,57.71319C564.86752,627.24507,546.39546,623.20287,534.42265,612.486Zm69.55545-204.17476c-.89483-.34345-3.46808-1.12344-2.91583-2.55481.55284-1.43294,7.48715-8.84545,12.7888-22.06679,6.06388-15.12242-.37936-19.35625-4.3674-20.72557-3.673-1.26121-7.07755-2.60965-11.51881,10.73151-9.66368,29.02949-10.14237,28.95066-13.06356,28.0608-3.28611-1.00069-4.93566-1.47626-8.24558-2.37684-1.74663-.47537-3.312-.52747-2.999-1.678.33555-1.2333,8.57059-16.755,10.79668-24.53515,1.40571-4.91253,4.73476-16.57975-4.06405-18.72828-8.0477-1.96509-12.7607,5.142-15.46783,17.53205-3.6523,16.715-1.70526,20.437-2.23644,22.76072-.32247,1.41088-1.93845.80048-2.96218.58738-2.9413-.612-4.41541-.89883-7.36929-1.43352-3.17742-.57528-5.5046,1.72936-1.37361-23.02709,1.7197-10.3057,2.16989-37.30337,19.69824-31.67973,2.03612.65334,4.80686,1.10353,4.52088,2.34874-.22841.99445-1.92079,2.28357-2.18277,3.44623-.187.82975.78174,1.64662,1.87991,1.89035,1.31731.29213,3.13234-.32335,5.73682-.68729a26.31934,26.31934,0,0,1,10.85484.74759c5.39229,1.46553,7.711,6.27034,10.4064,7.10575a17.76219,17.76219,0,0,0,6.847.58719,24.04518,24.04518,0,0,1,10.72448,1.21457c16.81265,6.45534,12.00335,23.76141,6.10242,36.3497-10.94011,23.33834-12.9538,19.59237-15.52891,18.53606C607.624,409.726,606.41164,409.24481,603.97811,408.31124Zm25.82622-6.05841c3.46994-6.53769,11.64995-8.64582,18.51586-8.65733a31.54559,31.54559,0,0,1,10.58281,1.711c2.03807.72632,3.04345.979,3.28406,3.23723.15182,1.42825-1.16618,5.27257-2.69366,5.7856-1.34717.45254-4.23168-1.31585-5.92689-1.54846-3.71543-.5101-8.50941.28842-10.48553,3.88608-3.80871,6.93422,6.58579,15.647,12.94814,11.18151a14.36407,14.36407,0,0,0,3.36241-3.728,82.401,82.401,0,0,0,6.46373-11.07437c3.315-6.85538,3.77143-14.01381-3.63132-18.09855-10.09163-5.56724-12.12824,1.85815-14.29014.76886-3.14366-1.58417-5.131-6.22116-3.49892-9.50991,2.80967-5.66208,13.32935-5.2355,22.71573-.06186,3.26484,1.79981,17.25992,10.03328,15.34567,23.10378-.80721,5.40781-15.10252,26.34354-16.81139,28.80684-2.14755,3.09536-2.75318,5.36683-4.4197,7.7544-1.02967,1.47528-8.78944-3.49989-16.26733-7.85334C624.74836,416.16771,627.47773,406.63692,629.80432,402.25283Zm29.78011-93.3155q-5.87054-4.77915-11.86353-9.15963l24.2921.33779,24.103,21.24387Q678.022,314.48994,659.58444,308.93733Zm-62.41009-33.87373c-.24764-.01873-.49742-.01639-.74642-.02069l-35.76193-20.86.18461-41.40118c.12226-.21622.25076-.42912.35994-.65139,36.11095-24.19814,91.1338-43.88047,139.84533-38.17C681.24474,218.82687,636.35294,256.23932,597.17434,275.06361Zm-.66671-129.12036,58.80951-19.801a10.42354,10.42354,0,0,0,6.52012-6.454h16.61449a50.35991,50.35991,0,0,0,14.25843,21.33578c1.37147,1.25516,2.79357,2.43344,4.25129,3.54341-38.22474-2.67775-78.7024,7.10711-112.89226,22.24359ZM574.69376,119.6883l2.93007,15.24146-12.04111,21.09907A282.11208,282.11208,0,0,0,559.59,119.6883Zm-101.73573,0h57.00717A245.28806,245.28806,0,0,1,537.386,198.2377c-.13816.20256-.25866.41722-.38541.628l-35.95073,20.54272-35.7634-20.86119c-.12509-.21232-.24393-.42853-.38072-.63265A245.276,245.276,0,0,1,472.958,119.6883ZM460.64449,272.1107c.215-.13133.42863-.26344.635-.40668.17163-.11865.335-.24432.499-.3696.15953-.12255.31857-.24471.472-.37428.1849-.15592.36131-.31808.53567-.48278.12216-.11533.24364-.23046.36111-.35048.179-.183.3496-.37116.51625-.56318.10489-.1206.20851-.24159.30891-.36609.15621-.194.30462-.39224.44844-.59421.10157-.14187.2008-.28491.29662-.43107.12372-.18929.2409-.3819.35418-.57723.10108-.17368.19885-.34872.292-.52728.09172-.177.17807-.35594.26139-.53664.09435-.20353.18441-.40863.26822-.61782.068-.17016.13036-.34189.191-.51479.07718-.21973.15065-.441.21632-.66622.05259-.18031.09786-.36219.14255-.54484.0524-.21524.103-.43068.14441-.65022.04088-.215.072-.43166.102-.649.02566-.18851.05259-.37585.07006-.56709.02478-.2652.03561-.53137.04391-.79853.00332-.11065.01766-.21817.01815-.3296l.14216-31.88112,27.53821,16.0634c.00985.00566.02029.00917.03015.01483a12.79976,12.79976,0,0,0,1.16442.57918c.12636.05737.24842.13075.37575.18363.19748.08137.40434.13523.60553.20666a12.78167,12.78167,0,0,0,4.23636.77l.0119-.00078.0119.00078a12.77747,12.77747,0,0,0,4.23919-.731c.20314-.06986.41165-.12216.61119-.20236.12782-.05171.25047-.12411.37731-.18012a12.89973,12.89973,0,0,0,1.16969-.56865c.00976-.00585.02029-.00917.03025-.01483l27.68223-15.81791-.14226,31.8821c-.00049.11143.01288.21934.01512.33018.006.26637.01444.53216.03678.797.0159.19261.04108.38209.06537.57216.028.21563.05669.43049.09533.644.04.22246.08908.441.14041.65958.04225.17953.08538.35867.13533.53625.0643.22929.1368.45429.21339.67832.05805.16977.11767.33877.18275.5062.08313.21349.17319.42307.26735.6309.07991.177.16236.35223.25027.52552.09416.185.19319.36609.29584.546.10821.19007.22032.3778.33867.56279.09864.15377.2009.304.30579.45312.13748.19631.27915.38912.42814.578.10469.1325.2131.2613.32286.38951.15943.18656.32257.37.49371.54816.12284.12821.25008.25115.37819.37409.16626.15924.33409.31652.5101.46776.1606.13836.32716.2691.4944.39946.15455.11982.308.24022.46932.35418.21544.1528.43858.29389.66358.43341.09484.05854.18168.12528.27837.18187l27.53811,16.063-1.46552.83755a551.22912,551.22912,0,0,0-132.39818-.10167l-2.30093-1.342L460.341,272.30506C460.44662,272.24476,460.54136,272.17334,460.64449,272.1107ZM428.16867,119.6883h15.104A282.20341,282.20341,0,0,0,437.08652,155.46l-11.8529-21.20621ZM310.09732,139.31892a51.08312,51.08312,0,0,0,13.89-19.63062h17.77754a10.4091,10.4091,0,0,0,5.85576,5.085l58.63476,20.32513,12.25187,20.97808c-34.05453-15.44051-74.44662-25.58483-112.69682-23.249C307.27955,141.72971,308.71346,140.56315,310.09732,139.31892Zm130.86153,72.27751c.107.22266.23349.43634.3534.65295l-.18461,41.40118L405.178,274.19327c-.24705.00215-.49459-.00273-.74047.01366-39.01058-19.1732-83.56976-56.98511-102.97986-102.02747C350.21641,166.90259,405.06695,187.07786,440.95884,211.59642ZM295.718,119.6883c-.55479.57567-1.13446,1.14237-1.74721,1.69326-6.04368,5.43454-14.08,8.76134-19.961,8.29456-7.70191-.61821-14.94162-4.49512-20.88129-9.98782ZM114.0773,84.51882a19.18335,19.18335,0,1,1,19.18335-19.18335A19.18336,19.18336,0,0,1,114.0773,84.51882Zm29.02422,35.16948h79.62318a76.17137,76.17137,0,0,0,7.7624,11.09877c-12.029-2.24941-24.38616-1.543-34.74641,1.85581a71.30073,71.30073,0,0,0-26.70251,16.10068A185.9081,185.9081,0,0,1,143.10153,119.6883Zm49.46381,136.09283L168.7448,205.93259a60.80369,60.80369,0,0,1,2.07427-14.74989c4.43736-16.62834,17.17162-30.61054,32.44108-35.62084,15.19258-4.98688,37.98647-.692,47.68791,13.651,3.31353,4.89731,4.36057,13.51971,2.60672,21.4556-1.50543,6.81011-4.86931,12.35724-8.99844,14.83654a17.35842,17.35842,0,0,1-22.32467-5.745,12.06033,12.06033,0,1,0-20.858,12.1141,41.39977,41.39977,0,0,0,55.60213,14.30907c9.98694-5.9987,17.1363-16.762,20.13155-30.30846q.60094-2.71844.94732-5.4443c16.79548,34.43925,45.50679,64.601,75.70832,86.641l-24.29113-.338-46.55657-41.03411a10.4525,10.4525,0,1,0-13.82267,15.68287l28.25624,24.90417-61.61245-.85746a12.00829,12.00829,0,0,0-4.47053-.53255c-.57714.04078-1.15447.105-1.7319.16021-10.25282-1.62788-21.17986-6.74649-31.84043-14.99831C195.901,258.6708,194.198,257.24118,192.56534,255.78112Zm41.65906,87.17922-18.8519-39.45111a57.83363,57.83363,0,0,1,14.05558-4.13177c.57567.0603,1.15144.12918,1.72692.17524.309.02517.61538.03747.9199.03883a11.9831,11.9831,0,0,0,3.56907-.53235l61.604-.30872-28.47665,24.65107a10.44641,10.44641,0,0,0-1.58173,14.077q-8.3633,3.91711-16.62141,8.13825A40.37657,40.37657,0,0,0,234.2244,342.96034ZM276.7737,446.635c-17.47273-16.497-11.65336-43.40725,6.93226-57.25812,8.63772-6.437,24.21648-12.98151,29.341-5.28779,2.752,4.13177.38551,8.942-5.659,13.12084-3.934,2.71951-3.51541-7.56629-15.68629,1.38122-11.11067,8.1683-12.94531,23.10944-3.71348,33.23483,8.65616,9.49449,23.095,10.06041,33.0833,2.80421,13.4962-9.804,7.92574-20.79875,8.73431-21.32427,1.25721-.81726,5.78463,4.42682,6.2479,5.13773,7.13385,10.94812-.32179,23.81039-9.22647,30.97136C312.36254,461.04731,289.69442,458.83419,276.7737,446.635Zm75.674,143.729-15.60218-32.65037q5.02035-2.20853,9.57655-4.72481a120.54946,120.54946,0,0,0,.97367,13.9621,110.20256,110.20256,0,0,0,5.49826,23.24584C352.7437,590.24651,352.59637,590.308,352.44767,590.364Zm1.8402-75.328c-.25271.51928-.48561,1.05046-.72613,1.57715-6.21824,7.67361-15.50578,14.27589-27.13368,19.29985l-16.99589-35.56679a41.94318,41.94318,0,0,0,9.372-10.557A391.68663,391.68663,0,0,1,386.6306,461.693l-29.64693,49.73886A11.99942,11.99942,0,0,0,354.28787,515.036Zm69.1236,223.8325L361.47021,609.24526l.44522-.35848a83.08485,83.08485,0,0,0,48.62889,36.38483,77.24243,77.24243,0,0,0,8.74475,1.86323,16.86182,16.86182,0,0,0,.28637,4.67758,220.90985,220.90985,0,0,0,18.5907,53.67178A122.00368,122.00368,0,0,0,423.41147,738.8685Zm37.33586,78.13219-21.21665-44.39975a107.606,107.606,0,0,1,10.65452-45.8963,221.37084,221.37084,0,0,0,27.81219,35.14157,123.04557,123.04557,0,0,1-4.63572,27.87386A98.87652,98.87652,0,0,1,460.74733,817.00069ZM501.5,902.28273l-24.89041-52.0878a130.87066,130.87066,0,0,0,8.46219-10.1853,129.48288,129.48288,0,0,0,13.31335-22.20846,129.47869,129.47869,0,0,0,13.11508,22.32633,132.52227,132.52227,0,0,0,12.636,14.78482Zm55.36894-115.86956-17.22772,36.05211c-.442-.5907-.89532-1.17359-1.32239-1.77483a98.32963,98.32963,0,0,1-14.6611-30.74636,123.05282,123.05282,0,0,1-4.38731-27.91367,221.365,221.365,0,0,0,28.12344-34.89276A108.73693,108.73693,0,0,1,556.86889,786.41318Zm18.90878-39.57a123.21667,123.21667,0,0,0-16.17678-40.81829,220.91317,220.91317,0,0,0,19.06763-53.5063,16.85527,16.85527,0,0,0,.32852-4.67231,77.2994,77.2994,0,0,0,8.76329-1.784,83.08985,83.08985,0,0,0,48.95019-35.95122l3.165,2.5956Zm73.37977-153.56048-.003-.00234a10.35817,10.35817,0,0,0-3.25606-1.77853,110.19387,110.19387,0,0,0,5.705-23.19745,120.48077,120.48077,0,0,0,1.09768-13.95215,120.288,120.288,0,0,0,12.20474,5.97411ZM675.324,538.52441c-.2372-.09757-.47293-.17719-.71032-.27691-12.42906-5.21559-22.26339-12.206-28.72731-20.3306-.236-.52923-.46425-1.06314-.71266-1.585a11.9998,11.9998,0,0,0-2.66487-3.63083l-30.2347-51.76777a391.402,391.402,0,0,1,66.6566,26.9198,42.32214,42.32214,0,0,0,13.12318,15.661Zm58.22144-103.25277c-1.16,1.14881-10.77639,1.60115-12.72177-.17934-2.20014-2.01349,1.87874-7.44783-6.30888-14.3079-2.759-2.31167-8.18528-4.15577-8.95727-2.44046-4.4557,9.90039,18.22012,27.37663,6.55876,40.55679-6.86328,7.75713-20.28464,4.61611-29.42768-2.99506-8.07561-6.72268-13.28427-16.96126-7.30313-25.00623,2.4026-3.23157,7.54814-5.8621,8.23758-5.35785.43068.315-5.191,11.79835,6.09735,21.14864,3.25967,2.7,9.57636,4.34955,11.1857,1.43723,5.08133-9.19593-16.72533-23.45152-7.93-36.54875,5.49777-8.187,19.13105-6.07129,29.02061,2.26834C733.444,423.5,734.76694,434.06194,733.54544,435.27164Zm34.07111-89.88605a40.93325,40.93325,0,0,0-14.316,1.48836q-9.13124-4.71417-18.38931-9.072a10.44914,10.44914,0,0,0-2.5191-12.334l-28.2578-24.90573,61.59791.85629a11.97885,11.97885,0,0,0,3.56917.56611q.4581.002.92205-.03064c.57811-.04118,1.15661-.10538,1.73512-.16041a58.07636,58.07636,0,0,1,14.37854,4.4157Zm41.45035-86.74249c-1.606,1.405-3.2787,2.78059-5.03567,4.11557-10.7316,8.15542-21.70177,13.17606-31.96825,14.71379-.577-.06049-1.15447-.12958-1.73151-.17582a11.992,11.992,0,0,0-4.46673.49352l-61.62806.30813,28.47665-24.65146a10.45186,10.45186,0,1,0-13.68041-15.80542l-46.92061,40.61748-24.29444.12177c30.39715-21.77095,59.376-51.67683,76.47757-85.96621q.32418,2.72634.89961,5.4564c2.87329,13.5726,9.92547,24.39933,19.85942,30.486a41.3987,41.3987,0,0,0,55.72751-13.8134,12.06029,12.06029,0,1,0-20.749-12.29968,17.3616,17.3616,0,0,1-22.37589,5.54655c-4.1061-2.516-7.4211-8.092-8.86487-14.91635-1.68379-7.9513-.559-16.56375,2.79718-21.4314,9.829-14.255,32.65574-18.34541,47.8087-13.226,15.22419,5.14553,27.83307,19.24072,32.121,35.90907a61.04977,61.04977,0,0,1,1.91972,13.51444Zm24.61223-106.93961A71.2879,71.2879,0,0,0,807.12,135.36571c-10.328-3.49209-22.678-4.309-34.7266-2.16667a75.88625,75.88625,0,0,0,9.21837-13.51074h80.54709A186.32405,186.32405,0,0,1,833.67914,151.70348Zm65.31695-67.18466a19.18335,19.18335,0,1,1,19.18335-19.18335A19.18336,19.18336,0,0,1,898.99609,84.51882Z"/></svg>