<svg id="Слой_1" data-name="Слой 1" xmlns="http://www.w3.org/2000/svg" viewBox="0 0 1003 1030"><title>Christmas flags</title><path d="M963.00928,10.98259H39.99081A21.12169,21.12169,0,0,0,20.93323,41.21085l461.50933,965.79179a21.1216,21.1216,0,0,0,38.115,0l461.509-965.79179A21.12137,21.12137,0,0,0,963.00928,10.98259Zm-70.40764,25.5779a19.18335,19.18335,0,1,1-19.18335,19.18335A19.1833,19.1833,0,0,1,892.60164,36.56049ZM755.71477,370.29234l-28.6597,15.6657-25.25035-20.2059,25.24977-20.2059,32.10085,17.54591ZM511.4142,659.39983a10.877,10.877,0,0,0,2.67932.3655c.08294.00078.16529.0039.24812.00468L546.851,763.78775a266.742,266.742,0,0,0-35.43575,46.55276Zm-.00059-77.24175V545.05629l61.48482,37.44036L563.762,642.42257a298.7238,298.7238,0,0,0-34.76046-3.98775ZM324.98693,357.29775c-.021-.01717-.03561-.03864-.05669-.05562l-28.77737-23.029,22.53874-12.31958,42.07,43.86154-42.07081,43.861-22.53728-12.3188,28.64428-22.92288c.03269-.02537.06459-.05191.1609-.13406C330.0829,369.87434,330.31463,361.612,324.98693,357.29775Zm-16.25279-90.93026,32.13149,18.55089L277.699,319.44545l-47.33031-37.87592a298.72011,298.72011,0,0,0,20.83416-28.109Zm-29.76528-60.998a298.73154,298.73154,0,0,0,13.9259-32.09831l56.46594,22.05078,1.68291,71.96762-32.13168-18.55109ZM376.0836,370.78761c.12948-.13523.22129-.29037.33838-.43263,4.966-6.03285-2.109-11.47812-5.92757-15.459-6.10349-6.36323-31.82707-33.18136-38.58526-40.2272L355.57,301.73582l59.14476,64.01944-59.14379,64.019L331.90953,416.841ZM596.75615,217.3247l34.33446-13.40829-.60055,25.67967-59.02075,14.505-16.94877-58.36575,21.93809-13.3595s5.55533,36.43791,5.55914,36.45293a10.92859,10.92859,0,0,0,14.73838,8.49595Zm-.11094-57.24212,35.98274-21.91233-.98489,42.11726-30.12376,11.7642Zm-37.19409,94.77166a7.29772,7.29772,0,0,0,8.7146,5.03157l61.97209-15.23053-.63031,26.95844L544.4933,290.826l-25.86993-83.23031,23.03157-14.02533ZM458.9524,313.40714l6.603,31.11811-31.9983,9.48532-54.108-58.56929ZM434.75992,376.198l30.24914,9.84087-7.78367,32.45269-77.77508,17.57537Zm23.21569,64.48564,25.87081,83.22894-23.03206,14.02572s-17.783-61.23377-17.79725-61.28314c-2.24288-7.723-10.5632-4.57884-15.97734-3.24835l-25.422,6.2477-29.287,7.19727.63-26.95668Zm17.34325-31.37375,5.04016-21.01477a14.06409,14.06409,0,0,0-9.31984-16.54365l-20.48066-6.66394,20.71913-6.14194a14.20411,14.20411,0,0,0,9.68193-16.27494l-4.48634-21.13869,15.67292,14.86718a14.229,14.229,0,0,0,18.94147.25349l16.0637-14.45367-5.04016,21.012a14.19691,14.19691,0,0,0,9.25193,16.52531l20.55,6.68521L531.194,372.56322a14.17833,14.17833,0,0,0-9.68193,16.27513l4.48488,21.13556-15.68648-14.87927a14.2135,14.2135,0,0,0-18.92947-.23846ZM544.4934,440.682l85.01587,19.21126.63041,26.95688L568.16758,471.622a7.32387,7.32387,0,0,0-8.7147,5.03138l-17.7953,61.28217-23.03187-14.02494Zm-.9762-22.58235-6.60238-31.1144,31.99684-9.48669L623.021,436.06533Zm24.19238-62.79043-30.24846-9.83931,7.78426-32.45406,77.77342-17.576Zm-42.28225-52.346-23.646,21.27607L477.567,301.2706l23.66706-76.1429Zm-67.45269-12.13673-85.01391-19.21106-.63031-26.95785q22.1244,5.43688,44.2488,10.87416c6.83216,1.67882,22.29188,9.20315,26.32335-.32413,2.64575-6.25258,3.92833-13.48693,5.818-19.99456q6.04617-20.8205,12.09224-41.6412l23.03157,14.02494Zm-26.9762-46.72429-59.02036-14.504-.60036-25.6783s34.26684,13.38175,34.3611,13.41531a11.36865,11.36865,0,0,0,14.50157-7.47789,55.90966,55.90966,0,0,0,1.0328-6.41611l3.98-26.10488q.37789-2.479.75589-4.9582L447.947,185.73727Zm-30.05-52.04741-30.12327-11.76362-.98489-42.11716,35.98215,21.91126Zm-30.1222,359.16368L400.9501,539.4547l4.87429,31.9705L369.84185,593.337Zm34.86662-37.03c-1.95924.56982-3.94472,1.54163-5.86366,2.291q-12.26284,4.78881-24.52588,9.57763l-3.92472,1.53265.60016-25.67889L430.999,487.40671l16.95013,58.36614L426.011,559.13235l-5.555-36.43557c-.00322-.02186-.15192-.80731-.24822-1.17183C418.553,515.29032,411.58853,512.474,405.69286,514.18855Zm85.36527,30.86618v37.1051l-17.58669,56.27538a298.69815,298.69815,0,0,0-34.76163,3.98892l-9.1367-59.92729ZM488.1302,659.77c.08284-.00078.16529-.0039.248-.00468a10.88124,10.88124,0,0,0,2.68-.3657l.00146,150.94146a266.67618,266.67618,0,0,0-35.43712-46.551ZM477.04139,428.54783l23.64891-21.27977,24.212,22.96757-23.66676,76.1472Zm77.48149,117.2219,16.94779-58.36341,59.021,14.503.60055,25.6785-34.33251-13.40672c-.01776-.007-.036-.01132-.05386-.01815a10.90845,10.90845,0,0,0-14.69008,8.532l-5.55475,36.43381Zm46.99866-6.31639,30.12327,11.76323.98489,42.1154-35.982-21.91067Zm-13.76784-173.7,59.14447-64.01944,23.66062,12.93272q-8.028,8.36959-16.05608,16.73938-12.0679,12.58176-24.13589,25.16332c-2.78147,2.9-7.18478,6.72658-5.79058,11.2541a10.96653,10.96653,0,0,0,2.968,4.17138q4.29852,4.48117,8.59684,8.96253,12.933,13.48361,25.86613,26.96683,4.276,4.45746,8.55156,8.91531l-23.659,12.93253Zm53.95279,0L683.77623,321.891l22.53825,12.319-28.77659,23.02845c-.02225.018-.03786.041-.0601.05893a11.08457,11.08457,0,0,0-4.01683,8.0399,11.44676,11.44676,0,0,0,4.07693,8.92916l.06362.05093c.016.01249.03142.02576.04742.03805l28.66633,22.93927L683.7774,409.61407Zm83.0619-46.311L661.60133,284.916,693.732,266.36476l57.53132-12.90794a298.7153,298.7153,0,0,0,20.83543,28.109Zm-73.34377-52.1561,1.68291-71.968,56.4633-22.05039a298.76571,298.76571,0,0,0,13.926,32.09812l-39.94229,43.36978Zm99.02226-57.17245a10.89772,10.89772,0,0,0-1.02255-2.5033c-.041-.0724-.07962-.146-.1206-.21817l73.82772-80.16158a264.45239,264.45239,0,0,0,45.43791,6.89255l-5.14124,10.75931Zm50.75673-89.12216-26.26217,28.51578a162.22457,162.22457,0,0,1-12.521-29.819h38.42583C800.96749,120.11776,801.08106,120.565,801.20361,120.99161ZM764.5971,160.73924l-25.22732,27.39185a276.39482,276.39482,0,0,1-21.71943-68.44275h29.48027A177.55686,177.55686,0,0,0,764.5971,160.73924Zm-61.78-8.24694-49.157,19.197,1.20852-51.68064.1849-.32033h40.411A300.7218,300.7218,0,0,0,702.81713,152.4923ZM593.08277,136.71644l-2.59618-17.02809h30.55824Zm-20.18648,12.293-61.48443,37.442V149.34971l9.26979-29.66137h47.74431Zm-81.84.34023v37.10335l-61.48472-37.44114,4.47073-29.32357h47.74431Zm-81.6714-12.63044-27.96762-17.03092h30.5642Zm-61.78534-16.70952,1.20862,51.68347-49.15968-19.1976a300.71816,300.71816,0,0,0,7.35221-32.80727h40.41327Zm-84.50371,68.12486-25.2284-27.392a177.55582,177.55582,0,0,0,17.46716-41.05421h29.48018A276.36186,276.36186,0,0,1,263.09582,188.13461Zm-35.57225-38.62322-26.26217-28.5148c.12294-.42814.237-.87717.35867-1.30824h38.42515A162.21029,162.21029,0,0,1,227.52357,149.51139Zm25.63781,57.88521c-.041.0722-.07942.14538-.12031.21739a10.89536,10.89536,0,0,0-1.02255,2.50369L139.77911,145.31659,134.416,134.09323a264.23834,264.23834,0,0,0,44.917-6.85792ZM155.29094,177.778l86.5492,49.96894a10.88775,10.88775,0,0,0-1.65677,2.13721c-.04225.0722-.08879.14089-.13123.2129L173.1158,215.07958Zm36.728,62.40463,36.29,8.14176a274.0999,274.0999,0,0,1-24.73205,30.50048l-15.39006-32.20642C189.52032,244.48765,190.81246,242.34576,192.01893,240.1826Zm21.62752,59.71478c.69559-.70271,1.41869-1.381,2.10667-2.09057l41.20594,32.9749-22.6406,12.37539ZM275.413,345.54955l25.24957,20.20571-25.24889,20.20551L247.4751,370.69l-3.73943-7.82563Zm2.28688,66.51552,63.16559,34.5259L308.7319,465.14439l-14.56022,3.2667-24.03354-50.29463Zm29.44164,83.48731,11.77045-12.78031L351.04381,464.221l-1.68213,71.967-19.21633,7.50423Zm41.66794,64.26415-.51108,21.86423-8.72446-18.25759Zm18.11075,60.83373,42.46646-25.86056,7.95433,52.17308a301.26239,301.26239,0,0,0-32.90016,10.35254ZM466.48278,660.798,455.379,696.32813c-15.79157-.23417-32.35132,2.14657-49.13451,6.61535l-12.35432-25.85373A276.87248,276.87248,0,0,1,466.48278,660.798Zm-15.65155,50.08271-11.57462,37.03719c-3.34973.83385-6.76347,1.75258-10.217,2.7283l-16.37553-34.2687A167.86412,167.86412,0,0,1,450.83123,710.88073ZM447.59507,789.477l3.534-11.30855c15.55613,17.32012,31.8337,40.98552,39.93087,60.96389l.0002,41.30361Zm63.82078,92.05487L511.41546,839.13c8.0959-19.97719,24.37318-43.64162,39.9298-60.96213l3.74216,11.9734Zm51.80143-133.61607-11.575-37.037a168.25028,168.25028,0,0,1,38.63473,5.62207l-16.37758,34.273C570.28576,749.74739,566.71786,748.78709,563.21728,747.91578Zm-16.12146-51.58453-11.1053-35.534a276.9424,276.9424,0,0,1,73.04178,16.45466L596.69048,703.0793C579.752,698.53129,563.034,696.1004,547.09583,696.33125Zm38.035-49.37043,7.95413-52.17191,42.87636,26.109-17.48122,36.5827A301.38707,301.38707,0,0,0,585.13079,646.96082Zm69.067-64.2259-.536-22.92054,9.68193,3.7809Zm-1.08851-46.54925-1.68291-71.967,32.13246,18.5505,12.12,13.15948L672.7725,543.86416Zm40.62783-71.04518L661.60367,446.5894l63.16608-34.52746,7.94642,6.35893-23.93762,50.094Zm74.83544-121.75566L745.5084,330.77839l41.20623-32.97548c.80633.83131,1.65247,1.62749,2.469,2.44944Zm30.67026-64.18277a274.07781,274.07781,0,0,1-25.086-30.88179l36.29194-8.14274c1.29692,2.32533,2.69512,4.62509,4.13879,6.91275Zm-36.82936-49.10875c-.04254-.072-.08918-.1407-.13153-.21271a10.89348,10.89348,0,0,0-1.656-2.1374l87.28987-50.39825-17.96507,37.59511ZM107.68285,36.56049A19.18335,19.18335,0,1,1,88.49949,55.74384,19.18336,19.18336,0,0,1,107.68285,36.56049Z"/></svg>