<svg id="Слой_1" data-name="Слой 1" xmlns="http://www.w3.org/2000/svg" viewBox="0 0 1003 1030"><title>Christmas flags</title><path d="M963.00925,10.98264H39.99078A21.12165,21.12165,0,0,0,20.9331,41.2107l461.50943,965.79189a21.1216,21.1216,0,0,0,38.115,0L982.06654,41.2107A21.12117,21.12117,0,0,0,963.00925,10.98264ZM839.19054,119.6883l-7.8229,13.85048c-.46951-4.56869-1.13183-9.20139-1.95221-13.85048Zm-73.6158,0h43.84242a165.35785,165.35785,0,0,1,2.82528,42.75859c-.09367.13855-.17524.28549-.2611.42971l-24.48617,14.13695-24.48422-14.13578c-.08586-.1446-.16782-.29193-.26149-.43088A165.35785,165.35785,0,0,1,765.57474,119.6883Zm-19.99788,0c-.82077,4.65026-1.48348,9.28374-1.953,13.8536L735.799,119.6883ZM656.86167,122.907a39.99306,39.99306,0,0,0,3.13439-3.21869h42.42841l20.11457,6.87216,8.43018,14.2876c-23.30048-10.44016-50.91285-17.24363-77.02456-15.53261C654.94458,124.56161,655.9203,123.76093,656.86167,122.907ZM746.439,171.86235c.07376.15163.1608.2972.24354.44473v28.271l-24.48539,14.13656c-.1686.00234-.3376-.0002-.505.0119-26.69675-12.97351-57.239-38.65708-70.63011-69.35465C684.34055,141.62,721.856,155.22933,746.439,171.86235ZM611.43332,399.24958c-.562,1.05885-1.02948,1.04714-2.97418.03805-4.18377-2.16941-6.30039-3.197-10.57559-5.13675-1.7037-.77218-4.71768-1.77444-4.10132-3.35236a59.14781,59.14781,0,0,0,3.70509-22.179c-.09074-5.0265-1.14422-16.21913-8.19084-16.50891a10.37478,10.37478,0,0,1-2.98159-.26032,4.38484,4.38484,0,0,1-2.64741-4.18036,8.97715,8.97715,0,0,1,1.78088-4.88716,10.39233,10.39233,0,0,1,2.78255-2.94139c2.54408-1.68662,5.94562-1.30629,8.83911-1.50455a51.37581,51.37581,0,0,0,9.08665-1.42611c4.934-1.24931,10.81415-3.38573,13.63182-7.94994,3.104-5.02864-3.81641-11.79913-10.87133-14.37678-8.53449-3.118-15.5653-2.25507-20.08189,6.27815-6.67224,12.60566-10.141,27.99641-12.55024,41.94992-.75735,4.386-1.39039,8.75119-1.79219,13.18972-.20939,2.31284.06732,5.26243-.64339,7.49076-.56289,1.76624-2.861.47225-3.84842.17368-4.58479-1.38649-6.8945-2.01856-11.54-3.15976-7.52511-7.83207.67441-29.868,2.87173-39.19021,2.47481-10.50007,6.2721-46.5553,21.34983-48.28758a289.09469,289.09469,0,0,1,36.51089,11.67268c12.43247,4.82921,29.17683,16.95013,21.33607,31.96776-8.02575,15.372-28.77493,12.85193-28.93846,14.88688C610.66865,363.03277,620.3177,382.72056,611.43332,399.24958Zm-67.636,154.51531,8.0278,40.77535-8.00126,14.16583c-2.5593-24.90768-10.31956-51.69381-24.57516-73.02959q1.69248.71715,3.4714,1.2897c8.84642,2.83836,17.487,2.3343,24.32576-1.41771a27.72779,27.72779,0,0,0,10.48563-36.99329A8.07753,8.07753,0,0,0,543.4837,506.533a11.62531,11.62531,0,0,1-4.20885,14.85273c-2.827,1.55139-7.17073,1.62554-11.6198.199-5.18261-1.6634-9.81746-5.17832-11.53257-8.74788-5.0222-10.45089.18265-25.08331,8.19465-32.19218,8.05141-7.14282,20.43676-9.79228,31.55289-6.74746,16.92906,4.63621,28.1453,18.77375,30.77524,38.78782,1.17632,8.94673.45117,16.99111-2.06364,23.46987-.22851.31808-.46229.63324-.68281.95581a8.04991,8.04991,0,0,0-1.19974,2.76479L562.40536,575.8065l-4.87155-24.7461a7.00011,7.00011,0,0,0-13.73652,2.70449Zm-91.51862-8.2204a7,7,0,0,0-8.2206,5.51592l-4.87194,24.74883-20.29528-35.93229a8.04455,8.04455,0,0,0-1.20013-2.76537c-.21817-.31984-.45-.63187-.67637-.947-.408-1.05007-.7513-2.15516-1.0647-3.28445V507.16432a47.87366,47.87366,0,0,1,9.67481-20.40007l23.58266-13.61572c10.149-1.68662,20.84909,1.091,28.06822,7.49564,8.01219,7.10945,13.21685,21.74187,8.19445,32.19276-1.71511,3.56956-6.35,7.08448-11.53276,8.74788-4.45024,1.42513-8.79256,1.35176-11.61941-.199a11.6256,11.6256,0,0,1-4.20885-14.85234,8.07693,8.07693,0,0,0-14.04562-7.97921,27.726,27.726,0,0,0,10.48348,36.99426c6.84094,3.753,15.47914,4.25666,24.32576,1.41771q1.77678-.56992,3.47082-1.2897c-14.2556,21.337-22.01585,48.12386-24.57477,73.03271L449.76718,594.543l8.0278-40.77809A7.00051,7.00051,0,0,0,452.27867,545.54449ZM379.65225,248.73041,360.281,231.80974l42.06408.39731a8.18578,8.18578,0,0,0,2.43929.37546c.20841,0,.41819-.00742.62914-.02381.39477-.02966.78935-.07513,1.18413-.11474a39.60307,39.60307,0,0,1,9.75208,2.93729l.50854,1.06431,13.68188,7.8992a58.42106,58.42106,0,0,1,6.49153,6.35991,453.50122,453.50122,0,0,0-76.65476,18.1932,182.56056,182.56056,0,0,0-38.61951-37.45168l16.58853.1565,31.91683,27.87873a7.137,7.137,0,0,0,9.38951-10.751Zm25.1239,50.21462a431.84729,431.84729,0,0,1,55.88265-12.80685c1.72428-.23554,6.867-1.191,7.08857.98079.08879.868-7.01286,17.17513-8.773,17.43994-2.30074.34579-7.21659-4.33881-20.59326-1.41654-9.41975,2.05661-18.09484,9.18285-15.28127,19.2696.61529,2.20609,2.17243,5.82034,5.70013,4.85887,4.03175-1.09827,11.92773-8.4456,22.84882-10.439,1.55919-.28491,5.92357-.57626,6.20526,1.2575.01688.10733-4.03224,18.85532-5.48138,19.13671-1.2092.23437-6.25-.988-10.97144.12274-6.176,1.45343-13.94054,7.87871-10.89679,18.23788,2.45949,8.37359,8.72378,12.97273,17.78457,10.84157,10.67823-2.51208,16.21308-10.54339,18.90722-10.94246,1.684-.25037,11.25927,17.12166,11.38192,18.20451.23359,2.05915-2.391,1.92236-3.62625,2.08023a228.99859,228.99859,0,0,0-46.60067,10.993c-5.20086,2.05271-5.68579-2.40046-13.12943-22.62607C408.75814,346.5742,399.239,318.022,404.77615,298.945Zm141.65714,77.50832c-.21934,1.17827-.66261,1.30726-2.793.93278-4.58567-.80731-6.88933-1.15252-11.51042-1.72507-1.83952-.22871-4.99449-.28608-4.87575-1.97582a59.68125,59.68125,0,0,0-2.70654-21.24094,33.10947,33.10947,0,0,0-4.4036-9.62914c-2.30035-3.21576-5.57017-3.75143-8.83023-5.689A8.07781,8.07781,0,0,1,507.44808,330.8c-.4783-7.63946,8.75627-8.3572,13.90083-11.22776,4.91927-2.74488,10.83464-6.84,12.31061-12.64645,1.458-5.73643-7.0877-10.12051-14.5489-10.48758-6.1234-.3013-12.602.49274-15.59321,6.56091-3.05526,6.11071-2.867,13.35813-2.92783,20.01232a220.06315,220.06315,0,0,0,.972,22.76774,110.49422,110.49422,0,0,0,1.87659,13.8013c.96771,4.30447,2.72273,8.575,2.69073,13.04649-.01327,1.85366-2.59023,1.29595-3.62283,1.30239-4.79086.03142-7.18868.10948-11.98.39165-9.531-5.24233-8.22606-28.7239-8.889-38.28357-.74584-10.75531-7.796-46.32308,6.0993-52.42852a292.71923,292.71923,0,0,1,38.20951.34228c13.28125.91151,32.55534,7.50579,29.561,24.10232-3.08248,17.085-23.39805,20.87934-22.95059,22.87722C535.07537,342.17841,549.95708,358.08179,546.43329,376.45335Zm34.73724,56.41978-28.51295,15.18058a136.65282,136.65282,0,0,0-8.26948-22.41785A317.57663,317.57663,0,0,1,581.17052,432.87313Zm-98.24638-9.5345c6.1473-.36628,12.33607-.57821,18.57577-.58738,5.73818-.00839,11.43461.15611,17.09639.45488a125.68635,125.68635,0,0,1,13.325,35.33964,45.64011,45.64011,0,0,0-31.12494,29.48145A45.64013,45.64013,0,0,0,469.671,458.54538,125.669,125.669,0,0,1,482.92415,423.33863Zm-26.49771,2.69473q-.76984,1.77356-1.48406,3.54848a147.08494,147.08494,0,0,0-6.05841,18.555L422.38,432.83566A320.66274,320.66274,0,0,1,456.42644,426.03336Zm44.36989,117.02383c19.50612,26.42687,26.34354,64.96354,24.27034,94.00065-.09191.136-.17192.28-.25642.4217l-24.0149,13.86492-24.01295-13.86394c-.0843-.14167-.16431-.28627-.25661-.42268C474.4524,608.02073,481.29,569.48406,500.79633,543.05719Zm70.351-291.57078a56.34661,56.34661,0,0,1,4.78754-5.03235l23.08134-13.32632c1.09124-.27554,2.177-.51557,3.24874-.68066.393.03922.78682.08469,1.17964.11435.21134.016.42014.02342.62836.02342a8.17613,8.17613,0,0,0,2.43558-.37428l42.06466-.39829-19.36991,16.9193a7.13752,7.13752,0,1,0,9.39107,10.751l31.91605-27.87815,16.58834-.1569A181.54223,181.54223,0,0,0,647.31029,270.491,454.865,454.865,0,0,0,571.14729,251.48641ZM616.563,143.49986c2.27732,3.334,3.01886,9.21856,1.84527,14.643-1.00713,4.65475-3.287,8.45282-6.09939,10.158a11.85282,11.85282,0,0,1-15.26136-3.85466,8.23531,8.23531,0,1,0-14.20564,8.33554,28.26907,28.26907,0,0,0,38.01037,9.60143c6.80152-4.12669,11.65083-11.49783,13.65456-20.757q.40219-1.85815.63031-3.7206c11.57355,23.46518,31.27091,43.97336,51.96076,58.93128l-16.58834-.15689-31.91527-27.87776a7.13752,7.13752,0,1,0-9.39107,10.751l19.37069,16.9193-42.074-.3979a8.20751,8.20751,0,0,0-3.05477-.34989c-.3938.02986-.788.07513-1.182.11455-1.06646-.16431-2.14677-.40278-3.23255-.67676L575.9282,201.82521c-12.98736-12.06355-18.09972-27.48435-14.01342-43.07941,2.97945-11.36787,11.63229-20.95447,22.04376-24.42216C594.31712,130.87214,609.89481,133.73548,616.563,143.49986ZM576.07377,119.6883a49.13661,49.13661,0,0,0-15.50412,10.08383A124.915,124.915,0,0,1,550.566,119.6883Zm-87.52814,0h33.6819A139.57243,139.57243,0,0,0,539.21494,141.195L507.592,159.453l-.384.21934c-.14363.07494-.2935.13738-.49488.22793-.02029.00859-.04059.018-.05932.02732-.07181.02342-.14831.04918-.231.07806a4.273,4.273,0,0,1-1.28014.26227h-.153a4.28511,4.28511,0,0,1-1.28794-.26227c-.07337-.02654-.14831-.05152-.2248-.07728-.04059-.01873-.0843-.03825-.128-.05854-.14206-.06323-.28569-.12333-.44961-.21l-32.66891-18.86019A160.24324,160.24324,0,0,0,488.54564,119.6883ZM472.592,199.59239a33.38247,33.38247,0,0,0,1.91914-9.45547c.47508-6.4487-.22617-13.29744-.22617-19.30395,0,1.58554,13.69739,7.95345,15.53544,8.96488,17.281,9.50933,31.155-.39458,46.02519-8.96956v19.29088c.00078,18.82956,16.93247,26.02956,30.778,34.023L549.87815,233.81a25.40822,25.40822,0,0,0-11.54721,13.72559c-12.15947-1.01221-24.43582-1.55685-36.831-1.55685q-15.10379,0-29.97623,1.02177a25.86651,25.86651,0,0,0-7.12868-10.24931c-6.04-5.19705-14.02543-8.64718-20.88715-12.60859,1.53207.88458,14.37912-8.3049,16.23767-9.6147C465.19451,210.68705,470.16686,205.94352,472.592,199.59239ZM458.286,119.6883a124.89181,124.89181,0,0,1-10.00011,10.08031,49.13084,49.13084,0,0,0-15.49749-10.08031Zm-83.93672,41.93587c2.00353,9.25915,6.85206,16.63049,13.654,20.7562a28.268,28.268,0,0,0,38.01037-9.60182,8.23526,8.23526,0,1,0-14.20564-8.33534,11.855,11.855,0,0,1-15.26175,3.85525c-2.812-1.70555-5.09207-5.50284-6.099-10.15837-1.174-5.4242-.432-11.30855,1.84469-14.64276,6.66863-9.76379,22.24261-12.62654,32.60549-9.1768,10.41108,3.4673,19.06392,13.05351,22.04278,24.42216,4.33179,16.53136-1.664,32.86991-16.433,45.217l-18.11767,10.46045a36.84177,36.84177,0,0,1-5.79458,1.41615c-.39438-.03961-.78877-.08508-1.18257-.11474a8.18737,8.18737,0,0,0-3.04853.35067l-42.08106.39809,19.36952-16.91969a7.13708,7.13708,0,1,0-9.38951-10.75122l-31.91527,27.87854-16.58912.1569c20.69025-14.9585,40.38682-35.46785,51.96-58.934Q373.94812,159.76133,374.34924,161.62417Zm-88.03083-35.06625,20.1056-6.86962h42.43622a40.00824,40.00824,0,0,0,3.134,3.21752c.94059.85278,1.91474,1.65306,2.91349,2.4067-26.10957-1.712-53.71939,5.09226-77.01948,15.53281Zm-13.2631-6.86962L265.232,133.53878c-.46932-4.56869-1.13183-9.20139-1.95221-13.85048Zm-10.88157,52.618c.08274-.14792.17-.29369.24393-.44571,24.58433-16.63361,62.09611-30.24094,95.37582-26.49029-13.39111,30.69719-43.9314,56.38076-70.6266,69.35426-.16919-.01229-.33974-.01-.50991-.0121l-24.48324-14.13519Zm-62.73481-52.618h43.84281a165.35733,165.35733,0,0,1,2.82509,42.75859c-.09347.13855-.17524.28549-.2611.42971l-24.48617,14.13695-24.484-14.13578c-.08606-.1446-.168-.29193-.26169-.43088A165.36593,165.36593,0,0,1,199.43893,119.6883Zm-19.99788,0c-.82058,4.65026-1.48328,9.28374-1.9526,13.8536l-7.82465-13.8536ZM107.68282,74.92714a19.18335,19.18335,0,1,1,19.18335-19.18335A19.1833,19.1833,0,0,1,107.68282,74.92714Zm19.84957,44.76115h8.75685l20.11457,6.87216,8.43018,14.2876a189.91311,189.91311,0,0,0-32.53056-11.17565ZM143.723,153.56983a165.23129,165.23129,0,0,1,36.58036,18.29252c.07376.15163.1606.2972.24354.44473v28.271l-11.25547,6.49846ZM243.81487,325.68061q-6.80123,4.4677-13.47268,9.15553l-25.74933-53.88546L221.36033,271.27l24.48461,14.13578c.08625.14538.169.2933.26344.43283A164.27434,164.27434,0,0,1,243.81487,325.68061Zm4.96-90.50973c-.13894.08586-.27749.17192-.41039.26539-.12274.08528-.23925.17563-.35633.26637-.10323.0802-.20588.15982-.30559.24432-.13.11045-.25388.22559-.37643.34248-.07942.07552-.15787.151-.234.22949-.12509.128-.24354.25993-.35926.39458-.06908.0804-.13738.1608-.20334.24354-.10772.135-.20978.27281-.30872.41312-.06752.09543-.13387.19163-.19768.28959-.08528.13153-.16529.26481-.24315.40024-.06752.11748-.1327.23593-.19495.35653-.06362.12275-.12235.24647-.17895.37136-.06381.13816-.12411.27749-.17973.41956-.04644.11689-.089.23476-.12977.3536-.05171.15026-.10128.3013-.14538.45507-.03532.12333-.066.24744-.09582.37194-.03532.14733-.06908.29506-.0966.44551-.02752.14655-.048.29408-.06771.442-.017.12918-.03493.25759-.04625.38873-.016.18109-.02225.36219-.02752.54445-.00176.07572-.01151.14948-.01151.22559v21.76939l-18.853-10.88508c-.0683-.03942-.13992-.06908-.209-.10655-.15611-.08469-.31262-.16782-.47381-.243-.12372-.05757-.249-.10869-.37428-.1606-.13231-.05425-.26422-.10811-.39887-.15572-.15065-.05366-.3015-.1003-.45312-.14519-.11631-.03415-.23242-.06791-.3495-.09738-.16275-.04078-.3253-.07513-.48883-.10635-.11513-.02186-.23027-.04293-.34579-.06049-.16-.02381-.31964-.04215-.47986-.057-.12782-.01229-.25544-.02225-.38346-.02888-.14577-.007-.29076-.00976-.43595-.00976-.14538,0-.29037.00273-.43595.00976-.128.00663-.25583.01659-.38346.02888-.16041.01483-.31964.03317-.47947.057-.1165.01756-.23144.03864-.34657.06049-.16353.03122-.32569.06557-.48825.10635-.11748.02947-.23339.06323-.3497.09738-.15143.04488-.30247.09152-.45273.14519-.13465.04761-.267.10147-.39965.15572-.12489.05191-.25017.103-.37448.1606-.1606.07513-.31711.15826-.47322.243-.06908.03747-.1405.06713-.2088.10655l-18.85336,10.88547V242.63433c0-.07611-.00956-.14987-.01132-.22559-.00507-.18226-.01112-.36336-.02752-.54445-.01132-.13114-.02966-.25954-.04625-.38873-.0201-.14792-.04-.29545-.06752-.442-.02752-.15046-.06147-.29818-.0966-.44551-.03005-.1245-.06069-.24861-.096-.37194-.0441-.154-.09328-.3052-.14519-.45566-.04137-.11826-.08352-.23573-.12938-.35243-.056-.14265-.11709-.28237-.1809-.42131q-.0843-.187-.17758-.3696c-.06245-.12118-.12821-.23964-.19592-.35711-.07767-.13562-.15807-.26871-.24354-.40043-.06323-.09777-.129-.19358-.19631-.28862-.09913-.14089-.20178-.27925-.31028-.41429-.06557-.08274-.13367-.16275-.20256-.24276-.11552-.13465-.23437-.267-.35906-.395-.0763-.07845-.15494-.154-.23417-.22949-.12255-.11689-.24627-.232-.37682-.34248-.09933-.0845-.20217-.16412-.305-.24432-.11709-.09074-.23378-.18109-.35633-.26637-.13367-.09347-.272-.17953-.41058-.26539-.07533-.04683-.14519-.09952-.22246-.14421l-15.29532-8.83042-1.5387-3.21986,16.834-9.7191c.07181-.04118.136-.09035.20685-.13367.146-.09016.29154-.18109.432-.27944.11689-.08157.22773-.16782.33935-.25388.10869-.08411.2168-.168.3214-.257.12567-.10713.24588-.21817.36453-.33135.08274-.079.16509-.15807.2451-.24042.12177-.12528.23807-.25466.35106-.38619.07123-.08255.14148-.16529.20978-.25076.10616-.13309.20646-.26891.30442-.40707.06869-.09718.1364-.19534.201-.29545.0843-.12977.16353-.2613.24-.395.0685-.119.135-.23886.19788-.36121.06245-.12118.1206-.24373.177-.36706.06381-.13933.1247-.27964.18148-.42268.04547-.1167.08762-.23417.129-.35223.05191-.15046.10108-.3015.14519-.45566.03532-.12333.066-.24744.096-.37233.03474-.14714.06908-.29428.0966-.44434.02752-.14733.04781-.29506.06752-.44356.01659-.12879.03493-.257.04625-.38755.01639-.18109.02244-.363.02752-.54523.00176-.07572.01132-.14948.01132-.2252V183.87985L216.968,194.76474l.02029.01a8.68972,8.68972,0,0,0,.79716.39185c.08625.039.17.08859.25661.12411.135.055.27671.09133.41448.13953a8.728,8.728,0,0,0,2.89514.51284l.00781-.00059.0082.00059a8.72709,8.72709,0,0,0,2.89241-.51206c.13855-.0482.28062-.08489.41683-.14031.08723-.03552.17095-.08508.2572-.12411a8.7861,8.7861,0,0,0,.797-.39185l.02029-.01,18.85434-10.88567V205.65c0,.07611.00976.14987.01151.22559.00488.18187.01151.36336.02752.54406.01132.13133.02927.26071.04625.39029.0201.14714.0402.29389.06732.43946.02791.15182.06206.30111.09777.45.02947.12255.05913.24471.09425.3657.04449.1565.09464.30989.14792.46268.03981.11572.08118.23085.12626.34482.05737.146.11943.28842.184.4301.05523.1206.11221.24.17251.35828q.09747.18851.20412.37155c.07415.12977.151.25759.233.38346.06752.10479.13758.207.21.30852.09406.13367.19163.265.29428.39341.07142.09016.14616.178.22168.265.10909.12723.2209.25173.33838.37272.0845.087.17173.17075.25935.25447.11435.10811.22929.215.35009.31769.10987.09386.22422.18265.339.27125.10557.08157.21075.16333.32121.24042.14753.10382.30052.19944.45449.29408.06459.03961.12431.08489.19046.12333l18.85317,10.8845-18.85317,10.88528C248.91981,235.07136,248.85034,235.124,248.77482,235.17088Zm13.39892,40.804V247.70629l24.47856-14.133c.161-.002.321-.0201.48122-.031a166.33192,166.33192,0,0,1,53.72613,42.29806q-21.745,8.27153-42.6219,18.61022a165.08834,165.08834,0,0,1-35.8193-18.0283C262.34429,276.26959,262.25687,276.12323,262.17374,275.97492Zm28.396,88.91444c4.28134-3.8371,6.454-5.69837,10.85708-9.30774,4.66607-3.82442,6.48295-5.27823,16.63683-3.712,19.50622,3.04775,24.20136,9.85648,26.50512,8.34081,1.72692-1.1371-2.56789-8.33047,4.10025-28.38064,3.52985-10.57812,5.753-11.58136,10.94119-14.20974,4.14982-2.10267,6.23941-3.11312,10.444-5.054,15.22312-1.02782,24.83782,33.7822,29.161,43.86076,3.78119,8.81481,15.92553,29.11087,9.77657,38.12453-4.96151,2.26405-7.41915,3.47433-12.27528,6.05315-1.138.60494-3.52429,2.0252-4.19343.41312-5.72726-13.79721-9.61148-32.0226-17.19855-47.08043-1.02792-2.04-6.71878-14.24818-10.74956-12.09283-3.54195,1.89406-2.85572,13.93459-2.707,16.87988.34189,8.91258,9.83073,31.4639,4.48136,35.597-6.61965,5.11451-23.73253-11.71308-33.178-16.42344-2.51305-1.1049-12.84149-7.056-16.28274-4.24671-3.66147,2.98979,4.99537,13.2994,6.43885,15.06407,10.64077,13.00785,26.76213,23.42752,37.22072,33.64892,1.22579,1.198-1.06451,2.95037-2.096,3.80041-3.67962,3.03-5.49182,4.60089-9.05337,7.85451-10.82625,2.62624-24.81762-16.83539-31.31-23.857C311.50963,403.04687,281.86632,377.59006,290.5697,364.88936Zm105.4335,75.93117a26.66339,26.66339,0,0,0,9.23388,9.76887c.24822.16548.50581.32784.80711.50347l16.70425,9.644-16.74328,9.66661a27.60452,27.60452,0,0,0-7.83861,6.82689,28.57734,28.57734,0,0,0-6.19609,17.53088v19.28717l-16.67459-9.6268a28.67915,28.67915,0,0,0-28.18179-.01717s-16.65478,9.61548-16.70416,9.644c1.37556-.79423.01064-15.50959-.0001-17.5701a30.74353,30.74353,0,0,0-7.282-20.242A354.18313,354.18313,0,0,1,396.0032,440.82053ZM361.82163,586.31438a23.17521,23.17521,0,0,1-8.897,5.04777L330.09136,543.5794q.99113-1.4905,2.12726-2.88617l23.60529-13.62841a43.30544,43.30544,0,0,1,9.78233-.54913l40.9906,23.66618,19.5592,33.14975-23.86854-8.155a7.00045,7.00045,0,0,0-4.52635,13.249L437.08951,601.862l8.26821,14.01264c-22.85282-10.239-49.93362-16.91169-75.543-15.23346.98079-.73959,1.93777-1.52485,2.8608-2.3624,6.88075-6.24224,10.7641-13.975,10.93367-21.77407a27.72817,27.72817,0,0,0-26.79608-27.57724l-.05737-.0002a8.077,8.077,0,0,0-.055,16.15375,11.6264,11.6264,0,0,1,10.75785,11.07242C367.38848,579.37762,365.28171,583.17609,361.82163,586.31438Zm5.166,33.99725c32.63808-3.67981,69.43154,9.66778,93.54167,25.98058.0724.1487.15768.29154.23886.43614v27.72711L436.75387,688.32c-.16548.00234-.33116-.0002-.49566.01151C410.07546,675.60778,380.121,650.41831,366.98766,620.31163ZM460.76818,748.404c-.08118.1446-.16646.28725-.23886.43634a157.684,157.684,0,0,1-25.6945,13.93361l-20.48827-42.87529a155.57868,155.57868,0,0,1,21.94014-13.11206c.15846.01073.31574.02849.4742.03044l24.00729,13.85985Zm40.02874,103.67135C481.29,825.6471,474.452,787.11,476.52579,758.07371c.09172-.136.17192-.28062.25622-.4219l24.01431-13.86473L524.80948,757.651c.08469.14245.16587.28764.25837.42463C527.14085,787.1114,520.304,825.64788,500.79692,852.07533Zm26.88624-143.69268c-.13621.0843-.272.1688-.40278.26013-.11982.08391-.23456.17251-.34931.26149-.10128.07845-.20178.1567-.29974.23964-.12762.10811-.24861.2211-.369.33584-.07786.074-.15494.14811-.22968.225-.12235.12567-.23886.25505-.352.38716-.06791.07864-.13484.15768-.19944.23886-.10577.13231-.20588.26735-.30286.40512-.06635.09347-.13153.18773-.194.28393-.08352.129-.162.25974-.23846.39243q-.09894.1727-.19124.3497c-.06206.12021-.12.24159-.17543.36414-.06225.13562-.12177.27242-.1766.41136-.04527.11494-.08664.23066-.12684.347-.05074.14753-.09952.29545-.14284.44649-.03435.121-.06459.24237-.09367.36492-.03474.14441-.06791.2892-.095.43673-.02673.14363-.04664.28842-.066.43341-.01659.12665-.03454.25271-.04566.3815-.01581.17719-.02186.35516-.02712.53391-.00176.07415-.01093.14636-.01093.2211v21.35042l-18.4902-10.6755c-.06713-.03864-.13738-.06791-.2051-.1046-.15319-.08313-.30676-.1647-.46464-.23807-.12138-.05679-.24432-.10674-.36726-.15768-.12977-.05308-.25935-.106-.39146-.1526-.14753-.05269-.29545-.09835-.44415-.14245-.114-.03356-.22793-.06674-.34267-.09562-.15963-.0402-.31925-.07357-.47947-.10421-.11279-.02147-.22559-.04215-.33935-.05932-.1569-.02322-.3132-.04137-.47049-.056-.12509-.0119-.25037-.02166-.37585-.0281-.143-.007-.2851-.00956-.42756-.00956-.14284,0-.28471.00254-.42775.00956-.12567.00644-.251.0162-.376.0281-.15709.01464-.31359.03278-.47029.056-.11416.01717-.227.03786-.33994.05932-.16021.03064-.31925.064-.47888.10421-.11513.02888-.22871.06206-.34267.09562-.14889.0441-.29681.08977-.44434.14245-.13211.04664-.26169.09952-.39185.1526-.12255.05093-.24549.10089-.36726.15768-.15748.07337-.31106.15494-.46405.23807-.06791.03669-.138.066-.2049.1046l-18.49059,10.67589V715.70248c0-.07474-.00937-.14694-.01093-.2211-.00507-.17875-.01132-.35672-.02712-.53391-.01112-.12879-.02888-.25486-.04547-.3815-.01951-.145-.039-.28979-.06615-.43341-.02712-.14753-.0603-.29232-.09464-.43673-.02947-.12255-.05932-.24393-.09406-.36492-.04332-.151-.09172-.29935-.14245-.44688-.04059-.11591-.082-.23124-.12684-.34579-.055-.13972-.11474-.27671-.17739-.41292q-.08284-.18382-.17446-.363c-.06108-.11865-.12548-.23476-.19183-.35009-.0765-.13289-.15533-.26344-.23886-.39263-.06206-.096-.12684-.18987-.19241-.28315-.09757-.138-.19827-.27379-.30481-.40648-.064-.08079-.13075-.15943-.19866-.23788-.11318-.13211-.22949-.26169-.352-.38736-.07474-.07689-.15182-.151-.22949-.225-.12021-.11474-.24159-.22773-.3696-.33584-.09757-.08294-.19827-.16119-.29935-.23964-.11474-.089-.2291-.17758-.34931-.26149-.13114-.09133-.26657-.17582-.40278-.26013-.074-.04586-.14245-.09738-.21778-.14148l-18.49079-10.67511,18.49079-10.67531c.06986-.04039.13328-.08879.20256-.13094.14324-.0886.28569-.17758.42366-.27437.11494-.07962.22344-.16451.33272-.24881.10694-.08255.21271-.1649.31535-.25232.12333-.105.2412-.21388.3575-.32472.08118-.07767.16236-.15494.24042-.23593.11923-.12294.23339-.24959.34423-.37877.06986-.08079.13894-.16216.20568-.24588.10421-.13036.20295-.26383.29876-.39926.06752-.09523.13367-.19163.19729-.28959.08235-.12723.16-.25642.23534-.38755.06713-.1167.13231-.23417.19417-.35438.06069-.11865.11787-.23866.17348-.35984.06225-.1366.122-.27418.178-.41448.04449-.11435.08586-.22949.12645-.3454.05074-.14753.09913-.29584.14245-.44688.03474-.121.06459-.24276.09406-.36531.034-.14441.06752-.28862.09464-.43575.02712-.1446.047-.2894.06615-.43517.01659-.12626.03435-.25193.04547-.37994.01581-.17758.02205-.35614.02712-.53469.00156-.07415.01093-.14655.01093-.2209v-21.3512L496.48835,668.754l.0199.00976a8.505,8.505,0,0,0,.78174.38443c.08469.03825.16685.087.25193.12177.1325.05386.27125.08938.40648.1366a8.55584,8.55584,0,0,0,2.83933.50308l.00761-.00059.0082.00059a8.55873,8.55873,0,0,0,2.8366-.5021c.136-.04742.27535-.08333.40882-.13758.08547-.03474.16743-.08352.25232-.12177a8.551,8.551,0,0,0,.78155-.38443l.0199-.00976,18.49176-10.67609v21.352c0,.07474.00917.14675.01093.22129.00468.17817.01132.35633.02712.53352.01112.12879.02908.25564.04566.38287.01951.14421.03922.288.06576.43088.02732.14909.06088.29545.09582.44141.02908.12021.05835.24.0925.35867.04352.15338.09289.30384.145.45371.039.11338.07962.22637.12392.33818.0562.143.11709.283.1807.4219.05405.11826.10987.23534.16919.35145.06362.12314.13075.24451.2.36433.07279.12723.14831.25252.22812.37624.06635.10265.13543.20295.20646.30247.0923.13114.18773.25954.28842.386.07006.0882.14324.17407.21719.25954.10713.12489.217.24705.33213.3657.08294.08547.16841.16743.25427.24939.112.10616.2252.21114.34326.31184.10791.09211.21993.17914.33233.266.10382.07981.20724.16021.31535.23593.1448.10147.29467.19534.44571.28823.06362.03883.12216.08333.18695.121l18.4902,10.67492-18.4902,10.67589C527.82522,708.28528,527.75731,708.3368,527.68315,708.38266ZM567.926,763.27408a158.39013,158.39013,0,0,1-26.86165-14.43376c-.07279-.14987-.15846-.2931-.24022-.43868V720.67687l24.00768-13.861c.15807-.002.31477-.01971.47205-.03044A156.28989,156.28989,0,0,1,588.297,720.64448Zm-2.58955-74.94453c-.16587-.0119-.33291-.00956-.5-.01171l-24.01236-13.86316V646.72777c.08157-.14519.167-.288.23925-.43712,24.1115-16.31358,60.90144-29.659,93.5405-25.98058C621.47051,650.41675,591.51818,675.60583,565.33641,688.32955Zm84.58284-96.64113a22.51362,22.51362,0,0,1-10.14978-5.376c-3.46067-3.13829-5.56782-6.93656-5.63886-10.16071a11.62665,11.62665,0,0,1,10.759-11.07262,8.077,8.077,0,0,0-.055-16.15375c-.01971,0-.03825,0-.05815.00059a27.72755,27.72755,0,0,0-26.7951,27.57685c.169,7.79987,4.05332,15.53261,10.935,21.77485.92225.83638,1.87806,1.62144,2.85729,2.36045-25.60707-1.679-52.68553,4.99449-75.53718,15.23385l8.26782-14.01225,39.32544-13.43678a6.99984,6.99984,0,1,0-4.52713-13.24749l-23.86523,8.15386,20.07242-34.01911L638.496,526.42456a41.32975,41.32975,0,0,1,12.3549,1.83844l16.7667,10.46436a35.52275,35.52275,0,0,1,4.69241,6.10447Zm28.148-107.07933c-4.44624,8.79627-3.05975,20.64263-3.39061,30.25733,0,0-16.32275-10.18725-16.39027-10.2294-15.9311-9.94254-31.04571.61353-45.13446,8.11405,1.39732-.74389.57958-15.68951.61109-17.76544.30335-20.00178-14.89625-27.43361-29.53755-36.57256l17.02458-9.0642a28.01449,28.01449,0,0,0,8.87023-7.53682,356.17128,356.17128,0,0,1,72.689,36.26755A26.95876,26.95876,0,0,0,678.06729,484.60909Zm49.63827-100.99555c-22.02317,20.49257-57.117,7.41544-76.83537,32.496-1.47089,1.87084-2.41656,4.073-3.84881,5.86151-1.43138,1.78732-3.88023-.43946-5.14573-1.41147-3.91272-3.00735-5.90347-4.4518-9.94537-7.2201-2.35069-1.61091-.42639-5.28448.77735-7.1036,7.22332-10.91279,20.48017-14.86737,21.24484-17.291,4.19675-13.30174-9.40639-38.45842,1.55275-57.9538,3.96121-7.04662,5.97421-6.22507,11.65649-2.81787,4.04044,2.4229,6.04251,3.67455,10.00645,6.25883,2.35362,1.536,7.13638,4.5281,5.36819,7.02047-.50425.71052-4.97927,4.70861-5.97772,6.21492-6.40021,9.65529-8.31817,30.23411-3.55648,34.097,4.8457,3.931,26.93034-2.87407,34.702-10.40815,2.35421-2.2822,4.44282-6.84523,5.03011-7.49057,1.54222-1.69521,4.18162,1.24677,5.74609,2.68615,3.35149,3.08131,5.00571,4.65729,8.26812,7.8791C731.09968,378.72969,730.805,380.72952,727.70556,383.61354Zm2.84324-75.46146c-.1769-.1005-.35594-.1967-.53294-.2972.31594-.13953.63822-.2734.95259-.41409Zm12.60449,7.42539.47059-.83307c.04118.40043.10138.80692.14519,1.20833C743.56376,315.82784,743.35877,315.70216,743.15328,315.57747Zm3.52926-39.6002c-.08274.14753-.16977.2931-.24354.44493A166.08227,166.08227,0,0,1,707.15913,295.66q-19.86669-9.9602-40.55211-18.088a165.85107,165.85107,0,0,1,55.114-44.02859c.16158.01093.3216.02927.48317.03122l24.47837,14.13168Zm25.97794,58.85283q-3.35568-2.35226-6.74434-4.64929a166.02353,166.02353,0,0,1-3.16669-44.34413c.09367-.13855.17524-.28588.26149-.4301l24.485-14.13656,12.17771,7.03062Zm49.68022-103.96524-7.20781,4.16182c-.07728.04469-.14714.09738-.22246.14421-.13894.08586-.2771.17192-.41058.26539-.12255.08528-.23886.17563-.35594.26637-.10382.0802-.20607.15982-.30559.24432-.13.11045-.25408.22559-.37663.34248-.07923.07552-.15807.151-.23417.22949-.12489.128-.24354.25993-.35867.39458-.06947.0804-.13777.1608-.20373.24354-.10733.135-.20958.27281-.30872.41312-.06752.09543-.13387.19163-.19748.28959-.08547.13153-.16548.26481-.24354.40024-.06713.11748-.1327.23593-.19514.35653-.06323.12275-.12216.24647-.17875.37136-.06362.13816-.12372.27749-.17953.41956-.04644.11689-.089.23476-.12957.3536-.0523.15026-.10147.3013-.14558.45507-.03552.12333-.066.24744-.09562.37194-.03591.14733-.06908.29506-.09679.44551-.02732.14655-.048.29408-.06752.442-.01717.12918-.03474.25759-.04644.38873-.016.18109-.02225.36219-.02771.54445-.002.07572-.01132.14948-.01132.22559v12.50438l-3.46965,7.26147-15.38313-8.88155c-.0683-.03942-.14011-.06908-.20919-.10655-.1565-.08469-.31262-.16782-.47381-.243-.12372-.05757-.249-.10869-.37428-.1606-.1327-.05425-.26422-.10811-.39926-.15572-.15026-.05366-.3013-.1003-.45234-.14519-.1167-.03415-.233-.06791-.3497-.09738-.16275-.04078-.3255-.07513-.489-.10635-.11513-.02186-.22988-.04293-.34579-.06049-.16-.02381-.31964-.04215-.47966-.057-.128-.01229-.25564-.02225-.38365-.02888-.14558-.007-.29076-.00976-.43595-.00976s-.29037.00273-.43595.00976c-.128.00663-.25564.01659-.38365.02888-.16.01483-.31964.03317-.47966.057-.11591.01756-.23144.03864-.34618.06049-.16353.03122-.3255.06557-.48864.10635-.11709.02947-.233.06323-.34931.09738-.15143.04488-.30247.09152-.45273.14519-.13465.04761-.26657.10147-.39926.15572-.12528.05191-.25056.103-.37467.1606-.1608.07513-.31769.15826-.47342.243-.06908.03747-.14089.06713-.20919.10655L764.2505,264.40411V242.63433c0-.07611-.01015-.14987-.01132-.22559-.00546-.18226-.01132-.36336-.02771-.54445-.01132-.13114-.02966-.25954-.04644-.38873-.0199-.14792-.0402-.29545-.06752-.442-.02732-.15046-.06128-.29818-.09679-.44551-.02966-.1245-.0601-.24861-.09523-.37194-.04449-.154-.09367-.3052-.146-.45566-.041-.11826-.08313-.23573-.12879-.35243-.05659-.14265-.11709-.28237-.18109-.42131q-.0843-.187-.17758-.3696c-.06284-.12118-.1284-.23964-.19592-.35711-.07767-.13562-.15807-.26871-.24354-.40043-.06323-.09777-.12918-.19358-.19631-.28862q-.1487-.21134-.31028-.41429c-.06557-.08274-.13348-.16275-.20256-.24276-.11552-.13465-.23417-.267-.35945-.395-.07611-.07845-.15455-.154-.23378-.22949-.12255-.11689-.24666-.232-.37663-.34248-.09952-.0845-.20256-.16412-.3052-.24432-.11709-.09074-.23378-.18109-.35633-.26637-.13348-.09347-.272-.17953-.41058-.26539-.07533-.04683-.14558-.09952-.22246-.14421l-18.85356-10.8845L759.859,213.25728c.07181-.04118.13621-.09035.20685-.13367.146-.09016.29154-.18109.43166-.27944.11709-.08157.22793-.16782.33955-.25388.10889-.08411.217-.168.3216-.257.12567-.10713.24588-.21817.36453-.33135.08274-.079.16548-.15807.2451-.24042.12177-.12528.23807-.25466.35126-.38619.071-.08255.14128-.16529.20958-.25076.10616-.13309.20646-.26891.30442-.40707.06869-.09718.13621-.19534.201-.29545.0843-.12977.16392-.2613.24-.395.0683-.119.13465-.23886.19788-.36121.06245-.12118.1206-.24373.17719-.36706.06362-.13933.12411-.27964.18109-.42268.04566-.1167.08781-.23417.12879-.35223.0523-.15046.10147-.3015.146-.45566.03513-.12333.06557-.24744.09523-.37233.03513-.14714.06947-.29428.09679-.44434.02732-.14733.048-.29506.06752-.44356.01678-.12879.03513-.257.04644-.38755.01639-.18109.02225-.363.02771-.54523.00117-.07572.01132-.14948.01132-.2252V183.87985l18.85278,10.88489.02069.01a8.711,8.711,0,0,0,.797.39185c.08664.039.17016.08859.25681.12411.135.055.27632.09133.41448.13953a8.72891,8.72891,0,0,0,2.89514.51284l.00781-.00059.00859.00059a8.72659,8.72659,0,0,0,2.892-.51206c.13855-.0482.281-.08489.41683-.14031.08742-.03552.17095-.08508.2572-.12411a8.7042,8.7042,0,0,0,.79657-.39185l.02069-.01,18.85434-10.88567V205.65c0,.07611.00937.14987.01132.22559.00468.18187.01171.36336.02771.54406.01171.13133.02927.26071.04644.39029.0199.14714.0402.29389.06713.43946.0281.15182.06167.30111.09757.45.02966.12255.05932.24471.09406.3657.04449.1565.09523.30989.14831.46268.03981.11572.08118.23085.12645.34482.05737.146.11943.28842.18382.4301q.08255.1809.1729.35828c.0644.12567.1327.24939.20334.37155.07454.12977.15143.25759.233.38346.06791.10479.13816.207.21036.30852.09406.13367.19163.265.29428.39341.07142.09016.146.178.22168.265.10889.12723.2209.25173.33838.37272.08469.087.17173.17075.25954.25447.114.10811.2291.215.35009.31769.10967.09386.224.18265.33877.27125.10538.08157.21075.16333.32121.24042.14753.10382.30052.19944.45468.29408.06479.03961.12411.08489.19046.12333L827.377,220.326Zm12.63435-26.43916-6.66609-3.84842v-28.271c.08313-.14792.17056-.29369.24432-.44571a162.3836,162.3836,0,0,1,29.42017-15.56306Zm34.87832-72.98939a191.5878,191.5878,0,0,0-25.82993,9.409l8.43018-14.2874,20.106-6.86962h2.90763Zm22.74823-56.50916A19.18335,19.18335,0,1,1,911.785,55.74379,19.1833,19.1833,0,0,1,892.60161,74.92714Z"/></svg>