<svg id="Слой_1" data-name="Слой 1" xmlns="http://www.w3.org/2000/svg" viewBox="0 0 1003 1030"><title>Christmas flags</title><path d="M963.00928,10.98259H39.99081A21.12169,21.12169,0,0,0,20.93323,41.21085l461.50933,965.7917a21.12153,21.12153,0,0,0,38.115,0l461.509-965.7917A21.12137,21.12137,0,0,0,963.00928,10.98259ZM795.42347,119.68834A183.42479,183.42479,0,0,1,755.14261,211.189c1.471-12.77309.85843-29.83768-8.0276-45.71277-9.63227-17.20548-27.40883-28.24648-45.48377-28.32717-.29193-.00137-.58367.00039-.87346.00517-21.784.33047-40.76872,17.36813-42.31777,37.97954-.86,11.4308,4.19675,22.97664,13.52615,30.8855,8.75978,7.42637,19.69189,10.23858,29.98745,7.72942,8.74027-2.13662,15.58159-7.62668,18.77258-15.0632,4.6247-10.779.0964-23.41435-10.09436-28.16628A13.27165,13.27165,0,0,0,692.85741,187.849a10.1422,10.1422,0,0,1-3.73016-2.07554c-2.73883-2.32269-4.436-5.798-4.22192-8.64787.51127-6.7863,8.4095-13.31423,16.25347-13.43326,8.6706-.11221,17.78378,5.79419,22.7974,14.7496,4.85594,8.67684,6.41182,20.37919,4.37745,32.952-2.073,12.81827-7.47945,25.53019-12.44818,36.50113a159.39315,159.39315,0,0,0-69.7385-15.71663c-.73784-.002-1.47587.0199-2.2139.03932-9.64436-43.93619-39.15235-80.27252-71.24071-112.52939Zm-306.2596,0h29.983c38.356,36.03269,76.97421,73.39529,87.87686,117.90773l-3.85408,1.13612c-1.98246.61519-4.07615,1.14637-5.90386,1.89367q-6.07734,2.15833-12.0415,4.72568a177.54025,177.54025,0,0,0-74.84364-103.32166,11.39813,11.39813,0,0,0-3.70148-1.5146c-.05854-.01386-.114-.03522-.17251-.0482a11.35212,11.35212,0,0,0-1.51626-.19163c-.28569-.02449-.56709-.06186-.85434-.06489-.28764.00049-.56923.03532-.85512.05727a11.31657,11.31657,0,0,0-1.51782.17807c-.05893.01239-.11474.03347-.17329.04683a11.40828,11.40828,0,0,0-3.71553,1.48123,177.5398,177.5398,0,0,0-75.762,102.64988q-5.9386-2.61233-11.999-4.83292c-1.82127-.7635-3.91008-1.31341-5.88688-1.94626l-3.84393-1.17037C411.66785,192.316,450.53529,155.33641,489.16388,119.68834Zm15.718,631.5035c-15.89909-.78526-31.3517,5.31111-43.184,15.57506,3.31275-40.15148,15.83509-84.18358,40.16358-116.83776,23.77039,32.50568,35.8958,76.03567,39.01887,115.85482A60.88,60.88,0,0,0,504.88188,751.19184Zm32.64862,55.81933L501.067,827.8466l-35.03366-20.43539c2.772-17.03639,20.36689-31.50381,37.59335-30.67279C519.55723,777.52114,534.47729,791.33747,537.5305,807.01117ZM502.265,559.51405c-4.475-12.69757-11.95271-24.07725-20.88851-32.07753a78.46026,78.46026,0,0,0-30.03487-16.5897,208.57213,208.57213,0,0,1,51.5777-98.04235A208.56967,208.56967,0,0,1,553.62044,511.304a78.45294,78.45294,0,0,0-30.18123,16.32109C514.43218,535.54491,506.85282,546.85707,502.265,559.51405ZM453.84726,311.00053q2.92129,3.44481,5.53953,7.111a108.19828,108.19828,0,0,1,16.1319,33.83206,135.40333,135.40333,0,0,1,4.82745,30.71514,243.58271,243.58271,0,0,0-30.94541,38.39383C432.9847,386.62533,434.48126,343.93533,453.84726,311.00053Zm-10.77541-55.5554a154.41515,154.41515,0,0,1,60.951-89.92186,154.41753,154.41753,0,0,1,60.14585,90.46212q-5.22466,3.08082-10.2616,6.54432a152.7879,152.7879,0,0,0-35.92975,34.32461,142.47843,142.47843,0,0,0-14.64959,24.4369,142.465,142.465,0,0,0-14.431-24.56667,152.79449,152.79449,0,0,0-35.622-34.64386Q448.27515,258.56855,443.07185,255.44513Zm82.68878,127.41627a135.41243,135.41243,0,0,1,5.10143-30.67094,108.1989,108.1989,0,0,1,16.4332-33.68668c1.76039-2.43158,3.63513-4.78228,5.60295-7.06145,19.07114,33.10555,20.18678,75.80794,3.46477,110.08747A243.60178,243.60178,0,0,0,525.76063,382.86141ZM363.52292,230.96677c-.738-.026-1.47606-.05444-2.2137-.059a159.39419,159.39419,0,0,0-69.87588,15.09383c-4.87058-11.0131-10.16266-23.77146-12.1221-36.60973-1.92138-12.59249-.26188-24.28147,4.67134-32.91167,5.09246-8.90828,14.30009-14.74911,22.92717-14.54656,7.84339.1889,15.68307,6.78708,16.13307,13.57767.18948,2.85163-1.5387,6.31171-4.2992,8.60991a10.13779,10.13779,0,0,1-3.74753,2.04217,13.271,13.271,0,0,0-17.61791-17.48775c-10.23584,4.6608-14.87693,17.25622-10.34551,28.07924,3.12561,7.46257,9.91854,13.01253,18.63851,15.226,10.27077,2.60984,21.2265-.1127,30.05439-7.46149,9.39965-7.82544,14.55885-19.32571,13.80091-30.76383-1.36717-20.62429-20.19771-37.83064-41.97685-38.35548-18.37448-.44932-36.66583,10.51343-46.60916,27.9083-8.73656,15.2842-9.73374,31.75877-8.55976,44.39614a183.4742,183.4742,0,0,1-37.47763-88.01619H435.1467C403.01072,151.50614,373.49512,187.39726,363.52292,230.96677ZM107.68285,74.92719A19.18335,19.18335,0,1,1,126.8662,55.74384,19.18343,19.18343,0,0,1,107.68285,74.92719Zm19.84967,44.76115h61.6103a209.57407,209.57407,0,0,0,40.975,100.97292,294.25737,294.25737,0,0,0-61.93-15.89441Zm94.85157,194.11015q-1.54026-1.0987-3.11917-2.14355L185.182,240.33022c26.0961,5.98855,51.29494,15.89012,71.05942,28.559a135.10344,135.10344,0,0,0-22.83292,25.55858A142.97213,142.97213,0,0,0,222.38408,313.79849Zm99.06129,211.68757L312.636,507.05089c1.21906.07289,2.43714.15338,3.66264.1726,2.21761-.04518,4.43463.03727,6.64853-.15611l6.63975-.68759a68.82794,68.82794,0,0,0,13.41355-3.4716,75.325,75.325,0,0,0,23.12017-13.65631,78.07432,78.07432,0,0,0,17.01492-20.4231,67.95328,67.95328,0,0,0,8.82086-25.86574,57.93038,57.93038,0,0,0-3.536-28.20921,13.37951,13.37951,0,0,0-24.98144,9.58475l.05386.146a30.90857,30.90857,0,0,1,1.55841,15.05724,40.77421,40.77421,0,0,1-5.63144,15.39757,50.3711,50.3711,0,0,1-25.97277,21.42789,40.52548,40.52548,0,0,1-7.89081,1.91133l-4.31618.36053c-1.44055.11709-2.90295-.01-4.35091.02059a61.09021,61.09021,0,0,1-17.38842-3.24143c-.80926-.26783-1.60544-.5907-2.4069-.8919l-11.33391-23.71867c14.74267-2.59023,27.611-12.02677,32.82776-25.35124a11.50131,11.50131,0,0,0-21.41891-8.38754c-2.91583,7.44754-12.63942,12.338-22.12026,11.32308l-33.6739-70.46863a115.72025,115.72025,0,0,1,17.18587-42.55652c-1.18842,17.55878,3.29148,35.09854,13.19207,48.827,12.36856,17.14928,33.12516,27.21544,53.38687,27.30482a57.07143,57.07143,0,0,0,19.98539-3.42281c27.66759-10.1933,43.62874-42.66,34.15707-69.47818-6.15442-17.4256-24.79294-32.80054-45.31634-28.38279a11.50122,11.50122,0,0,0,4.84482,22.48644c7.66952-1.6393,16.04974,5.81956,18.78155,13.5562,5.255,14.87859-4.6688,34.43115-20.41822,40.23373-15.686,5.7776-36.22618-1.14178-46.7643-15.75313-10.43626-14.471-12.06882-35.39643-4.15987-53.30862a66.22334,66.22334,0,0,1,10.61891-16.55624,123.18883,123.18883,0,0,1,25.42188-10.435c24.85343-7.08311,51.92271-6.63126,75.53484,2.59521A146.69677,146.69677,0,0,1,436.869,294.7253c-28.54651,44.2331-28.871,104.98174-.90078,149.55839a243.08818,243.08818,0,0,0-20.98257,58.8743,18.55969,18.55969,0,0,0-.36219,5.11958,85.042,85.042,0,0,0-9.6389,1.98773,91.4236,91.4236,0,0,0-53.86478,39.55756Zm97.23924,203.49058,12.44681-61.76954a11.50166,11.50166,0,0,0-22.55-4.54449l-6.40226,31.7735-41.867-87.6141c.15943-2.43363.376-4.8979.71949-7.42383,4.46683-32.86425,23.00055-56.01018,50.84923-63.50368,18.28842-4.92278,38.61629-.47878,51.79255,11.31655,13.11225,11.73971,21.55649,35.81911,13.22817,52.95365-2.84363,5.852-10.485,11.59316-19.01241,14.28819-7.322,2.309-14.4562,2.15653-19.08988-.41214a19.10077,19.10077,0,0,1-6.8062-24.43338,13.27075,13.27075,0,0,0-23.01889-13.21295c-5.65525,9.85073-7.0355,22.187-3.78675,33.84553,3.24757,11.65844,10.80742,21.50468,20.7402,27.01327,11.21253,6.21668,25.40178,7.10721,39.95731,2.50788q2.92276-.92366,5.71243-2.09408c-23.05987,34.18361-35.92741,76.9707-40.58743,117.103ZM501.5,902.28278l-27.434-57.41062,19.7961,11.5473c.01073.00624.02225.01015.03317.01649a14.15341,14.15341,0,0,0,1.28131.63734c.13894.06284.2732.14363.41351.20178.21719.08957.44473.14889.66622.22754a14.06547,14.06547,0,0,0,4.66138.84721l.01307-.00078.01307.00088a14.06363,14.06363,0,0,0,4.6647-.80428c.22363-.07708.45312-.13465.67246-.22285.1405-.05688.27554-.1365.41526-.19817a14.12064,14.12064,0,0,0,1.28677-.62592c.01093-.00615.02264-.01.03356-.0161l21.1422-12.08092ZM600.9284,694.21063l-5.90484-30.71631a11.50136,11.50136,0,0,0-22.589,4.34311l11.79016,61.3289-12.46535,26.08605c-4.31618-40.13031-16.7987-82.96833-39.52546-117.31488q2.77581,1.19091,5.6935,2.14492c14.514,4.728,28.71434,3.96326,39.97819-2.15116,9.9806-5.41981,17.62787-15.19619,20.98042-26.82525s2.08335-23.978-3.48155-33.8788a13.27156,13.27156,0,0,0-23.1389,13.00492,19.10083,19.10083,0,0,1-7.024,24.3727c-4.65651,2.52827-11.79348,2.61814-19.0928.24188-8.50317-2.771-16.09306-8.58015-18.8842-14.45737-8.17494-17.20811.48376-41.21121,13.7-52.83247,13.28105-11.67629,33.6497-15.9388,51.89168-10.855,27.7798,7.74162,46.1051,31.05205,50.27941,63.95494.1848,1.45538.315,2.884.43888,4.30905Zm126.01934-263.7182c-8.19133-.484-15.84328-5.0868-18.3216-11.58789a11.50229,11.50229,0,0,0-21.495,8.196c4.73729,12.424,16.11258,21.54732,29.508,24.96427l-12.21167,25.55536a60.63445,60.63445,0,0,1-16.07238,2.69659c-1.448-.04352-2.91154.07054-4.35072-.05942l-4.31286-.399a40.5321,40.5321,0,0,1-7.87344-1.98148A50.37135,50.37135,0,0,1,646.03769,456.218a40.76663,40.76663,0,0,1-5.49386-15.44714,30.909,30.909,0,0,1,1.69228-15.04271l.05542-.14548a13.37946,13.37946,0,0,0-24.8948-9.80731,57.92448,57.92448,0,0,0-3.78753,28.17662,67.95127,67.95127,0,0,0,8.58962,25.94321,78.07508,78.07508,0,0,0,16.83207,20.57433,75.324,75.324,0,0,0,22.99742,13.8619,68.82918,68.82918,0,0,0,13.38194,3.59122l6.6335.74672c2.21175.21319,4.42955.15046,6.64638.21544.27164-.00185.54074-.02644.81219-.03093L679.164,530.48856,653.4867,551.16681a91.41965,91.41965,0,0,0-53.50454-40.03166,85.07653,85.07653,0,0,0-9.62153-2.0732,18.54582,18.54582,0,0,0-.31711-5.123,243.07634,243.07634,0,0,0-20.45627-59.05919c28.36581-44.3254,28.58437-105.07541.43361-149.56043a146.69157,146.69157,0,0,1,39.23548-21.34251c23.69369-9.01561,50.7659-9.22588,75.55533-1.92128a123.16276,123.16276,0,0,1,25.32841,10.66194,66.21431,66.21431,0,0,1,10.471,16.64873c7.74894,17.98312,5.92884,38.8931-4.637,53.27144-10.6675,14.51777-31.26857,21.25158-46.90226,15.33415-15.6979-5.94279-25.44608-25.58307-20.05837-40.41327,2.80147-7.71294,11.26952-15.09764,18.902-13.38906a11.5014,11.5014,0,0,0,5.04679-22.44234c-20.516-4.60391-39.2589,10.60944-45.56944,27.97728-9.71149,26.73363,5.96006,59.34049,33.53691,69.78026a57.03026,57.03026,0,0,0,19.95495,3.601c20.25879.09035,41.1071-9.79014,53.62534-26.8274,10.02294-13.63914,14.65954-31.13831,13.628-48.70734a114.58134,114.58134,0,0,1,15.44246,36.28131ZM782.91051,313.3805a141.46867,141.46867,0,0,0-9.43478-16.52336A135.08842,135.08842,0,0,0,750.86488,271.09c18.24354-11.46612,41.04368-20.565,64.88509-26.43243Zm50.01577-104.66727a294.38139,294.38139,0,0,0-54.18735,13.89224,209.57839,209.57839,0,0,0,42.44461-102.91713h54.28375Zm59.67536-133.786A19.18335,19.18335,0,1,1,911.785,55.74384,19.18336,19.18336,0,0,1,892.60164,74.92719Z"/></svg>